<?xml version="1.0" encoding="utf-8" standalone="no"?>
<!DOCTYPE svg PUBLIC "-//W3C//DTD SVG 1.1//EN"
  "http://www.w3.org/Graphics/SVG/1.1/DTD/svg11.dtd">
<!-- Created with matplotlib (https://matplotlib.org/) -->
<svg height="345.6pt" version="1.1" viewBox="0 0 460.8 345.6" width="460.8pt" xmlns="http://www.w3.org/2000/svg" xmlns:xlink="http://www.w3.org/1999/xlink">
 <defs>
  <style type="text/css">
*{stroke-linecap:butt;stroke-linejoin:round;}
  </style>
 </defs>
 <g id="figure_1">
  <g id="patch_1">
   <path d="M 0 345.6 
L 460.8 345.6 
L 460.8 0 
L 0 0 
z
" style="fill:#ffffff;"/>
  </g>
  <g id="axes_1">
   <g id="patch_2">
    <path d="M 57.6 307.584 
L 414.72 307.584 
L 414.72 41.472 
L 57.6 41.472 
z
" style="fill:#ffffff;"/>
   </g>
   <g id="patch_3">
    <path clip-path="url(#p11df8cbd73)" d="M 111.751021 307.584 
L 114.238089 307.584 
L 114.238089 281.779989 
L 111.751021 281.779989 
z
" style="fill:#f48024;opacity:0.4;"/>
   </g>
   <g id="patch_4">
    <path clip-path="url(#p11df8cbd73)" d="M 114.238089 307.584 
L 116.725156 307.584 
L 116.725156 216.097052 
L 114.238089 216.097052 
z
" style="fill:#f48024;opacity:0.4;"/>
   </g>
   <g id="patch_5">
    <path clip-path="url(#p11df8cbd73)" d="M 116.725156 307.584 
L 119.212224 307.584 
L 119.212224 176.218127 
L 116.725156 176.218127 
z
" style="fill:#f48024;opacity:0.4;"/>
   </g>
   <g id="patch_6">
    <path clip-path="url(#p11df8cbd73)" d="M 119.212224 307.584 
L 121.699292 307.584 
L 121.699292 230.171967 
L 119.212224 230.171967 
z
" style="fill:#f48024;opacity:0.4;"/>
   </g>
   <g id="patch_7">
    <path clip-path="url(#p11df8cbd73)" d="M 121.699292 307.584 
L 124.18636 307.584 
L 124.18636 218.442872 
L 121.699292 218.442872 
z
" style="fill:#f48024;opacity:0.4;"/>
   </g>
   <g id="patch_8">
    <path clip-path="url(#p11df8cbd73)" d="M 124.18636 307.584 
L 126.673428 307.584 
L 126.673428 227.826148 
L 124.18636 227.826148 
z
" style="fill:#f48024;opacity:0.4;"/>
   </g>
   <g id="patch_9">
    <path clip-path="url(#p11df8cbd73)" d="M 126.673428 307.584 
L 129.160496 307.584 
L 129.160496 159.797392 
L 126.673428 159.797392 
z
" style="fill:#f48024;opacity:0.4;"/>
   </g>
   <g id="patch_10">
    <path clip-path="url(#p11df8cbd73)" d="M 129.160496 307.584 
L 131.647564 307.584 
L 131.647564 105.843552 
L 129.160496 105.843552 
z
" style="fill:#f48024;opacity:0.4;"/>
   </g>
   <g id="patch_11">
    <path clip-path="url(#p11df8cbd73)" d="M 131.647564 307.584 
L 134.134632 307.584 
L 134.134632 94.114456 
L 131.647564 94.114456 
z
" style="fill:#f48024;opacity:0.4;"/>
   </g>
   <g id="patch_12">
    <path clip-path="url(#p11df8cbd73)" d="M 134.134632 307.584 
L 136.6217 307.584 
L 136.6217 63.618807 
L 134.134632 63.618807 
z
" style="fill:#f48024;opacity:0.4;"/>
   </g>
   <g id="patch_13">
    <path clip-path="url(#p11df8cbd73)" d="M 136.6217 307.584 
L 139.108768 307.584 
L 139.108768 105.843552 
L 136.6217 105.843552 
z
" style="fill:#f48024;opacity:0.4;"/>
   </g>
   <g id="patch_14">
    <path clip-path="url(#p11df8cbd73)" d="M 139.108768 307.584 
L 141.595836 307.584 
L 141.595836 101.151913 
L 139.108768 101.151913 
z
" style="fill:#f48024;opacity:0.4;"/>
   </g>
   <g id="patch_15">
    <path clip-path="url(#p11df8cbd73)" d="M 141.595836 307.584 
L 144.082904 307.584 
L 144.082904 159.797392 
L 141.595836 159.797392 
z
" style="fill:#f48024;opacity:0.4;"/>
   </g>
   <g id="patch_16">
    <path clip-path="url(#p11df8cbd73)" d="M 144.082904 307.584 
L 146.569972 307.584 
L 146.569972 173.872307 
L 144.082904 173.872307 
z
" style="fill:#f48024;opacity:0.4;"/>
   </g>
   <g id="patch_17">
    <path clip-path="url(#p11df8cbd73)" d="M 146.569972 307.584 
L 149.05704 307.584 
L 149.05704 194.98468 
L 146.569972 194.98468 
z
" style="fill:#f48024;opacity:0.4;"/>
   </g>
   <g id="patch_18">
    <path clip-path="url(#p11df8cbd73)" d="M 149.05704 307.584 
L 151.544108 307.584 
L 151.544108 223.13451 
L 149.05704 223.13451 
z
" style="fill:#f48024;opacity:0.4;"/>
   </g>
   <g id="patch_19">
    <path clip-path="url(#p11df8cbd73)" d="M 151.544108 307.584 
L 154.031176 307.584 
L 154.031176 204.367957 
L 151.544108 204.367957 
z
" style="fill:#f48024;opacity:0.4;"/>
   </g>
   <g id="patch_20">
    <path clip-path="url(#p11df8cbd73)" d="M 154.031176 307.584 
L 156.518244 307.584 
L 156.518244 166.83485 
L 154.031176 166.83485 
z
" style="fill:#f48024;opacity:0.4;"/>
   </g>
   <g id="patch_21">
    <path clip-path="url(#p11df8cbd73)" d="M 156.518244 307.584 
L 159.005312 307.584 
L 159.005312 211.405414 
L 156.518244 211.405414 
z
" style="fill:#f48024;opacity:0.4;"/>
   </g>
   <g id="patch_22">
    <path clip-path="url(#p11df8cbd73)" d="M 159.005312 307.584 
L 161.49238 307.584 
L 161.49238 187.947222 
L 159.005312 187.947222 
z
" style="fill:#f48024;opacity:0.4;"/>
   </g>
   <g id="patch_23">
    <path clip-path="url(#p11df8cbd73)" d="M 161.49238 307.584 
L 163.979448 307.584 
L 163.979448 216.097052 
L 161.49238 216.097052 
z
" style="fill:#f48024;opacity:0.4;"/>
   </g>
   <g id="patch_24">
    <path clip-path="url(#p11df8cbd73)" d="M 163.979448 307.584 
L 166.466516 307.584 
L 166.466516 190.293042 
L 163.979448 190.293042 
z
" style="fill:#f48024;opacity:0.4;"/>
   </g>
   <g id="patch_25">
    <path clip-path="url(#p11df8cbd73)" d="M 166.466516 307.584 
L 168.953584 307.584 
L 168.953584 209.059595 
L 166.466516 209.059595 
z
" style="fill:#f48024;opacity:0.4;"/>
   </g>
   <g id="patch_26">
    <path clip-path="url(#p11df8cbd73)" d="M 168.953584 307.584 
L 171.440652 307.584 
L 171.440652 206.713776 
L 168.953584 206.713776 
z
" style="fill:#f48024;opacity:0.4;"/>
   </g>
   <g id="patch_27">
    <path clip-path="url(#p11df8cbd73)" d="M 171.440652 307.584 
L 173.92772 307.584 
L 173.92772 216.097052 
L 171.440652 216.097052 
z
" style="fill:#f48024;opacity:0.4;"/>
   </g>
   <g id="patch_28">
    <path clip-path="url(#p11df8cbd73)" d="M 173.92772 307.584 
L 176.414787 307.584 
L 176.414787 176.218127 
L 173.92772 176.218127 
z
" style="fill:#f48024;opacity:0.4;"/>
   </g>
   <g id="patch_29">
    <path clip-path="url(#p11df8cbd73)" d="M 176.414787 307.584 
L 178.901855 307.584 
L 178.901855 180.909765 
L 176.414787 180.909765 
z
" style="fill:#f48024;opacity:0.4;"/>
   </g>
   <g id="patch_30">
    <path clip-path="url(#p11df8cbd73)" d="M 178.901855 307.584 
L 181.388923 307.584 
L 181.388923 185.601403 
L 178.901855 185.601403 
z
" style="fill:#f48024;opacity:0.4;"/>
   </g>
   <g id="patch_31">
    <path clip-path="url(#p11df8cbd73)" d="M 181.388923 307.584 
L 183.875991 307.584 
L 183.875991 138.68502 
L 181.388923 138.68502 
z
" style="fill:#f48024;opacity:0.4;"/>
   </g>
   <g id="patch_32">
    <path clip-path="url(#p11df8cbd73)" d="M 183.875991 307.584 
L 186.363059 307.584 
L 186.363059 169.180669 
L 183.875991 169.180669 
z
" style="fill:#f48024;opacity:0.4;"/>
   </g>
   <g id="patch_33">
    <path clip-path="url(#p11df8cbd73)" d="M 186.363059 307.584 
L 188.850127 307.584 
L 188.850127 159.797392 
L 186.363059 159.797392 
z
" style="fill:#f48024;opacity:0.4;"/>
   </g>
   <g id="patch_34">
    <path clip-path="url(#p11df8cbd73)" d="M 188.850127 307.584 
L 191.337195 307.584 
L 191.337195 183.255584 
L 188.850127 183.255584 
z
" style="fill:#f48024;opacity:0.4;"/>
   </g>
   <g id="patch_35">
    <path clip-path="url(#p11df8cbd73)" d="M 191.337195 307.584 
L 193.824263 307.584 
L 193.824263 176.218127 
L 191.337195 176.218127 
z
" style="fill:#f48024;opacity:0.4;"/>
   </g>
   <g id="patch_36">
    <path clip-path="url(#p11df8cbd73)" d="M 193.824263 307.584 
L 196.311331 307.584 
L 196.311331 136.339201 
L 193.824263 136.339201 
z
" style="fill:#f48024;opacity:0.4;"/>
   </g>
   <g id="patch_37">
    <path clip-path="url(#p11df8cbd73)" d="M 196.311331 307.584 
L 198.798399 307.584 
L 198.798399 119.918467 
L 196.311331 119.918467 
z
" style="fill:#f48024;opacity:0.4;"/>
   </g>
   <g id="patch_38">
    <path clip-path="url(#p11df8cbd73)" d="M 198.798399 307.584 
L 201.285467 307.584 
L 201.285467 110.53519 
L 198.798399 110.53519 
z
" style="fill:#f48024;opacity:0.4;"/>
   </g>
   <g id="patch_39">
    <path clip-path="url(#p11df8cbd73)" d="M 201.285467 307.584 
L 203.772535 307.584 
L 203.772535 180.909765 
L 201.285467 180.909765 
z
" style="fill:#f48024;opacity:0.4;"/>
   </g>
   <g id="patch_40">
    <path clip-path="url(#p11df8cbd73)" d="M 203.772535 307.584 
L 206.259603 307.584 
L 206.259603 178.563946 
L 203.772535 178.563946 
z
" style="fill:#f48024;opacity:0.4;"/>
   </g>
   <g id="patch_41">
    <path clip-path="url(#p11df8cbd73)" d="M 206.259603 307.584 
L 208.746671 307.584 
L 208.746671 124.610105 
L 206.259603 124.610105 
z
" style="fill:#f48024;opacity:0.4;"/>
   </g>
   <g id="patch_42">
    <path clip-path="url(#p11df8cbd73)" d="M 208.746671 307.584 
L 211.233739 307.584 
L 211.233739 73.002083 
L 208.746671 73.002083 
z
" style="fill:#f48024;opacity:0.4;"/>
   </g>
   <g id="patch_43">
    <path clip-path="url(#p11df8cbd73)" d="M 211.233739 307.584 
L 213.720807 307.584 
L 213.720807 110.53519 
L 211.233739 110.53519 
z
" style="fill:#f48024;opacity:0.4;"/>
   </g>
   <g id="patch_44">
    <path clip-path="url(#p11df8cbd73)" d="M 213.720807 307.584 
L 216.207875 307.584 
L 216.207875 131.647562 
L 213.720807 131.647562 
z
" style="fill:#f48024;opacity:0.4;"/>
   </g>
   <g id="patch_45">
    <path clip-path="url(#p11df8cbd73)" d="M 216.207875 307.584 
L 218.694943 307.584 
L 218.694943 148.068297 
L 216.207875 148.068297 
z
" style="fill:#f48024;opacity:0.4;"/>
   </g>
   <g id="patch_46">
    <path clip-path="url(#p11df8cbd73)" d="M 218.694943 307.584 
L 221.182011 307.584 
L 221.182011 204.367957 
L 218.694943 204.367957 
z
" style="fill:#f48024;opacity:0.4;"/>
   </g>
   <g id="patch_47">
    <path clip-path="url(#p11df8cbd73)" d="M 221.182011 307.584 
L 223.669079 307.584 
L 223.669079 180.909765 
L 221.182011 180.909765 
z
" style="fill:#f48024;opacity:0.4;"/>
   </g>
   <g id="patch_48">
    <path clip-path="url(#p11df8cbd73)" d="M 223.669079 307.584 
L 226.156147 307.584 
L 226.156147 202.022137 
L 223.669079 202.022137 
z
" style="fill:#f48024;opacity:0.4;"/>
   </g>
   <g id="patch_49">
    <path clip-path="url(#p11df8cbd73)" d="M 226.156147 307.584 
L 228.643215 307.584 
L 228.643215 232.517787 
L 226.156147 232.517787 
z
" style="fill:#f48024;opacity:0.4;"/>
   </g>
   <g id="patch_50">
    <path clip-path="url(#p11df8cbd73)" d="M 228.643215 307.584 
L 231.130283 307.584 
L 231.130283 265.359255 
L 228.643215 265.359255 
z
" style="fill:#f48024;opacity:0.4;"/>
   </g>
   <g id="patch_51">
    <path clip-path="url(#p11df8cbd73)" d="M 231.130283 307.584 
L 233.617351 307.584 
L 233.617351 248.938521 
L 231.130283 248.938521 
z
" style="fill:#f48024;opacity:0.4;"/>
   </g>
   <g id="patch_52">
    <path clip-path="url(#p11df8cbd73)" d="M 233.617351 307.584 
L 236.104419 307.584 
L 236.104419 248.938521 
L 233.617351 248.938521 
z
" style="fill:#f48024;opacity:0.4;"/>
   </g>
   <g id="patch_53">
    <path clip-path="url(#p11df8cbd73)" d="M 236.104419 307.584 
L 238.591486 307.584 
L 238.591486 248.938521 
L 236.104419 248.938521 
z
" style="fill:#f48024;opacity:0.4;"/>
   </g>
   <g id="patch_54">
    <path clip-path="url(#p11df8cbd73)" d="M 238.591486 307.584 
L 241.078554 307.584 
L 241.078554 244.246882 
L 238.591486 244.246882 
z
" style="fill:#f48024;opacity:0.4;"/>
   </g>
   <g id="patch_55">
    <path clip-path="url(#p11df8cbd73)" d="M 241.078554 307.584 
L 243.565622 307.584 
L 243.565622 248.938521 
L 241.078554 248.938521 
z
" style="fill:#f48024;opacity:0.4;"/>
   </g>
   <g id="patch_56">
    <path clip-path="url(#p11df8cbd73)" d="M 243.565622 307.584 
L 246.05269 307.584 
L 246.05269 265.359255 
L 243.565622 265.359255 
z
" style="fill:#f48024;opacity:0.4;"/>
   </g>
   <g id="patch_57">
    <path clip-path="url(#p11df8cbd73)" d="M 246.05269 307.584 
L 248.539758 307.584 
L 248.539758 223.13451 
L 246.05269 223.13451 
z
" style="fill:#f48024;opacity:0.4;"/>
   </g>
   <g id="patch_58">
    <path clip-path="url(#p11df8cbd73)" d="M 248.539758 307.584 
L 251.026826 307.584 
L 251.026826 237.209425 
L 248.539758 237.209425 
z
" style="fill:#f48024;opacity:0.4;"/>
   </g>
   <g id="patch_59">
    <path clip-path="url(#p11df8cbd73)" d="M 251.026826 307.584 
L 253.513894 307.584 
L 253.513894 255.975978 
L 251.026826 255.975978 
z
" style="fill:#f48024;opacity:0.4;"/>
   </g>
   <g id="patch_60">
    <path clip-path="url(#p11df8cbd73)" d="M 253.513894 307.584 
L 256.000962 307.584 
L 256.000962 237.209425 
L 253.513894 237.209425 
z
" style="fill:#f48024;opacity:0.4;"/>
   </g>
   <g id="patch_61">
    <path clip-path="url(#p11df8cbd73)" d="M 256.000962 307.584 
L 258.48803 307.584 
L 258.48803 244.246882 
L 256.000962 244.246882 
z
" style="fill:#f48024;opacity:0.4;"/>
   </g>
   <g id="patch_62">
    <path clip-path="url(#p11df8cbd73)" d="M 258.48803 307.584 
L 260.975098 307.584 
L 260.975098 251.28434 
L 258.48803 251.28434 
z
" style="fill:#f48024;opacity:0.4;"/>
   </g>
   <g id="patch_63">
    <path clip-path="url(#p11df8cbd73)" d="M 260.975098 307.584 
L 263.462166 307.584 
L 263.462166 258.321797 
L 260.975098 258.321797 
z
" style="fill:#f48024;opacity:0.4;"/>
   </g>
   <g id="patch_64">
    <path clip-path="url(#p11df8cbd73)" d="M 263.462166 307.584 
L 265.949234 307.584 
L 265.949234 263.013436 
L 263.462166 263.013436 
z
" style="fill:#f48024;opacity:0.4;"/>
   </g>
   <g id="patch_65">
    <path clip-path="url(#p11df8cbd73)" d="M 265.949234 307.584 
L 268.436302 307.584 
L 268.436302 265.359255 
L 265.949234 265.359255 
z
" style="fill:#f48024;opacity:0.4;"/>
   </g>
   <g id="patch_66">
    <path clip-path="url(#p11df8cbd73)" d="M 268.436302 307.584 
L 270.92337 307.584 
L 270.92337 293.509085 
L 268.436302 293.509085 
z
" style="fill:#f48024;opacity:0.4;"/>
   </g>
   <g id="patch_67">
    <path clip-path="url(#p11df8cbd73)" d="M 270.92337 307.584 
L 273.410438 307.584 
L 273.410438 263.013436 
L 270.92337 263.013436 
z
" style="fill:#f48024;opacity:0.4;"/>
   </g>
   <g id="patch_68">
    <path clip-path="url(#p11df8cbd73)" d="M 273.410438 307.584 
L 275.897506 307.584 
L 275.897506 241.901063 
L 273.410438 241.901063 
z
" style="fill:#f48024;opacity:0.4;"/>
   </g>
   <g id="patch_69">
    <path clip-path="url(#p11df8cbd73)" d="M 275.897506 307.584 
L 278.384574 307.584 
L 278.384574 267.705074 
L 275.897506 267.705074 
z
" style="fill:#f48024;opacity:0.4;"/>
   </g>
   <g id="patch_70">
    <path clip-path="url(#p11df8cbd73)" d="M 278.384574 307.584 
L 280.871642 307.584 
L 280.871642 277.088351 
L 278.384574 277.088351 
z
" style="fill:#f48024;opacity:0.4;"/>
   </g>
   <g id="patch_71">
    <path clip-path="url(#p11df8cbd73)" d="M 280.871642 307.584 
L 283.35871 307.584 
L 283.35871 258.321797 
L 280.871642 258.321797 
z
" style="fill:#f48024;opacity:0.4;"/>
   </g>
   <g id="patch_72">
    <path clip-path="url(#p11df8cbd73)" d="M 283.35871 307.584 
L 285.845778 307.584 
L 285.845778 270.050893 
L 283.35871 270.050893 
z
" style="fill:#f48024;opacity:0.4;"/>
   </g>
   <g id="patch_73">
    <path clip-path="url(#p11df8cbd73)" d="M 285.845778 307.584 
L 288.332846 307.584 
L 288.332846 253.630159 
L 285.845778 253.630159 
z
" style="fill:#f48024;opacity:0.4;"/>
   </g>
   <g id="patch_74">
    <path clip-path="url(#p11df8cbd73)" d="M 288.332846 307.584 
L 290.819914 307.584 
L 290.819914 263.013436 
L 288.332846 263.013436 
z
" style="fill:#f48024;opacity:0.4;"/>
   </g>
   <g id="patch_75">
    <path clip-path="url(#p11df8cbd73)" d="M 290.819914 307.584 
L 293.306982 307.584 
L 293.306982 258.321797 
L 290.819914 258.321797 
z
" style="fill:#f48024;opacity:0.4;"/>
   </g>
   <g id="patch_76">
    <path clip-path="url(#p11df8cbd73)" d="M 293.306982 307.584 
L 295.79405 307.584 
L 295.79405 230.171967 
L 293.306982 230.171967 
z
" style="fill:#f48024;opacity:0.4;"/>
   </g>
   <g id="patch_77">
    <path clip-path="url(#p11df8cbd73)" d="M 295.79405 307.584 
L 298.281118 307.584 
L 298.281118 251.28434 
L 295.79405 251.28434 
z
" style="fill:#f48024;opacity:0.4;"/>
   </g>
   <g id="patch_78">
    <path clip-path="url(#p11df8cbd73)" d="M 298.281118 307.584 
L 300.768185 307.584 
L 300.768185 246.592702 
L 298.281118 246.592702 
z
" style="fill:#f48024;opacity:0.4;"/>
   </g>
   <g id="patch_79">
    <path clip-path="url(#p11df8cbd73)" d="M 300.768185 307.584 
L 303.255253 307.584 
L 303.255253 265.359255 
L 300.768185 265.359255 
z
" style="fill:#f48024;opacity:0.4;"/>
   </g>
   <g id="patch_80">
    <path clip-path="url(#p11df8cbd73)" d="M 303.255253 307.584 
L 305.742321 307.584 
L 305.742321 284.125808 
L 303.255253 284.125808 
z
" style="fill:#f48024;opacity:0.4;"/>
   </g>
   <g id="patch_81">
    <path clip-path="url(#p11df8cbd73)" d="M 305.742321 307.584 
L 308.229389 307.584 
L 308.229389 258.321797 
L 305.742321 258.321797 
z
" style="fill:#f48024;opacity:0.4;"/>
   </g>
   <g id="patch_82">
    <path clip-path="url(#p11df8cbd73)" d="M 308.229389 307.584 
L 310.716457 307.584 
L 310.716457 248.938521 
L 308.229389 248.938521 
z
" style="fill:#f48024;opacity:0.4;"/>
   </g>
   <g id="patch_83">
    <path clip-path="url(#p11df8cbd73)" d="M 310.716457 307.584 
L 313.203525 307.584 
L 313.203525 253.630159 
L 310.716457 253.630159 
z
" style="fill:#f48024;opacity:0.4;"/>
   </g>
   <g id="patch_84">
    <path clip-path="url(#p11df8cbd73)" d="M 313.203525 307.584 
L 315.690593 307.584 
L 315.690593 244.246882 
L 313.203525 244.246882 
z
" style="fill:#f48024;opacity:0.4;"/>
   </g>
   <g id="patch_85">
    <path clip-path="url(#p11df8cbd73)" d="M 315.690593 307.584 
L 318.177661 307.584 
L 318.177661 253.630159 
L 315.690593 253.630159 
z
" style="fill:#f48024;opacity:0.4;"/>
   </g>
   <g id="patch_86">
    <path clip-path="url(#p11df8cbd73)" d="M 318.177661 307.584 
L 320.664729 307.584 
L 320.664729 206.713776 
L 318.177661 206.713776 
z
" style="fill:#f48024;opacity:0.4;"/>
   </g>
   <g id="patch_87">
    <path clip-path="url(#p11df8cbd73)" d="M 320.664729 307.584 
L 323.151797 307.584 
L 323.151797 234.863606 
L 320.664729 234.863606 
z
" style="fill:#f48024;opacity:0.4;"/>
   </g>
   <g id="patch_88">
    <path clip-path="url(#p11df8cbd73)" d="M 323.151797 307.584 
L 325.638865 307.584 
L 325.638865 237.209425 
L 323.151797 237.209425 
z
" style="fill:#f48024;opacity:0.4;"/>
   </g>
   <g id="patch_89">
    <path clip-path="url(#p11df8cbd73)" d="M 325.638865 307.584 
L 328.125933 307.584 
L 328.125933 223.13451 
L 325.638865 223.13451 
z
" style="fill:#f48024;opacity:0.4;"/>
   </g>
   <g id="patch_90">
    <path clip-path="url(#p11df8cbd73)" d="M 328.125933 307.584 
L 330.613001 307.584 
L 330.613001 248.938521 
L 328.125933 248.938521 
z
" style="fill:#f48024;opacity:0.4;"/>
   </g>
   <g id="patch_91">
    <path clip-path="url(#p11df8cbd73)" d="M 330.613001 307.584 
L 333.100069 307.584 
L 333.100069 223.13451 
L 330.613001 223.13451 
z
" style="fill:#f48024;opacity:0.4;"/>
   </g>
   <g id="patch_92">
    <path clip-path="url(#p11df8cbd73)" d="M 333.100069 307.584 
L 335.587137 307.584 
L 335.587137 237.209425 
L 333.100069 237.209425 
z
" style="fill:#f48024;opacity:0.4;"/>
   </g>
   <g id="patch_93">
    <path clip-path="url(#p11df8cbd73)" d="M 335.587137 307.584 
L 338.074205 307.584 
L 338.074205 230.171967 
L 335.587137 230.171967 
z
" style="fill:#f48024;opacity:0.4;"/>
   </g>
   <g id="patch_94">
    <path clip-path="url(#p11df8cbd73)" d="M 338.074205 307.584 
L 340.561273 307.584 
L 340.561273 234.863606 
L 338.074205 234.863606 
z
" style="fill:#f48024;opacity:0.4;"/>
   </g>
   <g id="patch_95">
    <path clip-path="url(#p11df8cbd73)" d="M 340.561273 307.584 
L 343.048341 307.584 
L 343.048341 216.097052 
L 340.561273 216.097052 
z
" style="fill:#f48024;opacity:0.4;"/>
   </g>
   <g id="patch_96">
    <path clip-path="url(#p11df8cbd73)" d="M 343.048341 307.584 
L 345.535409 307.584 
L 345.535409 251.28434 
L 343.048341 251.28434 
z
" style="fill:#f48024;opacity:0.4;"/>
   </g>
   <g id="patch_97">
    <path clip-path="url(#p11df8cbd73)" d="M 345.535409 307.584 
L 348.022477 307.584 
L 348.022477 251.28434 
L 345.535409 251.28434 
z
" style="fill:#f48024;opacity:0.4;"/>
   </g>
   <g id="patch_98">
    <path clip-path="url(#p11df8cbd73)" d="M 348.022477 307.584 
L 350.509545 307.584 
L 350.509545 253.630159 
L 348.022477 253.630159 
z
" style="fill:#f48024;opacity:0.4;"/>
   </g>
   <g id="patch_99">
    <path clip-path="url(#p11df8cbd73)" d="M 350.509545 307.584 
L 352.996613 307.584 
L 352.996613 267.705074 
L 350.509545 267.705074 
z
" style="fill:#f48024;opacity:0.4;"/>
   </g>
   <g id="patch_100">
    <path clip-path="url(#p11df8cbd73)" d="M 352.996613 307.584 
L 355.483681 307.584 
L 355.483681 286.471627 
L 352.996613 286.471627 
z
" style="fill:#f48024;opacity:0.4;"/>
   </g>
   <g id="patch_101">
    <path clip-path="url(#p11df8cbd73)" d="M 355.483681 307.584 
L 357.970749 307.584 
L 357.970749 288.817447 
L 355.483681 288.817447 
z
" style="fill:#f48024;opacity:0.4;"/>
   </g>
   <g id="patch_102">
    <path clip-path="url(#p11df8cbd73)" d="M 357.970749 307.584 
L 360.457816 307.584 
L 360.457816 302.892362 
L 357.970749 302.892362 
z
" style="fill:#f48024;opacity:0.4;"/>
   </g>
   <g id="patch_103">
    <path clip-path="url(#p11df8cbd73)" d="M 111.907708 307.584 
L 114.393878 307.584 
L 114.393878 281.770667 
L 111.907708 281.770667 
z
" style="fill:#008000;opacity:0.4;"/>
   </g>
   <g id="patch_104">
    <path clip-path="url(#p11df8cbd73)" d="M 114.393878 307.584 
L 116.880047 307.584 
L 116.880047 201.984 
L 114.393878 201.984 
z
" style="fill:#008000;opacity:0.4;"/>
   </g>
   <g id="patch_105">
    <path clip-path="url(#p11df8cbd73)" d="M 116.880047 307.584 
L 119.366217 307.584 
L 119.366217 185.557333 
L 116.880047 185.557333 
z
" style="fill:#008000;opacity:0.4;"/>
   </g>
   <g id="patch_106">
    <path clip-path="url(#p11df8cbd73)" d="M 119.366217 307.584 
L 121.852387 307.584 
L 121.852387 232.490667 
L 119.366217 232.490667 
z
" style="fill:#008000;opacity:0.4;"/>
   </g>
   <g id="patch_107">
    <path clip-path="url(#p11df8cbd73)" d="M 121.852387 307.584 
L 124.338557 307.584 
L 124.338557 218.410667 
L 121.852387 218.410667 
z
" style="fill:#008000;opacity:0.4;"/>
   </g>
   <g id="patch_108">
    <path clip-path="url(#p11df8cbd73)" d="M 124.338557 307.584 
L 126.824726 307.584 
L 126.824726 227.797333 
L 124.338557 227.797333 
z
" style="fill:#008000;opacity:0.4;"/>
   </g>
   <g id="patch_109">
    <path clip-path="url(#p11df8cbd73)" d="M 126.824726 307.584 
L 129.310896 307.584 
L 129.310896 159.744 
L 126.824726 159.744 
z
" style="fill:#008000;opacity:0.4;"/>
   </g>
   <g id="patch_110">
    <path clip-path="url(#p11df8cbd73)" d="M 129.310896 307.584 
L 131.797066 307.584 
L 131.797066 110.464 
L 129.310896 110.464 
z
" style="fill:#008000;opacity:0.4;"/>
   </g>
   <g id="patch_111">
    <path clip-path="url(#p11df8cbd73)" d="M 131.797066 307.584 
L 134.283236 307.584 
L 134.283236 94.037333 
L 131.797066 94.037333 
z
" style="fill:#008000;opacity:0.4;"/>
   </g>
   <g id="patch_112">
    <path clip-path="url(#p11df8cbd73)" d="M 134.283236 307.584 
L 136.769405 307.584 
L 136.769405 54.144 
L 134.283236 54.144 
z
" style="fill:#008000;opacity:0.4;"/>
   </g>
   <g id="patch_113">
    <path clip-path="url(#p11df8cbd73)" d="M 136.769405 307.584 
L 139.255575 307.584 
L 139.255575 110.464 
L 136.769405 110.464 
z
" style="fill:#008000;opacity:0.4;"/>
   </g>
   <g id="patch_114">
    <path clip-path="url(#p11df8cbd73)" d="M 139.255575 307.584 
L 141.741745 307.584 
L 141.741745 103.424 
L 139.255575 103.424 
z
" style="fill:#008000;opacity:0.4;"/>
   </g>
   <g id="patch_115">
    <path clip-path="url(#p11df8cbd73)" d="M 141.741745 307.584 
L 144.227915 307.584 
L 144.227915 155.050667 
L 141.741745 155.050667 
z
" style="fill:#008000;opacity:0.4;"/>
   </g>
   <g id="patch_116">
    <path clip-path="url(#p11df8cbd73)" d="M 144.227915 307.584 
L 146.714084 307.584 
L 146.714084 180.864 
L 144.227915 180.864 
z
" style="fill:#008000;opacity:0.4;"/>
   </g>
   <g id="patch_117">
    <path clip-path="url(#p11df8cbd73)" d="M 146.714084 307.584 
L 149.200254 307.584 
L 149.200254 190.250667 
L 146.714084 190.250667 
z
" style="fill:#008000;opacity:0.4;"/>
   </g>
   <g id="patch_118">
    <path clip-path="url(#p11df8cbd73)" d="M 149.200254 307.584 
L 151.686424 307.584 
L 151.686424 225.450667 
L 149.200254 225.450667 
z
" style="fill:#008000;opacity:0.4;"/>
   </g>
   <g id="patch_119">
    <path clip-path="url(#p11df8cbd73)" d="M 151.686424 307.584 
L 154.172594 307.584 
L 154.172594 194.944 
L 151.686424 194.944 
z
" style="fill:#008000;opacity:0.4;"/>
   </g>
   <g id="patch_120">
    <path clip-path="url(#p11df8cbd73)" d="M 154.172594 307.584 
L 156.658763 307.584 
L 156.658763 176.170667 
L 154.172594 176.170667 
z
" style="fill:#008000;opacity:0.4;"/>
   </g>
   <g id="patch_121">
    <path clip-path="url(#p11df8cbd73)" d="M 156.658763 307.584 
L 159.144933 307.584 
L 159.144933 206.677333 
L 156.658763 206.677333 
z
" style="fill:#008000;opacity:0.4;"/>
   </g>
   <g id="patch_122">
    <path clip-path="url(#p11df8cbd73)" d="M 159.144933 307.584 
L 161.631103 307.584 
L 161.631103 192.597333 
L 159.144933 192.597333 
z
" style="fill:#008000;opacity:0.4;"/>
   </g>
   <g id="patch_123">
    <path clip-path="url(#p11df8cbd73)" d="M 161.631103 307.584 
L 164.117273 307.584 
L 164.117273 216.064 
L 161.631103 216.064 
z
" style="fill:#008000;opacity:0.4;"/>
   </g>
   <g id="patch_124">
    <path clip-path="url(#p11df8cbd73)" d="M 164.117273 307.584 
L 166.603442 307.584 
L 166.603442 194.944 
L 164.117273 194.944 
z
" style="fill:#008000;opacity:0.4;"/>
   </g>
   <g id="patch_125">
    <path clip-path="url(#p11df8cbd73)" d="M 166.603442 307.584 
L 169.089612 307.584 
L 169.089612 211.370667 
L 166.603442 211.370667 
z
" style="fill:#008000;opacity:0.4;"/>
   </g>
   <g id="patch_126">
    <path clip-path="url(#p11df8cbd73)" d="M 169.089612 307.584 
L 171.575782 307.584 
L 171.575782 199.637333 
L 169.089612 199.637333 
z
" style="fill:#008000;opacity:0.4;"/>
   </g>
   <g id="patch_127">
    <path clip-path="url(#p11df8cbd73)" d="M 171.575782 307.584 
L 174.061952 307.584 
L 174.061952 223.104 
L 171.575782 223.104 
z
" style="fill:#008000;opacity:0.4;"/>
   </g>
   <g id="patch_128">
    <path clip-path="url(#p11df8cbd73)" d="M 174.061952 307.584 
L 176.548122 307.584 
L 176.548122 176.170667 
L 174.061952 176.170667 
z
" style="fill:#008000;opacity:0.4;"/>
   </g>
   <g id="patch_129">
    <path clip-path="url(#p11df8cbd73)" d="M 176.548122 307.584 
L 179.034291 307.584 
L 179.034291 180.864 
L 176.548122 180.864 
z
" style="fill:#008000;opacity:0.4;"/>
   </g>
   <g id="patch_130">
    <path clip-path="url(#p11df8cbd73)" d="M 179.034291 307.584 
L 181.520461 307.584 
L 181.520461 176.170667 
L 179.034291 176.170667 
z
" style="fill:#008000;opacity:0.4;"/>
   </g>
   <g id="patch_131">
    <path clip-path="url(#p11df8cbd73)" d="M 181.520461 307.584 
L 184.006631 307.584 
L 184.006631 145.664 
L 181.520461 145.664 
z
" style="fill:#008000;opacity:0.4;"/>
   </g>
   <g id="patch_132">
    <path clip-path="url(#p11df8cbd73)" d="M 184.006631 307.584 
L 186.492801 307.584 
L 186.492801 159.744 
L 184.006631 159.744 
z
" style="fill:#008000;opacity:0.4;"/>
   </g>
   <g id="patch_133">
    <path clip-path="url(#p11df8cbd73)" d="M 186.492801 307.584 
L 188.97897 307.584 
L 188.97897 169.130667 
L 186.492801 169.130667 
z
" style="fill:#008000;opacity:0.4;"/>
   </g>
   <g id="patch_134">
    <path clip-path="url(#p11df8cbd73)" d="M 188.97897 307.584 
L 191.46514 307.584 
L 191.46514 178.517333 
L 188.97897 178.517333 
z
" style="fill:#008000;opacity:0.4;"/>
   </g>
   <g id="patch_135">
    <path clip-path="url(#p11df8cbd73)" d="M 191.46514 307.584 
L 193.95131 307.584 
L 193.95131 187.904 
L 191.46514 187.904 
z
" style="fill:#008000;opacity:0.4;"/>
   </g>
   <g id="patch_136">
    <path clip-path="url(#p11df8cbd73)" d="M 193.95131 307.584 
L 196.43748 307.584 
L 196.43748 133.930667 
L 193.95131 133.930667 
z
" style="fill:#008000;opacity:0.4;"/>
   </g>
   <g id="patch_137">
    <path clip-path="url(#p11df8cbd73)" d="M 196.43748 307.584 
L 198.923649 307.584 
L 198.923649 112.810667 
L 196.43748 112.810667 
z
" style="fill:#008000;opacity:0.4;"/>
   </g>
   <g id="patch_138">
    <path clip-path="url(#p11df8cbd73)" d="M 198.923649 307.584 
L 201.409819 307.584 
L 201.409819 110.464 
L 198.923649 110.464 
z
" style="fill:#008000;opacity:0.4;"/>
   </g>
   <g id="patch_139">
    <path clip-path="url(#p11df8cbd73)" d="M 201.409819 307.584 
L 203.895989 307.584 
L 203.895989 176.170667 
L 201.409819 176.170667 
z
" style="fill:#008000;opacity:0.4;"/>
   </g>
   <g id="patch_140">
    <path clip-path="url(#p11df8cbd73)" d="M 203.895989 307.584 
L 206.382159 307.584 
L 206.382159 183.210667 
L 203.895989 183.210667 
z
" style="fill:#008000;opacity:0.4;"/>
   </g>
   <g id="patch_141">
    <path clip-path="url(#p11df8cbd73)" d="M 206.382159 307.584 
L 208.868328 307.584 
L 208.868328 136.277333 
L 206.382159 136.277333 
z
" style="fill:#008000;opacity:0.4;"/>
   </g>
   <g id="patch_142">
    <path clip-path="url(#p11df8cbd73)" d="M 208.868328 307.584 
L 211.354498 307.584 
L 211.354498 68.224 
L 208.868328 68.224 
z
" style="fill:#008000;opacity:0.4;"/>
   </g>
   <g id="patch_143">
    <path clip-path="url(#p11df8cbd73)" d="M 211.354498 307.584 
L 213.840668 307.584 
L 213.840668 103.424 
L 211.354498 103.424 
z
" style="fill:#008000;opacity:0.4;"/>
   </g>
   <g id="patch_144">
    <path clip-path="url(#p11df8cbd73)" d="M 213.840668 307.584 
L 216.326838 307.584 
L 216.326838 143.317333 
L 213.840668 143.317333 
z
" style="fill:#008000;opacity:0.4;"/>
   </g>
   <g id="patch_145">
    <path clip-path="url(#p11df8cbd73)" d="M 216.326838 307.584 
L 218.813007 307.584 
L 218.813007 138.624 
L 216.326838 138.624 
z
" style="fill:#008000;opacity:0.4;"/>
   </g>
   <g id="patch_146">
    <path clip-path="url(#p11df8cbd73)" d="M 218.813007 307.584 
L 221.299177 307.584 
L 221.299177 204.330667 
L 218.813007 204.330667 
z
" style="fill:#008000;opacity:0.4;"/>
   </g>
   <g id="patch_147">
    <path clip-path="url(#p11df8cbd73)" d="M 221.299177 307.584 
L 223.785347 307.584 
L 223.785347 180.864 
L 221.299177 180.864 
z
" style="fill:#008000;opacity:0.4;"/>
   </g>
   <g id="patch_148">
    <path clip-path="url(#p11df8cbd73)" d="M 223.785347 307.584 
L 226.271517 307.584 
L 226.271517 209.024 
L 223.785347 209.024 
z
" style="fill:#008000;opacity:0.4;"/>
   </g>
   <g id="patch_149">
    <path clip-path="url(#p11df8cbd73)" d="M 226.271517 307.584 
L 228.757686 307.584 
L 228.757686 220.757333 
L 226.271517 220.757333 
z
" style="fill:#008000;opacity:0.4;"/>
   </g>
   <g id="patch_150">
    <path clip-path="url(#p11df8cbd73)" d="M 228.757686 307.584 
L 231.243856 307.584 
L 231.243856 265.344 
L 228.757686 265.344 
z
" style="fill:#008000;opacity:0.4;"/>
   </g>
   <g id="patch_151">
    <path clip-path="url(#p11df8cbd73)" d="M 231.243856 307.584 
L 233.730026 307.584 
L 233.730026 246.570667 
L 231.243856 246.570667 
z
" style="fill:#008000;opacity:0.4;"/>
   </g>
   <g id="patch_152">
    <path clip-path="url(#p11df8cbd73)" d="M 233.730026 307.584 
L 236.216196 307.584 
L 236.216196 255.957333 
L 233.730026 255.957333 
z
" style="fill:#008000;opacity:0.4;"/>
   </g>
   <g id="patch_153">
    <path clip-path="url(#p11df8cbd73)" d="M 236.216196 307.584 
L 238.702365 307.584 
L 238.702365 241.877333 
L 236.216196 241.877333 
z
" style="fill:#008000;opacity:0.4;"/>
   </g>
   <g id="patch_154">
    <path clip-path="url(#p11df8cbd73)" d="M 238.702365 307.584 
L 241.188535 307.584 
L 241.188535 246.570667 
L 238.702365 246.570667 
z
" style="fill:#008000;opacity:0.4;"/>
   </g>
   <g id="patch_155">
    <path clip-path="url(#p11df8cbd73)" d="M 241.188535 307.584 
L 243.674705 307.584 
L 243.674705 248.917333 
L 241.188535 248.917333 
z
" style="fill:#008000;opacity:0.4;"/>
   </g>
   <g id="patch_156">
    <path clip-path="url(#p11df8cbd73)" d="M 243.674705 307.584 
L 246.160875 307.584 
L 246.160875 267.690667 
L 243.674705 267.690667 
z
" style="fill:#008000;opacity:0.4;"/>
   </g>
   <g id="patch_157">
    <path clip-path="url(#p11df8cbd73)" d="M 246.160875 307.584 
L 248.647044 307.584 
L 248.647044 230.144 
L 246.160875 230.144 
z
" style="fill:#008000;opacity:0.4;"/>
   </g>
   <g id="patch_158">
    <path clip-path="url(#p11df8cbd73)" d="M 248.647044 307.584 
L 251.133214 307.584 
L 251.133214 232.490667 
L 248.647044 232.490667 
z
" style="fill:#008000;opacity:0.4;"/>
   </g>
   <g id="patch_159">
    <path clip-path="url(#p11df8cbd73)" d="M 251.133214 307.584 
L 253.619384 307.584 
L 253.619384 248.917333 
L 251.133214 248.917333 
z
" style="fill:#008000;opacity:0.4;"/>
   </g>
   <g id="patch_160">
    <path clip-path="url(#p11df8cbd73)" d="M 253.619384 307.584 
L 256.105554 307.584 
L 256.105554 246.570667 
L 253.619384 246.570667 
z
" style="fill:#008000;opacity:0.4;"/>
   </g>
   <g id="patch_161">
    <path clip-path="url(#p11df8cbd73)" d="M 256.105554 307.584 
L 258.591723 307.584 
L 258.591723 241.877333 
L 256.105554 241.877333 
z
" style="fill:#008000;opacity:0.4;"/>
   </g>
   <g id="patch_162">
    <path clip-path="url(#p11df8cbd73)" d="M 258.591723 307.584 
L 261.077893 307.584 
L 261.077893 241.877333 
L 258.591723 241.877333 
z
" style="fill:#008000;opacity:0.4;"/>
   </g>
   <g id="patch_163">
    <path clip-path="url(#p11df8cbd73)" d="M 261.077893 307.584 
L 263.564063 307.584 
L 263.564063 267.690667 
L 261.077893 267.690667 
z
" style="fill:#008000;opacity:0.4;"/>
   </g>
   <g id="patch_164">
    <path clip-path="url(#p11df8cbd73)" d="M 263.564063 307.584 
L 266.050233 307.584 
L 266.050233 265.344 
L 263.564063 265.344 
z
" style="fill:#008000;opacity:0.4;"/>
   </g>
   <g id="patch_165">
    <path clip-path="url(#p11df8cbd73)" d="M 266.050233 307.584 
L 268.536402 307.584 
L 268.536402 260.650667 
L 266.050233 260.650667 
z
" style="fill:#008000;opacity:0.4;"/>
   </g>
   <g id="patch_166">
    <path clip-path="url(#p11df8cbd73)" d="M 268.536402 307.584 
L 271.022572 307.584 
L 271.022572 293.504 
L 268.536402 293.504 
z
" style="fill:#008000;opacity:0.4;"/>
   </g>
   <g id="patch_167">
    <path clip-path="url(#p11df8cbd73)" d="M 271.022572 307.584 
L 273.508742 307.584 
L 273.508742 260.650667 
L 271.022572 260.650667 
z
" style="fill:#008000;opacity:0.4;"/>
   </g>
   <g id="patch_168">
    <path clip-path="url(#p11df8cbd73)" d="M 273.508742 307.584 
L 275.994912 307.584 
L 275.994912 244.224 
L 273.508742 244.224 
z
" style="fill:#008000;opacity:0.4;"/>
   </g>
   <g id="patch_169">
    <path clip-path="url(#p11df8cbd73)" d="M 275.994912 307.584 
L 278.481081 307.584 
L 278.481081 267.690667 
L 275.994912 267.690667 
z
" style="fill:#008000;opacity:0.4;"/>
   </g>
   <g id="patch_170">
    <path clip-path="url(#p11df8cbd73)" d="M 278.481081 307.584 
L 280.967251 307.584 
L 280.967251 277.077333 
L 278.481081 277.077333 
z
" style="fill:#008000;opacity:0.4;"/>
   </g>
   <g id="patch_171">
    <path clip-path="url(#p11df8cbd73)" d="M 280.967251 307.584 
L 283.453421 307.584 
L 283.453421 258.304 
L 280.967251 258.304 
z
" style="fill:#008000;opacity:0.4;"/>
   </g>
   <g id="patch_172">
    <path clip-path="url(#p11df8cbd73)" d="M 283.453421 307.584 
L 285.939591 307.584 
L 285.939591 267.690667 
L 283.453421 267.690667 
z
" style="fill:#008000;opacity:0.4;"/>
   </g>
   <g id="patch_173">
    <path clip-path="url(#p11df8cbd73)" d="M 285.939591 307.584 
L 288.42576 307.584 
L 288.42576 262.997333 
L 285.939591 262.997333 
z
" style="fill:#008000;opacity:0.4;"/>
   </g>
   <g id="patch_174">
    <path clip-path="url(#p11df8cbd73)" d="M 288.42576 307.584 
L 290.91193 307.584 
L 290.91193 253.610667 
L 288.42576 253.610667 
z
" style="fill:#008000;opacity:0.4;"/>
   </g>
   <g id="patch_175">
    <path clip-path="url(#p11df8cbd73)" d="M 290.91193 307.584 
L 293.3981 307.584 
L 293.3981 258.304 
L 290.91193 258.304 
z
" style="fill:#008000;opacity:0.4;"/>
   </g>
   <g id="patch_176">
    <path clip-path="url(#p11df8cbd73)" d="M 293.3981 307.584 
L 295.88427 307.584 
L 295.88427 239.530667 
L 293.3981 239.530667 
z
" style="fill:#008000;opacity:0.4;"/>
   </g>
   <g id="patch_177">
    <path clip-path="url(#p11df8cbd73)" d="M 295.88427 307.584 
L 298.370439 307.584 
L 298.370439 248.917333 
L 295.88427 248.917333 
z
" style="fill:#008000;opacity:0.4;"/>
   </g>
   <g id="patch_178">
    <path clip-path="url(#p11df8cbd73)" d="M 298.370439 307.584 
L 300.856609 307.584 
L 300.856609 241.877333 
L 298.370439 241.877333 
z
" style="fill:#008000;opacity:0.4;"/>
   </g>
   <g id="patch_179">
    <path clip-path="url(#p11df8cbd73)" d="M 300.856609 307.584 
L 303.342779 307.584 
L 303.342779 265.344 
L 300.856609 265.344 
z
" style="fill:#008000;opacity:0.4;"/>
   </g>
   <g id="patch_180">
    <path clip-path="url(#p11df8cbd73)" d="M 303.342779 307.584 
L 305.828949 307.584 
L 305.828949 284.117333 
L 303.342779 284.117333 
z
" style="fill:#008000;opacity:0.4;"/>
   </g>
   <g id="patch_181">
    <path clip-path="url(#p11df8cbd73)" d="M 305.828949 307.584 
L 308.315118 307.584 
L 308.315118 260.650667 
L 305.828949 260.650667 
z
" style="fill:#008000;opacity:0.4;"/>
   </g>
   <g id="patch_182">
    <path clip-path="url(#p11df8cbd73)" d="M 308.315118 307.584 
L 310.801288 307.584 
L 310.801288 255.957333 
L 308.315118 255.957333 
z
" style="fill:#008000;opacity:0.4;"/>
   </g>
   <g id="patch_183">
    <path clip-path="url(#p11df8cbd73)" d="M 310.801288 307.584 
L 313.287458 307.584 
L 313.287458 248.917333 
L 310.801288 248.917333 
z
" style="fill:#008000;opacity:0.4;"/>
   </g>
   <g id="patch_184">
    <path clip-path="url(#p11df8cbd73)" d="M 313.287458 307.584 
L 315.773628 307.584 
L 315.773628 241.877333 
L 313.287458 241.877333 
z
" style="fill:#008000;opacity:0.4;"/>
   </g>
   <g id="patch_185">
    <path clip-path="url(#p11df8cbd73)" d="M 315.773628 307.584 
L 318.259798 307.584 
L 318.259798 253.610667 
L 315.773628 253.610667 
z
" style="fill:#008000;opacity:0.4;"/>
   </g>
   <g id="patch_186">
    <path clip-path="url(#p11df8cbd73)" d="M 318.259798 307.584 
L 320.745967 307.584 
L 320.745967 218.410667 
L 318.259798 218.410667 
z
" style="fill:#008000;opacity:0.4;"/>
   </g>
   <g id="patch_187">
    <path clip-path="url(#p11df8cbd73)" d="M 320.745967 307.584 
L 323.232137 307.584 
L 323.232137 234.837333 
L 320.745967 234.837333 
z
" style="fill:#008000;opacity:0.4;"/>
   </g>
   <g id="patch_188">
    <path clip-path="url(#p11df8cbd73)" d="M 323.232137 307.584 
L 325.718307 307.584 
L 325.718307 225.450667 
L 323.232137 225.450667 
z
" style="fill:#008000;opacity:0.4;"/>
   </g>
   <g id="patch_189">
    <path clip-path="url(#p11df8cbd73)" d="M 325.718307 307.584 
L 328.204477 307.584 
L 328.204477 225.450667 
L 325.718307 225.450667 
z
" style="fill:#008000;opacity:0.4;"/>
   </g>
   <g id="patch_190">
    <path clip-path="url(#p11df8cbd73)" d="M 328.204477 307.584 
L 330.690646 307.584 
L 330.690646 244.224 
L 328.204477 244.224 
z
" style="fill:#008000;opacity:0.4;"/>
   </g>
   <g id="patch_191">
    <path clip-path="url(#p11df8cbd73)" d="M 330.690646 307.584 
L 333.176816 307.584 
L 333.176816 227.797333 
L 330.690646 227.797333 
z
" style="fill:#008000;opacity:0.4;"/>
   </g>
   <g id="patch_192">
    <path clip-path="url(#p11df8cbd73)" d="M 333.176816 307.584 
L 335.662986 307.584 
L 335.662986 232.490667 
L 333.176816 232.490667 
z
" style="fill:#008000;opacity:0.4;"/>
   </g>
   <g id="patch_193">
    <path clip-path="url(#p11df8cbd73)" d="M 335.662986 307.584 
L 338.149156 307.584 
L 338.149156 234.837333 
L 335.662986 234.837333 
z
" style="fill:#008000;opacity:0.4;"/>
   </g>
   <g id="patch_194">
    <path clip-path="url(#p11df8cbd73)" d="M 338.149156 307.584 
L 340.635325 307.584 
L 340.635325 232.490667 
L 338.149156 232.490667 
z
" style="fill:#008000;opacity:0.4;"/>
   </g>
   <g id="patch_195">
    <path clip-path="url(#p11df8cbd73)" d="M 340.635325 307.584 
L 343.121495 307.584 
L 343.121495 220.757333 
L 340.635325 220.757333 
z
" style="fill:#008000;opacity:0.4;"/>
   </g>
   <g id="patch_196">
    <path clip-path="url(#p11df8cbd73)" d="M 343.121495 307.584 
L 345.607665 307.584 
L 345.607665 241.877333 
L 343.121495 241.877333 
z
" style="fill:#008000;opacity:0.4;"/>
   </g>
   <g id="patch_197">
    <path clip-path="url(#p11df8cbd73)" d="M 345.607665 307.584 
L 348.093835 307.584 
L 348.093835 253.610667 
L 345.607665 253.610667 
z
" style="fill:#008000;opacity:0.4;"/>
   </g>
   <g id="patch_198">
    <path clip-path="url(#p11df8cbd73)" d="M 348.093835 307.584 
L 350.580004 307.584 
L 350.580004 260.650667 
L 348.093835 260.650667 
z
" style="fill:#008000;opacity:0.4;"/>
   </g>
   <g id="patch_199">
    <path clip-path="url(#p11df8cbd73)" d="M 350.580004 307.584 
L 353.066174 307.584 
L 353.066174 262.997333 
L 350.580004 262.997333 
z
" style="fill:#008000;opacity:0.4;"/>
   </g>
   <g id="patch_200">
    <path clip-path="url(#p11df8cbd73)" d="M 353.066174 307.584 
L 355.552344 307.584 
L 355.552344 281.770667 
L 353.066174 281.770667 
z
" style="fill:#008000;opacity:0.4;"/>
   </g>
   <g id="patch_201">
    <path clip-path="url(#p11df8cbd73)" d="M 355.552344 307.584 
L 358.038514 307.584 
L 358.038514 295.850667 
L 355.552344 295.850667 
z
" style="fill:#008000;opacity:0.4;"/>
   </g>
   <g id="patch_202">
    <path clip-path="url(#p11df8cbd73)" d="M 358.038514 307.584 
L 360.524683 307.584 
L 360.524683 295.850667 
L 358.038514 295.850667 
z
" style="fill:#008000;opacity:0.4;"/>
   </g>
   <g id="matplotlib.axis_1">
    <g id="xtick_1">
     <g id="line2d_1">
      <defs>
       <path d="M 0 0 
L 0 3.5 
" id="ma7ba80d7fc" style="stroke:#000000;stroke-width:0.8;"/>
      </defs>
      <g>
       <use style="stroke:#000000;stroke-width:0.8;" x="74.681744" xlink:href="#ma7ba80d7fc" y="307.584"/>
      </g>
     </g>
     <g id="text_1">
      <!-- 1000 -->
      <defs>
       <path d="M 12.40625 8.296875 
L 28.515625 8.296875 
L 28.515625 63.921875 
L 10.984375 60.40625 
L 10.984375 69.390625 
L 28.421875 72.90625 
L 38.28125 72.90625 
L 38.28125 8.296875 
L 54.390625 8.296875 
L 54.390625 0 
L 12.40625 0 
z
" id="DejaVuSans-49"/>
       <path d="M 31.78125 66.40625 
Q 24.171875 66.40625 20.328125 58.90625 
Q 16.5 51.421875 16.5 36.375 
Q 16.5 21.390625 20.328125 13.890625 
Q 24.171875 6.390625 31.78125 6.390625 
Q 39.453125 6.390625 43.28125 13.890625 
Q 47.125 21.390625 47.125 36.375 
Q 47.125 51.421875 43.28125 58.90625 
Q 39.453125 66.40625 31.78125 66.40625 
z
M 31.78125 74.21875 
Q 44.046875 74.21875 50.515625 64.515625 
Q 56.984375 54.828125 56.984375 36.375 
Q 56.984375 17.96875 50.515625 8.265625 
Q 44.046875 -1.421875 31.78125 -1.421875 
Q 19.53125 -1.421875 13.0625 8.265625 
Q 6.59375 17.96875 6.59375 36.375 
Q 6.59375 54.828125 13.0625 64.515625 
Q 19.53125 74.21875 31.78125 74.21875 
z
" id="DejaVuSans-48"/>
      </defs>
      <g transform="translate(61.956744 322.182437)scale(0.1 -0.1)">
       <use xlink:href="#DejaVuSans-49"/>
       <use x="63.623047" xlink:href="#DejaVuSans-48"/>
       <use x="127.246094" xlink:href="#DejaVuSans-48"/>
       <use x="190.869141" xlink:href="#DejaVuSans-48"/>
      </g>
     </g>
    </g>
    <g id="xtick_2">
     <g id="line2d_2">
      <g>
       <use style="stroke:#000000;stroke-width:0.8;" x="115.099864" xlink:href="#ma7ba80d7fc" y="307.584"/>
      </g>
     </g>
     <g id="text_2">
      <!-- 2000 -->
      <defs>
       <path d="M 19.1875 8.296875 
L 53.609375 8.296875 
L 53.609375 0 
L 7.328125 0 
L 7.328125 8.296875 
Q 12.9375 14.109375 22.625 23.890625 
Q 32.328125 33.6875 34.8125 36.53125 
Q 39.546875 41.84375 41.421875 45.53125 
Q 43.3125 49.21875 43.3125 52.78125 
Q 43.3125 58.59375 39.234375 62.25 
Q 35.15625 65.921875 28.609375 65.921875 
Q 23.96875 65.921875 18.8125 64.3125 
Q 13.671875 62.703125 7.8125 59.421875 
L 7.8125 69.390625 
Q 13.765625 71.78125 18.9375 73 
Q 24.125 74.21875 28.421875 74.21875 
Q 39.75 74.21875 46.484375 68.546875 
Q 53.21875 62.890625 53.21875 53.421875 
Q 53.21875 48.921875 51.53125 44.890625 
Q 49.859375 40.875 45.40625 35.40625 
Q 44.1875 33.984375 37.640625 27.21875 
Q 31.109375 20.453125 19.1875 8.296875 
z
" id="DejaVuSans-50"/>
      </defs>
      <g transform="translate(102.374864 322.182437)scale(0.1 -0.1)">
       <use xlink:href="#DejaVuSans-50"/>
       <use x="63.623047" xlink:href="#DejaVuSans-48"/>
       <use x="127.246094" xlink:href="#DejaVuSans-48"/>
       <use x="190.869141" xlink:href="#DejaVuSans-48"/>
      </g>
     </g>
    </g>
    <g id="xtick_3">
     <g id="line2d_3">
      <g>
       <use style="stroke:#000000;stroke-width:0.8;" x="155.517983" xlink:href="#ma7ba80d7fc" y="307.584"/>
      </g>
     </g>
     <g id="text_3">
      <!-- 3000 -->
      <defs>
       <path d="M 40.578125 39.3125 
Q 47.65625 37.796875 51.625 33 
Q 55.609375 28.21875 55.609375 21.1875 
Q 55.609375 10.40625 48.1875 4.484375 
Q 40.765625 -1.421875 27.09375 -1.421875 
Q 22.515625 -1.421875 17.65625 -0.515625 
Q 12.796875 0.390625 7.625 2.203125 
L 7.625 11.71875 
Q 11.71875 9.328125 16.59375 8.109375 
Q 21.484375 6.890625 26.8125 6.890625 
Q 36.078125 6.890625 40.9375 10.546875 
Q 45.796875 14.203125 45.796875 21.1875 
Q 45.796875 27.640625 41.28125 31.265625 
Q 36.765625 34.90625 28.71875 34.90625 
L 20.21875 34.90625 
L 20.21875 43.015625 
L 29.109375 43.015625 
Q 36.375 43.015625 40.234375 45.921875 
Q 44.09375 48.828125 44.09375 54.296875 
Q 44.09375 59.90625 40.109375 62.90625 
Q 36.140625 65.921875 28.71875 65.921875 
Q 24.65625 65.921875 20.015625 65.03125 
Q 15.375 64.15625 9.8125 62.3125 
L 9.8125 71.09375 
Q 15.4375 72.65625 20.34375 73.4375 
Q 25.25 74.21875 29.59375 74.21875 
Q 40.828125 74.21875 47.359375 69.109375 
Q 53.90625 64.015625 53.90625 55.328125 
Q 53.90625 49.265625 50.4375 45.09375 
Q 46.96875 40.921875 40.578125 39.3125 
z
" id="DejaVuSans-51"/>
      </defs>
      <g transform="translate(142.792983 322.182437)scale(0.1 -0.1)">
       <use xlink:href="#DejaVuSans-51"/>
       <use x="63.623047" xlink:href="#DejaVuSans-48"/>
       <use x="127.246094" xlink:href="#DejaVuSans-48"/>
       <use x="190.869141" xlink:href="#DejaVuSans-48"/>
      </g>
     </g>
    </g>
    <g id="xtick_4">
     <g id="line2d_4">
      <g>
       <use style="stroke:#000000;stroke-width:0.8;" x="195.936103" xlink:href="#ma7ba80d7fc" y="307.584"/>
      </g>
     </g>
     <g id="text_4">
      <!-- 4000 -->
      <defs>
       <path d="M 37.796875 64.3125 
L 12.890625 25.390625 
L 37.796875 25.390625 
z
M 35.203125 72.90625 
L 47.609375 72.90625 
L 47.609375 25.390625 
L 58.015625 25.390625 
L 58.015625 17.1875 
L 47.609375 17.1875 
L 47.609375 0 
L 37.796875 0 
L 37.796875 17.1875 
L 4.890625 17.1875 
L 4.890625 26.703125 
z
" id="DejaVuSans-52"/>
      </defs>
      <g transform="translate(183.211103 322.182437)scale(0.1 -0.1)">
       <use xlink:href="#DejaVuSans-52"/>
       <use x="63.623047" xlink:href="#DejaVuSans-48"/>
       <use x="127.246094" xlink:href="#DejaVuSans-48"/>
       <use x="190.869141" xlink:href="#DejaVuSans-48"/>
      </g>
     </g>
    </g>
    <g id="xtick_5">
     <g id="line2d_5">
      <g>
       <use style="stroke:#000000;stroke-width:0.8;" x="236.354223" xlink:href="#ma7ba80d7fc" y="307.584"/>
      </g>
     </g>
     <g id="text_5">
      <!-- 5000 -->
      <defs>
       <path d="M 10.796875 72.90625 
L 49.515625 72.90625 
L 49.515625 64.59375 
L 19.828125 64.59375 
L 19.828125 46.734375 
Q 21.96875 47.46875 24.109375 47.828125 
Q 26.265625 48.1875 28.421875 48.1875 
Q 40.625 48.1875 47.75 41.5 
Q 54.890625 34.8125 54.890625 23.390625 
Q 54.890625 11.625 47.5625 5.09375 
Q 40.234375 -1.421875 26.90625 -1.421875 
Q 22.3125 -1.421875 17.546875 -0.640625 
Q 12.796875 0.140625 7.71875 1.703125 
L 7.71875 11.625 
Q 12.109375 9.234375 16.796875 8.0625 
Q 21.484375 6.890625 26.703125 6.890625 
Q 35.15625 6.890625 40.078125 11.328125 
Q 45.015625 15.765625 45.015625 23.390625 
Q 45.015625 31 40.078125 35.4375 
Q 35.15625 39.890625 26.703125 39.890625 
Q 22.75 39.890625 18.8125 39.015625 
Q 14.890625 38.140625 10.796875 36.28125 
z
" id="DejaVuSans-53"/>
      </defs>
      <g transform="translate(223.629223 322.182437)scale(0.1 -0.1)">
       <use xlink:href="#DejaVuSans-53"/>
       <use x="63.623047" xlink:href="#DejaVuSans-48"/>
       <use x="127.246094" xlink:href="#DejaVuSans-48"/>
       <use x="190.869141" xlink:href="#DejaVuSans-48"/>
      </g>
     </g>
    </g>
    <g id="xtick_6">
     <g id="line2d_6">
      <g>
       <use style="stroke:#000000;stroke-width:0.8;" x="276.772342" xlink:href="#ma7ba80d7fc" y="307.584"/>
      </g>
     </g>
     <g id="text_6">
      <!-- 6000 -->
      <defs>
       <path d="M 33.015625 40.375 
Q 26.375 40.375 22.484375 35.828125 
Q 18.609375 31.296875 18.609375 23.390625 
Q 18.609375 15.53125 22.484375 10.953125 
Q 26.375 6.390625 33.015625 6.390625 
Q 39.65625 6.390625 43.53125 10.953125 
Q 47.40625 15.53125 47.40625 23.390625 
Q 47.40625 31.296875 43.53125 35.828125 
Q 39.65625 40.375 33.015625 40.375 
z
M 52.59375 71.296875 
L 52.59375 62.3125 
Q 48.875 64.0625 45.09375 64.984375 
Q 41.3125 65.921875 37.59375 65.921875 
Q 27.828125 65.921875 22.671875 59.328125 
Q 17.53125 52.734375 16.796875 39.40625 
Q 19.671875 43.65625 24.015625 45.921875 
Q 28.375 48.1875 33.59375 48.1875 
Q 44.578125 48.1875 50.953125 41.515625 
Q 57.328125 34.859375 57.328125 23.390625 
Q 57.328125 12.15625 50.6875 5.359375 
Q 44.046875 -1.421875 33.015625 -1.421875 
Q 20.359375 -1.421875 13.671875 8.265625 
Q 6.984375 17.96875 6.984375 36.375 
Q 6.984375 53.65625 15.1875 63.9375 
Q 23.390625 74.21875 37.203125 74.21875 
Q 40.921875 74.21875 44.703125 73.484375 
Q 48.484375 72.75 52.59375 71.296875 
z
" id="DejaVuSans-54"/>
      </defs>
      <g transform="translate(264.047342 322.182437)scale(0.1 -0.1)">
       <use xlink:href="#DejaVuSans-54"/>
       <use x="63.623047" xlink:href="#DejaVuSans-48"/>
       <use x="127.246094" xlink:href="#DejaVuSans-48"/>
       <use x="190.869141" xlink:href="#DejaVuSans-48"/>
      </g>
     </g>
    </g>
    <g id="xtick_7">
     <g id="line2d_7">
      <g>
       <use style="stroke:#000000;stroke-width:0.8;" x="317.190462" xlink:href="#ma7ba80d7fc" y="307.584"/>
      </g>
     </g>
     <g id="text_7">
      <!-- 7000 -->
      <defs>
       <path d="M 8.203125 72.90625 
L 55.078125 72.90625 
L 55.078125 68.703125 
L 28.609375 0 
L 18.3125 0 
L 43.21875 64.59375 
L 8.203125 64.59375 
z
" id="DejaVuSans-55"/>
      </defs>
      <g transform="translate(304.465462 322.182437)scale(0.1 -0.1)">
       <use xlink:href="#DejaVuSans-55"/>
       <use x="63.623047" xlink:href="#DejaVuSans-48"/>
       <use x="127.246094" xlink:href="#DejaVuSans-48"/>
       <use x="190.869141" xlink:href="#DejaVuSans-48"/>
      </g>
     </g>
    </g>
    <g id="xtick_8">
     <g id="line2d_8">
      <g>
       <use style="stroke:#000000;stroke-width:0.8;" x="357.608582" xlink:href="#ma7ba80d7fc" y="307.584"/>
      </g>
     </g>
     <g id="text_8">
      <!-- 8000 -->
      <defs>
       <path d="M 31.78125 34.625 
Q 24.75 34.625 20.71875 30.859375 
Q 16.703125 27.09375 16.703125 20.515625 
Q 16.703125 13.921875 20.71875 10.15625 
Q 24.75 6.390625 31.78125 6.390625 
Q 38.8125 6.390625 42.859375 10.171875 
Q 46.921875 13.96875 46.921875 20.515625 
Q 46.921875 27.09375 42.890625 30.859375 
Q 38.875 34.625 31.78125 34.625 
z
M 21.921875 38.8125 
Q 15.578125 40.375 12.03125 44.71875 
Q 8.5 49.078125 8.5 55.328125 
Q 8.5 64.0625 14.71875 69.140625 
Q 20.953125 74.21875 31.78125 74.21875 
Q 42.671875 74.21875 48.875 69.140625 
Q 55.078125 64.0625 55.078125 55.328125 
Q 55.078125 49.078125 51.53125 44.71875 
Q 48 40.375 41.703125 38.8125 
Q 48.828125 37.15625 52.796875 32.3125 
Q 56.78125 27.484375 56.78125 20.515625 
Q 56.78125 9.90625 50.3125 4.234375 
Q 43.84375 -1.421875 31.78125 -1.421875 
Q 19.734375 -1.421875 13.25 4.234375 
Q 6.78125 9.90625 6.78125 20.515625 
Q 6.78125 27.484375 10.78125 32.3125 
Q 14.796875 37.15625 21.921875 38.8125 
z
M 18.3125 54.390625 
Q 18.3125 48.734375 21.84375 45.5625 
Q 25.390625 42.390625 31.78125 42.390625 
Q 38.140625 42.390625 41.71875 45.5625 
Q 45.3125 48.734375 45.3125 54.390625 
Q 45.3125 60.0625 41.71875 63.234375 
Q 38.140625 66.40625 31.78125 66.40625 
Q 25.390625 66.40625 21.84375 63.234375 
Q 18.3125 60.0625 18.3125 54.390625 
z
" id="DejaVuSans-56"/>
      </defs>
      <g transform="translate(344.883582 322.182437)scale(0.1 -0.1)">
       <use xlink:href="#DejaVuSans-56"/>
       <use x="63.623047" xlink:href="#DejaVuSans-48"/>
       <use x="127.246094" xlink:href="#DejaVuSans-48"/>
       <use x="190.869141" xlink:href="#DejaVuSans-48"/>
      </g>
     </g>
    </g>
    <g id="xtick_9">
     <g id="line2d_9">
      <g>
       <use style="stroke:#000000;stroke-width:0.8;" x="398.026701" xlink:href="#ma7ba80d7fc" y="307.584"/>
      </g>
     </g>
     <g id="text_9">
      <!-- 9000 -->
      <defs>
       <path d="M 10.984375 1.515625 
L 10.984375 10.5 
Q 14.703125 8.734375 18.5 7.8125 
Q 22.3125 6.890625 25.984375 6.890625 
Q 35.75 6.890625 40.890625 13.453125 
Q 46.046875 20.015625 46.78125 33.40625 
Q 43.953125 29.203125 39.59375 26.953125 
Q 35.25 24.703125 29.984375 24.703125 
Q 19.046875 24.703125 12.671875 31.3125 
Q 6.296875 37.9375 6.296875 49.421875 
Q 6.296875 60.640625 12.9375 67.421875 
Q 19.578125 74.21875 30.609375 74.21875 
Q 43.265625 74.21875 49.921875 64.515625 
Q 56.59375 54.828125 56.59375 36.375 
Q 56.59375 19.140625 48.40625 8.859375 
Q 40.234375 -1.421875 26.421875 -1.421875 
Q 22.703125 -1.421875 18.890625 -0.6875 
Q 15.09375 0.046875 10.984375 1.515625 
z
M 30.609375 32.421875 
Q 37.25 32.421875 41.125 36.953125 
Q 45.015625 41.5 45.015625 49.421875 
Q 45.015625 57.28125 41.125 61.84375 
Q 37.25 66.40625 30.609375 66.40625 
Q 23.96875 66.40625 20.09375 61.84375 
Q 16.21875 57.28125 16.21875 49.421875 
Q 16.21875 41.5 20.09375 36.953125 
Q 23.96875 32.421875 30.609375 32.421875 
z
" id="DejaVuSans-57"/>
      </defs>
      <g transform="translate(385.301701 322.182437)scale(0.1 -0.1)">
       <use xlink:href="#DejaVuSans-57"/>
       <use x="63.623047" xlink:href="#DejaVuSans-48"/>
       <use x="127.246094" xlink:href="#DejaVuSans-48"/>
       <use x="190.869141" xlink:href="#DejaVuSans-48"/>
      </g>
     </g>
    </g>
   </g>
   <g id="matplotlib.axis_2">
    <g id="ytick_1">
     <g id="line2d_10">
      <defs>
       <path d="M 0 0 
L -3.5 0 
" id="md50cace1eb" style="stroke:#000000;stroke-width:0.8;"/>
      </defs>
      <g>
       <use style="stroke:#000000;stroke-width:0.8;" x="57.6" xlink:href="#md50cace1eb" y="307.584"/>
      </g>
     </g>
     <g id="text_10">
      <!-- 0.0000 -->
      <defs>
       <path d="M 10.6875 12.40625 
L 21 12.40625 
L 21 0 
L 10.6875 0 
z
" id="DejaVuSans-46"/>
      </defs>
      <g transform="translate(15.609375 311.383219)scale(0.1 -0.1)">
       <use xlink:href="#DejaVuSans-48"/>
       <use x="63.623047" xlink:href="#DejaVuSans-46"/>
       <use x="95.410156" xlink:href="#DejaVuSans-48"/>
       <use x="159.033203" xlink:href="#DejaVuSans-48"/>
       <use x="222.65625" xlink:href="#DejaVuSans-48"/>
       <use x="286.279297" xlink:href="#DejaVuSans-48"/>
      </g>
     </g>
    </g>
    <g id="ytick_2">
     <g id="line2d_11">
      <g>
       <use style="stroke:#000000;stroke-width:0.8;" x="57.6" xlink:href="#md50cace1eb" y="250.177421"/>
      </g>
     </g>
     <g id="text_11">
      <!-- 0.0001 -->
      <g transform="translate(15.609375 253.976639)scale(0.1 -0.1)">
       <use xlink:href="#DejaVuSans-48"/>
       <use x="63.623047" xlink:href="#DejaVuSans-46"/>
       <use x="95.410156" xlink:href="#DejaVuSans-48"/>
       <use x="159.033203" xlink:href="#DejaVuSans-48"/>
       <use x="222.65625" xlink:href="#DejaVuSans-48"/>
       <use x="286.279297" xlink:href="#DejaVuSans-49"/>
      </g>
     </g>
    </g>
    <g id="ytick_3">
     <g id="line2d_12">
      <g>
       <use style="stroke:#000000;stroke-width:0.8;" x="57.6" xlink:href="#md50cace1eb" y="192.770841"/>
      </g>
     </g>
     <g id="text_12">
      <!-- 0.0002 -->
      <g transform="translate(15.609375 196.57006)scale(0.1 -0.1)">
       <use xlink:href="#DejaVuSans-48"/>
       <use x="63.623047" xlink:href="#DejaVuSans-46"/>
       <use x="95.410156" xlink:href="#DejaVuSans-48"/>
       <use x="159.033203" xlink:href="#DejaVuSans-48"/>
       <use x="222.65625" xlink:href="#DejaVuSans-48"/>
       <use x="286.279297" xlink:href="#DejaVuSans-50"/>
      </g>
     </g>
    </g>
    <g id="ytick_4">
     <g id="line2d_13">
      <g>
       <use style="stroke:#000000;stroke-width:0.8;" x="57.6" xlink:href="#md50cace1eb" y="135.364262"/>
      </g>
     </g>
     <g id="text_13">
      <!-- 0.0003 -->
      <g transform="translate(15.609375 139.163481)scale(0.1 -0.1)">
       <use xlink:href="#DejaVuSans-48"/>
       <use x="63.623047" xlink:href="#DejaVuSans-46"/>
       <use x="95.410156" xlink:href="#DejaVuSans-48"/>
       <use x="159.033203" xlink:href="#DejaVuSans-48"/>
       <use x="222.65625" xlink:href="#DejaVuSans-48"/>
       <use x="286.279297" xlink:href="#DejaVuSans-51"/>
      </g>
     </g>
    </g>
    <g id="ytick_5">
     <g id="line2d_14">
      <g>
       <use style="stroke:#000000;stroke-width:0.8;" x="57.6" xlink:href="#md50cace1eb" y="77.957683"/>
      </g>
     </g>
     <g id="text_14">
      <!-- 0.0004 -->
      <g transform="translate(15.609375 81.756902)scale(0.1 -0.1)">
       <use xlink:href="#DejaVuSans-48"/>
       <use x="63.623047" xlink:href="#DejaVuSans-46"/>
       <use x="95.410156" xlink:href="#DejaVuSans-48"/>
       <use x="159.033203" xlink:href="#DejaVuSans-48"/>
       <use x="222.65625" xlink:href="#DejaVuSans-48"/>
       <use x="286.279297" xlink:href="#DejaVuSans-52"/>
      </g>
     </g>
    </g>
   </g>
   <g id="line2d_15">
    <path clip-path="url(#p11df8cbd73)" d="M 73.832727 307.499491 
L 77.110943 307.385008 
L 80.389159 307.143241 
L 83.667375 306.664812 
L 86.945591 305.7771 
L 90.223807 304.231412 
L 93.502023 301.703068 
L 96.780239 297.812615 
L 100.058455 292.172154 
L 103.336671 284.453044 
L 106.614887 274.463114 
L 109.893103 262.217189 
L 113.171319 247.986357 
L 116.449535 232.316856 
L 119.727751 216.013739 
L 123.005967 200.084654 
L 126.284183 185.638086 
L 129.562399 173.735907 
L 132.840615 165.21665 
L 136.118831 160.528411 
L 139.397047 159.623849 
L 142.675263 161.960381 
L 145.953479 166.614922 
L 149.231695 172.479425 
L 152.509911 178.474083 
L 155.788127 183.714944 
L 159.066343 187.599834 
L 162.344559 189.813862 
L 165.622775 190.28276 
L 168.900991 189.108427 
L 172.179207 186.509746 
L 175.457423 182.775716 
L 178.735639 178.228392 
L 182.013855 173.193505 
L 185.292071 167.981778 
L 188.570287 162.886695 
L 191.848503 158.20048 
L 195.126719 154.241121 
L 198.404935 151.374444 
L 201.683151 150.011972 
L 204.961367 150.570769 
L 208.239583 153.395048 
L 211.517799 158.657195 
L 214.796015 166.270306 
L 218.074231 175.847887 
L 221.352447 186.734531 
L 224.630663 198.107811 
L 227.908879 209.125885 
L 231.187095 219.079131 
L 234.465311 227.504027 
L 237.743527 234.232197 
L 241.021742 239.369334 
L 244.299958 243.218679 
L 247.578174 246.175687 
L 250.85639 248.622961 
L 254.134606 250.849376 
L 257.412822 253.007599 
L 260.691038 255.112961 
L 263.969254 257.076339 
L 267.24747 258.75653 
L 270.525686 260.015245 
L 273.803902 260.760488 
L 277.082118 260.969993 
L 280.360334 260.692753 
L 283.63855 260.031367 
L 286.916766 259.110806 
L 290.194982 258.041474 
L 293.473198 256.886797 
L 296.751414 255.646564 
L 300.02963 254.264263 
L 303.307846 252.658688 
L 306.586062 250.769826 
L 309.864278 248.601865 
L 313.142494 246.246966 
L 316.42071 243.882225 
L 319.698926 241.744277 
L 322.977142 240.094232 
L 326.255358 239.185841 
L 329.533574 239.242987 
L 332.81179 240.444022 
L 336.090006 242.906103 
L 339.368222 246.665012 
L 342.646438 251.652934 
L 345.924654 257.683483 
L 349.20287 264.455141 
L 352.481086 271.579708 
L 355.759302 278.633359 
L 359.037518 285.218937 
L 362.315734 291.023261 
L 365.59395 295.85472 
L 368.872166 299.653215 
L 372.150382 302.473505 
L 375.428598 304.450503 
L 378.706814 305.758452 
L 381.98503 306.574776 
L 385.263246 307.0552 
L 388.541462 307.321681 
L 391.819678 307.460928 
L 395.097894 307.529439 
L 398.37611 307.561164 
" style="fill:none;stroke:#f48024;stroke-linecap:square;stroke-width:1.5;"/>
   </g>
   <g id="line2d_16">
    <path clip-path="url(#p11df8cbd73)" d="M 73.945119 307.498287 
L 77.223322 307.382545 
L 80.501526 307.138553 
L 83.779729 306.656517 
L 87.057933 305.763469 
L 90.336136 304.21064 
L 93.61434 301.673777 
L 96.892544 297.774533 
L 100.170747 292.126774 
L 103.448951 284.404024 
L 106.727154 274.416195 
L 110.005358 262.17955 
L 113.283561 247.965523 
L 116.561765 232.319381 
L 119.839969 216.043944 
L 123.118172 200.143642 
L 126.396376 185.72326 
L 129.674579 173.841187 
L 132.952783 165.333556 
L 136.230986 160.647939 
L 139.50919 159.738697 
L 142.787394 162.066808 
L 146.065597 166.713485 
L 149.343801 172.574306 
L 152.622004 178.571314 
L 155.900208 183.820325 
L 159.178412 187.717423 
L 162.456615 189.945499 
L 165.734819 190.42857 
L 169.013022 189.267812 
L 172.291226 186.682313 
L 175.569429 182.961755 
L 178.847633 178.428818 
L 182.125837 173.409328 
L 185.40404 168.213222 
L 188.682244 163.132025 
L 191.960447 158.45465 
L 195.238651 154.494541 
L 198.516854 151.612387 
L 201.795058 150.215298 
L 205.073262 150.71838 
L 208.351465 153.467973 
L 211.629669 158.643379 
L 214.907872 166.168668 
L 218.186076 175.670094 
L 221.46428 186.5036 
L 224.742483 197.853693 
L 228.020687 208.879292 
L 231.29889 218.865454 
L 234.577094 227.339075 
L 237.855297 234.120713 
L 241.133501 239.306272 
L 244.411705 243.192398 
L 247.689908 246.171889 
L 250.968112 248.628307 
L 254.246315 250.854108 
L 257.524519 253.006915 
L 260.802722 255.10722 
L 264.080926 257.070332 
L 267.35913 258.758154 
L 270.637333 260.033961 
L 273.915537 260.805869 
L 277.19374 261.050557 
L 280.471944 260.815086 
L 283.750147 260.199413 
L 287.028351 259.325166 
L 290.306555 258.29869 
L 293.584758 257.178777 
L 296.862962 255.960414 
L 300.141165 254.582841 
L 303.419369 252.96207 
L 306.697573 251.037638 
L 309.975776 248.816147 
L 313.25398 246.39488 
L 316.532183 243.957746 
L 319.810387 241.748134 
L 323.08859 240.031928 
L 326.366794 239.064386 
L 329.644998 239.067662 
L 332.923201 240.216637 
L 336.201405 242.625611 
L 339.479608 246.330256 
L 342.757812 251.266306 
L 346.036015 257.253838 
L 349.314219 263.998635 
L 352.592423 271.118132 
L 355.870626 278.190575 
L 359.14883 284.816627 
L 362.427033 290.677348 
L 365.705237 295.573401 
L 368.983441 299.436887 
L 372.261644 302.316265 
L 375.539848 304.342515 
L 378.818051 305.688411 
L 382.096255 306.531897 
L 385.374458 307.030436 
L 388.652662 307.308199 
L 391.930866 307.454012 
L 395.209069 307.526099 
L 398.487273 307.559646 
" style="fill:none;stroke:#008000;stroke-linecap:square;stroke-width:1.5;"/>
   </g>
   <g id="patch_203">
    <path d="M 57.6 307.584 
L 57.6 41.472 
" style="fill:none;stroke:#000000;stroke-linecap:square;stroke-linejoin:miter;stroke-width:0.8;"/>
   </g>
   <g id="patch_204">
    <path d="M 414.72 307.584 
L 414.72 41.472 
" style="fill:none;stroke:#000000;stroke-linecap:square;stroke-linejoin:miter;stroke-width:0.8;"/>
   </g>
   <g id="patch_205">
    <path d="M 57.6 307.584 
L 414.72 307.584 
" style="fill:none;stroke:#000000;stroke-linecap:square;stroke-linejoin:miter;stroke-width:0.8;"/>
   </g>
   <g id="patch_206">
    <path d="M 57.6 41.472 
L 414.72 41.472 
" style="fill:none;stroke:#000000;stroke-linecap:square;stroke-linejoin:miter;stroke-width:0.8;"/>
   </g>
   <g id="text_15">
    <!-- {'mae': 63.328, 'smape': 0.015, 'jsd': 0.031} -->
    <defs>
     <path d="M 51.125 -9.28125 
L 51.125 -16.3125 
L 48.09375 -16.3125 
Q 35.9375 -16.3125 31.8125 -12.6875 
Q 27.6875 -9.078125 27.6875 1.703125 
L 27.6875 13.375 
Q 27.6875 20.75 25.046875 23.578125 
Q 22.40625 26.421875 15.484375 26.421875 
L 12.5 26.421875 
L 12.5 33.40625 
L 15.484375 33.40625 
Q 22.46875 33.40625 25.078125 36.203125 
Q 27.6875 39.015625 27.6875 46.296875 
L 27.6875 58.015625 
Q 27.6875 68.796875 31.8125 72.390625 
Q 35.9375 75.984375 48.09375 75.984375 
L 51.125 75.984375 
L 51.125 69 
L 47.796875 69 
Q 40.921875 69 38.8125 66.84375 
Q 36.71875 64.703125 36.71875 57.8125 
L 36.71875 45.703125 
Q 36.71875 38.03125 34.5 34.5625 
Q 32.28125 31.109375 26.90625 29.890625 
Q 32.328125 28.5625 34.515625 25.09375 
Q 36.71875 21.625 36.71875 14.015625 
L 36.71875 1.90625 
Q 36.71875 -4.984375 38.8125 -7.125 
Q 40.921875 -9.28125 47.796875 -9.28125 
z
" id="DejaVuSans-123"/>
     <path d="M 17.921875 72.90625 
L 17.921875 45.796875 
L 9.625 45.796875 
L 9.625 72.90625 
z
" id="DejaVuSans-39"/>
     <path d="M 52 44.1875 
Q 55.375 50.25 60.0625 53.125 
Q 64.75 56 71.09375 56 
Q 79.640625 56 84.28125 50.015625 
Q 88.921875 44.046875 88.921875 33.015625 
L 88.921875 0 
L 79.890625 0 
L 79.890625 32.71875 
Q 79.890625 40.578125 77.09375 44.375 
Q 74.3125 48.1875 68.609375 48.1875 
Q 61.625 48.1875 57.5625 43.546875 
Q 53.515625 38.921875 53.515625 30.90625 
L 53.515625 0 
L 44.484375 0 
L 44.484375 32.71875 
Q 44.484375 40.625 41.703125 44.40625 
Q 38.921875 48.1875 33.109375 48.1875 
Q 26.21875 48.1875 22.15625 43.53125 
Q 18.109375 38.875 18.109375 30.90625 
L 18.109375 0 
L 9.078125 0 
L 9.078125 54.6875 
L 18.109375 54.6875 
L 18.109375 46.1875 
Q 21.1875 51.21875 25.484375 53.609375 
Q 29.78125 56 35.6875 56 
Q 41.65625 56 45.828125 52.96875 
Q 50 49.953125 52 44.1875 
z
" id="DejaVuSans-109"/>
     <path d="M 34.28125 27.484375 
Q 23.390625 27.484375 19.1875 25 
Q 14.984375 22.515625 14.984375 16.5 
Q 14.984375 11.71875 18.140625 8.90625 
Q 21.296875 6.109375 26.703125 6.109375 
Q 34.1875 6.109375 38.703125 11.40625 
Q 43.21875 16.703125 43.21875 25.484375 
L 43.21875 27.484375 
z
M 52.203125 31.203125 
L 52.203125 0 
L 43.21875 0 
L 43.21875 8.296875 
Q 40.140625 3.328125 35.546875 0.953125 
Q 30.953125 -1.421875 24.3125 -1.421875 
Q 15.921875 -1.421875 10.953125 3.296875 
Q 6 8.015625 6 15.921875 
Q 6 25.140625 12.171875 29.828125 
Q 18.359375 34.515625 30.609375 34.515625 
L 43.21875 34.515625 
L 43.21875 35.40625 
Q 43.21875 41.609375 39.140625 45 
Q 35.0625 48.390625 27.6875 48.390625 
Q 23 48.390625 18.546875 47.265625 
Q 14.109375 46.140625 10.015625 43.890625 
L 10.015625 52.203125 
Q 14.9375 54.109375 19.578125 55.046875 
Q 24.21875 56 28.609375 56 
Q 40.484375 56 46.34375 49.84375 
Q 52.203125 43.703125 52.203125 31.203125 
z
" id="DejaVuSans-97"/>
     <path d="M 56.203125 29.59375 
L 56.203125 25.203125 
L 14.890625 25.203125 
Q 15.484375 15.921875 20.484375 11.0625 
Q 25.484375 6.203125 34.421875 6.203125 
Q 39.59375 6.203125 44.453125 7.46875 
Q 49.3125 8.734375 54.109375 11.28125 
L 54.109375 2.78125 
Q 49.265625 0.734375 44.1875 -0.34375 
Q 39.109375 -1.421875 33.890625 -1.421875 
Q 20.796875 -1.421875 13.15625 6.1875 
Q 5.515625 13.8125 5.515625 26.8125 
Q 5.515625 40.234375 12.765625 48.109375 
Q 20.015625 56 32.328125 56 
Q 43.359375 56 49.78125 48.890625 
Q 56.203125 41.796875 56.203125 29.59375 
z
M 47.21875 32.234375 
Q 47.125 39.59375 43.09375 43.984375 
Q 39.0625 48.390625 32.421875 48.390625 
Q 24.90625 48.390625 20.390625 44.140625 
Q 15.875 39.890625 15.1875 32.171875 
z
" id="DejaVuSans-101"/>
     <path d="M 11.71875 12.40625 
L 22.015625 12.40625 
L 22.015625 0 
L 11.71875 0 
z
M 11.71875 51.703125 
L 22.015625 51.703125 
L 22.015625 39.3125 
L 11.71875 39.3125 
z
" id="DejaVuSans-58"/>
     <path id="DejaVuSans-32"/>
     <path d="M 11.71875 12.40625 
L 22.015625 12.40625 
L 22.015625 4 
L 14.015625 -11.625 
L 7.71875 -11.625 
L 11.71875 4 
z
" id="DejaVuSans-44"/>
     <path d="M 44.28125 53.078125 
L 44.28125 44.578125 
Q 40.484375 46.53125 36.375 47.5 
Q 32.28125 48.484375 27.875 48.484375 
Q 21.1875 48.484375 17.84375 46.4375 
Q 14.5 44.390625 14.5 40.28125 
Q 14.5 37.15625 16.890625 35.375 
Q 19.28125 33.59375 26.515625 31.984375 
L 29.59375 31.296875 
Q 39.15625 29.25 43.1875 25.515625 
Q 47.21875 21.78125 47.21875 15.09375 
Q 47.21875 7.46875 41.1875 3.015625 
Q 35.15625 -1.421875 24.609375 -1.421875 
Q 20.21875 -1.421875 15.453125 -0.5625 
Q 10.6875 0.296875 5.421875 2 
L 5.421875 11.28125 
Q 10.40625 8.6875 15.234375 7.390625 
Q 20.0625 6.109375 24.8125 6.109375 
Q 31.15625 6.109375 34.5625 8.28125 
Q 37.984375 10.453125 37.984375 14.40625 
Q 37.984375 18.0625 35.515625 20.015625 
Q 33.0625 21.96875 24.703125 23.78125 
L 21.578125 24.515625 
Q 13.234375 26.265625 9.515625 29.90625 
Q 5.8125 33.546875 5.8125 39.890625 
Q 5.8125 47.609375 11.28125 51.796875 
Q 16.75 56 26.8125 56 
Q 31.78125 56 36.171875 55.265625 
Q 40.578125 54.546875 44.28125 53.078125 
z
" id="DejaVuSans-115"/>
     <path d="M 18.109375 8.203125 
L 18.109375 -20.796875 
L 9.078125 -20.796875 
L 9.078125 54.6875 
L 18.109375 54.6875 
L 18.109375 46.390625 
Q 20.953125 51.265625 25.265625 53.625 
Q 29.59375 56 35.59375 56 
Q 45.5625 56 51.78125 48.09375 
Q 58.015625 40.1875 58.015625 27.296875 
Q 58.015625 14.40625 51.78125 6.484375 
Q 45.5625 -1.421875 35.59375 -1.421875 
Q 29.59375 -1.421875 25.265625 0.953125 
Q 20.953125 3.328125 18.109375 8.203125 
z
M 48.6875 27.296875 
Q 48.6875 37.203125 44.609375 42.84375 
Q 40.53125 48.484375 33.40625 48.484375 
Q 26.265625 48.484375 22.1875 42.84375 
Q 18.109375 37.203125 18.109375 27.296875 
Q 18.109375 17.390625 22.1875 11.75 
Q 26.265625 6.109375 33.40625 6.109375 
Q 40.53125 6.109375 44.609375 11.75 
Q 48.6875 17.390625 48.6875 27.296875 
z
" id="DejaVuSans-112"/>
     <path d="M 9.421875 54.6875 
L 18.40625 54.6875 
L 18.40625 -0.984375 
Q 18.40625 -11.421875 14.421875 -16.109375 
Q 10.453125 -20.796875 1.609375 -20.796875 
L -1.8125 -20.796875 
L -1.8125 -13.1875 
L 0.59375 -13.1875 
Q 5.71875 -13.1875 7.5625 -10.8125 
Q 9.421875 -8.453125 9.421875 -0.984375 
z
M 9.421875 75.984375 
L 18.40625 75.984375 
L 18.40625 64.59375 
L 9.421875 64.59375 
z
" id="DejaVuSans-106"/>
     <path d="M 45.40625 46.390625 
L 45.40625 75.984375 
L 54.390625 75.984375 
L 54.390625 0 
L 45.40625 0 
L 45.40625 8.203125 
Q 42.578125 3.328125 38.25 0.953125 
Q 33.9375 -1.421875 27.875 -1.421875 
Q 17.96875 -1.421875 11.734375 6.484375 
Q 5.515625 14.40625 5.515625 27.296875 
Q 5.515625 40.1875 11.734375 48.09375 
Q 17.96875 56 27.875 56 
Q 33.9375 56 38.25 53.625 
Q 42.578125 51.265625 45.40625 46.390625 
z
M 14.796875 27.296875 
Q 14.796875 17.390625 18.875 11.75 
Q 22.953125 6.109375 30.078125 6.109375 
Q 37.203125 6.109375 41.296875 11.75 
Q 45.40625 17.390625 45.40625 27.296875 
Q 45.40625 37.203125 41.296875 42.84375 
Q 37.203125 48.484375 30.078125 48.484375 
Q 22.953125 48.484375 18.875 42.84375 
Q 14.796875 37.203125 14.796875 27.296875 
z
" id="DejaVuSans-100"/>
     <path d="M 12.5 -9.28125 
L 15.921875 -9.28125 
Q 22.75 -9.28125 24.828125 -7.171875 
Q 26.90625 -5.078125 26.90625 1.90625 
L 26.90625 14.015625 
Q 26.90625 21.625 29.09375 25.09375 
Q 31.296875 28.5625 36.71875 29.890625 
Q 31.296875 31.109375 29.09375 34.5625 
Q 26.90625 38.03125 26.90625 45.703125 
L 26.90625 57.8125 
Q 26.90625 64.75 24.828125 66.875 
Q 22.75 69 15.921875 69 
L 12.5 69 
L 12.5 75.984375 
L 15.578125 75.984375 
Q 27.734375 75.984375 31.8125 72.390625 
Q 35.890625 68.796875 35.890625 58.015625 
L 35.890625 46.296875 
Q 35.890625 39.015625 38.515625 36.203125 
Q 41.15625 33.40625 48.09375 33.40625 
L 51.125 33.40625 
L 51.125 26.421875 
L 48.09375 26.421875 
Q 41.15625 26.421875 38.515625 23.578125 
Q 35.890625 20.75 35.890625 13.375 
L 35.890625 1.703125 
Q 35.890625 -9.078125 31.8125 -12.6875 
Q 27.734375 -16.3125 15.578125 -16.3125 
L 12.5 -16.3125 
z
" id="DejaVuSans-125"/>
    </defs>
    <g transform="translate(101.908125 35.472)scale(0.12 -0.12)">
     <use xlink:href="#DejaVuSans-123"/>
     <use x="63.623047" xlink:href="#DejaVuSans-39"/>
     <use x="91.113281" xlink:href="#DejaVuSans-109"/>
     <use x="188.525391" xlink:href="#DejaVuSans-97"/>
     <use x="249.804688" xlink:href="#DejaVuSans-101"/>
     <use x="311.328125" xlink:href="#DejaVuSans-39"/>
     <use x="338.818359" xlink:href="#DejaVuSans-58"/>
     <use x="372.509766" xlink:href="#DejaVuSans-32"/>
     <use x="404.296875" xlink:href="#DejaVuSans-54"/>
     <use x="467.919922" xlink:href="#DejaVuSans-51"/>
     <use x="531.542969" xlink:href="#DejaVuSans-46"/>
     <use x="563.330078" xlink:href="#DejaVuSans-51"/>
     <use x="626.953125" xlink:href="#DejaVuSans-50"/>
     <use x="690.576172" xlink:href="#DejaVuSans-56"/>
     <use x="754.199219" xlink:href="#DejaVuSans-44"/>
     <use x="785.986328" xlink:href="#DejaVuSans-32"/>
     <use x="817.773438" xlink:href="#DejaVuSans-39"/>
     <use x="845.263672" xlink:href="#DejaVuSans-115"/>
     <use x="897.363281" xlink:href="#DejaVuSans-109"/>
     <use x="994.775391" xlink:href="#DejaVuSans-97"/>
     <use x="1056.054688" xlink:href="#DejaVuSans-112"/>
     <use x="1119.53125" xlink:href="#DejaVuSans-101"/>
     <use x="1181.054688" xlink:href="#DejaVuSans-39"/>
     <use x="1208.544922" xlink:href="#DejaVuSans-58"/>
     <use x="1242.236328" xlink:href="#DejaVuSans-32"/>
     <use x="1274.023438" xlink:href="#DejaVuSans-48"/>
     <use x="1337.646484" xlink:href="#DejaVuSans-46"/>
     <use x="1369.433594" xlink:href="#DejaVuSans-48"/>
     <use x="1433.056641" xlink:href="#DejaVuSans-49"/>
     <use x="1496.679688" xlink:href="#DejaVuSans-53"/>
     <use x="1560.302734" xlink:href="#DejaVuSans-44"/>
     <use x="1592.089844" xlink:href="#DejaVuSans-32"/>
     <use x="1623.876953" xlink:href="#DejaVuSans-39"/>
     <use x="1651.367188" xlink:href="#DejaVuSans-106"/>
     <use x="1679.150391" xlink:href="#DejaVuSans-115"/>
     <use x="1731.25" xlink:href="#DejaVuSans-100"/>
     <use x="1794.726562" xlink:href="#DejaVuSans-39"/>
     <use x="1822.216797" xlink:href="#DejaVuSans-58"/>
     <use x="1855.908203" xlink:href="#DejaVuSans-32"/>
     <use x="1887.695312" xlink:href="#DejaVuSans-48"/>
     <use x="1951.318359" xlink:href="#DejaVuSans-46"/>
     <use x="1983.105469" xlink:href="#DejaVuSans-48"/>
     <use x="2046.728516" xlink:href="#DejaVuSans-51"/>
     <use x="2110.351562" xlink:href="#DejaVuSans-49"/>
     <use x="2173.974609" xlink:href="#DejaVuSans-125"/>
    </g>
   </g>
   <g id="legend_1">
    <g id="patch_207">
     <path d="M 340.565313 78.82825 
L 407.72 78.82825 
Q 409.72 78.82825 409.72 76.82825 
L 409.72 48.472 
Q 409.72 46.472 407.72 46.472 
L 340.565313 46.472 
Q 338.565313 46.472 338.565313 48.472 
L 338.565313 76.82825 
Q 338.565313 78.82825 340.565313 78.82825 
z
" style="fill:#ffffff;opacity:0.8;stroke:#cccccc;stroke-linejoin:miter;"/>
    </g>
    <g id="patch_208">
     <path d="M 342.565313 58.070437 
L 362.565313 58.070437 
L 362.565313 51.070437 
L 342.565313 51.070437 
z
" style="fill:#f48024;opacity:0.4;"/>
    </g>
    <g id="text_16">
     <!-- actual -->
     <defs>
      <path d="M 48.78125 52.59375 
L 48.78125 44.1875 
Q 44.96875 46.296875 41.140625 47.34375 
Q 37.3125 48.390625 33.40625 48.390625 
Q 24.65625 48.390625 19.8125 42.84375 
Q 14.984375 37.3125 14.984375 27.296875 
Q 14.984375 17.28125 19.8125 11.734375 
Q 24.65625 6.203125 33.40625 6.203125 
Q 37.3125 6.203125 41.140625 7.25 
Q 44.96875 8.296875 48.78125 10.40625 
L 48.78125 2.09375 
Q 45.015625 0.34375 40.984375 -0.53125 
Q 36.96875 -1.421875 32.421875 -1.421875 
Q 20.0625 -1.421875 12.78125 6.34375 
Q 5.515625 14.109375 5.515625 27.296875 
Q 5.515625 40.671875 12.859375 48.328125 
Q 20.21875 56 33.015625 56 
Q 37.15625 56 41.109375 55.140625 
Q 45.0625 54.296875 48.78125 52.59375 
z
" id="DejaVuSans-99"/>
      <path d="M 18.3125 70.21875 
L 18.3125 54.6875 
L 36.8125 54.6875 
L 36.8125 47.703125 
L 18.3125 47.703125 
L 18.3125 18.015625 
Q 18.3125 11.328125 20.140625 9.421875 
Q 21.96875 7.515625 27.59375 7.515625 
L 36.8125 7.515625 
L 36.8125 0 
L 27.59375 0 
Q 17.1875 0 13.234375 3.875 
Q 9.28125 7.765625 9.28125 18.015625 
L 9.28125 47.703125 
L 2.6875 47.703125 
L 2.6875 54.6875 
L 9.28125 54.6875 
L 9.28125 70.21875 
z
" id="DejaVuSans-116"/>
      <path d="M 8.5 21.578125 
L 8.5 54.6875 
L 17.484375 54.6875 
L 17.484375 21.921875 
Q 17.484375 14.15625 20.5 10.265625 
Q 23.53125 6.390625 29.59375 6.390625 
Q 36.859375 6.390625 41.078125 11.03125 
Q 45.3125 15.671875 45.3125 23.6875 
L 45.3125 54.6875 
L 54.296875 54.6875 
L 54.296875 0 
L 45.3125 0 
L 45.3125 8.40625 
Q 42.046875 3.421875 37.71875 1 
Q 33.40625 -1.421875 27.6875 -1.421875 
Q 18.265625 -1.421875 13.375 4.4375 
Q 8.5 10.296875 8.5 21.578125 
z
M 31.109375 56 
z
" id="DejaVuSans-117"/>
      <path d="M 9.421875 75.984375 
L 18.40625 75.984375 
L 18.40625 0 
L 9.421875 0 
z
" id="DejaVuSans-108"/>
     </defs>
     <g transform="translate(370.565313 58.070437)scale(0.1 -0.1)">
      <use xlink:href="#DejaVuSans-97"/>
      <use x="61.279297" xlink:href="#DejaVuSans-99"/>
      <use x="116.259766" xlink:href="#DejaVuSans-116"/>
      <use x="155.46875" xlink:href="#DejaVuSans-117"/>
      <use x="218.847656" xlink:href="#DejaVuSans-97"/>
      <use x="280.126953" xlink:href="#DejaVuSans-108"/>
     </g>
    </g>
    <g id="patch_209">
     <path d="M 342.565313 72.748562 
L 362.565313 72.748562 
L 362.565313 65.748562 
L 342.565313 65.748562 
z
" style="fill:#008000;opacity:0.4;"/>
    </g>
    <g id="text_17">
     <!-- predict -->
     <defs>
      <path d="M 41.109375 46.296875 
Q 39.59375 47.171875 37.8125 47.578125 
Q 36.03125 48 33.890625 48 
Q 26.265625 48 22.1875 43.046875 
Q 18.109375 38.09375 18.109375 28.8125 
L 18.109375 0 
L 9.078125 0 
L 9.078125 54.6875 
L 18.109375 54.6875 
L 18.109375 46.1875 
Q 20.953125 51.171875 25.484375 53.578125 
Q 30.03125 56 36.53125 56 
Q 37.453125 56 38.578125 55.875 
Q 39.703125 55.765625 41.0625 55.515625 
z
" id="DejaVuSans-114"/>
      <path d="M 9.421875 54.6875 
L 18.40625 54.6875 
L 18.40625 0 
L 9.421875 0 
z
M 9.421875 75.984375 
L 18.40625 75.984375 
L 18.40625 64.59375 
L 9.421875 64.59375 
z
" id="DejaVuSans-105"/>
     </defs>
     <g transform="translate(370.565313 72.748562)scale(0.1 -0.1)">
      <use xlink:href="#DejaVuSans-112"/>
      <use x="63.476562" xlink:href="#DejaVuSans-114"/>
      <use x="104.558594" xlink:href="#DejaVuSans-101"/>
      <use x="166.082031" xlink:href="#DejaVuSans-100"/>
      <use x="229.558594" xlink:href="#DejaVuSans-105"/>
      <use x="257.341797" xlink:href="#DejaVuSans-99"/>
      <use x="312.322266" xlink:href="#DejaVuSans-116"/>
     </g>
    </g>
   </g>
  </g>
 </g>
 <defs>
  <clipPath id="p11df8cbd73">
   <rect height="266.112" width="357.12" x="57.6" y="41.472"/>
  </clipPath>
 </defs>
</svg>
