<?xml version="1.0" encoding="utf-8" standalone="no"?>
<!DOCTYPE svg PUBLIC "-//W3C//DTD SVG 1.1//EN"
  "http://www.w3.org/Graphics/SVG/1.1/DTD/svg11.dtd">
<!-- Created with matplotlib (https://matplotlib.org/) -->
<svg height="345.6pt" version="1.1" viewBox="0 0 460.8 345.6" width="460.8pt" xmlns="http://www.w3.org/2000/svg" xmlns:xlink="http://www.w3.org/1999/xlink">
 <defs>
  <style type="text/css">
*{stroke-linecap:butt;stroke-linejoin:round;}
  </style>
 </defs>
 <g id="figure_1">
  <g id="patch_1">
   <path d="M 0 345.6 
L 460.8 345.6 
L 460.8 0 
L 0 0 
z
" style="fill:#ffffff;"/>
  </g>
  <g id="axes_1">
   <g id="patch_2">
    <path d="M 57.6 307.584 
L 414.72 307.584 
L 414.72 41.472 
L 57.6 41.472 
z
" style="fill:#ffffff;"/>
   </g>
   <g id="patch_3">
    <path clip-path="url(#p5c1c53e2e5)" d="M 89.116959 307.584 
L 89.467939 307.584 
L 89.467939 191.478154 
L 89.116959 191.478154 
z
" style="fill:#f48024;opacity:0.4;"/>
   </g>
   <g id="patch_4">
    <path clip-path="url(#p5c1c53e2e5)" d="M 89.467939 307.584 
L 89.81892 307.584 
L 89.81892 198.409846 
L 89.467939 198.409846 
z
" style="fill:#f48024;opacity:0.4;"/>
   </g>
   <g id="patch_5">
    <path clip-path="url(#p5c1c53e2e5)" d="M 89.81892 307.584 
L 90.1699 307.584 
L 90.1699 233.068308 
L 89.81892 233.068308 
z
" style="fill:#f48024;opacity:0.4;"/>
   </g>
   <g id="patch_6">
    <path clip-path="url(#p5c1c53e2e5)" d="M 90.1699 307.584 
L 90.520881 307.584 
L 90.520881 129.092923 
L 90.1699 129.092923 
z
" style="fill:#f48024;opacity:0.4;"/>
   </g>
   <g id="patch_7">
    <path clip-path="url(#p5c1c53e2e5)" d="M 90.520881 307.584 
L 90.871861 307.584 
L 90.871861 54.144 
L 90.520881 54.144 
z
" style="fill:#f48024;opacity:0.4;"/>
   </g>
   <g id="patch_8">
    <path clip-path="url(#p5c1c53e2e5)" d="M 90.871861 307.584 
L 91.222842 307.584 
L 91.222842 134.291692 
L 90.871861 134.291692 
z
" style="fill:#f48024;opacity:0.4;"/>
   </g>
   <g id="patch_9">
    <path clip-path="url(#p5c1c53e2e5)" d="M 91.222842 307.584 
L 91.573822 307.584 
L 91.573822 206.641231 
L 91.222842 206.641231 
z
" style="fill:#f48024;opacity:0.4;"/>
   </g>
   <g id="patch_10">
    <path clip-path="url(#p5c1c53e2e5)" d="M 91.573822 307.584 
L 91.924803 307.584 
L 91.924803 245.198769 
L 91.573822 245.198769 
z
" style="fill:#f48024;opacity:0.4;"/>
   </g>
   <g id="patch_11">
    <path clip-path="url(#p5c1c53e2e5)" d="M 91.924803 307.584 
L 92.275783 307.584 
L 92.275783 262.094769 
L 91.924803 262.094769 
z
" style="fill:#f48024;opacity:0.4;"/>
   </g>
   <g id="patch_12">
    <path clip-path="url(#p5c1c53e2e5)" d="M 92.275783 307.584 
L 92.626764 307.584 
L 92.626764 275.091692 
L 92.275783 275.091692 
z
" style="fill:#f48024;opacity:0.4;"/>
   </g>
   <g id="patch_13">
    <path clip-path="url(#p5c1c53e2e5)" d="M 92.626764 307.584 
L 92.977744 307.584 
L 92.977744 275.958154 
L 92.626764 275.958154 
z
" style="fill:#f48024;opacity:0.4;"/>
   </g>
   <g id="patch_14">
    <path clip-path="url(#p5c1c53e2e5)" d="M 92.977744 307.584 
L 93.328725 307.584 
L 93.328725 282.456615 
L 92.977744 282.456615 
z
" style="fill:#f48024;opacity:0.4;"/>
   </g>
   <g id="patch_15">
    <path clip-path="url(#p5c1c53e2e5)" d="M 93.328725 307.584 
L 93.679705 307.584 
L 93.679705 282.889846 
L 93.328725 282.889846 
z
" style="fill:#f48024;opacity:0.4;"/>
   </g>
   <g id="patch_16">
    <path clip-path="url(#p5c1c53e2e5)" d="M 93.679705 307.584 
L 94.030686 307.584 
L 94.030686 291.554462 
L 93.679705 291.554462 
z
" style="fill:#f48024;opacity:0.4;"/>
   </g>
   <g id="patch_17">
    <path clip-path="url(#p5c1c53e2e5)" d="M 94.030686 307.584 
L 94.381666 307.584 
L 94.381666 295.020308 
L 94.030686 295.020308 
z
" style="fill:#f48024;opacity:0.4;"/>
   </g>
   <g id="patch_18">
    <path clip-path="url(#p5c1c53e2e5)" d="M 94.381666 307.584 
L 94.732647 307.584 
L 94.732647 298.486154 
L 94.381666 298.486154 
z
" style="fill:#f48024;opacity:0.4;"/>
   </g>
   <g id="patch_19">
    <path clip-path="url(#p5c1c53e2e5)" d="M 94.732647 307.584 
L 95.083627 307.584 
L 95.083627 296.32 
L 94.732647 296.32 
z
" style="fill:#f48024;opacity:0.4;"/>
   </g>
   <g id="patch_20">
    <path clip-path="url(#p5c1c53e2e5)" d="M 95.083627 307.584 
L 95.434608 307.584 
L 95.434608 296.753231 
L 95.083627 296.753231 
z
" style="fill:#f48024;opacity:0.4;"/>
   </g>
   <g id="patch_21">
    <path clip-path="url(#p5c1c53e2e5)" d="M 95.434608 307.584 
L 95.785588 307.584 
L 95.785588 298.919385 
L 95.434608 298.919385 
z
" style="fill:#f48024;opacity:0.4;"/>
   </g>
   <g id="patch_22">
    <path clip-path="url(#p5c1c53e2e5)" d="M 95.785588 307.584 
L 96.136569 307.584 
L 96.136569 296.753231 
L 95.785588 296.753231 
z
" style="fill:#f48024;opacity:0.4;"/>
   </g>
   <g id="patch_23">
    <path clip-path="url(#p5c1c53e2e5)" d="M 96.136569 307.584 
L 96.487549 307.584 
L 96.487549 296.753231 
L 96.136569 296.753231 
z
" style="fill:#f48024;opacity:0.4;"/>
   </g>
   <g id="patch_24">
    <path clip-path="url(#p5c1c53e2e5)" d="M 96.487549 307.584 
L 96.83853 307.584 
L 96.83853 299.352615 
L 96.487549 299.352615 
z
" style="fill:#f48024;opacity:0.4;"/>
   </g>
   <g id="patch_25">
    <path clip-path="url(#p5c1c53e2e5)" d="M 96.83853 307.584 
L 97.18951 307.584 
L 97.18951 298.052923 
L 96.83853 298.052923 
z
" style="fill:#f48024;opacity:0.4;"/>
   </g>
   <g id="patch_26">
    <path clip-path="url(#p5c1c53e2e5)" d="M 97.18951 307.584 
L 97.540491 307.584 
L 97.540491 298.919385 
L 97.18951 298.919385 
z
" style="fill:#f48024;opacity:0.4;"/>
   </g>
   <g id="patch_27">
    <path clip-path="url(#p5c1c53e2e5)" d="M 97.540491 307.584 
L 97.891471 307.584 
L 97.891471 304.551385 
L 97.540491 304.551385 
z
" style="fill:#f48024;opacity:0.4;"/>
   </g>
   <g id="patch_28">
    <path clip-path="url(#p5c1c53e2e5)" d="M 97.891471 307.584 
L 98.242452 307.584 
L 98.242452 301.952 
L 97.891471 301.952 
z
" style="fill:#f48024;opacity:0.4;"/>
   </g>
   <g id="patch_29">
    <path clip-path="url(#p5c1c53e2e5)" d="M 98.242452 307.584 
L 98.593432 307.584 
L 98.593432 302.818462 
L 98.242452 302.818462 
z
" style="fill:#f48024;opacity:0.4;"/>
   </g>
   <g id="patch_30">
    <path clip-path="url(#p5c1c53e2e5)" d="M 98.593432 307.584 
L 98.944413 307.584 
L 98.944413 299.785846 
L 98.593432 299.785846 
z
" style="fill:#f48024;opacity:0.4;"/>
   </g>
   <g id="patch_31">
    <path clip-path="url(#p5c1c53e2e5)" d="M 98.944413 307.584 
L 99.295393 307.584 
L 99.295393 302.385231 
L 98.944413 302.385231 
z
" style="fill:#f48024;opacity:0.4;"/>
   </g>
   <g id="patch_32">
    <path clip-path="url(#p5c1c53e2e5)" d="M 99.295393 307.584 
L 99.646374 307.584 
L 99.646374 304.551385 
L 99.295393 304.551385 
z
" style="fill:#f48024;opacity:0.4;"/>
   </g>
   <g id="patch_33">
    <path clip-path="url(#p5c1c53e2e5)" d="M 99.646374 307.584 
L 99.997354 307.584 
L 99.997354 303.684923 
L 99.646374 303.684923 
z
" style="fill:#f48024;opacity:0.4;"/>
   </g>
   <g id="patch_34">
    <path clip-path="url(#p5c1c53e2e5)" d="M 99.997354 307.584 
L 100.348335 307.584 
L 100.348335 303.684923 
L 99.997354 303.684923 
z
" style="fill:#f48024;opacity:0.4;"/>
   </g>
   <g id="patch_35">
    <path clip-path="url(#p5c1c53e2e5)" d="M 100.348335 307.584 
L 100.699315 307.584 
L 100.699315 301.085538 
L 100.348335 301.085538 
z
" style="fill:#f48024;opacity:0.4;"/>
   </g>
   <g id="patch_36">
    <path clip-path="url(#p5c1c53e2e5)" d="M 100.699315 307.584 
L 101.050296 307.584 
L 101.050296 303.251692 
L 100.699315 303.251692 
z
" style="fill:#f48024;opacity:0.4;"/>
   </g>
   <g id="patch_37">
    <path clip-path="url(#p5c1c53e2e5)" d="M 101.050296 307.584 
L 101.401276 307.584 
L 101.401276 304.984615 
L 101.050296 304.984615 
z
" style="fill:#f48024;opacity:0.4;"/>
   </g>
   <g id="patch_38">
    <path clip-path="url(#p5c1c53e2e5)" d="M 101.401276 307.584 
L 101.752257 307.584 
L 101.752257 303.684923 
L 101.401276 303.684923 
z
" style="fill:#f48024;opacity:0.4;"/>
   </g>
   <g id="patch_39">
    <path clip-path="url(#p5c1c53e2e5)" d="M 101.752257 307.584 
L 102.103237 307.584 
L 102.103237 304.118154 
L 101.752257 304.118154 
z
" style="fill:#f48024;opacity:0.4;"/>
   </g>
   <g id="patch_40">
    <path clip-path="url(#p5c1c53e2e5)" d="M 102.103237 307.584 
L 102.454218 307.584 
L 102.454218 302.385231 
L 102.103237 302.385231 
z
" style="fill:#f48024;opacity:0.4;"/>
   </g>
   <g id="patch_41">
    <path clip-path="url(#p5c1c53e2e5)" d="M 102.454218 307.584 
L 102.805198 307.584 
L 102.805198 301.518769 
L 102.454218 301.518769 
z
" style="fill:#f48024;opacity:0.4;"/>
   </g>
   <g id="patch_42">
    <path clip-path="url(#p5c1c53e2e5)" d="M 102.805198 307.584 
L 103.156179 307.584 
L 103.156179 304.551385 
L 102.805198 304.551385 
z
" style="fill:#f48024;opacity:0.4;"/>
   </g>
   <g id="patch_43">
    <path clip-path="url(#p5c1c53e2e5)" d="M 103.156179 307.584 
L 103.507159 307.584 
L 103.507159 303.684923 
L 103.156179 303.684923 
z
" style="fill:#f48024;opacity:0.4;"/>
   </g>
   <g id="patch_44">
    <path clip-path="url(#p5c1c53e2e5)" d="M 103.507159 307.584 
L 103.85814 307.584 
L 103.85814 301.952 
L 103.507159 301.952 
z
" style="fill:#f48024;opacity:0.4;"/>
   </g>
   <g id="patch_45">
    <path clip-path="url(#p5c1c53e2e5)" d="M 103.85814 307.584 
L 104.20912 307.584 
L 104.20912 301.085538 
L 103.85814 301.085538 
z
" style="fill:#f48024;opacity:0.4;"/>
   </g>
   <g id="patch_46">
    <path clip-path="url(#p5c1c53e2e5)" d="M 104.20912 307.584 
L 104.560101 307.584 
L 104.560101 302.818462 
L 104.20912 302.818462 
z
" style="fill:#f48024;opacity:0.4;"/>
   </g>
   <g id="patch_47">
    <path clip-path="url(#p5c1c53e2e5)" d="M 104.560101 307.584 
L 104.911081 307.584 
L 104.911081 302.385231 
L 104.560101 302.385231 
z
" style="fill:#f48024;opacity:0.4;"/>
   </g>
   <g id="patch_48">
    <path clip-path="url(#p5c1c53e2e5)" d="M 104.911081 307.584 
L 105.262062 307.584 
L 105.262062 305.417846 
L 104.911081 305.417846 
z
" style="fill:#f48024;opacity:0.4;"/>
   </g>
   <g id="patch_49">
    <path clip-path="url(#p5c1c53e2e5)" d="M 105.262062 307.584 
L 105.613042 307.584 
L 105.613042 302.385231 
L 105.262062 302.385231 
z
" style="fill:#f48024;opacity:0.4;"/>
   </g>
   <g id="patch_50">
    <path clip-path="url(#p5c1c53e2e5)" d="M 105.613042 307.584 
L 105.964023 307.584 
L 105.964023 304.984615 
L 105.613042 304.984615 
z
" style="fill:#f48024;opacity:0.4;"/>
   </g>
   <g id="patch_51">
    <path clip-path="url(#p5c1c53e2e5)" d="M 105.964023 307.584 
L 106.315003 307.584 
L 106.315003 303.684923 
L 105.964023 303.684923 
z
" style="fill:#f48024;opacity:0.4;"/>
   </g>
   <g id="patch_52">
    <path clip-path="url(#p5c1c53e2e5)" d="M 106.315003 307.584 
L 106.665984 307.584 
L 106.665984 304.984615 
L 106.315003 304.984615 
z
" style="fill:#f48024;opacity:0.4;"/>
   </g>
   <g id="patch_53">
    <path clip-path="url(#p5c1c53e2e5)" d="M 106.665984 307.584 
L 107.016964 307.584 
L 107.016964 305.417846 
L 106.665984 305.417846 
z
" style="fill:#f48024;opacity:0.4;"/>
   </g>
   <g id="patch_54">
    <path clip-path="url(#p5c1c53e2e5)" d="M 107.016964 307.584 
L 107.367945 307.584 
L 107.367945 304.551385 
L 107.016964 304.551385 
z
" style="fill:#f48024;opacity:0.4;"/>
   </g>
   <g id="patch_55">
    <path clip-path="url(#p5c1c53e2e5)" d="M 107.367945 307.584 
L 107.718925 307.584 
L 107.718925 305.417846 
L 107.367945 305.417846 
z
" style="fill:#f48024;opacity:0.4;"/>
   </g>
   <g id="patch_56">
    <path clip-path="url(#p5c1c53e2e5)" d="M 107.718925 307.584 
L 108.069906 307.584 
L 108.069906 305.851077 
L 107.718925 305.851077 
z
" style="fill:#f48024;opacity:0.4;"/>
   </g>
   <g id="patch_57">
    <path clip-path="url(#p5c1c53e2e5)" d="M 108.069906 307.584 
L 108.420886 307.584 
L 108.420886 305.851077 
L 108.069906 305.851077 
z
" style="fill:#f48024;opacity:0.4;"/>
   </g>
   <g id="patch_58">
    <path clip-path="url(#p5c1c53e2e5)" d="M 108.420886 307.584 
L 108.771867 307.584 
L 108.771867 303.684923 
L 108.420886 303.684923 
z
" style="fill:#f48024;opacity:0.4;"/>
   </g>
   <g id="patch_59">
    <path clip-path="url(#p5c1c53e2e5)" d="M 108.771867 307.584 
L 109.122847 307.584 
L 109.122847 304.551385 
L 108.771867 304.551385 
z
" style="fill:#f48024;opacity:0.4;"/>
   </g>
   <g id="patch_60">
    <path clip-path="url(#p5c1c53e2e5)" d="M 109.122847 307.584 
L 109.473828 307.584 
L 109.473828 304.984615 
L 109.122847 304.984615 
z
" style="fill:#f48024;opacity:0.4;"/>
   </g>
   <g id="patch_61">
    <path clip-path="url(#p5c1c53e2e5)" d="M 109.473828 307.584 
L 109.824808 307.584 
L 109.824808 304.118154 
L 109.473828 304.118154 
z
" style="fill:#f48024;opacity:0.4;"/>
   </g>
   <g id="patch_62">
    <path clip-path="url(#p5c1c53e2e5)" d="M 109.824808 307.584 
L 110.175789 307.584 
L 110.175789 304.984615 
L 109.824808 304.984615 
z
" style="fill:#f48024;opacity:0.4;"/>
   </g>
   <g id="patch_63">
    <path clip-path="url(#p5c1c53e2e5)" d="M 110.175789 307.584 
L 110.526769 307.584 
L 110.526769 304.118154 
L 110.175789 304.118154 
z
" style="fill:#f48024;opacity:0.4;"/>
   </g>
   <g id="patch_64">
    <path clip-path="url(#p5c1c53e2e5)" d="M 110.526769 307.584 
L 110.87775 307.584 
L 110.87775 304.551385 
L 110.526769 304.551385 
z
" style="fill:#f48024;opacity:0.4;"/>
   </g>
   <g id="patch_65">
    <path clip-path="url(#p5c1c53e2e5)" d="M 110.87775 307.584 
L 111.22873 307.584 
L 111.22873 306.717538 
L 110.87775 306.717538 
z
" style="fill:#f48024;opacity:0.4;"/>
   </g>
   <g id="patch_66">
    <path clip-path="url(#p5c1c53e2e5)" d="M 111.22873 307.584 
L 111.579711 307.584 
L 111.579711 306.284308 
L 111.22873 306.284308 
z
" style="fill:#f48024;opacity:0.4;"/>
   </g>
   <g id="patch_67">
    <path clip-path="url(#p5c1c53e2e5)" d="M 111.579711 307.584 
L 111.930691 307.584 
L 111.930691 306.284308 
L 111.579711 306.284308 
z
" style="fill:#f48024;opacity:0.4;"/>
   </g>
   <g id="patch_68">
    <path clip-path="url(#p5c1c53e2e5)" d="M 111.930691 307.584 
L 112.281672 307.584 
L 112.281672 304.551385 
L 111.930691 304.551385 
z
" style="fill:#f48024;opacity:0.4;"/>
   </g>
   <g id="patch_69">
    <path clip-path="url(#p5c1c53e2e5)" d="M 112.281672 307.584 
L 112.632653 307.584 
L 112.632653 307.150769 
L 112.281672 307.150769 
z
" style="fill:#f48024;opacity:0.4;"/>
   </g>
   <g id="patch_70">
    <path clip-path="url(#p5c1c53e2e5)" d="M 112.632653 307.584 
L 112.983633 307.584 
L 112.983633 305.851077 
L 112.632653 305.851077 
z
" style="fill:#f48024;opacity:0.4;"/>
   </g>
   <g id="patch_71">
    <path clip-path="url(#p5c1c53e2e5)" d="M 112.983633 307.584 
L 113.334614 307.584 
L 113.334614 305.851077 
L 112.983633 305.851077 
z
" style="fill:#f48024;opacity:0.4;"/>
   </g>
   <g id="patch_72">
    <path clip-path="url(#p5c1c53e2e5)" d="M 113.334614 307.584 
L 113.685594 307.584 
L 113.685594 306.717538 
L 113.334614 306.717538 
z
" style="fill:#f48024;opacity:0.4;"/>
   </g>
   <g id="patch_73">
    <path clip-path="url(#p5c1c53e2e5)" d="M 113.685594 307.584 
L 114.036575 307.584 
L 114.036575 306.717538 
L 113.685594 306.717538 
z
" style="fill:#f48024;opacity:0.4;"/>
   </g>
   <g id="patch_74">
    <path clip-path="url(#p5c1c53e2e5)" d="M 114.036575 307.584 
L 114.387555 307.584 
L 114.387555 306.717538 
L 114.036575 306.717538 
z
" style="fill:#f48024;opacity:0.4;"/>
   </g>
   <g id="patch_75">
    <path clip-path="url(#p5c1c53e2e5)" d="M 114.387555 307.584 
L 114.738536 307.584 
L 114.738536 305.417846 
L 114.387555 305.417846 
z
" style="fill:#f48024;opacity:0.4;"/>
   </g>
   <g id="patch_76">
    <path clip-path="url(#p5c1c53e2e5)" d="M 114.738536 307.584 
L 115.089516 307.584 
L 115.089516 307.150769 
L 114.738536 307.150769 
z
" style="fill:#f48024;opacity:0.4;"/>
   </g>
   <g id="patch_77">
    <path clip-path="url(#p5c1c53e2e5)" d="M 115.089516 307.584 
L 115.440497 307.584 
L 115.440497 306.284308 
L 115.089516 306.284308 
z
" style="fill:#f48024;opacity:0.4;"/>
   </g>
   <g id="patch_78">
    <path clip-path="url(#p5c1c53e2e5)" d="M 115.440497 307.584 
L 115.791477 307.584 
L 115.791477 307.150769 
L 115.440497 307.150769 
z
" style="fill:#f48024;opacity:0.4;"/>
   </g>
   <g id="patch_79">
    <path clip-path="url(#p5c1c53e2e5)" d="M 115.791477 307.584 
L 116.142458 307.584 
L 116.142458 306.284308 
L 115.791477 306.284308 
z
" style="fill:#f48024;opacity:0.4;"/>
   </g>
   <g id="patch_80">
    <path clip-path="url(#p5c1c53e2e5)" d="M 116.142458 307.584 
L 116.493438 307.584 
L 116.493438 307.150769 
L 116.142458 307.150769 
z
" style="fill:#f48024;opacity:0.4;"/>
   </g>
   <g id="patch_81">
    <path clip-path="url(#p5c1c53e2e5)" d="M 116.493438 307.584 
L 116.844419 307.584 
L 116.844419 306.717538 
L 116.493438 306.717538 
z
" style="fill:#f48024;opacity:0.4;"/>
   </g>
   <g id="patch_82">
    <path clip-path="url(#p5c1c53e2e5)" d="M 116.844419 307.584 
L 117.195399 307.584 
L 117.195399 306.284308 
L 116.844419 306.284308 
z
" style="fill:#f48024;opacity:0.4;"/>
   </g>
   <g id="patch_83">
    <path clip-path="url(#p5c1c53e2e5)" d="M 117.195399 307.584 
L 117.54638 307.584 
L 117.54638 306.717538 
L 117.195399 306.717538 
z
" style="fill:#f48024;opacity:0.4;"/>
   </g>
   <g id="patch_84">
    <path clip-path="url(#p5c1c53e2e5)" d="M 117.54638 307.584 
L 117.89736 307.584 
L 117.89736 306.717538 
L 117.54638 306.717538 
z
" style="fill:#f48024;opacity:0.4;"/>
   </g>
   <g id="patch_85">
    <path clip-path="url(#p5c1c53e2e5)" d="M 117.89736 307.584 
L 118.248341 307.584 
L 118.248341 306.717538 
L 117.89736 306.717538 
z
" style="fill:#f48024;opacity:0.4;"/>
   </g>
   <g id="patch_86">
    <path clip-path="url(#p5c1c53e2e5)" d="M 118.248341 307.584 
L 118.599321 307.584 
L 118.599321 307.150769 
L 118.248341 307.150769 
z
" style="fill:#f48024;opacity:0.4;"/>
   </g>
   <g id="patch_87">
    <path clip-path="url(#p5c1c53e2e5)" d="M 118.599321 307.584 
L 118.950302 307.584 
L 118.950302 307.150769 
L 118.599321 307.150769 
z
" style="fill:#f48024;opacity:0.4;"/>
   </g>
   <g id="patch_88">
    <path clip-path="url(#p5c1c53e2e5)" d="M 118.950302 307.584 
L 119.301282 307.584 
L 119.301282 306.717538 
L 118.950302 306.717538 
z
" style="fill:#f48024;opacity:0.4;"/>
   </g>
   <g id="patch_89">
    <path clip-path="url(#p5c1c53e2e5)" d="M 119.301282 307.584 
L 119.652263 307.584 
L 119.652263 307.150769 
L 119.301282 307.150769 
z
" style="fill:#f48024;opacity:0.4;"/>
   </g>
   <g id="patch_90">
    <path clip-path="url(#p5c1c53e2e5)" d="M 119.652263 307.584 
L 120.003243 307.584 
L 120.003243 307.584 
L 119.652263 307.584 
z
" style="fill:#f48024;opacity:0.4;"/>
   </g>
   <g id="patch_91">
    <path clip-path="url(#p5c1c53e2e5)" d="M 120.003243 307.584 
L 120.354224 307.584 
L 120.354224 307.584 
L 120.003243 307.584 
z
" style="fill:#f48024;opacity:0.4;"/>
   </g>
   <g id="patch_92">
    <path clip-path="url(#p5c1c53e2e5)" d="M 120.354224 307.584 
L 120.705204 307.584 
L 120.705204 306.717538 
L 120.354224 306.717538 
z
" style="fill:#f48024;opacity:0.4;"/>
   </g>
   <g id="patch_93">
    <path clip-path="url(#p5c1c53e2e5)" d="M 120.705204 307.584 
L 121.056185 307.584 
L 121.056185 307.584 
L 120.705204 307.584 
z
" style="fill:#f48024;opacity:0.4;"/>
   </g>
   <g id="patch_94">
    <path clip-path="url(#p5c1c53e2e5)" d="M 121.056185 307.584 
L 121.407165 307.584 
L 121.407165 307.150769 
L 121.056185 307.150769 
z
" style="fill:#f48024;opacity:0.4;"/>
   </g>
   <g id="patch_95">
    <path clip-path="url(#p5c1c53e2e5)" d="M 121.407165 307.584 
L 121.758146 307.584 
L 121.758146 307.584 
L 121.407165 307.584 
z
" style="fill:#f48024;opacity:0.4;"/>
   </g>
   <g id="patch_96">
    <path clip-path="url(#p5c1c53e2e5)" d="M 121.758146 307.584 
L 122.109126 307.584 
L 122.109126 307.584 
L 121.758146 307.584 
z
" style="fill:#f48024;opacity:0.4;"/>
   </g>
   <g id="patch_97">
    <path clip-path="url(#p5c1c53e2e5)" d="M 122.109126 307.584 
L 122.460107 307.584 
L 122.460107 307.150769 
L 122.109126 307.150769 
z
" style="fill:#f48024;opacity:0.4;"/>
   </g>
   <g id="patch_98">
    <path clip-path="url(#p5c1c53e2e5)" d="M 122.460107 307.584 
L 122.811087 307.584 
L 122.811087 307.150769 
L 122.460107 307.150769 
z
" style="fill:#f48024;opacity:0.4;"/>
   </g>
   <g id="patch_99">
    <path clip-path="url(#p5c1c53e2e5)" d="M 122.811087 307.584 
L 123.162068 307.584 
L 123.162068 306.717538 
L 122.811087 306.717538 
z
" style="fill:#f48024;opacity:0.4;"/>
   </g>
   <g id="patch_100">
    <path clip-path="url(#p5c1c53e2e5)" d="M 123.162068 307.584 
L 123.513048 307.584 
L 123.513048 307.150769 
L 123.162068 307.150769 
z
" style="fill:#f48024;opacity:0.4;"/>
   </g>
   <g id="patch_101">
    <path clip-path="url(#p5c1c53e2e5)" d="M 123.513048 307.584 
L 123.864029 307.584 
L 123.864029 307.584 
L 123.513048 307.584 
z
" style="fill:#f48024;opacity:0.4;"/>
   </g>
   <g id="patch_102">
    <path clip-path="url(#p5c1c53e2e5)" d="M 123.864029 307.584 
L 124.215009 307.584 
L 124.215009 306.717538 
L 123.864029 306.717538 
z
" style="fill:#f48024;opacity:0.4;"/>
   </g>
   <g id="patch_103">
    <path clip-path="url(#p5c1c53e2e5)" d="M 88.893714 307.584 
L 91.83904 307.584 
L 91.83904 299.530335 
L 88.893714 299.530335 
z
" style="fill:#008000;opacity:0.4;"/>
   </g>
   <g id="patch_104">
    <path clip-path="url(#p5c1c53e2e5)" d="M 91.83904 307.584 
L 94.784366 307.584 
L 94.784366 281.770971 
L 91.83904 281.770971 
z
" style="fill:#008000;opacity:0.4;"/>
   </g>
   <g id="patch_105">
    <path clip-path="url(#p5c1c53e2e5)" d="M 94.784366 307.584 
L 97.729692 307.584 
L 97.729692 274.078689 
L 94.784366 274.078689 
z
" style="fill:#008000;opacity:0.4;"/>
   </g>
   <g id="patch_106">
    <path clip-path="url(#p5c1c53e2e5)" d="M 97.729692 307.584 
L 100.675017 307.584 
L 100.675017 279.757555 
L 97.729692 279.757555 
z
" style="fill:#008000;opacity:0.4;"/>
   </g>
   <g id="patch_107">
    <path clip-path="url(#p5c1c53e2e5)" d="M 100.675017 307.584 
L 103.620343 307.584 
L 103.620343 287.862846 
L 100.675017 287.862846 
z
" style="fill:#008000;opacity:0.4;"/>
   </g>
   <g id="patch_108">
    <path clip-path="url(#p5c1c53e2e5)" d="M 103.620343 307.584 
L 106.565669 307.584 
L 106.565669 293.077078 
L 103.620343 293.077078 
z
" style="fill:#008000;opacity:0.4;"/>
   </g>
   <g id="patch_109">
    <path clip-path="url(#p5c1c53e2e5)" d="M 106.565669 307.584 
L 109.510994 307.584 
L 109.510994 298.859196 
L 106.565669 298.859196 
z
" style="fill:#008000;opacity:0.4;"/>
   </g>
   <g id="patch_110">
    <path clip-path="url(#p5c1c53e2e5)" d="M 109.510994 307.584 
L 112.45632 307.584 
L 112.45632 300.872613 
L 109.510994 300.872613 
z
" style="fill:#008000;opacity:0.4;"/>
   </g>
   <g id="patch_111">
    <path clip-path="url(#p5c1c53e2e5)" d="M 112.45632 307.584 
L 115.401646 307.584 
L 115.401646 302.421394 
L 112.45632 302.421394 
z
" style="fill:#008000;opacity:0.4;"/>
   </g>
   <g id="patch_112">
    <path clip-path="url(#p5c1c53e2e5)" d="M 115.401646 307.584 
L 118.346972 307.584 
L 118.346972 304.073428 
L 115.401646 304.073428 
z
" style="fill:#008000;opacity:0.4;"/>
   </g>
   <g id="patch_113">
    <path clip-path="url(#p5c1c53e2e5)" d="M 118.346972 307.584 
L 121.292297 307.584 
L 121.292297 304.692941 
L 118.346972 304.692941 
z
" style="fill:#008000;opacity:0.4;"/>
   </g>
   <g id="patch_114">
    <path clip-path="url(#p5c1c53e2e5)" d="M 121.292297 307.584 
L 124.237623 307.584 
L 124.237623 305.570584 
L 121.292297 305.570584 
z
" style="fill:#008000;opacity:0.4;"/>
   </g>
   <g id="patch_115">
    <path clip-path="url(#p5c1c53e2e5)" d="M 124.237623 307.584 
L 127.182949 307.584 
L 127.182949 305.931966 
L 124.237623 305.931966 
z
" style="fill:#008000;opacity:0.4;"/>
   </g>
   <g id="patch_116">
    <path clip-path="url(#p5c1c53e2e5)" d="M 127.182949 307.584 
L 130.128274 307.584 
L 130.128274 305.88034 
L 127.182949 305.88034 
z
" style="fill:#008000;opacity:0.4;"/>
   </g>
   <g id="patch_117">
    <path clip-path="url(#p5c1c53e2e5)" d="M 130.128274 307.584 
L 133.0736 307.584 
L 133.0736 306.190096 
L 130.128274 306.190096 
z
" style="fill:#008000;opacity:0.4;"/>
   </g>
   <g id="patch_118">
    <path clip-path="url(#p5c1c53e2e5)" d="M 133.0736 307.584 
L 136.018926 307.584 
L 136.018926 306.396601 
L 133.0736 306.396601 
z
" style="fill:#008000;opacity:0.4;"/>
   </g>
   <g id="patch_119">
    <path clip-path="url(#p5c1c53e2e5)" d="M 136.018926 307.584 
L 138.964252 307.584 
L 138.964252 306.654731 
L 136.018926 306.654731 
z
" style="fill:#008000;opacity:0.4;"/>
   </g>
   <g id="patch_120">
    <path clip-path="url(#p5c1c53e2e5)" d="M 138.964252 307.584 
L 141.909577 307.584 
L 141.909577 306.603105 
L 138.964252 306.603105 
z
" style="fill:#008000;opacity:0.4;"/>
   </g>
   <g id="patch_121">
    <path clip-path="url(#p5c1c53e2e5)" d="M 141.909577 307.584 
L 144.854903 307.584 
L 144.854903 306.757983 
L 141.909577 306.757983 
z
" style="fill:#008000;opacity:0.4;"/>
   </g>
   <g id="patch_122">
    <path clip-path="url(#p5c1c53e2e5)" d="M 144.854903 307.584 
L 147.800229 307.584 
L 147.800229 306.551479 
L 144.854903 306.551479 
z
" style="fill:#008000;opacity:0.4;"/>
   </g>
   <g id="patch_123">
    <path clip-path="url(#p5c1c53e2e5)" d="M 147.800229 307.584 
L 150.745554 307.584 
L 150.745554 306.654731 
L 147.800229 306.654731 
z
" style="fill:#008000;opacity:0.4;"/>
   </g>
   <g id="patch_124">
    <path clip-path="url(#p5c1c53e2e5)" d="M 150.745554 307.584 
L 153.69088 307.584 
L 153.69088 306.757983 
L 150.745554 306.757983 
z
" style="fill:#008000;opacity:0.4;"/>
   </g>
   <g id="patch_125">
    <path clip-path="url(#p5c1c53e2e5)" d="M 153.69088 307.584 
L 156.636206 307.584 
L 156.636206 306.912861 
L 153.69088 306.912861 
z
" style="fill:#008000;opacity:0.4;"/>
   </g>
   <g id="patch_126">
    <path clip-path="url(#p5c1c53e2e5)" d="M 156.636206 307.584 
L 159.581532 307.584 
L 159.581532 306.551479 
L 156.636206 306.551479 
z
" style="fill:#008000;opacity:0.4;"/>
   </g>
   <g id="patch_127">
    <path clip-path="url(#p5c1c53e2e5)" d="M 159.581532 307.584 
L 162.526857 307.584 
L 162.526857 306.861235 
L 159.581532 306.861235 
z
" style="fill:#008000;opacity:0.4;"/>
   </g>
   <g id="patch_128">
    <path clip-path="url(#p5c1c53e2e5)" d="M 162.526857 307.584 
L 165.472183 307.584 
L 165.472183 307.067739 
L 162.526857 307.067739 
z
" style="fill:#008000;opacity:0.4;"/>
   </g>
   <g id="patch_129">
    <path clip-path="url(#p5c1c53e2e5)" d="M 165.472183 307.584 
L 168.417509 307.584 
L 168.417509 306.654731 
L 165.472183 306.654731 
z
" style="fill:#008000;opacity:0.4;"/>
   </g>
   <g id="patch_130">
    <path clip-path="url(#p5c1c53e2e5)" d="M 168.417509 307.584 
L 171.362834 307.584 
L 171.362834 306.809609 
L 168.417509 306.809609 
z
" style="fill:#008000;opacity:0.4;"/>
   </g>
   <g id="patch_131">
    <path clip-path="url(#p5c1c53e2e5)" d="M 171.362834 307.584 
L 174.30816 307.584 
L 174.30816 307.222618 
L 171.362834 307.222618 
z
" style="fill:#008000;opacity:0.4;"/>
   </g>
   <g id="patch_132">
    <path clip-path="url(#p5c1c53e2e5)" d="M 174.30816 307.584 
L 177.253486 307.584 
L 177.253486 307.170992 
L 174.30816 307.170992 
z
" style="fill:#008000;opacity:0.4;"/>
   </g>
   <g id="patch_133">
    <path clip-path="url(#p5c1c53e2e5)" d="M 177.253486 307.584 
L 180.198811 307.584 
L 180.198811 307.016113 
L 177.253486 307.016113 
z
" style="fill:#008000;opacity:0.4;"/>
   </g>
   <g id="patch_134">
    <path clip-path="url(#p5c1c53e2e5)" d="M 180.198811 307.584 
L 183.144137 307.584 
L 183.144137 306.964487 
L 180.198811 306.964487 
z
" style="fill:#008000;opacity:0.4;"/>
   </g>
   <g id="patch_135">
    <path clip-path="url(#p5c1c53e2e5)" d="M 183.144137 307.584 
L 186.089463 307.584 
L 186.089463 307.274244 
L 183.144137 307.274244 
z
" style="fill:#008000;opacity:0.4;"/>
   </g>
   <g id="patch_136">
    <path clip-path="url(#p5c1c53e2e5)" d="M 186.089463 307.584 
L 189.034789 307.584 
L 189.034789 307.016113 
L 186.089463 307.016113 
z
" style="fill:#008000;opacity:0.4;"/>
   </g>
   <g id="patch_137">
    <path clip-path="url(#p5c1c53e2e5)" d="M 189.034789 307.584 
L 191.980114 307.584 
L 191.980114 307.480748 
L 189.034789 307.480748 
z
" style="fill:#008000;opacity:0.4;"/>
   </g>
   <g id="patch_138">
    <path clip-path="url(#p5c1c53e2e5)" d="M 191.980114 307.584 
L 194.92544 307.584 
L 194.92544 307.377496 
L 191.980114 307.377496 
z
" style="fill:#008000;opacity:0.4;"/>
   </g>
   <g id="patch_139">
    <path clip-path="url(#p5c1c53e2e5)" d="M 194.92544 307.584 
L 197.870766 307.584 
L 197.870766 307.377496 
L 194.92544 307.377496 
z
" style="fill:#008000;opacity:0.4;"/>
   </g>
   <g id="patch_140">
    <path clip-path="url(#p5c1c53e2e5)" d="M 197.870766 307.584 
L 200.816091 307.584 
L 200.816091 307.016113 
L 197.870766 307.016113 
z
" style="fill:#008000;opacity:0.4;"/>
   </g>
   <g id="patch_141">
    <path clip-path="url(#p5c1c53e2e5)" d="M 200.816091 307.584 
L 203.761417 307.584 
L 203.761417 307.480748 
L 200.816091 307.480748 
z
" style="fill:#008000;opacity:0.4;"/>
   </g>
   <g id="patch_142">
    <path clip-path="url(#p5c1c53e2e5)" d="M 203.761417 307.584 
L 206.706743 307.584 
L 206.706743 307.222618 
L 203.761417 307.222618 
z
" style="fill:#008000;opacity:0.4;"/>
   </g>
   <g id="patch_143">
    <path clip-path="url(#p5c1c53e2e5)" d="M 206.706743 307.584 
L 209.652069 307.584 
L 209.652069 307.377496 
L 206.706743 307.377496 
z
" style="fill:#008000;opacity:0.4;"/>
   </g>
   <g id="patch_144">
    <path clip-path="url(#p5c1c53e2e5)" d="M 209.652069 307.584 
L 212.597394 307.584 
L 212.597394 307.584 
L 209.652069 307.584 
z
" style="fill:#008000;opacity:0.4;"/>
   </g>
   <g id="patch_145">
    <path clip-path="url(#p5c1c53e2e5)" d="M 212.597394 307.584 
L 215.54272 307.584 
L 215.54272 307.32587 
L 212.597394 307.32587 
z
" style="fill:#008000;opacity:0.4;"/>
   </g>
   <g id="patch_146">
    <path clip-path="url(#p5c1c53e2e5)" d="M 215.54272 307.584 
L 218.488046 307.584 
L 218.488046 307.429122 
L 215.54272 307.429122 
z
" style="fill:#008000;opacity:0.4;"/>
   </g>
   <g id="patch_147">
    <path clip-path="url(#p5c1c53e2e5)" d="M 218.488046 307.584 
L 221.433371 307.584 
L 221.433371 307.32587 
L 218.488046 307.32587 
z
" style="fill:#008000;opacity:0.4;"/>
   </g>
   <g id="patch_148">
    <path clip-path="url(#p5c1c53e2e5)" d="M 221.433371 307.584 
L 224.378697 307.584 
L 224.378697 307.532374 
L 221.433371 307.532374 
z
" style="fill:#008000;opacity:0.4;"/>
   </g>
   <g id="patch_149">
    <path clip-path="url(#p5c1c53e2e5)" d="M 224.378697 307.584 
L 227.324023 307.584 
L 227.324023 307.532374 
L 224.378697 307.532374 
z
" style="fill:#008000;opacity:0.4;"/>
   </g>
   <g id="patch_150">
    <path clip-path="url(#p5c1c53e2e5)" d="M 227.324023 307.584 
L 230.269349 307.584 
L 230.269349 307.480748 
L 227.324023 307.480748 
z
" style="fill:#008000;opacity:0.4;"/>
   </g>
   <g id="patch_151">
    <path clip-path="url(#p5c1c53e2e5)" d="M 230.269349 307.584 
L 233.214674 307.584 
L 233.214674 307.480748 
L 230.269349 307.480748 
z
" style="fill:#008000;opacity:0.4;"/>
   </g>
   <g id="patch_152">
    <path clip-path="url(#p5c1c53e2e5)" d="M 233.214674 307.584 
L 236.16 307.584 
L 236.16 307.480748 
L 233.214674 307.480748 
z
" style="fill:#008000;opacity:0.4;"/>
   </g>
   <g id="patch_153">
    <path clip-path="url(#p5c1c53e2e5)" d="M 236.16 307.584 
L 239.105326 307.584 
L 239.105326 307.584 
L 236.16 307.584 
z
" style="fill:#008000;opacity:0.4;"/>
   </g>
   <g id="patch_154">
    <path clip-path="url(#p5c1c53e2e5)" d="M 239.105326 307.584 
L 242.050651 307.584 
L 242.050651 307.532374 
L 239.105326 307.532374 
z
" style="fill:#008000;opacity:0.4;"/>
   </g>
   <g id="patch_155">
    <path clip-path="url(#p5c1c53e2e5)" d="M 242.050651 307.584 
L 244.995977 307.584 
L 244.995977 307.532374 
L 242.050651 307.532374 
z
" style="fill:#008000;opacity:0.4;"/>
   </g>
   <g id="patch_156">
    <path clip-path="url(#p5c1c53e2e5)" d="M 244.995977 307.584 
L 247.941303 307.584 
L 247.941303 307.532374 
L 244.995977 307.532374 
z
" style="fill:#008000;opacity:0.4;"/>
   </g>
   <g id="patch_157">
    <path clip-path="url(#p5c1c53e2e5)" d="M 247.941303 307.584 
L 250.886629 307.584 
L 250.886629 307.532374 
L 247.941303 307.532374 
z
" style="fill:#008000;opacity:0.4;"/>
   </g>
   <g id="patch_158">
    <path clip-path="url(#p5c1c53e2e5)" d="M 250.886629 307.584 
L 253.831954 307.584 
L 253.831954 307.532374 
L 250.886629 307.532374 
z
" style="fill:#008000;opacity:0.4;"/>
   </g>
   <g id="patch_159">
    <path clip-path="url(#p5c1c53e2e5)" d="M 253.831954 307.584 
L 256.77728 307.584 
L 256.77728 307.532374 
L 253.831954 307.532374 
z
" style="fill:#008000;opacity:0.4;"/>
   </g>
   <g id="patch_160">
    <path clip-path="url(#p5c1c53e2e5)" d="M 256.77728 307.584 
L 259.722606 307.584 
L 259.722606 307.480748 
L 256.77728 307.480748 
z
" style="fill:#008000;opacity:0.4;"/>
   </g>
   <g id="patch_161">
    <path clip-path="url(#p5c1c53e2e5)" d="M 259.722606 307.584 
L 262.667931 307.584 
L 262.667931 307.532374 
L 259.722606 307.532374 
z
" style="fill:#008000;opacity:0.4;"/>
   </g>
   <g id="patch_162">
    <path clip-path="url(#p5c1c53e2e5)" d="M 262.667931 307.584 
L 265.613257 307.584 
L 265.613257 307.584 
L 262.667931 307.584 
z
" style="fill:#008000;opacity:0.4;"/>
   </g>
   <g id="patch_163">
    <path clip-path="url(#p5c1c53e2e5)" d="M 265.613257 307.584 
L 268.558583 307.584 
L 268.558583 307.532374 
L 265.613257 307.532374 
z
" style="fill:#008000;opacity:0.4;"/>
   </g>
   <g id="patch_164">
    <path clip-path="url(#p5c1c53e2e5)" d="M 268.558583 307.584 
L 271.503909 307.584 
L 271.503909 307.480748 
L 268.558583 307.480748 
z
" style="fill:#008000;opacity:0.4;"/>
   </g>
   <g id="patch_165">
    <path clip-path="url(#p5c1c53e2e5)" d="M 271.503909 307.584 
L 274.449234 307.584 
L 274.449234 307.429122 
L 271.503909 307.429122 
z
" style="fill:#008000;opacity:0.4;"/>
   </g>
   <g id="patch_166">
    <path clip-path="url(#p5c1c53e2e5)" d="M 274.449234 307.584 
L 277.39456 307.584 
L 277.39456 307.584 
L 274.449234 307.584 
z
" style="fill:#008000;opacity:0.4;"/>
   </g>
   <g id="patch_167">
    <path clip-path="url(#p5c1c53e2e5)" d="M 277.39456 307.584 
L 280.339886 307.584 
L 280.339886 307.532374 
L 277.39456 307.532374 
z
" style="fill:#008000;opacity:0.4;"/>
   </g>
   <g id="patch_168">
    <path clip-path="url(#p5c1c53e2e5)" d="M 280.339886 307.584 
L 283.285211 307.584 
L 283.285211 307.532374 
L 280.339886 307.532374 
z
" style="fill:#008000;opacity:0.4;"/>
   </g>
   <g id="patch_169">
    <path clip-path="url(#p5c1c53e2e5)" d="M 283.285211 307.584 
L 286.230537 307.584 
L 286.230537 307.532374 
L 283.285211 307.532374 
z
" style="fill:#008000;opacity:0.4;"/>
   </g>
   <g id="patch_170">
    <path clip-path="url(#p5c1c53e2e5)" d="M 286.230537 307.584 
L 289.175863 307.584 
L 289.175863 307.584 
L 286.230537 307.584 
z
" style="fill:#008000;opacity:0.4;"/>
   </g>
   <g id="patch_171">
    <path clip-path="url(#p5c1c53e2e5)" d="M 289.175863 307.584 
L 292.121189 307.584 
L 292.121189 307.584 
L 289.175863 307.584 
z
" style="fill:#008000;opacity:0.4;"/>
   </g>
   <g id="patch_172">
    <path clip-path="url(#p5c1c53e2e5)" d="M 292.121189 307.584 
L 295.066514 307.584 
L 295.066514 307.584 
L 292.121189 307.584 
z
" style="fill:#008000;opacity:0.4;"/>
   </g>
   <g id="patch_173">
    <path clip-path="url(#p5c1c53e2e5)" d="M 295.066514 307.584 
L 298.01184 307.584 
L 298.01184 307.532374 
L 295.066514 307.532374 
z
" style="fill:#008000;opacity:0.4;"/>
   </g>
   <g id="patch_174">
    <path clip-path="url(#p5c1c53e2e5)" d="M 298.01184 307.584 
L 300.957166 307.584 
L 300.957166 307.584 
L 298.01184 307.584 
z
" style="fill:#008000;opacity:0.4;"/>
   </g>
   <g id="patch_175">
    <path clip-path="url(#p5c1c53e2e5)" d="M 300.957166 307.584 
L 303.902491 307.584 
L 303.902491 307.532374 
L 300.957166 307.532374 
z
" style="fill:#008000;opacity:0.4;"/>
   </g>
   <g id="patch_176">
    <path clip-path="url(#p5c1c53e2e5)" d="M 303.902491 307.584 
L 306.847817 307.584 
L 306.847817 307.532374 
L 303.902491 307.532374 
z
" style="fill:#008000;opacity:0.4;"/>
   </g>
   <g id="patch_177">
    <path clip-path="url(#p5c1c53e2e5)" d="M 306.847817 307.584 
L 309.793143 307.584 
L 309.793143 307.584 
L 306.847817 307.584 
z
" style="fill:#008000;opacity:0.4;"/>
   </g>
   <g id="patch_178">
    <path clip-path="url(#p5c1c53e2e5)" d="M 309.793143 307.584 
L 312.738468 307.584 
L 312.738468 307.532374 
L 309.793143 307.532374 
z
" style="fill:#008000;opacity:0.4;"/>
   </g>
   <g id="patch_179">
    <path clip-path="url(#p5c1c53e2e5)" d="M 312.738468 307.584 
L 315.683794 307.584 
L 315.683794 307.584 
L 312.738468 307.584 
z
" style="fill:#008000;opacity:0.4;"/>
   </g>
   <g id="patch_180">
    <path clip-path="url(#p5c1c53e2e5)" d="M 315.683794 307.584 
L 318.62912 307.584 
L 318.62912 307.584 
L 315.683794 307.584 
z
" style="fill:#008000;opacity:0.4;"/>
   </g>
   <g id="patch_181">
    <path clip-path="url(#p5c1c53e2e5)" d="M 318.62912 307.584 
L 321.574446 307.584 
L 321.574446 307.584 
L 318.62912 307.584 
z
" style="fill:#008000;opacity:0.4;"/>
   </g>
   <g id="patch_182">
    <path clip-path="url(#p5c1c53e2e5)" d="M 321.574446 307.584 
L 324.519771 307.584 
L 324.519771 307.584 
L 321.574446 307.584 
z
" style="fill:#008000;opacity:0.4;"/>
   </g>
   <g id="patch_183">
    <path clip-path="url(#p5c1c53e2e5)" d="M 324.519771 307.584 
L 327.465097 307.584 
L 327.465097 307.584 
L 324.519771 307.584 
z
" style="fill:#008000;opacity:0.4;"/>
   </g>
   <g id="patch_184">
    <path clip-path="url(#p5c1c53e2e5)" d="M 327.465097 307.584 
L 330.410423 307.584 
L 330.410423 307.584 
L 327.465097 307.584 
z
" style="fill:#008000;opacity:0.4;"/>
   </g>
   <g id="patch_185">
    <path clip-path="url(#p5c1c53e2e5)" d="M 330.410423 307.584 
L 333.355748 307.584 
L 333.355748 307.584 
L 330.410423 307.584 
z
" style="fill:#008000;opacity:0.4;"/>
   </g>
   <g id="patch_186">
    <path clip-path="url(#p5c1c53e2e5)" d="M 333.355748 307.584 
L 336.301074 307.584 
L 336.301074 307.584 
L 333.355748 307.584 
z
" style="fill:#008000;opacity:0.4;"/>
   </g>
   <g id="patch_187">
    <path clip-path="url(#p5c1c53e2e5)" d="M 336.301074 307.584 
L 339.2464 307.584 
L 339.2464 307.584 
L 336.301074 307.584 
z
" style="fill:#008000;opacity:0.4;"/>
   </g>
   <g id="patch_188">
    <path clip-path="url(#p5c1c53e2e5)" d="M 339.2464 307.584 
L 342.191726 307.584 
L 342.191726 307.584 
L 339.2464 307.584 
z
" style="fill:#008000;opacity:0.4;"/>
   </g>
   <g id="patch_189">
    <path clip-path="url(#p5c1c53e2e5)" d="M 342.191726 307.584 
L 345.137051 307.584 
L 345.137051 307.584 
L 342.191726 307.584 
z
" style="fill:#008000;opacity:0.4;"/>
   </g>
   <g id="patch_190">
    <path clip-path="url(#p5c1c53e2e5)" d="M 345.137051 307.584 
L 348.082377 307.584 
L 348.082377 307.584 
L 345.137051 307.584 
z
" style="fill:#008000;opacity:0.4;"/>
   </g>
   <g id="patch_191">
    <path clip-path="url(#p5c1c53e2e5)" d="M 348.082377 307.584 
L 351.027703 307.584 
L 351.027703 307.584 
L 348.082377 307.584 
z
" style="fill:#008000;opacity:0.4;"/>
   </g>
   <g id="patch_192">
    <path clip-path="url(#p5c1c53e2e5)" d="M 351.027703 307.584 
L 353.973028 307.584 
L 353.973028 307.584 
L 351.027703 307.584 
z
" style="fill:#008000;opacity:0.4;"/>
   </g>
   <g id="patch_193">
    <path clip-path="url(#p5c1c53e2e5)" d="M 353.973028 307.584 
L 356.918354 307.584 
L 356.918354 307.584 
L 353.973028 307.584 
z
" style="fill:#008000;opacity:0.4;"/>
   </g>
   <g id="patch_194">
    <path clip-path="url(#p5c1c53e2e5)" d="M 356.918354 307.584 
L 359.86368 307.584 
L 359.86368 307.584 
L 356.918354 307.584 
z
" style="fill:#008000;opacity:0.4;"/>
   </g>
   <g id="patch_195">
    <path clip-path="url(#p5c1c53e2e5)" d="M 359.86368 307.584 
L 362.809006 307.584 
L 362.809006 307.584 
L 359.86368 307.584 
z
" style="fill:#008000;opacity:0.4;"/>
   </g>
   <g id="patch_196">
    <path clip-path="url(#p5c1c53e2e5)" d="M 362.809006 307.584 
L 365.754331 307.584 
L 365.754331 307.584 
L 362.809006 307.584 
z
" style="fill:#008000;opacity:0.4;"/>
   </g>
   <g id="patch_197">
    <path clip-path="url(#p5c1c53e2e5)" d="M 365.754331 307.584 
L 368.699657 307.584 
L 368.699657 307.584 
L 365.754331 307.584 
z
" style="fill:#008000;opacity:0.4;"/>
   </g>
   <g id="patch_198">
    <path clip-path="url(#p5c1c53e2e5)" d="M 368.699657 307.584 
L 371.644983 307.584 
L 371.644983 307.584 
L 368.699657 307.584 
z
" style="fill:#008000;opacity:0.4;"/>
   </g>
   <g id="patch_199">
    <path clip-path="url(#p5c1c53e2e5)" d="M 371.644983 307.584 
L 374.590308 307.584 
L 374.590308 307.584 
L 371.644983 307.584 
z
" style="fill:#008000;opacity:0.4;"/>
   </g>
   <g id="patch_200">
    <path clip-path="url(#p5c1c53e2e5)" d="M 374.590308 307.584 
L 377.535634 307.584 
L 377.535634 307.584 
L 374.590308 307.584 
z
" style="fill:#008000;opacity:0.4;"/>
   </g>
   <g id="patch_201">
    <path clip-path="url(#p5c1c53e2e5)" d="M 377.535634 307.584 
L 380.48096 307.584 
L 380.48096 307.584 
L 377.535634 307.584 
z
" style="fill:#008000;opacity:0.4;"/>
   </g>
   <g id="patch_202">
    <path clip-path="url(#p5c1c53e2e5)" d="M 380.48096 307.584 
L 383.426286 307.584 
L 383.426286 307.532374 
L 380.48096 307.532374 
z
" style="fill:#008000;opacity:0.4;"/>
   </g>
   <g id="matplotlib.axis_1">
    <g id="xtick_1">
     <g id="line2d_1">
      <defs>
       <path d="M 0 0 
L 0 3.5 
" id="m4f110367d0" style="stroke:#000000;stroke-width:0.8;"/>
      </defs>
      <g>
       <use style="stroke:#000000;stroke-width:0.8;" x="88.028271" xlink:href="#m4f110367d0" y="307.584"/>
      </g>
     </g>
     <g id="text_1">
      <!-- 0 -->
      <defs>
       <path d="M 31.78125 66.40625 
Q 24.171875 66.40625 20.328125 58.90625 
Q 16.5 51.421875 16.5 36.375 
Q 16.5 21.390625 20.328125 13.890625 
Q 24.171875 6.390625 31.78125 6.390625 
Q 39.453125 6.390625 43.28125 13.890625 
Q 47.125 21.390625 47.125 36.375 
Q 47.125 51.421875 43.28125 58.90625 
Q 39.453125 66.40625 31.78125 66.40625 
z
M 31.78125 74.21875 
Q 44.046875 74.21875 50.515625 64.515625 
Q 56.984375 54.828125 56.984375 36.375 
Q 56.984375 17.96875 50.515625 8.265625 
Q 44.046875 -1.421875 31.78125 -1.421875 
Q 19.53125 -1.421875 13.0625 8.265625 
Q 6.59375 17.96875 6.59375 36.375 
Q 6.59375 54.828125 13.0625 64.515625 
Q 19.53125 74.21875 31.78125 74.21875 
z
" id="DejaVuSans-48"/>
      </defs>
      <g transform="translate(84.847021 322.182437)scale(0.1 -0.1)">
       <use xlink:href="#DejaVuSans-48"/>
      </g>
     </g>
    </g>
    <g id="xtick_2">
     <g id="line2d_2">
      <g>
       <use style="stroke:#000000;stroke-width:0.8;" x="155.082223" xlink:href="#m4f110367d0" y="307.584"/>
      </g>
     </g>
     <g id="text_2">
      <!-- 2000000 -->
      <defs>
       <path d="M 19.1875 8.296875 
L 53.609375 8.296875 
L 53.609375 0 
L 7.328125 0 
L 7.328125 8.296875 
Q 12.9375 14.109375 22.625 23.890625 
Q 32.328125 33.6875 34.8125 36.53125 
Q 39.546875 41.84375 41.421875 45.53125 
Q 43.3125 49.21875 43.3125 52.78125 
Q 43.3125 58.59375 39.234375 62.25 
Q 35.15625 65.921875 28.609375 65.921875 
Q 23.96875 65.921875 18.8125 64.3125 
Q 13.671875 62.703125 7.8125 59.421875 
L 7.8125 69.390625 
Q 13.765625 71.78125 18.9375 73 
Q 24.125 74.21875 28.421875 74.21875 
Q 39.75 74.21875 46.484375 68.546875 
Q 53.21875 62.890625 53.21875 53.421875 
Q 53.21875 48.921875 51.53125 44.890625 
Q 49.859375 40.875 45.40625 35.40625 
Q 44.1875 33.984375 37.640625 27.21875 
Q 31.109375 20.453125 19.1875 8.296875 
z
" id="DejaVuSans-50"/>
      </defs>
      <g transform="translate(132.813473 322.182437)scale(0.1 -0.1)">
       <use xlink:href="#DejaVuSans-50"/>
       <use x="63.623047" xlink:href="#DejaVuSans-48"/>
       <use x="127.246094" xlink:href="#DejaVuSans-48"/>
       <use x="190.869141" xlink:href="#DejaVuSans-48"/>
       <use x="254.492188" xlink:href="#DejaVuSans-48"/>
       <use x="318.115234" xlink:href="#DejaVuSans-48"/>
       <use x="381.738281" xlink:href="#DejaVuSans-48"/>
      </g>
     </g>
    </g>
    <g id="xtick_3">
     <g id="line2d_3">
      <g>
       <use style="stroke:#000000;stroke-width:0.8;" x="222.136176" xlink:href="#m4f110367d0" y="307.584"/>
      </g>
     </g>
     <g id="text_3">
      <!-- 4000000 -->
      <defs>
       <path d="M 37.796875 64.3125 
L 12.890625 25.390625 
L 37.796875 25.390625 
z
M 35.203125 72.90625 
L 47.609375 72.90625 
L 47.609375 25.390625 
L 58.015625 25.390625 
L 58.015625 17.1875 
L 47.609375 17.1875 
L 47.609375 0 
L 37.796875 0 
L 37.796875 17.1875 
L 4.890625 17.1875 
L 4.890625 26.703125 
z
" id="DejaVuSans-52"/>
      </defs>
      <g transform="translate(199.867426 322.182437)scale(0.1 -0.1)">
       <use xlink:href="#DejaVuSans-52"/>
       <use x="63.623047" xlink:href="#DejaVuSans-48"/>
       <use x="127.246094" xlink:href="#DejaVuSans-48"/>
       <use x="190.869141" xlink:href="#DejaVuSans-48"/>
       <use x="254.492188" xlink:href="#DejaVuSans-48"/>
       <use x="318.115234" xlink:href="#DejaVuSans-48"/>
       <use x="381.738281" xlink:href="#DejaVuSans-48"/>
      </g>
     </g>
    </g>
    <g id="xtick_4">
     <g id="line2d_4">
      <g>
       <use style="stroke:#000000;stroke-width:0.8;" x="289.190129" xlink:href="#m4f110367d0" y="307.584"/>
      </g>
     </g>
     <g id="text_4">
      <!-- 6000000 -->
      <defs>
       <path d="M 33.015625 40.375 
Q 26.375 40.375 22.484375 35.828125 
Q 18.609375 31.296875 18.609375 23.390625 
Q 18.609375 15.53125 22.484375 10.953125 
Q 26.375 6.390625 33.015625 6.390625 
Q 39.65625 6.390625 43.53125 10.953125 
Q 47.40625 15.53125 47.40625 23.390625 
Q 47.40625 31.296875 43.53125 35.828125 
Q 39.65625 40.375 33.015625 40.375 
z
M 52.59375 71.296875 
L 52.59375 62.3125 
Q 48.875 64.0625 45.09375 64.984375 
Q 41.3125 65.921875 37.59375 65.921875 
Q 27.828125 65.921875 22.671875 59.328125 
Q 17.53125 52.734375 16.796875 39.40625 
Q 19.671875 43.65625 24.015625 45.921875 
Q 28.375 48.1875 33.59375 48.1875 
Q 44.578125 48.1875 50.953125 41.515625 
Q 57.328125 34.859375 57.328125 23.390625 
Q 57.328125 12.15625 50.6875 5.359375 
Q 44.046875 -1.421875 33.015625 -1.421875 
Q 20.359375 -1.421875 13.671875 8.265625 
Q 6.984375 17.96875 6.984375 36.375 
Q 6.984375 53.65625 15.1875 63.9375 
Q 23.390625 74.21875 37.203125 74.21875 
Q 40.921875 74.21875 44.703125 73.484375 
Q 48.484375 72.75 52.59375 71.296875 
z
" id="DejaVuSans-54"/>
      </defs>
      <g transform="translate(266.921379 322.182437)scale(0.1 -0.1)">
       <use xlink:href="#DejaVuSans-54"/>
       <use x="63.623047" xlink:href="#DejaVuSans-48"/>
       <use x="127.246094" xlink:href="#DejaVuSans-48"/>
       <use x="190.869141" xlink:href="#DejaVuSans-48"/>
       <use x="254.492188" xlink:href="#DejaVuSans-48"/>
       <use x="318.115234" xlink:href="#DejaVuSans-48"/>
       <use x="381.738281" xlink:href="#DejaVuSans-48"/>
      </g>
     </g>
    </g>
    <g id="xtick_5">
     <g id="line2d_5">
      <g>
       <use style="stroke:#000000;stroke-width:0.8;" x="356.244081" xlink:href="#m4f110367d0" y="307.584"/>
      </g>
     </g>
     <g id="text_5">
      <!-- 8000000 -->
      <defs>
       <path d="M 31.78125 34.625 
Q 24.75 34.625 20.71875 30.859375 
Q 16.703125 27.09375 16.703125 20.515625 
Q 16.703125 13.921875 20.71875 10.15625 
Q 24.75 6.390625 31.78125 6.390625 
Q 38.8125 6.390625 42.859375 10.171875 
Q 46.921875 13.96875 46.921875 20.515625 
Q 46.921875 27.09375 42.890625 30.859375 
Q 38.875 34.625 31.78125 34.625 
z
M 21.921875 38.8125 
Q 15.578125 40.375 12.03125 44.71875 
Q 8.5 49.078125 8.5 55.328125 
Q 8.5 64.0625 14.71875 69.140625 
Q 20.953125 74.21875 31.78125 74.21875 
Q 42.671875 74.21875 48.875 69.140625 
Q 55.078125 64.0625 55.078125 55.328125 
Q 55.078125 49.078125 51.53125 44.71875 
Q 48 40.375 41.703125 38.8125 
Q 48.828125 37.15625 52.796875 32.3125 
Q 56.78125 27.484375 56.78125 20.515625 
Q 56.78125 9.90625 50.3125 4.234375 
Q 43.84375 -1.421875 31.78125 -1.421875 
Q 19.734375 -1.421875 13.25 4.234375 
Q 6.78125 9.90625 6.78125 20.515625 
Q 6.78125 27.484375 10.78125 32.3125 
Q 14.796875 37.15625 21.921875 38.8125 
z
M 18.3125 54.390625 
Q 18.3125 48.734375 21.84375 45.5625 
Q 25.390625 42.390625 31.78125 42.390625 
Q 38.140625 42.390625 41.71875 45.5625 
Q 45.3125 48.734375 45.3125 54.390625 
Q 45.3125 60.0625 41.71875 63.234375 
Q 38.140625 66.40625 31.78125 66.40625 
Q 25.390625 66.40625 21.84375 63.234375 
Q 18.3125 60.0625 18.3125 54.390625 
z
" id="DejaVuSans-56"/>
      </defs>
      <g transform="translate(333.975331 322.182437)scale(0.1 -0.1)">
       <use xlink:href="#DejaVuSans-56"/>
       <use x="63.623047" xlink:href="#DejaVuSans-48"/>
       <use x="127.246094" xlink:href="#DejaVuSans-48"/>
       <use x="190.869141" xlink:href="#DejaVuSans-48"/>
       <use x="254.492188" xlink:href="#DejaVuSans-48"/>
       <use x="318.115234" xlink:href="#DejaVuSans-48"/>
       <use x="381.738281" xlink:href="#DejaVuSans-48"/>
      </g>
     </g>
    </g>
   </g>
   <g id="matplotlib.axis_2">
    <g id="ytick_1">
     <g id="line2d_6">
      <defs>
       <path d="M 0 0 
L -3.5 0 
" id="m21c66c8afc" style="stroke:#000000;stroke-width:0.8;"/>
      </defs>
      <g>
       <use style="stroke:#000000;stroke-width:0.8;" x="57.6" xlink:href="#m21c66c8afc" y="307.584"/>
      </g>
     </g>
     <g id="text_6">
      <!-- 0.000000 -->
      <defs>
       <path d="M 10.6875 12.40625 
L 21 12.40625 
L 21 0 
L 10.6875 0 
z
" id="DejaVuSans-46"/>
      </defs>
      <g transform="translate(2.884375 311.383219)scale(0.1 -0.1)">
       <use xlink:href="#DejaVuSans-48"/>
       <use x="63.623047" xlink:href="#DejaVuSans-46"/>
       <use x="95.410156" xlink:href="#DejaVuSans-48"/>
       <use x="159.033203" xlink:href="#DejaVuSans-48"/>
       <use x="222.65625" xlink:href="#DejaVuSans-48"/>
       <use x="286.279297" xlink:href="#DejaVuSans-48"/>
       <use x="349.902344" xlink:href="#DejaVuSans-48"/>
       <use x="413.525391" xlink:href="#DejaVuSans-48"/>
      </g>
     </g>
    </g>
    <g id="ytick_2">
     <g id="line2d_7">
      <g>
       <use style="stroke:#000000;stroke-width:0.8;" x="57.6" xlink:href="#m21c66c8afc" y="275.709774"/>
      </g>
     </g>
     <g id="text_7">
      <!-- 0.000002 -->
      <g transform="translate(2.884375 279.508992)scale(0.1 -0.1)">
       <use xlink:href="#DejaVuSans-48"/>
       <use x="63.623047" xlink:href="#DejaVuSans-46"/>
       <use x="95.410156" xlink:href="#DejaVuSans-48"/>
       <use x="159.033203" xlink:href="#DejaVuSans-48"/>
       <use x="222.65625" xlink:href="#DejaVuSans-48"/>
       <use x="286.279297" xlink:href="#DejaVuSans-48"/>
       <use x="349.902344" xlink:href="#DejaVuSans-48"/>
       <use x="413.525391" xlink:href="#DejaVuSans-50"/>
      </g>
     </g>
    </g>
    <g id="ytick_3">
     <g id="line2d_8">
      <g>
       <use style="stroke:#000000;stroke-width:0.8;" x="57.6" xlink:href="#m21c66c8afc" y="243.835547"/>
      </g>
     </g>
     <g id="text_8">
      <!-- 0.000004 -->
      <g transform="translate(2.884375 247.634766)scale(0.1 -0.1)">
       <use xlink:href="#DejaVuSans-48"/>
       <use x="63.623047" xlink:href="#DejaVuSans-46"/>
       <use x="95.410156" xlink:href="#DejaVuSans-48"/>
       <use x="159.033203" xlink:href="#DejaVuSans-48"/>
       <use x="222.65625" xlink:href="#DejaVuSans-48"/>
       <use x="286.279297" xlink:href="#DejaVuSans-48"/>
       <use x="349.902344" xlink:href="#DejaVuSans-48"/>
       <use x="413.525391" xlink:href="#DejaVuSans-52"/>
      </g>
     </g>
    </g>
    <g id="ytick_4">
     <g id="line2d_9">
      <g>
       <use style="stroke:#000000;stroke-width:0.8;" x="57.6" xlink:href="#m21c66c8afc" y="211.961321"/>
      </g>
     </g>
     <g id="text_9">
      <!-- 0.000006 -->
      <g transform="translate(2.884375 215.76054)scale(0.1 -0.1)">
       <use xlink:href="#DejaVuSans-48"/>
       <use x="63.623047" xlink:href="#DejaVuSans-46"/>
       <use x="95.410156" xlink:href="#DejaVuSans-48"/>
       <use x="159.033203" xlink:href="#DejaVuSans-48"/>
       <use x="222.65625" xlink:href="#DejaVuSans-48"/>
       <use x="286.279297" xlink:href="#DejaVuSans-48"/>
       <use x="349.902344" xlink:href="#DejaVuSans-48"/>
       <use x="413.525391" xlink:href="#DejaVuSans-54"/>
      </g>
     </g>
    </g>
    <g id="ytick_5">
     <g id="line2d_10">
      <g>
       <use style="stroke:#000000;stroke-width:0.8;" x="57.6" xlink:href="#m21c66c8afc" y="180.087095"/>
      </g>
     </g>
     <g id="text_10">
      <!-- 0.000008 -->
      <g transform="translate(2.884375 183.886313)scale(0.1 -0.1)">
       <use xlink:href="#DejaVuSans-48"/>
       <use x="63.623047" xlink:href="#DejaVuSans-46"/>
       <use x="95.410156" xlink:href="#DejaVuSans-48"/>
       <use x="159.033203" xlink:href="#DejaVuSans-48"/>
       <use x="222.65625" xlink:href="#DejaVuSans-48"/>
       <use x="286.279297" xlink:href="#DejaVuSans-48"/>
       <use x="349.902344" xlink:href="#DejaVuSans-48"/>
       <use x="413.525391" xlink:href="#DejaVuSans-56"/>
      </g>
     </g>
    </g>
    <g id="ytick_6">
     <g id="line2d_11">
      <g>
       <use style="stroke:#000000;stroke-width:0.8;" x="57.6" xlink:href="#m21c66c8afc" y="148.212868"/>
      </g>
     </g>
     <g id="text_11">
      <!-- 0.000010 -->
      <defs>
       <path d="M 12.40625 8.296875 
L 28.515625 8.296875 
L 28.515625 63.921875 
L 10.984375 60.40625 
L 10.984375 69.390625 
L 28.421875 72.90625 
L 38.28125 72.90625 
L 38.28125 8.296875 
L 54.390625 8.296875 
L 54.390625 0 
L 12.40625 0 
z
" id="DejaVuSans-49"/>
      </defs>
      <g transform="translate(2.884375 152.012087)scale(0.1 -0.1)">
       <use xlink:href="#DejaVuSans-48"/>
       <use x="63.623047" xlink:href="#DejaVuSans-46"/>
       <use x="95.410156" xlink:href="#DejaVuSans-48"/>
       <use x="159.033203" xlink:href="#DejaVuSans-48"/>
       <use x="222.65625" xlink:href="#DejaVuSans-48"/>
       <use x="286.279297" xlink:href="#DejaVuSans-48"/>
       <use x="349.902344" xlink:href="#DejaVuSans-49"/>
       <use x="413.525391" xlink:href="#DejaVuSans-48"/>
      </g>
     </g>
    </g>
    <g id="ytick_7">
     <g id="line2d_12">
      <g>
       <use style="stroke:#000000;stroke-width:0.8;" x="57.6" xlink:href="#m21c66c8afc" y="116.338642"/>
      </g>
     </g>
     <g id="text_12">
      <!-- 0.000012 -->
      <g transform="translate(2.884375 120.137861)scale(0.1 -0.1)">
       <use xlink:href="#DejaVuSans-48"/>
       <use x="63.623047" xlink:href="#DejaVuSans-46"/>
       <use x="95.410156" xlink:href="#DejaVuSans-48"/>
       <use x="159.033203" xlink:href="#DejaVuSans-48"/>
       <use x="222.65625" xlink:href="#DejaVuSans-48"/>
       <use x="286.279297" xlink:href="#DejaVuSans-48"/>
       <use x="349.902344" xlink:href="#DejaVuSans-49"/>
       <use x="413.525391" xlink:href="#DejaVuSans-50"/>
      </g>
     </g>
    </g>
    <g id="ytick_8">
     <g id="line2d_13">
      <g>
       <use style="stroke:#000000;stroke-width:0.8;" x="57.6" xlink:href="#m21c66c8afc" y="84.464415"/>
      </g>
     </g>
     <g id="text_13">
      <!-- 0.000014 -->
      <g transform="translate(2.884375 88.263634)scale(0.1 -0.1)">
       <use xlink:href="#DejaVuSans-48"/>
       <use x="63.623047" xlink:href="#DejaVuSans-46"/>
       <use x="95.410156" xlink:href="#DejaVuSans-48"/>
       <use x="159.033203" xlink:href="#DejaVuSans-48"/>
       <use x="222.65625" xlink:href="#DejaVuSans-48"/>
       <use x="286.279297" xlink:href="#DejaVuSans-48"/>
       <use x="349.902344" xlink:href="#DejaVuSans-49"/>
       <use x="413.525391" xlink:href="#DejaVuSans-52"/>
      </g>
     </g>
    </g>
    <g id="ytick_9">
     <g id="line2d_14">
      <g>
       <use style="stroke:#000000;stroke-width:0.8;" x="57.6" xlink:href="#m21c66c8afc" y="52.590189"/>
      </g>
     </g>
     <g id="text_14">
      <!-- 0.000016 -->
      <g transform="translate(2.884375 56.389408)scale(0.1 -0.1)">
       <use xlink:href="#DejaVuSans-48"/>
       <use x="63.623047" xlink:href="#DejaVuSans-46"/>
       <use x="95.410156" xlink:href="#DejaVuSans-48"/>
       <use x="159.033203" xlink:href="#DejaVuSans-48"/>
       <use x="222.65625" xlink:href="#DejaVuSans-48"/>
       <use x="286.279297" xlink:href="#DejaVuSans-48"/>
       <use x="349.902344" xlink:href="#DejaVuSans-49"/>
       <use x="413.525391" xlink:href="#DejaVuSans-54"/>
      </g>
     </g>
    </g>
   </g>
   <g id="line2d_15">
    <path clip-path="url(#p5c1c53e2e5)" d="M 86.028344 307.451251 
L 86.445266 307.10672 
L 86.862188 306.10572 
L 87.27911 303.622913 
L 87.696032 298.352049 
L 88.112954 288.74469 
L 88.529876 273.667639 
L 88.946798 253.292869 
L 89.36372 229.759222 
L 89.780642 207.134746 
L 90.197564 190.440803 
L 90.614486 183.880598 
L 91.031408 188.97062 
L 91.44833 203.710187 
L 91.865252 223.532032 
L 92.282174 243.508349 
L 92.699096 260.320222 
L 93.116018 272.866817 
L 93.53294 281.610882 
L 93.949862 287.550193 
L 94.366784 291.552854 
L 94.783706 294.200509 
L 95.200628 295.895769 
L 95.61755 296.978617 
L 96.034472 297.755791 
L 96.451394 298.464965 
L 96.868316 299.228089 
L 97.285238 300.040895 
L 97.702161 300.819094 
L 98.119083 301.476911 
L 98.536005 301.982856 
L 98.952927 302.359428 
L 99.369849 302.647643 
L 99.786771 302.879792 
L 100.203693 303.074358 
L 100.620615 303.235998 
L 101.037537 303.352088 
L 101.454459 303.398377 
L 101.871381 303.35885 
L 102.288303 303.242974 
L 102.705225 303.08541 
L 103.122147 302.934833 
L 103.539069 302.844132 
L 103.955991 302.859853 
L 104.372913 303.0048 
L 104.789835 303.263721 
L 105.206757 303.589409 
L 105.623679 303.928234 
L 106.040601 304.243316 
L 106.457523 304.51756 
L 106.874445 304.74084 
L 107.291367 304.89932 
L 107.708289 304.978903 
L 108.125211 304.978947 
L 108.542133 304.922433 
L 108.959055 304.852682 
L 109.375977 304.818932 
L 109.792899 304.859512 
L 110.209821 304.988487 
L 110.626743 305.189537 
L 111.043665 305.422782 
L 111.460587 305.645542 
L 111.877509 305.8344 
L 112.294431 305.990726 
L 112.711353 306.126539 
L 113.128275 306.247092 
L 113.545197 306.347579 
L 113.962119 306.423773 
L 114.379041 306.481302 
L 114.795963 306.532066 
L 115.212885 306.582579 
L 115.629807 306.628332 
L 116.046729 306.660635 
L 116.463651 306.678361 
L 116.880573 306.69265 
L 117.297495 306.720629 
L 117.714417 306.774329 
L 118.131339 306.853974 
L 118.548261 306.949557 
L 118.965184 307.047359 
L 119.382106 307.13562 
L 119.799028 307.206916 
L 120.21595 307.258192 
L 120.632872 307.289458 
L 121.049794 307.301638 
L 121.466716 307.295578 
L 121.883638 307.274208 
L 122.30056 307.245941 
L 122.717482 307.224516 
L 123.134404 307.223593 
L 123.551326 307.2501 
L 123.968248 307.301374 
L 124.38517 307.36722 
L 124.802092 307.434585 
L 125.219014 307.492319 
L 125.635936 307.534395 
L 126.052858 307.560539 
L 126.46978 307.574372 
L 126.886702 307.58059 
L 127.303624 307.582962 
" style="fill:none;stroke:#f48024;stroke-linecap:square;stroke-width:1.5;"/>
   </g>
   <g id="line2d_16">
    <path clip-path="url(#p5c1c53e2e5)" d="M 73.832727 307.573641 
L 77.112066 307.496759 
L 80.391405 307.077489 
L 83.670744 305.530413 
L 86.950083 301.672915 
L 90.229421 295.246295 
L 93.50876 288.401147 
L 96.788099 284.594468 
L 100.067438 285.424881 
L 103.346777 289.512437 
L 106.626116 294.386652 
L 109.905455 298.435557 
L 113.184793 301.26435 
L 116.464132 303.128416 
L 119.743471 304.367703 
L 123.02281 305.189238 
L 126.302149 305.703425 
L 129.581488 306.017183 
L 132.860826 306.239509 
L 136.140165 306.420899 
L 139.419504 306.553562 
L 142.698843 306.631711 
L 145.978182 306.676801 
L 149.257521 306.709418 
L 152.53686 306.732348 
L 155.816198 306.750631 
L 159.095537 306.780066 
L 162.374876 306.824342 
L 165.654215 306.874115 
L 168.933554 306.931545 
L 172.212893 306.996598 
L 175.492231 307.048171 
L 178.77157 307.076108 
L 182.050909 307.103137 
L 185.330248 307.155968 
L 188.609587 307.230596 
L 191.888926 307.292188 
L 195.168264 307.314722 
L 198.447603 307.314027 
L 201.726942 307.322252 
L 205.006281 307.346411 
L 208.28562 307.373595 
L 211.564959 307.393016 
L 214.844298 307.40532 
L 218.123636 307.422795 
L 221.402975 307.451614 
L 224.682314 307.478878 
L 227.961653 307.492101 
L 231.240992 307.499455 
L 234.520331 307.513941 
L 237.799669 307.531188 
L 241.079008 307.53906 
L 244.358347 307.536167 
L 247.637686 307.529767 
L 250.917025 307.525101 
L 254.196364 307.523018 
L 257.475702 307.523811 
L 260.755041 307.526336 
L 264.03438 307.524741 
L 267.313719 307.516134 
L 270.593058 307.509222 
L 273.872397 307.514532 
L 277.151736 307.52898 
L 280.431074 307.541704 
L 283.710413 307.549987 
L 286.989752 307.557504 
L 290.269091 307.563505 
L 293.54843 307.564446 
L 296.827769 307.560644 
L 300.107107 307.555307 
L 303.386446 307.552373 
L 306.665785 307.554628 
L 309.945124 307.561187 
L 313.224463 307.569394 
L 316.503802 307.576762 
L 319.78314 307.581425 
L 323.062479 307.583375 
L 326.341818 307.583899 
L 329.621157 307.583989 
L 332.900496 307.583999 
L 336.179835 307.584 
L 339.459174 307.584 
L 342.738512 307.584 
L 346.017851 307.584 
L 349.29719 307.584 
L 352.576529 307.584 
L 355.855868 307.584 
L 359.135207 307.584 
L 362.414545 307.583998 
L 365.693884 307.583976 
L 368.973223 307.583808 
L 372.252562 307.582984 
L 375.531901 307.58049 
L 378.81124 307.576081 
L 382.090579 307.572339 
L 385.369917 307.572791 
L 388.649256 307.576967 
L 391.928595 307.581119 
L 395.207934 307.58323 
L 398.487273 307.583866 
" style="fill:none;stroke:#008000;stroke-linecap:square;stroke-width:1.5;"/>
   </g>
   <g id="patch_203">
    <path d="M 57.6 307.584 
L 57.6 41.472 
" style="fill:none;stroke:#000000;stroke-linecap:square;stroke-linejoin:miter;stroke-width:0.8;"/>
   </g>
   <g id="patch_204">
    <path d="M 414.72 307.584 
L 414.72 41.472 
" style="fill:none;stroke:#000000;stroke-linecap:square;stroke-linejoin:miter;stroke-width:0.8;"/>
   </g>
   <g id="patch_205">
    <path d="M 57.6 307.584 
L 414.72 307.584 
" style="fill:none;stroke:#000000;stroke-linecap:square;stroke-linejoin:miter;stroke-width:0.8;"/>
   </g>
   <g id="patch_206">
    <path d="M 57.6 41.472 
L 414.72 41.472 
" style="fill:none;stroke:#000000;stroke-linecap:square;stroke-linejoin:miter;stroke-width:0.8;"/>
   </g>
   <g id="text_15">
    <!-- {'mae': 469288.963, 'smape': 1.145, 'jsd': 0.544} -->
    <defs>
     <path d="M 51.125 -9.28125 
L 51.125 -16.3125 
L 48.09375 -16.3125 
Q 35.9375 -16.3125 31.8125 -12.6875 
Q 27.6875 -9.078125 27.6875 1.703125 
L 27.6875 13.375 
Q 27.6875 20.75 25.046875 23.578125 
Q 22.40625 26.421875 15.484375 26.421875 
L 12.5 26.421875 
L 12.5 33.40625 
L 15.484375 33.40625 
Q 22.46875 33.40625 25.078125 36.203125 
Q 27.6875 39.015625 27.6875 46.296875 
L 27.6875 58.015625 
Q 27.6875 68.796875 31.8125 72.390625 
Q 35.9375 75.984375 48.09375 75.984375 
L 51.125 75.984375 
L 51.125 69 
L 47.796875 69 
Q 40.921875 69 38.8125 66.84375 
Q 36.71875 64.703125 36.71875 57.8125 
L 36.71875 45.703125 
Q 36.71875 38.03125 34.5 34.5625 
Q 32.28125 31.109375 26.90625 29.890625 
Q 32.328125 28.5625 34.515625 25.09375 
Q 36.71875 21.625 36.71875 14.015625 
L 36.71875 1.90625 
Q 36.71875 -4.984375 38.8125 -7.125 
Q 40.921875 -9.28125 47.796875 -9.28125 
z
" id="DejaVuSans-123"/>
     <path d="M 17.921875 72.90625 
L 17.921875 45.796875 
L 9.625 45.796875 
L 9.625 72.90625 
z
" id="DejaVuSans-39"/>
     <path d="M 52 44.1875 
Q 55.375 50.25 60.0625 53.125 
Q 64.75 56 71.09375 56 
Q 79.640625 56 84.28125 50.015625 
Q 88.921875 44.046875 88.921875 33.015625 
L 88.921875 0 
L 79.890625 0 
L 79.890625 32.71875 
Q 79.890625 40.578125 77.09375 44.375 
Q 74.3125 48.1875 68.609375 48.1875 
Q 61.625 48.1875 57.5625 43.546875 
Q 53.515625 38.921875 53.515625 30.90625 
L 53.515625 0 
L 44.484375 0 
L 44.484375 32.71875 
Q 44.484375 40.625 41.703125 44.40625 
Q 38.921875 48.1875 33.109375 48.1875 
Q 26.21875 48.1875 22.15625 43.53125 
Q 18.109375 38.875 18.109375 30.90625 
L 18.109375 0 
L 9.078125 0 
L 9.078125 54.6875 
L 18.109375 54.6875 
L 18.109375 46.1875 
Q 21.1875 51.21875 25.484375 53.609375 
Q 29.78125 56 35.6875 56 
Q 41.65625 56 45.828125 52.96875 
Q 50 49.953125 52 44.1875 
z
" id="DejaVuSans-109"/>
     <path d="M 34.28125 27.484375 
Q 23.390625 27.484375 19.1875 25 
Q 14.984375 22.515625 14.984375 16.5 
Q 14.984375 11.71875 18.140625 8.90625 
Q 21.296875 6.109375 26.703125 6.109375 
Q 34.1875 6.109375 38.703125 11.40625 
Q 43.21875 16.703125 43.21875 25.484375 
L 43.21875 27.484375 
z
M 52.203125 31.203125 
L 52.203125 0 
L 43.21875 0 
L 43.21875 8.296875 
Q 40.140625 3.328125 35.546875 0.953125 
Q 30.953125 -1.421875 24.3125 -1.421875 
Q 15.921875 -1.421875 10.953125 3.296875 
Q 6 8.015625 6 15.921875 
Q 6 25.140625 12.171875 29.828125 
Q 18.359375 34.515625 30.609375 34.515625 
L 43.21875 34.515625 
L 43.21875 35.40625 
Q 43.21875 41.609375 39.140625 45 
Q 35.0625 48.390625 27.6875 48.390625 
Q 23 48.390625 18.546875 47.265625 
Q 14.109375 46.140625 10.015625 43.890625 
L 10.015625 52.203125 
Q 14.9375 54.109375 19.578125 55.046875 
Q 24.21875 56 28.609375 56 
Q 40.484375 56 46.34375 49.84375 
Q 52.203125 43.703125 52.203125 31.203125 
z
" id="DejaVuSans-97"/>
     <path d="M 56.203125 29.59375 
L 56.203125 25.203125 
L 14.890625 25.203125 
Q 15.484375 15.921875 20.484375 11.0625 
Q 25.484375 6.203125 34.421875 6.203125 
Q 39.59375 6.203125 44.453125 7.46875 
Q 49.3125 8.734375 54.109375 11.28125 
L 54.109375 2.78125 
Q 49.265625 0.734375 44.1875 -0.34375 
Q 39.109375 -1.421875 33.890625 -1.421875 
Q 20.796875 -1.421875 13.15625 6.1875 
Q 5.515625 13.8125 5.515625 26.8125 
Q 5.515625 40.234375 12.765625 48.109375 
Q 20.015625 56 32.328125 56 
Q 43.359375 56 49.78125 48.890625 
Q 56.203125 41.796875 56.203125 29.59375 
z
M 47.21875 32.234375 
Q 47.125 39.59375 43.09375 43.984375 
Q 39.0625 48.390625 32.421875 48.390625 
Q 24.90625 48.390625 20.390625 44.140625 
Q 15.875 39.890625 15.1875 32.171875 
z
" id="DejaVuSans-101"/>
     <path d="M 11.71875 12.40625 
L 22.015625 12.40625 
L 22.015625 0 
L 11.71875 0 
z
M 11.71875 51.703125 
L 22.015625 51.703125 
L 22.015625 39.3125 
L 11.71875 39.3125 
z
" id="DejaVuSans-58"/>
     <path id="DejaVuSans-32"/>
     <path d="M 10.984375 1.515625 
L 10.984375 10.5 
Q 14.703125 8.734375 18.5 7.8125 
Q 22.3125 6.890625 25.984375 6.890625 
Q 35.75 6.890625 40.890625 13.453125 
Q 46.046875 20.015625 46.78125 33.40625 
Q 43.953125 29.203125 39.59375 26.953125 
Q 35.25 24.703125 29.984375 24.703125 
Q 19.046875 24.703125 12.671875 31.3125 
Q 6.296875 37.9375 6.296875 49.421875 
Q 6.296875 60.640625 12.9375 67.421875 
Q 19.578125 74.21875 30.609375 74.21875 
Q 43.265625 74.21875 49.921875 64.515625 
Q 56.59375 54.828125 56.59375 36.375 
Q 56.59375 19.140625 48.40625 8.859375 
Q 40.234375 -1.421875 26.421875 -1.421875 
Q 22.703125 -1.421875 18.890625 -0.6875 
Q 15.09375 0.046875 10.984375 1.515625 
z
M 30.609375 32.421875 
Q 37.25 32.421875 41.125 36.953125 
Q 45.015625 41.5 45.015625 49.421875 
Q 45.015625 57.28125 41.125 61.84375 
Q 37.25 66.40625 30.609375 66.40625 
Q 23.96875 66.40625 20.09375 61.84375 
Q 16.21875 57.28125 16.21875 49.421875 
Q 16.21875 41.5 20.09375 36.953125 
Q 23.96875 32.421875 30.609375 32.421875 
z
" id="DejaVuSans-57"/>
     <path d="M 40.578125 39.3125 
Q 47.65625 37.796875 51.625 33 
Q 55.609375 28.21875 55.609375 21.1875 
Q 55.609375 10.40625 48.1875 4.484375 
Q 40.765625 -1.421875 27.09375 -1.421875 
Q 22.515625 -1.421875 17.65625 -0.515625 
Q 12.796875 0.390625 7.625 2.203125 
L 7.625 11.71875 
Q 11.71875 9.328125 16.59375 8.109375 
Q 21.484375 6.890625 26.8125 6.890625 
Q 36.078125 6.890625 40.9375 10.546875 
Q 45.796875 14.203125 45.796875 21.1875 
Q 45.796875 27.640625 41.28125 31.265625 
Q 36.765625 34.90625 28.71875 34.90625 
L 20.21875 34.90625 
L 20.21875 43.015625 
L 29.109375 43.015625 
Q 36.375 43.015625 40.234375 45.921875 
Q 44.09375 48.828125 44.09375 54.296875 
Q 44.09375 59.90625 40.109375 62.90625 
Q 36.140625 65.921875 28.71875 65.921875 
Q 24.65625 65.921875 20.015625 65.03125 
Q 15.375 64.15625 9.8125 62.3125 
L 9.8125 71.09375 
Q 15.4375 72.65625 20.34375 73.4375 
Q 25.25 74.21875 29.59375 74.21875 
Q 40.828125 74.21875 47.359375 69.109375 
Q 53.90625 64.015625 53.90625 55.328125 
Q 53.90625 49.265625 50.4375 45.09375 
Q 46.96875 40.921875 40.578125 39.3125 
z
" id="DejaVuSans-51"/>
     <path d="M 11.71875 12.40625 
L 22.015625 12.40625 
L 22.015625 4 
L 14.015625 -11.625 
L 7.71875 -11.625 
L 11.71875 4 
z
" id="DejaVuSans-44"/>
     <path d="M 44.28125 53.078125 
L 44.28125 44.578125 
Q 40.484375 46.53125 36.375 47.5 
Q 32.28125 48.484375 27.875 48.484375 
Q 21.1875 48.484375 17.84375 46.4375 
Q 14.5 44.390625 14.5 40.28125 
Q 14.5 37.15625 16.890625 35.375 
Q 19.28125 33.59375 26.515625 31.984375 
L 29.59375 31.296875 
Q 39.15625 29.25 43.1875 25.515625 
Q 47.21875 21.78125 47.21875 15.09375 
Q 47.21875 7.46875 41.1875 3.015625 
Q 35.15625 -1.421875 24.609375 -1.421875 
Q 20.21875 -1.421875 15.453125 -0.5625 
Q 10.6875 0.296875 5.421875 2 
L 5.421875 11.28125 
Q 10.40625 8.6875 15.234375 7.390625 
Q 20.0625 6.109375 24.8125 6.109375 
Q 31.15625 6.109375 34.5625 8.28125 
Q 37.984375 10.453125 37.984375 14.40625 
Q 37.984375 18.0625 35.515625 20.015625 
Q 33.0625 21.96875 24.703125 23.78125 
L 21.578125 24.515625 
Q 13.234375 26.265625 9.515625 29.90625 
Q 5.8125 33.546875 5.8125 39.890625 
Q 5.8125 47.609375 11.28125 51.796875 
Q 16.75 56 26.8125 56 
Q 31.78125 56 36.171875 55.265625 
Q 40.578125 54.546875 44.28125 53.078125 
z
" id="DejaVuSans-115"/>
     <path d="M 18.109375 8.203125 
L 18.109375 -20.796875 
L 9.078125 -20.796875 
L 9.078125 54.6875 
L 18.109375 54.6875 
L 18.109375 46.390625 
Q 20.953125 51.265625 25.265625 53.625 
Q 29.59375 56 35.59375 56 
Q 45.5625 56 51.78125 48.09375 
Q 58.015625 40.1875 58.015625 27.296875 
Q 58.015625 14.40625 51.78125 6.484375 
Q 45.5625 -1.421875 35.59375 -1.421875 
Q 29.59375 -1.421875 25.265625 0.953125 
Q 20.953125 3.328125 18.109375 8.203125 
z
M 48.6875 27.296875 
Q 48.6875 37.203125 44.609375 42.84375 
Q 40.53125 48.484375 33.40625 48.484375 
Q 26.265625 48.484375 22.1875 42.84375 
Q 18.109375 37.203125 18.109375 27.296875 
Q 18.109375 17.390625 22.1875 11.75 
Q 26.265625 6.109375 33.40625 6.109375 
Q 40.53125 6.109375 44.609375 11.75 
Q 48.6875 17.390625 48.6875 27.296875 
z
" id="DejaVuSans-112"/>
     <path d="M 10.796875 72.90625 
L 49.515625 72.90625 
L 49.515625 64.59375 
L 19.828125 64.59375 
L 19.828125 46.734375 
Q 21.96875 47.46875 24.109375 47.828125 
Q 26.265625 48.1875 28.421875 48.1875 
Q 40.625 48.1875 47.75 41.5 
Q 54.890625 34.8125 54.890625 23.390625 
Q 54.890625 11.625 47.5625 5.09375 
Q 40.234375 -1.421875 26.90625 -1.421875 
Q 22.3125 -1.421875 17.546875 -0.640625 
Q 12.796875 0.140625 7.71875 1.703125 
L 7.71875 11.625 
Q 12.109375 9.234375 16.796875 8.0625 
Q 21.484375 6.890625 26.703125 6.890625 
Q 35.15625 6.890625 40.078125 11.328125 
Q 45.015625 15.765625 45.015625 23.390625 
Q 45.015625 31 40.078125 35.4375 
Q 35.15625 39.890625 26.703125 39.890625 
Q 22.75 39.890625 18.8125 39.015625 
Q 14.890625 38.140625 10.796875 36.28125 
z
" id="DejaVuSans-53"/>
     <path d="M 9.421875 54.6875 
L 18.40625 54.6875 
L 18.40625 -0.984375 
Q 18.40625 -11.421875 14.421875 -16.109375 
Q 10.453125 -20.796875 1.609375 -20.796875 
L -1.8125 -20.796875 
L -1.8125 -13.1875 
L 0.59375 -13.1875 
Q 5.71875 -13.1875 7.5625 -10.8125 
Q 9.421875 -8.453125 9.421875 -0.984375 
z
M 9.421875 75.984375 
L 18.40625 75.984375 
L 18.40625 64.59375 
L 9.421875 64.59375 
z
" id="DejaVuSans-106"/>
     <path d="M 45.40625 46.390625 
L 45.40625 75.984375 
L 54.390625 75.984375 
L 54.390625 0 
L 45.40625 0 
L 45.40625 8.203125 
Q 42.578125 3.328125 38.25 0.953125 
Q 33.9375 -1.421875 27.875 -1.421875 
Q 17.96875 -1.421875 11.734375 6.484375 
Q 5.515625 14.40625 5.515625 27.296875 
Q 5.515625 40.1875 11.734375 48.09375 
Q 17.96875 56 27.875 56 
Q 33.9375 56 38.25 53.625 
Q 42.578125 51.265625 45.40625 46.390625 
z
M 14.796875 27.296875 
Q 14.796875 17.390625 18.875 11.75 
Q 22.953125 6.109375 30.078125 6.109375 
Q 37.203125 6.109375 41.296875 11.75 
Q 45.40625 17.390625 45.40625 27.296875 
Q 45.40625 37.203125 41.296875 42.84375 
Q 37.203125 48.484375 30.078125 48.484375 
Q 22.953125 48.484375 18.875 42.84375 
Q 14.796875 37.203125 14.796875 27.296875 
z
" id="DejaVuSans-100"/>
     <path d="M 12.5 -9.28125 
L 15.921875 -9.28125 
Q 22.75 -9.28125 24.828125 -7.171875 
Q 26.90625 -5.078125 26.90625 1.90625 
L 26.90625 14.015625 
Q 26.90625 21.625 29.09375 25.09375 
Q 31.296875 28.5625 36.71875 29.890625 
Q 31.296875 31.109375 29.09375 34.5625 
Q 26.90625 38.03125 26.90625 45.703125 
L 26.90625 57.8125 
Q 26.90625 64.75 24.828125 66.875 
Q 22.75 69 15.921875 69 
L 12.5 69 
L 12.5 75.984375 
L 15.578125 75.984375 
Q 27.734375 75.984375 31.8125 72.390625 
Q 35.890625 68.796875 35.890625 58.015625 
L 35.890625 46.296875 
Q 35.890625 39.015625 38.515625 36.203125 
Q 41.15625 33.40625 48.09375 33.40625 
L 51.125 33.40625 
L 51.125 26.421875 
L 48.09375 26.421875 
Q 41.15625 26.421875 38.515625 23.578125 
Q 35.890625 20.75 35.890625 13.375 
L 35.890625 1.703125 
Q 35.890625 -9.078125 31.8125 -12.6875 
Q 27.734375 -16.3125 15.578125 -16.3125 
L 12.5 -16.3125 
z
" id="DejaVuSans-125"/>
    </defs>
    <g transform="translate(86.638125 35.472)scale(0.12 -0.12)">
     <use xlink:href="#DejaVuSans-123"/>
     <use x="63.623047" xlink:href="#DejaVuSans-39"/>
     <use x="91.113281" xlink:href="#DejaVuSans-109"/>
     <use x="188.525391" xlink:href="#DejaVuSans-97"/>
     <use x="249.804688" xlink:href="#DejaVuSans-101"/>
     <use x="311.328125" xlink:href="#DejaVuSans-39"/>
     <use x="338.818359" xlink:href="#DejaVuSans-58"/>
     <use x="372.509766" xlink:href="#DejaVuSans-32"/>
     <use x="404.296875" xlink:href="#DejaVuSans-52"/>
     <use x="467.919922" xlink:href="#DejaVuSans-54"/>
     <use x="531.542969" xlink:href="#DejaVuSans-57"/>
     <use x="595.166016" xlink:href="#DejaVuSans-50"/>
     <use x="658.789062" xlink:href="#DejaVuSans-56"/>
     <use x="722.412109" xlink:href="#DejaVuSans-56"/>
     <use x="786.035156" xlink:href="#DejaVuSans-46"/>
     <use x="817.822266" xlink:href="#DejaVuSans-57"/>
     <use x="881.445312" xlink:href="#DejaVuSans-54"/>
     <use x="945.068359" xlink:href="#DejaVuSans-51"/>
     <use x="1008.691406" xlink:href="#DejaVuSans-44"/>
     <use x="1040.478516" xlink:href="#DejaVuSans-32"/>
     <use x="1072.265625" xlink:href="#DejaVuSans-39"/>
     <use x="1099.755859" xlink:href="#DejaVuSans-115"/>
     <use x="1151.855469" xlink:href="#DejaVuSans-109"/>
     <use x="1249.267578" xlink:href="#DejaVuSans-97"/>
     <use x="1310.546875" xlink:href="#DejaVuSans-112"/>
     <use x="1374.023438" xlink:href="#DejaVuSans-101"/>
     <use x="1435.546875" xlink:href="#DejaVuSans-39"/>
     <use x="1463.037109" xlink:href="#DejaVuSans-58"/>
     <use x="1496.728516" xlink:href="#DejaVuSans-32"/>
     <use x="1528.515625" xlink:href="#DejaVuSans-49"/>
     <use x="1592.138672" xlink:href="#DejaVuSans-46"/>
     <use x="1623.925781" xlink:href="#DejaVuSans-49"/>
     <use x="1687.548828" xlink:href="#DejaVuSans-52"/>
     <use x="1751.171875" xlink:href="#DejaVuSans-53"/>
     <use x="1814.794922" xlink:href="#DejaVuSans-44"/>
     <use x="1846.582031" xlink:href="#DejaVuSans-32"/>
     <use x="1878.369141" xlink:href="#DejaVuSans-39"/>
     <use x="1905.859375" xlink:href="#DejaVuSans-106"/>
     <use x="1933.642578" xlink:href="#DejaVuSans-115"/>
     <use x="1985.742188" xlink:href="#DejaVuSans-100"/>
     <use x="2049.21875" xlink:href="#DejaVuSans-39"/>
     <use x="2076.708984" xlink:href="#DejaVuSans-58"/>
     <use x="2110.400391" xlink:href="#DejaVuSans-32"/>
     <use x="2142.1875" xlink:href="#DejaVuSans-48"/>
     <use x="2205.810547" xlink:href="#DejaVuSans-46"/>
     <use x="2237.597656" xlink:href="#DejaVuSans-53"/>
     <use x="2301.220703" xlink:href="#DejaVuSans-52"/>
     <use x="2364.84375" xlink:href="#DejaVuSans-52"/>
     <use x="2428.466797" xlink:href="#DejaVuSans-125"/>
    </g>
   </g>
   <g id="legend_1">
    <g id="patch_207">
     <path d="M 340.565313 78.82825 
L 407.72 78.82825 
Q 409.72 78.82825 409.72 76.82825 
L 409.72 48.472 
Q 409.72 46.472 407.72 46.472 
L 340.565313 46.472 
Q 338.565313 46.472 338.565313 48.472 
L 338.565313 76.82825 
Q 338.565313 78.82825 340.565313 78.82825 
z
" style="fill:#ffffff;opacity:0.8;stroke:#cccccc;stroke-linejoin:miter;"/>
    </g>
    <g id="patch_208">
     <path d="M 342.565313 58.070437 
L 362.565313 58.070437 
L 362.565313 51.070437 
L 342.565313 51.070437 
z
" style="fill:#f48024;opacity:0.4;"/>
    </g>
    <g id="text_16">
     <!-- actual -->
     <defs>
      <path d="M 48.78125 52.59375 
L 48.78125 44.1875 
Q 44.96875 46.296875 41.140625 47.34375 
Q 37.3125 48.390625 33.40625 48.390625 
Q 24.65625 48.390625 19.8125 42.84375 
Q 14.984375 37.3125 14.984375 27.296875 
Q 14.984375 17.28125 19.8125 11.734375 
Q 24.65625 6.203125 33.40625 6.203125 
Q 37.3125 6.203125 41.140625 7.25 
Q 44.96875 8.296875 48.78125 10.40625 
L 48.78125 2.09375 
Q 45.015625 0.34375 40.984375 -0.53125 
Q 36.96875 -1.421875 32.421875 -1.421875 
Q 20.0625 -1.421875 12.78125 6.34375 
Q 5.515625 14.109375 5.515625 27.296875 
Q 5.515625 40.671875 12.859375 48.328125 
Q 20.21875 56 33.015625 56 
Q 37.15625 56 41.109375 55.140625 
Q 45.0625 54.296875 48.78125 52.59375 
z
" id="DejaVuSans-99"/>
      <path d="M 18.3125 70.21875 
L 18.3125 54.6875 
L 36.8125 54.6875 
L 36.8125 47.703125 
L 18.3125 47.703125 
L 18.3125 18.015625 
Q 18.3125 11.328125 20.140625 9.421875 
Q 21.96875 7.515625 27.59375 7.515625 
L 36.8125 7.515625 
L 36.8125 0 
L 27.59375 0 
Q 17.1875 0 13.234375 3.875 
Q 9.28125 7.765625 9.28125 18.015625 
L 9.28125 47.703125 
L 2.6875 47.703125 
L 2.6875 54.6875 
L 9.28125 54.6875 
L 9.28125 70.21875 
z
" id="DejaVuSans-116"/>
      <path d="M 8.5 21.578125 
L 8.5 54.6875 
L 17.484375 54.6875 
L 17.484375 21.921875 
Q 17.484375 14.15625 20.5 10.265625 
Q 23.53125 6.390625 29.59375 6.390625 
Q 36.859375 6.390625 41.078125 11.03125 
Q 45.3125 15.671875 45.3125 23.6875 
L 45.3125 54.6875 
L 54.296875 54.6875 
L 54.296875 0 
L 45.3125 0 
L 45.3125 8.40625 
Q 42.046875 3.421875 37.71875 1 
Q 33.40625 -1.421875 27.6875 -1.421875 
Q 18.265625 -1.421875 13.375 4.4375 
Q 8.5 10.296875 8.5 21.578125 
z
M 31.109375 56 
z
" id="DejaVuSans-117"/>
      <path d="M 9.421875 75.984375 
L 18.40625 75.984375 
L 18.40625 0 
L 9.421875 0 
z
" id="DejaVuSans-108"/>
     </defs>
     <g transform="translate(370.565313 58.070437)scale(0.1 -0.1)">
      <use xlink:href="#DejaVuSans-97"/>
      <use x="61.279297" xlink:href="#DejaVuSans-99"/>
      <use x="116.259766" xlink:href="#DejaVuSans-116"/>
      <use x="155.46875" xlink:href="#DejaVuSans-117"/>
      <use x="218.847656" xlink:href="#DejaVuSans-97"/>
      <use x="280.126953" xlink:href="#DejaVuSans-108"/>
     </g>
    </g>
    <g id="patch_209">
     <path d="M 342.565313 72.748562 
L 362.565313 72.748562 
L 362.565313 65.748562 
L 342.565313 65.748562 
z
" style="fill:#008000;opacity:0.4;"/>
    </g>
    <g id="text_17">
     <!-- predict -->
     <defs>
      <path d="M 41.109375 46.296875 
Q 39.59375 47.171875 37.8125 47.578125 
Q 36.03125 48 33.890625 48 
Q 26.265625 48 22.1875 43.046875 
Q 18.109375 38.09375 18.109375 28.8125 
L 18.109375 0 
L 9.078125 0 
L 9.078125 54.6875 
L 18.109375 54.6875 
L 18.109375 46.1875 
Q 20.953125 51.171875 25.484375 53.578125 
Q 30.03125 56 36.53125 56 
Q 37.453125 56 38.578125 55.875 
Q 39.703125 55.765625 41.0625 55.515625 
z
" id="DejaVuSans-114"/>
      <path d="M 9.421875 54.6875 
L 18.40625 54.6875 
L 18.40625 0 
L 9.421875 0 
z
M 9.421875 75.984375 
L 18.40625 75.984375 
L 18.40625 64.59375 
L 9.421875 64.59375 
z
" id="DejaVuSans-105"/>
     </defs>
     <g transform="translate(370.565313 72.748562)scale(0.1 -0.1)">
      <use xlink:href="#DejaVuSans-112"/>
      <use x="63.476562" xlink:href="#DejaVuSans-114"/>
      <use x="104.558594" xlink:href="#DejaVuSans-101"/>
      <use x="166.082031" xlink:href="#DejaVuSans-100"/>
      <use x="229.558594" xlink:href="#DejaVuSans-105"/>
      <use x="257.341797" xlink:href="#DejaVuSans-99"/>
      <use x="312.322266" xlink:href="#DejaVuSans-116"/>
     </g>
    </g>
   </g>
  </g>
 </g>
 <defs>
  <clipPath id="p5c1c53e2e5">
   <rect height="266.112" width="357.12" x="57.6" y="41.472"/>
  </clipPath>
 </defs>
</svg>
