<?xml version="1.0" encoding="utf-8" standalone="no"?>
<!DOCTYPE svg PUBLIC "-//W3C//DTD SVG 1.1//EN"
  "http://www.w3.org/Graphics/SVG/1.1/DTD/svg11.dtd">
<!-- Created with matplotlib (https://matplotlib.org/) -->
<svg height="345.6pt" version="1.1" viewBox="0 0 460.8 345.6" width="460.8pt" xmlns="http://www.w3.org/2000/svg" xmlns:xlink="http://www.w3.org/1999/xlink">
 <defs>
  <style type="text/css">
*{stroke-linecap:butt;stroke-linejoin:round;}
  </style>
 </defs>
 <g id="figure_1">
  <g id="patch_1">
   <path d="M 0 345.6 
L 460.8 345.6 
L 460.8 0 
L 0 0 
z
" style="fill:#ffffff;"/>
  </g>
  <g id="axes_1">
   <g id="patch_2">
    <path d="M 57.6 307.584 
L 414.72 307.584 
L 414.72 41.472 
L 57.6 41.472 
z
" style="fill:#ffffff;"/>
   </g>
   <g id="patch_3">
    <path clip-path="url(#p72019b0043)" d="M 115.320448 307.584 
L 117.73724 307.584 
L 117.73724 302.976 
L 115.320448 302.976 
z
" style="fill:#f48024;opacity:0.4;"/>
   </g>
   <g id="patch_4">
    <path clip-path="url(#p72019b0043)" d="M 117.73724 307.584 
L 120.154031 307.584 
L 120.154031 307.584 
L 117.73724 307.584 
z
" style="fill:#f48024;opacity:0.4;"/>
   </g>
   <g id="patch_5">
    <path clip-path="url(#p72019b0043)" d="M 120.154031 307.584 
L 122.570822 307.584 
L 122.570822 298.368 
L 120.154031 298.368 
z
" style="fill:#f48024;opacity:0.4;"/>
   </g>
   <g id="patch_6">
    <path clip-path="url(#p72019b0043)" d="M 122.570822 307.584 
L 124.987613 307.584 
L 124.987613 302.976 
L 122.570822 302.976 
z
" style="fill:#f48024;opacity:0.4;"/>
   </g>
   <g id="patch_7">
    <path clip-path="url(#p72019b0043)" d="M 124.987613 307.584 
L 127.404404 307.584 
L 127.404404 298.368 
L 124.987613 298.368 
z
" style="fill:#f48024;opacity:0.4;"/>
   </g>
   <g id="patch_8">
    <path clip-path="url(#p72019b0043)" d="M 127.404404 307.584 
L 129.821195 307.584 
L 129.821195 307.584 
L 127.404404 307.584 
z
" style="fill:#f48024;opacity:0.4;"/>
   </g>
   <g id="patch_9">
    <path clip-path="url(#p72019b0043)" d="M 129.821195 307.584 
L 132.237986 307.584 
L 132.237986 289.152 
L 129.821195 289.152 
z
" style="fill:#f48024;opacity:0.4;"/>
   </g>
   <g id="patch_10">
    <path clip-path="url(#p72019b0043)" d="M 132.237986 307.584 
L 134.654777 307.584 
L 134.654777 284.544 
L 132.237986 284.544 
z
" style="fill:#f48024;opacity:0.4;"/>
   </g>
   <g id="patch_11">
    <path clip-path="url(#p72019b0043)" d="M 134.654777 307.584 
L 137.071568 307.584 
L 137.071568 284.544 
L 134.654777 284.544 
z
" style="fill:#f48024;opacity:0.4;"/>
   </g>
   <g id="patch_12">
    <path clip-path="url(#p72019b0043)" d="M 137.071568 307.584 
L 139.488359 307.584 
L 139.488359 279.936 
L 137.071568 279.936 
z
" style="fill:#f48024;opacity:0.4;"/>
   </g>
   <g id="patch_13">
    <path clip-path="url(#p72019b0043)" d="M 139.488359 307.584 
L 141.90515 307.584 
L 141.90515 279.936 
L 139.488359 279.936 
z
" style="fill:#f48024;opacity:0.4;"/>
   </g>
   <g id="patch_14">
    <path clip-path="url(#p72019b0043)" d="M 141.90515 307.584 
L 144.321941 307.584 
L 144.321941 252.288 
L 141.90515 252.288 
z
" style="fill:#f48024;opacity:0.4;"/>
   </g>
   <g id="patch_15">
    <path clip-path="url(#p72019b0043)" d="M 144.321941 307.584 
L 146.738732 307.584 
L 146.738732 233.856 
L 144.321941 233.856 
z
" style="fill:#f48024;opacity:0.4;"/>
   </g>
   <g id="patch_16">
    <path clip-path="url(#p72019b0043)" d="M 146.738732 307.584 
L 149.155523 307.584 
L 149.155523 187.776 
L 146.738732 187.776 
z
" style="fill:#f48024;opacity:0.4;"/>
   </g>
   <g id="patch_17">
    <path clip-path="url(#p72019b0043)" d="M 149.155523 307.584 
L 151.572314 307.584 
L 151.572314 206.208 
L 149.155523 206.208 
z
" style="fill:#f48024;opacity:0.4;"/>
   </g>
   <g id="patch_18">
    <path clip-path="url(#p72019b0043)" d="M 151.572314 307.584 
L 153.989105 307.584 
L 153.989105 201.6 
L 151.572314 201.6 
z
" style="fill:#f48024;opacity:0.4;"/>
   </g>
   <g id="patch_19">
    <path clip-path="url(#p72019b0043)" d="M 153.989105 307.584 
L 156.405896 307.584 
L 156.405896 192.384 
L 153.989105 192.384 
z
" style="fill:#f48024;opacity:0.4;"/>
   </g>
   <g id="patch_20">
    <path clip-path="url(#p72019b0043)" d="M 156.405896 307.584 
L 158.822687 307.584 
L 158.822687 169.344 
L 156.405896 169.344 
z
" style="fill:#f48024;opacity:0.4;"/>
   </g>
   <g id="patch_21">
    <path clip-path="url(#p72019b0043)" d="M 158.822687 307.584 
L 161.239478 307.584 
L 161.239478 196.992 
L 158.822687 196.992 
z
" style="fill:#f48024;opacity:0.4;"/>
   </g>
   <g id="patch_22">
    <path clip-path="url(#p72019b0043)" d="M 161.239478 307.584 
L 163.656269 307.584 
L 163.656269 196.992 
L 161.239478 196.992 
z
" style="fill:#f48024;opacity:0.4;"/>
   </g>
   <g id="patch_23">
    <path clip-path="url(#p72019b0043)" d="M 163.656269 307.584 
L 166.07306 307.584 
L 166.07306 183.168 
L 163.656269 183.168 
z
" style="fill:#f48024;opacity:0.4;"/>
   </g>
   <g id="patch_24">
    <path clip-path="url(#p72019b0043)" d="M 166.07306 307.584 
L 168.489851 307.584 
L 168.489851 150.912 
L 166.07306 150.912 
z
" style="fill:#f48024;opacity:0.4;"/>
   </g>
   <g id="patch_25">
    <path clip-path="url(#p72019b0043)" d="M 168.489851 307.584 
L 170.906642 307.584 
L 170.906642 155.52 
L 168.489851 155.52 
z
" style="fill:#f48024;opacity:0.4;"/>
   </g>
   <g id="patch_26">
    <path clip-path="url(#p72019b0043)" d="M 170.906642 307.584 
L 173.323433 307.584 
L 173.323433 137.088 
L 170.906642 137.088 
z
" style="fill:#f48024;opacity:0.4;"/>
   </g>
   <g id="patch_27">
    <path clip-path="url(#p72019b0043)" d="M 173.323433 307.584 
L 175.740224 307.584 
L 175.740224 109.44 
L 173.323433 109.44 
z
" style="fill:#f48024;opacity:0.4;"/>
   </g>
   <g id="patch_28">
    <path clip-path="url(#p72019b0043)" d="M 175.740224 307.584 
L 178.157015 307.584 
L 178.157015 100.224 
L 175.740224 100.224 
z
" style="fill:#f48024;opacity:0.4;"/>
   </g>
   <g id="patch_29">
    <path clip-path="url(#p72019b0043)" d="M 178.157015 307.584 
L 180.573806 307.584 
L 180.573806 54.144 
L 178.157015 54.144 
z
" style="fill:#f48024;opacity:0.4;"/>
   </g>
   <g id="patch_30">
    <path clip-path="url(#p72019b0043)" d="M 180.573806 307.584 
L 182.990597 307.584 
L 182.990597 127.872 
L 180.573806 127.872 
z
" style="fill:#f48024;opacity:0.4;"/>
   </g>
   <g id="patch_31">
    <path clip-path="url(#p72019b0043)" d="M 182.990597 307.584 
L 185.407388 307.584 
L 185.407388 160.128 
L 182.990597 160.128 
z
" style="fill:#f48024;opacity:0.4;"/>
   </g>
   <g id="patch_32">
    <path clip-path="url(#p72019b0043)" d="M 185.407388 307.584 
L 187.824179 307.584 
L 187.824179 63.36 
L 185.407388 63.36 
z
" style="fill:#f48024;opacity:0.4;"/>
   </g>
   <g id="patch_33">
    <path clip-path="url(#p72019b0043)" d="M 187.824179 307.584 
L 190.24097 307.584 
L 190.24097 141.696 
L 187.824179 141.696 
z
" style="fill:#f48024;opacity:0.4;"/>
   </g>
   <g id="patch_34">
    <path clip-path="url(#p72019b0043)" d="M 190.24097 307.584 
L 192.657761 307.584 
L 192.657761 141.696 
L 190.24097 141.696 
z
" style="fill:#f48024;opacity:0.4;"/>
   </g>
   <g id="patch_35">
    <path clip-path="url(#p72019b0043)" d="M 192.657761 307.584 
L 195.074552 307.584 
L 195.074552 132.48 
L 192.657761 132.48 
z
" style="fill:#f48024;opacity:0.4;"/>
   </g>
   <g id="patch_36">
    <path clip-path="url(#p72019b0043)" d="M 195.074552 307.584 
L 197.491344 307.584 
L 197.491344 164.736 
L 195.074552 164.736 
z
" style="fill:#f48024;opacity:0.4;"/>
   </g>
   <g id="patch_37">
    <path clip-path="url(#p72019b0043)" d="M 197.491344 307.584 
L 199.908135 307.584 
L 199.908135 183.168 
L 197.491344 183.168 
z
" style="fill:#f48024;opacity:0.4;"/>
   </g>
   <g id="patch_38">
    <path clip-path="url(#p72019b0043)" d="M 199.908135 307.584 
L 202.324926 307.584 
L 202.324926 137.088 
L 199.908135 137.088 
z
" style="fill:#f48024;opacity:0.4;"/>
   </g>
   <g id="patch_39">
    <path clip-path="url(#p72019b0043)" d="M 202.324926 307.584 
L 204.741717 307.584 
L 204.741717 127.872 
L 202.324926 127.872 
z
" style="fill:#f48024;opacity:0.4;"/>
   </g>
   <g id="patch_40">
    <path clip-path="url(#p72019b0043)" d="M 204.741717 307.584 
L 207.158508 307.584 
L 207.158508 146.304 
L 204.741717 146.304 
z
" style="fill:#f48024;opacity:0.4;"/>
   </g>
   <g id="patch_41">
    <path clip-path="url(#p72019b0043)" d="M 207.158508 307.584 
L 209.575299 307.584 
L 209.575299 187.776 
L 207.158508 187.776 
z
" style="fill:#f48024;opacity:0.4;"/>
   </g>
   <g id="patch_42">
    <path clip-path="url(#p72019b0043)" d="M 209.575299 307.584 
L 211.99209 307.584 
L 211.99209 206.208 
L 209.575299 206.208 
z
" style="fill:#f48024;opacity:0.4;"/>
   </g>
   <g id="patch_43">
    <path clip-path="url(#p72019b0043)" d="M 211.99209 307.584 
L 214.408881 307.584 
L 214.408881 229.248 
L 211.99209 229.248 
z
" style="fill:#f48024;opacity:0.4;"/>
   </g>
   <g id="patch_44">
    <path clip-path="url(#p72019b0043)" d="M 214.408881 307.584 
L 216.825672 307.584 
L 216.825672 243.072 
L 214.408881 243.072 
z
" style="fill:#f48024;opacity:0.4;"/>
   </g>
   <g id="patch_45">
    <path clip-path="url(#p72019b0043)" d="M 216.825672 307.584 
L 219.242463 307.584 
L 219.242463 238.464 
L 216.825672 238.464 
z
" style="fill:#f48024;opacity:0.4;"/>
   </g>
   <g id="patch_46">
    <path clip-path="url(#p72019b0043)" d="M 219.242463 307.584 
L 221.659254 307.584 
L 221.659254 233.856 
L 219.242463 233.856 
z
" style="fill:#f48024;opacity:0.4;"/>
   </g>
   <g id="patch_47">
    <path clip-path="url(#p72019b0043)" d="M 221.659254 307.584 
L 224.076045 307.584 
L 224.076045 261.504 
L 221.659254 261.504 
z
" style="fill:#f48024;opacity:0.4;"/>
   </g>
   <g id="patch_48">
    <path clip-path="url(#p72019b0043)" d="M 224.076045 307.584 
L 226.492836 307.584 
L 226.492836 247.68 
L 224.076045 247.68 
z
" style="fill:#f48024;opacity:0.4;"/>
   </g>
   <g id="patch_49">
    <path clip-path="url(#p72019b0043)" d="M 226.492836 307.584 
L 228.909627 307.584 
L 228.909627 266.112 
L 226.492836 266.112 
z
" style="fill:#f48024;opacity:0.4;"/>
   </g>
   <g id="patch_50">
    <path clip-path="url(#p72019b0043)" d="M 228.909627 307.584 
L 231.326418 307.584 
L 231.326418 270.72 
L 228.909627 270.72 
z
" style="fill:#f48024;opacity:0.4;"/>
   </g>
   <g id="patch_51">
    <path clip-path="url(#p72019b0043)" d="M 231.326418 307.584 
L 233.743209 307.584 
L 233.743209 279.936 
L 231.326418 279.936 
z
" style="fill:#f48024;opacity:0.4;"/>
   </g>
   <g id="patch_52">
    <path clip-path="url(#p72019b0043)" d="M 233.743209 307.584 
L 236.16 307.584 
L 236.16 256.896 
L 233.743209 256.896 
z
" style="fill:#f48024;opacity:0.4;"/>
   </g>
   <g id="patch_53">
    <path clip-path="url(#p72019b0043)" d="M 236.16 307.584 
L 238.576791 307.584 
L 238.576791 275.328 
L 236.16 275.328 
z
" style="fill:#f48024;opacity:0.4;"/>
   </g>
   <g id="patch_54">
    <path clip-path="url(#p72019b0043)" d="M 238.576791 307.584 
L 240.993582 307.584 
L 240.993582 289.152 
L 238.576791 289.152 
z
" style="fill:#f48024;opacity:0.4;"/>
   </g>
   <g id="patch_55">
    <path clip-path="url(#p72019b0043)" d="M 240.993582 307.584 
L 243.410373 307.584 
L 243.410373 298.368 
L 240.993582 298.368 
z
" style="fill:#f48024;opacity:0.4;"/>
   </g>
   <g id="patch_56">
    <path clip-path="url(#p72019b0043)" d="M 243.410373 307.584 
L 245.827164 307.584 
L 245.827164 293.76 
L 243.410373 293.76 
z
" style="fill:#f48024;opacity:0.4;"/>
   </g>
   <g id="patch_57">
    <path clip-path="url(#p72019b0043)" d="M 245.827164 307.584 
L 248.243955 307.584 
L 248.243955 298.368 
L 245.827164 298.368 
z
" style="fill:#f48024;opacity:0.4;"/>
   </g>
   <g id="patch_58">
    <path clip-path="url(#p72019b0043)" d="M 248.243955 307.584 
L 250.660746 307.584 
L 250.660746 289.152 
L 248.243955 289.152 
z
" style="fill:#f48024;opacity:0.4;"/>
   </g>
   <g id="patch_59">
    <path clip-path="url(#p72019b0043)" d="M 250.660746 307.584 
L 253.077537 307.584 
L 253.077537 284.544 
L 250.660746 284.544 
z
" style="fill:#f48024;opacity:0.4;"/>
   </g>
   <g id="patch_60">
    <path clip-path="url(#p72019b0043)" d="M 253.077537 307.584 
L 255.494328 307.584 
L 255.494328 284.544 
L 253.077537 284.544 
z
" style="fill:#f48024;opacity:0.4;"/>
   </g>
   <g id="patch_61">
    <path clip-path="url(#p72019b0043)" d="M 255.494328 307.584 
L 257.911119 307.584 
L 257.911119 289.152 
L 255.494328 289.152 
z
" style="fill:#f48024;opacity:0.4;"/>
   </g>
   <g id="patch_62">
    <path clip-path="url(#p72019b0043)" d="M 257.911119 307.584 
L 260.32791 307.584 
L 260.32791 279.936 
L 257.911119 279.936 
z
" style="fill:#f48024;opacity:0.4;"/>
   </g>
   <g id="patch_63">
    <path clip-path="url(#p72019b0043)" d="M 260.32791 307.584 
L 262.744701 307.584 
L 262.744701 289.152 
L 260.32791 289.152 
z
" style="fill:#f48024;opacity:0.4;"/>
   </g>
   <g id="patch_64">
    <path clip-path="url(#p72019b0043)" d="M 262.744701 307.584 
L 265.161492 307.584 
L 265.161492 293.76 
L 262.744701 293.76 
z
" style="fill:#f48024;opacity:0.4;"/>
   </g>
   <g id="patch_65">
    <path clip-path="url(#p72019b0043)" d="M 265.161492 307.584 
L 267.578283 307.584 
L 267.578283 298.368 
L 265.161492 298.368 
z
" style="fill:#f48024;opacity:0.4;"/>
   </g>
   <g id="patch_66">
    <path clip-path="url(#p72019b0043)" d="M 267.578283 307.584 
L 269.995074 307.584 
L 269.995074 275.328 
L 267.578283 275.328 
z
" style="fill:#f48024;opacity:0.4;"/>
   </g>
   <g id="patch_67">
    <path clip-path="url(#p72019b0043)" d="M 269.995074 307.584 
L 272.411865 307.584 
L 272.411865 298.368 
L 269.995074 298.368 
z
" style="fill:#f48024;opacity:0.4;"/>
   </g>
   <g id="patch_68">
    <path clip-path="url(#p72019b0043)" d="M 272.411865 307.584 
L 274.828656 307.584 
L 274.828656 284.544 
L 272.411865 284.544 
z
" style="fill:#f48024;opacity:0.4;"/>
   </g>
   <g id="patch_69">
    <path clip-path="url(#p72019b0043)" d="M 274.828656 307.584 
L 277.245448 307.584 
L 277.245448 289.152 
L 274.828656 289.152 
z
" style="fill:#f48024;opacity:0.4;"/>
   </g>
   <g id="patch_70">
    <path clip-path="url(#p72019b0043)" d="M 277.245448 307.584 
L 279.662239 307.584 
L 279.662239 266.112 
L 277.245448 266.112 
z
" style="fill:#f48024;opacity:0.4;"/>
   </g>
   <g id="patch_71">
    <path clip-path="url(#p72019b0043)" d="M 279.662239 307.584 
L 282.07903 307.584 
L 282.07903 243.072 
L 279.662239 243.072 
z
" style="fill:#f48024;opacity:0.4;"/>
   </g>
   <g id="patch_72">
    <path clip-path="url(#p72019b0043)" d="M 282.07903 307.584 
L 284.495821 307.584 
L 284.495821 266.112 
L 282.07903 266.112 
z
" style="fill:#f48024;opacity:0.4;"/>
   </g>
   <g id="patch_73">
    <path clip-path="url(#p72019b0043)" d="M 284.495821 307.584 
L 286.912612 307.584 
L 286.912612 261.504 
L 284.495821 261.504 
z
" style="fill:#f48024;opacity:0.4;"/>
   </g>
   <g id="patch_74">
    <path clip-path="url(#p72019b0043)" d="M 286.912612 307.584 
L 289.329403 307.584 
L 289.329403 261.504 
L 286.912612 261.504 
z
" style="fill:#f48024;opacity:0.4;"/>
   </g>
   <g id="patch_75">
    <path clip-path="url(#p72019b0043)" d="M 289.329403 307.584 
L 291.746194 307.584 
L 291.746194 252.288 
L 289.329403 252.288 
z
" style="fill:#f48024;opacity:0.4;"/>
   </g>
   <g id="patch_76">
    <path clip-path="url(#p72019b0043)" d="M 291.746194 307.584 
L 294.162985 307.584 
L 294.162985 215.424 
L 291.746194 215.424 
z
" style="fill:#f48024;opacity:0.4;"/>
   </g>
   <g id="patch_77">
    <path clip-path="url(#p72019b0043)" d="M 294.162985 307.584 
L 296.579776 307.584 
L 296.579776 220.032 
L 294.162985 220.032 
z
" style="fill:#f48024;opacity:0.4;"/>
   </g>
   <g id="patch_78">
    <path clip-path="url(#p72019b0043)" d="M 296.579776 307.584 
L 298.996567 307.584 
L 298.996567 127.872 
L 296.579776 127.872 
z
" style="fill:#f48024;opacity:0.4;"/>
   </g>
   <g id="patch_79">
    <path clip-path="url(#p72019b0043)" d="M 298.996567 307.584 
L 301.413358 307.584 
L 301.413358 160.128 
L 298.996567 160.128 
z
" style="fill:#f48024;opacity:0.4;"/>
   </g>
   <g id="patch_80">
    <path clip-path="url(#p72019b0043)" d="M 301.413358 307.584 
L 303.830149 307.584 
L 303.830149 137.088 
L 301.413358 137.088 
z
" style="fill:#f48024;opacity:0.4;"/>
   </g>
   <g id="patch_81">
    <path clip-path="url(#p72019b0043)" d="M 303.830149 307.584 
L 306.24694 307.584 
L 306.24694 109.44 
L 303.830149 109.44 
z
" style="fill:#f48024;opacity:0.4;"/>
   </g>
   <g id="patch_82">
    <path clip-path="url(#p72019b0043)" d="M 306.24694 307.584 
L 308.663731 307.584 
L 308.663731 118.656 
L 306.24694 118.656 
z
" style="fill:#f48024;opacity:0.4;"/>
   </g>
   <g id="patch_83">
    <path clip-path="url(#p72019b0043)" d="M 308.663731 307.584 
L 311.080522 307.584 
L 311.080522 141.696 
L 308.663731 141.696 
z
" style="fill:#f48024;opacity:0.4;"/>
   </g>
   <g id="patch_84">
    <path clip-path="url(#p72019b0043)" d="M 311.080522 307.584 
L 313.497313 307.584 
L 313.497313 160.128 
L 311.080522 160.128 
z
" style="fill:#f48024;opacity:0.4;"/>
   </g>
   <g id="patch_85">
    <path clip-path="url(#p72019b0043)" d="M 313.497313 307.584 
L 315.914104 307.584 
L 315.914104 141.696 
L 313.497313 141.696 
z
" style="fill:#f48024;opacity:0.4;"/>
   </g>
   <g id="patch_86">
    <path clip-path="url(#p72019b0043)" d="M 315.914104 307.584 
L 318.330895 307.584 
L 318.330895 229.248 
L 315.914104 229.248 
z
" style="fill:#f48024;opacity:0.4;"/>
   </g>
   <g id="patch_87">
    <path clip-path="url(#p72019b0043)" d="M 318.330895 307.584 
L 320.747686 307.584 
L 320.747686 224.64 
L 318.330895 224.64 
z
" style="fill:#f48024;opacity:0.4;"/>
   </g>
   <g id="patch_88">
    <path clip-path="url(#p72019b0043)" d="M 320.747686 307.584 
L 323.164477 307.584 
L 323.164477 233.856 
L 320.747686 233.856 
z
" style="fill:#f48024;opacity:0.4;"/>
   </g>
   <g id="patch_89">
    <path clip-path="url(#p72019b0043)" d="M 323.164477 307.584 
L 325.581268 307.584 
L 325.581268 215.424 
L 323.164477 215.424 
z
" style="fill:#f48024;opacity:0.4;"/>
   </g>
   <g id="patch_90">
    <path clip-path="url(#p72019b0043)" d="M 325.581268 307.584 
L 327.998059 307.584 
L 327.998059 247.68 
L 325.581268 247.68 
z
" style="fill:#f48024;opacity:0.4;"/>
   </g>
   <g id="patch_91">
    <path clip-path="url(#p72019b0043)" d="M 327.998059 307.584 
L 330.41485 307.584 
L 330.41485 256.896 
L 327.998059 256.896 
z
" style="fill:#f48024;opacity:0.4;"/>
   </g>
   <g id="patch_92">
    <path clip-path="url(#p72019b0043)" d="M 330.41485 307.584 
L 332.831641 307.584 
L 332.831641 279.936 
L 330.41485 279.936 
z
" style="fill:#f48024;opacity:0.4;"/>
   </g>
   <g id="patch_93">
    <path clip-path="url(#p72019b0043)" d="M 332.831641 307.584 
L 335.248432 307.584 
L 335.248432 275.328 
L 332.831641 275.328 
z
" style="fill:#f48024;opacity:0.4;"/>
   </g>
   <g id="patch_94">
    <path clip-path="url(#p72019b0043)" d="M 335.248432 307.584 
L 337.665223 307.584 
L 337.665223 293.76 
L 335.248432 293.76 
z
" style="fill:#f48024;opacity:0.4;"/>
   </g>
   <g id="patch_95">
    <path clip-path="url(#p72019b0043)" d="M 337.665223 307.584 
L 340.082014 307.584 
L 340.082014 298.368 
L 337.665223 298.368 
z
" style="fill:#f48024;opacity:0.4;"/>
   </g>
   <g id="patch_96">
    <path clip-path="url(#p72019b0043)" d="M 340.082014 307.584 
L 342.498805 307.584 
L 342.498805 293.76 
L 340.082014 293.76 
z
" style="fill:#f48024;opacity:0.4;"/>
   </g>
   <g id="patch_97">
    <path clip-path="url(#p72019b0043)" d="M 342.498805 307.584 
L 344.915596 307.584 
L 344.915596 289.152 
L 342.498805 289.152 
z
" style="fill:#f48024;opacity:0.4;"/>
   </g>
   <g id="patch_98">
    <path clip-path="url(#p72019b0043)" d="M 344.915596 307.584 
L 347.332387 307.584 
L 347.332387 302.976 
L 344.915596 302.976 
z
" style="fill:#f48024;opacity:0.4;"/>
   </g>
   <g id="patch_99">
    <path clip-path="url(#p72019b0043)" d="M 347.332387 307.584 
L 349.749178 307.584 
L 349.749178 307.584 
L 347.332387 307.584 
z
" style="fill:#f48024;opacity:0.4;"/>
   </g>
   <g id="patch_100">
    <path clip-path="url(#p72019b0043)" d="M 349.749178 307.584 
L 352.165969 307.584 
L 352.165969 307.584 
L 349.749178 307.584 
z
" style="fill:#f48024;opacity:0.4;"/>
   </g>
   <g id="patch_101">
    <path clip-path="url(#p72019b0043)" d="M 352.165969 307.584 
L 354.58276 307.584 
L 354.58276 302.976 
L 352.165969 302.976 
z
" style="fill:#f48024;opacity:0.4;"/>
   </g>
   <g id="patch_102">
    <path clip-path="url(#p72019b0043)" d="M 354.58276 307.584 
L 356.999552 307.584 
L 356.999552 302.976 
L 354.58276 302.976 
z
" style="fill:#f48024;opacity:0.4;"/>
   </g>
   <g id="patch_103">
    <path clip-path="url(#p72019b0043)" d="M 117.57486 307.584 
L 119.937159 307.584 
L 119.937159 302.869705 
L 117.57486 302.869705 
z
" style="fill:#008000;opacity:0.4;"/>
   </g>
   <g id="patch_104">
    <path clip-path="url(#p72019b0043)" d="M 119.937159 307.584 
L 122.299457 307.584 
L 122.299457 307.584 
L 119.937159 307.584 
z
" style="fill:#008000;opacity:0.4;"/>
   </g>
   <g id="patch_105">
    <path clip-path="url(#p72019b0043)" d="M 122.299457 307.584 
L 124.661756 307.584 
L 124.661756 298.155409 
L 122.299457 298.155409 
z
" style="fill:#008000;opacity:0.4;"/>
   </g>
   <g id="patch_106">
    <path clip-path="url(#p72019b0043)" d="M 124.661756 307.584 
L 127.024054 307.584 
L 127.024054 302.869705 
L 124.661756 302.869705 
z
" style="fill:#008000;opacity:0.4;"/>
   </g>
   <g id="patch_107">
    <path clip-path="url(#p72019b0043)" d="M 127.024054 307.584 
L 129.386353 307.584 
L 129.386353 293.441114 
L 127.024054 293.441114 
z
" style="fill:#008000;opacity:0.4;"/>
   </g>
   <g id="patch_108">
    <path clip-path="url(#p72019b0043)" d="M 129.386353 307.584 
L 131.748651 307.584 
L 131.748651 298.155409 
L 129.386353 298.155409 
z
" style="fill:#008000;opacity:0.4;"/>
   </g>
   <g id="patch_109">
    <path clip-path="url(#p72019b0043)" d="M 131.748651 307.584 
L 134.11095 307.584 
L 134.11095 293.441114 
L 131.748651 293.441114 
z
" style="fill:#008000;opacity:0.4;"/>
   </g>
   <g id="patch_110">
    <path clip-path="url(#p72019b0043)" d="M 134.11095 307.584 
L 136.473248 307.584 
L 136.473248 288.726818 
L 134.11095 288.726818 
z
" style="fill:#008000;opacity:0.4;"/>
   </g>
   <g id="patch_111">
    <path clip-path="url(#p72019b0043)" d="M 136.473248 307.584 
L 138.835547 307.584 
L 138.835547 288.726818 
L 136.473248 288.726818 
z
" style="fill:#008000;opacity:0.4;"/>
   </g>
   <g id="patch_112">
    <path clip-path="url(#p72019b0043)" d="M 138.835547 307.584 
L 141.197845 307.584 
L 141.197845 265.155341 
L 138.835547 265.155341 
z
" style="fill:#008000;opacity:0.4;"/>
   </g>
   <g id="patch_113">
    <path clip-path="url(#p72019b0043)" d="M 141.197845 307.584 
L 143.560144 307.584 
L 143.560144 274.583932 
L 141.197845 274.583932 
z
" style="fill:#008000;opacity:0.4;"/>
   </g>
   <g id="patch_114">
    <path clip-path="url(#p72019b0043)" d="M 143.560144 307.584 
L 145.922442 307.584 
L 145.922442 255.72675 
L 143.560144 255.72675 
z
" style="fill:#008000;opacity:0.4;"/>
   </g>
   <g id="patch_115">
    <path clip-path="url(#p72019b0043)" d="M 145.922442 307.584 
L 148.284741 307.584 
L 148.284741 208.583795 
L 145.922442 208.583795 
z
" style="fill:#008000;opacity:0.4;"/>
   </g>
   <g id="patch_116">
    <path clip-path="url(#p72019b0043)" d="M 148.284741 307.584 
L 150.647039 307.584 
L 150.647039 175.583726 
L 148.284741 175.583726 
z
" style="fill:#008000;opacity:0.4;"/>
   </g>
   <g id="patch_117">
    <path clip-path="url(#p72019b0043)" d="M 150.647039 307.584 
L 153.009338 307.584 
L 153.009338 208.583795 
L 150.647039 208.583795 
z
" style="fill:#008000;opacity:0.4;"/>
   </g>
   <g id="patch_118">
    <path clip-path="url(#p72019b0043)" d="M 153.009338 307.584 
L 155.371636 307.584 
L 155.371636 218.012386 
L 153.009338 218.012386 
z
" style="fill:#008000;opacity:0.4;"/>
   </g>
   <g id="patch_119">
    <path clip-path="url(#p72019b0043)" d="M 155.371636 307.584 
L 157.733935 307.584 
L 157.733935 189.726613 
L 155.371636 189.726613 
z
" style="fill:#008000;opacity:0.4;"/>
   </g>
   <g id="patch_120">
    <path clip-path="url(#p72019b0043)" d="M 157.733935 307.584 
L 160.096233 307.584 
L 160.096233 152.012249 
L 157.733935 152.012249 
z
" style="fill:#008000;opacity:0.4;"/>
   </g>
   <g id="patch_121">
    <path clip-path="url(#p72019b0043)" d="M 160.096233 307.584 
L 162.458531 307.584 
L 162.458531 222.726681 
L 160.096233 222.726681 
z
" style="fill:#008000;opacity:0.4;"/>
   </g>
   <g id="patch_122">
    <path clip-path="url(#p72019b0043)" d="M 162.458531 307.584 
L 164.82083 307.584 
L 164.82083 175.583726 
L 162.458531 175.583726 
z
" style="fill:#008000;opacity:0.4;"/>
   </g>
   <g id="patch_123">
    <path clip-path="url(#p72019b0043)" d="M 164.82083 307.584 
L 167.183128 307.584 
L 167.183128 175.583726 
L 164.82083 175.583726 
z
" style="fill:#008000;opacity:0.4;"/>
   </g>
   <g id="patch_124">
    <path clip-path="url(#p72019b0043)" d="M 167.183128 307.584 
L 169.545427 307.584 
L 169.545427 137.869362 
L 167.183128 137.869362 
z
" style="fill:#008000;opacity:0.4;"/>
   </g>
   <g id="patch_125">
    <path clip-path="url(#p72019b0043)" d="M 169.545427 307.584 
L 171.907725 307.584 
L 171.907725 147.297953 
L 169.545427 147.297953 
z
" style="fill:#008000;opacity:0.4;"/>
   </g>
   <g id="patch_126">
    <path clip-path="url(#p72019b0043)" d="M 171.907725 307.584 
L 174.270024 307.584 
L 174.270024 133.155067 
L 171.907725 133.155067 
z
" style="fill:#008000;opacity:0.4;"/>
   </g>
   <g id="patch_127">
    <path clip-path="url(#p72019b0043)" d="M 174.270024 307.584 
L 176.632322 307.584 
L 176.632322 170.869431 
L 174.270024 170.869431 
z
" style="fill:#008000;opacity:0.4;"/>
   </g>
   <g id="patch_128">
    <path clip-path="url(#p72019b0043)" d="M 176.632322 307.584 
L 178.994621 307.584 
L 178.994621 86.012112 
L 176.632322 86.012112 
z
" style="fill:#008000;opacity:0.4;"/>
   </g>
   <g id="patch_129">
    <path clip-path="url(#p72019b0043)" d="M 178.994621 307.584 
L 181.356919 307.584 
L 181.356919 67.15493 
L 178.994621 67.15493 
z
" style="fill:#008000;opacity:0.4;"/>
   </g>
   <g id="patch_130">
    <path clip-path="url(#p72019b0043)" d="M 181.356919 307.584 
L 183.719218 307.584 
L 183.719218 90.726407 
L 181.356919 90.726407 
z
" style="fill:#008000;opacity:0.4;"/>
   </g>
   <g id="patch_131">
    <path clip-path="url(#p72019b0043)" d="M 183.719218 307.584 
L 186.081516 307.584 
L 186.081516 152.012249 
L 183.719218 152.012249 
z
" style="fill:#008000;opacity:0.4;"/>
   </g>
   <g id="patch_132">
    <path clip-path="url(#p72019b0043)" d="M 186.081516 307.584 
L 188.443815 307.584 
L 188.443815 86.012112 
L 186.081516 86.012112 
z
" style="fill:#008000;opacity:0.4;"/>
   </g>
   <g id="patch_133">
    <path clip-path="url(#p72019b0043)" d="M 188.443815 307.584 
L 190.806113 307.584 
L 190.806113 133.155067 
L 188.443815 133.155067 
z
" style="fill:#008000;opacity:0.4;"/>
   </g>
   <g id="patch_134">
    <path clip-path="url(#p72019b0043)" d="M 190.806113 307.584 
L 193.168412 307.584 
L 193.168412 137.869362 
L 190.806113 137.869362 
z
" style="fill:#008000;opacity:0.4;"/>
   </g>
   <g id="patch_135">
    <path clip-path="url(#p72019b0043)" d="M 193.168412 307.584 
L 195.53071 307.584 
L 195.53071 152.012249 
L 193.168412 152.012249 
z
" style="fill:#008000;opacity:0.4;"/>
   </g>
   <g id="patch_136">
    <path clip-path="url(#p72019b0043)" d="M 195.53071 307.584 
L 197.893009 307.584 
L 197.893009 156.726544 
L 195.53071 156.726544 
z
" style="fill:#008000;opacity:0.4;"/>
   </g>
   <g id="patch_137">
    <path clip-path="url(#p72019b0043)" d="M 197.893009 307.584 
L 200.255307 307.584 
L 200.255307 180.298022 
L 197.893009 180.298022 
z
" style="fill:#008000;opacity:0.4;"/>
   </g>
   <g id="patch_138">
    <path clip-path="url(#p72019b0043)" d="M 200.255307 307.584 
L 202.617606 307.584 
L 202.617606 137.869362 
L 200.255307 137.869362 
z
" style="fill:#008000;opacity:0.4;"/>
   </g>
   <g id="patch_139">
    <path clip-path="url(#p72019b0043)" d="M 202.617606 307.584 
L 204.979904 307.584 
L 204.979904 109.583589 
L 202.617606 109.583589 
z
" style="fill:#008000;opacity:0.4;"/>
   </g>
   <g id="patch_140">
    <path clip-path="url(#p72019b0043)" d="M 204.979904 307.584 
L 207.342203 307.584 
L 207.342203 152.012249 
L 204.979904 152.012249 
z
" style="fill:#008000;opacity:0.4;"/>
   </g>
   <g id="patch_141">
    <path clip-path="url(#p72019b0043)" d="M 207.342203 307.584 
L 209.704501 307.584 
L 209.704501 208.583795 
L 207.342203 208.583795 
z
" style="fill:#008000;opacity:0.4;"/>
   </g>
   <g id="patch_142">
    <path clip-path="url(#p72019b0043)" d="M 209.704501 307.584 
L 212.0668 307.584 
L 212.0668 180.298022 
L 209.704501 180.298022 
z
" style="fill:#008000;opacity:0.4;"/>
   </g>
   <g id="patch_143">
    <path clip-path="url(#p72019b0043)" d="M 212.0668 307.584 
L 214.429098 307.584 
L 214.429098 246.298159 
L 212.0668 246.298159 
z
" style="fill:#008000;opacity:0.4;"/>
   </g>
   <g id="patch_144">
    <path clip-path="url(#p72019b0043)" d="M 214.429098 307.584 
L 216.791397 307.584 
L 216.791397 232.155272 
L 214.429098 232.155272 
z
" style="fill:#008000;opacity:0.4;"/>
   </g>
   <g id="patch_145">
    <path clip-path="url(#p72019b0043)" d="M 216.791397 307.584 
L 219.153695 307.584 
L 219.153695 236.869568 
L 216.791397 236.869568 
z
" style="fill:#008000;opacity:0.4;"/>
   </g>
   <g id="patch_146">
    <path clip-path="url(#p72019b0043)" d="M 219.153695 307.584 
L 221.515993 307.584 
L 221.515993 227.440977 
L 219.153695 227.440977 
z
" style="fill:#008000;opacity:0.4;"/>
   </g>
   <g id="patch_147">
    <path clip-path="url(#p72019b0043)" d="M 221.515993 307.584 
L 223.878292 307.584 
L 223.878292 251.012454 
L 221.515993 251.012454 
z
" style="fill:#008000;opacity:0.4;"/>
   </g>
   <g id="patch_148">
    <path clip-path="url(#p72019b0043)" d="M 223.878292 307.584 
L 226.24059 307.584 
L 226.24059 265.155341 
L 223.878292 265.155341 
z
" style="fill:#008000;opacity:0.4;"/>
   </g>
   <g id="patch_149">
    <path clip-path="url(#p72019b0043)" d="M 226.24059 307.584 
L 228.602889 307.584 
L 228.602889 260.441045 
L 226.24059 260.441045 
z
" style="fill:#008000;opacity:0.4;"/>
   </g>
   <g id="patch_150">
    <path clip-path="url(#p72019b0043)" d="M 228.602889 307.584 
L 230.965187 307.584 
L 230.965187 251.012454 
L 228.602889 251.012454 
z
" style="fill:#008000;opacity:0.4;"/>
   </g>
   <g id="patch_151">
    <path clip-path="url(#p72019b0043)" d="M 230.965187 307.584 
L 233.327486 307.584 
L 233.327486 265.155341 
L 230.965187 265.155341 
z
" style="fill:#008000;opacity:0.4;"/>
   </g>
   <g id="patch_152">
    <path clip-path="url(#p72019b0043)" d="M 233.327486 307.584 
L 235.689784 307.584 
L 235.689784 260.441045 
L 233.327486 260.441045 
z
" style="fill:#008000;opacity:0.4;"/>
   </g>
   <g id="patch_153">
    <path clip-path="url(#p72019b0043)" d="M 235.689784 307.584 
L 238.052083 307.584 
L 238.052083 288.726818 
L 235.689784 288.726818 
z
" style="fill:#008000;opacity:0.4;"/>
   </g>
   <g id="patch_154">
    <path clip-path="url(#p72019b0043)" d="M 238.052083 307.584 
L 240.414381 307.584 
L 240.414381 274.583932 
L 238.052083 274.583932 
z
" style="fill:#008000;opacity:0.4;"/>
   </g>
   <g id="patch_155">
    <path clip-path="url(#p72019b0043)" d="M 240.414381 307.584 
L 242.77668 307.584 
L 242.77668 293.441114 
L 240.414381 293.441114 
z
" style="fill:#008000;opacity:0.4;"/>
   </g>
   <g id="patch_156">
    <path clip-path="url(#p72019b0043)" d="M 242.77668 307.584 
L 245.138978 307.584 
L 245.138978 298.155409 
L 242.77668 298.155409 
z
" style="fill:#008000;opacity:0.4;"/>
   </g>
   <g id="patch_157">
    <path clip-path="url(#p72019b0043)" d="M 245.138978 307.584 
L 247.501277 307.584 
L 247.501277 302.869705 
L 245.138978 302.869705 
z
" style="fill:#008000;opacity:0.4;"/>
   </g>
   <g id="patch_158">
    <path clip-path="url(#p72019b0043)" d="M 247.501277 307.584 
L 249.863575 307.584 
L 249.863575 288.726818 
L 247.501277 288.726818 
z
" style="fill:#008000;opacity:0.4;"/>
   </g>
   <g id="patch_159">
    <path clip-path="url(#p72019b0043)" d="M 249.863575 307.584 
L 252.225874 307.584 
L 252.225874 274.583932 
L 249.863575 274.583932 
z
" style="fill:#008000;opacity:0.4;"/>
   </g>
   <g id="patch_160">
    <path clip-path="url(#p72019b0043)" d="M 252.225874 307.584 
L 254.588172 307.584 
L 254.588172 288.726818 
L 252.225874 288.726818 
z
" style="fill:#008000;opacity:0.4;"/>
   </g>
   <g id="patch_161">
    <path clip-path="url(#p72019b0043)" d="M 254.588172 307.584 
L 256.950471 307.584 
L 256.950471 284.012523 
L 254.588172 284.012523 
z
" style="fill:#008000;opacity:0.4;"/>
   </g>
   <g id="patch_162">
    <path clip-path="url(#p72019b0043)" d="M 256.950471 307.584 
L 259.312769 307.584 
L 259.312769 293.441114 
L 256.950471 293.441114 
z
" style="fill:#008000;opacity:0.4;"/>
   </g>
   <g id="patch_163">
    <path clip-path="url(#p72019b0043)" d="M 259.312769 307.584 
L 261.675068 307.584 
L 261.675068 288.726818 
L 259.312769 288.726818 
z
" style="fill:#008000;opacity:0.4;"/>
   </g>
   <g id="patch_164">
    <path clip-path="url(#p72019b0043)" d="M 261.675068 307.584 
L 264.037366 307.584 
L 264.037366 293.441114 
L 261.675068 293.441114 
z
" style="fill:#008000;opacity:0.4;"/>
   </g>
   <g id="patch_165">
    <path clip-path="url(#p72019b0043)" d="M 264.037366 307.584 
L 266.399665 307.584 
L 266.399665 288.726818 
L 264.037366 288.726818 
z
" style="fill:#008000;opacity:0.4;"/>
   </g>
   <g id="patch_166">
    <path clip-path="url(#p72019b0043)" d="M 266.399665 307.584 
L 268.761963 307.584 
L 268.761963 284.012523 
L 266.399665 284.012523 
z
" style="fill:#008000;opacity:0.4;"/>
   </g>
   <g id="patch_167">
    <path clip-path="url(#p72019b0043)" d="M 268.761963 307.584 
L 271.124262 307.584 
L 271.124262 284.012523 
L 268.761963 284.012523 
z
" style="fill:#008000;opacity:0.4;"/>
   </g>
   <g id="patch_168">
    <path clip-path="url(#p72019b0043)" d="M 271.124262 307.584 
L 273.48656 307.584 
L 273.48656 302.869705 
L 271.124262 302.869705 
z
" style="fill:#008000;opacity:0.4;"/>
   </g>
   <g id="patch_169">
    <path clip-path="url(#p72019b0043)" d="M 273.48656 307.584 
L 275.848859 307.584 
L 275.848859 284.012523 
L 273.48656 284.012523 
z
" style="fill:#008000;opacity:0.4;"/>
   </g>
   <g id="patch_170">
    <path clip-path="url(#p72019b0043)" d="M 275.848859 307.584 
L 278.211157 307.584 
L 278.211157 284.012523 
L 275.848859 284.012523 
z
" style="fill:#008000;opacity:0.4;"/>
   </g>
   <g id="patch_171">
    <path clip-path="url(#p72019b0043)" d="M 278.211157 307.584 
L 280.573455 307.584 
L 280.573455 274.583932 
L 278.211157 274.583932 
z
" style="fill:#008000;opacity:0.4;"/>
   </g>
   <g id="patch_172">
    <path clip-path="url(#p72019b0043)" d="M 280.573455 307.584 
L 282.935754 307.584 
L 282.935754 246.298159 
L 280.573455 246.298159 
z
" style="fill:#008000;opacity:0.4;"/>
   </g>
   <g id="patch_173">
    <path clip-path="url(#p72019b0043)" d="M 282.935754 307.584 
L 285.298052 307.584 
L 285.298052 265.155341 
L 282.935754 265.155341 
z
" style="fill:#008000;opacity:0.4;"/>
   </g>
   <g id="patch_174">
    <path clip-path="url(#p72019b0043)" d="M 285.298052 307.584 
L 287.660351 307.584 
L 287.660351 284.012523 
L 285.298052 284.012523 
z
" style="fill:#008000;opacity:0.4;"/>
   </g>
   <g id="patch_175">
    <path clip-path="url(#p72019b0043)" d="M 287.660351 307.584 
L 290.022649 307.584 
L 290.022649 241.583863 
L 287.660351 241.583863 
z
" style="fill:#008000;opacity:0.4;"/>
   </g>
   <g id="patch_176">
    <path clip-path="url(#p72019b0043)" d="M 290.022649 307.584 
L 292.384948 307.584 
L 292.384948 265.155341 
L 290.022649 265.155341 
z
" style="fill:#008000;opacity:0.4;"/>
   </g>
   <g id="patch_177">
    <path clip-path="url(#p72019b0043)" d="M 292.384948 307.584 
L 294.747246 307.584 
L 294.747246 213.29809 
L 292.384948 213.29809 
z
" style="fill:#008000;opacity:0.4;"/>
   </g>
   <g id="patch_178">
    <path clip-path="url(#p72019b0043)" d="M 294.747246 307.584 
L 297.109545 307.584 
L 297.109545 189.726613 
L 294.747246 189.726613 
z
" style="fill:#008000;opacity:0.4;"/>
   </g>
   <g id="patch_179">
    <path clip-path="url(#p72019b0043)" d="M 297.109545 307.584 
L 299.471843 307.584 
L 299.471843 156.726544 
L 297.109545 156.726544 
z
" style="fill:#008000;opacity:0.4;"/>
   </g>
   <g id="patch_180">
    <path clip-path="url(#p72019b0043)" d="M 299.471843 307.584 
L 301.834142 307.584 
L 301.834142 152.012249 
L 299.471843 152.012249 
z
" style="fill:#008000;opacity:0.4;"/>
   </g>
   <g id="patch_181">
    <path clip-path="url(#p72019b0043)" d="M 301.834142 307.584 
L 304.19644 307.584 
L 304.19644 161.44084 
L 301.834142 161.44084 
z
" style="fill:#008000;opacity:0.4;"/>
   </g>
   <g id="patch_182">
    <path clip-path="url(#p72019b0043)" d="M 304.19644 307.584 
L 306.558739 307.584 
L 306.558739 114.297885 
L 304.19644 114.297885 
z
" style="fill:#008000;opacity:0.4;"/>
   </g>
   <g id="patch_183">
    <path clip-path="url(#p72019b0043)" d="M 306.558739 307.584 
L 308.921037 307.584 
L 308.921037 119.01218 
L 306.558739 119.01218 
z
" style="fill:#008000;opacity:0.4;"/>
   </g>
   <g id="patch_184">
    <path clip-path="url(#p72019b0043)" d="M 308.921037 307.584 
L 311.283336 307.584 
L 311.283336 189.726613 
L 308.921037 189.726613 
z
" style="fill:#008000;opacity:0.4;"/>
   </g>
   <g id="patch_185">
    <path clip-path="url(#p72019b0043)" d="M 311.283336 307.584 
L 313.645634 307.584 
L 313.645634 123.726476 
L 311.283336 123.726476 
z
" style="fill:#008000;opacity:0.4;"/>
   </g>
   <g id="patch_186">
    <path clip-path="url(#p72019b0043)" d="M 313.645634 307.584 
L 316.007933 307.584 
L 316.007933 137.869362 
L 313.645634 137.869362 
z
" style="fill:#008000;opacity:0.4;"/>
   </g>
   <g id="patch_187">
    <path clip-path="url(#p72019b0043)" d="M 316.007933 307.584 
L 318.370231 307.584 
L 318.370231 213.29809 
L 316.007933 213.29809 
z
" style="fill:#008000;opacity:0.4;"/>
   </g>
   <g id="patch_188">
    <path clip-path="url(#p72019b0043)" d="M 318.370231 307.584 
L 320.73253 307.584 
L 320.73253 199.155204 
L 318.370231 199.155204 
z
" style="fill:#008000;opacity:0.4;"/>
   </g>
   <g id="patch_189">
    <path clip-path="url(#p72019b0043)" d="M 320.73253 307.584 
L 323.094828 307.584 
L 323.094828 222.726681 
L 320.73253 222.726681 
z
" style="fill:#008000;opacity:0.4;"/>
   </g>
   <g id="patch_190">
    <path clip-path="url(#p72019b0043)" d="M 323.094828 307.584 
L 325.457127 307.584 
L 325.457127 218.012386 
L 323.094828 218.012386 
z
" style="fill:#008000;opacity:0.4;"/>
   </g>
   <g id="patch_191">
    <path clip-path="url(#p72019b0043)" d="M 325.457127 307.584 
L 327.819425 307.584 
L 327.819425 255.72675 
L 325.457127 255.72675 
z
" style="fill:#008000;opacity:0.4;"/>
   </g>
   <g id="patch_192">
    <path clip-path="url(#p72019b0043)" d="M 327.819425 307.584 
L 330.181724 307.584 
L 330.181724 246.298159 
L 327.819425 246.298159 
z
" style="fill:#008000;opacity:0.4;"/>
   </g>
   <g id="patch_193">
    <path clip-path="url(#p72019b0043)" d="M 330.181724 307.584 
L 332.544022 307.584 
L 332.544022 260.441045 
L 330.181724 260.441045 
z
" style="fill:#008000;opacity:0.4;"/>
   </g>
   <g id="patch_194">
    <path clip-path="url(#p72019b0043)" d="M 332.544022 307.584 
L 334.90632 307.584 
L 334.90632 269.869636 
L 332.544022 269.869636 
z
" style="fill:#008000;opacity:0.4;"/>
   </g>
   <g id="patch_195">
    <path clip-path="url(#p72019b0043)" d="M 334.90632 307.584 
L 337.268619 307.584 
L 337.268619 284.012523 
L 334.90632 284.012523 
z
" style="fill:#008000;opacity:0.4;"/>
   </g>
   <g id="patch_196">
    <path clip-path="url(#p72019b0043)" d="M 337.268619 307.584 
L 339.630917 307.584 
L 339.630917 284.012523 
L 337.268619 284.012523 
z
" style="fill:#008000;opacity:0.4;"/>
   </g>
   <g id="patch_197">
    <path clip-path="url(#p72019b0043)" d="M 339.630917 307.584 
L 341.993216 307.584 
L 341.993216 293.441114 
L 339.630917 293.441114 
z
" style="fill:#008000;opacity:0.4;"/>
   </g>
   <g id="patch_198">
    <path clip-path="url(#p72019b0043)" d="M 341.993216 307.584 
L 344.355514 307.584 
L 344.355514 298.155409 
L 341.993216 298.155409 
z
" style="fill:#008000;opacity:0.4;"/>
   </g>
   <g id="patch_199">
    <path clip-path="url(#p72019b0043)" d="M 344.355514 307.584 
L 346.717813 307.584 
L 346.717813 293.441114 
L 344.355514 293.441114 
z
" style="fill:#008000;opacity:0.4;"/>
   </g>
   <g id="patch_200">
    <path clip-path="url(#p72019b0043)" d="M 346.717813 307.584 
L 349.080111 307.584 
L 349.080111 302.869705 
L 346.717813 302.869705 
z
" style="fill:#008000;opacity:0.4;"/>
   </g>
   <g id="patch_201">
    <path clip-path="url(#p72019b0043)" d="M 349.080111 307.584 
L 351.44241 307.584 
L 351.44241 307.584 
L 349.080111 307.584 
z
" style="fill:#008000;opacity:0.4;"/>
   </g>
   <g id="patch_202">
    <path clip-path="url(#p72019b0043)" d="M 351.44241 307.584 
L 353.804708 307.584 
L 353.804708 298.155409 
L 351.44241 298.155409 
z
" style="fill:#008000;opacity:0.4;"/>
   </g>
   <g id="matplotlib.axis_1">
    <g id="xtick_1">
     <g id="line2d_1">
      <defs>
       <path d="M 0 0 
L 0 3.5 
" id="m4b2ffa113d" style="stroke:#000000;stroke-width:0.8;"/>
      </defs>
      <g>
       <use style="stroke:#000000;stroke-width:0.8;" x="132.791739" xlink:href="#m4b2ffa113d" y="307.584"/>
      </g>
     </g>
     <g id="text_1">
      <!-- 2000 -->
      <defs>
       <path d="M 19.1875 8.296875 
L 53.609375 8.296875 
L 53.609375 0 
L 7.328125 0 
L 7.328125 8.296875 
Q 12.9375 14.109375 22.625 23.890625 
Q 32.328125 33.6875 34.8125 36.53125 
Q 39.546875 41.84375 41.421875 45.53125 
Q 43.3125 49.21875 43.3125 52.78125 
Q 43.3125 58.59375 39.234375 62.25 
Q 35.15625 65.921875 28.609375 65.921875 
Q 23.96875 65.921875 18.8125 64.3125 
Q 13.671875 62.703125 7.8125 59.421875 
L 7.8125 69.390625 
Q 13.765625 71.78125 18.9375 73 
Q 24.125 74.21875 28.421875 74.21875 
Q 39.75 74.21875 46.484375 68.546875 
Q 53.21875 62.890625 53.21875 53.421875 
Q 53.21875 48.921875 51.53125 44.890625 
Q 49.859375 40.875 45.40625 35.40625 
Q 44.1875 33.984375 37.640625 27.21875 
Q 31.109375 20.453125 19.1875 8.296875 
z
" id="DejaVuSans-50"/>
       <path d="M 31.78125 66.40625 
Q 24.171875 66.40625 20.328125 58.90625 
Q 16.5 51.421875 16.5 36.375 
Q 16.5 21.390625 20.328125 13.890625 
Q 24.171875 6.390625 31.78125 6.390625 
Q 39.453125 6.390625 43.28125 13.890625 
Q 47.125 21.390625 47.125 36.375 
Q 47.125 51.421875 43.28125 58.90625 
Q 39.453125 66.40625 31.78125 66.40625 
z
M 31.78125 74.21875 
Q 44.046875 74.21875 50.515625 64.515625 
Q 56.984375 54.828125 56.984375 36.375 
Q 56.984375 17.96875 50.515625 8.265625 
Q 44.046875 -1.421875 31.78125 -1.421875 
Q 19.53125 -1.421875 13.0625 8.265625 
Q 6.59375 17.96875 6.59375 36.375 
Q 6.59375 54.828125 13.0625 64.515625 
Q 19.53125 74.21875 31.78125 74.21875 
z
" id="DejaVuSans-48"/>
      </defs>
      <g transform="translate(120.066739 322.182437)scale(0.1 -0.1)">
       <use xlink:href="#DejaVuSans-50"/>
       <use x="63.623047" xlink:href="#DejaVuSans-48"/>
       <use x="127.246094" xlink:href="#DejaVuSans-48"/>
       <use x="190.869141" xlink:href="#DejaVuSans-48"/>
      </g>
     </g>
    </g>
    <g id="xtick_2">
     <g id="line2d_2">
      <g>
       <use style="stroke:#000000;stroke-width:0.8;" x="209.722977" xlink:href="#m4b2ffa113d" y="307.584"/>
      </g>
     </g>
     <g id="text_2">
      <!-- 3000 -->
      <defs>
       <path d="M 40.578125 39.3125 
Q 47.65625 37.796875 51.625 33 
Q 55.609375 28.21875 55.609375 21.1875 
Q 55.609375 10.40625 48.1875 4.484375 
Q 40.765625 -1.421875 27.09375 -1.421875 
Q 22.515625 -1.421875 17.65625 -0.515625 
Q 12.796875 0.390625 7.625 2.203125 
L 7.625 11.71875 
Q 11.71875 9.328125 16.59375 8.109375 
Q 21.484375 6.890625 26.8125 6.890625 
Q 36.078125 6.890625 40.9375 10.546875 
Q 45.796875 14.203125 45.796875 21.1875 
Q 45.796875 27.640625 41.28125 31.265625 
Q 36.765625 34.90625 28.71875 34.90625 
L 20.21875 34.90625 
L 20.21875 43.015625 
L 29.109375 43.015625 
Q 36.375 43.015625 40.234375 45.921875 
Q 44.09375 48.828125 44.09375 54.296875 
Q 44.09375 59.90625 40.109375 62.90625 
Q 36.140625 65.921875 28.71875 65.921875 
Q 24.65625 65.921875 20.015625 65.03125 
Q 15.375 64.15625 9.8125 62.3125 
L 9.8125 71.09375 
Q 15.4375 72.65625 20.34375 73.4375 
Q 25.25 74.21875 29.59375 74.21875 
Q 40.828125 74.21875 47.359375 69.109375 
Q 53.90625 64.015625 53.90625 55.328125 
Q 53.90625 49.265625 50.4375 45.09375 
Q 46.96875 40.921875 40.578125 39.3125 
z
" id="DejaVuSans-51"/>
      </defs>
      <g transform="translate(196.997977 322.182437)scale(0.1 -0.1)">
       <use xlink:href="#DejaVuSans-51"/>
       <use x="63.623047" xlink:href="#DejaVuSans-48"/>
       <use x="127.246094" xlink:href="#DejaVuSans-48"/>
       <use x="190.869141" xlink:href="#DejaVuSans-48"/>
      </g>
     </g>
    </g>
    <g id="xtick_3">
     <g id="line2d_3">
      <g>
       <use style="stroke:#000000;stroke-width:0.8;" x="286.654216" xlink:href="#m4b2ffa113d" y="307.584"/>
      </g>
     </g>
     <g id="text_3">
      <!-- 4000 -->
      <defs>
       <path d="M 37.796875 64.3125 
L 12.890625 25.390625 
L 37.796875 25.390625 
z
M 35.203125 72.90625 
L 47.609375 72.90625 
L 47.609375 25.390625 
L 58.015625 25.390625 
L 58.015625 17.1875 
L 47.609375 17.1875 
L 47.609375 0 
L 37.796875 0 
L 37.796875 17.1875 
L 4.890625 17.1875 
L 4.890625 26.703125 
z
" id="DejaVuSans-52"/>
      </defs>
      <g transform="translate(273.929216 322.182437)scale(0.1 -0.1)">
       <use xlink:href="#DejaVuSans-52"/>
       <use x="63.623047" xlink:href="#DejaVuSans-48"/>
       <use x="127.246094" xlink:href="#DejaVuSans-48"/>
       <use x="190.869141" xlink:href="#DejaVuSans-48"/>
      </g>
     </g>
    </g>
    <g id="xtick_4">
     <g id="line2d_4">
      <g>
       <use style="stroke:#000000;stroke-width:0.8;" x="363.585454" xlink:href="#m4b2ffa113d" y="307.584"/>
      </g>
     </g>
     <g id="text_4">
      <!-- 5000 -->
      <defs>
       <path d="M 10.796875 72.90625 
L 49.515625 72.90625 
L 49.515625 64.59375 
L 19.828125 64.59375 
L 19.828125 46.734375 
Q 21.96875 47.46875 24.109375 47.828125 
Q 26.265625 48.1875 28.421875 48.1875 
Q 40.625 48.1875 47.75 41.5 
Q 54.890625 34.8125 54.890625 23.390625 
Q 54.890625 11.625 47.5625 5.09375 
Q 40.234375 -1.421875 26.90625 -1.421875 
Q 22.3125 -1.421875 17.546875 -0.640625 
Q 12.796875 0.140625 7.71875 1.703125 
L 7.71875 11.625 
Q 12.109375 9.234375 16.796875 8.0625 
Q 21.484375 6.890625 26.703125 6.890625 
Q 35.15625 6.890625 40.078125 11.328125 
Q 45.015625 15.765625 45.015625 23.390625 
Q 45.015625 31 40.078125 35.4375 
Q 35.15625 39.890625 26.703125 39.890625 
Q 22.75 39.890625 18.8125 39.015625 
Q 14.890625 38.140625 10.796875 36.28125 
z
" id="DejaVuSans-53"/>
      </defs>
      <g transform="translate(350.860454 322.182437)scale(0.1 -0.1)">
       <use xlink:href="#DejaVuSans-53"/>
       <use x="63.623047" xlink:href="#DejaVuSans-48"/>
       <use x="127.246094" xlink:href="#DejaVuSans-48"/>
       <use x="190.869141" xlink:href="#DejaVuSans-48"/>
      </g>
     </g>
    </g>
   </g>
   <g id="matplotlib.axis_2">
    <g id="ytick_1">
     <g id="line2d_5">
      <defs>
       <path d="M 0 0 
L -3.5 0 
" id="mc6eb0c1fb9" style="stroke:#000000;stroke-width:0.8;"/>
      </defs>
      <g>
       <use style="stroke:#000000;stroke-width:0.8;" x="57.6" xlink:href="#mc6eb0c1fb9" y="307.584"/>
      </g>
     </g>
     <g id="text_5">
      <!-- 0.0000 -->
      <defs>
       <path d="M 10.6875 12.40625 
L 21 12.40625 
L 21 0 
L 10.6875 0 
z
" id="DejaVuSans-46"/>
      </defs>
      <g transform="translate(15.609375 311.383219)scale(0.1 -0.1)">
       <use xlink:href="#DejaVuSans-48"/>
       <use x="63.623047" xlink:href="#DejaVuSans-46"/>
       <use x="95.410156" xlink:href="#DejaVuSans-48"/>
       <use x="159.033203" xlink:href="#DejaVuSans-48"/>
       <use x="222.65625" xlink:href="#DejaVuSans-48"/>
       <use x="286.279297" xlink:href="#DejaVuSans-48"/>
      </g>
     </g>
    </g>
    <g id="ytick_2">
     <g id="line2d_6">
      <g>
       <use style="stroke:#000000;stroke-width:0.8;" x="57.6" xlink:href="#mc6eb0c1fb9" y="259.263082"/>
      </g>
     </g>
     <g id="text_6">
      <!-- 0.0002 -->
      <g transform="translate(15.609375 263.062301)scale(0.1 -0.1)">
       <use xlink:href="#DejaVuSans-48"/>
       <use x="63.623047" xlink:href="#DejaVuSans-46"/>
       <use x="95.410156" xlink:href="#DejaVuSans-48"/>
       <use x="159.033203" xlink:href="#DejaVuSans-48"/>
       <use x="222.65625" xlink:href="#DejaVuSans-48"/>
       <use x="286.279297" xlink:href="#DejaVuSans-50"/>
      </g>
     </g>
    </g>
    <g id="ytick_3">
     <g id="line2d_7">
      <g>
       <use style="stroke:#000000;stroke-width:0.8;" x="57.6" xlink:href="#mc6eb0c1fb9" y="210.942164"/>
      </g>
     </g>
     <g id="text_7">
      <!-- 0.0004 -->
      <g transform="translate(15.609375 214.741382)scale(0.1 -0.1)">
       <use xlink:href="#DejaVuSans-48"/>
       <use x="63.623047" xlink:href="#DejaVuSans-46"/>
       <use x="95.410156" xlink:href="#DejaVuSans-48"/>
       <use x="159.033203" xlink:href="#DejaVuSans-48"/>
       <use x="222.65625" xlink:href="#DejaVuSans-48"/>
       <use x="286.279297" xlink:href="#DejaVuSans-52"/>
      </g>
     </g>
    </g>
    <g id="ytick_4">
     <g id="line2d_8">
      <g>
       <use style="stroke:#000000;stroke-width:0.8;" x="57.6" xlink:href="#mc6eb0c1fb9" y="162.621245"/>
      </g>
     </g>
     <g id="text_8">
      <!-- 0.0006 -->
      <defs>
       <path d="M 33.015625 40.375 
Q 26.375 40.375 22.484375 35.828125 
Q 18.609375 31.296875 18.609375 23.390625 
Q 18.609375 15.53125 22.484375 10.953125 
Q 26.375 6.390625 33.015625 6.390625 
Q 39.65625 6.390625 43.53125 10.953125 
Q 47.40625 15.53125 47.40625 23.390625 
Q 47.40625 31.296875 43.53125 35.828125 
Q 39.65625 40.375 33.015625 40.375 
z
M 52.59375 71.296875 
L 52.59375 62.3125 
Q 48.875 64.0625 45.09375 64.984375 
Q 41.3125 65.921875 37.59375 65.921875 
Q 27.828125 65.921875 22.671875 59.328125 
Q 17.53125 52.734375 16.796875 39.40625 
Q 19.671875 43.65625 24.015625 45.921875 
Q 28.375 48.1875 33.59375 48.1875 
Q 44.578125 48.1875 50.953125 41.515625 
Q 57.328125 34.859375 57.328125 23.390625 
Q 57.328125 12.15625 50.6875 5.359375 
Q 44.046875 -1.421875 33.015625 -1.421875 
Q 20.359375 -1.421875 13.671875 8.265625 
Q 6.984375 17.96875 6.984375 36.375 
Q 6.984375 53.65625 15.1875 63.9375 
Q 23.390625 74.21875 37.203125 74.21875 
Q 40.921875 74.21875 44.703125 73.484375 
Q 48.484375 72.75 52.59375 71.296875 
z
" id="DejaVuSans-54"/>
      </defs>
      <g transform="translate(15.609375 166.420464)scale(0.1 -0.1)">
       <use xlink:href="#DejaVuSans-48"/>
       <use x="63.623047" xlink:href="#DejaVuSans-46"/>
       <use x="95.410156" xlink:href="#DejaVuSans-48"/>
       <use x="159.033203" xlink:href="#DejaVuSans-48"/>
       <use x="222.65625" xlink:href="#DejaVuSans-48"/>
       <use x="286.279297" xlink:href="#DejaVuSans-54"/>
      </g>
     </g>
    </g>
    <g id="ytick_5">
     <g id="line2d_9">
      <g>
       <use style="stroke:#000000;stroke-width:0.8;" x="57.6" xlink:href="#mc6eb0c1fb9" y="114.300327"/>
      </g>
     </g>
     <g id="text_9">
      <!-- 0.0008 -->
      <defs>
       <path d="M 31.78125 34.625 
Q 24.75 34.625 20.71875 30.859375 
Q 16.703125 27.09375 16.703125 20.515625 
Q 16.703125 13.921875 20.71875 10.15625 
Q 24.75 6.390625 31.78125 6.390625 
Q 38.8125 6.390625 42.859375 10.171875 
Q 46.921875 13.96875 46.921875 20.515625 
Q 46.921875 27.09375 42.890625 30.859375 
Q 38.875 34.625 31.78125 34.625 
z
M 21.921875 38.8125 
Q 15.578125 40.375 12.03125 44.71875 
Q 8.5 49.078125 8.5 55.328125 
Q 8.5 64.0625 14.71875 69.140625 
Q 20.953125 74.21875 31.78125 74.21875 
Q 42.671875 74.21875 48.875 69.140625 
Q 55.078125 64.0625 55.078125 55.328125 
Q 55.078125 49.078125 51.53125 44.71875 
Q 48 40.375 41.703125 38.8125 
Q 48.828125 37.15625 52.796875 32.3125 
Q 56.78125 27.484375 56.78125 20.515625 
Q 56.78125 9.90625 50.3125 4.234375 
Q 43.84375 -1.421875 31.78125 -1.421875 
Q 19.734375 -1.421875 13.25 4.234375 
Q 6.78125 9.90625 6.78125 20.515625 
Q 6.78125 27.484375 10.78125 32.3125 
Q 14.796875 37.15625 21.921875 38.8125 
z
M 18.3125 54.390625 
Q 18.3125 48.734375 21.84375 45.5625 
Q 25.390625 42.390625 31.78125 42.390625 
Q 38.140625 42.390625 41.71875 45.5625 
Q 45.3125 48.734375 45.3125 54.390625 
Q 45.3125 60.0625 41.71875 63.234375 
Q 38.140625 66.40625 31.78125 66.40625 
Q 25.390625 66.40625 21.84375 63.234375 
Q 18.3125 60.0625 18.3125 54.390625 
z
" id="DejaVuSans-56"/>
      </defs>
      <g transform="translate(15.609375 118.099546)scale(0.1 -0.1)">
       <use xlink:href="#DejaVuSans-48"/>
       <use x="63.623047" xlink:href="#DejaVuSans-46"/>
       <use x="95.410156" xlink:href="#DejaVuSans-48"/>
       <use x="159.033203" xlink:href="#DejaVuSans-48"/>
       <use x="222.65625" xlink:href="#DejaVuSans-48"/>
       <use x="286.279297" xlink:href="#DejaVuSans-56"/>
      </g>
     </g>
    </g>
    <g id="ytick_6">
     <g id="line2d_10">
      <g>
       <use style="stroke:#000000;stroke-width:0.8;" x="57.6" xlink:href="#mc6eb0c1fb9" y="65.979409"/>
      </g>
     </g>
     <g id="text_10">
      <!-- 0.0010 -->
      <defs>
       <path d="M 12.40625 8.296875 
L 28.515625 8.296875 
L 28.515625 63.921875 
L 10.984375 60.40625 
L 10.984375 69.390625 
L 28.421875 72.90625 
L 38.28125 72.90625 
L 38.28125 8.296875 
L 54.390625 8.296875 
L 54.390625 0 
L 12.40625 0 
z
" id="DejaVuSans-49"/>
      </defs>
      <g transform="translate(15.609375 69.778628)scale(0.1 -0.1)">
       <use xlink:href="#DejaVuSans-48"/>
       <use x="63.623047" xlink:href="#DejaVuSans-46"/>
       <use x="95.410156" xlink:href="#DejaVuSans-48"/>
       <use x="159.033203" xlink:href="#DejaVuSans-48"/>
       <use x="222.65625" xlink:href="#DejaVuSans-49"/>
       <use x="286.279297" xlink:href="#DejaVuSans-48"/>
      </g>
     </g>
    </g>
   </g>
   <g id="line2d_11">
    <path clip-path="url(#p72019b0043)" d="M 73.832727 307.577236 
L 77.112066 307.569524 
L 80.391405 307.554388 
L 83.670744 307.526009 
L 86.950083 307.475044 
L 90.229421 307.387147 
L 93.50876 307.241109 
L 96.788099 307.006571 
L 100.067438 306.641221 
L 103.346777 306.087436 
L 106.626116 305.268506 
L 109.905455 304.08503 
L 113.184793 302.412674 
L 116.464132 300.10321 
L 119.743471 296.991087 
L 123.02281 292.90735 
L 126.302149 287.701125 
L 129.581488 281.266161 
L 132.860826 273.566882 
L 136.140165 264.656339 
L 139.419504 254.678929 
L 142.698843 243.854512 
L 145.978182 232.446947 
L 149.257521 220.726688 
L 152.53686 208.940763 
L 155.816198 197.301614 
L 159.095537 185.998885 
L 162.374876 175.227936 
L 165.654215 165.220435 
L 168.933554 156.26015 
L 172.212893 148.672633 
L 175.492231 142.788711 
L 178.77157 138.893391 
L 182.050909 137.178281 
L 185.330248 137.71393 
L 188.609587 140.449433 
L 191.888926 145.234876 
L 195.168264 151.853623 
L 198.447603 160.049953 
L 201.726942 169.543412 
L 205.006281 180.030643 
L 208.28562 191.1831 
L 211.564959 202.650938 
L 214.844298 214.078943 
L 218.123636 225.132774 
L 221.402975 235.527445 
L 224.682314 245.048322 
L 227.961653 253.558312 
L 231.240992 260.990968 
L 234.520331 267.334465 
L 237.799669 272.613316 
L 241.079008 276.87295 
L 244.358347 280.168568 
L 247.637686 282.556447 
L 250.917025 284.084823 
L 254.196364 284.782888 
L 257.475702 284.649068 
L 260.755041 283.641865 
L 264.03438 281.677142 
L 267.313719 278.634733 
L 270.593058 274.3758 
L 273.872397 268.771085 
L 277.151736 261.73934 
L 280.431074 253.293545 
L 283.710413 243.589261 
L 286.989752 232.964739 
L 290.269091 221.958404 
L 293.54843 211.289329 
L 296.827769 201.792665 
L 300.107107 194.314356 
L 303.386446 189.583841 
L 306.665785 188.093858 
L 309.945124 190.017749 
L 313.224463 195.185367 
L 316.503802 203.122028 
L 319.78314 213.137396 
L 323.062479 224.43935 
L 326.341818 236.245323 
L 329.621157 247.869767 
L 332.900496 258.777274 
L 336.179835 268.601614 
L 339.459174 277.138105 
L 342.738512 284.319293 
L 346.017851 290.183012 
L 349.29719 294.839421 
L 352.576529 298.441053 
L 355.855868 301.158025 
L 359.135207 303.159294 
L 362.414545 304.600006 
L 365.693884 305.614363 
L 368.973223 306.312983 
L 372.252562 306.783472 
L 375.531901 307.092935 
L 378.81124 307.291351 
L 382.090579 307.415034 
L 385.369917 307.489757 
L 388.649256 307.533363 
L 391.928595 307.557861 
L 395.207934 307.571068 
L 398.487273 307.577882 
" style="fill:none;stroke:#f48024;stroke-linecap:square;stroke-width:1.5;"/>
   </g>
   <g id="line2d_12">
    <path clip-path="url(#p72019b0043)" d="M 75.893805 307.5761 
L 79.122006 307.567233 
L 82.350208 307.549935 
L 85.57841 307.517654 
L 88.806611 307.459906 
L 92.034813 307.360661 
L 95.263014 307.196379 
L 98.491216 306.933714 
L 101.719418 306.526872 
L 104.947619 305.914646 
L 108.175821 305.017322 
L 111.404023 303.733958 
L 114.632224 301.941125 
L 117.860426 299.494767 
L 121.088627 296.237198 
L 124.316829 292.010795 
L 127.545031 286.678465 
L 130.773232 280.148418 
L 134.001434 272.397963 
L 137.229635 263.489296 
L 140.457837 253.570828 
L 143.686039 242.861293 
L 146.91424 231.619745 
L 150.142442 220.11043 
L 153.370643 208.574552 
L 156.598845 197.219052 
L 159.827047 186.225916 
L 163.055248 175.776686 
L 166.28345 166.079728 
L 169.511651 157.385881 
L 172.739853 149.982645 
L 175.968055 144.166099 
L 179.196256 140.199331 
L 182.424458 138.271747 
L 185.652659 138.472759 
L 188.880861 140.786465 
L 192.109063 145.104759 
L 195.337264 151.249322 
L 198.565466 158.991621 
L 201.793667 168.064556 
L 205.021869 178.166724 
L 208.250071 188.966005 
L 211.478272 200.110137 
L 214.706474 211.247634 
L 217.934676 222.055842 
L 221.162877 232.267854 
L 224.391079 241.689418 
L 227.61928 250.200971 
L 230.847482 257.746088 
L 234.075684 264.312593 
L 237.303885 269.913983 
L 240.532087 274.576418 
L 243.760288 278.33215 
L 246.98849 281.216488 
L 250.216692 283.264038 
L 253.444893 284.501364 
L 256.673095 284.936175 
L 259.901296 284.545913 
L 263.129498 283.269918 
L 266.3577 281.009064 
L 269.585901 277.63544 
L 272.814103 273.013287 
L 276.042304 267.031028 
L 279.270506 259.642543 
L 282.498708 250.913026 
L 285.726909 241.061056 
L 288.955111 230.485169 
L 292.183312 219.762488 
L 295.411514 209.610762 
L 298.639716 200.813553 
L 301.867917 194.119127 
L 305.096119 190.13282 
L 308.32432 189.226574 
L 311.552522 191.48604 
L 314.780724 196.706104 
L 318.008925 204.43339 
L 321.237127 214.043282 
L 324.465329 224.832678 
L 327.69353 236.109128 
L 330.921732 247.261501 
L 334.149933 257.804419 
L 337.378135 267.395927 
L 340.606337 275.833186 
L 343.834538 283.03359 
L 347.06274 289.008748 
L 350.290941 293.837215 
L 353.519143 297.639697 
L 356.747345 300.558518 
L 359.975546 302.741814 
L 363.203748 304.332187 
L 366.431949 305.459235 
L 369.660151 306.235297 
L 372.888353 306.753753 
L 376.116554 307.089222 
L 379.344756 307.299076 
L 382.572957 307.425742 
L 385.801159 307.499369 
L 389.029361 307.540502 
L 392.257562 307.562548 
L 395.485764 307.573864 
" style="fill:none;stroke:#008000;stroke-linecap:square;stroke-width:1.5;"/>
   </g>
   <g id="patch_203">
    <path d="M 57.6 307.584 
L 57.6 41.472 
" style="fill:none;stroke:#000000;stroke-linecap:square;stroke-linejoin:miter;stroke-width:0.8;"/>
   </g>
   <g id="patch_204">
    <path d="M 414.72 307.584 
L 414.72 41.472 
" style="fill:none;stroke:#000000;stroke-linecap:square;stroke-linejoin:miter;stroke-width:0.8;"/>
   </g>
   <g id="patch_205">
    <path d="M 57.6 307.584 
L 414.72 307.584 
" style="fill:none;stroke:#000000;stroke-linecap:square;stroke-linejoin:miter;stroke-width:0.8;"/>
   </g>
   <g id="patch_206">
    <path d="M 57.6 41.472 
L 414.72 41.472 
" style="fill:none;stroke:#000000;stroke-linecap:square;stroke-linejoin:miter;stroke-width:0.8;"/>
   </g>
   <g id="text_11">
    <!-- {'mae': 127.357, 'smape': 0.041, 'jsd': 0.089} -->
    <defs>
     <path d="M 51.125 -9.28125 
L 51.125 -16.3125 
L 48.09375 -16.3125 
Q 35.9375 -16.3125 31.8125 -12.6875 
Q 27.6875 -9.078125 27.6875 1.703125 
L 27.6875 13.375 
Q 27.6875 20.75 25.046875 23.578125 
Q 22.40625 26.421875 15.484375 26.421875 
L 12.5 26.421875 
L 12.5 33.40625 
L 15.484375 33.40625 
Q 22.46875 33.40625 25.078125 36.203125 
Q 27.6875 39.015625 27.6875 46.296875 
L 27.6875 58.015625 
Q 27.6875 68.796875 31.8125 72.390625 
Q 35.9375 75.984375 48.09375 75.984375 
L 51.125 75.984375 
L 51.125 69 
L 47.796875 69 
Q 40.921875 69 38.8125 66.84375 
Q 36.71875 64.703125 36.71875 57.8125 
L 36.71875 45.703125 
Q 36.71875 38.03125 34.5 34.5625 
Q 32.28125 31.109375 26.90625 29.890625 
Q 32.328125 28.5625 34.515625 25.09375 
Q 36.71875 21.625 36.71875 14.015625 
L 36.71875 1.90625 
Q 36.71875 -4.984375 38.8125 -7.125 
Q 40.921875 -9.28125 47.796875 -9.28125 
z
" id="DejaVuSans-123"/>
     <path d="M 17.921875 72.90625 
L 17.921875 45.796875 
L 9.625 45.796875 
L 9.625 72.90625 
z
" id="DejaVuSans-39"/>
     <path d="M 52 44.1875 
Q 55.375 50.25 60.0625 53.125 
Q 64.75 56 71.09375 56 
Q 79.640625 56 84.28125 50.015625 
Q 88.921875 44.046875 88.921875 33.015625 
L 88.921875 0 
L 79.890625 0 
L 79.890625 32.71875 
Q 79.890625 40.578125 77.09375 44.375 
Q 74.3125 48.1875 68.609375 48.1875 
Q 61.625 48.1875 57.5625 43.546875 
Q 53.515625 38.921875 53.515625 30.90625 
L 53.515625 0 
L 44.484375 0 
L 44.484375 32.71875 
Q 44.484375 40.625 41.703125 44.40625 
Q 38.921875 48.1875 33.109375 48.1875 
Q 26.21875 48.1875 22.15625 43.53125 
Q 18.109375 38.875 18.109375 30.90625 
L 18.109375 0 
L 9.078125 0 
L 9.078125 54.6875 
L 18.109375 54.6875 
L 18.109375 46.1875 
Q 21.1875 51.21875 25.484375 53.609375 
Q 29.78125 56 35.6875 56 
Q 41.65625 56 45.828125 52.96875 
Q 50 49.953125 52 44.1875 
z
" id="DejaVuSans-109"/>
     <path d="M 34.28125 27.484375 
Q 23.390625 27.484375 19.1875 25 
Q 14.984375 22.515625 14.984375 16.5 
Q 14.984375 11.71875 18.140625 8.90625 
Q 21.296875 6.109375 26.703125 6.109375 
Q 34.1875 6.109375 38.703125 11.40625 
Q 43.21875 16.703125 43.21875 25.484375 
L 43.21875 27.484375 
z
M 52.203125 31.203125 
L 52.203125 0 
L 43.21875 0 
L 43.21875 8.296875 
Q 40.140625 3.328125 35.546875 0.953125 
Q 30.953125 -1.421875 24.3125 -1.421875 
Q 15.921875 -1.421875 10.953125 3.296875 
Q 6 8.015625 6 15.921875 
Q 6 25.140625 12.171875 29.828125 
Q 18.359375 34.515625 30.609375 34.515625 
L 43.21875 34.515625 
L 43.21875 35.40625 
Q 43.21875 41.609375 39.140625 45 
Q 35.0625 48.390625 27.6875 48.390625 
Q 23 48.390625 18.546875 47.265625 
Q 14.109375 46.140625 10.015625 43.890625 
L 10.015625 52.203125 
Q 14.9375 54.109375 19.578125 55.046875 
Q 24.21875 56 28.609375 56 
Q 40.484375 56 46.34375 49.84375 
Q 52.203125 43.703125 52.203125 31.203125 
z
" id="DejaVuSans-97"/>
     <path d="M 56.203125 29.59375 
L 56.203125 25.203125 
L 14.890625 25.203125 
Q 15.484375 15.921875 20.484375 11.0625 
Q 25.484375 6.203125 34.421875 6.203125 
Q 39.59375 6.203125 44.453125 7.46875 
Q 49.3125 8.734375 54.109375 11.28125 
L 54.109375 2.78125 
Q 49.265625 0.734375 44.1875 -0.34375 
Q 39.109375 -1.421875 33.890625 -1.421875 
Q 20.796875 -1.421875 13.15625 6.1875 
Q 5.515625 13.8125 5.515625 26.8125 
Q 5.515625 40.234375 12.765625 48.109375 
Q 20.015625 56 32.328125 56 
Q 43.359375 56 49.78125 48.890625 
Q 56.203125 41.796875 56.203125 29.59375 
z
M 47.21875 32.234375 
Q 47.125 39.59375 43.09375 43.984375 
Q 39.0625 48.390625 32.421875 48.390625 
Q 24.90625 48.390625 20.390625 44.140625 
Q 15.875 39.890625 15.1875 32.171875 
z
" id="DejaVuSans-101"/>
     <path d="M 11.71875 12.40625 
L 22.015625 12.40625 
L 22.015625 0 
L 11.71875 0 
z
M 11.71875 51.703125 
L 22.015625 51.703125 
L 22.015625 39.3125 
L 11.71875 39.3125 
z
" id="DejaVuSans-58"/>
     <path id="DejaVuSans-32"/>
     <path d="M 8.203125 72.90625 
L 55.078125 72.90625 
L 55.078125 68.703125 
L 28.609375 0 
L 18.3125 0 
L 43.21875 64.59375 
L 8.203125 64.59375 
z
" id="DejaVuSans-55"/>
     <path d="M 11.71875 12.40625 
L 22.015625 12.40625 
L 22.015625 4 
L 14.015625 -11.625 
L 7.71875 -11.625 
L 11.71875 4 
z
" id="DejaVuSans-44"/>
     <path d="M 44.28125 53.078125 
L 44.28125 44.578125 
Q 40.484375 46.53125 36.375 47.5 
Q 32.28125 48.484375 27.875 48.484375 
Q 21.1875 48.484375 17.84375 46.4375 
Q 14.5 44.390625 14.5 40.28125 
Q 14.5 37.15625 16.890625 35.375 
Q 19.28125 33.59375 26.515625 31.984375 
L 29.59375 31.296875 
Q 39.15625 29.25 43.1875 25.515625 
Q 47.21875 21.78125 47.21875 15.09375 
Q 47.21875 7.46875 41.1875 3.015625 
Q 35.15625 -1.421875 24.609375 -1.421875 
Q 20.21875 -1.421875 15.453125 -0.5625 
Q 10.6875 0.296875 5.421875 2 
L 5.421875 11.28125 
Q 10.40625 8.6875 15.234375 7.390625 
Q 20.0625 6.109375 24.8125 6.109375 
Q 31.15625 6.109375 34.5625 8.28125 
Q 37.984375 10.453125 37.984375 14.40625 
Q 37.984375 18.0625 35.515625 20.015625 
Q 33.0625 21.96875 24.703125 23.78125 
L 21.578125 24.515625 
Q 13.234375 26.265625 9.515625 29.90625 
Q 5.8125 33.546875 5.8125 39.890625 
Q 5.8125 47.609375 11.28125 51.796875 
Q 16.75 56 26.8125 56 
Q 31.78125 56 36.171875 55.265625 
Q 40.578125 54.546875 44.28125 53.078125 
z
" id="DejaVuSans-115"/>
     <path d="M 18.109375 8.203125 
L 18.109375 -20.796875 
L 9.078125 -20.796875 
L 9.078125 54.6875 
L 18.109375 54.6875 
L 18.109375 46.390625 
Q 20.953125 51.265625 25.265625 53.625 
Q 29.59375 56 35.59375 56 
Q 45.5625 56 51.78125 48.09375 
Q 58.015625 40.1875 58.015625 27.296875 
Q 58.015625 14.40625 51.78125 6.484375 
Q 45.5625 -1.421875 35.59375 -1.421875 
Q 29.59375 -1.421875 25.265625 0.953125 
Q 20.953125 3.328125 18.109375 8.203125 
z
M 48.6875 27.296875 
Q 48.6875 37.203125 44.609375 42.84375 
Q 40.53125 48.484375 33.40625 48.484375 
Q 26.265625 48.484375 22.1875 42.84375 
Q 18.109375 37.203125 18.109375 27.296875 
Q 18.109375 17.390625 22.1875 11.75 
Q 26.265625 6.109375 33.40625 6.109375 
Q 40.53125 6.109375 44.609375 11.75 
Q 48.6875 17.390625 48.6875 27.296875 
z
" id="DejaVuSans-112"/>
     <path d="M 9.421875 54.6875 
L 18.40625 54.6875 
L 18.40625 -0.984375 
Q 18.40625 -11.421875 14.421875 -16.109375 
Q 10.453125 -20.796875 1.609375 -20.796875 
L -1.8125 -20.796875 
L -1.8125 -13.1875 
L 0.59375 -13.1875 
Q 5.71875 -13.1875 7.5625 -10.8125 
Q 9.421875 -8.453125 9.421875 -0.984375 
z
M 9.421875 75.984375 
L 18.40625 75.984375 
L 18.40625 64.59375 
L 9.421875 64.59375 
z
" id="DejaVuSans-106"/>
     <path d="M 45.40625 46.390625 
L 45.40625 75.984375 
L 54.390625 75.984375 
L 54.390625 0 
L 45.40625 0 
L 45.40625 8.203125 
Q 42.578125 3.328125 38.25 0.953125 
Q 33.9375 -1.421875 27.875 -1.421875 
Q 17.96875 -1.421875 11.734375 6.484375 
Q 5.515625 14.40625 5.515625 27.296875 
Q 5.515625 40.1875 11.734375 48.09375 
Q 17.96875 56 27.875 56 
Q 33.9375 56 38.25 53.625 
Q 42.578125 51.265625 45.40625 46.390625 
z
M 14.796875 27.296875 
Q 14.796875 17.390625 18.875 11.75 
Q 22.953125 6.109375 30.078125 6.109375 
Q 37.203125 6.109375 41.296875 11.75 
Q 45.40625 17.390625 45.40625 27.296875 
Q 45.40625 37.203125 41.296875 42.84375 
Q 37.203125 48.484375 30.078125 48.484375 
Q 22.953125 48.484375 18.875 42.84375 
Q 14.796875 37.203125 14.796875 27.296875 
z
" id="DejaVuSans-100"/>
     <path d="M 10.984375 1.515625 
L 10.984375 10.5 
Q 14.703125 8.734375 18.5 7.8125 
Q 22.3125 6.890625 25.984375 6.890625 
Q 35.75 6.890625 40.890625 13.453125 
Q 46.046875 20.015625 46.78125 33.40625 
Q 43.953125 29.203125 39.59375 26.953125 
Q 35.25 24.703125 29.984375 24.703125 
Q 19.046875 24.703125 12.671875 31.3125 
Q 6.296875 37.9375 6.296875 49.421875 
Q 6.296875 60.640625 12.9375 67.421875 
Q 19.578125 74.21875 30.609375 74.21875 
Q 43.265625 74.21875 49.921875 64.515625 
Q 56.59375 54.828125 56.59375 36.375 
Q 56.59375 19.140625 48.40625 8.859375 
Q 40.234375 -1.421875 26.421875 -1.421875 
Q 22.703125 -1.421875 18.890625 -0.6875 
Q 15.09375 0.046875 10.984375 1.515625 
z
M 30.609375 32.421875 
Q 37.25 32.421875 41.125 36.953125 
Q 45.015625 41.5 45.015625 49.421875 
Q 45.015625 57.28125 41.125 61.84375 
Q 37.25 66.40625 30.609375 66.40625 
Q 23.96875 66.40625 20.09375 61.84375 
Q 16.21875 57.28125 16.21875 49.421875 
Q 16.21875 41.5 20.09375 36.953125 
Q 23.96875 32.421875 30.609375 32.421875 
z
" id="DejaVuSans-57"/>
     <path d="M 12.5 -9.28125 
L 15.921875 -9.28125 
Q 22.75 -9.28125 24.828125 -7.171875 
Q 26.90625 -5.078125 26.90625 1.90625 
L 26.90625 14.015625 
Q 26.90625 21.625 29.09375 25.09375 
Q 31.296875 28.5625 36.71875 29.890625 
Q 31.296875 31.109375 29.09375 34.5625 
Q 26.90625 38.03125 26.90625 45.703125 
L 26.90625 57.8125 
Q 26.90625 64.75 24.828125 66.875 
Q 22.75 69 15.921875 69 
L 12.5 69 
L 12.5 75.984375 
L 15.578125 75.984375 
Q 27.734375 75.984375 31.8125 72.390625 
Q 35.890625 68.796875 35.890625 58.015625 
L 35.890625 46.296875 
Q 35.890625 39.015625 38.515625 36.203125 
Q 41.15625 33.40625 48.09375 33.40625 
L 51.125 33.40625 
L 51.125 26.421875 
L 48.09375 26.421875 
Q 41.15625 26.421875 38.515625 23.578125 
Q 35.890625 20.75 35.890625 13.375 
L 35.890625 1.703125 
Q 35.890625 -9.078125 31.8125 -12.6875 
Q 27.734375 -16.3125 15.578125 -16.3125 
L 12.5 -16.3125 
z
" id="DejaVuSans-125"/>
    </defs>
    <g transform="translate(98.090625 35.472)scale(0.12 -0.12)">
     <use xlink:href="#DejaVuSans-123"/>
     <use x="63.623047" xlink:href="#DejaVuSans-39"/>
     <use x="91.113281" xlink:href="#DejaVuSans-109"/>
     <use x="188.525391" xlink:href="#DejaVuSans-97"/>
     <use x="249.804688" xlink:href="#DejaVuSans-101"/>
     <use x="311.328125" xlink:href="#DejaVuSans-39"/>
     <use x="338.818359" xlink:href="#DejaVuSans-58"/>
     <use x="372.509766" xlink:href="#DejaVuSans-32"/>
     <use x="404.296875" xlink:href="#DejaVuSans-49"/>
     <use x="467.919922" xlink:href="#DejaVuSans-50"/>
     <use x="531.542969" xlink:href="#DejaVuSans-55"/>
     <use x="595.166016" xlink:href="#DejaVuSans-46"/>
     <use x="626.953125" xlink:href="#DejaVuSans-51"/>
     <use x="690.576172" xlink:href="#DejaVuSans-53"/>
     <use x="754.199219" xlink:href="#DejaVuSans-55"/>
     <use x="817.822266" xlink:href="#DejaVuSans-44"/>
     <use x="849.609375" xlink:href="#DejaVuSans-32"/>
     <use x="881.396484" xlink:href="#DejaVuSans-39"/>
     <use x="908.886719" xlink:href="#DejaVuSans-115"/>
     <use x="960.986328" xlink:href="#DejaVuSans-109"/>
     <use x="1058.398438" xlink:href="#DejaVuSans-97"/>
     <use x="1119.677734" xlink:href="#DejaVuSans-112"/>
     <use x="1183.154297" xlink:href="#DejaVuSans-101"/>
     <use x="1244.677734" xlink:href="#DejaVuSans-39"/>
     <use x="1272.167969" xlink:href="#DejaVuSans-58"/>
     <use x="1305.859375" xlink:href="#DejaVuSans-32"/>
     <use x="1337.646484" xlink:href="#DejaVuSans-48"/>
     <use x="1401.269531" xlink:href="#DejaVuSans-46"/>
     <use x="1433.056641" xlink:href="#DejaVuSans-48"/>
     <use x="1496.679688" xlink:href="#DejaVuSans-52"/>
     <use x="1560.302734" xlink:href="#DejaVuSans-49"/>
     <use x="1623.925781" xlink:href="#DejaVuSans-44"/>
     <use x="1655.712891" xlink:href="#DejaVuSans-32"/>
     <use x="1687.5" xlink:href="#DejaVuSans-39"/>
     <use x="1714.990234" xlink:href="#DejaVuSans-106"/>
     <use x="1742.773438" xlink:href="#DejaVuSans-115"/>
     <use x="1794.873047" xlink:href="#DejaVuSans-100"/>
     <use x="1858.349609" xlink:href="#DejaVuSans-39"/>
     <use x="1885.839844" xlink:href="#DejaVuSans-58"/>
     <use x="1919.53125" xlink:href="#DejaVuSans-32"/>
     <use x="1951.318359" xlink:href="#DejaVuSans-48"/>
     <use x="2014.941406" xlink:href="#DejaVuSans-46"/>
     <use x="2046.728516" xlink:href="#DejaVuSans-48"/>
     <use x="2110.351562" xlink:href="#DejaVuSans-56"/>
     <use x="2173.974609" xlink:href="#DejaVuSans-57"/>
     <use x="2237.597656" xlink:href="#DejaVuSans-125"/>
    </g>
   </g>
   <g id="legend_1">
    <g id="patch_207">
     <path d="M 340.565313 78.82825 
L 407.72 78.82825 
Q 409.72 78.82825 409.72 76.82825 
L 409.72 48.472 
Q 409.72 46.472 407.72 46.472 
L 340.565313 46.472 
Q 338.565313 46.472 338.565313 48.472 
L 338.565313 76.82825 
Q 338.565313 78.82825 340.565313 78.82825 
z
" style="fill:#ffffff;opacity:0.8;stroke:#cccccc;stroke-linejoin:miter;"/>
    </g>
    <g id="patch_208">
     <path d="M 342.565313 58.070437 
L 362.565313 58.070437 
L 362.565313 51.070437 
L 342.565313 51.070437 
z
" style="fill:#f48024;opacity:0.4;"/>
    </g>
    <g id="text_12">
     <!-- actual -->
     <defs>
      <path d="M 48.78125 52.59375 
L 48.78125 44.1875 
Q 44.96875 46.296875 41.140625 47.34375 
Q 37.3125 48.390625 33.40625 48.390625 
Q 24.65625 48.390625 19.8125 42.84375 
Q 14.984375 37.3125 14.984375 27.296875 
Q 14.984375 17.28125 19.8125 11.734375 
Q 24.65625 6.203125 33.40625 6.203125 
Q 37.3125 6.203125 41.140625 7.25 
Q 44.96875 8.296875 48.78125 10.40625 
L 48.78125 2.09375 
Q 45.015625 0.34375 40.984375 -0.53125 
Q 36.96875 -1.421875 32.421875 -1.421875 
Q 20.0625 -1.421875 12.78125 6.34375 
Q 5.515625 14.109375 5.515625 27.296875 
Q 5.515625 40.671875 12.859375 48.328125 
Q 20.21875 56 33.015625 56 
Q 37.15625 56 41.109375 55.140625 
Q 45.0625 54.296875 48.78125 52.59375 
z
" id="DejaVuSans-99"/>
      <path d="M 18.3125 70.21875 
L 18.3125 54.6875 
L 36.8125 54.6875 
L 36.8125 47.703125 
L 18.3125 47.703125 
L 18.3125 18.015625 
Q 18.3125 11.328125 20.140625 9.421875 
Q 21.96875 7.515625 27.59375 7.515625 
L 36.8125 7.515625 
L 36.8125 0 
L 27.59375 0 
Q 17.1875 0 13.234375 3.875 
Q 9.28125 7.765625 9.28125 18.015625 
L 9.28125 47.703125 
L 2.6875 47.703125 
L 2.6875 54.6875 
L 9.28125 54.6875 
L 9.28125 70.21875 
z
" id="DejaVuSans-116"/>
      <path d="M 8.5 21.578125 
L 8.5 54.6875 
L 17.484375 54.6875 
L 17.484375 21.921875 
Q 17.484375 14.15625 20.5 10.265625 
Q 23.53125 6.390625 29.59375 6.390625 
Q 36.859375 6.390625 41.078125 11.03125 
Q 45.3125 15.671875 45.3125 23.6875 
L 45.3125 54.6875 
L 54.296875 54.6875 
L 54.296875 0 
L 45.3125 0 
L 45.3125 8.40625 
Q 42.046875 3.421875 37.71875 1 
Q 33.40625 -1.421875 27.6875 -1.421875 
Q 18.265625 -1.421875 13.375 4.4375 
Q 8.5 10.296875 8.5 21.578125 
z
M 31.109375 56 
z
" id="DejaVuSans-117"/>
      <path d="M 9.421875 75.984375 
L 18.40625 75.984375 
L 18.40625 0 
L 9.421875 0 
z
" id="DejaVuSans-108"/>
     </defs>
     <g transform="translate(370.565313 58.070437)scale(0.1 -0.1)">
      <use xlink:href="#DejaVuSans-97"/>
      <use x="61.279297" xlink:href="#DejaVuSans-99"/>
      <use x="116.259766" xlink:href="#DejaVuSans-116"/>
      <use x="155.46875" xlink:href="#DejaVuSans-117"/>
      <use x="218.847656" xlink:href="#DejaVuSans-97"/>
      <use x="280.126953" xlink:href="#DejaVuSans-108"/>
     </g>
    </g>
    <g id="patch_209">
     <path d="M 342.565313 72.748562 
L 362.565313 72.748562 
L 362.565313 65.748562 
L 342.565313 65.748562 
z
" style="fill:#008000;opacity:0.4;"/>
    </g>
    <g id="text_13">
     <!-- predict -->
     <defs>
      <path d="M 41.109375 46.296875 
Q 39.59375 47.171875 37.8125 47.578125 
Q 36.03125 48 33.890625 48 
Q 26.265625 48 22.1875 43.046875 
Q 18.109375 38.09375 18.109375 28.8125 
L 18.109375 0 
L 9.078125 0 
L 9.078125 54.6875 
L 18.109375 54.6875 
L 18.109375 46.1875 
Q 20.953125 51.171875 25.484375 53.578125 
Q 30.03125 56 36.53125 56 
Q 37.453125 56 38.578125 55.875 
Q 39.703125 55.765625 41.0625 55.515625 
z
" id="DejaVuSans-114"/>
      <path d="M 9.421875 54.6875 
L 18.40625 54.6875 
L 18.40625 0 
L 9.421875 0 
z
M 9.421875 75.984375 
L 18.40625 75.984375 
L 18.40625 64.59375 
L 9.421875 64.59375 
z
" id="DejaVuSans-105"/>
     </defs>
     <g transform="translate(370.565313 72.748562)scale(0.1 -0.1)">
      <use xlink:href="#DejaVuSans-112"/>
      <use x="63.476562" xlink:href="#DejaVuSans-114"/>
      <use x="104.558594" xlink:href="#DejaVuSans-101"/>
      <use x="166.082031" xlink:href="#DejaVuSans-100"/>
      <use x="229.558594" xlink:href="#DejaVuSans-105"/>
      <use x="257.341797" xlink:href="#DejaVuSans-99"/>
      <use x="312.322266" xlink:href="#DejaVuSans-116"/>
     </g>
    </g>
   </g>
  </g>
 </g>
 <defs>
  <clipPath id="p72019b0043">
   <rect height="266.112" width="357.12" x="57.6" y="41.472"/>
  </clipPath>
 </defs>
</svg>
