<?xml version="1.0" encoding="utf-8" standalone="no"?>
<!DOCTYPE svg PUBLIC "-//W3C//DTD SVG 1.1//EN"
  "http://www.w3.org/Graphics/SVG/1.1/DTD/svg11.dtd">
<!-- Created with matplotlib (https://matplotlib.org/) -->
<svg height="345.6pt" version="1.1" viewBox="0 0 460.8 345.6" width="460.8pt" xmlns="http://www.w3.org/2000/svg" xmlns:xlink="http://www.w3.org/1999/xlink">
 <defs>
  <style type="text/css">
*{stroke-linecap:butt;stroke-linejoin:round;}
  </style>
 </defs>
 <g id="figure_1">
  <g id="patch_1">
   <path d="M 0 345.6 
L 460.8 345.6 
L 460.8 0 
L 0 0 
z
" style="fill:#ffffff;"/>
  </g>
  <g id="axes_1">
   <g id="patch_2">
    <path d="M 57.6 307.584 
L 414.72 307.584 
L 414.72 41.472 
L 57.6 41.472 
z
" style="fill:#ffffff;"/>
   </g>
   <g id="patch_3">
    <path clip-path="url(#p00c9c1cb69)" d="M 116.179316 307.584 
L 118.57893 307.584 
L 118.57893 246.701209 
L 116.179316 246.701209 
z
" style="fill:#f48024;opacity:0.4;"/>
   </g>
   <g id="patch_4">
    <path clip-path="url(#p00c9c1cb69)" d="M 118.57893 307.584 
L 120.978544 307.584 
L 120.978544 168.142769 
L 118.57893 168.142769 
z
" style="fill:#f48024;opacity:0.4;"/>
   </g>
   <g id="patch_5">
    <path clip-path="url(#p00c9c1cb69)" d="M 120.978544 307.584 
L 123.378157 307.584 
L 123.378157 174.034652 
L 120.978544 174.034652 
z
" style="fill:#f48024;opacity:0.4;"/>
   </g>
   <g id="patch_6">
    <path clip-path="url(#p00c9c1cb69)" d="M 123.378157 307.584 
L 125.777771 307.584 
L 125.777771 95.476211 
L 123.378157 95.476211 
z
" style="fill:#f48024;opacity:0.4;"/>
   </g>
   <g id="patch_7">
    <path clip-path="url(#p00c9c1cb69)" d="M 125.777771 307.584 
L 128.177385 307.584 
L 128.177385 79.764523 
L 125.777771 79.764523 
z
" style="fill:#f48024;opacity:0.4;"/>
   </g>
   <g id="patch_8">
    <path clip-path="url(#p00c9c1cb69)" d="M 128.177385 307.584 
L 130.576998 307.584 
L 130.576998 54.23303 
L 128.177385 54.23303 
z
" style="fill:#f48024;opacity:0.4;"/>
   </g>
   <g id="patch_9">
    <path clip-path="url(#p00c9c1cb69)" d="M 130.576998 307.584 
L 132.976612 307.584 
L 132.976612 101.368094 
L 130.576998 101.368094 
z
" style="fill:#f48024;opacity:0.4;"/>
   </g>
   <g id="patch_10">
    <path clip-path="url(#p00c9c1cb69)" d="M 132.976612 307.584 
L 135.376226 307.584 
L 135.376226 189.74634 
L 132.976612 189.74634 
z
" style="fill:#f48024;opacity:0.4;"/>
   </g>
   <g id="patch_11">
    <path clip-path="url(#p00c9c1cb69)" d="M 135.376226 307.584 
L 137.775839 307.584 
L 137.775839 189.74634 
L 135.376226 189.74634 
z
" style="fill:#f48024;opacity:0.4;"/>
   </g>
   <g id="patch_12">
    <path clip-path="url(#p00c9c1cb69)" d="M 137.775839 307.584 
L 140.175453 307.584 
L 140.175453 221.169716 
L 137.775839 221.169716 
z
" style="fill:#f48024;opacity:0.4;"/>
   </g>
   <g id="patch_13">
    <path clip-path="url(#p00c9c1cb69)" d="M 140.175453 307.584 
L 142.575067 307.584 
L 142.575067 230.989521 
L 140.175453 230.989521 
z
" style="fill:#f48024;opacity:0.4;"/>
   </g>
   <g id="patch_14">
    <path clip-path="url(#p00c9c1cb69)" d="M 142.575067 307.584 
L 144.97468 307.584 
L 144.97468 244.737248 
L 142.575067 244.737248 
z
" style="fill:#f48024;opacity:0.4;"/>
   </g>
   <g id="patch_15">
    <path clip-path="url(#p00c9c1cb69)" d="M 144.97468 307.584 
L 147.374294 307.584 
L 147.374294 189.74634 
L 144.97468 189.74634 
z
" style="fill:#f48024;opacity:0.4;"/>
   </g>
   <g id="patch_16">
    <path clip-path="url(#p00c9c1cb69)" d="M 147.374294 307.584 
L 149.773908 307.584 
L 149.773908 209.38595 
L 147.374294 209.38595 
z
" style="fill:#f48024;opacity:0.4;"/>
   </g>
   <g id="patch_17">
    <path clip-path="url(#p00c9c1cb69)" d="M 149.773908 307.584 
L 152.173521 307.584 
L 152.173521 244.737248 
L 149.773908 244.737248 
z
" style="fill:#f48024;opacity:0.4;"/>
   </g>
   <g id="patch_18">
    <path clip-path="url(#p00c9c1cb69)" d="M 152.173521 307.584 
L 154.573135 307.584 
L 154.573135 240.809326 
L 152.173521 240.809326 
z
" style="fill:#f48024;opacity:0.4;"/>
   </g>
   <g id="patch_19">
    <path clip-path="url(#p00c9c1cb69)" d="M 154.573135 307.584 
L 156.972749 307.584 
L 156.972749 232.953482 
L 154.573135 232.953482 
z
" style="fill:#f48024;opacity:0.4;"/>
   </g>
   <g id="patch_20">
    <path clip-path="url(#p00c9c1cb69)" d="M 156.972749 307.584 
L 159.372362 307.584 
L 159.372362 168.142769 
L 156.972749 168.142769 
z
" style="fill:#f48024;opacity:0.4;"/>
   </g>
   <g id="patch_21">
    <path clip-path="url(#p00c9c1cb69)" d="M 159.372362 307.584 
L 161.771976 307.584 
L 161.771976 138.683353 
L 159.372362 138.683353 
z
" style="fill:#f48024;opacity:0.4;"/>
   </g>
   <g id="patch_22">
    <path clip-path="url(#p00c9c1cb69)" d="M 161.771976 307.584 
L 164.17159 307.584 
L 164.17159 215.277833 
L 161.771976 215.277833 
z
" style="fill:#f48024;opacity:0.4;"/>
   </g>
   <g id="patch_23">
    <path clip-path="url(#p00c9c1cb69)" d="M 164.17159 307.584 
L 166.571203 307.584 
L 166.571203 203.494067 
L 164.17159 203.494067 
z
" style="fill:#f48024;opacity:0.4;"/>
   </g>
   <g id="patch_24">
    <path clip-path="url(#p00c9c1cb69)" d="M 166.571203 307.584 
L 168.970817 307.584 
L 168.970817 217.241794 
L 166.571203 217.241794 
z
" style="fill:#f48024;opacity:0.4;"/>
   </g>
   <g id="patch_25">
    <path clip-path="url(#p00c9c1cb69)" d="M 168.970817 307.584 
L 171.370431 307.584 
L 171.370431 242.773287 
L 168.970817 242.773287 
z
" style="fill:#f48024;opacity:0.4;"/>
   </g>
   <g id="patch_26">
    <path clip-path="url(#p00c9c1cb69)" d="M 171.370431 307.584 
L 173.770044 307.584 
L 173.770044 209.38595 
L 171.370431 209.38595 
z
" style="fill:#f48024;opacity:0.4;"/>
   </g>
   <g id="patch_27">
    <path clip-path="url(#p00c9c1cb69)" d="M 173.770044 307.584 
L 176.169658 307.584 
L 176.169658 240.809326 
L 173.770044 240.809326 
z
" style="fill:#f48024;opacity:0.4;"/>
   </g>
   <g id="patch_28">
    <path clip-path="url(#p00c9c1cb69)" d="M 176.169658 307.584 
L 178.569272 307.584 
L 178.569272 213.313872 
L 176.169658 213.313872 
z
" style="fill:#f48024;opacity:0.4;"/>
   </g>
   <g id="patch_29">
    <path clip-path="url(#p00c9c1cb69)" d="M 178.569272 307.584 
L 180.968886 307.584 
L 180.968886 225.097638 
L 178.569272 225.097638 
z
" style="fill:#f48024;opacity:0.4;"/>
   </g>
   <g id="patch_30">
    <path clip-path="url(#p00c9c1cb69)" d="M 180.968886 307.584 
L 183.368499 307.584 
L 183.368499 236.881404 
L 180.968886 236.881404 
z
" style="fill:#f48024;opacity:0.4;"/>
   </g>
   <g id="patch_31">
    <path clip-path="url(#p00c9c1cb69)" d="M 183.368499 307.584 
L 185.768113 307.584 
L 185.768113 250.629131 
L 183.368499 250.629131 
z
" style="fill:#f48024;opacity:0.4;"/>
   </g>
   <g id="patch_32">
    <path clip-path="url(#p00c9c1cb69)" d="M 185.768113 307.584 
L 188.167727 307.584 
L 188.167727 246.701209 
L 185.768113 246.701209 
z
" style="fill:#f48024;opacity:0.4;"/>
   </g>
   <g id="patch_33">
    <path clip-path="url(#p00c9c1cb69)" d="M 188.167727 307.584 
L 190.56734 307.584 
L 190.56734 250.629131 
L 188.167727 250.629131 
z
" style="fill:#f48024;opacity:0.4;"/>
   </g>
   <g id="patch_34">
    <path clip-path="url(#p00c9c1cb69)" d="M 190.56734 307.584 
L 192.966954 307.584 
L 192.966954 244.737248 
L 190.56734 244.737248 
z
" style="fill:#f48024;opacity:0.4;"/>
   </g>
   <g id="patch_35">
    <path clip-path="url(#p00c9c1cb69)" d="M 192.966954 307.584 
L 195.366568 307.584 
L 195.366568 250.629131 
L 192.966954 250.629131 
z
" style="fill:#f48024;opacity:0.4;"/>
   </g>
   <g id="patch_36">
    <path clip-path="url(#p00c9c1cb69)" d="M 195.366568 307.584 
L 197.766181 307.584 
L 197.766181 266.340819 
L 195.366568 266.340819 
z
" style="fill:#f48024;opacity:0.4;"/>
   </g>
   <g id="patch_37">
    <path clip-path="url(#p00c9c1cb69)" d="M 197.766181 307.584 
L 200.165795 307.584 
L 200.165795 268.30478 
L 197.766181 268.30478 
z
" style="fill:#f48024;opacity:0.4;"/>
   </g>
   <g id="patch_38">
    <path clip-path="url(#p00c9c1cb69)" d="M 200.165795 307.584 
L 202.565409 307.584 
L 202.565409 262.412897 
L 200.165795 262.412897 
z
" style="fill:#f48024;opacity:0.4;"/>
   </g>
   <g id="patch_39">
    <path clip-path="url(#p00c9c1cb69)" d="M 202.565409 307.584 
L 204.965022 307.584 
L 204.965022 252.593092 
L 202.565409 252.593092 
z
" style="fill:#f48024;opacity:0.4;"/>
   </g>
   <g id="patch_40">
    <path clip-path="url(#p00c9c1cb69)" d="M 204.965022 307.584 
L 207.364636 307.584 
L 207.364636 262.412897 
L 204.965022 262.412897 
z
" style="fill:#f48024;opacity:0.4;"/>
   </g>
   <g id="patch_41">
    <path clip-path="url(#p00c9c1cb69)" d="M 207.364636 307.584 
L 209.76425 307.584 
L 209.76425 266.340819 
L 207.364636 266.340819 
z
" style="fill:#f48024;opacity:0.4;"/>
   </g>
   <g id="patch_42">
    <path clip-path="url(#p00c9c1cb69)" d="M 209.76425 307.584 
L 212.163863 307.584 
L 212.163863 272.232702 
L 209.76425 272.232702 
z
" style="fill:#f48024;opacity:0.4;"/>
   </g>
   <g id="patch_43">
    <path clip-path="url(#p00c9c1cb69)" d="M 212.163863 307.584 
L 214.563477 307.584 
L 214.563477 276.160624 
L 212.163863 276.160624 
z
" style="fill:#f48024;opacity:0.4;"/>
   </g>
   <g id="patch_44">
    <path clip-path="url(#p00c9c1cb69)" d="M 214.563477 307.584 
L 216.963091 307.584 
L 216.963091 274.196663 
L 214.563477 274.196663 
z
" style="fill:#f48024;opacity:0.4;"/>
   </g>
   <g id="patch_45">
    <path clip-path="url(#p00c9c1cb69)" d="M 216.963091 307.584 
L 219.362704 307.584 
L 219.362704 276.160624 
L 216.963091 276.160624 
z
" style="fill:#f48024;opacity:0.4;"/>
   </g>
   <g id="patch_46">
    <path clip-path="url(#p00c9c1cb69)" d="M 219.362704 307.584 
L 221.762318 307.584 
L 221.762318 284.016468 
L 219.362704 284.016468 
z
" style="fill:#f48024;opacity:0.4;"/>
   </g>
   <g id="patch_47">
    <path clip-path="url(#p00c9c1cb69)" d="M 221.762318 307.584 
L 224.161932 307.584 
L 224.161932 276.160624 
L 221.762318 276.160624 
z
" style="fill:#f48024;opacity:0.4;"/>
   </g>
   <g id="patch_48">
    <path clip-path="url(#p00c9c1cb69)" d="M 224.161932 307.584 
L 226.561545 307.584 
L 226.561545 285.980429 
L 224.161932 285.980429 
z
" style="fill:#f48024;opacity:0.4;"/>
   </g>
   <g id="patch_49">
    <path clip-path="url(#p00c9c1cb69)" d="M 226.561545 307.584 
L 228.961159 307.584 
L 228.961159 280.088546 
L 226.561545 280.088546 
z
" style="fill:#f48024;opacity:0.4;"/>
   </g>
   <g id="patch_50">
    <path clip-path="url(#p00c9c1cb69)" d="M 228.961159 307.584 
L 231.360773 307.584 
L 231.360773 280.088546 
L 228.961159 280.088546 
z
" style="fill:#f48024;opacity:0.4;"/>
   </g>
   <g id="patch_51">
    <path clip-path="url(#p00c9c1cb69)" d="M 231.360773 307.584 
L 233.760386 307.584 
L 233.760386 287.94439 
L 231.360773 287.94439 
z
" style="fill:#f48024;opacity:0.4;"/>
   </g>
   <g id="patch_52">
    <path clip-path="url(#p00c9c1cb69)" d="M 233.760386 307.584 
L 236.16 307.584 
L 236.16 272.232702 
L 233.760386 272.232702 
z
" style="fill:#f48024;opacity:0.4;"/>
   </g>
   <g id="patch_53">
    <path clip-path="url(#p00c9c1cb69)" d="M 236.16 307.584 
L 238.559614 307.584 
L 238.559614 284.016468 
L 236.16 284.016468 
z
" style="fill:#f48024;opacity:0.4;"/>
   </g>
   <g id="patch_54">
    <path clip-path="url(#p00c9c1cb69)" d="M 238.559614 307.584 
L 240.959227 307.584 
L 240.959227 282.052507 
L 238.559614 282.052507 
z
" style="fill:#f48024;opacity:0.4;"/>
   </g>
   <g id="patch_55">
    <path clip-path="url(#p00c9c1cb69)" d="M 240.959227 307.584 
L 243.358841 307.584 
L 243.358841 266.340819 
L 240.959227 266.340819 
z
" style="fill:#f48024;opacity:0.4;"/>
   </g>
   <g id="patch_56">
    <path clip-path="url(#p00c9c1cb69)" d="M 243.358841 307.584 
L 245.758455 307.584 
L 245.758455 266.340819 
L 243.358841 266.340819 
z
" style="fill:#f48024;opacity:0.4;"/>
   </g>
   <g id="patch_57">
    <path clip-path="url(#p00c9c1cb69)" d="M 245.758455 307.584 
L 248.158068 307.584 
L 248.158068 266.340819 
L 245.758455 266.340819 
z
" style="fill:#f48024;opacity:0.4;"/>
   </g>
   <g id="patch_58">
    <path clip-path="url(#p00c9c1cb69)" d="M 248.158068 307.584 
L 250.557682 307.584 
L 250.557682 270.268741 
L 248.158068 270.268741 
z
" style="fill:#f48024;opacity:0.4;"/>
   </g>
   <g id="patch_59">
    <path clip-path="url(#p00c9c1cb69)" d="M 250.557682 307.584 
L 252.957296 307.584 
L 252.957296 282.052507 
L 250.557682 282.052507 
z
" style="fill:#f48024;opacity:0.4;"/>
   </g>
   <g id="patch_60">
    <path clip-path="url(#p00c9c1cb69)" d="M 252.957296 307.584 
L 255.356909 307.584 
L 255.356909 276.160624 
L 252.957296 276.160624 
z
" style="fill:#f48024;opacity:0.4;"/>
   </g>
   <g id="patch_61">
    <path clip-path="url(#p00c9c1cb69)" d="M 255.356909 307.584 
L 257.756523 307.584 
L 257.756523 289.908351 
L 255.356909 289.908351 
z
" style="fill:#f48024;opacity:0.4;"/>
   </g>
   <g id="patch_62">
    <path clip-path="url(#p00c9c1cb69)" d="M 257.756523 307.584 
L 260.156137 307.584 
L 260.156137 289.908351 
L 257.756523 289.908351 
z
" style="fill:#f48024;opacity:0.4;"/>
   </g>
   <g id="patch_63">
    <path clip-path="url(#p00c9c1cb69)" d="M 260.156137 307.584 
L 262.55575 307.584 
L 262.55575 284.016468 
L 260.156137 284.016468 
z
" style="fill:#f48024;opacity:0.4;"/>
   </g>
   <g id="patch_64">
    <path clip-path="url(#p00c9c1cb69)" d="M 262.55575 307.584 
L 264.955364 307.584 
L 264.955364 293.836273 
L 262.55575 293.836273 
z
" style="fill:#f48024;opacity:0.4;"/>
   </g>
   <g id="patch_65">
    <path clip-path="url(#p00c9c1cb69)" d="M 264.955364 307.584 
L 267.354978 307.584 
L 267.354978 287.94439 
L 264.955364 287.94439 
z
" style="fill:#f48024;opacity:0.4;"/>
   </g>
   <g id="patch_66">
    <path clip-path="url(#p00c9c1cb69)" d="M 267.354978 307.584 
L 269.754591 307.584 
L 269.754591 284.016468 
L 267.354978 284.016468 
z
" style="fill:#f48024;opacity:0.4;"/>
   </g>
   <g id="patch_67">
    <path clip-path="url(#p00c9c1cb69)" d="M 269.754591 307.584 
L 272.154205 307.584 
L 272.154205 284.016468 
L 269.754591 284.016468 
z
" style="fill:#f48024;opacity:0.4;"/>
   </g>
   <g id="patch_68">
    <path clip-path="url(#p00c9c1cb69)" d="M 272.154205 307.584 
L 274.553819 307.584 
L 274.553819 280.088546 
L 272.154205 280.088546 
z
" style="fill:#f48024;opacity:0.4;"/>
   </g>
   <g id="patch_69">
    <path clip-path="url(#p00c9c1cb69)" d="M 274.553819 307.584 
L 276.953432 307.584 
L 276.953432 297.764195 
L 274.553819 297.764195 
z
" style="fill:#f48024;opacity:0.4;"/>
   </g>
   <g id="patch_70">
    <path clip-path="url(#p00c9c1cb69)" d="M 276.953432 307.584 
L 279.353046 307.584 
L 279.353046 278.124585 
L 276.953432 278.124585 
z
" style="fill:#f48024;opacity:0.4;"/>
   </g>
   <g id="patch_71">
    <path clip-path="url(#p00c9c1cb69)" d="M 279.353046 307.584 
L 281.75266 307.584 
L 281.75266 274.196663 
L 279.353046 274.196663 
z
" style="fill:#f48024;opacity:0.4;"/>
   </g>
   <g id="patch_72">
    <path clip-path="url(#p00c9c1cb69)" d="M 281.75266 307.584 
L 284.152273 307.584 
L 284.152273 264.376858 
L 281.75266 264.376858 
z
" style="fill:#f48024;opacity:0.4;"/>
   </g>
   <g id="patch_73">
    <path clip-path="url(#p00c9c1cb69)" d="M 284.152273 307.584 
L 286.551887 307.584 
L 286.551887 264.376858 
L 284.152273 264.376858 
z
" style="fill:#f48024;opacity:0.4;"/>
   </g>
   <g id="patch_74">
    <path clip-path="url(#p00c9c1cb69)" d="M 286.551887 307.584 
L 288.951501 307.584 
L 288.951501 262.412897 
L 286.551887 262.412897 
z
" style="fill:#f48024;opacity:0.4;"/>
   </g>
   <g id="patch_75">
    <path clip-path="url(#p00c9c1cb69)" d="M 288.951501 307.584 
L 291.351114 307.584 
L 291.351114 266.340819 
L 288.951501 266.340819 
z
" style="fill:#f48024;opacity:0.4;"/>
   </g>
   <g id="patch_76">
    <path clip-path="url(#p00c9c1cb69)" d="M 291.351114 307.584 
L 293.750728 307.584 
L 293.750728 262.412897 
L 291.351114 262.412897 
z
" style="fill:#f48024;opacity:0.4;"/>
   </g>
   <g id="patch_77">
    <path clip-path="url(#p00c9c1cb69)" d="M 293.750728 307.584 
L 296.150342 307.584 
L 296.150342 256.521014 
L 293.750728 256.521014 
z
" style="fill:#f48024;opacity:0.4;"/>
   </g>
   <g id="patch_78">
    <path clip-path="url(#p00c9c1cb69)" d="M 296.150342 307.584 
L 298.549956 307.584 
L 298.549956 250.629131 
L 296.150342 250.629131 
z
" style="fill:#f48024;opacity:0.4;"/>
   </g>
   <g id="patch_79">
    <path clip-path="url(#p00c9c1cb69)" d="M 298.549956 307.584 
L 300.949569 307.584 
L 300.949569 221.169716 
L 298.549956 221.169716 
z
" style="fill:#f48024;opacity:0.4;"/>
   </g>
   <g id="patch_80">
    <path clip-path="url(#p00c9c1cb69)" d="M 300.949569 307.584 
L 303.349183 307.584 
L 303.349183 244.737248 
L 300.949569 244.737248 
z
" style="fill:#f48024;opacity:0.4;"/>
   </g>
   <g id="patch_81">
    <path clip-path="url(#p00c9c1cb69)" d="M 303.349183 307.584 
L 305.748797 307.584 
L 305.748797 238.845365 
L 303.349183 238.845365 
z
" style="fill:#f48024;opacity:0.4;"/>
   </g>
   <g id="patch_82">
    <path clip-path="url(#p00c9c1cb69)" d="M 305.748797 307.584 
L 308.14841 307.584 
L 308.14841 242.773287 
L 305.748797 242.773287 
z
" style="fill:#f48024;opacity:0.4;"/>
   </g>
   <g id="patch_83">
    <path clip-path="url(#p00c9c1cb69)" d="M 308.14841 307.584 
L 310.548024 307.584 
L 310.548024 252.593092 
L 308.14841 252.593092 
z
" style="fill:#f48024;opacity:0.4;"/>
   </g>
   <g id="patch_84">
    <path clip-path="url(#p00c9c1cb69)" d="M 310.548024 307.584 
L 312.947638 307.584 
L 312.947638 248.66517 
L 310.548024 248.66517 
z
" style="fill:#f48024;opacity:0.4;"/>
   </g>
   <g id="patch_85">
    <path clip-path="url(#p00c9c1cb69)" d="M 312.947638 307.584 
L 315.347251 307.584 
L 315.347251 240.809326 
L 312.947638 240.809326 
z
" style="fill:#f48024;opacity:0.4;"/>
   </g>
   <g id="patch_86">
    <path clip-path="url(#p00c9c1cb69)" d="M 315.347251 307.584 
L 317.746865 307.584 
L 317.746865 264.376858 
L 315.347251 264.376858 
z
" style="fill:#f48024;opacity:0.4;"/>
   </g>
   <g id="patch_87">
    <path clip-path="url(#p00c9c1cb69)" d="M 317.746865 307.584 
L 320.146479 307.584 
L 320.146479 272.232702 
L 317.746865 272.232702 
z
" style="fill:#f48024;opacity:0.4;"/>
   </g>
   <g id="patch_88">
    <path clip-path="url(#p00c9c1cb69)" d="M 320.146479 307.584 
L 322.546092 307.584 
L 322.546092 270.268741 
L 320.146479 270.268741 
z
" style="fill:#f48024;opacity:0.4;"/>
   </g>
   <g id="patch_89">
    <path clip-path="url(#p00c9c1cb69)" d="M 322.546092 307.584 
L 324.945706 307.584 
L 324.945706 274.196663 
L 322.546092 274.196663 
z
" style="fill:#f48024;opacity:0.4;"/>
   </g>
   <g id="patch_90">
    <path clip-path="url(#p00c9c1cb69)" d="M 324.945706 307.584 
L 327.34532 307.584 
L 327.34532 287.94439 
L 324.945706 287.94439 
z
" style="fill:#f48024;opacity:0.4;"/>
   </g>
   <g id="patch_91">
    <path clip-path="url(#p00c9c1cb69)" d="M 327.34532 307.584 
L 329.744933 307.584 
L 329.744933 278.124585 
L 327.34532 278.124585 
z
" style="fill:#f48024;opacity:0.4;"/>
   </g>
   <g id="patch_92">
    <path clip-path="url(#p00c9c1cb69)" d="M 329.744933 307.584 
L 332.144547 307.584 
L 332.144547 289.908351 
L 329.744933 289.908351 
z
" style="fill:#f48024;opacity:0.4;"/>
   </g>
   <g id="patch_93">
    <path clip-path="url(#p00c9c1cb69)" d="M 332.144547 307.584 
L 334.544161 307.584 
L 334.544161 270.268741 
L 332.144547 270.268741 
z
" style="fill:#f48024;opacity:0.4;"/>
   </g>
   <g id="patch_94">
    <path clip-path="url(#p00c9c1cb69)" d="M 334.544161 307.584 
L 336.943774 307.584 
L 336.943774 272.232702 
L 334.544161 272.232702 
z
" style="fill:#f48024;opacity:0.4;"/>
   </g>
   <g id="patch_95">
    <path clip-path="url(#p00c9c1cb69)" d="M 336.943774 307.584 
L 339.343388 307.584 
L 339.343388 268.30478 
L 336.943774 268.30478 
z
" style="fill:#f48024;opacity:0.4;"/>
   </g>
   <g id="patch_96">
    <path clip-path="url(#p00c9c1cb69)" d="M 339.343388 307.584 
L 341.743002 307.584 
L 341.743002 276.160624 
L 339.343388 276.160624 
z
" style="fill:#f48024;opacity:0.4;"/>
   </g>
   <g id="patch_97">
    <path clip-path="url(#p00c9c1cb69)" d="M 341.743002 307.584 
L 344.142615 307.584 
L 344.142615 282.052507 
L 341.743002 282.052507 
z
" style="fill:#f48024;opacity:0.4;"/>
   </g>
   <g id="patch_98">
    <path clip-path="url(#p00c9c1cb69)" d="M 344.142615 307.584 
L 346.542229 307.584 
L 346.542229 291.872312 
L 344.142615 291.872312 
z
" style="fill:#f48024;opacity:0.4;"/>
   </g>
   <g id="patch_99">
    <path clip-path="url(#p00c9c1cb69)" d="M 346.542229 307.584 
L 348.941843 307.584 
L 348.941843 291.872312 
L 346.542229 291.872312 
z
" style="fill:#f48024;opacity:0.4;"/>
   </g>
   <g id="patch_100">
    <path clip-path="url(#p00c9c1cb69)" d="M 348.941843 307.584 
L 351.341456 307.584 
L 351.341456 293.836273 
L 348.941843 293.836273 
z
" style="fill:#f48024;opacity:0.4;"/>
   </g>
   <g id="patch_101">
    <path clip-path="url(#p00c9c1cb69)" d="M 351.341456 307.584 
L 353.74107 307.584 
L 353.74107 303.656078 
L 351.341456 303.656078 
z
" style="fill:#f48024;opacity:0.4;"/>
   </g>
   <g id="patch_102">
    <path clip-path="url(#p00c9c1cb69)" d="M 353.74107 307.584 
L 356.140684 307.584 
L 356.140684 303.656078 
L 353.74107 303.656078 
z
" style="fill:#f48024;opacity:0.4;"/>
   </g>
   <g id="patch_103">
    <path clip-path="url(#p00c9c1cb69)" d="M 116.14797 307.584 
L 118.538771 307.584 
L 118.538771 244.5056 
L 116.14797 244.5056 
z
" style="fill:#008000;opacity:0.4;"/>
   </g>
   <g id="patch_104">
    <path clip-path="url(#p00c9c1cb69)" d="M 118.538771 307.584 
L 120.929572 307.584 
L 120.929572 173.5424 
L 118.538771 173.5424 
z
" style="fill:#008000;opacity:0.4;"/>
   </g>
   <g id="patch_105">
    <path clip-path="url(#p00c9c1cb69)" d="M 120.929572 307.584 
L 123.320374 307.584 
L 123.320374 175.5136 
L 120.929572 175.5136 
z
" style="fill:#008000;opacity:0.4;"/>
   </g>
   <g id="patch_106">
    <path clip-path="url(#p00c9c1cb69)" d="M 123.320374 307.584 
L 125.711175 307.584 
L 125.711175 90.752 
L 123.320374 90.752 
z
" style="fill:#008000;opacity:0.4;"/>
   </g>
   <g id="patch_107">
    <path clip-path="url(#p00c9c1cb69)" d="M 125.711175 307.584 
L 128.101976 307.584 
L 128.101976 82.8672 
L 125.711175 82.8672 
z
" style="fill:#008000;opacity:0.4;"/>
   </g>
   <g id="patch_108">
    <path clip-path="url(#p00c9c1cb69)" d="M 128.101976 307.584 
L 130.492778 307.584 
L 130.492778 41.472 
L 128.101976 41.472 
z
" style="fill:#008000;opacity:0.4;"/>
   </g>
   <g id="patch_109">
    <path clip-path="url(#p00c9c1cb69)" d="M 130.492778 307.584 
L 132.883579 307.584 
L 132.883579 110.464 
L 130.492778 110.464 
z
" style="fill:#008000;opacity:0.4;"/>
   </g>
   <g id="patch_110">
    <path clip-path="url(#p00c9c1cb69)" d="M 132.883579 307.584 
L 135.274381 307.584 
L 135.274381 185.3696 
L 132.883579 185.3696 
z
" style="fill:#008000;opacity:0.4;"/>
   </g>
   <g id="patch_111">
    <path clip-path="url(#p00c9c1cb69)" d="M 135.274381 307.584 
L 137.665182 307.584 
L 137.665182 185.3696 
L 135.274381 185.3696 
z
" style="fill:#008000;opacity:0.4;"/>
   </g>
   <g id="patch_112">
    <path clip-path="url(#p00c9c1cb69)" d="M 137.665182 307.584 
L 140.055983 307.584 
L 140.055983 222.8224 
L 137.665182 222.8224 
z
" style="fill:#008000;opacity:0.4;"/>
   </g>
   <g id="patch_113">
    <path clip-path="url(#p00c9c1cb69)" d="M 140.055983 307.584 
L 142.446785 307.584 
L 142.446785 232.6784 
L 140.055983 232.6784 
z
" style="fill:#008000;opacity:0.4;"/>
   </g>
   <g id="patch_114">
    <path clip-path="url(#p00c9c1cb69)" d="M 142.446785 307.584 
L 144.837586 307.584 
L 144.837586 238.592 
L 142.446785 238.592 
z
" style="fill:#008000;opacity:0.4;"/>
   </g>
   <g id="patch_115">
    <path clip-path="url(#p00c9c1cb69)" d="M 144.837586 307.584 
L 147.228387 307.584 
L 147.228387 189.312 
L 144.837586 189.312 
z
" style="fill:#008000;opacity:0.4;"/>
   </g>
   <g id="patch_116">
    <path clip-path="url(#p00c9c1cb69)" d="M 147.228387 307.584 
L 149.619189 307.584 
L 149.619189 216.9088 
L 147.228387 216.9088 
z
" style="fill:#008000;opacity:0.4;"/>
   </g>
   <g id="patch_117">
    <path clip-path="url(#p00c9c1cb69)" d="M 149.619189 307.584 
L 152.00999 307.584 
L 152.00999 240.5632 
L 149.619189 240.5632 
z
" style="fill:#008000;opacity:0.4;"/>
   </g>
   <g id="patch_118">
    <path clip-path="url(#p00c9c1cb69)" d="M 152.00999 307.584 
L 154.400792 307.584 
L 154.400792 240.5632 
L 152.00999 240.5632 
z
" style="fill:#008000;opacity:0.4;"/>
   </g>
   <g id="patch_119">
    <path clip-path="url(#p00c9c1cb69)" d="M 154.400792 307.584 
L 156.791593 307.584 
L 156.791593 236.6208 
L 154.400792 236.6208 
z
" style="fill:#008000;opacity:0.4;"/>
   </g>
   <g id="patch_120">
    <path clip-path="url(#p00c9c1cb69)" d="M 156.791593 307.584 
L 159.182394 307.584 
L 159.182394 173.5424 
L 156.791593 173.5424 
z
" style="fill:#008000;opacity:0.4;"/>
   </g>
   <g id="patch_121">
    <path clip-path="url(#p00c9c1cb69)" d="M 159.182394 307.584 
L 161.573196 307.584 
L 161.573196 134.1184 
L 159.182394 134.1184 
z
" style="fill:#008000;opacity:0.4;"/>
   </g>
   <g id="patch_122">
    <path clip-path="url(#p00c9c1cb69)" d="M 161.573196 307.584 
L 163.963997 307.584 
L 163.963997 209.024 
L 161.573196 209.024 
z
" style="fill:#008000;opacity:0.4;"/>
   </g>
   <g id="patch_123">
    <path clip-path="url(#p00c9c1cb69)" d="M 163.963997 307.584 
L 166.354799 307.584 
L 166.354799 205.0816 
L 163.963997 205.0816 
z
" style="fill:#008000;opacity:0.4;"/>
   </g>
   <g id="patch_124">
    <path clip-path="url(#p00c9c1cb69)" d="M 166.354799 307.584 
L 168.7456 307.584 
L 168.7456 220.8512 
L 166.354799 220.8512 
z
" style="fill:#008000;opacity:0.4;"/>
   </g>
   <g id="patch_125">
    <path clip-path="url(#p00c9c1cb69)" d="M 168.7456 307.584 
L 171.136401 307.584 
L 171.136401 238.592 
L 168.7456 238.592 
z
" style="fill:#008000;opacity:0.4;"/>
   </g>
   <g id="patch_126">
    <path clip-path="url(#p00c9c1cb69)" d="M 171.136401 307.584 
L 173.527203 307.584 
L 173.527203 212.9664 
L 171.136401 212.9664 
z
" style="fill:#008000;opacity:0.4;"/>
   </g>
   <g id="patch_127">
    <path clip-path="url(#p00c9c1cb69)" d="M 173.527203 307.584 
L 175.918004 307.584 
L 175.918004 236.6208 
L 173.527203 236.6208 
z
" style="fill:#008000;opacity:0.4;"/>
   </g>
   <g id="patch_128">
    <path clip-path="url(#p00c9c1cb69)" d="M 175.918004 307.584 
L 178.308805 307.584 
L 178.308805 214.9376 
L 175.918004 214.9376 
z
" style="fill:#008000;opacity:0.4;"/>
   </g>
   <g id="patch_129">
    <path clip-path="url(#p00c9c1cb69)" d="M 178.308805 307.584 
L 180.699607 307.584 
L 180.699607 224.7936 
L 178.308805 224.7936 
z
" style="fill:#008000;opacity:0.4;"/>
   </g>
   <g id="patch_130">
    <path clip-path="url(#p00c9c1cb69)" d="M 180.699607 307.584 
L 183.090408 307.584 
L 183.090408 234.6496 
L 180.699607 234.6496 
z
" style="fill:#008000;opacity:0.4;"/>
   </g>
   <g id="patch_131">
    <path clip-path="url(#p00c9c1cb69)" d="M 183.090408 307.584 
L 185.48121 307.584 
L 185.48121 258.304 
L 183.090408 258.304 
z
" style="fill:#008000;opacity:0.4;"/>
   </g>
   <g id="patch_132">
    <path clip-path="url(#p00c9c1cb69)" d="M 185.48121 307.584 
L 187.872011 307.584 
L 187.872011 244.5056 
L 185.48121 244.5056 
z
" style="fill:#008000;opacity:0.4;"/>
   </g>
   <g id="patch_133">
    <path clip-path="url(#p00c9c1cb69)" d="M 187.872011 307.584 
L 190.262812 307.584 
L 190.262812 246.4768 
L 187.872011 246.4768 
z
" style="fill:#008000;opacity:0.4;"/>
   </g>
   <g id="patch_134">
    <path clip-path="url(#p00c9c1cb69)" d="M 190.262812 307.584 
L 192.653614 307.584 
L 192.653614 246.4768 
L 190.262812 246.4768 
z
" style="fill:#008000;opacity:0.4;"/>
   </g>
   <g id="patch_135">
    <path clip-path="url(#p00c9c1cb69)" d="M 192.653614 307.584 
L 195.044415 307.584 
L 195.044415 246.4768 
L 192.653614 246.4768 
z
" style="fill:#008000;opacity:0.4;"/>
   </g>
   <g id="patch_136">
    <path clip-path="url(#p00c9c1cb69)" d="M 195.044415 307.584 
L 197.435216 307.584 
L 197.435216 268.16 
L 195.044415 268.16 
z
" style="fill:#008000;opacity:0.4;"/>
   </g>
   <g id="patch_137">
    <path clip-path="url(#p00c9c1cb69)" d="M 197.435216 307.584 
L 199.826018 307.584 
L 199.826018 266.1888 
L 197.435216 266.1888 
z
" style="fill:#008000;opacity:0.4;"/>
   </g>
   <g id="patch_138">
    <path clip-path="url(#p00c9c1cb69)" d="M 199.826018 307.584 
L 202.216819 307.584 
L 202.216819 264.2176 
L 199.826018 264.2176 
z
" style="fill:#008000;opacity:0.4;"/>
   </g>
   <g id="patch_139">
    <path clip-path="url(#p00c9c1cb69)" d="M 202.216819 307.584 
L 204.607621 307.584 
L 204.607621 252.3904 
L 202.216819 252.3904 
z
" style="fill:#008000;opacity:0.4;"/>
   </g>
   <g id="patch_140">
    <path clip-path="url(#p00c9c1cb69)" d="M 204.607621 307.584 
L 206.998422 307.584 
L 206.998422 262.2464 
L 204.607621 262.2464 
z
" style="fill:#008000;opacity:0.4;"/>
   </g>
   <g id="patch_141">
    <path clip-path="url(#p00c9c1cb69)" d="M 206.998422 307.584 
L 209.389223 307.584 
L 209.389223 266.1888 
L 206.998422 266.1888 
z
" style="fill:#008000;opacity:0.4;"/>
   </g>
   <g id="patch_142">
    <path clip-path="url(#p00c9c1cb69)" d="M 209.389223 307.584 
L 211.780025 307.584 
L 211.780025 272.1024 
L 209.389223 272.1024 
z
" style="fill:#008000;opacity:0.4;"/>
   </g>
   <g id="patch_143">
    <path clip-path="url(#p00c9c1cb69)" d="M 211.780025 307.584 
L 214.170826 307.584 
L 214.170826 272.1024 
L 211.780025 272.1024 
z
" style="fill:#008000;opacity:0.4;"/>
   </g>
   <g id="patch_144">
    <path clip-path="url(#p00c9c1cb69)" d="M 214.170826 307.584 
L 216.561628 307.584 
L 216.561628 276.0448 
L 214.170826 276.0448 
z
" style="fill:#008000;opacity:0.4;"/>
   </g>
   <g id="patch_145">
    <path clip-path="url(#p00c9c1cb69)" d="M 216.561628 307.584 
L 218.952429 307.584 
L 218.952429 278.016 
L 216.561628 278.016 
z
" style="fill:#008000;opacity:0.4;"/>
   </g>
   <g id="patch_146">
    <path clip-path="url(#p00c9c1cb69)" d="M 218.952429 307.584 
L 221.34323 307.584 
L 221.34323 285.9008 
L 218.952429 285.9008 
z
" style="fill:#008000;opacity:0.4;"/>
   </g>
   <g id="patch_147">
    <path clip-path="url(#p00c9c1cb69)" d="M 221.34323 307.584 
L 223.734032 307.584 
L 223.734032 270.1312 
L 221.34323 270.1312 
z
" style="fill:#008000;opacity:0.4;"/>
   </g>
   <g id="patch_148">
    <path clip-path="url(#p00c9c1cb69)" d="M 223.734032 307.584 
L 226.124833 307.584 
L 226.124833 287.872 
L 223.734032 287.872 
z
" style="fill:#008000;opacity:0.4;"/>
   </g>
   <g id="patch_149">
    <path clip-path="url(#p00c9c1cb69)" d="M 226.124833 307.584 
L 228.515634 307.584 
L 228.515634 281.9584 
L 226.124833 281.9584 
z
" style="fill:#008000;opacity:0.4;"/>
   </g>
   <g id="patch_150">
    <path clip-path="url(#p00c9c1cb69)" d="M 228.515634 307.584 
L 230.906436 307.584 
L 230.906436 274.0736 
L 228.515634 274.0736 
z
" style="fill:#008000;opacity:0.4;"/>
   </g>
   <g id="patch_151">
    <path clip-path="url(#p00c9c1cb69)" d="M 230.906436 307.584 
L 233.297237 307.584 
L 233.297237 289.8432 
L 230.906436 289.8432 
z
" style="fill:#008000;opacity:0.4;"/>
   </g>
   <g id="patch_152">
    <path clip-path="url(#p00c9c1cb69)" d="M 233.297237 307.584 
L 235.688039 307.584 
L 235.688039 278.016 
L 233.297237 278.016 
z
" style="fill:#008000;opacity:0.4;"/>
   </g>
   <g id="patch_153">
    <path clip-path="url(#p00c9c1cb69)" d="M 235.688039 307.584 
L 238.07884 307.584 
L 238.07884 281.9584 
L 235.688039 281.9584 
z
" style="fill:#008000;opacity:0.4;"/>
   </g>
   <g id="patch_154">
    <path clip-path="url(#p00c9c1cb69)" d="M 238.07884 307.584 
L 240.469641 307.584 
L 240.469641 278.016 
L 238.07884 278.016 
z
" style="fill:#008000;opacity:0.4;"/>
   </g>
   <g id="patch_155">
    <path clip-path="url(#p00c9c1cb69)" d="M 240.469641 307.584 
L 242.860443 307.584 
L 242.860443 279.9872 
L 240.469641 279.9872 
z
" style="fill:#008000;opacity:0.4;"/>
   </g>
   <g id="patch_156">
    <path clip-path="url(#p00c9c1cb69)" d="M 242.860443 307.584 
L 245.251244 307.584 
L 245.251244 258.304 
L 242.860443 258.304 
z
" style="fill:#008000;opacity:0.4;"/>
   </g>
   <g id="patch_157">
    <path clip-path="url(#p00c9c1cb69)" d="M 245.251244 307.584 
L 247.642046 307.584 
L 247.642046 262.2464 
L 245.251244 262.2464 
z
" style="fill:#008000;opacity:0.4;"/>
   </g>
   <g id="patch_158">
    <path clip-path="url(#p00c9c1cb69)" d="M 247.642046 307.584 
L 250.032847 307.584 
L 250.032847 272.1024 
L 247.642046 272.1024 
z
" style="fill:#008000;opacity:0.4;"/>
   </g>
   <g id="patch_159">
    <path clip-path="url(#p00c9c1cb69)" d="M 250.032847 307.584 
L 252.423648 307.584 
L 252.423648 283.9296 
L 250.032847 283.9296 
z
" style="fill:#008000;opacity:0.4;"/>
   </g>
   <g id="patch_160">
    <path clip-path="url(#p00c9c1cb69)" d="M 252.423648 307.584 
L 254.81445 307.584 
L 254.81445 272.1024 
L 252.423648 272.1024 
z
" style="fill:#008000;opacity:0.4;"/>
   </g>
   <g id="patch_161">
    <path clip-path="url(#p00c9c1cb69)" d="M 254.81445 307.584 
L 257.205251 307.584 
L 257.205251 297.728 
L 254.81445 297.728 
z
" style="fill:#008000;opacity:0.4;"/>
   </g>
   <g id="patch_162">
    <path clip-path="url(#p00c9c1cb69)" d="M 257.205251 307.584 
L 259.596052 307.584 
L 259.596052 281.9584 
L 257.205251 281.9584 
z
" style="fill:#008000;opacity:0.4;"/>
   </g>
   <g id="patch_163">
    <path clip-path="url(#p00c9c1cb69)" d="M 259.596052 307.584 
L 261.986854 307.584 
L 261.986854 283.9296 
L 259.596052 283.9296 
z
" style="fill:#008000;opacity:0.4;"/>
   </g>
   <g id="patch_164">
    <path clip-path="url(#p00c9c1cb69)" d="M 261.986854 307.584 
L 264.377655 307.584 
L 264.377655 295.7568 
L 261.986854 295.7568 
z
" style="fill:#008000;opacity:0.4;"/>
   </g>
   <g id="patch_165">
    <path clip-path="url(#p00c9c1cb69)" d="M 264.377655 307.584 
L 266.768457 307.584 
L 266.768457 285.9008 
L 264.377655 285.9008 
z
" style="fill:#008000;opacity:0.4;"/>
   </g>
   <g id="patch_166">
    <path clip-path="url(#p00c9c1cb69)" d="M 266.768457 307.584 
L 269.159258 307.584 
L 269.159258 283.9296 
L 266.768457 283.9296 
z
" style="fill:#008000;opacity:0.4;"/>
   </g>
   <g id="patch_167">
    <path clip-path="url(#p00c9c1cb69)" d="M 269.159258 307.584 
L 271.550059 307.584 
L 271.550059 287.872 
L 269.159258 287.872 
z
" style="fill:#008000;opacity:0.4;"/>
   </g>
   <g id="patch_168">
    <path clip-path="url(#p00c9c1cb69)" d="M 271.550059 307.584 
L 273.940861 307.584 
L 273.940861 279.9872 
L 271.550059 279.9872 
z
" style="fill:#008000;opacity:0.4;"/>
   </g>
   <g id="patch_169">
    <path clip-path="url(#p00c9c1cb69)" d="M 273.940861 307.584 
L 276.331662 307.584 
L 276.331662 291.8144 
L 273.940861 291.8144 
z
" style="fill:#008000;opacity:0.4;"/>
   </g>
   <g id="patch_170">
    <path clip-path="url(#p00c9c1cb69)" d="M 276.331662 307.584 
L 278.722463 307.584 
L 278.722463 283.9296 
L 276.331662 283.9296 
z
" style="fill:#008000;opacity:0.4;"/>
   </g>
   <g id="patch_171">
    <path clip-path="url(#p00c9c1cb69)" d="M 278.722463 307.584 
L 281.113265 307.584 
L 281.113265 272.1024 
L 278.722463 272.1024 
z
" style="fill:#008000;opacity:0.4;"/>
   </g>
   <g id="patch_172">
    <path clip-path="url(#p00c9c1cb69)" d="M 281.113265 307.584 
L 283.504066 307.584 
L 283.504066 270.1312 
L 281.113265 270.1312 
z
" style="fill:#008000;opacity:0.4;"/>
   </g>
   <g id="patch_173">
    <path clip-path="url(#p00c9c1cb69)" d="M 283.504066 307.584 
L 285.894868 307.584 
L 285.894868 262.2464 
L 283.504066 262.2464 
z
" style="fill:#008000;opacity:0.4;"/>
   </g>
   <g id="patch_174">
    <path clip-path="url(#p00c9c1cb69)" d="M 285.894868 307.584 
L 288.285669 307.584 
L 288.285669 266.1888 
L 285.894868 266.1888 
z
" style="fill:#008000;opacity:0.4;"/>
   </g>
   <g id="patch_175">
    <path clip-path="url(#p00c9c1cb69)" d="M 288.285669 307.584 
L 290.67647 307.584 
L 290.67647 262.2464 
L 288.285669 262.2464 
z
" style="fill:#008000;opacity:0.4;"/>
   </g>
   <g id="patch_176">
    <path clip-path="url(#p00c9c1cb69)" d="M 290.67647 307.584 
L 293.067272 307.584 
L 293.067272 260.2752 
L 290.67647 260.2752 
z
" style="fill:#008000;opacity:0.4;"/>
   </g>
   <g id="patch_177">
    <path clip-path="url(#p00c9c1cb69)" d="M 293.067272 307.584 
L 295.458073 307.584 
L 295.458073 264.2176 
L 293.067272 264.2176 
z
" style="fill:#008000;opacity:0.4;"/>
   </g>
   <g id="patch_178">
    <path clip-path="url(#p00c9c1cb69)" d="M 295.458073 307.584 
L 297.848875 307.584 
L 297.848875 254.3616 
L 295.458073 254.3616 
z
" style="fill:#008000;opacity:0.4;"/>
   </g>
   <g id="patch_179">
    <path clip-path="url(#p00c9c1cb69)" d="M 297.848875 307.584 
L 300.239676 307.584 
L 300.239676 222.8224 
L 297.848875 222.8224 
z
" style="fill:#008000;opacity:0.4;"/>
   </g>
   <g id="patch_180">
    <path clip-path="url(#p00c9c1cb69)" d="M 300.239676 307.584 
L 302.630477 307.584 
L 302.630477 240.5632 
L 300.239676 240.5632 
z
" style="fill:#008000;opacity:0.4;"/>
   </g>
   <g id="patch_181">
    <path clip-path="url(#p00c9c1cb69)" d="M 302.630477 307.584 
L 305.021279 307.584 
L 305.021279 236.6208 
L 302.630477 236.6208 
z
" style="fill:#008000;opacity:0.4;"/>
   </g>
   <g id="patch_182">
    <path clip-path="url(#p00c9c1cb69)" d="M 305.021279 307.584 
L 307.41208 307.584 
L 307.41208 254.3616 
L 305.021279 254.3616 
z
" style="fill:#008000;opacity:0.4;"/>
   </g>
   <g id="patch_183">
    <path clip-path="url(#p00c9c1cb69)" d="M 307.41208 307.584 
L 309.802881 307.584 
L 309.802881 234.6496 
L 307.41208 234.6496 
z
" style="fill:#008000;opacity:0.4;"/>
   </g>
   <g id="patch_184">
    <path clip-path="url(#p00c9c1cb69)" d="M 309.802881 307.584 
L 312.193683 307.584 
L 312.193683 266.1888 
L 309.802881 266.1888 
z
" style="fill:#008000;opacity:0.4;"/>
   </g>
   <g id="patch_185">
    <path clip-path="url(#p00c9c1cb69)" d="M 312.193683 307.584 
L 314.584484 307.584 
L 314.584484 226.7648 
L 312.193683 226.7648 
z
" style="fill:#008000;opacity:0.4;"/>
   </g>
   <g id="patch_186">
    <path clip-path="url(#p00c9c1cb69)" d="M 314.584484 307.584 
L 316.975286 307.584 
L 316.975286 266.1888 
L 314.584484 266.1888 
z
" style="fill:#008000;opacity:0.4;"/>
   </g>
   <g id="patch_187">
    <path clip-path="url(#p00c9c1cb69)" d="M 316.975286 307.584 
L 319.366087 307.584 
L 319.366087 266.1888 
L 316.975286 266.1888 
z
" style="fill:#008000;opacity:0.4;"/>
   </g>
   <g id="patch_188">
    <path clip-path="url(#p00c9c1cb69)" d="M 319.366087 307.584 
L 321.756888 307.584 
L 321.756888 278.016 
L 319.366087 278.016 
z
" style="fill:#008000;opacity:0.4;"/>
   </g>
   <g id="patch_189">
    <path clip-path="url(#p00c9c1cb69)" d="M 321.756888 307.584 
L 324.14769 307.584 
L 324.14769 266.1888 
L 321.756888 266.1888 
z
" style="fill:#008000;opacity:0.4;"/>
   </g>
   <g id="patch_190">
    <path clip-path="url(#p00c9c1cb69)" d="M 324.14769 307.584 
L 326.538491 307.584 
L 326.538491 287.872 
L 324.14769 287.872 
z
" style="fill:#008000;opacity:0.4;"/>
   </g>
   <g id="patch_191">
    <path clip-path="url(#p00c9c1cb69)" d="M 326.538491 307.584 
L 328.929293 307.584 
L 328.929293 276.0448 
L 326.538491 276.0448 
z
" style="fill:#008000;opacity:0.4;"/>
   </g>
   <g id="patch_192">
    <path clip-path="url(#p00c9c1cb69)" d="M 328.929293 307.584 
L 331.320094 307.584 
L 331.320094 291.8144 
L 328.929293 291.8144 
z
" style="fill:#008000;opacity:0.4;"/>
   </g>
   <g id="patch_193">
    <path clip-path="url(#p00c9c1cb69)" d="M 331.320094 307.584 
L 333.710895 307.584 
L 333.710895 272.1024 
L 331.320094 272.1024 
z
" style="fill:#008000;opacity:0.4;"/>
   </g>
   <g id="patch_194">
    <path clip-path="url(#p00c9c1cb69)" d="M 333.710895 307.584 
L 336.101697 307.584 
L 336.101697 272.1024 
L 333.710895 272.1024 
z
" style="fill:#008000;opacity:0.4;"/>
   </g>
   <g id="patch_195">
    <path clip-path="url(#p00c9c1cb69)" d="M 336.101697 307.584 
L 338.492498 307.584 
L 338.492498 272.1024 
L 336.101697 272.1024 
z
" style="fill:#008000;opacity:0.4;"/>
   </g>
   <g id="patch_196">
    <path clip-path="url(#p00c9c1cb69)" d="M 338.492498 307.584 
L 340.883299 307.584 
L 340.883299 270.1312 
L 338.492498 270.1312 
z
" style="fill:#008000;opacity:0.4;"/>
   </g>
   <g id="patch_197">
    <path clip-path="url(#p00c9c1cb69)" d="M 340.883299 307.584 
L 343.274101 307.584 
L 343.274101 279.9872 
L 340.883299 279.9872 
z
" style="fill:#008000;opacity:0.4;"/>
   </g>
   <g id="patch_198">
    <path clip-path="url(#p00c9c1cb69)" d="M 343.274101 307.584 
L 345.664902 307.584 
L 345.664902 297.728 
L 343.274101 297.728 
z
" style="fill:#008000;opacity:0.4;"/>
   </g>
   <g id="patch_199">
    <path clip-path="url(#p00c9c1cb69)" d="M 345.664902 307.584 
L 348.055704 307.584 
L 348.055704 283.9296 
L 345.664902 283.9296 
z
" style="fill:#008000;opacity:0.4;"/>
   </g>
   <g id="patch_200">
    <path clip-path="url(#p00c9c1cb69)" d="M 348.055704 307.584 
L 350.446505 307.584 
L 350.446505 293.7856 
L 348.055704 293.7856 
z
" style="fill:#008000;opacity:0.4;"/>
   </g>
   <g id="patch_201">
    <path clip-path="url(#p00c9c1cb69)" d="M 350.446505 307.584 
L 352.837306 307.584 
L 352.837306 301.6704 
L 350.446505 301.6704 
z
" style="fill:#008000;opacity:0.4;"/>
   </g>
   <g id="patch_202">
    <path clip-path="url(#p00c9c1cb69)" d="M 352.837306 307.584 
L 355.228108 307.584 
L 355.228108 303.6416 
L 352.837306 303.6416 
z
" style="fill:#008000;opacity:0.4;"/>
   </g>
   <g id="matplotlib.axis_1">
    <g id="xtick_1">
     <g id="line2d_1">
      <defs>
       <path d="M 0 0 
L 0 3.5 
" id="ma41dc65ba3" style="stroke:#000000;stroke-width:0.8;"/>
      </defs>
      <g>
       <use style="stroke:#000000;stroke-width:0.8;" x="72.569546" xlink:href="#ma41dc65ba3" y="307.584"/>
      </g>
     </g>
     <g id="text_1">
      <!-- 0.0 -->
      <defs>
       <path d="M 31.78125 66.40625 
Q 24.171875 66.40625 20.328125 58.90625 
Q 16.5 51.421875 16.5 36.375 
Q 16.5 21.390625 20.328125 13.890625 
Q 24.171875 6.390625 31.78125 6.390625 
Q 39.453125 6.390625 43.28125 13.890625 
Q 47.125 21.390625 47.125 36.375 
Q 47.125 51.421875 43.28125 58.90625 
Q 39.453125 66.40625 31.78125 66.40625 
z
M 31.78125 74.21875 
Q 44.046875 74.21875 50.515625 64.515625 
Q 56.984375 54.828125 56.984375 36.375 
Q 56.984375 17.96875 50.515625 8.265625 
Q 44.046875 -1.421875 31.78125 -1.421875 
Q 19.53125 -1.421875 13.0625 8.265625 
Q 6.59375 17.96875 6.59375 36.375 
Q 6.59375 54.828125 13.0625 64.515625 
Q 19.53125 74.21875 31.78125 74.21875 
z
" id="DejaVuSans-48"/>
       <path d="M 10.6875 12.40625 
L 21 12.40625 
L 21 0 
L 10.6875 0 
z
" id="DejaVuSans-46"/>
      </defs>
      <g transform="translate(64.617983 322.182437)scale(0.1 -0.1)">
       <use xlink:href="#DejaVuSans-48"/>
       <use x="63.623047" xlink:href="#DejaVuSans-46"/>
       <use x="95.410156" xlink:href="#DejaVuSans-48"/>
      </g>
     </g>
    </g>
    <g id="xtick_2">
     <g id="line2d_2">
      <g>
       <use style="stroke:#000000;stroke-width:0.8;" x="140.269519" xlink:href="#ma41dc65ba3" y="307.584"/>
      </g>
     </g>
     <g id="text_2">
      <!-- 0.2 -->
      <defs>
       <path d="M 19.1875 8.296875 
L 53.609375 8.296875 
L 53.609375 0 
L 7.328125 0 
L 7.328125 8.296875 
Q 12.9375 14.109375 22.625 23.890625 
Q 32.328125 33.6875 34.8125 36.53125 
Q 39.546875 41.84375 41.421875 45.53125 
Q 43.3125 49.21875 43.3125 52.78125 
Q 43.3125 58.59375 39.234375 62.25 
Q 35.15625 65.921875 28.609375 65.921875 
Q 23.96875 65.921875 18.8125 64.3125 
Q 13.671875 62.703125 7.8125 59.421875 
L 7.8125 69.390625 
Q 13.765625 71.78125 18.9375 73 
Q 24.125 74.21875 28.421875 74.21875 
Q 39.75 74.21875 46.484375 68.546875 
Q 53.21875 62.890625 53.21875 53.421875 
Q 53.21875 48.921875 51.53125 44.890625 
Q 49.859375 40.875 45.40625 35.40625 
Q 44.1875 33.984375 37.640625 27.21875 
Q 31.109375 20.453125 19.1875 8.296875 
z
" id="DejaVuSans-50"/>
      </defs>
      <g transform="translate(132.317956 322.182437)scale(0.1 -0.1)">
       <use xlink:href="#DejaVuSans-48"/>
       <use x="63.623047" xlink:href="#DejaVuSans-46"/>
       <use x="95.410156" xlink:href="#DejaVuSans-50"/>
      </g>
     </g>
    </g>
    <g id="xtick_3">
     <g id="line2d_3">
      <g>
       <use style="stroke:#000000;stroke-width:0.8;" x="207.969492" xlink:href="#ma41dc65ba3" y="307.584"/>
      </g>
     </g>
     <g id="text_3">
      <!-- 0.4 -->
      <defs>
       <path d="M 37.796875 64.3125 
L 12.890625 25.390625 
L 37.796875 25.390625 
z
M 35.203125 72.90625 
L 47.609375 72.90625 
L 47.609375 25.390625 
L 58.015625 25.390625 
L 58.015625 17.1875 
L 47.609375 17.1875 
L 47.609375 0 
L 37.796875 0 
L 37.796875 17.1875 
L 4.890625 17.1875 
L 4.890625 26.703125 
z
" id="DejaVuSans-52"/>
      </defs>
      <g transform="translate(200.017929 322.182437)scale(0.1 -0.1)">
       <use xlink:href="#DejaVuSans-48"/>
       <use x="63.623047" xlink:href="#DejaVuSans-46"/>
       <use x="95.410156" xlink:href="#DejaVuSans-52"/>
      </g>
     </g>
    </g>
    <g id="xtick_4">
     <g id="line2d_4">
      <g>
       <use style="stroke:#000000;stroke-width:0.8;" x="275.669465" xlink:href="#ma41dc65ba3" y="307.584"/>
      </g>
     </g>
     <g id="text_4">
      <!-- 0.6 -->
      <defs>
       <path d="M 33.015625 40.375 
Q 26.375 40.375 22.484375 35.828125 
Q 18.609375 31.296875 18.609375 23.390625 
Q 18.609375 15.53125 22.484375 10.953125 
Q 26.375 6.390625 33.015625 6.390625 
Q 39.65625 6.390625 43.53125 10.953125 
Q 47.40625 15.53125 47.40625 23.390625 
Q 47.40625 31.296875 43.53125 35.828125 
Q 39.65625 40.375 33.015625 40.375 
z
M 52.59375 71.296875 
L 52.59375 62.3125 
Q 48.875 64.0625 45.09375 64.984375 
Q 41.3125 65.921875 37.59375 65.921875 
Q 27.828125 65.921875 22.671875 59.328125 
Q 17.53125 52.734375 16.796875 39.40625 
Q 19.671875 43.65625 24.015625 45.921875 
Q 28.375 48.1875 33.59375 48.1875 
Q 44.578125 48.1875 50.953125 41.515625 
Q 57.328125 34.859375 57.328125 23.390625 
Q 57.328125 12.15625 50.6875 5.359375 
Q 44.046875 -1.421875 33.015625 -1.421875 
Q 20.359375 -1.421875 13.671875 8.265625 
Q 6.984375 17.96875 6.984375 36.375 
Q 6.984375 53.65625 15.1875 63.9375 
Q 23.390625 74.21875 37.203125 74.21875 
Q 40.921875 74.21875 44.703125 73.484375 
Q 48.484375 72.75 52.59375 71.296875 
z
" id="DejaVuSans-54"/>
      </defs>
      <g transform="translate(267.717902 322.182437)scale(0.1 -0.1)">
       <use xlink:href="#DejaVuSans-48"/>
       <use x="63.623047" xlink:href="#DejaVuSans-46"/>
       <use x="95.410156" xlink:href="#DejaVuSans-54"/>
      </g>
     </g>
    </g>
    <g id="xtick_5">
     <g id="line2d_5">
      <g>
       <use style="stroke:#000000;stroke-width:0.8;" x="343.369438" xlink:href="#ma41dc65ba3" y="307.584"/>
      </g>
     </g>
     <g id="text_5">
      <!-- 0.8 -->
      <defs>
       <path d="M 31.78125 34.625 
Q 24.75 34.625 20.71875 30.859375 
Q 16.703125 27.09375 16.703125 20.515625 
Q 16.703125 13.921875 20.71875 10.15625 
Q 24.75 6.390625 31.78125 6.390625 
Q 38.8125 6.390625 42.859375 10.171875 
Q 46.921875 13.96875 46.921875 20.515625 
Q 46.921875 27.09375 42.890625 30.859375 
Q 38.875 34.625 31.78125 34.625 
z
M 21.921875 38.8125 
Q 15.578125 40.375 12.03125 44.71875 
Q 8.5 49.078125 8.5 55.328125 
Q 8.5 64.0625 14.71875 69.140625 
Q 20.953125 74.21875 31.78125 74.21875 
Q 42.671875 74.21875 48.875 69.140625 
Q 55.078125 64.0625 55.078125 55.328125 
Q 55.078125 49.078125 51.53125 44.71875 
Q 48 40.375 41.703125 38.8125 
Q 48.828125 37.15625 52.796875 32.3125 
Q 56.78125 27.484375 56.78125 20.515625 
Q 56.78125 9.90625 50.3125 4.234375 
Q 43.84375 -1.421875 31.78125 -1.421875 
Q 19.734375 -1.421875 13.25 4.234375 
Q 6.78125 9.90625 6.78125 20.515625 
Q 6.78125 27.484375 10.78125 32.3125 
Q 14.796875 37.15625 21.921875 38.8125 
z
M 18.3125 54.390625 
Q 18.3125 48.734375 21.84375 45.5625 
Q 25.390625 42.390625 31.78125 42.390625 
Q 38.140625 42.390625 41.71875 45.5625 
Q 45.3125 48.734375 45.3125 54.390625 
Q 45.3125 60.0625 41.71875 63.234375 
Q 38.140625 66.40625 31.78125 66.40625 
Q 25.390625 66.40625 21.84375 63.234375 
Q 18.3125 60.0625 18.3125 54.390625 
z
" id="DejaVuSans-56"/>
      </defs>
      <g transform="translate(335.417875 322.182437)scale(0.1 -0.1)">
       <use xlink:href="#DejaVuSans-48"/>
       <use x="63.623047" xlink:href="#DejaVuSans-46"/>
       <use x="95.410156" xlink:href="#DejaVuSans-56"/>
      </g>
     </g>
    </g>
    <g id="xtick_6">
     <g id="line2d_6">
      <g>
       <use style="stroke:#000000;stroke-width:0.8;" x="411.069411" xlink:href="#ma41dc65ba3" y="307.584"/>
      </g>
     </g>
     <g id="text_6">
      <!-- 1.0 -->
      <defs>
       <path d="M 12.40625 8.296875 
L 28.515625 8.296875 
L 28.515625 63.921875 
L 10.984375 60.40625 
L 10.984375 69.390625 
L 28.421875 72.90625 
L 38.28125 72.90625 
L 38.28125 8.296875 
L 54.390625 8.296875 
L 54.390625 0 
L 12.40625 0 
z
" id="DejaVuSans-49"/>
      </defs>
      <g transform="translate(403.117848 322.182437)scale(0.1 -0.1)">
       <use xlink:href="#DejaVuSans-49"/>
       <use x="63.623047" xlink:href="#DejaVuSans-46"/>
       <use x="95.410156" xlink:href="#DejaVuSans-48"/>
      </g>
     </g>
    </g>
    <g id="text_7">
     <!-- 1e10 -->
     <defs>
      <path d="M 56.203125 29.59375 
L 56.203125 25.203125 
L 14.890625 25.203125 
Q 15.484375 15.921875 20.484375 11.0625 
Q 25.484375 6.203125 34.421875 6.203125 
Q 39.59375 6.203125 44.453125 7.46875 
Q 49.3125 8.734375 54.109375 11.28125 
L 54.109375 2.78125 
Q 49.265625 0.734375 44.1875 -0.34375 
Q 39.109375 -1.421875 33.890625 -1.421875 
Q 20.796875 -1.421875 13.15625 6.1875 
Q 5.515625 13.8125 5.515625 26.8125 
Q 5.515625 40.234375 12.765625 48.109375 
Q 20.015625 56 32.328125 56 
Q 43.359375 56 49.78125 48.890625 
Q 56.203125 41.796875 56.203125 29.59375 
z
M 47.21875 32.234375 
Q 47.125 39.59375 43.09375 43.984375 
Q 39.0625 48.390625 32.421875 48.390625 
Q 24.90625 48.390625 20.390625 44.140625 
Q 15.875 39.890625 15.1875 32.171875 
z
" id="DejaVuSans-101"/>
     </defs>
     <g transform="translate(389.479375 334.860562)scale(0.1 -0.1)">
      <use xlink:href="#DejaVuSans-49"/>
      <use x="63.623047" xlink:href="#DejaVuSans-101"/>
      <use x="125.146484" xlink:href="#DejaVuSans-49"/>
      <use x="188.769531" xlink:href="#DejaVuSans-48"/>
     </g>
    </g>
   </g>
   <g id="matplotlib.axis_2">
    <g id="ytick_1">
     <g id="line2d_7">
      <defs>
       <path d="M 0 0 
L -3.5 0 
" id="m3dbed62225" style="stroke:#000000;stroke-width:0.8;"/>
      </defs>
      <g>
       <use style="stroke:#000000;stroke-width:0.8;" x="57.6" xlink:href="#m3dbed62225" y="307.584"/>
      </g>
     </g>
     <g id="text_8">
      <!-- 0 -->
      <g transform="translate(44.2375 311.383219)scale(0.1 -0.1)">
       <use xlink:href="#DejaVuSans-48"/>
      </g>
     </g>
    </g>
    <g id="ytick_2">
     <g id="line2d_8">
      <g>
       <use style="stroke:#000000;stroke-width:0.8;" x="57.6" xlink:href="#m3dbed62225" y="266.457081"/>
      </g>
     </g>
     <g id="text_9">
      <!-- 1 -->
      <g transform="translate(44.2375 270.256299)scale(0.1 -0.1)">
       <use xlink:href="#DejaVuSans-49"/>
      </g>
     </g>
    </g>
    <g id="ytick_3">
     <g id="line2d_9">
      <g>
       <use style="stroke:#000000;stroke-width:0.8;" x="57.6" xlink:href="#m3dbed62225" y="225.330161"/>
      </g>
     </g>
     <g id="text_10">
      <!-- 2 -->
      <g transform="translate(44.2375 229.12938)scale(0.1 -0.1)">
       <use xlink:href="#DejaVuSans-50"/>
      </g>
     </g>
    </g>
    <g id="ytick_4">
     <g id="line2d_10">
      <g>
       <use style="stroke:#000000;stroke-width:0.8;" x="57.6" xlink:href="#m3dbed62225" y="184.203242"/>
      </g>
     </g>
     <g id="text_11">
      <!-- 3 -->
      <defs>
       <path d="M 40.578125 39.3125 
Q 47.65625 37.796875 51.625 33 
Q 55.609375 28.21875 55.609375 21.1875 
Q 55.609375 10.40625 48.1875 4.484375 
Q 40.765625 -1.421875 27.09375 -1.421875 
Q 22.515625 -1.421875 17.65625 -0.515625 
Q 12.796875 0.390625 7.625 2.203125 
L 7.625 11.71875 
Q 11.71875 9.328125 16.59375 8.109375 
Q 21.484375 6.890625 26.8125 6.890625 
Q 36.078125 6.890625 40.9375 10.546875 
Q 45.796875 14.203125 45.796875 21.1875 
Q 45.796875 27.640625 41.28125 31.265625 
Q 36.765625 34.90625 28.71875 34.90625 
L 20.21875 34.90625 
L 20.21875 43.015625 
L 29.109375 43.015625 
Q 36.375 43.015625 40.234375 45.921875 
Q 44.09375 48.828125 44.09375 54.296875 
Q 44.09375 59.90625 40.109375 62.90625 
Q 36.140625 65.921875 28.71875 65.921875 
Q 24.65625 65.921875 20.015625 65.03125 
Q 15.375 64.15625 9.8125 62.3125 
L 9.8125 71.09375 
Q 15.4375 72.65625 20.34375 73.4375 
Q 25.25 74.21875 29.59375 74.21875 
Q 40.828125 74.21875 47.359375 69.109375 
Q 53.90625 64.015625 53.90625 55.328125 
Q 53.90625 49.265625 50.4375 45.09375 
Q 46.96875 40.921875 40.578125 39.3125 
z
" id="DejaVuSans-51"/>
      </defs>
      <g transform="translate(44.2375 188.002461)scale(0.1 -0.1)">
       <use xlink:href="#DejaVuSans-51"/>
      </g>
     </g>
    </g>
    <g id="ytick_5">
     <g id="line2d_11">
      <g>
       <use style="stroke:#000000;stroke-width:0.8;" x="57.6" xlink:href="#m3dbed62225" y="143.076322"/>
      </g>
     </g>
     <g id="text_12">
      <!-- 4 -->
      <g transform="translate(44.2375 146.875541)scale(0.1 -0.1)">
       <use xlink:href="#DejaVuSans-52"/>
      </g>
     </g>
    </g>
    <g id="ytick_6">
     <g id="line2d_12">
      <g>
       <use style="stroke:#000000;stroke-width:0.8;" x="57.6" xlink:href="#m3dbed62225" y="101.949403"/>
      </g>
     </g>
     <g id="text_13">
      <!-- 5 -->
      <defs>
       <path d="M 10.796875 72.90625 
L 49.515625 72.90625 
L 49.515625 64.59375 
L 19.828125 64.59375 
L 19.828125 46.734375 
Q 21.96875 47.46875 24.109375 47.828125 
Q 26.265625 48.1875 28.421875 48.1875 
Q 40.625 48.1875 47.75 41.5 
Q 54.890625 34.8125 54.890625 23.390625 
Q 54.890625 11.625 47.5625 5.09375 
Q 40.234375 -1.421875 26.90625 -1.421875 
Q 22.3125 -1.421875 17.546875 -0.640625 
Q 12.796875 0.140625 7.71875 1.703125 
L 7.71875 11.625 
Q 12.109375 9.234375 16.796875 8.0625 
Q 21.484375 6.890625 26.703125 6.890625 
Q 35.15625 6.890625 40.078125 11.328125 
Q 45.015625 15.765625 45.015625 23.390625 
Q 45.015625 31 40.078125 35.4375 
Q 35.15625 39.890625 26.703125 39.890625 
Q 22.75 39.890625 18.8125 39.015625 
Q 14.890625 38.140625 10.796875 36.28125 
z
" id="DejaVuSans-53"/>
      </defs>
      <g transform="translate(44.2375 105.748622)scale(0.1 -0.1)">
       <use xlink:href="#DejaVuSans-53"/>
      </g>
     </g>
    </g>
    <g id="ytick_7">
     <g id="line2d_13">
      <g>
       <use style="stroke:#000000;stroke-width:0.8;" x="57.6" xlink:href="#m3dbed62225" y="60.822484"/>
      </g>
     </g>
     <g id="text_14">
      <!-- 6 -->
      <g transform="translate(44.2375 64.621702)scale(0.1 -0.1)">
       <use xlink:href="#DejaVuSans-54"/>
      </g>
     </g>
    </g>
    <g id="text_15">
     <!-- 1e10 -->
     <defs>
      <path d="M 10.59375 35.5 
L 73.1875 35.5 
L 73.1875 27.203125 
L 10.59375 27.203125 
z
" id="DejaVuSans-8722"/>
     </defs>
     <g transform="translate(57.6 38.472)scale(0.1 -0.1)">
      <use xlink:href="#DejaVuSans-49"/>
      <use x="63.623047" xlink:href="#DejaVuSans-101"/>
      <use x="125.146484" xlink:href="#DejaVuSans-8722"/>
      <use x="208.935547" xlink:href="#DejaVuSans-49"/>
      <use x="272.558594" xlink:href="#DejaVuSans-48"/>
     </g>
    </g>
   </g>
   <g id="line2d_14">
    <path clip-path="url(#p00c9c1cb69)" d="M 73.832727 307.428204 
L 77.112066 307.249599 
L 80.391405 306.900805 
L 83.670744 306.254999 
L 86.950083 305.1216 
L 90.229421 303.236846 
L 93.50876 300.268564 
L 96.788099 295.844279 
L 100.067438 289.608726 
L 103.346777 281.309005 
L 106.626116 270.893739 
L 109.905455 258.600574 
L 113.184793 244.999688 
L 116.464132 230.965318 
L 119.743471 217.564422 
L 123.02281 205.877882 
L 126.302149 196.795672 
L 129.581488 190.84208 
L 132.860826 188.082541 
L 136.140165 188.139977 
L 139.419504 190.314132 
L 142.698843 193.765572 
L 145.978182 197.708727 
L 149.257521 201.561087 
L 152.53686 205.015448 
L 155.816198 208.029843 
L 159.095537 210.754729 
L 162.374876 213.431111 
L 165.654215 216.294038 
L 168.933554 219.505801 
L 172.212893 223.128092 
L 175.492231 227.128574 
L 178.77157 231.408985 
L 182.050909 235.840216 
L 185.330248 240.29311 
L 188.609587 244.659092 
L 191.888926 248.859509 
L 195.168264 252.845497 
L 198.447603 256.591346 
L 201.726942 260.08449 
L 205.006281 263.315095 
L 208.28562 266.267939 
L 211.564959 268.918702 
L 214.844298 271.235793 
L 218.123636 273.187416 
L 221.402975 274.752155 
L 224.682314 275.930248 
L 227.961653 276.752207 
L 231.240992 277.281732 
L 234.520331 277.610835 
L 237.799669 277.84681 
L 241.079008 278.09285 
L 244.358347 278.426256 
L 247.637686 278.879493 
L 250.917025 279.429304 
L 254.196364 279.997202 
L 257.475702 280.461667 
L 260.755041 280.6792 
L 264.03438 280.509242 
L 267.313719 279.837676 
L 270.593058 278.59489 
L 273.872397 276.766615 
L 277.151736 274.397768 
L 280.431074 271.590635 
L 283.710413 268.498744 
L 286.989752 265.316984 
L 290.269091 262.267686 
L 293.54843 259.582142 
L 296.827769 257.477788 
L 300.107107 256.132963 
L 303.386446 255.663111 
L 306.665785 256.103666 
L 309.945124 257.404676 
L 313.224463 259.440269 
L 316.503802 262.03243 
L 319.78314 264.984487 
L 323.062479 268.11645 
L 326.341818 271.293249 
L 329.621157 274.438688 
L 332.900496 277.532101 
L 336.179835 280.590028 
L 339.459174 283.639809 
L 342.738512 286.694108 
L 346.017851 289.734332 
L 349.29719 292.707224 
L 352.576529 295.534104 
L 355.855868 298.128246 
L 359.135207 300.413952 
L 362.414545 302.341463 
L 365.693884 303.894182 
L 368.973223 305.087706 
L 372.252562 305.962569 
L 375.531901 306.573881 
L 378.81124 306.980977 
L 382.090579 307.239301 
L 385.369917 307.395469 
L 388.649256 307.4854 
L 391.928595 307.534721 
L 395.207934 307.560477 
L 398.487273 307.573281 
" style="fill:none;stroke:#f48024;stroke-linecap:square;stroke-width:1.5;"/>
   </g>
   <g id="line2d_15">
    <path clip-path="url(#p00c9c1cb69)" d="M 73.842047 307.428261 
L 77.111663 307.250092 
L 80.381279 306.902442 
L 83.650895 306.259163 
L 86.920511 305.13069 
L 90.190127 303.254557 
L 93.459743 300.299919 
L 96.729359 295.895132 
L 99.998975 289.684522 
L 103.268591 281.412721 
L 106.538207 271.023309 
L 109.807823 258.746492 
L 113.077439 245.143799 
L 116.347055 231.081771 
L 119.616671 217.623281 
L 122.886287 205.851012 
L 126.155903 196.663532 
L 129.425519 190.599425 
L 132.695135 187.741077 
L 135.964751 187.726834 
L 139.234367 189.866366 
L 142.503983 193.322204 
L 145.773599 197.302646 
L 149.043215 201.213053 
L 152.312831 204.731633 
L 155.582447 207.803113 
L 158.852063 210.568718 
L 162.121679 213.265494 
L 165.391295 216.129405 
L 168.660911 219.327029 
L 171.930527 222.92587 
L 175.200143 226.899354 
L 178.469759 231.153952 
L 181.739375 235.563855 
L 185.008991 240.001734 
L 188.278607 244.359494 
L 191.548223 248.557813 
L 194.817839 252.546308 
L 198.087455 256.297369 
L 201.357071 259.796758 
L 204.626687 263.033797 
L 207.896303 265.99361 
L 211.165919 268.653371 
L 214.435535 270.983635 
L 217.705151 272.954582 
L 220.974767 274.545746 
L 224.244383 275.75666 
L 227.513999 276.615345 
L 230.783615 277.181639 
L 234.053231 277.543239 
L 237.322847 277.803839 
L 240.592463 278.064856 
L 243.862079 278.404317 
L 247.131695 278.857973 
L 250.401311 279.407757 
L 253.670927 279.981126 
L 256.940543 280.461954 
L 260.210159 280.710455 
L 263.479775 280.587449 
L 266.749391 279.97766 
L 270.019007 278.807952 
L 273.288623 277.058489 
L 276.558239 274.766942 
L 279.827855 272.027087 
L 283.097471 268.983306 
L 286.367087 265.821686 
L 289.636703 262.757485 
L 292.906319 260.018237 
L 296.175935 257.822325 
L 299.445551 256.354409 
L 302.715167 255.741163 
L 305.984783 256.032446 
L 309.254399 257.19326 
L 312.524015 259.110241 
L 315.793631 261.612977 
L 319.063247 264.506271 
L 322.332863 267.605861 
L 325.602479 270.768544 
L 328.872094 273.908913 
L 332.14171 276.998849 
L 335.411326 280.051202 
L 338.680942 283.093999 
L 341.950558 286.144094 
L 345.220174 289.18866 
L 348.48979 292.17952 
L 351.759406 295.040589 
L 355.029022 297.684425 
L 358.298638 300.031572 
L 361.568254 302.02658 
L 364.83787 303.646695 
L 368.107486 304.902211 
L 371.377102 305.830057 
L 374.646718 306.483687 
L 377.916334 306.922501 
L 381.18595 307.203197 
L 384.455566 307.374246 
L 387.725182 307.473525 
L 390.994798 307.528398 
L 394.264414 307.557273 
L 397.53403 307.571737 
" style="fill:none;stroke:#008000;stroke-linecap:square;stroke-width:1.5;"/>
   </g>
   <g id="patch_203">
    <path d="M 57.6 307.584 
L 57.6 41.472 
" style="fill:none;stroke:#000000;stroke-linecap:square;stroke-linejoin:miter;stroke-width:0.8;"/>
   </g>
   <g id="patch_204">
    <path d="M 414.72 307.584 
L 414.72 41.472 
" style="fill:none;stroke:#000000;stroke-linecap:square;stroke-linejoin:miter;stroke-width:0.8;"/>
   </g>
   <g id="patch_205">
    <path d="M 57.6 307.584 
L 414.72 307.584 
" style="fill:none;stroke:#000000;stroke-linecap:square;stroke-linejoin:miter;stroke-width:0.8;"/>
   </g>
   <g id="patch_206">
    <path d="M 57.6 41.472 
L 414.72 41.472 
" style="fill:none;stroke:#000000;stroke-linecap:square;stroke-linejoin:miter;stroke-width:0.8;"/>
   </g>
   <g id="text_16">
    <!-- {'mae': 95902500.05, 'smape': 0.029, 'jsd': 0.025} -->
    <defs>
     <path d="M 51.125 -9.28125 
L 51.125 -16.3125 
L 48.09375 -16.3125 
Q 35.9375 -16.3125 31.8125 -12.6875 
Q 27.6875 -9.078125 27.6875 1.703125 
L 27.6875 13.375 
Q 27.6875 20.75 25.046875 23.578125 
Q 22.40625 26.421875 15.484375 26.421875 
L 12.5 26.421875 
L 12.5 33.40625 
L 15.484375 33.40625 
Q 22.46875 33.40625 25.078125 36.203125 
Q 27.6875 39.015625 27.6875 46.296875 
L 27.6875 58.015625 
Q 27.6875 68.796875 31.8125 72.390625 
Q 35.9375 75.984375 48.09375 75.984375 
L 51.125 75.984375 
L 51.125 69 
L 47.796875 69 
Q 40.921875 69 38.8125 66.84375 
Q 36.71875 64.703125 36.71875 57.8125 
L 36.71875 45.703125 
Q 36.71875 38.03125 34.5 34.5625 
Q 32.28125 31.109375 26.90625 29.890625 
Q 32.328125 28.5625 34.515625 25.09375 
Q 36.71875 21.625 36.71875 14.015625 
L 36.71875 1.90625 
Q 36.71875 -4.984375 38.8125 -7.125 
Q 40.921875 -9.28125 47.796875 -9.28125 
z
" id="DejaVuSans-123"/>
     <path d="M 17.921875 72.90625 
L 17.921875 45.796875 
L 9.625 45.796875 
L 9.625 72.90625 
z
" id="DejaVuSans-39"/>
     <path d="M 52 44.1875 
Q 55.375 50.25 60.0625 53.125 
Q 64.75 56 71.09375 56 
Q 79.640625 56 84.28125 50.015625 
Q 88.921875 44.046875 88.921875 33.015625 
L 88.921875 0 
L 79.890625 0 
L 79.890625 32.71875 
Q 79.890625 40.578125 77.09375 44.375 
Q 74.3125 48.1875 68.609375 48.1875 
Q 61.625 48.1875 57.5625 43.546875 
Q 53.515625 38.921875 53.515625 30.90625 
L 53.515625 0 
L 44.484375 0 
L 44.484375 32.71875 
Q 44.484375 40.625 41.703125 44.40625 
Q 38.921875 48.1875 33.109375 48.1875 
Q 26.21875 48.1875 22.15625 43.53125 
Q 18.109375 38.875 18.109375 30.90625 
L 18.109375 0 
L 9.078125 0 
L 9.078125 54.6875 
L 18.109375 54.6875 
L 18.109375 46.1875 
Q 21.1875 51.21875 25.484375 53.609375 
Q 29.78125 56 35.6875 56 
Q 41.65625 56 45.828125 52.96875 
Q 50 49.953125 52 44.1875 
z
" id="DejaVuSans-109"/>
     <path d="M 34.28125 27.484375 
Q 23.390625 27.484375 19.1875 25 
Q 14.984375 22.515625 14.984375 16.5 
Q 14.984375 11.71875 18.140625 8.90625 
Q 21.296875 6.109375 26.703125 6.109375 
Q 34.1875 6.109375 38.703125 11.40625 
Q 43.21875 16.703125 43.21875 25.484375 
L 43.21875 27.484375 
z
M 52.203125 31.203125 
L 52.203125 0 
L 43.21875 0 
L 43.21875 8.296875 
Q 40.140625 3.328125 35.546875 0.953125 
Q 30.953125 -1.421875 24.3125 -1.421875 
Q 15.921875 -1.421875 10.953125 3.296875 
Q 6 8.015625 6 15.921875 
Q 6 25.140625 12.171875 29.828125 
Q 18.359375 34.515625 30.609375 34.515625 
L 43.21875 34.515625 
L 43.21875 35.40625 
Q 43.21875 41.609375 39.140625 45 
Q 35.0625 48.390625 27.6875 48.390625 
Q 23 48.390625 18.546875 47.265625 
Q 14.109375 46.140625 10.015625 43.890625 
L 10.015625 52.203125 
Q 14.9375 54.109375 19.578125 55.046875 
Q 24.21875 56 28.609375 56 
Q 40.484375 56 46.34375 49.84375 
Q 52.203125 43.703125 52.203125 31.203125 
z
" id="DejaVuSans-97"/>
     <path d="M 11.71875 12.40625 
L 22.015625 12.40625 
L 22.015625 0 
L 11.71875 0 
z
M 11.71875 51.703125 
L 22.015625 51.703125 
L 22.015625 39.3125 
L 11.71875 39.3125 
z
" id="DejaVuSans-58"/>
     <path id="DejaVuSans-32"/>
     <path d="M 10.984375 1.515625 
L 10.984375 10.5 
Q 14.703125 8.734375 18.5 7.8125 
Q 22.3125 6.890625 25.984375 6.890625 
Q 35.75 6.890625 40.890625 13.453125 
Q 46.046875 20.015625 46.78125 33.40625 
Q 43.953125 29.203125 39.59375 26.953125 
Q 35.25 24.703125 29.984375 24.703125 
Q 19.046875 24.703125 12.671875 31.3125 
Q 6.296875 37.9375 6.296875 49.421875 
Q 6.296875 60.640625 12.9375 67.421875 
Q 19.578125 74.21875 30.609375 74.21875 
Q 43.265625 74.21875 49.921875 64.515625 
Q 56.59375 54.828125 56.59375 36.375 
Q 56.59375 19.140625 48.40625 8.859375 
Q 40.234375 -1.421875 26.421875 -1.421875 
Q 22.703125 -1.421875 18.890625 -0.6875 
Q 15.09375 0.046875 10.984375 1.515625 
z
M 30.609375 32.421875 
Q 37.25 32.421875 41.125 36.953125 
Q 45.015625 41.5 45.015625 49.421875 
Q 45.015625 57.28125 41.125 61.84375 
Q 37.25 66.40625 30.609375 66.40625 
Q 23.96875 66.40625 20.09375 61.84375 
Q 16.21875 57.28125 16.21875 49.421875 
Q 16.21875 41.5 20.09375 36.953125 
Q 23.96875 32.421875 30.609375 32.421875 
z
" id="DejaVuSans-57"/>
     <path d="M 11.71875 12.40625 
L 22.015625 12.40625 
L 22.015625 4 
L 14.015625 -11.625 
L 7.71875 -11.625 
L 11.71875 4 
z
" id="DejaVuSans-44"/>
     <path d="M 44.28125 53.078125 
L 44.28125 44.578125 
Q 40.484375 46.53125 36.375 47.5 
Q 32.28125 48.484375 27.875 48.484375 
Q 21.1875 48.484375 17.84375 46.4375 
Q 14.5 44.390625 14.5 40.28125 
Q 14.5 37.15625 16.890625 35.375 
Q 19.28125 33.59375 26.515625 31.984375 
L 29.59375 31.296875 
Q 39.15625 29.25 43.1875 25.515625 
Q 47.21875 21.78125 47.21875 15.09375 
Q 47.21875 7.46875 41.1875 3.015625 
Q 35.15625 -1.421875 24.609375 -1.421875 
Q 20.21875 -1.421875 15.453125 -0.5625 
Q 10.6875 0.296875 5.421875 2 
L 5.421875 11.28125 
Q 10.40625 8.6875 15.234375 7.390625 
Q 20.0625 6.109375 24.8125 6.109375 
Q 31.15625 6.109375 34.5625 8.28125 
Q 37.984375 10.453125 37.984375 14.40625 
Q 37.984375 18.0625 35.515625 20.015625 
Q 33.0625 21.96875 24.703125 23.78125 
L 21.578125 24.515625 
Q 13.234375 26.265625 9.515625 29.90625 
Q 5.8125 33.546875 5.8125 39.890625 
Q 5.8125 47.609375 11.28125 51.796875 
Q 16.75 56 26.8125 56 
Q 31.78125 56 36.171875 55.265625 
Q 40.578125 54.546875 44.28125 53.078125 
z
" id="DejaVuSans-115"/>
     <path d="M 18.109375 8.203125 
L 18.109375 -20.796875 
L 9.078125 -20.796875 
L 9.078125 54.6875 
L 18.109375 54.6875 
L 18.109375 46.390625 
Q 20.953125 51.265625 25.265625 53.625 
Q 29.59375 56 35.59375 56 
Q 45.5625 56 51.78125 48.09375 
Q 58.015625 40.1875 58.015625 27.296875 
Q 58.015625 14.40625 51.78125 6.484375 
Q 45.5625 -1.421875 35.59375 -1.421875 
Q 29.59375 -1.421875 25.265625 0.953125 
Q 20.953125 3.328125 18.109375 8.203125 
z
M 48.6875 27.296875 
Q 48.6875 37.203125 44.609375 42.84375 
Q 40.53125 48.484375 33.40625 48.484375 
Q 26.265625 48.484375 22.1875 42.84375 
Q 18.109375 37.203125 18.109375 27.296875 
Q 18.109375 17.390625 22.1875 11.75 
Q 26.265625 6.109375 33.40625 6.109375 
Q 40.53125 6.109375 44.609375 11.75 
Q 48.6875 17.390625 48.6875 27.296875 
z
" id="DejaVuSans-112"/>
     <path d="M 9.421875 54.6875 
L 18.40625 54.6875 
L 18.40625 -0.984375 
Q 18.40625 -11.421875 14.421875 -16.109375 
Q 10.453125 -20.796875 1.609375 -20.796875 
L -1.8125 -20.796875 
L -1.8125 -13.1875 
L 0.59375 -13.1875 
Q 5.71875 -13.1875 7.5625 -10.8125 
Q 9.421875 -8.453125 9.421875 -0.984375 
z
M 9.421875 75.984375 
L 18.40625 75.984375 
L 18.40625 64.59375 
L 9.421875 64.59375 
z
" id="DejaVuSans-106"/>
     <path d="M 45.40625 46.390625 
L 45.40625 75.984375 
L 54.390625 75.984375 
L 54.390625 0 
L 45.40625 0 
L 45.40625 8.203125 
Q 42.578125 3.328125 38.25 0.953125 
Q 33.9375 -1.421875 27.875 -1.421875 
Q 17.96875 -1.421875 11.734375 6.484375 
Q 5.515625 14.40625 5.515625 27.296875 
Q 5.515625 40.1875 11.734375 48.09375 
Q 17.96875 56 27.875 56 
Q 33.9375 56 38.25 53.625 
Q 42.578125 51.265625 45.40625 46.390625 
z
M 14.796875 27.296875 
Q 14.796875 17.390625 18.875 11.75 
Q 22.953125 6.109375 30.078125 6.109375 
Q 37.203125 6.109375 41.296875 11.75 
Q 45.40625 17.390625 45.40625 27.296875 
Q 45.40625 37.203125 41.296875 42.84375 
Q 37.203125 48.484375 30.078125 48.484375 
Q 22.953125 48.484375 18.875 42.84375 
Q 14.796875 37.203125 14.796875 27.296875 
z
" id="DejaVuSans-100"/>
     <path d="M 12.5 -9.28125 
L 15.921875 -9.28125 
Q 22.75 -9.28125 24.828125 -7.171875 
Q 26.90625 -5.078125 26.90625 1.90625 
L 26.90625 14.015625 
Q 26.90625 21.625 29.09375 25.09375 
Q 31.296875 28.5625 36.71875 29.890625 
Q 31.296875 31.109375 29.09375 34.5625 
Q 26.90625 38.03125 26.90625 45.703125 
L 26.90625 57.8125 
Q 26.90625 64.75 24.828125 66.875 
Q 22.75 69 15.921875 69 
L 12.5 69 
L 12.5 75.984375 
L 15.578125 75.984375 
Q 27.734375 75.984375 31.8125 72.390625 
Q 35.890625 68.796875 35.890625 58.015625 
L 35.890625 46.296875 
Q 35.890625 39.015625 38.515625 36.203125 
Q 41.15625 33.40625 48.09375 33.40625 
L 51.125 33.40625 
L 51.125 26.421875 
L 48.09375 26.421875 
Q 41.15625 26.421875 38.515625 23.578125 
Q 35.890625 20.75 35.890625 13.375 
L 35.890625 1.703125 
Q 35.890625 -9.078125 31.8125 -12.6875 
Q 27.734375 -16.3125 15.578125 -16.3125 
L 12.5 -16.3125 
z
" id="DejaVuSans-125"/>
    </defs>
    <g transform="translate(82.820625 35.472)scale(0.12 -0.12)">
     <use xlink:href="#DejaVuSans-123"/>
     <use x="63.623047" xlink:href="#DejaVuSans-39"/>
     <use x="91.113281" xlink:href="#DejaVuSans-109"/>
     <use x="188.525391" xlink:href="#DejaVuSans-97"/>
     <use x="249.804688" xlink:href="#DejaVuSans-101"/>
     <use x="311.328125" xlink:href="#DejaVuSans-39"/>
     <use x="338.818359" xlink:href="#DejaVuSans-58"/>
     <use x="372.509766" xlink:href="#DejaVuSans-32"/>
     <use x="404.296875" xlink:href="#DejaVuSans-57"/>
     <use x="467.919922" xlink:href="#DejaVuSans-53"/>
     <use x="531.542969" xlink:href="#DejaVuSans-57"/>
     <use x="595.166016" xlink:href="#DejaVuSans-48"/>
     <use x="658.789062" xlink:href="#DejaVuSans-50"/>
     <use x="722.412109" xlink:href="#DejaVuSans-53"/>
     <use x="786.035156" xlink:href="#DejaVuSans-48"/>
     <use x="849.658203" xlink:href="#DejaVuSans-48"/>
     <use x="913.28125" xlink:href="#DejaVuSans-46"/>
     <use x="945.068359" xlink:href="#DejaVuSans-48"/>
     <use x="1008.691406" xlink:href="#DejaVuSans-53"/>
     <use x="1072.314453" xlink:href="#DejaVuSans-44"/>
     <use x="1104.101562" xlink:href="#DejaVuSans-32"/>
     <use x="1135.888672" xlink:href="#DejaVuSans-39"/>
     <use x="1163.378906" xlink:href="#DejaVuSans-115"/>
     <use x="1215.478516" xlink:href="#DejaVuSans-109"/>
     <use x="1312.890625" xlink:href="#DejaVuSans-97"/>
     <use x="1374.169922" xlink:href="#DejaVuSans-112"/>
     <use x="1437.646484" xlink:href="#DejaVuSans-101"/>
     <use x="1499.169922" xlink:href="#DejaVuSans-39"/>
     <use x="1526.660156" xlink:href="#DejaVuSans-58"/>
     <use x="1560.351562" xlink:href="#DejaVuSans-32"/>
     <use x="1592.138672" xlink:href="#DejaVuSans-48"/>
     <use x="1655.761719" xlink:href="#DejaVuSans-46"/>
     <use x="1687.548828" xlink:href="#DejaVuSans-48"/>
     <use x="1751.171875" xlink:href="#DejaVuSans-50"/>
     <use x="1814.794922" xlink:href="#DejaVuSans-57"/>
     <use x="1878.417969" xlink:href="#DejaVuSans-44"/>
     <use x="1910.205078" xlink:href="#DejaVuSans-32"/>
     <use x="1941.992188" xlink:href="#DejaVuSans-39"/>
     <use x="1969.482422" xlink:href="#DejaVuSans-106"/>
     <use x="1997.265625" xlink:href="#DejaVuSans-115"/>
     <use x="2049.365234" xlink:href="#DejaVuSans-100"/>
     <use x="2112.841797" xlink:href="#DejaVuSans-39"/>
     <use x="2140.332031" xlink:href="#DejaVuSans-58"/>
     <use x="2174.023438" xlink:href="#DejaVuSans-32"/>
     <use x="2205.810547" xlink:href="#DejaVuSans-48"/>
     <use x="2269.433594" xlink:href="#DejaVuSans-46"/>
     <use x="2301.220703" xlink:href="#DejaVuSans-48"/>
     <use x="2364.84375" xlink:href="#DejaVuSans-50"/>
     <use x="2428.466797" xlink:href="#DejaVuSans-53"/>
     <use x="2492.089844" xlink:href="#DejaVuSans-125"/>
    </g>
   </g>
   <g id="legend_1">
    <g id="patch_207">
     <path d="M 340.565313 78.82825 
L 407.72 78.82825 
Q 409.72 78.82825 409.72 76.82825 
L 409.72 48.472 
Q 409.72 46.472 407.72 46.472 
L 340.565313 46.472 
Q 338.565313 46.472 338.565313 48.472 
L 338.565313 76.82825 
Q 338.565313 78.82825 340.565313 78.82825 
z
" style="fill:#ffffff;opacity:0.8;stroke:#cccccc;stroke-linejoin:miter;"/>
    </g>
    <g id="patch_208">
     <path d="M 342.565313 58.070437 
L 362.565313 58.070437 
L 362.565313 51.070437 
L 342.565313 51.070437 
z
" style="fill:#f48024;opacity:0.4;"/>
    </g>
    <g id="text_17">
     <!-- actual -->
     <defs>
      <path d="M 48.78125 52.59375 
L 48.78125 44.1875 
Q 44.96875 46.296875 41.140625 47.34375 
Q 37.3125 48.390625 33.40625 48.390625 
Q 24.65625 48.390625 19.8125 42.84375 
Q 14.984375 37.3125 14.984375 27.296875 
Q 14.984375 17.28125 19.8125 11.734375 
Q 24.65625 6.203125 33.40625 6.203125 
Q 37.3125 6.203125 41.140625 7.25 
Q 44.96875 8.296875 48.78125 10.40625 
L 48.78125 2.09375 
Q 45.015625 0.34375 40.984375 -0.53125 
Q 36.96875 -1.421875 32.421875 -1.421875 
Q 20.0625 -1.421875 12.78125 6.34375 
Q 5.515625 14.109375 5.515625 27.296875 
Q 5.515625 40.671875 12.859375 48.328125 
Q 20.21875 56 33.015625 56 
Q 37.15625 56 41.109375 55.140625 
Q 45.0625 54.296875 48.78125 52.59375 
z
" id="DejaVuSans-99"/>
      <path d="M 18.3125 70.21875 
L 18.3125 54.6875 
L 36.8125 54.6875 
L 36.8125 47.703125 
L 18.3125 47.703125 
L 18.3125 18.015625 
Q 18.3125 11.328125 20.140625 9.421875 
Q 21.96875 7.515625 27.59375 7.515625 
L 36.8125 7.515625 
L 36.8125 0 
L 27.59375 0 
Q 17.1875 0 13.234375 3.875 
Q 9.28125 7.765625 9.28125 18.015625 
L 9.28125 47.703125 
L 2.6875 47.703125 
L 2.6875 54.6875 
L 9.28125 54.6875 
L 9.28125 70.21875 
z
" id="DejaVuSans-116"/>
      <path d="M 8.5 21.578125 
L 8.5 54.6875 
L 17.484375 54.6875 
L 17.484375 21.921875 
Q 17.484375 14.15625 20.5 10.265625 
Q 23.53125 6.390625 29.59375 6.390625 
Q 36.859375 6.390625 41.078125 11.03125 
Q 45.3125 15.671875 45.3125 23.6875 
L 45.3125 54.6875 
L 54.296875 54.6875 
L 54.296875 0 
L 45.3125 0 
L 45.3125 8.40625 
Q 42.046875 3.421875 37.71875 1 
Q 33.40625 -1.421875 27.6875 -1.421875 
Q 18.265625 -1.421875 13.375 4.4375 
Q 8.5 10.296875 8.5 21.578125 
z
M 31.109375 56 
z
" id="DejaVuSans-117"/>
      <path d="M 9.421875 75.984375 
L 18.40625 75.984375 
L 18.40625 0 
L 9.421875 0 
z
" id="DejaVuSans-108"/>
     </defs>
     <g transform="translate(370.565313 58.070437)scale(0.1 -0.1)">
      <use xlink:href="#DejaVuSans-97"/>
      <use x="61.279297" xlink:href="#DejaVuSans-99"/>
      <use x="116.259766" xlink:href="#DejaVuSans-116"/>
      <use x="155.46875" xlink:href="#DejaVuSans-117"/>
      <use x="218.847656" xlink:href="#DejaVuSans-97"/>
      <use x="280.126953" xlink:href="#DejaVuSans-108"/>
     </g>
    </g>
    <g id="patch_209">
     <path d="M 342.565313 72.748562 
L 362.565313 72.748562 
L 362.565313 65.748562 
L 342.565313 65.748562 
z
" style="fill:#008000;opacity:0.4;"/>
    </g>
    <g id="text_18">
     <!-- predict -->
     <defs>
      <path d="M 41.109375 46.296875 
Q 39.59375 47.171875 37.8125 47.578125 
Q 36.03125 48 33.890625 48 
Q 26.265625 48 22.1875 43.046875 
Q 18.109375 38.09375 18.109375 28.8125 
L 18.109375 0 
L 9.078125 0 
L 9.078125 54.6875 
L 18.109375 54.6875 
L 18.109375 46.1875 
Q 20.953125 51.171875 25.484375 53.578125 
Q 30.03125 56 36.53125 56 
Q 37.453125 56 38.578125 55.875 
Q 39.703125 55.765625 41.0625 55.515625 
z
" id="DejaVuSans-114"/>
      <path d="M 9.421875 54.6875 
L 18.40625 54.6875 
L 18.40625 0 
L 9.421875 0 
z
M 9.421875 75.984375 
L 18.40625 75.984375 
L 18.40625 64.59375 
L 9.421875 64.59375 
z
" id="DejaVuSans-105"/>
     </defs>
     <g transform="translate(370.565313 72.748562)scale(0.1 -0.1)">
      <use xlink:href="#DejaVuSans-112"/>
      <use x="63.476562" xlink:href="#DejaVuSans-114"/>
      <use x="104.558594" xlink:href="#DejaVuSans-101"/>
      <use x="166.082031" xlink:href="#DejaVuSans-100"/>
      <use x="229.558594" xlink:href="#DejaVuSans-105"/>
      <use x="257.341797" xlink:href="#DejaVuSans-99"/>
      <use x="312.322266" xlink:href="#DejaVuSans-116"/>
     </g>
    </g>
   </g>
  </g>
 </g>
 <defs>
  <clipPath id="p00c9c1cb69">
   <rect height="266.112" width="357.12" x="57.6" y="41.472"/>
  </clipPath>
 </defs>
</svg>
