<?xml version="1.0" encoding="utf-8" standalone="no"?>
<!DOCTYPE svg PUBLIC "-//W3C//DTD SVG 1.1//EN"
  "http://www.w3.org/Graphics/SVG/1.1/DTD/svg11.dtd">
<!-- Created with matplotlib (https://matplotlib.org/) -->
<svg height="345.6pt" version="1.1" viewBox="0 0 460.8 345.6" width="460.8pt" xmlns="http://www.w3.org/2000/svg" xmlns:xlink="http://www.w3.org/1999/xlink">
 <defs>
  <style type="text/css">
*{stroke-linecap:butt;stroke-linejoin:round;}
  </style>
 </defs>
 <g id="figure_1">
  <g id="patch_1">
   <path d="M 0 345.6 
L 460.8 345.6 
L 460.8 0 
L 0 0 
z
" style="fill:#ffffff;"/>
  </g>
  <g id="axes_1">
   <g id="patch_2">
    <path d="M 57.6 307.584 
L 414.72 307.584 
L 414.72 41.472 
L 57.6 41.472 
z
" style="fill:#ffffff;"/>
   </g>
   <g id="patch_3">
    <path clip-path="url(#p6210c11bc8)" d="M 97.985795 307.584 
L 100.730762 307.584 
L 100.730762 191.478154 
L 97.985795 191.478154 
z
" style="fill:#f48024;opacity:0.4;"/>
   </g>
   <g id="patch_4">
    <path clip-path="url(#p6210c11bc8)" d="M 100.730762 307.584 
L 103.475729 307.584 
L 103.475729 198.409846 
L 100.730762 198.409846 
z
" style="fill:#f48024;opacity:0.4;"/>
   </g>
   <g id="patch_5">
    <path clip-path="url(#p6210c11bc8)" d="M 103.475729 307.584 
L 106.220696 307.584 
L 106.220696 233.068308 
L 103.475729 233.068308 
z
" style="fill:#f48024;opacity:0.4;"/>
   </g>
   <g id="patch_6">
    <path clip-path="url(#p6210c11bc8)" d="M 106.220696 307.584 
L 108.965663 307.584 
L 108.965663 129.092923 
L 106.220696 129.092923 
z
" style="fill:#f48024;opacity:0.4;"/>
   </g>
   <g id="patch_7">
    <path clip-path="url(#p6210c11bc8)" d="M 108.965663 307.584 
L 111.710629 307.584 
L 111.710629 54.144 
L 108.965663 54.144 
z
" style="fill:#f48024;opacity:0.4;"/>
   </g>
   <g id="patch_8">
    <path clip-path="url(#p6210c11bc8)" d="M 111.710629 307.584 
L 114.455596 307.584 
L 114.455596 134.291692 
L 111.710629 134.291692 
z
" style="fill:#f48024;opacity:0.4;"/>
   </g>
   <g id="patch_9">
    <path clip-path="url(#p6210c11bc8)" d="M 114.455596 307.584 
L 117.200563 307.584 
L 117.200563 206.641231 
L 114.455596 206.641231 
z
" style="fill:#f48024;opacity:0.4;"/>
   </g>
   <g id="patch_10">
    <path clip-path="url(#p6210c11bc8)" d="M 117.200563 307.584 
L 119.94553 307.584 
L 119.94553 245.198769 
L 117.200563 245.198769 
z
" style="fill:#f48024;opacity:0.4;"/>
   </g>
   <g id="patch_11">
    <path clip-path="url(#p6210c11bc8)" d="M 119.94553 307.584 
L 122.690497 307.584 
L 122.690497 262.094769 
L 119.94553 262.094769 
z
" style="fill:#f48024;opacity:0.4;"/>
   </g>
   <g id="patch_12">
    <path clip-path="url(#p6210c11bc8)" d="M 122.690497 307.584 
L 125.435464 307.584 
L 125.435464 275.091692 
L 122.690497 275.091692 
z
" style="fill:#f48024;opacity:0.4;"/>
   </g>
   <g id="patch_13">
    <path clip-path="url(#p6210c11bc8)" d="M 125.435464 307.584 
L 128.180431 307.584 
L 128.180431 275.958154 
L 125.435464 275.958154 
z
" style="fill:#f48024;opacity:0.4;"/>
   </g>
   <g id="patch_14">
    <path clip-path="url(#p6210c11bc8)" d="M 128.180431 307.584 
L 130.925397 307.584 
L 130.925397 282.456615 
L 128.180431 282.456615 
z
" style="fill:#f48024;opacity:0.4;"/>
   </g>
   <g id="patch_15">
    <path clip-path="url(#p6210c11bc8)" d="M 130.925397 307.584 
L 133.670364 307.584 
L 133.670364 282.889846 
L 130.925397 282.889846 
z
" style="fill:#f48024;opacity:0.4;"/>
   </g>
   <g id="patch_16">
    <path clip-path="url(#p6210c11bc8)" d="M 133.670364 307.584 
L 136.415331 307.584 
L 136.415331 291.554462 
L 133.670364 291.554462 
z
" style="fill:#f48024;opacity:0.4;"/>
   </g>
   <g id="patch_17">
    <path clip-path="url(#p6210c11bc8)" d="M 136.415331 307.584 
L 139.160298 307.584 
L 139.160298 295.020308 
L 136.415331 295.020308 
z
" style="fill:#f48024;opacity:0.4;"/>
   </g>
   <g id="patch_18">
    <path clip-path="url(#p6210c11bc8)" d="M 139.160298 307.584 
L 141.905265 307.584 
L 141.905265 298.486154 
L 139.160298 298.486154 
z
" style="fill:#f48024;opacity:0.4;"/>
   </g>
   <g id="patch_19">
    <path clip-path="url(#p6210c11bc8)" d="M 141.905265 307.584 
L 144.650232 307.584 
L 144.650232 296.32 
L 141.905265 296.32 
z
" style="fill:#f48024;opacity:0.4;"/>
   </g>
   <g id="patch_20">
    <path clip-path="url(#p6210c11bc8)" d="M 144.650232 307.584 
L 147.395199 307.584 
L 147.395199 296.753231 
L 144.650232 296.753231 
z
" style="fill:#f48024;opacity:0.4;"/>
   </g>
   <g id="patch_21">
    <path clip-path="url(#p6210c11bc8)" d="M 147.395199 307.584 
L 150.140165 307.584 
L 150.140165 298.919385 
L 147.395199 298.919385 
z
" style="fill:#f48024;opacity:0.4;"/>
   </g>
   <g id="patch_22">
    <path clip-path="url(#p6210c11bc8)" d="M 150.140165 307.584 
L 152.885132 307.584 
L 152.885132 296.753231 
L 150.140165 296.753231 
z
" style="fill:#f48024;opacity:0.4;"/>
   </g>
   <g id="patch_23">
    <path clip-path="url(#p6210c11bc8)" d="M 152.885132 307.584 
L 155.630099 307.584 
L 155.630099 296.753231 
L 152.885132 296.753231 
z
" style="fill:#f48024;opacity:0.4;"/>
   </g>
   <g id="patch_24">
    <path clip-path="url(#p6210c11bc8)" d="M 155.630099 307.584 
L 158.375066 307.584 
L 158.375066 299.352615 
L 155.630099 299.352615 
z
" style="fill:#f48024;opacity:0.4;"/>
   </g>
   <g id="patch_25">
    <path clip-path="url(#p6210c11bc8)" d="M 158.375066 307.584 
L 161.120033 307.584 
L 161.120033 297.619692 
L 158.375066 297.619692 
z
" style="fill:#f48024;opacity:0.4;"/>
   </g>
   <g id="patch_26">
    <path clip-path="url(#p6210c11bc8)" d="M 161.120033 307.584 
L 163.865 307.584 
L 163.865 298.919385 
L 161.120033 298.919385 
z
" style="fill:#f48024;opacity:0.4;"/>
   </g>
   <g id="patch_27">
    <path clip-path="url(#p6210c11bc8)" d="M 163.865 307.584 
L 166.609966 307.584 
L 166.609966 304.551385 
L 163.865 304.551385 
z
" style="fill:#f48024;opacity:0.4;"/>
   </g>
   <g id="patch_28">
    <path clip-path="url(#p6210c11bc8)" d="M 166.609966 307.584 
L 169.354933 307.584 
L 169.354933 301.952 
L 166.609966 301.952 
z
" style="fill:#f48024;opacity:0.4;"/>
   </g>
   <g id="patch_29">
    <path clip-path="url(#p6210c11bc8)" d="M 169.354933 307.584 
L 172.0999 307.584 
L 172.0999 302.818462 
L 169.354933 302.818462 
z
" style="fill:#f48024;opacity:0.4;"/>
   </g>
   <g id="patch_30">
    <path clip-path="url(#p6210c11bc8)" d="M 172.0999 307.584 
L 174.844867 307.584 
L 174.844867 299.785846 
L 172.0999 299.785846 
z
" style="fill:#f48024;opacity:0.4;"/>
   </g>
   <g id="patch_31">
    <path clip-path="url(#p6210c11bc8)" d="M 174.844867 307.584 
L 177.589834 307.584 
L 177.589834 302.385231 
L 174.844867 302.385231 
z
" style="fill:#f48024;opacity:0.4;"/>
   </g>
   <g id="patch_32">
    <path clip-path="url(#p6210c11bc8)" d="M 177.589834 307.584 
L 180.334801 307.584 
L 180.334801 304.551385 
L 177.589834 304.551385 
z
" style="fill:#f48024;opacity:0.4;"/>
   </g>
   <g id="patch_33">
    <path clip-path="url(#p6210c11bc8)" d="M 180.334801 307.584 
L 183.079768 307.584 
L 183.079768 303.684923 
L 180.334801 303.684923 
z
" style="fill:#f48024;opacity:0.4;"/>
   </g>
   <g id="patch_34">
    <path clip-path="url(#p6210c11bc8)" d="M 183.079768 307.584 
L 185.824734 307.584 
L 185.824734 303.684923 
L 183.079768 303.684923 
z
" style="fill:#f48024;opacity:0.4;"/>
   </g>
   <g id="patch_35">
    <path clip-path="url(#p6210c11bc8)" d="M 185.824734 307.584 
L 188.569701 307.584 
L 188.569701 301.085538 
L 185.824734 301.085538 
z
" style="fill:#f48024;opacity:0.4;"/>
   </g>
   <g id="patch_36">
    <path clip-path="url(#p6210c11bc8)" d="M 188.569701 307.584 
L 191.314668 307.584 
L 191.314668 303.251692 
L 188.569701 303.251692 
z
" style="fill:#f48024;opacity:0.4;"/>
   </g>
   <g id="patch_37">
    <path clip-path="url(#p6210c11bc8)" d="M 191.314668 307.584 
L 194.059635 307.584 
L 194.059635 304.984615 
L 191.314668 304.984615 
z
" style="fill:#f48024;opacity:0.4;"/>
   </g>
   <g id="patch_38">
    <path clip-path="url(#p6210c11bc8)" d="M 194.059635 307.584 
L 196.804602 307.584 
L 196.804602 303.684923 
L 194.059635 303.684923 
z
" style="fill:#f48024;opacity:0.4;"/>
   </g>
   <g id="patch_39">
    <path clip-path="url(#p6210c11bc8)" d="M 196.804602 307.584 
L 199.549569 307.584 
L 199.549569 304.118154 
L 196.804602 304.118154 
z
" style="fill:#f48024;opacity:0.4;"/>
   </g>
   <g id="patch_40">
    <path clip-path="url(#p6210c11bc8)" d="M 199.549569 307.584 
L 202.294535 307.584 
L 202.294535 302.385231 
L 199.549569 302.385231 
z
" style="fill:#f48024;opacity:0.4;"/>
   </g>
   <g id="patch_41">
    <path clip-path="url(#p6210c11bc8)" d="M 202.294535 307.584 
L 205.039502 307.584 
L 205.039502 301.518769 
L 202.294535 301.518769 
z
" style="fill:#f48024;opacity:0.4;"/>
   </g>
   <g id="patch_42">
    <path clip-path="url(#p6210c11bc8)" d="M 205.039502 307.584 
L 207.784469 307.584 
L 207.784469 304.551385 
L 205.039502 304.551385 
z
" style="fill:#f48024;opacity:0.4;"/>
   </g>
   <g id="patch_43">
    <path clip-path="url(#p6210c11bc8)" d="M 207.784469 307.584 
L 210.529436 307.584 
L 210.529436 303.684923 
L 207.784469 303.684923 
z
" style="fill:#f48024;opacity:0.4;"/>
   </g>
   <g id="patch_44">
    <path clip-path="url(#p6210c11bc8)" d="M 210.529436 307.584 
L 213.274403 307.584 
L 213.274403 301.952 
L 210.529436 301.952 
z
" style="fill:#f48024;opacity:0.4;"/>
   </g>
   <g id="patch_45">
    <path clip-path="url(#p6210c11bc8)" d="M 213.274403 307.584 
L 216.01937 307.584 
L 216.01937 301.085538 
L 213.274403 301.085538 
z
" style="fill:#f48024;opacity:0.4;"/>
   </g>
   <g id="patch_46">
    <path clip-path="url(#p6210c11bc8)" d="M 216.01937 307.584 
L 218.764337 307.584 
L 218.764337 302.818462 
L 216.01937 302.818462 
z
" style="fill:#f48024;opacity:0.4;"/>
   </g>
   <g id="patch_47">
    <path clip-path="url(#p6210c11bc8)" d="M 218.764337 307.584 
L 221.509303 307.584 
L 221.509303 302.385231 
L 218.764337 302.385231 
z
" style="fill:#f48024;opacity:0.4;"/>
   </g>
   <g id="patch_48">
    <path clip-path="url(#p6210c11bc8)" d="M 221.509303 307.584 
L 224.25427 307.584 
L 224.25427 305.417846 
L 221.509303 305.417846 
z
" style="fill:#f48024;opacity:0.4;"/>
   </g>
   <g id="patch_49">
    <path clip-path="url(#p6210c11bc8)" d="M 224.25427 307.584 
L 226.999237 307.584 
L 226.999237 302.385231 
L 224.25427 302.385231 
z
" style="fill:#f48024;opacity:0.4;"/>
   </g>
   <g id="patch_50">
    <path clip-path="url(#p6210c11bc8)" d="M 226.999237 307.584 
L 229.744204 307.584 
L 229.744204 304.984615 
L 226.999237 304.984615 
z
" style="fill:#f48024;opacity:0.4;"/>
   </g>
   <g id="patch_51">
    <path clip-path="url(#p6210c11bc8)" d="M 229.744204 307.584 
L 232.489171 307.584 
L 232.489171 303.684923 
L 229.744204 303.684923 
z
" style="fill:#f48024;opacity:0.4;"/>
   </g>
   <g id="patch_52">
    <path clip-path="url(#p6210c11bc8)" d="M 232.489171 307.584 
L 235.234138 307.584 
L 235.234138 304.984615 
L 232.489171 304.984615 
z
" style="fill:#f48024;opacity:0.4;"/>
   </g>
   <g id="patch_53">
    <path clip-path="url(#p6210c11bc8)" d="M 235.234138 307.584 
L 237.979105 307.584 
L 237.979105 305.417846 
L 235.234138 305.417846 
z
" style="fill:#f48024;opacity:0.4;"/>
   </g>
   <g id="patch_54">
    <path clip-path="url(#p6210c11bc8)" d="M 237.979105 307.584 
L 240.724071 307.584 
L 240.724071 304.551385 
L 237.979105 304.551385 
z
" style="fill:#f48024;opacity:0.4;"/>
   </g>
   <g id="patch_55">
    <path clip-path="url(#p6210c11bc8)" d="M 240.724071 307.584 
L 243.469038 307.584 
L 243.469038 305.417846 
L 240.724071 305.417846 
z
" style="fill:#f48024;opacity:0.4;"/>
   </g>
   <g id="patch_56">
    <path clip-path="url(#p6210c11bc8)" d="M 243.469038 307.584 
L 246.214005 307.584 
L 246.214005 305.851077 
L 243.469038 305.851077 
z
" style="fill:#f48024;opacity:0.4;"/>
   </g>
   <g id="patch_57">
    <path clip-path="url(#p6210c11bc8)" d="M 246.214005 307.584 
L 248.958972 307.584 
L 248.958972 305.851077 
L 246.214005 305.851077 
z
" style="fill:#f48024;opacity:0.4;"/>
   </g>
   <g id="patch_58">
    <path clip-path="url(#p6210c11bc8)" d="M 248.958972 307.584 
L 251.703939 307.584 
L 251.703939 303.684923 
L 248.958972 303.684923 
z
" style="fill:#f48024;opacity:0.4;"/>
   </g>
   <g id="patch_59">
    <path clip-path="url(#p6210c11bc8)" d="M 251.703939 307.584 
L 254.448906 307.584 
L 254.448906 304.551385 
L 251.703939 304.551385 
z
" style="fill:#f48024;opacity:0.4;"/>
   </g>
   <g id="patch_60">
    <path clip-path="url(#p6210c11bc8)" d="M 254.448906 307.584 
L 257.193872 307.584 
L 257.193872 304.984615 
L 254.448906 304.984615 
z
" style="fill:#f48024;opacity:0.4;"/>
   </g>
   <g id="patch_61">
    <path clip-path="url(#p6210c11bc8)" d="M 257.193872 307.584 
L 259.938839 307.584 
L 259.938839 304.118154 
L 257.193872 304.118154 
z
" style="fill:#f48024;opacity:0.4;"/>
   </g>
   <g id="patch_62">
    <path clip-path="url(#p6210c11bc8)" d="M 259.938839 307.584 
L 262.683806 307.584 
L 262.683806 304.984615 
L 259.938839 304.984615 
z
" style="fill:#f48024;opacity:0.4;"/>
   </g>
   <g id="patch_63">
    <path clip-path="url(#p6210c11bc8)" d="M 262.683806 307.584 
L 265.428773 307.584 
L 265.428773 304.118154 
L 262.683806 304.118154 
z
" style="fill:#f48024;opacity:0.4;"/>
   </g>
   <g id="patch_64">
    <path clip-path="url(#p6210c11bc8)" d="M 265.428773 307.584 
L 268.17374 307.584 
L 268.17374 304.551385 
L 265.428773 304.551385 
z
" style="fill:#f48024;opacity:0.4;"/>
   </g>
   <g id="patch_65">
    <path clip-path="url(#p6210c11bc8)" d="M 268.17374 307.584 
L 270.918707 307.584 
L 270.918707 306.717538 
L 268.17374 306.717538 
z
" style="fill:#f48024;opacity:0.4;"/>
   </g>
   <g id="patch_66">
    <path clip-path="url(#p6210c11bc8)" d="M 270.918707 307.584 
L 273.663674 307.584 
L 273.663674 306.284308 
L 270.918707 306.284308 
z
" style="fill:#f48024;opacity:0.4;"/>
   </g>
   <g id="patch_67">
    <path clip-path="url(#p6210c11bc8)" d="M 273.663674 307.584 
L 276.40864 307.584 
L 276.40864 306.284308 
L 273.663674 306.284308 
z
" style="fill:#f48024;opacity:0.4;"/>
   </g>
   <g id="patch_68">
    <path clip-path="url(#p6210c11bc8)" d="M 276.40864 307.584 
L 279.153607 307.584 
L 279.153607 304.551385 
L 276.40864 304.551385 
z
" style="fill:#f48024;opacity:0.4;"/>
   </g>
   <g id="patch_69">
    <path clip-path="url(#p6210c11bc8)" d="M 279.153607 307.584 
L 281.898574 307.584 
L 281.898574 307.150769 
L 279.153607 307.150769 
z
" style="fill:#f48024;opacity:0.4;"/>
   </g>
   <g id="patch_70">
    <path clip-path="url(#p6210c11bc8)" d="M 281.898574 307.584 
L 284.643541 307.584 
L 284.643541 305.851077 
L 281.898574 305.851077 
z
" style="fill:#f48024;opacity:0.4;"/>
   </g>
   <g id="patch_71">
    <path clip-path="url(#p6210c11bc8)" d="M 284.643541 307.584 
L 287.388508 307.584 
L 287.388508 305.851077 
L 284.643541 305.851077 
z
" style="fill:#f48024;opacity:0.4;"/>
   </g>
   <g id="patch_72">
    <path clip-path="url(#p6210c11bc8)" d="M 287.388508 307.584 
L 290.133475 307.584 
L 290.133475 306.717538 
L 287.388508 306.717538 
z
" style="fill:#f48024;opacity:0.4;"/>
   </g>
   <g id="patch_73">
    <path clip-path="url(#p6210c11bc8)" d="M 290.133475 307.584 
L 292.878441 307.584 
L 292.878441 306.717538 
L 290.133475 306.717538 
z
" style="fill:#f48024;opacity:0.4;"/>
   </g>
   <g id="patch_74">
    <path clip-path="url(#p6210c11bc8)" d="M 292.878441 307.584 
L 295.623408 307.584 
L 295.623408 306.717538 
L 292.878441 306.717538 
z
" style="fill:#f48024;opacity:0.4;"/>
   </g>
   <g id="patch_75">
    <path clip-path="url(#p6210c11bc8)" d="M 295.623408 307.584 
L 298.368375 307.584 
L 298.368375 305.417846 
L 295.623408 305.417846 
z
" style="fill:#f48024;opacity:0.4;"/>
   </g>
   <g id="patch_76">
    <path clip-path="url(#p6210c11bc8)" d="M 298.368375 307.584 
L 301.113342 307.584 
L 301.113342 307.150769 
L 298.368375 307.150769 
z
" style="fill:#f48024;opacity:0.4;"/>
   </g>
   <g id="patch_77">
    <path clip-path="url(#p6210c11bc8)" d="M 301.113342 307.584 
L 303.858309 307.584 
L 303.858309 306.284308 
L 301.113342 306.284308 
z
" style="fill:#f48024;opacity:0.4;"/>
   </g>
   <g id="patch_78">
    <path clip-path="url(#p6210c11bc8)" d="M 303.858309 307.584 
L 306.603276 307.584 
L 306.603276 307.150769 
L 303.858309 307.150769 
z
" style="fill:#f48024;opacity:0.4;"/>
   </g>
   <g id="patch_79">
    <path clip-path="url(#p6210c11bc8)" d="M 306.603276 307.584 
L 309.348243 307.584 
L 309.348243 306.284308 
L 306.603276 306.284308 
z
" style="fill:#f48024;opacity:0.4;"/>
   </g>
   <g id="patch_80">
    <path clip-path="url(#p6210c11bc8)" d="M 309.348243 307.584 
L 312.093209 307.584 
L 312.093209 307.150769 
L 309.348243 307.150769 
z
" style="fill:#f48024;opacity:0.4;"/>
   </g>
   <g id="patch_81">
    <path clip-path="url(#p6210c11bc8)" d="M 312.093209 307.584 
L 314.838176 307.584 
L 314.838176 306.717538 
L 312.093209 306.717538 
z
" style="fill:#f48024;opacity:0.4;"/>
   </g>
   <g id="patch_82">
    <path clip-path="url(#p6210c11bc8)" d="M 314.838176 307.584 
L 317.583143 307.584 
L 317.583143 306.284308 
L 314.838176 306.284308 
z
" style="fill:#f48024;opacity:0.4;"/>
   </g>
   <g id="patch_83">
    <path clip-path="url(#p6210c11bc8)" d="M 317.583143 307.584 
L 320.32811 307.584 
L 320.32811 306.717538 
L 317.583143 306.717538 
z
" style="fill:#f48024;opacity:0.4;"/>
   </g>
   <g id="patch_84">
    <path clip-path="url(#p6210c11bc8)" d="M 320.32811 307.584 
L 323.073077 307.584 
L 323.073077 306.717538 
L 320.32811 306.717538 
z
" style="fill:#f48024;opacity:0.4;"/>
   </g>
   <g id="patch_85">
    <path clip-path="url(#p6210c11bc8)" d="M 323.073077 307.584 
L 325.818044 307.584 
L 325.818044 306.717538 
L 323.073077 306.717538 
z
" style="fill:#f48024;opacity:0.4;"/>
   </g>
   <g id="patch_86">
    <path clip-path="url(#p6210c11bc8)" d="M 325.818044 307.584 
L 328.563011 307.584 
L 328.563011 307.150769 
L 325.818044 307.150769 
z
" style="fill:#f48024;opacity:0.4;"/>
   </g>
   <g id="patch_87">
    <path clip-path="url(#p6210c11bc8)" d="M 328.563011 307.584 
L 331.307977 307.584 
L 331.307977 307.150769 
L 328.563011 307.150769 
z
" style="fill:#f48024;opacity:0.4;"/>
   </g>
   <g id="patch_88">
    <path clip-path="url(#p6210c11bc8)" d="M 331.307977 307.584 
L 334.052944 307.584 
L 334.052944 306.717538 
L 331.307977 306.717538 
z
" style="fill:#f48024;opacity:0.4;"/>
   </g>
   <g id="patch_89">
    <path clip-path="url(#p6210c11bc8)" d="M 334.052944 307.584 
L 336.797911 307.584 
L 336.797911 307.150769 
L 334.052944 307.150769 
z
" style="fill:#f48024;opacity:0.4;"/>
   </g>
   <g id="patch_90">
    <path clip-path="url(#p6210c11bc8)" d="M 336.797911 307.584 
L 339.542878 307.584 
L 339.542878 307.584 
L 336.797911 307.584 
z
" style="fill:#f48024;opacity:0.4;"/>
   </g>
   <g id="patch_91">
    <path clip-path="url(#p6210c11bc8)" d="M 339.542878 307.584 
L 342.287845 307.584 
L 342.287845 307.584 
L 339.542878 307.584 
z
" style="fill:#f48024;opacity:0.4;"/>
   </g>
   <g id="patch_92">
    <path clip-path="url(#p6210c11bc8)" d="M 342.287845 307.584 
L 345.032812 307.584 
L 345.032812 306.717538 
L 342.287845 306.717538 
z
" style="fill:#f48024;opacity:0.4;"/>
   </g>
   <g id="patch_93">
    <path clip-path="url(#p6210c11bc8)" d="M 345.032812 307.584 
L 347.777778 307.584 
L 347.777778 307.584 
L 345.032812 307.584 
z
" style="fill:#f48024;opacity:0.4;"/>
   </g>
   <g id="patch_94">
    <path clip-path="url(#p6210c11bc8)" d="M 347.777778 307.584 
L 350.522745 307.584 
L 350.522745 307.150769 
L 347.777778 307.150769 
z
" style="fill:#f48024;opacity:0.4;"/>
   </g>
   <g id="patch_95">
    <path clip-path="url(#p6210c11bc8)" d="M 350.522745 307.584 
L 353.267712 307.584 
L 353.267712 307.584 
L 350.522745 307.584 
z
" style="fill:#f48024;opacity:0.4;"/>
   </g>
   <g id="patch_96">
    <path clip-path="url(#p6210c11bc8)" d="M 353.267712 307.584 
L 356.012679 307.584 
L 356.012679 307.584 
L 353.267712 307.584 
z
" style="fill:#f48024;opacity:0.4;"/>
   </g>
   <g id="patch_97">
    <path clip-path="url(#p6210c11bc8)" d="M 356.012679 307.584 
L 358.757646 307.584 
L 358.757646 307.150769 
L 356.012679 307.150769 
z
" style="fill:#f48024;opacity:0.4;"/>
   </g>
   <g id="patch_98">
    <path clip-path="url(#p6210c11bc8)" d="M 358.757646 307.584 
L 361.502613 307.584 
L 361.502613 307.150769 
L 358.757646 307.150769 
z
" style="fill:#f48024;opacity:0.4;"/>
   </g>
   <g id="patch_99">
    <path clip-path="url(#p6210c11bc8)" d="M 361.502613 307.584 
L 364.24758 307.584 
L 364.24758 306.717538 
L 361.502613 306.717538 
z
" style="fill:#f48024;opacity:0.4;"/>
   </g>
   <g id="patch_100">
    <path clip-path="url(#p6210c11bc8)" d="M 364.24758 307.584 
L 366.992546 307.584 
L 366.992546 307.150769 
L 364.24758 307.150769 
z
" style="fill:#f48024;opacity:0.4;"/>
   </g>
   <g id="patch_101">
    <path clip-path="url(#p6210c11bc8)" d="M 366.992546 307.584 
L 369.737513 307.584 
L 369.737513 307.584 
L 366.992546 307.584 
z
" style="fill:#f48024;opacity:0.4;"/>
   </g>
   <g id="patch_102">
    <path clip-path="url(#p6210c11bc8)" d="M 369.737513 307.584 
L 372.48248 307.584 
L 372.48248 306.717538 
L 369.737513 306.717538 
z
" style="fill:#f48024;opacity:0.4;"/>
   </g>
   <g id="patch_103">
    <path clip-path="url(#p6210c11bc8)" d="M 98.271849 307.584 
L 101.032231 307.584 
L 101.032231 182.648678 
L 98.271849 182.648678 
z
" style="fill:#008000;opacity:0.4;"/>
   </g>
   <g id="patch_104">
    <path clip-path="url(#p6210c11bc8)" d="M 101.032231 307.584 
L 103.792613 307.584 
L 103.792613 198.588702 
L 101.032231 198.588702 
z
" style="fill:#008000;opacity:0.4;"/>
   </g>
   <g id="patch_105">
    <path clip-path="url(#p6210c11bc8)" d="M 103.792613 307.584 
L 106.552995 307.584 
L 106.552995 234.776864 
L 103.792613 234.776864 
z
" style="fill:#008000;opacity:0.4;"/>
   </g>
   <g id="patch_106">
    <path clip-path="url(#p6210c11bc8)" d="M 106.552995 307.584 
L 109.313377 307.584 
L 109.313377 117.165336 
L 106.552995 117.165336 
z
" style="fill:#008000;opacity:0.4;"/>
   </g>
   <g id="patch_107">
    <path clip-path="url(#p6210c11bc8)" d="M 109.313377 307.584 
L 112.073758 307.584 
L 112.073758 61.590659 
L 109.313377 61.590659 
z
" style="fill:#008000;opacity:0.4;"/>
   </g>
   <g id="patch_108">
    <path clip-path="url(#p6210c11bc8)" d="M 112.073758 307.584 
L 114.83414 307.584 
L 114.83414 140.859967 
L 112.073758 140.859967 
z
" style="fill:#008000;opacity:0.4;"/>
   </g>
   <g id="patch_109">
    <path clip-path="url(#p6210c11bc8)" d="M 114.83414 307.584 
L 117.594522 307.584 
L 117.594522 211.943857 
L 114.83414 211.943857 
z
" style="fill:#008000;opacity:0.4;"/>
   </g>
   <g id="patch_110">
    <path clip-path="url(#p6210c11bc8)" d="M 117.594522 307.584 
L 120.354904 307.584 
L 120.354904 247.270396 
L 117.594522 247.270396 
z
" style="fill:#008000;opacity:0.4;"/>
   </g>
   <g id="patch_111">
    <path clip-path="url(#p6210c11bc8)" d="M 120.354904 307.584 
L 123.115285 307.584 
L 123.115285 263.641231 
L 120.354904 263.641231 
z
" style="fill:#008000;opacity:0.4;"/>
   </g>
   <g id="patch_112">
    <path clip-path="url(#p6210c11bc8)" d="M 123.115285 307.584 
L 125.875667 307.584 
L 125.875667 275.703952 
L 123.115285 275.703952 
z
" style="fill:#008000;opacity:0.4;"/>
   </g>
   <g id="patch_113">
    <path clip-path="url(#p6210c11bc8)" d="M 125.875667 307.584 
L 128.636049 307.584 
L 128.636049 276.565575 
L 125.875667 276.565575 
z
" style="fill:#008000;opacity:0.4;"/>
   </g>
   <g id="patch_114">
    <path clip-path="url(#p6210c11bc8)" d="M 128.636049 307.584 
L 131.396431 307.584 
L 131.396431 281.735313 
L 128.636049 281.735313 
z
" style="fill:#008000;opacity:0.4;"/>
   </g>
   <g id="patch_115">
    <path clip-path="url(#p6210c11bc8)" d="M 131.396431 307.584 
L 134.156813 307.584 
L 134.156813 284.320181 
L 131.396431 284.320181 
z
" style="fill:#008000;opacity:0.4;"/>
   </g>
   <g id="patch_116">
    <path clip-path="url(#p6210c11bc8)" d="M 134.156813 307.584 
L 136.917194 307.584 
L 136.917194 290.782353 
L 134.156813 290.782353 
z
" style="fill:#008000;opacity:0.4;"/>
   </g>
   <g id="patch_117">
    <path clip-path="url(#p6210c11bc8)" d="M 136.917194 307.584 
L 139.677576 307.584 
L 139.677576 297.675337 
L 136.917194 297.675337 
z
" style="fill:#008000;opacity:0.4;"/>
   </g>
   <g id="patch_118">
    <path clip-path="url(#p6210c11bc8)" d="M 139.677576 307.584 
L 142.437958 307.584 
L 142.437958 296.813714 
L 139.677576 296.813714 
z
" style="fill:#008000;opacity:0.4;"/>
   </g>
   <g id="patch_119">
    <path clip-path="url(#p6210c11bc8)" d="M 142.437958 307.584 
L 145.19834 307.584 
L 145.19834 296.813714 
L 142.437958 296.813714 
z
" style="fill:#008000;opacity:0.4;"/>
   </g>
   <g id="patch_120">
    <path clip-path="url(#p6210c11bc8)" d="M 145.19834 307.584 
L 147.958722 307.584 
L 147.958722 295.952091 
L 145.19834 295.952091 
z
" style="fill:#008000;opacity:0.4;"/>
   </g>
   <g id="patch_121">
    <path clip-path="url(#p6210c11bc8)" d="M 147.958722 307.584 
L 150.719103 307.584 
L 150.719103 301.121828 
L 147.958722 301.121828 
z
" style="fill:#008000;opacity:0.4;"/>
   </g>
   <g id="patch_122">
    <path clip-path="url(#p6210c11bc8)" d="M 150.719103 307.584 
L 153.479485 307.584 
L 153.479485 296.382902 
L 150.719103 296.382902 
z
" style="fill:#008000;opacity:0.4;"/>
   </g>
   <g id="patch_123">
    <path clip-path="url(#p6210c11bc8)" d="M 153.479485 307.584 
L 156.239867 307.584 
L 156.239867 295.952091 
L 153.479485 295.952091 
z
" style="fill:#008000;opacity:0.4;"/>
   </g>
   <g id="patch_124">
    <path clip-path="url(#p6210c11bc8)" d="M 156.239867 307.584 
L 159.000249 307.584 
L 159.000249 298.106148 
L 156.239867 298.106148 
z
" style="fill:#008000;opacity:0.4;"/>
   </g>
   <g id="patch_125">
    <path clip-path="url(#p6210c11bc8)" d="M 159.000249 307.584 
L 161.760631 307.584 
L 161.760631 298.536959 
L 159.000249 298.536959 
z
" style="fill:#008000;opacity:0.4;"/>
   </g>
   <g id="patch_126">
    <path clip-path="url(#p6210c11bc8)" d="M 161.760631 307.584 
L 164.521012 307.584 
L 164.521012 299.398582 
L 161.760631 299.398582 
z
" style="fill:#008000;opacity:0.4;"/>
   </g>
   <g id="patch_127">
    <path clip-path="url(#p6210c11bc8)" d="M 164.521012 307.584 
L 167.281394 307.584 
L 167.281394 302.414263 
L 164.521012 302.414263 
z
" style="fill:#008000;opacity:0.4;"/>
   </g>
   <g id="patch_128">
    <path clip-path="url(#p6210c11bc8)" d="M 167.281394 307.584 
L 170.041776 307.584 
L 170.041776 302.414263 
L 167.281394 302.414263 
z
" style="fill:#008000;opacity:0.4;"/>
   </g>
   <g id="patch_129">
    <path clip-path="url(#p6210c11bc8)" d="M 170.041776 307.584 
L 172.802158 307.584 
L 172.802158 303.275885 
L 170.041776 303.275885 
z
" style="fill:#008000;opacity:0.4;"/>
   </g>
   <g id="patch_130">
    <path clip-path="url(#p6210c11bc8)" d="M 172.802158 307.584 
L 175.56254 307.584 
L 175.56254 301.55264 
L 172.802158 301.55264 
z
" style="fill:#008000;opacity:0.4;"/>
   </g>
   <g id="patch_131">
    <path clip-path="url(#p6210c11bc8)" d="M 175.56254 307.584 
L 178.322921 307.584 
L 178.322921 302.845074 
L 175.56254 302.845074 
z
" style="fill:#008000;opacity:0.4;"/>
   </g>
   <g id="patch_132">
    <path clip-path="url(#p6210c11bc8)" d="M 178.322921 307.584 
L 181.083303 307.584 
L 181.083303 303.275885 
L 178.322921 303.275885 
z
" style="fill:#008000;opacity:0.4;"/>
   </g>
   <g id="patch_133">
    <path clip-path="url(#p6210c11bc8)" d="M 181.083303 307.584 
L 183.843685 307.584 
L 183.843685 304.137508 
L 181.083303 304.137508 
z
" style="fill:#008000;opacity:0.4;"/>
   </g>
   <g id="patch_134">
    <path clip-path="url(#p6210c11bc8)" d="M 183.843685 307.584 
L 186.604067 307.584 
L 186.604067 301.983451 
L 183.843685 301.983451 
z
" style="fill:#008000;opacity:0.4;"/>
   </g>
   <g id="patch_135">
    <path clip-path="url(#p6210c11bc8)" d="M 186.604067 307.584 
L 189.364448 307.584 
L 189.364448 302.845074 
L 186.604067 302.845074 
z
" style="fill:#008000;opacity:0.4;"/>
   </g>
   <g id="patch_136">
    <path clip-path="url(#p6210c11bc8)" d="M 189.364448 307.584 
L 192.12483 307.584 
L 192.12483 303.706697 
L 189.364448 303.706697 
z
" style="fill:#008000;opacity:0.4;"/>
   </g>
   <g id="patch_137">
    <path clip-path="url(#p6210c11bc8)" d="M 192.12483 307.584 
L 194.885212 307.584 
L 194.885212 304.56832 
L 192.12483 304.56832 
z
" style="fill:#008000;opacity:0.4;"/>
   </g>
   <g id="patch_138">
    <path clip-path="url(#p6210c11bc8)" d="M 194.885212 307.584 
L 197.645594 307.584 
L 197.645594 304.137508 
L 194.885212 304.137508 
z
" style="fill:#008000;opacity:0.4;"/>
   </g>
   <g id="patch_139">
    <path clip-path="url(#p6210c11bc8)" d="M 197.645594 307.584 
L 200.405976 307.584 
L 200.405976 302.414263 
L 197.645594 302.414263 
z
" style="fill:#008000;opacity:0.4;"/>
   </g>
   <g id="patch_140">
    <path clip-path="url(#p6210c11bc8)" d="M 200.405976 307.584 
L 203.166357 307.584 
L 203.166357 303.706697 
L 200.405976 303.706697 
z
" style="fill:#008000;opacity:0.4;"/>
   </g>
   <g id="patch_141">
    <path clip-path="url(#p6210c11bc8)" d="M 203.166357 307.584 
L 205.926739 307.584 
L 205.926739 303.275885 
L 203.166357 303.275885 
z
" style="fill:#008000;opacity:0.4;"/>
   </g>
   <g id="patch_142">
    <path clip-path="url(#p6210c11bc8)" d="M 205.926739 307.584 
L 208.687121 307.584 
L 208.687121 301.983451 
L 205.926739 301.983451 
z
" style="fill:#008000;opacity:0.4;"/>
   </g>
   <g id="patch_143">
    <path clip-path="url(#p6210c11bc8)" d="M 208.687121 307.584 
L 211.447503 307.584 
L 211.447503 303.706697 
L 208.687121 303.706697 
z
" style="fill:#008000;opacity:0.4;"/>
   </g>
   <g id="patch_144">
    <path clip-path="url(#p6210c11bc8)" d="M 211.447503 307.584 
L 214.207885 307.584 
L 214.207885 301.121828 
L 211.447503 301.121828 
z
" style="fill:#008000;opacity:0.4;"/>
   </g>
   <g id="patch_145">
    <path clip-path="url(#p6210c11bc8)" d="M 214.207885 307.584 
L 216.968266 307.584 
L 216.968266 301.983451 
L 214.207885 301.983451 
z
" style="fill:#008000;opacity:0.4;"/>
   </g>
   <g id="patch_146">
    <path clip-path="url(#p6210c11bc8)" d="M 216.968266 307.584 
L 219.728648 307.584 
L 219.728648 302.414263 
L 216.968266 302.414263 
z
" style="fill:#008000;opacity:0.4;"/>
   </g>
   <g id="patch_147">
    <path clip-path="url(#p6210c11bc8)" d="M 219.728648 307.584 
L 222.48903 307.584 
L 222.48903 304.56832 
L 219.728648 304.56832 
z
" style="fill:#008000;opacity:0.4;"/>
   </g>
   <g id="patch_148">
    <path clip-path="url(#p6210c11bc8)" d="M 222.48903 307.584 
L 225.249412 307.584 
L 225.249412 303.706697 
L 222.48903 303.706697 
z
" style="fill:#008000;opacity:0.4;"/>
   </g>
   <g id="patch_149">
    <path clip-path="url(#p6210c11bc8)" d="M 225.249412 307.584 
L 228.009794 307.584 
L 228.009794 303.706697 
L 225.249412 303.706697 
z
" style="fill:#008000;opacity:0.4;"/>
   </g>
   <g id="patch_150">
    <path clip-path="url(#p6210c11bc8)" d="M 228.009794 307.584 
L 230.770175 307.584 
L 230.770175 303.275885 
L 228.009794 303.275885 
z
" style="fill:#008000;opacity:0.4;"/>
   </g>
   <g id="patch_151">
    <path clip-path="url(#p6210c11bc8)" d="M 230.770175 307.584 
L 233.530557 307.584 
L 233.530557 304.999131 
L 230.770175 304.999131 
z
" style="fill:#008000;opacity:0.4;"/>
   </g>
   <g id="patch_152">
    <path clip-path="url(#p6210c11bc8)" d="M 233.530557 307.584 
L 236.290939 307.584 
L 236.290939 304.999131 
L 233.530557 304.999131 
z
" style="fill:#008000;opacity:0.4;"/>
   </g>
   <g id="patch_153">
    <path clip-path="url(#p6210c11bc8)" d="M 236.290939 307.584 
L 239.051321 307.584 
L 239.051321 304.999131 
L 236.290939 304.999131 
z
" style="fill:#008000;opacity:0.4;"/>
   </g>
   <g id="patch_154">
    <path clip-path="url(#p6210c11bc8)" d="M 239.051321 307.584 
L 241.811703 307.584 
L 241.811703 304.137508 
L 239.051321 304.137508 
z
" style="fill:#008000;opacity:0.4;"/>
   </g>
   <g id="patch_155">
    <path clip-path="url(#p6210c11bc8)" d="M 241.811703 307.584 
L 244.572084 307.584 
L 244.572084 305.860754 
L 241.811703 305.860754 
z
" style="fill:#008000;opacity:0.4;"/>
   </g>
   <g id="patch_156">
    <path clip-path="url(#p6210c11bc8)" d="M 244.572084 307.584 
L 247.332466 307.584 
L 247.332466 305.429943 
L 244.572084 305.429943 
z
" style="fill:#008000;opacity:0.4;"/>
   </g>
   <g id="patch_157">
    <path clip-path="url(#p6210c11bc8)" d="M 247.332466 307.584 
L 250.092848 307.584 
L 250.092848 305.429943 
L 247.332466 305.429943 
z
" style="fill:#008000;opacity:0.4;"/>
   </g>
   <g id="patch_158">
    <path clip-path="url(#p6210c11bc8)" d="M 250.092848 307.584 
L 252.85323 307.584 
L 252.85323 304.999131 
L 250.092848 304.999131 
z
" style="fill:#008000;opacity:0.4;"/>
   </g>
   <g id="patch_159">
    <path clip-path="url(#p6210c11bc8)" d="M 252.85323 307.584 
L 255.613612 307.584 
L 255.613612 305.860754 
L 252.85323 305.860754 
z
" style="fill:#008000;opacity:0.4;"/>
   </g>
   <g id="patch_160">
    <path clip-path="url(#p6210c11bc8)" d="M 255.613612 307.584 
L 258.373993 307.584 
L 258.373993 304.137508 
L 255.613612 304.137508 
z
" style="fill:#008000;opacity:0.4;"/>
   </g>
   <g id="patch_161">
    <path clip-path="url(#p6210c11bc8)" d="M 258.373993 307.584 
L 261.134375 307.584 
L 261.134375 304.56832 
L 258.373993 304.56832 
z
" style="fill:#008000;opacity:0.4;"/>
   </g>
   <g id="patch_162">
    <path clip-path="url(#p6210c11bc8)" d="M 261.134375 307.584 
L 263.894757 307.584 
L 263.894757 304.56832 
L 261.134375 304.56832 
z
" style="fill:#008000;opacity:0.4;"/>
   </g>
   <g id="patch_163">
    <path clip-path="url(#p6210c11bc8)" d="M 263.894757 307.584 
L 266.655139 307.584 
L 266.655139 302.414263 
L 263.894757 302.414263 
z
" style="fill:#008000;opacity:0.4;"/>
   </g>
   <g id="patch_164">
    <path clip-path="url(#p6210c11bc8)" d="M 266.655139 307.584 
L 269.41552 307.584 
L 269.41552 305.860754 
L 266.655139 305.860754 
z
" style="fill:#008000;opacity:0.4;"/>
   </g>
   <g id="patch_165">
    <path clip-path="url(#p6210c11bc8)" d="M 269.41552 307.584 
L 272.175902 307.584 
L 272.175902 306.722377 
L 269.41552 306.722377 
z
" style="fill:#008000;opacity:0.4;"/>
   </g>
   <g id="patch_166">
    <path clip-path="url(#p6210c11bc8)" d="M 272.175902 307.584 
L 274.936284 307.584 
L 274.936284 306.722377 
L 272.175902 306.722377 
z
" style="fill:#008000;opacity:0.4;"/>
   </g>
   <g id="patch_167">
    <path clip-path="url(#p6210c11bc8)" d="M 274.936284 307.584 
L 277.696666 307.584 
L 277.696666 304.56832 
L 274.936284 304.56832 
z
" style="fill:#008000;opacity:0.4;"/>
   </g>
   <g id="patch_168">
    <path clip-path="url(#p6210c11bc8)" d="M 277.696666 307.584 
L 280.457048 307.584 
L 280.457048 306.291566 
L 277.696666 306.291566 
z
" style="fill:#008000;opacity:0.4;"/>
   </g>
   <g id="patch_169">
    <path clip-path="url(#p6210c11bc8)" d="M 280.457048 307.584 
L 283.217429 307.584 
L 283.217429 305.429943 
L 280.457048 305.429943 
z
" style="fill:#008000;opacity:0.4;"/>
   </g>
   <g id="patch_170">
    <path clip-path="url(#p6210c11bc8)" d="M 283.217429 307.584 
L 285.977811 307.584 
L 285.977811 307.153189 
L 283.217429 307.153189 
z
" style="fill:#008000;opacity:0.4;"/>
   </g>
   <g id="patch_171">
    <path clip-path="url(#p6210c11bc8)" d="M 285.977811 307.584 
L 288.738193 307.584 
L 288.738193 306.291566 
L 285.977811 306.291566 
z
" style="fill:#008000;opacity:0.4;"/>
   </g>
   <g id="patch_172">
    <path clip-path="url(#p6210c11bc8)" d="M 288.738193 307.584 
L 291.498575 307.584 
L 291.498575 306.291566 
L 288.738193 306.291566 
z
" style="fill:#008000;opacity:0.4;"/>
   </g>
   <g id="patch_173">
    <path clip-path="url(#p6210c11bc8)" d="M 291.498575 307.584 
L 294.258957 307.584 
L 294.258957 306.722377 
L 291.498575 306.722377 
z
" style="fill:#008000;opacity:0.4;"/>
   </g>
   <g id="patch_174">
    <path clip-path="url(#p6210c11bc8)" d="M 294.258957 307.584 
L 297.019338 307.584 
L 297.019338 305.860754 
L 294.258957 305.860754 
z
" style="fill:#008000;opacity:0.4;"/>
   </g>
   <g id="patch_175">
    <path clip-path="url(#p6210c11bc8)" d="M 297.019338 307.584 
L 299.77972 307.584 
L 299.77972 304.999131 
L 297.019338 304.999131 
z
" style="fill:#008000;opacity:0.4;"/>
   </g>
   <g id="patch_176">
    <path clip-path="url(#p6210c11bc8)" d="M 299.77972 307.584 
L 302.540102 307.584 
L 302.540102 306.722377 
L 299.77972 306.722377 
z
" style="fill:#008000;opacity:0.4;"/>
   </g>
   <g id="patch_177">
    <path clip-path="url(#p6210c11bc8)" d="M 302.540102 307.584 
L 305.300484 307.584 
L 305.300484 307.584 
L 302.540102 307.584 
z
" style="fill:#008000;opacity:0.4;"/>
   </g>
   <g id="patch_178">
    <path clip-path="url(#p6210c11bc8)" d="M 305.300484 307.584 
L 308.060866 307.584 
L 308.060866 307.584 
L 305.300484 307.584 
z
" style="fill:#008000;opacity:0.4;"/>
   </g>
   <g id="patch_179">
    <path clip-path="url(#p6210c11bc8)" d="M 308.060866 307.584 
L 310.821247 307.584 
L 310.821247 306.291566 
L 308.060866 306.291566 
z
" style="fill:#008000;opacity:0.4;"/>
   </g>
   <g id="patch_180">
    <path clip-path="url(#p6210c11bc8)" d="M 310.821247 307.584 
L 313.581629 307.584 
L 313.581629 306.722377 
L 310.821247 306.722377 
z
" style="fill:#008000;opacity:0.4;"/>
   </g>
   <g id="patch_181">
    <path clip-path="url(#p6210c11bc8)" d="M 313.581629 307.584 
L 316.342011 307.584 
L 316.342011 307.584 
L 313.581629 307.584 
z
" style="fill:#008000;opacity:0.4;"/>
   </g>
   <g id="patch_182">
    <path clip-path="url(#p6210c11bc8)" d="M 316.342011 307.584 
L 319.102393 307.584 
L 319.102393 307.153189 
L 316.342011 307.153189 
z
" style="fill:#008000;opacity:0.4;"/>
   </g>
   <g id="patch_183">
    <path clip-path="url(#p6210c11bc8)" d="M 319.102393 307.584 
L 321.862775 307.584 
L 321.862775 305.860754 
L 319.102393 305.860754 
z
" style="fill:#008000;opacity:0.4;"/>
   </g>
   <g id="patch_184">
    <path clip-path="url(#p6210c11bc8)" d="M 321.862775 307.584 
L 324.623156 307.584 
L 324.623156 307.584 
L 321.862775 307.584 
z
" style="fill:#008000;opacity:0.4;"/>
   </g>
   <g id="patch_185">
    <path clip-path="url(#p6210c11bc8)" d="M 324.623156 307.584 
L 327.383538 307.584 
L 327.383538 306.291566 
L 324.623156 306.291566 
z
" style="fill:#008000;opacity:0.4;"/>
   </g>
   <g id="patch_186">
    <path clip-path="url(#p6210c11bc8)" d="M 327.383538 307.584 
L 330.14392 307.584 
L 330.14392 306.722377 
L 327.383538 306.722377 
z
" style="fill:#008000;opacity:0.4;"/>
   </g>
   <g id="patch_187">
    <path clip-path="url(#p6210c11bc8)" d="M 330.14392 307.584 
L 332.904302 307.584 
L 332.904302 306.291566 
L 330.14392 306.291566 
z
" style="fill:#008000;opacity:0.4;"/>
   </g>
   <g id="patch_188">
    <path clip-path="url(#p6210c11bc8)" d="M 332.904302 307.584 
L 335.664683 307.584 
L 335.664683 307.584 
L 332.904302 307.584 
z
" style="fill:#008000;opacity:0.4;"/>
   </g>
   <g id="patch_189">
    <path clip-path="url(#p6210c11bc8)" d="M 335.664683 307.584 
L 338.425065 307.584 
L 338.425065 307.153189 
L 335.664683 307.153189 
z
" style="fill:#008000;opacity:0.4;"/>
   </g>
   <g id="patch_190">
    <path clip-path="url(#p6210c11bc8)" d="M 338.425065 307.584 
L 341.185447 307.584 
L 341.185447 307.153189 
L 338.425065 307.153189 
z
" style="fill:#008000;opacity:0.4;"/>
   </g>
   <g id="patch_191">
    <path clip-path="url(#p6210c11bc8)" d="M 341.185447 307.584 
L 343.945829 307.584 
L 343.945829 307.153189 
L 341.185447 307.153189 
z
" style="fill:#008000;opacity:0.4;"/>
   </g>
   <g id="patch_192">
    <path clip-path="url(#p6210c11bc8)" d="M 343.945829 307.584 
L 346.706211 307.584 
L 346.706211 307.153189 
L 343.945829 307.153189 
z
" style="fill:#008000;opacity:0.4;"/>
   </g>
   <g id="patch_193">
    <path clip-path="url(#p6210c11bc8)" d="M 346.706211 307.584 
L 349.466592 307.584 
L 349.466592 307.584 
L 346.706211 307.584 
z
" style="fill:#008000;opacity:0.4;"/>
   </g>
   <g id="patch_194">
    <path clip-path="url(#p6210c11bc8)" d="M 349.466592 307.584 
L 352.226974 307.584 
L 352.226974 307.584 
L 349.466592 307.584 
z
" style="fill:#008000;opacity:0.4;"/>
   </g>
   <g id="patch_195">
    <path clip-path="url(#p6210c11bc8)" d="M 352.226974 307.584 
L 354.987356 307.584 
L 354.987356 307.584 
L 352.226974 307.584 
z
" style="fill:#008000;opacity:0.4;"/>
   </g>
   <g id="patch_196">
    <path clip-path="url(#p6210c11bc8)" d="M 354.987356 307.584 
L 357.747738 307.584 
L 357.747738 307.153189 
L 354.987356 307.153189 
z
" style="fill:#008000;opacity:0.4;"/>
   </g>
   <g id="patch_197">
    <path clip-path="url(#p6210c11bc8)" d="M 357.747738 307.584 
L 360.50812 307.584 
L 360.50812 307.153189 
L 357.747738 307.153189 
z
" style="fill:#008000;opacity:0.4;"/>
   </g>
   <g id="patch_198">
    <path clip-path="url(#p6210c11bc8)" d="M 360.50812 307.584 
L 363.268501 307.584 
L 363.268501 307.153189 
L 360.50812 307.153189 
z
" style="fill:#008000;opacity:0.4;"/>
   </g>
   <g id="patch_199">
    <path clip-path="url(#p6210c11bc8)" d="M 363.268501 307.584 
L 366.028883 307.584 
L 366.028883 307.153189 
L 363.268501 307.153189 
z
" style="fill:#008000;opacity:0.4;"/>
   </g>
   <g id="patch_200">
    <path clip-path="url(#p6210c11bc8)" d="M 366.028883 307.584 
L 368.789265 307.584 
L 368.789265 307.153189 
L 366.028883 307.153189 
z
" style="fill:#008000;opacity:0.4;"/>
   </g>
   <g id="patch_201">
    <path clip-path="url(#p6210c11bc8)" d="M 368.789265 307.584 
L 371.549647 307.584 
L 371.549647 307.153189 
L 368.789265 307.153189 
z
" style="fill:#008000;opacity:0.4;"/>
   </g>
   <g id="patch_202">
    <path clip-path="url(#p6210c11bc8)" d="M 371.549647 307.584 
L 374.310029 307.584 
L 374.310029 307.153189 
L 371.549647 307.153189 
z
" style="fill:#008000;opacity:0.4;"/>
   </g>
   <g id="matplotlib.axis_1">
    <g id="xtick_1">
     <g id="line2d_1">
      <defs>
       <path d="M 0 0 
L 0 3.5 
" id="mf46b85057e" style="stroke:#000000;stroke-width:0.8;"/>
      </defs>
      <g>
       <use style="stroke:#000000;stroke-width:0.8;" x="89.471327" xlink:href="#mf46b85057e" y="307.584"/>
      </g>
     </g>
     <g id="text_1">
      <!-- 0 -->
      <defs>
       <path d="M 31.78125 66.40625 
Q 24.171875 66.40625 20.328125 58.90625 
Q 16.5 51.421875 16.5 36.375 
Q 16.5 21.390625 20.328125 13.890625 
Q 24.171875 6.390625 31.78125 6.390625 
Q 39.453125 6.390625 43.28125 13.890625 
Q 47.125 21.390625 47.125 36.375 
Q 47.125 51.421875 43.28125 58.90625 
Q 39.453125 66.40625 31.78125 66.40625 
z
M 31.78125 74.21875 
Q 44.046875 74.21875 50.515625 64.515625 
Q 56.984375 54.828125 56.984375 36.375 
Q 56.984375 17.96875 50.515625 8.265625 
Q 44.046875 -1.421875 31.78125 -1.421875 
Q 19.53125 -1.421875 13.0625 8.265625 
Q 6.59375 17.96875 6.59375 36.375 
Q 6.59375 54.828125 13.0625 64.515625 
Q 19.53125 74.21875 31.78125 74.21875 
z
" id="DejaVuSans-48"/>
      </defs>
      <g transform="translate(86.290077 322.182437)scale(0.1 -0.1)">
       <use xlink:href="#DejaVuSans-48"/>
      </g>
     </g>
    </g>
    <g id="xtick_2">
     <g id="line2d_2">
      <g>
       <use style="stroke:#000000;stroke-width:0.8;" x="141.913236" xlink:href="#mf46b85057e" y="307.584"/>
      </g>
     </g>
     <g id="text_2">
      <!-- 200000 -->
      <defs>
       <path d="M 19.1875 8.296875 
L 53.609375 8.296875 
L 53.609375 0 
L 7.328125 0 
L 7.328125 8.296875 
Q 12.9375 14.109375 22.625 23.890625 
Q 32.328125 33.6875 34.8125 36.53125 
Q 39.546875 41.84375 41.421875 45.53125 
Q 43.3125 49.21875 43.3125 52.78125 
Q 43.3125 58.59375 39.234375 62.25 
Q 35.15625 65.921875 28.609375 65.921875 
Q 23.96875 65.921875 18.8125 64.3125 
Q 13.671875 62.703125 7.8125 59.421875 
L 7.8125 69.390625 
Q 13.765625 71.78125 18.9375 73 
Q 24.125 74.21875 28.421875 74.21875 
Q 39.75 74.21875 46.484375 68.546875 
Q 53.21875 62.890625 53.21875 53.421875 
Q 53.21875 48.921875 51.53125 44.890625 
Q 49.859375 40.875 45.40625 35.40625 
Q 44.1875 33.984375 37.640625 27.21875 
Q 31.109375 20.453125 19.1875 8.296875 
z
" id="DejaVuSans-50"/>
      </defs>
      <g transform="translate(122.825736 322.182437)scale(0.1 -0.1)">
       <use xlink:href="#DejaVuSans-50"/>
       <use x="63.623047" xlink:href="#DejaVuSans-48"/>
       <use x="127.246094" xlink:href="#DejaVuSans-48"/>
       <use x="190.869141" xlink:href="#DejaVuSans-48"/>
       <use x="254.492188" xlink:href="#DejaVuSans-48"/>
       <use x="318.115234" xlink:href="#DejaVuSans-48"/>
      </g>
     </g>
    </g>
    <g id="xtick_3">
     <g id="line2d_3">
      <g>
       <use style="stroke:#000000;stroke-width:0.8;" x="194.355145" xlink:href="#mf46b85057e" y="307.584"/>
      </g>
     </g>
     <g id="text_3">
      <!-- 400000 -->
      <defs>
       <path d="M 37.796875 64.3125 
L 12.890625 25.390625 
L 37.796875 25.390625 
z
M 35.203125 72.90625 
L 47.609375 72.90625 
L 47.609375 25.390625 
L 58.015625 25.390625 
L 58.015625 17.1875 
L 47.609375 17.1875 
L 47.609375 0 
L 37.796875 0 
L 37.796875 17.1875 
L 4.890625 17.1875 
L 4.890625 26.703125 
z
" id="DejaVuSans-52"/>
      </defs>
      <g transform="translate(175.267645 322.182437)scale(0.1 -0.1)">
       <use xlink:href="#DejaVuSans-52"/>
       <use x="63.623047" xlink:href="#DejaVuSans-48"/>
       <use x="127.246094" xlink:href="#DejaVuSans-48"/>
       <use x="190.869141" xlink:href="#DejaVuSans-48"/>
       <use x="254.492188" xlink:href="#DejaVuSans-48"/>
       <use x="318.115234" xlink:href="#DejaVuSans-48"/>
      </g>
     </g>
    </g>
    <g id="xtick_4">
     <g id="line2d_4">
      <g>
       <use style="stroke:#000000;stroke-width:0.8;" x="246.797054" xlink:href="#mf46b85057e" y="307.584"/>
      </g>
     </g>
     <g id="text_4">
      <!-- 600000 -->
      <defs>
       <path d="M 33.015625 40.375 
Q 26.375 40.375 22.484375 35.828125 
Q 18.609375 31.296875 18.609375 23.390625 
Q 18.609375 15.53125 22.484375 10.953125 
Q 26.375 6.390625 33.015625 6.390625 
Q 39.65625 6.390625 43.53125 10.953125 
Q 47.40625 15.53125 47.40625 23.390625 
Q 47.40625 31.296875 43.53125 35.828125 
Q 39.65625 40.375 33.015625 40.375 
z
M 52.59375 71.296875 
L 52.59375 62.3125 
Q 48.875 64.0625 45.09375 64.984375 
Q 41.3125 65.921875 37.59375 65.921875 
Q 27.828125 65.921875 22.671875 59.328125 
Q 17.53125 52.734375 16.796875 39.40625 
Q 19.671875 43.65625 24.015625 45.921875 
Q 28.375 48.1875 33.59375 48.1875 
Q 44.578125 48.1875 50.953125 41.515625 
Q 57.328125 34.859375 57.328125 23.390625 
Q 57.328125 12.15625 50.6875 5.359375 
Q 44.046875 -1.421875 33.015625 -1.421875 
Q 20.359375 -1.421875 13.671875 8.265625 
Q 6.984375 17.96875 6.984375 36.375 
Q 6.984375 53.65625 15.1875 63.9375 
Q 23.390625 74.21875 37.203125 74.21875 
Q 40.921875 74.21875 44.703125 73.484375 
Q 48.484375 72.75 52.59375 71.296875 
z
" id="DejaVuSans-54"/>
      </defs>
      <g transform="translate(227.709554 322.182437)scale(0.1 -0.1)">
       <use xlink:href="#DejaVuSans-54"/>
       <use x="63.623047" xlink:href="#DejaVuSans-48"/>
       <use x="127.246094" xlink:href="#DejaVuSans-48"/>
       <use x="190.869141" xlink:href="#DejaVuSans-48"/>
       <use x="254.492188" xlink:href="#DejaVuSans-48"/>
       <use x="318.115234" xlink:href="#DejaVuSans-48"/>
      </g>
     </g>
    </g>
    <g id="xtick_5">
     <g id="line2d_5">
      <g>
       <use style="stroke:#000000;stroke-width:0.8;" x="299.238963" xlink:href="#mf46b85057e" y="307.584"/>
      </g>
     </g>
     <g id="text_5">
      <!-- 800000 -->
      <defs>
       <path d="M 31.78125 34.625 
Q 24.75 34.625 20.71875 30.859375 
Q 16.703125 27.09375 16.703125 20.515625 
Q 16.703125 13.921875 20.71875 10.15625 
Q 24.75 6.390625 31.78125 6.390625 
Q 38.8125 6.390625 42.859375 10.171875 
Q 46.921875 13.96875 46.921875 20.515625 
Q 46.921875 27.09375 42.890625 30.859375 
Q 38.875 34.625 31.78125 34.625 
z
M 21.921875 38.8125 
Q 15.578125 40.375 12.03125 44.71875 
Q 8.5 49.078125 8.5 55.328125 
Q 8.5 64.0625 14.71875 69.140625 
Q 20.953125 74.21875 31.78125 74.21875 
Q 42.671875 74.21875 48.875 69.140625 
Q 55.078125 64.0625 55.078125 55.328125 
Q 55.078125 49.078125 51.53125 44.71875 
Q 48 40.375 41.703125 38.8125 
Q 48.828125 37.15625 52.796875 32.3125 
Q 56.78125 27.484375 56.78125 20.515625 
Q 56.78125 9.90625 50.3125 4.234375 
Q 43.84375 -1.421875 31.78125 -1.421875 
Q 19.734375 -1.421875 13.25 4.234375 
Q 6.78125 9.90625 6.78125 20.515625 
Q 6.78125 27.484375 10.78125 32.3125 
Q 14.796875 37.15625 21.921875 38.8125 
z
M 18.3125 54.390625 
Q 18.3125 48.734375 21.84375 45.5625 
Q 25.390625 42.390625 31.78125 42.390625 
Q 38.140625 42.390625 41.71875 45.5625 
Q 45.3125 48.734375 45.3125 54.390625 
Q 45.3125 60.0625 41.71875 63.234375 
Q 38.140625 66.40625 31.78125 66.40625 
Q 25.390625 66.40625 21.84375 63.234375 
Q 18.3125 60.0625 18.3125 54.390625 
z
" id="DejaVuSans-56"/>
      </defs>
      <g transform="translate(280.151463 322.182437)scale(0.1 -0.1)">
       <use xlink:href="#DejaVuSans-56"/>
       <use x="63.623047" xlink:href="#DejaVuSans-48"/>
       <use x="127.246094" xlink:href="#DejaVuSans-48"/>
       <use x="190.869141" xlink:href="#DejaVuSans-48"/>
       <use x="254.492188" xlink:href="#DejaVuSans-48"/>
       <use x="318.115234" xlink:href="#DejaVuSans-48"/>
      </g>
     </g>
    </g>
    <g id="xtick_6">
     <g id="line2d_6">
      <g>
       <use style="stroke:#000000;stroke-width:0.8;" x="351.680872" xlink:href="#mf46b85057e" y="307.584"/>
      </g>
     </g>
     <g id="text_6">
      <!-- 1000000 -->
      <defs>
       <path d="M 12.40625 8.296875 
L 28.515625 8.296875 
L 28.515625 63.921875 
L 10.984375 60.40625 
L 10.984375 69.390625 
L 28.421875 72.90625 
L 38.28125 72.90625 
L 38.28125 8.296875 
L 54.390625 8.296875 
L 54.390625 0 
L 12.40625 0 
z
" id="DejaVuSans-49"/>
      </defs>
      <g transform="translate(329.412122 322.182437)scale(0.1 -0.1)">
       <use xlink:href="#DejaVuSans-49"/>
       <use x="63.623047" xlink:href="#DejaVuSans-48"/>
       <use x="127.246094" xlink:href="#DejaVuSans-48"/>
       <use x="190.869141" xlink:href="#DejaVuSans-48"/>
       <use x="254.492188" xlink:href="#DejaVuSans-48"/>
       <use x="318.115234" xlink:href="#DejaVuSans-48"/>
       <use x="381.738281" xlink:href="#DejaVuSans-48"/>
      </g>
     </g>
    </g>
    <g id="xtick_7">
     <g id="line2d_7">
      <g>
       <use style="stroke:#000000;stroke-width:0.8;" x="404.122782" xlink:href="#mf46b85057e" y="307.584"/>
      </g>
     </g>
     <g id="text_7">
      <!-- 1200000 -->
      <g transform="translate(381.854032 322.182437)scale(0.1 -0.1)">
       <use xlink:href="#DejaVuSans-49"/>
       <use x="63.623047" xlink:href="#DejaVuSans-50"/>
       <use x="127.246094" xlink:href="#DejaVuSans-48"/>
       <use x="190.869141" xlink:href="#DejaVuSans-48"/>
       <use x="254.492188" xlink:href="#DejaVuSans-48"/>
       <use x="318.115234" xlink:href="#DejaVuSans-48"/>
       <use x="381.738281" xlink:href="#DejaVuSans-48"/>
      </g>
     </g>
    </g>
   </g>
   <g id="matplotlib.axis_2">
    <g id="ytick_1">
     <g id="line2d_8">
      <defs>
       <path d="M 0 0 
L -3.5 0 
" id="ma421fcd21d" style="stroke:#000000;stroke-width:0.8;"/>
      </defs>
      <g>
       <use style="stroke:#000000;stroke-width:0.8;" x="57.6" xlink:href="#ma421fcd21d" y="307.584"/>
      </g>
     </g>
     <g id="text_8">
      <!-- 0.000000 -->
      <defs>
       <path d="M 10.6875 12.40625 
L 21 12.40625 
L 21 0 
L 10.6875 0 
z
" id="DejaVuSans-46"/>
      </defs>
      <g transform="translate(2.884375 311.383219)scale(0.1 -0.1)">
       <use xlink:href="#DejaVuSans-48"/>
       <use x="63.623047" xlink:href="#DejaVuSans-46"/>
       <use x="95.410156" xlink:href="#DejaVuSans-48"/>
       <use x="159.033203" xlink:href="#DejaVuSans-48"/>
       <use x="222.65625" xlink:href="#DejaVuSans-48"/>
       <use x="286.279297" xlink:href="#DejaVuSans-48"/>
       <use x="349.902344" xlink:href="#DejaVuSans-48"/>
       <use x="413.525391" xlink:href="#DejaVuSans-48"/>
      </g>
     </g>
    </g>
    <g id="ytick_2">
     <g id="line2d_9">
      <g>
       <use style="stroke:#000000;stroke-width:0.8;" x="57.6" xlink:href="#ma421fcd21d" y="275.700703"/>
      </g>
     </g>
     <g id="text_9">
      <!-- 0.000002 -->
      <g transform="translate(2.884375 279.499922)scale(0.1 -0.1)">
       <use xlink:href="#DejaVuSans-48"/>
       <use x="63.623047" xlink:href="#DejaVuSans-46"/>
       <use x="95.410156" xlink:href="#DejaVuSans-48"/>
       <use x="159.033203" xlink:href="#DejaVuSans-48"/>
       <use x="222.65625" xlink:href="#DejaVuSans-48"/>
       <use x="286.279297" xlink:href="#DejaVuSans-48"/>
       <use x="349.902344" xlink:href="#DejaVuSans-48"/>
       <use x="413.525391" xlink:href="#DejaVuSans-50"/>
      </g>
     </g>
    </g>
    <g id="ytick_3">
     <g id="line2d_10">
      <g>
       <use style="stroke:#000000;stroke-width:0.8;" x="57.6" xlink:href="#ma421fcd21d" y="243.817406"/>
      </g>
     </g>
     <g id="text_10">
      <!-- 0.000004 -->
      <g transform="translate(2.884375 247.616625)scale(0.1 -0.1)">
       <use xlink:href="#DejaVuSans-48"/>
       <use x="63.623047" xlink:href="#DejaVuSans-46"/>
       <use x="95.410156" xlink:href="#DejaVuSans-48"/>
       <use x="159.033203" xlink:href="#DejaVuSans-48"/>
       <use x="222.65625" xlink:href="#DejaVuSans-48"/>
       <use x="286.279297" xlink:href="#DejaVuSans-48"/>
       <use x="349.902344" xlink:href="#DejaVuSans-48"/>
       <use x="413.525391" xlink:href="#DejaVuSans-52"/>
      </g>
     </g>
    </g>
    <g id="ytick_4">
     <g id="line2d_11">
      <g>
       <use style="stroke:#000000;stroke-width:0.8;" x="57.6" xlink:href="#ma421fcd21d" y="211.934109"/>
      </g>
     </g>
     <g id="text_11">
      <!-- 0.000006 -->
      <g transform="translate(2.884375 215.733328)scale(0.1 -0.1)">
       <use xlink:href="#DejaVuSans-48"/>
       <use x="63.623047" xlink:href="#DejaVuSans-46"/>
       <use x="95.410156" xlink:href="#DejaVuSans-48"/>
       <use x="159.033203" xlink:href="#DejaVuSans-48"/>
       <use x="222.65625" xlink:href="#DejaVuSans-48"/>
       <use x="286.279297" xlink:href="#DejaVuSans-48"/>
       <use x="349.902344" xlink:href="#DejaVuSans-48"/>
       <use x="413.525391" xlink:href="#DejaVuSans-54"/>
      </g>
     </g>
    </g>
    <g id="ytick_5">
     <g id="line2d_12">
      <g>
       <use style="stroke:#000000;stroke-width:0.8;" x="57.6" xlink:href="#ma421fcd21d" y="180.050812"/>
      </g>
     </g>
     <g id="text_12">
      <!-- 0.000008 -->
      <g transform="translate(2.884375 183.850031)scale(0.1 -0.1)">
       <use xlink:href="#DejaVuSans-48"/>
       <use x="63.623047" xlink:href="#DejaVuSans-46"/>
       <use x="95.410156" xlink:href="#DejaVuSans-48"/>
       <use x="159.033203" xlink:href="#DejaVuSans-48"/>
       <use x="222.65625" xlink:href="#DejaVuSans-48"/>
       <use x="286.279297" xlink:href="#DejaVuSans-48"/>
       <use x="349.902344" xlink:href="#DejaVuSans-48"/>
       <use x="413.525391" xlink:href="#DejaVuSans-56"/>
      </g>
     </g>
    </g>
    <g id="ytick_6">
     <g id="line2d_13">
      <g>
       <use style="stroke:#000000;stroke-width:0.8;" x="57.6" xlink:href="#ma421fcd21d" y="148.167515"/>
      </g>
     </g>
     <g id="text_13">
      <!-- 0.000010 -->
      <g transform="translate(2.884375 151.966734)scale(0.1 -0.1)">
       <use xlink:href="#DejaVuSans-48"/>
       <use x="63.623047" xlink:href="#DejaVuSans-46"/>
       <use x="95.410156" xlink:href="#DejaVuSans-48"/>
       <use x="159.033203" xlink:href="#DejaVuSans-48"/>
       <use x="222.65625" xlink:href="#DejaVuSans-48"/>
       <use x="286.279297" xlink:href="#DejaVuSans-48"/>
       <use x="349.902344" xlink:href="#DejaVuSans-49"/>
       <use x="413.525391" xlink:href="#DejaVuSans-48"/>
      </g>
     </g>
    </g>
    <g id="ytick_7">
     <g id="line2d_14">
      <g>
       <use style="stroke:#000000;stroke-width:0.8;" x="57.6" xlink:href="#ma421fcd21d" y="116.284218"/>
      </g>
     </g>
     <g id="text_14">
      <!-- 0.000012 -->
      <g transform="translate(2.884375 120.083437)scale(0.1 -0.1)">
       <use xlink:href="#DejaVuSans-48"/>
       <use x="63.623047" xlink:href="#DejaVuSans-46"/>
       <use x="95.410156" xlink:href="#DejaVuSans-48"/>
       <use x="159.033203" xlink:href="#DejaVuSans-48"/>
       <use x="222.65625" xlink:href="#DejaVuSans-48"/>
       <use x="286.279297" xlink:href="#DejaVuSans-48"/>
       <use x="349.902344" xlink:href="#DejaVuSans-49"/>
       <use x="413.525391" xlink:href="#DejaVuSans-50"/>
      </g>
     </g>
    </g>
    <g id="ytick_8">
     <g id="line2d_15">
      <g>
       <use style="stroke:#000000;stroke-width:0.8;" x="57.6" xlink:href="#ma421fcd21d" y="84.400921"/>
      </g>
     </g>
     <g id="text_15">
      <!-- 0.000014 -->
      <g transform="translate(2.884375 88.20014)scale(0.1 -0.1)">
       <use xlink:href="#DejaVuSans-48"/>
       <use x="63.623047" xlink:href="#DejaVuSans-46"/>
       <use x="95.410156" xlink:href="#DejaVuSans-48"/>
       <use x="159.033203" xlink:href="#DejaVuSans-48"/>
       <use x="222.65625" xlink:href="#DejaVuSans-48"/>
       <use x="286.279297" xlink:href="#DejaVuSans-48"/>
       <use x="349.902344" xlink:href="#DejaVuSans-49"/>
       <use x="413.525391" xlink:href="#DejaVuSans-52"/>
      </g>
     </g>
    </g>
    <g id="ytick_9">
     <g id="line2d_16">
      <g>
       <use style="stroke:#000000;stroke-width:0.8;" x="57.6" xlink:href="#ma421fcd21d" y="52.517624"/>
      </g>
     </g>
     <g id="text_16">
      <!-- 0.000016 -->
      <g transform="translate(2.884375 56.316843)scale(0.1 -0.1)">
       <use xlink:href="#DejaVuSans-48"/>
       <use x="63.623047" xlink:href="#DejaVuSans-46"/>
       <use x="95.410156" xlink:href="#DejaVuSans-48"/>
       <use x="159.033203" xlink:href="#DejaVuSans-48"/>
       <use x="222.65625" xlink:href="#DejaVuSans-48"/>
       <use x="286.279297" xlink:href="#DejaVuSans-48"/>
       <use x="349.902344" xlink:href="#DejaVuSans-49"/>
       <use x="413.525391" xlink:href="#DejaVuSans-54"/>
      </g>
     </g>
    </g>
   </g>
   <g id="line2d_17">
    <path clip-path="url(#p6210c11bc8)" d="M 73.832727 307.451254 
L 77.093362 307.10668 
L 80.353996 306.105475 
L 83.614631 303.622036 
L 86.875265 298.349711 
L 90.1359 288.739717 
L 93.396535 273.658913 
L 96.657169 253.279998 
L 99.917804 229.743138 
L 103.178438 207.117879 
L 106.439073 190.426631 
L 109.699707 183.872523 
L 112.960342 188.970495 
L 116.220976 203.71732 
L 119.481611 223.543529 
L 122.742246 243.520658 
L 126.00288 260.330759 
L 129.263515 272.874601 
L 132.524149 281.616097 
L 135.784784 287.553297 
L 139.045418 291.553775 
L 142.306053 294.198061 
L 145.566687 295.887311 
L 148.827322 296.960325 
L 152.087957 297.724106 
L 155.348591 298.41908 
L 158.609226 299.171935 
L 161.86986 299.982642 
L 165.130495 300.76782 
L 168.391129 301.438608 
L 171.651764 301.958577 
L 174.912398 302.346381 
L 178.173033 302.641714 
L 181.433668 302.877528 
L 184.694302 303.07365 
L 187.954937 303.235843 
L 191.215571 303.3521 
L 194.476206 303.398424 
L 197.73684 303.358884 
L 200.997475 303.242978 
L 204.258109 303.085382 
L 207.518744 302.934777 
L 210.779379 302.844058 
L 214.040013 302.859777 
L 217.300648 303.004743 
L 220.561282 303.2637 
L 223.821917 303.589421 
L 227.082551 303.928264 
L 230.343186 304.243349 
L 233.60382 304.517594 
L 236.864455 304.740879 
L 240.12509 304.899369 
L 243.385724 304.978953 
L 246.646359 304.978986 
L 249.906993 304.922447 
L 253.167628 304.852664 
L 256.428262 304.818884 
L 259.688897 304.859444 
L 262.949531 304.988417 
L 266.210166 305.189483 
L 269.4708 305.422751 
L 272.731435 305.645527 
L 275.99207 305.834388 
L 279.252704 305.990708 
L 282.513339 306.126519 
L 285.773973 306.247078 
L 289.034608 306.347573 
L 292.295242 306.423767 
L 295.555877 306.481291 
L 298.816511 306.53205 
L 302.077146 306.582565 
L 305.337781 306.628328 
L 308.598415 306.660637 
L 311.85905 306.678358 
L 315.119684 306.692634 
L 318.380319 306.720596 
L 321.640953 306.774283 
L 324.901588 306.853924 
L 328.162222 306.949512 
L 331.422857 307.047321 
L 334.683492 307.135593 
L 337.944126 307.206898 
L 341.204761 307.258184 
L 344.465395 307.289459 
L 347.72603 307.301648 
L 350.986664 307.295597 
L 354.247299 307.274228 
L 357.507933 307.245953 
L 360.768568 307.22451 
L 364.029203 307.223567 
L 367.289837 307.250058 
L 370.550472 307.301325 
L 373.811106 307.367174 
L 377.071741 307.434548 
L 380.332375 307.492294 
L 383.59301 307.534381 
L 386.853644 307.560533 
L 390.114279 307.57437 
L 393.374914 307.58059 
L 396.635548 307.582962 
" style="fill:none;stroke:#f48024;stroke-linecap:square;stroke-width:1.5;"/>
   </g>
   <g id="line2d_18">
    <path clip-path="url(#p6210c11bc8)" d="M 74.094605 307.440034 
L 77.371299 307.068864 
L 80.647992 305.997814 
L 83.924686 303.362612 
L 87.20138 297.819344 
L 90.478073 287.817356 
L 93.754767 272.292509 
L 97.03146 251.562403 
L 100.308154 227.946428 
L 103.584848 205.654115 
L 106.861541 189.730005 
L 110.138235 184.229135 
L 113.414929 190.370618 
L 116.691622 205.834907 
L 119.968316 225.884341 
L 123.245009 245.648288 
L 126.521703 262.017768 
L 129.798397 274.104326 
L 133.07509 282.484965 
L 136.351784 288.170326 
L 139.628477 291.99247 
L 142.905171 294.49691 
L 146.181865 296.069239 
L 149.458558 297.047442 
L 152.735252 297.740822 
L 156.011945 298.389968 
L 159.288639 299.123024 
L 162.565333 299.945076 
L 165.842026 300.773033 
L 169.11872 301.501213 
L 172.395414 302.062834 
L 175.672107 302.45605 
L 178.948801 302.72841 
L 182.225494 302.938886 
L 185.502188 303.123399 
L 188.778882 303.280766 
L 192.055575 303.382764 
L 195.332269 303.399452 
L 198.608962 303.322317 
L 201.885656 303.172052 
L 205.16235 302.992841 
L 208.439043 302.842322 
L 211.715737 302.778633 
L 214.99243 302.841234 
L 218.269124 303.032928 
L 221.545818 303.319328 
L 224.822511 303.649554 
L 228.099205 303.981104 
L 231.375899 304.289694 
L 234.652592 304.562884 
L 237.929286 304.79038 
L 241.205979 304.960279 
L 244.482673 305.060739 
L 247.759367 305.084711 
L 251.03606 305.038136 
L 254.312754 304.949502 
L 257.589447 304.871325 
L 260.866141 304.863674 
L 264.142835 304.963458 
L 267.419528 305.161033 
L 270.696222 305.406211 
L 273.972915 305.64139 
L 277.249609 305.833503 
L 280.526303 305.979748 
L 283.802996 306.091224 
L 287.07969 306.178322 
L 290.356384 306.250949 
L 293.633077 306.324104 
L 296.909771 306.414345 
L 300.186464 306.527602 
L 303.463158 306.651877 
L 306.739852 306.763546 
L 310.016545 306.841477 
L 313.293239 306.877352 
L 316.569932 306.877582 
L 319.846626 306.859652 
L 323.12332 306.845807 
L 326.400013 306.855099 
L 329.676707 306.896275 
L 332.9534 306.965601 
L 336.230094 307.050935 
L 339.506788 307.138357 
L 342.783481 307.216022 
L 346.060175 307.27423 
L 349.336869 307.305722 
L 352.613562 307.309076 
L 355.890256 307.292103 
L 359.166949 307.270063 
L 362.443643 307.258741 
L 365.720337 307.267824 
L 368.99703 307.298899 
L 372.273724 307.347262 
L 375.550417 307.404566 
L 378.827111 307.461234 
L 382.103805 307.509074 
L 385.380498 307.543652 
L 388.657192 307.565003 
L 391.933886 307.576235 
L 395.210579 307.58126 
L 398.487273 307.583169 
" style="fill:none;stroke:#008000;stroke-linecap:square;stroke-width:1.5;"/>
   </g>
   <g id="patch_203">
    <path d="M 57.6 307.584 
L 57.6 41.472 
" style="fill:none;stroke:#000000;stroke-linecap:square;stroke-linejoin:miter;stroke-width:0.8;"/>
   </g>
   <g id="patch_204">
    <path d="M 414.72 307.584 
L 414.72 41.472 
" style="fill:none;stroke:#000000;stroke-linecap:square;stroke-linejoin:miter;stroke-width:0.8;"/>
   </g>
   <g id="patch_205">
    <path d="M 57.6 307.584 
L 414.72 307.584 
" style="fill:none;stroke:#000000;stroke-linecap:square;stroke-linejoin:miter;stroke-width:0.8;"/>
   </g>
   <g id="patch_206">
    <path d="M 57.6 41.472 
L 414.72 41.472 
" style="fill:none;stroke:#000000;stroke-linecap:square;stroke-linejoin:miter;stroke-width:0.8;"/>
   </g>
   <g id="text_17">
    <!-- {'mae': 7841.332, 'smape': 0.042, 'jsd': 0.057} -->
    <defs>
     <path d="M 51.125 -9.28125 
L 51.125 -16.3125 
L 48.09375 -16.3125 
Q 35.9375 -16.3125 31.8125 -12.6875 
Q 27.6875 -9.078125 27.6875 1.703125 
L 27.6875 13.375 
Q 27.6875 20.75 25.046875 23.578125 
Q 22.40625 26.421875 15.484375 26.421875 
L 12.5 26.421875 
L 12.5 33.40625 
L 15.484375 33.40625 
Q 22.46875 33.40625 25.078125 36.203125 
Q 27.6875 39.015625 27.6875 46.296875 
L 27.6875 58.015625 
Q 27.6875 68.796875 31.8125 72.390625 
Q 35.9375 75.984375 48.09375 75.984375 
L 51.125 75.984375 
L 51.125 69 
L 47.796875 69 
Q 40.921875 69 38.8125 66.84375 
Q 36.71875 64.703125 36.71875 57.8125 
L 36.71875 45.703125 
Q 36.71875 38.03125 34.5 34.5625 
Q 32.28125 31.109375 26.90625 29.890625 
Q 32.328125 28.5625 34.515625 25.09375 
Q 36.71875 21.625 36.71875 14.015625 
L 36.71875 1.90625 
Q 36.71875 -4.984375 38.8125 -7.125 
Q 40.921875 -9.28125 47.796875 -9.28125 
z
" id="DejaVuSans-123"/>
     <path d="M 17.921875 72.90625 
L 17.921875 45.796875 
L 9.625 45.796875 
L 9.625 72.90625 
z
" id="DejaVuSans-39"/>
     <path d="M 52 44.1875 
Q 55.375 50.25 60.0625 53.125 
Q 64.75 56 71.09375 56 
Q 79.640625 56 84.28125 50.015625 
Q 88.921875 44.046875 88.921875 33.015625 
L 88.921875 0 
L 79.890625 0 
L 79.890625 32.71875 
Q 79.890625 40.578125 77.09375 44.375 
Q 74.3125 48.1875 68.609375 48.1875 
Q 61.625 48.1875 57.5625 43.546875 
Q 53.515625 38.921875 53.515625 30.90625 
L 53.515625 0 
L 44.484375 0 
L 44.484375 32.71875 
Q 44.484375 40.625 41.703125 44.40625 
Q 38.921875 48.1875 33.109375 48.1875 
Q 26.21875 48.1875 22.15625 43.53125 
Q 18.109375 38.875 18.109375 30.90625 
L 18.109375 0 
L 9.078125 0 
L 9.078125 54.6875 
L 18.109375 54.6875 
L 18.109375 46.1875 
Q 21.1875 51.21875 25.484375 53.609375 
Q 29.78125 56 35.6875 56 
Q 41.65625 56 45.828125 52.96875 
Q 50 49.953125 52 44.1875 
z
" id="DejaVuSans-109"/>
     <path d="M 34.28125 27.484375 
Q 23.390625 27.484375 19.1875 25 
Q 14.984375 22.515625 14.984375 16.5 
Q 14.984375 11.71875 18.140625 8.90625 
Q 21.296875 6.109375 26.703125 6.109375 
Q 34.1875 6.109375 38.703125 11.40625 
Q 43.21875 16.703125 43.21875 25.484375 
L 43.21875 27.484375 
z
M 52.203125 31.203125 
L 52.203125 0 
L 43.21875 0 
L 43.21875 8.296875 
Q 40.140625 3.328125 35.546875 0.953125 
Q 30.953125 -1.421875 24.3125 -1.421875 
Q 15.921875 -1.421875 10.953125 3.296875 
Q 6 8.015625 6 15.921875 
Q 6 25.140625 12.171875 29.828125 
Q 18.359375 34.515625 30.609375 34.515625 
L 43.21875 34.515625 
L 43.21875 35.40625 
Q 43.21875 41.609375 39.140625 45 
Q 35.0625 48.390625 27.6875 48.390625 
Q 23 48.390625 18.546875 47.265625 
Q 14.109375 46.140625 10.015625 43.890625 
L 10.015625 52.203125 
Q 14.9375 54.109375 19.578125 55.046875 
Q 24.21875 56 28.609375 56 
Q 40.484375 56 46.34375 49.84375 
Q 52.203125 43.703125 52.203125 31.203125 
z
" id="DejaVuSans-97"/>
     <path d="M 56.203125 29.59375 
L 56.203125 25.203125 
L 14.890625 25.203125 
Q 15.484375 15.921875 20.484375 11.0625 
Q 25.484375 6.203125 34.421875 6.203125 
Q 39.59375 6.203125 44.453125 7.46875 
Q 49.3125 8.734375 54.109375 11.28125 
L 54.109375 2.78125 
Q 49.265625 0.734375 44.1875 -0.34375 
Q 39.109375 -1.421875 33.890625 -1.421875 
Q 20.796875 -1.421875 13.15625 6.1875 
Q 5.515625 13.8125 5.515625 26.8125 
Q 5.515625 40.234375 12.765625 48.109375 
Q 20.015625 56 32.328125 56 
Q 43.359375 56 49.78125 48.890625 
Q 56.203125 41.796875 56.203125 29.59375 
z
M 47.21875 32.234375 
Q 47.125 39.59375 43.09375 43.984375 
Q 39.0625 48.390625 32.421875 48.390625 
Q 24.90625 48.390625 20.390625 44.140625 
Q 15.875 39.890625 15.1875 32.171875 
z
" id="DejaVuSans-101"/>
     <path d="M 11.71875 12.40625 
L 22.015625 12.40625 
L 22.015625 0 
L 11.71875 0 
z
M 11.71875 51.703125 
L 22.015625 51.703125 
L 22.015625 39.3125 
L 11.71875 39.3125 
z
" id="DejaVuSans-58"/>
     <path id="DejaVuSans-32"/>
     <path d="M 8.203125 72.90625 
L 55.078125 72.90625 
L 55.078125 68.703125 
L 28.609375 0 
L 18.3125 0 
L 43.21875 64.59375 
L 8.203125 64.59375 
z
" id="DejaVuSans-55"/>
     <path d="M 40.578125 39.3125 
Q 47.65625 37.796875 51.625 33 
Q 55.609375 28.21875 55.609375 21.1875 
Q 55.609375 10.40625 48.1875 4.484375 
Q 40.765625 -1.421875 27.09375 -1.421875 
Q 22.515625 -1.421875 17.65625 -0.515625 
Q 12.796875 0.390625 7.625 2.203125 
L 7.625 11.71875 
Q 11.71875 9.328125 16.59375 8.109375 
Q 21.484375 6.890625 26.8125 6.890625 
Q 36.078125 6.890625 40.9375 10.546875 
Q 45.796875 14.203125 45.796875 21.1875 
Q 45.796875 27.640625 41.28125 31.265625 
Q 36.765625 34.90625 28.71875 34.90625 
L 20.21875 34.90625 
L 20.21875 43.015625 
L 29.109375 43.015625 
Q 36.375 43.015625 40.234375 45.921875 
Q 44.09375 48.828125 44.09375 54.296875 
Q 44.09375 59.90625 40.109375 62.90625 
Q 36.140625 65.921875 28.71875 65.921875 
Q 24.65625 65.921875 20.015625 65.03125 
Q 15.375 64.15625 9.8125 62.3125 
L 9.8125 71.09375 
Q 15.4375 72.65625 20.34375 73.4375 
Q 25.25 74.21875 29.59375 74.21875 
Q 40.828125 74.21875 47.359375 69.109375 
Q 53.90625 64.015625 53.90625 55.328125 
Q 53.90625 49.265625 50.4375 45.09375 
Q 46.96875 40.921875 40.578125 39.3125 
z
" id="DejaVuSans-51"/>
     <path d="M 11.71875 12.40625 
L 22.015625 12.40625 
L 22.015625 4 
L 14.015625 -11.625 
L 7.71875 -11.625 
L 11.71875 4 
z
" id="DejaVuSans-44"/>
     <path d="M 44.28125 53.078125 
L 44.28125 44.578125 
Q 40.484375 46.53125 36.375 47.5 
Q 32.28125 48.484375 27.875 48.484375 
Q 21.1875 48.484375 17.84375 46.4375 
Q 14.5 44.390625 14.5 40.28125 
Q 14.5 37.15625 16.890625 35.375 
Q 19.28125 33.59375 26.515625 31.984375 
L 29.59375 31.296875 
Q 39.15625 29.25 43.1875 25.515625 
Q 47.21875 21.78125 47.21875 15.09375 
Q 47.21875 7.46875 41.1875 3.015625 
Q 35.15625 -1.421875 24.609375 -1.421875 
Q 20.21875 -1.421875 15.453125 -0.5625 
Q 10.6875 0.296875 5.421875 2 
L 5.421875 11.28125 
Q 10.40625 8.6875 15.234375 7.390625 
Q 20.0625 6.109375 24.8125 6.109375 
Q 31.15625 6.109375 34.5625 8.28125 
Q 37.984375 10.453125 37.984375 14.40625 
Q 37.984375 18.0625 35.515625 20.015625 
Q 33.0625 21.96875 24.703125 23.78125 
L 21.578125 24.515625 
Q 13.234375 26.265625 9.515625 29.90625 
Q 5.8125 33.546875 5.8125 39.890625 
Q 5.8125 47.609375 11.28125 51.796875 
Q 16.75 56 26.8125 56 
Q 31.78125 56 36.171875 55.265625 
Q 40.578125 54.546875 44.28125 53.078125 
z
" id="DejaVuSans-115"/>
     <path d="M 18.109375 8.203125 
L 18.109375 -20.796875 
L 9.078125 -20.796875 
L 9.078125 54.6875 
L 18.109375 54.6875 
L 18.109375 46.390625 
Q 20.953125 51.265625 25.265625 53.625 
Q 29.59375 56 35.59375 56 
Q 45.5625 56 51.78125 48.09375 
Q 58.015625 40.1875 58.015625 27.296875 
Q 58.015625 14.40625 51.78125 6.484375 
Q 45.5625 -1.421875 35.59375 -1.421875 
Q 29.59375 -1.421875 25.265625 0.953125 
Q 20.953125 3.328125 18.109375 8.203125 
z
M 48.6875 27.296875 
Q 48.6875 37.203125 44.609375 42.84375 
Q 40.53125 48.484375 33.40625 48.484375 
Q 26.265625 48.484375 22.1875 42.84375 
Q 18.109375 37.203125 18.109375 27.296875 
Q 18.109375 17.390625 22.1875 11.75 
Q 26.265625 6.109375 33.40625 6.109375 
Q 40.53125 6.109375 44.609375 11.75 
Q 48.6875 17.390625 48.6875 27.296875 
z
" id="DejaVuSans-112"/>
     <path d="M 9.421875 54.6875 
L 18.40625 54.6875 
L 18.40625 -0.984375 
Q 18.40625 -11.421875 14.421875 -16.109375 
Q 10.453125 -20.796875 1.609375 -20.796875 
L -1.8125 -20.796875 
L -1.8125 -13.1875 
L 0.59375 -13.1875 
Q 5.71875 -13.1875 7.5625 -10.8125 
Q 9.421875 -8.453125 9.421875 -0.984375 
z
M 9.421875 75.984375 
L 18.40625 75.984375 
L 18.40625 64.59375 
L 9.421875 64.59375 
z
" id="DejaVuSans-106"/>
     <path d="M 45.40625 46.390625 
L 45.40625 75.984375 
L 54.390625 75.984375 
L 54.390625 0 
L 45.40625 0 
L 45.40625 8.203125 
Q 42.578125 3.328125 38.25 0.953125 
Q 33.9375 -1.421875 27.875 -1.421875 
Q 17.96875 -1.421875 11.734375 6.484375 
Q 5.515625 14.40625 5.515625 27.296875 
Q 5.515625 40.1875 11.734375 48.09375 
Q 17.96875 56 27.875 56 
Q 33.9375 56 38.25 53.625 
Q 42.578125 51.265625 45.40625 46.390625 
z
M 14.796875 27.296875 
Q 14.796875 17.390625 18.875 11.75 
Q 22.953125 6.109375 30.078125 6.109375 
Q 37.203125 6.109375 41.296875 11.75 
Q 45.40625 17.390625 45.40625 27.296875 
Q 45.40625 37.203125 41.296875 42.84375 
Q 37.203125 48.484375 30.078125 48.484375 
Q 22.953125 48.484375 18.875 42.84375 
Q 14.796875 37.203125 14.796875 27.296875 
z
" id="DejaVuSans-100"/>
     <path d="M 10.796875 72.90625 
L 49.515625 72.90625 
L 49.515625 64.59375 
L 19.828125 64.59375 
L 19.828125 46.734375 
Q 21.96875 47.46875 24.109375 47.828125 
Q 26.265625 48.1875 28.421875 48.1875 
Q 40.625 48.1875 47.75 41.5 
Q 54.890625 34.8125 54.890625 23.390625 
Q 54.890625 11.625 47.5625 5.09375 
Q 40.234375 -1.421875 26.90625 -1.421875 
Q 22.3125 -1.421875 17.546875 -0.640625 
Q 12.796875 0.140625 7.71875 1.703125 
L 7.71875 11.625 
Q 12.109375 9.234375 16.796875 8.0625 
Q 21.484375 6.890625 26.703125 6.890625 
Q 35.15625 6.890625 40.078125 11.328125 
Q 45.015625 15.765625 45.015625 23.390625 
Q 45.015625 31 40.078125 35.4375 
Q 35.15625 39.890625 26.703125 39.890625 
Q 22.75 39.890625 18.8125 39.015625 
Q 14.890625 38.140625 10.796875 36.28125 
z
" id="DejaVuSans-53"/>
     <path d="M 12.5 -9.28125 
L 15.921875 -9.28125 
Q 22.75 -9.28125 24.828125 -7.171875 
Q 26.90625 -5.078125 26.90625 1.90625 
L 26.90625 14.015625 
Q 26.90625 21.625 29.09375 25.09375 
Q 31.296875 28.5625 36.71875 29.890625 
Q 31.296875 31.109375 29.09375 34.5625 
Q 26.90625 38.03125 26.90625 45.703125 
L 26.90625 57.8125 
Q 26.90625 64.75 24.828125 66.875 
Q 22.75 69 15.921875 69 
L 12.5 69 
L 12.5 75.984375 
L 15.578125 75.984375 
Q 27.734375 75.984375 31.8125 72.390625 
Q 35.890625 68.796875 35.890625 58.015625 
L 35.890625 46.296875 
Q 35.890625 39.015625 38.515625 36.203125 
Q 41.15625 33.40625 48.09375 33.40625 
L 51.125 33.40625 
L 51.125 26.421875 
L 48.09375 26.421875 
Q 41.15625 26.421875 38.515625 23.578125 
Q 35.890625 20.75 35.890625 13.375 
L 35.890625 1.703125 
Q 35.890625 -9.078125 31.8125 -12.6875 
Q 27.734375 -16.3125 15.578125 -16.3125 
L 12.5 -16.3125 
z
" id="DejaVuSans-125"/>
    </defs>
    <g transform="translate(94.273125 35.472)scale(0.12 -0.12)">
     <use xlink:href="#DejaVuSans-123"/>
     <use x="63.623047" xlink:href="#DejaVuSans-39"/>
     <use x="91.113281" xlink:href="#DejaVuSans-109"/>
     <use x="188.525391" xlink:href="#DejaVuSans-97"/>
     <use x="249.804688" xlink:href="#DejaVuSans-101"/>
     <use x="311.328125" xlink:href="#DejaVuSans-39"/>
     <use x="338.818359" xlink:href="#DejaVuSans-58"/>
     <use x="372.509766" xlink:href="#DejaVuSans-32"/>
     <use x="404.296875" xlink:href="#DejaVuSans-55"/>
     <use x="467.919922" xlink:href="#DejaVuSans-56"/>
     <use x="531.542969" xlink:href="#DejaVuSans-52"/>
     <use x="595.166016" xlink:href="#DejaVuSans-49"/>
     <use x="658.789062" xlink:href="#DejaVuSans-46"/>
     <use x="690.576172" xlink:href="#DejaVuSans-51"/>
     <use x="754.199219" xlink:href="#DejaVuSans-51"/>
     <use x="817.822266" xlink:href="#DejaVuSans-50"/>
     <use x="881.445312" xlink:href="#DejaVuSans-44"/>
     <use x="913.232422" xlink:href="#DejaVuSans-32"/>
     <use x="945.019531" xlink:href="#DejaVuSans-39"/>
     <use x="972.509766" xlink:href="#DejaVuSans-115"/>
     <use x="1024.609375" xlink:href="#DejaVuSans-109"/>
     <use x="1122.021484" xlink:href="#DejaVuSans-97"/>
     <use x="1183.300781" xlink:href="#DejaVuSans-112"/>
     <use x="1246.777344" xlink:href="#DejaVuSans-101"/>
     <use x="1308.300781" xlink:href="#DejaVuSans-39"/>
     <use x="1335.791016" xlink:href="#DejaVuSans-58"/>
     <use x="1369.482422" xlink:href="#DejaVuSans-32"/>
     <use x="1401.269531" xlink:href="#DejaVuSans-48"/>
     <use x="1464.892578" xlink:href="#DejaVuSans-46"/>
     <use x="1496.679688" xlink:href="#DejaVuSans-48"/>
     <use x="1560.302734" xlink:href="#DejaVuSans-52"/>
     <use x="1623.925781" xlink:href="#DejaVuSans-50"/>
     <use x="1687.548828" xlink:href="#DejaVuSans-44"/>
     <use x="1719.335938" xlink:href="#DejaVuSans-32"/>
     <use x="1751.123047" xlink:href="#DejaVuSans-39"/>
     <use x="1778.613281" xlink:href="#DejaVuSans-106"/>
     <use x="1806.396484" xlink:href="#DejaVuSans-115"/>
     <use x="1858.496094" xlink:href="#DejaVuSans-100"/>
     <use x="1921.972656" xlink:href="#DejaVuSans-39"/>
     <use x="1949.462891" xlink:href="#DejaVuSans-58"/>
     <use x="1983.154297" xlink:href="#DejaVuSans-32"/>
     <use x="2014.941406" xlink:href="#DejaVuSans-48"/>
     <use x="2078.564453" xlink:href="#DejaVuSans-46"/>
     <use x="2110.351562" xlink:href="#DejaVuSans-48"/>
     <use x="2173.974609" xlink:href="#DejaVuSans-53"/>
     <use x="2237.597656" xlink:href="#DejaVuSans-55"/>
     <use x="2301.220703" xlink:href="#DejaVuSans-125"/>
    </g>
   </g>
   <g id="legend_1">
    <g id="patch_207">
     <path d="M 340.565313 78.82825 
L 407.72 78.82825 
Q 409.72 78.82825 409.72 76.82825 
L 409.72 48.472 
Q 409.72 46.472 407.72 46.472 
L 340.565313 46.472 
Q 338.565313 46.472 338.565313 48.472 
L 338.565313 76.82825 
Q 338.565313 78.82825 340.565313 78.82825 
z
" style="fill:#ffffff;opacity:0.8;stroke:#cccccc;stroke-linejoin:miter;"/>
    </g>
    <g id="patch_208">
     <path d="M 342.565313 58.070437 
L 362.565313 58.070437 
L 362.565313 51.070437 
L 342.565313 51.070437 
z
" style="fill:#f48024;opacity:0.4;"/>
    </g>
    <g id="text_18">
     <!-- actual -->
     <defs>
      <path d="M 48.78125 52.59375 
L 48.78125 44.1875 
Q 44.96875 46.296875 41.140625 47.34375 
Q 37.3125 48.390625 33.40625 48.390625 
Q 24.65625 48.390625 19.8125 42.84375 
Q 14.984375 37.3125 14.984375 27.296875 
Q 14.984375 17.28125 19.8125 11.734375 
Q 24.65625 6.203125 33.40625 6.203125 
Q 37.3125 6.203125 41.140625 7.25 
Q 44.96875 8.296875 48.78125 10.40625 
L 48.78125 2.09375 
Q 45.015625 0.34375 40.984375 -0.53125 
Q 36.96875 -1.421875 32.421875 -1.421875 
Q 20.0625 -1.421875 12.78125 6.34375 
Q 5.515625 14.109375 5.515625 27.296875 
Q 5.515625 40.671875 12.859375 48.328125 
Q 20.21875 56 33.015625 56 
Q 37.15625 56 41.109375 55.140625 
Q 45.0625 54.296875 48.78125 52.59375 
z
" id="DejaVuSans-99"/>
      <path d="M 18.3125 70.21875 
L 18.3125 54.6875 
L 36.8125 54.6875 
L 36.8125 47.703125 
L 18.3125 47.703125 
L 18.3125 18.015625 
Q 18.3125 11.328125 20.140625 9.421875 
Q 21.96875 7.515625 27.59375 7.515625 
L 36.8125 7.515625 
L 36.8125 0 
L 27.59375 0 
Q 17.1875 0 13.234375 3.875 
Q 9.28125 7.765625 9.28125 18.015625 
L 9.28125 47.703125 
L 2.6875 47.703125 
L 2.6875 54.6875 
L 9.28125 54.6875 
L 9.28125 70.21875 
z
" id="DejaVuSans-116"/>
      <path d="M 8.5 21.578125 
L 8.5 54.6875 
L 17.484375 54.6875 
L 17.484375 21.921875 
Q 17.484375 14.15625 20.5 10.265625 
Q 23.53125 6.390625 29.59375 6.390625 
Q 36.859375 6.390625 41.078125 11.03125 
Q 45.3125 15.671875 45.3125 23.6875 
L 45.3125 54.6875 
L 54.296875 54.6875 
L 54.296875 0 
L 45.3125 0 
L 45.3125 8.40625 
Q 42.046875 3.421875 37.71875 1 
Q 33.40625 -1.421875 27.6875 -1.421875 
Q 18.265625 -1.421875 13.375 4.4375 
Q 8.5 10.296875 8.5 21.578125 
z
M 31.109375 56 
z
" id="DejaVuSans-117"/>
      <path d="M 9.421875 75.984375 
L 18.40625 75.984375 
L 18.40625 0 
L 9.421875 0 
z
" id="DejaVuSans-108"/>
     </defs>
     <g transform="translate(370.565313 58.070437)scale(0.1 -0.1)">
      <use xlink:href="#DejaVuSans-97"/>
      <use x="61.279297" xlink:href="#DejaVuSans-99"/>
      <use x="116.259766" xlink:href="#DejaVuSans-116"/>
      <use x="155.46875" xlink:href="#DejaVuSans-117"/>
      <use x="218.847656" xlink:href="#DejaVuSans-97"/>
      <use x="280.126953" xlink:href="#DejaVuSans-108"/>
     </g>
    </g>
    <g id="patch_209">
     <path d="M 342.565313 72.748562 
L 362.565313 72.748562 
L 362.565313 65.748562 
L 342.565313 65.748562 
z
" style="fill:#008000;opacity:0.4;"/>
    </g>
    <g id="text_19">
     <!-- predict -->
     <defs>
      <path d="M 41.109375 46.296875 
Q 39.59375 47.171875 37.8125 47.578125 
Q 36.03125 48 33.890625 48 
Q 26.265625 48 22.1875 43.046875 
Q 18.109375 38.09375 18.109375 28.8125 
L 18.109375 0 
L 9.078125 0 
L 9.078125 54.6875 
L 18.109375 54.6875 
L 18.109375 46.1875 
Q 20.953125 51.171875 25.484375 53.578125 
Q 30.03125 56 36.53125 56 
Q 37.453125 56 38.578125 55.875 
Q 39.703125 55.765625 41.0625 55.515625 
z
" id="DejaVuSans-114"/>
      <path d="M 9.421875 54.6875 
L 18.40625 54.6875 
L 18.40625 0 
L 9.421875 0 
z
M 9.421875 75.984375 
L 18.40625 75.984375 
L 18.40625 64.59375 
L 9.421875 64.59375 
z
" id="DejaVuSans-105"/>
     </defs>
     <g transform="translate(370.565313 72.748562)scale(0.1 -0.1)">
      <use xlink:href="#DejaVuSans-112"/>
      <use x="63.476562" xlink:href="#DejaVuSans-114"/>
      <use x="104.558594" xlink:href="#DejaVuSans-101"/>
      <use x="166.082031" xlink:href="#DejaVuSans-100"/>
      <use x="229.558594" xlink:href="#DejaVuSans-105"/>
      <use x="257.341797" xlink:href="#DejaVuSans-99"/>
      <use x="312.322266" xlink:href="#DejaVuSans-116"/>
     </g>
    </g>
   </g>
  </g>
 </g>
 <defs>
  <clipPath id="p6210c11bc8">
   <rect height="266.112" width="357.12" x="57.6" y="41.472"/>
  </clipPath>
 </defs>
</svg>
