<?xml version="1.0" encoding="utf-8" standalone="no"?>
<!DOCTYPE svg PUBLIC "-//W3C//DTD SVG 1.1//EN"
  "http://www.w3.org/Graphics/SVG/1.1/DTD/svg11.dtd">
<!-- Created with matplotlib (https://matplotlib.org/) -->
<svg height="345.6pt" version="1.1" viewBox="0 0 460.8 345.6" width="460.8pt" xmlns="http://www.w3.org/2000/svg" xmlns:xlink="http://www.w3.org/1999/xlink">
 <defs>
  <style type="text/css">
*{stroke-linecap:butt;stroke-linejoin:round;}
  </style>
 </defs>
 <g id="figure_1">
  <g id="patch_1">
   <path d="M 0 345.6 
L 460.8 345.6 
L 460.8 0 
L 0 0 
z
" style="fill:#ffffff;"/>
  </g>
  <g id="axes_1">
   <g id="patch_2">
    <path d="M 57.6 307.584 
L 414.72 307.584 
L 414.72 41.472 
L 57.6 41.472 
z
" style="fill:#ffffff;"/>
   </g>
   <g id="patch_3">
    <path clip-path="url(#p6106e9df03)" d="M 95.95193 307.584 
L 98.755879 307.584 
L 98.755879 294.624 
L 95.95193 294.624 
z
" style="fill:#f48024;opacity:0.4;"/>
   </g>
   <g id="patch_4">
    <path clip-path="url(#p6106e9df03)" d="M 98.755879 307.584 
L 101.559828 307.584 
L 101.559828 285.984 
L 98.755879 285.984 
z
" style="fill:#f48024;opacity:0.4;"/>
   </g>
   <g id="patch_5">
    <path clip-path="url(#p6106e9df03)" d="M 101.559828 307.584 
L 104.363777 307.584 
L 104.363777 284.544 
L 101.559828 284.544 
z
" style="fill:#f48024;opacity:0.4;"/>
   </g>
   <g id="patch_6">
    <path clip-path="url(#p6106e9df03)" d="M 104.363777 307.584 
L 107.167726 307.584 
L 107.167726 271.584 
L 104.363777 271.584 
z
" style="fill:#f48024;opacity:0.4;"/>
   </g>
   <g id="patch_7">
    <path clip-path="url(#p6106e9df03)" d="M 107.167726 307.584 
L 109.971675 307.584 
L 109.971675 245.664 
L 107.167726 245.664 
z
" style="fill:#f48024;opacity:0.4;"/>
   </g>
   <g id="patch_8">
    <path clip-path="url(#p6106e9df03)" d="M 109.971675 307.584 
L 112.775623 307.584 
L 112.775623 215.424 
L 109.971675 215.424 
z
" style="fill:#f48024;opacity:0.4;"/>
   </g>
   <g id="patch_9">
    <path clip-path="url(#p6106e9df03)" d="M 112.775623 307.584 
L 115.579572 307.584 
L 115.579572 189.504 
L 112.775623 189.504 
z
" style="fill:#f48024;opacity:0.4;"/>
   </g>
   <g id="patch_10">
    <path clip-path="url(#p6106e9df03)" d="M 115.579572 307.584 
L 118.383521 307.584 
L 118.383521 123.264 
L 115.579572 123.264 
z
" style="fill:#f48024;opacity:0.4;"/>
   </g>
   <g id="patch_11">
    <path clip-path="url(#p6106e9df03)" d="M 118.383521 307.584 
L 121.18747 307.584 
L 121.18747 105.984 
L 118.383521 105.984 
z
" style="fill:#f48024;opacity:0.4;"/>
   </g>
   <g id="patch_12">
    <path clip-path="url(#p6106e9df03)" d="M 121.18747 307.584 
L 123.991419 307.584 
L 123.991419 54.144 
L 121.18747 54.144 
z
" style="fill:#f48024;opacity:0.4;"/>
   </g>
   <g id="patch_13">
    <path clip-path="url(#p6106e9df03)" d="M 123.991419 307.584 
L 126.795368 307.584 
L 126.795368 77.184 
L 123.991419 77.184 
z
" style="fill:#f48024;opacity:0.4;"/>
   </g>
   <g id="patch_14">
    <path clip-path="url(#p6106e9df03)" d="M 126.795368 307.584 
L 129.599317 307.584 
L 129.599317 84.384 
L 126.795368 84.384 
z
" style="fill:#f48024;opacity:0.4;"/>
   </g>
   <g id="patch_15">
    <path clip-path="url(#p6106e9df03)" d="M 129.599317 307.584 
L 132.403266 307.584 
L 132.403266 157.824 
L 129.599317 157.824 
z
" style="fill:#f48024;opacity:0.4;"/>
   </g>
   <g id="patch_16">
    <path clip-path="url(#p6106e9df03)" d="M 132.403266 307.584 
L 135.207215 307.584 
L 135.207215 173.664 
L 132.403266 173.664 
z
" style="fill:#f48024;opacity:0.4;"/>
   </g>
   <g id="patch_17">
    <path clip-path="url(#p6106e9df03)" d="M 135.207215 307.584 
L 138.011164 307.584 
L 138.011164 188.064 
L 135.207215 188.064 
z
" style="fill:#f48024;opacity:0.4;"/>
   </g>
   <g id="patch_18">
    <path clip-path="url(#p6106e9df03)" d="M 138.011164 307.584 
L 140.815112 307.584 
L 140.815112 221.184 
L 138.011164 221.184 
z
" style="fill:#f48024;opacity:0.4;"/>
   </g>
   <g id="patch_19">
    <path clip-path="url(#p6106e9df03)" d="M 140.815112 307.584 
L 143.619061 307.584 
L 143.619061 244.224 
L 140.815112 244.224 
z
" style="fill:#f48024;opacity:0.4;"/>
   </g>
   <g id="patch_20">
    <path clip-path="url(#p6106e9df03)" d="M 143.619061 307.584 
L 146.42301 307.584 
L 146.42301 234.144 
L 143.619061 234.144 
z
" style="fill:#f48024;opacity:0.4;"/>
   </g>
   <g id="patch_21">
    <path clip-path="url(#p6106e9df03)" d="M 146.42301 307.584 
L 149.226959 307.584 
L 149.226959 260.064 
L 146.42301 260.064 
z
" style="fill:#f48024;opacity:0.4;"/>
   </g>
   <g id="patch_22">
    <path clip-path="url(#p6106e9df03)" d="M 149.226959 307.584 
L 152.030908 307.584 
L 152.030908 273.024 
L 149.226959 273.024 
z
" style="fill:#f48024;opacity:0.4;"/>
   </g>
   <g id="patch_23">
    <path clip-path="url(#p6106e9df03)" d="M 152.030908 307.584 
L 154.834857 307.584 
L 154.834857 287.424 
L 152.030908 287.424 
z
" style="fill:#f48024;opacity:0.4;"/>
   </g>
   <g id="patch_24">
    <path clip-path="url(#p6106e9df03)" d="M 154.834857 307.584 
L 157.638806 307.584 
L 157.638806 293.184 
L 154.834857 293.184 
z
" style="fill:#f48024;opacity:0.4;"/>
   </g>
   <g id="patch_25">
    <path clip-path="url(#p6106e9df03)" d="M 157.638806 307.584 
L 160.442755 307.584 
L 160.442755 273.024 
L 157.638806 273.024 
z
" style="fill:#f48024;opacity:0.4;"/>
   </g>
   <g id="patch_26">
    <path clip-path="url(#p6106e9df03)" d="M 160.442755 307.584 
L 163.246704 307.584 
L 163.246704 294.624 
L 160.442755 294.624 
z
" style="fill:#f48024;opacity:0.4;"/>
   </g>
   <g id="patch_27">
    <path clip-path="url(#p6106e9df03)" d="M 163.246704 307.584 
L 166.050652 307.584 
L 166.050652 293.184 
L 163.246704 293.184 
z
" style="fill:#f48024;opacity:0.4;"/>
   </g>
   <g id="patch_28">
    <path clip-path="url(#p6106e9df03)" d="M 166.050652 307.584 
L 168.854601 307.584 
L 168.854601 294.624 
L 166.050652 294.624 
z
" style="fill:#f48024;opacity:0.4;"/>
   </g>
   <g id="patch_29">
    <path clip-path="url(#p6106e9df03)" d="M 168.854601 307.584 
L 171.65855 307.584 
L 171.65855 293.184 
L 168.854601 293.184 
z
" style="fill:#f48024;opacity:0.4;"/>
   </g>
   <g id="patch_30">
    <path clip-path="url(#p6106e9df03)" d="M 171.65855 307.584 
L 174.462499 307.584 
L 174.462499 306.144 
L 171.65855 306.144 
z
" style="fill:#f48024;opacity:0.4;"/>
   </g>
   <g id="patch_31">
    <path clip-path="url(#p6106e9df03)" d="M 174.462499 307.584 
L 177.266448 307.584 
L 177.266448 294.624 
L 174.462499 294.624 
z
" style="fill:#f48024;opacity:0.4;"/>
   </g>
   <g id="patch_32">
    <path clip-path="url(#p6106e9df03)" d="M 177.266448 307.584 
L 180.070397 307.584 
L 180.070397 298.944 
L 177.266448 298.944 
z
" style="fill:#f48024;opacity:0.4;"/>
   </g>
   <g id="patch_33">
    <path clip-path="url(#p6106e9df03)" d="M 180.070397 307.584 
L 182.874346 307.584 
L 182.874346 294.624 
L 180.070397 294.624 
z
" style="fill:#f48024;opacity:0.4;"/>
   </g>
   <g id="patch_34">
    <path clip-path="url(#p6106e9df03)" d="M 182.874346 307.584 
L 185.678295 307.584 
L 185.678295 301.824 
L 182.874346 301.824 
z
" style="fill:#f48024;opacity:0.4;"/>
   </g>
   <g id="patch_35">
    <path clip-path="url(#p6106e9df03)" d="M 185.678295 307.584 
L 188.482244 307.584 
L 188.482244 300.384 
L 185.678295 300.384 
z
" style="fill:#f48024;opacity:0.4;"/>
   </g>
   <g id="patch_36">
    <path clip-path="url(#p6106e9df03)" d="M 188.482244 307.584 
L 191.286192 307.584 
L 191.286192 301.824 
L 188.482244 301.824 
z
" style="fill:#f48024;opacity:0.4;"/>
   </g>
   <g id="patch_37">
    <path clip-path="url(#p6106e9df03)" d="M 191.286192 307.584 
L 194.090141 307.584 
L 194.090141 298.944 
L 191.286192 298.944 
z
" style="fill:#f48024;opacity:0.4;"/>
   </g>
   <g id="patch_38">
    <path clip-path="url(#p6106e9df03)" d="M 194.090141 307.584 
L 196.89409 307.584 
L 196.89409 301.824 
L 194.090141 301.824 
z
" style="fill:#f48024;opacity:0.4;"/>
   </g>
   <g id="patch_39">
    <path clip-path="url(#p6106e9df03)" d="M 196.89409 307.584 
L 199.698039 307.584 
L 199.698039 304.704 
L 196.89409 304.704 
z
" style="fill:#f48024;opacity:0.4;"/>
   </g>
   <g id="patch_40">
    <path clip-path="url(#p6106e9df03)" d="M 199.698039 307.584 
L 202.501988 307.584 
L 202.501988 300.384 
L 199.698039 300.384 
z
" style="fill:#f48024;opacity:0.4;"/>
   </g>
   <g id="patch_41">
    <path clip-path="url(#p6106e9df03)" d="M 202.501988 307.584 
L 205.305937 307.584 
L 205.305937 306.144 
L 202.501988 306.144 
z
" style="fill:#f48024;opacity:0.4;"/>
   </g>
   <g id="patch_42">
    <path clip-path="url(#p6106e9df03)" d="M 205.305937 307.584 
L 208.109886 307.584 
L 208.109886 306.144 
L 205.305937 306.144 
z
" style="fill:#f48024;opacity:0.4;"/>
   </g>
   <g id="patch_43">
    <path clip-path="url(#p6106e9df03)" d="M 208.109886 307.584 
L 210.913835 307.584 
L 210.913835 306.144 
L 208.109886 306.144 
z
" style="fill:#f48024;opacity:0.4;"/>
   </g>
   <g id="patch_44">
    <path clip-path="url(#p6106e9df03)" d="M 210.913835 307.584 
L 213.717784 307.584 
L 213.717784 304.704 
L 210.913835 304.704 
z
" style="fill:#f48024;opacity:0.4;"/>
   </g>
   <g id="patch_45">
    <path clip-path="url(#p6106e9df03)" d="M 213.717784 307.584 
L 216.521732 307.584 
L 216.521732 306.144 
L 213.717784 306.144 
z
" style="fill:#f48024;opacity:0.4;"/>
   </g>
   <g id="patch_46">
    <path clip-path="url(#p6106e9df03)" d="M 216.521732 307.584 
L 219.325681 307.584 
L 219.325681 301.824 
L 216.521732 301.824 
z
" style="fill:#f48024;opacity:0.4;"/>
   </g>
   <g id="patch_47">
    <path clip-path="url(#p6106e9df03)" d="M 219.325681 307.584 
L 222.12963 307.584 
L 222.12963 306.144 
L 219.325681 306.144 
z
" style="fill:#f48024;opacity:0.4;"/>
   </g>
   <g id="patch_48">
    <path clip-path="url(#p6106e9df03)" d="M 222.12963 307.584 
L 224.933579 307.584 
L 224.933579 306.144 
L 222.12963 306.144 
z
" style="fill:#f48024;opacity:0.4;"/>
   </g>
   <g id="patch_49">
    <path clip-path="url(#p6106e9df03)" d="M 224.933579 307.584 
L 227.737528 307.584 
L 227.737528 304.704 
L 224.933579 304.704 
z
" style="fill:#f48024;opacity:0.4;"/>
   </g>
   <g id="patch_50">
    <path clip-path="url(#p6106e9df03)" d="M 227.737528 307.584 
L 230.541477 307.584 
L 230.541477 307.584 
L 227.737528 307.584 
z
" style="fill:#f48024;opacity:0.4;"/>
   </g>
   <g id="patch_51">
    <path clip-path="url(#p6106e9df03)" d="M 230.541477 307.584 
L 233.345426 307.584 
L 233.345426 307.584 
L 230.541477 307.584 
z
" style="fill:#f48024;opacity:0.4;"/>
   </g>
   <g id="patch_52">
    <path clip-path="url(#p6106e9df03)" d="M 233.345426 307.584 
L 236.149375 307.584 
L 236.149375 307.584 
L 233.345426 307.584 
z
" style="fill:#f48024;opacity:0.4;"/>
   </g>
   <g id="patch_53">
    <path clip-path="url(#p6106e9df03)" d="M 236.149375 307.584 
L 238.953324 307.584 
L 238.953324 307.584 
L 236.149375 307.584 
z
" style="fill:#f48024;opacity:0.4;"/>
   </g>
   <g id="patch_54">
    <path clip-path="url(#p6106e9df03)" d="M 238.953324 307.584 
L 241.757272 307.584 
L 241.757272 307.584 
L 238.953324 307.584 
z
" style="fill:#f48024;opacity:0.4;"/>
   </g>
   <g id="patch_55">
    <path clip-path="url(#p6106e9df03)" d="M 241.757272 307.584 
L 244.561221 307.584 
L 244.561221 307.584 
L 241.757272 307.584 
z
" style="fill:#f48024;opacity:0.4;"/>
   </g>
   <g id="patch_56">
    <path clip-path="url(#p6106e9df03)" d="M 244.561221 307.584 
L 247.36517 307.584 
L 247.36517 306.144 
L 244.561221 306.144 
z
" style="fill:#f48024;opacity:0.4;"/>
   </g>
   <g id="patch_57">
    <path clip-path="url(#p6106e9df03)" d="M 247.36517 307.584 
L 250.169119 307.584 
L 250.169119 306.144 
L 247.36517 306.144 
z
" style="fill:#f48024;opacity:0.4;"/>
   </g>
   <g id="patch_58">
    <path clip-path="url(#p6106e9df03)" d="M 250.169119 307.584 
L 252.973068 307.584 
L 252.973068 307.584 
L 250.169119 307.584 
z
" style="fill:#f48024;opacity:0.4;"/>
   </g>
   <g id="patch_59">
    <path clip-path="url(#p6106e9df03)" d="M 252.973068 307.584 
L 255.777017 307.584 
L 255.777017 307.584 
L 252.973068 307.584 
z
" style="fill:#f48024;opacity:0.4;"/>
   </g>
   <g id="patch_60">
    <path clip-path="url(#p6106e9df03)" d="M 255.777017 307.584 
L 258.580966 307.584 
L 258.580966 307.584 
L 255.777017 307.584 
z
" style="fill:#f48024;opacity:0.4;"/>
   </g>
   <g id="patch_61">
    <path clip-path="url(#p6106e9df03)" d="M 258.580966 307.584 
L 261.384915 307.584 
L 261.384915 307.584 
L 258.580966 307.584 
z
" style="fill:#f48024;opacity:0.4;"/>
   </g>
   <g id="patch_62">
    <path clip-path="url(#p6106e9df03)" d="M 261.384915 307.584 
L 264.188864 307.584 
L 264.188864 306.144 
L 261.384915 306.144 
z
" style="fill:#f48024;opacity:0.4;"/>
   </g>
   <g id="patch_63">
    <path clip-path="url(#p6106e9df03)" d="M 264.188864 307.584 
L 266.992812 307.584 
L 266.992812 304.704 
L 264.188864 304.704 
z
" style="fill:#f48024;opacity:0.4;"/>
   </g>
   <g id="patch_64">
    <path clip-path="url(#p6106e9df03)" d="M 266.992812 307.584 
L 269.796761 307.584 
L 269.796761 307.584 
L 266.992812 307.584 
z
" style="fill:#f48024;opacity:0.4;"/>
   </g>
   <g id="patch_65">
    <path clip-path="url(#p6106e9df03)" d="M 269.796761 307.584 
L 272.60071 307.584 
L 272.60071 306.144 
L 269.796761 306.144 
z
" style="fill:#f48024;opacity:0.4;"/>
   </g>
   <g id="patch_66">
    <path clip-path="url(#p6106e9df03)" d="M 272.60071 307.584 
L 275.404659 307.584 
L 275.404659 306.144 
L 272.60071 306.144 
z
" style="fill:#f48024;opacity:0.4;"/>
   </g>
   <g id="patch_67">
    <path clip-path="url(#p6106e9df03)" d="M 275.404659 307.584 
L 278.208608 307.584 
L 278.208608 307.584 
L 275.404659 307.584 
z
" style="fill:#f48024;opacity:0.4;"/>
   </g>
   <g id="patch_68">
    <path clip-path="url(#p6106e9df03)" d="M 278.208608 307.584 
L 281.012557 307.584 
L 281.012557 307.584 
L 278.208608 307.584 
z
" style="fill:#f48024;opacity:0.4;"/>
   </g>
   <g id="patch_69">
    <path clip-path="url(#p6106e9df03)" d="M 281.012557 307.584 
L 283.816506 307.584 
L 283.816506 307.584 
L 281.012557 307.584 
z
" style="fill:#f48024;opacity:0.4;"/>
   </g>
   <g id="patch_70">
    <path clip-path="url(#p6106e9df03)" d="M 283.816506 307.584 
L 286.620455 307.584 
L 286.620455 307.584 
L 283.816506 307.584 
z
" style="fill:#f48024;opacity:0.4;"/>
   </g>
   <g id="patch_71">
    <path clip-path="url(#p6106e9df03)" d="M 286.620455 307.584 
L 289.424404 307.584 
L 289.424404 307.584 
L 286.620455 307.584 
z
" style="fill:#f48024;opacity:0.4;"/>
   </g>
   <g id="patch_72">
    <path clip-path="url(#p6106e9df03)" d="M 289.424404 307.584 
L 292.228352 307.584 
L 292.228352 307.584 
L 289.424404 307.584 
z
" style="fill:#f48024;opacity:0.4;"/>
   </g>
   <g id="patch_73">
    <path clip-path="url(#p6106e9df03)" d="M 292.228352 307.584 
L 295.032301 307.584 
L 295.032301 307.584 
L 292.228352 307.584 
z
" style="fill:#f48024;opacity:0.4;"/>
   </g>
   <g id="patch_74">
    <path clip-path="url(#p6106e9df03)" d="M 295.032301 307.584 
L 297.83625 307.584 
L 297.83625 307.584 
L 295.032301 307.584 
z
" style="fill:#f48024;opacity:0.4;"/>
   </g>
   <g id="patch_75">
    <path clip-path="url(#p6106e9df03)" d="M 297.83625 307.584 
L 300.640199 307.584 
L 300.640199 307.584 
L 297.83625 307.584 
z
" style="fill:#f48024;opacity:0.4;"/>
   </g>
   <g id="patch_76">
    <path clip-path="url(#p6106e9df03)" d="M 300.640199 307.584 
L 303.444148 307.584 
L 303.444148 306.144 
L 300.640199 306.144 
z
" style="fill:#f48024;opacity:0.4;"/>
   </g>
   <g id="patch_77">
    <path clip-path="url(#p6106e9df03)" d="M 303.444148 307.584 
L 306.248097 307.584 
L 306.248097 307.584 
L 303.444148 307.584 
z
" style="fill:#f48024;opacity:0.4;"/>
   </g>
   <g id="patch_78">
    <path clip-path="url(#p6106e9df03)" d="M 306.248097 307.584 
L 309.052046 307.584 
L 309.052046 307.584 
L 306.248097 307.584 
z
" style="fill:#f48024;opacity:0.4;"/>
   </g>
   <g id="patch_79">
    <path clip-path="url(#p6106e9df03)" d="M 309.052046 307.584 
L 311.855995 307.584 
L 311.855995 307.584 
L 309.052046 307.584 
z
" style="fill:#f48024;opacity:0.4;"/>
   </g>
   <g id="patch_80">
    <path clip-path="url(#p6106e9df03)" d="M 311.855995 307.584 
L 314.659944 307.584 
L 314.659944 307.584 
L 311.855995 307.584 
z
" style="fill:#f48024;opacity:0.4;"/>
   </g>
   <g id="patch_81">
    <path clip-path="url(#p6106e9df03)" d="M 314.659944 307.584 
L 317.463892 307.584 
L 317.463892 307.584 
L 314.659944 307.584 
z
" style="fill:#f48024;opacity:0.4;"/>
   </g>
   <g id="patch_82">
    <path clip-path="url(#p6106e9df03)" d="M 317.463892 307.584 
L 320.267841 307.584 
L 320.267841 307.584 
L 317.463892 307.584 
z
" style="fill:#f48024;opacity:0.4;"/>
   </g>
   <g id="patch_83">
    <path clip-path="url(#p6106e9df03)" d="M 320.267841 307.584 
L 323.07179 307.584 
L 323.07179 307.584 
L 320.267841 307.584 
z
" style="fill:#f48024;opacity:0.4;"/>
   </g>
   <g id="patch_84">
    <path clip-path="url(#p6106e9df03)" d="M 323.07179 307.584 
L 325.875739 307.584 
L 325.875739 307.584 
L 323.07179 307.584 
z
" style="fill:#f48024;opacity:0.4;"/>
   </g>
   <g id="patch_85">
    <path clip-path="url(#p6106e9df03)" d="M 325.875739 307.584 
L 328.679688 307.584 
L 328.679688 307.584 
L 325.875739 307.584 
z
" style="fill:#f48024;opacity:0.4;"/>
   </g>
   <g id="patch_86">
    <path clip-path="url(#p6106e9df03)" d="M 328.679688 307.584 
L 331.483637 307.584 
L 331.483637 307.584 
L 328.679688 307.584 
z
" style="fill:#f48024;opacity:0.4;"/>
   </g>
   <g id="patch_87">
    <path clip-path="url(#p6106e9df03)" d="M 331.483637 307.584 
L 334.287586 307.584 
L 334.287586 307.584 
L 331.483637 307.584 
z
" style="fill:#f48024;opacity:0.4;"/>
   </g>
   <g id="patch_88">
    <path clip-path="url(#p6106e9df03)" d="M 334.287586 307.584 
L 337.091535 307.584 
L 337.091535 307.584 
L 334.287586 307.584 
z
" style="fill:#f48024;opacity:0.4;"/>
   </g>
   <g id="patch_89">
    <path clip-path="url(#p6106e9df03)" d="M 337.091535 307.584 
L 339.895484 307.584 
L 339.895484 307.584 
L 337.091535 307.584 
z
" style="fill:#f48024;opacity:0.4;"/>
   </g>
   <g id="patch_90">
    <path clip-path="url(#p6106e9df03)" d="M 339.895484 307.584 
L 342.699432 307.584 
L 342.699432 307.584 
L 339.895484 307.584 
z
" style="fill:#f48024;opacity:0.4;"/>
   </g>
   <g id="patch_91">
    <path clip-path="url(#p6106e9df03)" d="M 342.699432 307.584 
L 345.503381 307.584 
L 345.503381 307.584 
L 342.699432 307.584 
z
" style="fill:#f48024;opacity:0.4;"/>
   </g>
   <g id="patch_92">
    <path clip-path="url(#p6106e9df03)" d="M 345.503381 307.584 
L 348.30733 307.584 
L 348.30733 307.584 
L 345.503381 307.584 
z
" style="fill:#f48024;opacity:0.4;"/>
   </g>
   <g id="patch_93">
    <path clip-path="url(#p6106e9df03)" d="M 348.30733 307.584 
L 351.111279 307.584 
L 351.111279 307.584 
L 348.30733 307.584 
z
" style="fill:#f48024;opacity:0.4;"/>
   </g>
   <g id="patch_94">
    <path clip-path="url(#p6106e9df03)" d="M 351.111279 307.584 
L 353.915228 307.584 
L 353.915228 307.584 
L 351.111279 307.584 
z
" style="fill:#f48024;opacity:0.4;"/>
   </g>
   <g id="patch_95">
    <path clip-path="url(#p6106e9df03)" d="M 353.915228 307.584 
L 356.719177 307.584 
L 356.719177 307.584 
L 353.915228 307.584 
z
" style="fill:#f48024;opacity:0.4;"/>
   </g>
   <g id="patch_96">
    <path clip-path="url(#p6106e9df03)" d="M 356.719177 307.584 
L 359.523126 307.584 
L 359.523126 306.144 
L 356.719177 306.144 
z
" style="fill:#f48024;opacity:0.4;"/>
   </g>
   <g id="patch_97">
    <path clip-path="url(#p6106e9df03)" d="M 359.523126 307.584 
L 362.327075 307.584 
L 362.327075 307.584 
L 359.523126 307.584 
z
" style="fill:#f48024;opacity:0.4;"/>
   </g>
   <g id="patch_98">
    <path clip-path="url(#p6106e9df03)" d="M 362.327075 307.584 
L 365.131024 307.584 
L 365.131024 307.584 
L 362.327075 307.584 
z
" style="fill:#f48024;opacity:0.4;"/>
   </g>
   <g id="patch_99">
    <path clip-path="url(#p6106e9df03)" d="M 365.131024 307.584 
L 367.934972 307.584 
L 367.934972 307.584 
L 365.131024 307.584 
z
" style="fill:#f48024;opacity:0.4;"/>
   </g>
   <g id="patch_100">
    <path clip-path="url(#p6106e9df03)" d="M 367.934972 307.584 
L 370.738921 307.584 
L 370.738921 307.584 
L 367.934972 307.584 
z
" style="fill:#f48024;opacity:0.4;"/>
   </g>
   <g id="patch_101">
    <path clip-path="url(#p6106e9df03)" d="M 370.738921 307.584 
L 373.54287 307.584 
L 373.54287 307.584 
L 370.738921 307.584 
z
" style="fill:#f48024;opacity:0.4;"/>
   </g>
   <g id="patch_102">
    <path clip-path="url(#p6106e9df03)" d="M 373.54287 307.584 
L 376.346819 307.584 
L 376.346819 306.144 
L 373.54287 306.144 
z
" style="fill:#f48024;opacity:0.4;"/>
   </g>
   <g id="patch_103">
    <path clip-path="url(#p6106e9df03)" d="M 89.687988 307.584 
L 92.617428 307.584 
L 92.617428 304.827373 
L 89.687988 304.827373 
z
" style="fill:#008000;opacity:0.4;"/>
   </g>
   <g id="patch_104">
    <path clip-path="url(#p6106e9df03)" d="M 92.617428 307.584 
L 95.546868 307.584 
L 95.546868 296.557494 
L 92.617428 296.557494 
z
" style="fill:#008000;opacity:0.4;"/>
   </g>
   <g id="patch_105">
    <path clip-path="url(#p6106e9df03)" d="M 95.546868 307.584 
L 98.476309 307.584 
L 98.476309 292.422554 
L 95.546868 292.422554 
z
" style="fill:#008000;opacity:0.4;"/>
   </g>
   <g id="patch_106">
    <path clip-path="url(#p6106e9df03)" d="M 98.476309 307.584 
L 101.405749 307.584 
L 101.405749 285.530987 
L 98.476309 285.530987 
z
" style="fill:#008000;opacity:0.4;"/>
   </g>
   <g id="patch_107">
    <path clip-path="url(#p6106e9df03)" d="M 101.405749 307.584 
L 104.335189 307.584 
L 104.335189 262.099662 
L 101.405749 262.099662 
z
" style="fill:#008000;opacity:0.4;"/>
   </g>
   <g id="patch_108">
    <path clip-path="url(#p6106e9df03)" d="M 104.335189 307.584 
L 107.264629 307.584 
L 107.264629 245.559902 
L 104.335189 245.559902 
z
" style="fill:#008000;opacity:0.4;"/>
   </g>
   <g id="patch_109">
    <path clip-path="url(#p6106e9df03)" d="M 107.264629 307.584 
L 110.194069 307.584 
L 110.194069 235.911709 
L 107.264629 235.911709 
z
" style="fill:#008000;opacity:0.4;"/>
   </g>
   <g id="patch_110">
    <path clip-path="url(#p6106e9df03)" d="M 110.194069 307.584 
L 113.12351 307.584 
L 113.12351 200.075564 
L 110.194069 200.075564 
z
" style="fill:#008000;opacity:0.4;"/>
   </g>
   <g id="patch_111">
    <path clip-path="url(#p6106e9df03)" d="M 113.12351 307.584 
L 116.05295 307.584 
L 116.05295 182.157491 
L 113.12351 182.157491 
z
" style="fill:#008000;opacity:0.4;"/>
   </g>
   <g id="patch_112">
    <path clip-path="url(#p6106e9df03)" d="M 116.05295 307.584 
L 118.98239 307.584 
L 118.98239 142.186406 
L 116.05295 142.186406 
z
" style="fill:#008000;opacity:0.4;"/>
   </g>
   <g id="patch_113">
    <path clip-path="url(#p6106e9df03)" d="M 118.98239 307.584 
L 121.91183 307.584 
L 121.91183 149.077972 
L 118.98239 149.077972 
z
" style="fill:#008000;opacity:0.4;"/>
   </g>
   <g id="patch_114">
    <path clip-path="url(#p6106e9df03)" d="M 121.91183 307.584 
L 124.841271 307.584 
L 124.841271 133.916526 
L 121.91183 133.916526 
z
" style="fill:#008000;opacity:0.4;"/>
   </g>
   <g id="patch_115">
    <path clip-path="url(#p6106e9df03)" d="M 124.841271 307.584 
L 127.770711 307.584 
L 127.770711 127.02496 
L 124.841271 127.02496 
z
" style="fill:#008000;opacity:0.4;"/>
   </g>
   <g id="patch_116">
    <path clip-path="url(#p6106e9df03)" d="M 127.770711 307.584 
L 130.700151 307.584 
L 130.700151 135.29484 
L 127.770711 135.29484 
z
" style="fill:#008000;opacity:0.4;"/>
   </g>
   <g id="patch_117">
    <path clip-path="url(#p6106e9df03)" d="M 130.700151 307.584 
L 133.629591 307.584 
L 133.629591 143.564719 
L 130.700151 143.564719 
z
" style="fill:#008000;opacity:0.4;"/>
   </g>
   <g id="patch_118">
    <path clip-path="url(#p6106e9df03)" d="M 133.629591 307.584 
L 136.559032 307.584 
L 136.559032 182.157491 
L 133.629591 182.157491 
z
" style="fill:#008000;opacity:0.4;"/>
   </g>
   <g id="patch_119">
    <path clip-path="url(#p6106e9df03)" d="M 136.559032 307.584 
L 139.488472 307.584 
L 139.488472 201.453877 
L 136.559032 201.453877 
z
" style="fill:#008000;opacity:0.4;"/>
   </g>
   <g id="patch_120">
    <path clip-path="url(#p6106e9df03)" d="M 139.488472 307.584 
L 142.417912 307.584 
L 142.417912 212.480383 
L 139.488472 212.480383 
z
" style="fill:#008000;opacity:0.4;"/>
   </g>
   <g id="patch_121">
    <path clip-path="url(#p6106e9df03)" d="M 142.417912 307.584 
L 145.347352 307.584 
L 145.347352 241.424962 
L 142.417912 241.424962 
z
" style="fill:#008000;opacity:0.4;"/>
   </g>
   <g id="patch_122">
    <path clip-path="url(#p6106e9df03)" d="M 145.347352 307.584 
L 148.276793 307.584 
L 148.276793 241.424962 
L 145.347352 241.424962 
z
" style="fill:#008000;opacity:0.4;"/>
   </g>
   <g id="patch_123">
    <path clip-path="url(#p6106e9df03)" d="M 148.276793 307.584 
L 151.206233 307.584 
L 151.206233 259.343035 
L 148.276793 259.343035 
z
" style="fill:#008000;opacity:0.4;"/>
   </g>
   <g id="patch_124">
    <path clip-path="url(#p6106e9df03)" d="M 151.206233 307.584 
L 154.135673 307.584 
L 154.135673 274.504481 
L 151.206233 274.504481 
z
" style="fill:#008000;opacity:0.4;"/>
   </g>
   <g id="patch_125">
    <path clip-path="url(#p6106e9df03)" d="M 154.135673 307.584 
L 157.065113 307.584 
L 157.065113 262.099662 
L 154.135673 262.099662 
z
" style="fill:#008000;opacity:0.4;"/>
   </g>
   <g id="patch_126">
    <path clip-path="url(#p6106e9df03)" d="M 157.065113 307.584 
L 159.994554 307.584 
L 159.994554 263.477975 
L 157.065113 263.477975 
z
" style="fill:#008000;opacity:0.4;"/>
   </g>
   <g id="patch_127">
    <path clip-path="url(#p6106e9df03)" d="M 159.994554 307.584 
L 162.923994 307.584 
L 162.923994 288.287614 
L 159.994554 288.287614 
z
" style="fill:#008000;opacity:0.4;"/>
   </g>
   <g id="patch_128">
    <path clip-path="url(#p6106e9df03)" d="M 162.923994 307.584 
L 165.853434 307.584 
L 165.853434 288.287614 
L 162.923994 288.287614 
z
" style="fill:#008000;opacity:0.4;"/>
   </g>
   <g id="patch_129">
    <path clip-path="url(#p6106e9df03)" d="M 165.853434 307.584 
L 168.782874 307.584 
L 168.782874 291.044241 
L 165.853434 291.044241 
z
" style="fill:#008000;opacity:0.4;"/>
   </g>
   <g id="patch_130">
    <path clip-path="url(#p6106e9df03)" d="M 168.782874 307.584 
L 171.712315 307.584 
L 171.712315 293.800867 
L 168.782874 293.800867 
z
" style="fill:#008000;opacity:0.4;"/>
   </g>
   <g id="patch_131">
    <path clip-path="url(#p6106e9df03)" d="M 171.712315 307.584 
L 174.641755 307.584 
L 174.641755 293.800867 
L 171.712315 293.800867 
z
" style="fill:#008000;opacity:0.4;"/>
   </g>
   <g id="patch_132">
    <path clip-path="url(#p6106e9df03)" d="M 174.641755 307.584 
L 177.571195 307.584 
L 177.571195 288.287614 
L 174.641755 288.287614 
z
" style="fill:#008000;opacity:0.4;"/>
   </g>
   <g id="patch_133">
    <path clip-path="url(#p6106e9df03)" d="M 177.571195 307.584 
L 180.500635 307.584 
L 180.500635 299.31412 
L 177.571195 299.31412 
z
" style="fill:#008000;opacity:0.4;"/>
   </g>
   <g id="patch_134">
    <path clip-path="url(#p6106e9df03)" d="M 180.500635 307.584 
L 183.430076 307.584 
L 183.430076 302.070747 
L 180.500635 302.070747 
z
" style="fill:#008000;opacity:0.4;"/>
   </g>
   <g id="patch_135">
    <path clip-path="url(#p6106e9df03)" d="M 183.430076 307.584 
L 186.359516 307.584 
L 186.359516 300.692434 
L 183.430076 300.692434 
z
" style="fill:#008000;opacity:0.4;"/>
   </g>
   <g id="patch_136">
    <path clip-path="url(#p6106e9df03)" d="M 186.359516 307.584 
L 189.288956 307.584 
L 189.288956 299.31412 
L 186.359516 299.31412 
z
" style="fill:#008000;opacity:0.4;"/>
   </g>
   <g id="patch_137">
    <path clip-path="url(#p6106e9df03)" d="M 189.288956 307.584 
L 192.218396 307.584 
L 192.218396 302.070747 
L 189.288956 302.070747 
z
" style="fill:#008000;opacity:0.4;"/>
   </g>
   <g id="patch_138">
    <path clip-path="url(#p6106e9df03)" d="M 192.218396 307.584 
L 195.147837 307.584 
L 195.147837 302.070747 
L 192.218396 302.070747 
z
" style="fill:#008000;opacity:0.4;"/>
   </g>
   <g id="patch_139">
    <path clip-path="url(#p6106e9df03)" d="M 195.147837 307.584 
L 198.077277 307.584 
L 198.077277 302.070747 
L 195.147837 302.070747 
z
" style="fill:#008000;opacity:0.4;"/>
   </g>
   <g id="patch_140">
    <path clip-path="url(#p6106e9df03)" d="M 198.077277 307.584 
L 201.006717 307.584 
L 201.006717 304.827373 
L 198.077277 304.827373 
z
" style="fill:#008000;opacity:0.4;"/>
   </g>
   <g id="patch_141">
    <path clip-path="url(#p6106e9df03)" d="M 201.006717 307.584 
L 203.936157 307.584 
L 203.936157 303.44906 
L 201.006717 303.44906 
z
" style="fill:#008000;opacity:0.4;"/>
   </g>
   <g id="patch_142">
    <path clip-path="url(#p6106e9df03)" d="M 203.936157 307.584 
L 206.865598 307.584 
L 206.865598 306.205687 
L 203.936157 306.205687 
z
" style="fill:#008000;opacity:0.4;"/>
   </g>
   <g id="patch_143">
    <path clip-path="url(#p6106e9df03)" d="M 206.865598 307.584 
L 209.795038 307.584 
L 209.795038 303.44906 
L 206.865598 303.44906 
z
" style="fill:#008000;opacity:0.4;"/>
   </g>
   <g id="patch_144">
    <path clip-path="url(#p6106e9df03)" d="M 209.795038 307.584 
L 212.724478 307.584 
L 212.724478 304.827373 
L 209.795038 304.827373 
z
" style="fill:#008000;opacity:0.4;"/>
   </g>
   <g id="patch_145">
    <path clip-path="url(#p6106e9df03)" d="M 212.724478 307.584 
L 215.653918 307.584 
L 215.653918 303.44906 
L 212.724478 303.44906 
z
" style="fill:#008000;opacity:0.4;"/>
   </g>
   <g id="patch_146">
    <path clip-path="url(#p6106e9df03)" d="M 215.653918 307.584 
L 218.583359 307.584 
L 218.583359 300.692434 
L 215.653918 300.692434 
z
" style="fill:#008000;opacity:0.4;"/>
   </g>
   <g id="patch_147">
    <path clip-path="url(#p6106e9df03)" d="M 218.583359 307.584 
L 221.512799 307.584 
L 221.512799 306.205687 
L 218.583359 306.205687 
z
" style="fill:#008000;opacity:0.4;"/>
   </g>
   <g id="patch_148">
    <path clip-path="url(#p6106e9df03)" d="M 221.512799 307.584 
L 224.442239 307.584 
L 224.442239 306.205687 
L 221.512799 306.205687 
z
" style="fill:#008000;opacity:0.4;"/>
   </g>
   <g id="patch_149">
    <path clip-path="url(#p6106e9df03)" d="M 224.442239 307.584 
L 227.371679 307.584 
L 227.371679 304.827373 
L 224.442239 304.827373 
z
" style="fill:#008000;opacity:0.4;"/>
   </g>
   <g id="patch_150">
    <path clip-path="url(#p6106e9df03)" d="M 227.371679 307.584 
L 230.30112 307.584 
L 230.30112 304.827373 
L 227.371679 304.827373 
z
" style="fill:#008000;opacity:0.4;"/>
   </g>
   <g id="patch_151">
    <path clip-path="url(#p6106e9df03)" d="M 230.30112 307.584 
L 233.23056 307.584 
L 233.23056 307.584 
L 230.30112 307.584 
z
" style="fill:#008000;opacity:0.4;"/>
   </g>
   <g id="patch_152">
    <path clip-path="url(#p6106e9df03)" d="M 233.23056 307.584 
L 236.16 307.584 
L 236.16 304.827373 
L 233.23056 304.827373 
z
" style="fill:#008000;opacity:0.4;"/>
   </g>
   <g id="patch_153">
    <path clip-path="url(#p6106e9df03)" d="M 236.16 307.584 
L 239.08944 307.584 
L 239.08944 304.827373 
L 236.16 304.827373 
z
" style="fill:#008000;opacity:0.4;"/>
   </g>
   <g id="patch_154">
    <path clip-path="url(#p6106e9df03)" d="M 239.08944 307.584 
L 242.01888 307.584 
L 242.01888 306.205687 
L 239.08944 306.205687 
z
" style="fill:#008000;opacity:0.4;"/>
   </g>
   <g id="patch_155">
    <path clip-path="url(#p6106e9df03)" d="M 242.01888 307.584 
L 244.948321 307.584 
L 244.948321 306.205687 
L 242.01888 306.205687 
z
" style="fill:#008000;opacity:0.4;"/>
   </g>
   <g id="patch_156">
    <path clip-path="url(#p6106e9df03)" d="M 244.948321 307.584 
L 247.877761 307.584 
L 247.877761 307.584 
L 244.948321 307.584 
z
" style="fill:#008000;opacity:0.4;"/>
   </g>
   <g id="patch_157">
    <path clip-path="url(#p6106e9df03)" d="M 247.877761 307.584 
L 250.807201 307.584 
L 250.807201 307.584 
L 247.877761 307.584 
z
" style="fill:#008000;opacity:0.4;"/>
   </g>
   <g id="patch_158">
    <path clip-path="url(#p6106e9df03)" d="M 250.807201 307.584 
L 253.736641 307.584 
L 253.736641 307.584 
L 250.807201 307.584 
z
" style="fill:#008000;opacity:0.4;"/>
   </g>
   <g id="patch_159">
    <path clip-path="url(#p6106e9df03)" d="M 253.736641 307.584 
L 256.666082 307.584 
L 256.666082 307.584 
L 253.736641 307.584 
z
" style="fill:#008000;opacity:0.4;"/>
   </g>
   <g id="patch_160">
    <path clip-path="url(#p6106e9df03)" d="M 256.666082 307.584 
L 259.595522 307.584 
L 259.595522 307.584 
L 256.666082 307.584 
z
" style="fill:#008000;opacity:0.4;"/>
   </g>
   <g id="patch_161">
    <path clip-path="url(#p6106e9df03)" d="M 259.595522 307.584 
L 262.524962 307.584 
L 262.524962 307.584 
L 259.595522 307.584 
z
" style="fill:#008000;opacity:0.4;"/>
   </g>
   <g id="patch_162">
    <path clip-path="url(#p6106e9df03)" d="M 262.524962 307.584 
L 265.454402 307.584 
L 265.454402 307.584 
L 262.524962 307.584 
z
" style="fill:#008000;opacity:0.4;"/>
   </g>
   <g id="patch_163">
    <path clip-path="url(#p6106e9df03)" d="M 265.454402 307.584 
L 268.383843 307.584 
L 268.383843 307.584 
L 265.454402 307.584 
z
" style="fill:#008000;opacity:0.4;"/>
   </g>
   <g id="patch_164">
    <path clip-path="url(#p6106e9df03)" d="M 268.383843 307.584 
L 271.313283 307.584 
L 271.313283 306.205687 
L 268.383843 306.205687 
z
" style="fill:#008000;opacity:0.4;"/>
   </g>
   <g id="patch_165">
    <path clip-path="url(#p6106e9df03)" d="M 271.313283 307.584 
L 274.242723 307.584 
L 274.242723 307.584 
L 271.313283 307.584 
z
" style="fill:#008000;opacity:0.4;"/>
   </g>
   <g id="patch_166">
    <path clip-path="url(#p6106e9df03)" d="M 274.242723 307.584 
L 277.172163 307.584 
L 277.172163 307.584 
L 274.242723 307.584 
z
" style="fill:#008000;opacity:0.4;"/>
   </g>
   <g id="patch_167">
    <path clip-path="url(#p6106e9df03)" d="M 277.172163 307.584 
L 280.101604 307.584 
L 280.101604 307.584 
L 277.172163 307.584 
z
" style="fill:#008000;opacity:0.4;"/>
   </g>
   <g id="patch_168">
    <path clip-path="url(#p6106e9df03)" d="M 280.101604 307.584 
L 283.031044 307.584 
L 283.031044 307.584 
L 280.101604 307.584 
z
" style="fill:#008000;opacity:0.4;"/>
   </g>
   <g id="patch_169">
    <path clip-path="url(#p6106e9df03)" d="M 283.031044 307.584 
L 285.960484 307.584 
L 285.960484 307.584 
L 283.031044 307.584 
z
" style="fill:#008000;opacity:0.4;"/>
   </g>
   <g id="patch_170">
    <path clip-path="url(#p6106e9df03)" d="M 285.960484 307.584 
L 288.889924 307.584 
L 288.889924 307.584 
L 285.960484 307.584 
z
" style="fill:#008000;opacity:0.4;"/>
   </g>
   <g id="patch_171">
    <path clip-path="url(#p6106e9df03)" d="M 288.889924 307.584 
L 291.819365 307.584 
L 291.819365 307.584 
L 288.889924 307.584 
z
" style="fill:#008000;opacity:0.4;"/>
   </g>
   <g id="patch_172">
    <path clip-path="url(#p6106e9df03)" d="M 291.819365 307.584 
L 294.748805 307.584 
L 294.748805 307.584 
L 291.819365 307.584 
z
" style="fill:#008000;opacity:0.4;"/>
   </g>
   <g id="patch_173">
    <path clip-path="url(#p6106e9df03)" d="M 294.748805 307.584 
L 297.678245 307.584 
L 297.678245 307.584 
L 294.748805 307.584 
z
" style="fill:#008000;opacity:0.4;"/>
   </g>
   <g id="patch_174">
    <path clip-path="url(#p6106e9df03)" d="M 297.678245 307.584 
L 300.607685 307.584 
L 300.607685 307.584 
L 297.678245 307.584 
z
" style="fill:#008000;opacity:0.4;"/>
   </g>
   <g id="patch_175">
    <path clip-path="url(#p6106e9df03)" d="M 300.607685 307.584 
L 303.537126 307.584 
L 303.537126 307.584 
L 300.607685 307.584 
z
" style="fill:#008000;opacity:0.4;"/>
   </g>
   <g id="patch_176">
    <path clip-path="url(#p6106e9df03)" d="M 303.537126 307.584 
L 306.466566 307.584 
L 306.466566 307.584 
L 303.537126 307.584 
z
" style="fill:#008000;opacity:0.4;"/>
   </g>
   <g id="patch_177">
    <path clip-path="url(#p6106e9df03)" d="M 306.466566 307.584 
L 309.396006 307.584 
L 309.396006 307.584 
L 306.466566 307.584 
z
" style="fill:#008000;opacity:0.4;"/>
   </g>
   <g id="patch_178">
    <path clip-path="url(#p6106e9df03)" d="M 309.396006 307.584 
L 312.325446 307.584 
L 312.325446 307.584 
L 309.396006 307.584 
z
" style="fill:#008000;opacity:0.4;"/>
   </g>
   <g id="patch_179">
    <path clip-path="url(#p6106e9df03)" d="M 312.325446 307.584 
L 315.254887 307.584 
L 315.254887 307.584 
L 312.325446 307.584 
z
" style="fill:#008000;opacity:0.4;"/>
   </g>
   <g id="patch_180">
    <path clip-path="url(#p6106e9df03)" d="M 315.254887 307.584 
L 318.184327 307.584 
L 318.184327 307.584 
L 315.254887 307.584 
z
" style="fill:#008000;opacity:0.4;"/>
   </g>
   <g id="patch_181">
    <path clip-path="url(#p6106e9df03)" d="M 318.184327 307.584 
L 321.113767 307.584 
L 321.113767 307.584 
L 318.184327 307.584 
z
" style="fill:#008000;opacity:0.4;"/>
   </g>
   <g id="patch_182">
    <path clip-path="url(#p6106e9df03)" d="M 321.113767 307.584 
L 324.043207 307.584 
L 324.043207 307.584 
L 321.113767 307.584 
z
" style="fill:#008000;opacity:0.4;"/>
   </g>
   <g id="patch_183">
    <path clip-path="url(#p6106e9df03)" d="M 324.043207 307.584 
L 326.972648 307.584 
L 326.972648 307.584 
L 324.043207 307.584 
z
" style="fill:#008000;opacity:0.4;"/>
   </g>
   <g id="patch_184">
    <path clip-path="url(#p6106e9df03)" d="M 326.972648 307.584 
L 329.902088 307.584 
L 329.902088 307.584 
L 326.972648 307.584 
z
" style="fill:#008000;opacity:0.4;"/>
   </g>
   <g id="patch_185">
    <path clip-path="url(#p6106e9df03)" d="M 329.902088 307.584 
L 332.831528 307.584 
L 332.831528 307.584 
L 329.902088 307.584 
z
" style="fill:#008000;opacity:0.4;"/>
   </g>
   <g id="patch_186">
    <path clip-path="url(#p6106e9df03)" d="M 332.831528 307.584 
L 335.760968 307.584 
L 335.760968 307.584 
L 332.831528 307.584 
z
" style="fill:#008000;opacity:0.4;"/>
   </g>
   <g id="patch_187">
    <path clip-path="url(#p6106e9df03)" d="M 335.760968 307.584 
L 338.690409 307.584 
L 338.690409 307.584 
L 335.760968 307.584 
z
" style="fill:#008000;opacity:0.4;"/>
   </g>
   <g id="patch_188">
    <path clip-path="url(#p6106e9df03)" d="M 338.690409 307.584 
L 341.619849 307.584 
L 341.619849 307.584 
L 338.690409 307.584 
z
" style="fill:#008000;opacity:0.4;"/>
   </g>
   <g id="patch_189">
    <path clip-path="url(#p6106e9df03)" d="M 341.619849 307.584 
L 344.549289 307.584 
L 344.549289 307.584 
L 341.619849 307.584 
z
" style="fill:#008000;opacity:0.4;"/>
   </g>
   <g id="patch_190">
    <path clip-path="url(#p6106e9df03)" d="M 344.549289 307.584 
L 347.478729 307.584 
L 347.478729 307.584 
L 344.549289 307.584 
z
" style="fill:#008000;opacity:0.4;"/>
   </g>
   <g id="patch_191">
    <path clip-path="url(#p6106e9df03)" d="M 347.478729 307.584 
L 350.40817 307.584 
L 350.40817 307.584 
L 347.478729 307.584 
z
" style="fill:#008000;opacity:0.4;"/>
   </g>
   <g id="patch_192">
    <path clip-path="url(#p6106e9df03)" d="M 350.40817 307.584 
L 353.33761 307.584 
L 353.33761 307.584 
L 350.40817 307.584 
z
" style="fill:#008000;opacity:0.4;"/>
   </g>
   <g id="patch_193">
    <path clip-path="url(#p6106e9df03)" d="M 353.33761 307.584 
L 356.26705 307.584 
L 356.26705 307.584 
L 353.33761 307.584 
z
" style="fill:#008000;opacity:0.4;"/>
   </g>
   <g id="patch_194">
    <path clip-path="url(#p6106e9df03)" d="M 356.26705 307.584 
L 359.19649 307.584 
L 359.19649 307.584 
L 356.26705 307.584 
z
" style="fill:#008000;opacity:0.4;"/>
   </g>
   <g id="patch_195">
    <path clip-path="url(#p6106e9df03)" d="M 359.19649 307.584 
L 362.125931 307.584 
L 362.125931 307.584 
L 359.19649 307.584 
z
" style="fill:#008000;opacity:0.4;"/>
   </g>
   <g id="patch_196">
    <path clip-path="url(#p6106e9df03)" d="M 362.125931 307.584 
L 365.055371 307.584 
L 365.055371 306.205687 
L 362.125931 306.205687 
z
" style="fill:#008000;opacity:0.4;"/>
   </g>
   <g id="patch_197">
    <path clip-path="url(#p6106e9df03)" d="M 365.055371 307.584 
L 367.984811 307.584 
L 367.984811 307.584 
L 365.055371 307.584 
z
" style="fill:#008000;opacity:0.4;"/>
   </g>
   <g id="patch_198">
    <path clip-path="url(#p6106e9df03)" d="M 367.984811 307.584 
L 370.914251 307.584 
L 370.914251 307.584 
L 367.984811 307.584 
z
" style="fill:#008000;opacity:0.4;"/>
   </g>
   <g id="patch_199">
    <path clip-path="url(#p6106e9df03)" d="M 370.914251 307.584 
L 373.843691 307.584 
L 373.843691 307.584 
L 370.914251 307.584 
z
" style="fill:#008000;opacity:0.4;"/>
   </g>
   <g id="patch_200">
    <path clip-path="url(#p6106e9df03)" d="M 373.843691 307.584 
L 376.773132 307.584 
L 376.773132 307.584 
L 373.843691 307.584 
z
" style="fill:#008000;opacity:0.4;"/>
   </g>
   <g id="patch_201">
    <path clip-path="url(#p6106e9df03)" d="M 376.773132 307.584 
L 379.702572 307.584 
L 379.702572 307.584 
L 376.773132 307.584 
z
" style="fill:#008000;opacity:0.4;"/>
   </g>
   <g id="patch_202">
    <path clip-path="url(#p6106e9df03)" d="M 379.702572 307.584 
L 382.632012 307.584 
L 382.632012 306.205687 
L 379.702572 306.205687 
z
" style="fill:#008000;opacity:0.4;"/>
   </g>
   <g id="matplotlib.axis_1">
    <g id="xtick_1">
     <g id="line2d_1">
      <defs>
       <path d="M 0 0 
L 0 3.5 
" id="m6100f9d8fd" style="stroke:#000000;stroke-width:0.8;"/>
      </defs>
      <g>
       <use style="stroke:#000000;stroke-width:0.8;" x="90.243252" xlink:href="#m6100f9d8fd" y="307.584"/>
      </g>
     </g>
     <g id="text_1">
      <!-- 0 -->
      <defs>
       <path d="M 31.78125 66.40625 
Q 24.171875 66.40625 20.328125 58.90625 
Q 16.5 51.421875 16.5 36.375 
Q 16.5 21.390625 20.328125 13.890625 
Q 24.171875 6.390625 31.78125 6.390625 
Q 39.453125 6.390625 43.28125 13.890625 
Q 47.125 21.390625 47.125 36.375 
Q 47.125 51.421875 43.28125 58.90625 
Q 39.453125 66.40625 31.78125 66.40625 
z
M 31.78125 74.21875 
Q 44.046875 74.21875 50.515625 64.515625 
Q 56.984375 54.828125 56.984375 36.375 
Q 56.984375 17.96875 50.515625 8.265625 
Q 44.046875 -1.421875 31.78125 -1.421875 
Q 19.53125 -1.421875 13.0625 8.265625 
Q 6.59375 17.96875 6.59375 36.375 
Q 6.59375 54.828125 13.0625 64.515625 
Q 19.53125 74.21875 31.78125 74.21875 
z
" id="DejaVuSans-48"/>
      </defs>
      <g transform="translate(87.062002 322.182437)scale(0.1 -0.1)">
       <use xlink:href="#DejaVuSans-48"/>
      </g>
     </g>
    </g>
    <g id="xtick_2">
     <g id="line2d_2">
      <g>
       <use style="stroke:#000000;stroke-width:0.8;" x="133.257171" xlink:href="#m6100f9d8fd" y="307.584"/>
      </g>
     </g>
     <g id="text_2">
      <!-- 1 -->
      <defs>
       <path d="M 12.40625 8.296875 
L 28.515625 8.296875 
L 28.515625 63.921875 
L 10.984375 60.40625 
L 10.984375 69.390625 
L 28.421875 72.90625 
L 38.28125 72.90625 
L 38.28125 8.296875 
L 54.390625 8.296875 
L 54.390625 0 
L 12.40625 0 
z
" id="DejaVuSans-49"/>
      </defs>
      <g transform="translate(130.075921 322.182437)scale(0.1 -0.1)">
       <use xlink:href="#DejaVuSans-49"/>
      </g>
     </g>
    </g>
    <g id="xtick_3">
     <g id="line2d_3">
      <g>
       <use style="stroke:#000000;stroke-width:0.8;" x="176.271091" xlink:href="#m6100f9d8fd" y="307.584"/>
      </g>
     </g>
     <g id="text_3">
      <!-- 2 -->
      <defs>
       <path d="M 19.1875 8.296875 
L 53.609375 8.296875 
L 53.609375 0 
L 7.328125 0 
L 7.328125 8.296875 
Q 12.9375 14.109375 22.625 23.890625 
Q 32.328125 33.6875 34.8125 36.53125 
Q 39.546875 41.84375 41.421875 45.53125 
Q 43.3125 49.21875 43.3125 52.78125 
Q 43.3125 58.59375 39.234375 62.25 
Q 35.15625 65.921875 28.609375 65.921875 
Q 23.96875 65.921875 18.8125 64.3125 
Q 13.671875 62.703125 7.8125 59.421875 
L 7.8125 69.390625 
Q 13.765625 71.78125 18.9375 73 
Q 24.125 74.21875 28.421875 74.21875 
Q 39.75 74.21875 46.484375 68.546875 
Q 53.21875 62.890625 53.21875 53.421875 
Q 53.21875 48.921875 51.53125 44.890625 
Q 49.859375 40.875 45.40625 35.40625 
Q 44.1875 33.984375 37.640625 27.21875 
Q 31.109375 20.453125 19.1875 8.296875 
z
" id="DejaVuSans-50"/>
      </defs>
      <g transform="translate(173.089841 322.182437)scale(0.1 -0.1)">
       <use xlink:href="#DejaVuSans-50"/>
      </g>
     </g>
    </g>
    <g id="xtick_4">
     <g id="line2d_4">
      <g>
       <use style="stroke:#000000;stroke-width:0.8;" x="219.28501" xlink:href="#m6100f9d8fd" y="307.584"/>
      </g>
     </g>
     <g id="text_4">
      <!-- 3 -->
      <defs>
       <path d="M 40.578125 39.3125 
Q 47.65625 37.796875 51.625 33 
Q 55.609375 28.21875 55.609375 21.1875 
Q 55.609375 10.40625 48.1875 4.484375 
Q 40.765625 -1.421875 27.09375 -1.421875 
Q 22.515625 -1.421875 17.65625 -0.515625 
Q 12.796875 0.390625 7.625 2.203125 
L 7.625 11.71875 
Q 11.71875 9.328125 16.59375 8.109375 
Q 21.484375 6.890625 26.8125 6.890625 
Q 36.078125 6.890625 40.9375 10.546875 
Q 45.796875 14.203125 45.796875 21.1875 
Q 45.796875 27.640625 41.28125 31.265625 
Q 36.765625 34.90625 28.71875 34.90625 
L 20.21875 34.90625 
L 20.21875 43.015625 
L 29.109375 43.015625 
Q 36.375 43.015625 40.234375 45.921875 
Q 44.09375 48.828125 44.09375 54.296875 
Q 44.09375 59.90625 40.109375 62.90625 
Q 36.140625 65.921875 28.71875 65.921875 
Q 24.65625 65.921875 20.015625 65.03125 
Q 15.375 64.15625 9.8125 62.3125 
L 9.8125 71.09375 
Q 15.4375 72.65625 20.34375 73.4375 
Q 25.25 74.21875 29.59375 74.21875 
Q 40.828125 74.21875 47.359375 69.109375 
Q 53.90625 64.015625 53.90625 55.328125 
Q 53.90625 49.265625 50.4375 45.09375 
Q 46.96875 40.921875 40.578125 39.3125 
z
" id="DejaVuSans-51"/>
      </defs>
      <g transform="translate(216.10376 322.182437)scale(0.1 -0.1)">
       <use xlink:href="#DejaVuSans-51"/>
      </g>
     </g>
    </g>
    <g id="xtick_5">
     <g id="line2d_5">
      <g>
       <use style="stroke:#000000;stroke-width:0.8;" x="262.29893" xlink:href="#m6100f9d8fd" y="307.584"/>
      </g>
     </g>
     <g id="text_5">
      <!-- 4 -->
      <defs>
       <path d="M 37.796875 64.3125 
L 12.890625 25.390625 
L 37.796875 25.390625 
z
M 35.203125 72.90625 
L 47.609375 72.90625 
L 47.609375 25.390625 
L 58.015625 25.390625 
L 58.015625 17.1875 
L 47.609375 17.1875 
L 47.609375 0 
L 37.796875 0 
L 37.796875 17.1875 
L 4.890625 17.1875 
L 4.890625 26.703125 
z
" id="DejaVuSans-52"/>
      </defs>
      <g transform="translate(259.11768 322.182437)scale(0.1 -0.1)">
       <use xlink:href="#DejaVuSans-52"/>
      </g>
     </g>
    </g>
    <g id="xtick_6">
     <g id="line2d_6">
      <g>
       <use style="stroke:#000000;stroke-width:0.8;" x="305.312849" xlink:href="#m6100f9d8fd" y="307.584"/>
      </g>
     </g>
     <g id="text_6">
      <!-- 5 -->
      <defs>
       <path d="M 10.796875 72.90625 
L 49.515625 72.90625 
L 49.515625 64.59375 
L 19.828125 64.59375 
L 19.828125 46.734375 
Q 21.96875 47.46875 24.109375 47.828125 
Q 26.265625 48.1875 28.421875 48.1875 
Q 40.625 48.1875 47.75 41.5 
Q 54.890625 34.8125 54.890625 23.390625 
Q 54.890625 11.625 47.5625 5.09375 
Q 40.234375 -1.421875 26.90625 -1.421875 
Q 22.3125 -1.421875 17.546875 -0.640625 
Q 12.796875 0.140625 7.71875 1.703125 
L 7.71875 11.625 
Q 12.109375 9.234375 16.796875 8.0625 
Q 21.484375 6.890625 26.703125 6.890625 
Q 35.15625 6.890625 40.078125 11.328125 
Q 45.015625 15.765625 45.015625 23.390625 
Q 45.015625 31 40.078125 35.4375 
Q 35.15625 39.890625 26.703125 39.890625 
Q 22.75 39.890625 18.8125 39.015625 
Q 14.890625 38.140625 10.796875 36.28125 
z
" id="DejaVuSans-53"/>
      </defs>
      <g transform="translate(302.131599 322.182437)scale(0.1 -0.1)">
       <use xlink:href="#DejaVuSans-53"/>
      </g>
     </g>
    </g>
    <g id="xtick_7">
     <g id="line2d_7">
      <g>
       <use style="stroke:#000000;stroke-width:0.8;" x="348.326769" xlink:href="#m6100f9d8fd" y="307.584"/>
      </g>
     </g>
     <g id="text_7">
      <!-- 6 -->
      <defs>
       <path d="M 33.015625 40.375 
Q 26.375 40.375 22.484375 35.828125 
Q 18.609375 31.296875 18.609375 23.390625 
Q 18.609375 15.53125 22.484375 10.953125 
Q 26.375 6.390625 33.015625 6.390625 
Q 39.65625 6.390625 43.53125 10.953125 
Q 47.40625 15.53125 47.40625 23.390625 
Q 47.40625 31.296875 43.53125 35.828125 
Q 39.65625 40.375 33.015625 40.375 
z
M 52.59375 71.296875 
L 52.59375 62.3125 
Q 48.875 64.0625 45.09375 64.984375 
Q 41.3125 65.921875 37.59375 65.921875 
Q 27.828125 65.921875 22.671875 59.328125 
Q 17.53125 52.734375 16.796875 39.40625 
Q 19.671875 43.65625 24.015625 45.921875 
Q 28.375 48.1875 33.59375 48.1875 
Q 44.578125 48.1875 50.953125 41.515625 
Q 57.328125 34.859375 57.328125 23.390625 
Q 57.328125 12.15625 50.6875 5.359375 
Q 44.046875 -1.421875 33.015625 -1.421875 
Q 20.359375 -1.421875 13.671875 8.265625 
Q 6.984375 17.96875 6.984375 36.375 
Q 6.984375 53.65625 15.1875 63.9375 
Q 23.390625 74.21875 37.203125 74.21875 
Q 40.921875 74.21875 44.703125 73.484375 
Q 48.484375 72.75 52.59375 71.296875 
z
" id="DejaVuSans-54"/>
      </defs>
      <g transform="translate(345.145519 322.182437)scale(0.1 -0.1)">
       <use xlink:href="#DejaVuSans-54"/>
      </g>
     </g>
    </g>
    <g id="xtick_8">
     <g id="line2d_8">
      <g>
       <use style="stroke:#000000;stroke-width:0.8;" x="391.340688" xlink:href="#m6100f9d8fd" y="307.584"/>
      </g>
     </g>
     <g id="text_8">
      <!-- 7 -->
      <defs>
       <path d="M 8.203125 72.90625 
L 55.078125 72.90625 
L 55.078125 68.703125 
L 28.609375 0 
L 18.3125 0 
L 43.21875 64.59375 
L 8.203125 64.59375 
z
" id="DejaVuSans-55"/>
      </defs>
      <g transform="translate(388.159438 322.182437)scale(0.1 -0.1)">
       <use xlink:href="#DejaVuSans-55"/>
      </g>
     </g>
    </g>
   </g>
   <g id="matplotlib.axis_2">
    <g id="ytick_1">
     <g id="line2d_9">
      <defs>
       <path d="M 0 0 
L -3.5 0 
" id="m45ef91a404" style="stroke:#000000;stroke-width:0.8;"/>
      </defs>
      <g>
       <use style="stroke:#000000;stroke-width:0.8;" x="57.6" xlink:href="#m45ef91a404" y="307.584"/>
      </g>
     </g>
     <g id="text_9">
      <!-- 0.0 -->
      <defs>
       <path d="M 10.6875 12.40625 
L 21 12.40625 
L 21 0 
L 10.6875 0 
z
" id="DejaVuSans-46"/>
      </defs>
      <g transform="translate(34.696875 311.383219)scale(0.1 -0.1)">
       <use xlink:href="#DejaVuSans-48"/>
       <use x="63.623047" xlink:href="#DejaVuSans-46"/>
       <use x="95.410156" xlink:href="#DejaVuSans-48"/>
      </g>
     </g>
    </g>
    <g id="ytick_2">
     <g id="line2d_10">
      <g>
       <use style="stroke:#000000;stroke-width:0.8;" x="57.6" xlink:href="#m45ef91a404" y="276.231655"/>
      </g>
     </g>
     <g id="text_10">
      <!-- 0.2 -->
      <g transform="translate(34.696875 280.030873)scale(0.1 -0.1)">
       <use xlink:href="#DejaVuSans-48"/>
       <use x="63.623047" xlink:href="#DejaVuSans-46"/>
       <use x="95.410156" xlink:href="#DejaVuSans-50"/>
      </g>
     </g>
    </g>
    <g id="ytick_3">
     <g id="line2d_11">
      <g>
       <use style="stroke:#000000;stroke-width:0.8;" x="57.6" xlink:href="#m45ef91a404" y="244.879309"/>
      </g>
     </g>
     <g id="text_11">
      <!-- 0.4 -->
      <g transform="translate(34.696875 248.678528)scale(0.1 -0.1)">
       <use xlink:href="#DejaVuSans-48"/>
       <use x="63.623047" xlink:href="#DejaVuSans-46"/>
       <use x="95.410156" xlink:href="#DejaVuSans-52"/>
      </g>
     </g>
    </g>
    <g id="ytick_4">
     <g id="line2d_12">
      <g>
       <use style="stroke:#000000;stroke-width:0.8;" x="57.6" xlink:href="#m45ef91a404" y="213.526964"/>
      </g>
     </g>
     <g id="text_12">
      <!-- 0.6 -->
      <g transform="translate(34.696875 217.326183)scale(0.1 -0.1)">
       <use xlink:href="#DejaVuSans-48"/>
       <use x="63.623047" xlink:href="#DejaVuSans-46"/>
       <use x="95.410156" xlink:href="#DejaVuSans-54"/>
      </g>
     </g>
    </g>
    <g id="ytick_5">
     <g id="line2d_13">
      <g>
       <use style="stroke:#000000;stroke-width:0.8;" x="57.6" xlink:href="#m45ef91a404" y="182.174619"/>
      </g>
     </g>
     <g id="text_13">
      <!-- 0.8 -->
      <defs>
       <path d="M 31.78125 34.625 
Q 24.75 34.625 20.71875 30.859375 
Q 16.703125 27.09375 16.703125 20.515625 
Q 16.703125 13.921875 20.71875 10.15625 
Q 24.75 6.390625 31.78125 6.390625 
Q 38.8125 6.390625 42.859375 10.171875 
Q 46.921875 13.96875 46.921875 20.515625 
Q 46.921875 27.09375 42.890625 30.859375 
Q 38.875 34.625 31.78125 34.625 
z
M 21.921875 38.8125 
Q 15.578125 40.375 12.03125 44.71875 
Q 8.5 49.078125 8.5 55.328125 
Q 8.5 64.0625 14.71875 69.140625 
Q 20.953125 74.21875 31.78125 74.21875 
Q 42.671875 74.21875 48.875 69.140625 
Q 55.078125 64.0625 55.078125 55.328125 
Q 55.078125 49.078125 51.53125 44.71875 
Q 48 40.375 41.703125 38.8125 
Q 48.828125 37.15625 52.796875 32.3125 
Q 56.78125 27.484375 56.78125 20.515625 
Q 56.78125 9.90625 50.3125 4.234375 
Q 43.84375 -1.421875 31.78125 -1.421875 
Q 19.734375 -1.421875 13.25 4.234375 
Q 6.78125 9.90625 6.78125 20.515625 
Q 6.78125 27.484375 10.78125 32.3125 
Q 14.796875 37.15625 21.921875 38.8125 
z
M 18.3125 54.390625 
Q 18.3125 48.734375 21.84375 45.5625 
Q 25.390625 42.390625 31.78125 42.390625 
Q 38.140625 42.390625 41.71875 45.5625 
Q 45.3125 48.734375 45.3125 54.390625 
Q 45.3125 60.0625 41.71875 63.234375 
Q 38.140625 66.40625 31.78125 66.40625 
Q 25.390625 66.40625 21.84375 63.234375 
Q 18.3125 60.0625 18.3125 54.390625 
z
" id="DejaVuSans-56"/>
      </defs>
      <g transform="translate(34.696875 185.973837)scale(0.1 -0.1)">
       <use xlink:href="#DejaVuSans-48"/>
       <use x="63.623047" xlink:href="#DejaVuSans-46"/>
       <use x="95.410156" xlink:href="#DejaVuSans-56"/>
      </g>
     </g>
    </g>
    <g id="ytick_6">
     <g id="line2d_14">
      <g>
       <use style="stroke:#000000;stroke-width:0.8;" x="57.6" xlink:href="#m45ef91a404" y="150.822273"/>
      </g>
     </g>
     <g id="text_14">
      <!-- 1.0 -->
      <g transform="translate(34.696875 154.621492)scale(0.1 -0.1)">
       <use xlink:href="#DejaVuSans-49"/>
       <use x="63.623047" xlink:href="#DejaVuSans-46"/>
       <use x="95.410156" xlink:href="#DejaVuSans-48"/>
      </g>
     </g>
    </g>
    <g id="ytick_7">
     <g id="line2d_15">
      <g>
       <use style="stroke:#000000;stroke-width:0.8;" x="57.6" xlink:href="#m45ef91a404" y="119.469928"/>
      </g>
     </g>
     <g id="text_15">
      <!-- 1.2 -->
      <g transform="translate(34.696875 123.269147)scale(0.1 -0.1)">
       <use xlink:href="#DejaVuSans-49"/>
       <use x="63.623047" xlink:href="#DejaVuSans-46"/>
       <use x="95.410156" xlink:href="#DejaVuSans-50"/>
      </g>
     </g>
    </g>
    <g id="ytick_8">
     <g id="line2d_16">
      <g>
       <use style="stroke:#000000;stroke-width:0.8;" x="57.6" xlink:href="#m45ef91a404" y="88.117583"/>
      </g>
     </g>
     <g id="text_16">
      <!-- 1.4 -->
      <g transform="translate(34.696875 91.916801)scale(0.1 -0.1)">
       <use xlink:href="#DejaVuSans-49"/>
       <use x="63.623047" xlink:href="#DejaVuSans-46"/>
       <use x="95.410156" xlink:href="#DejaVuSans-52"/>
      </g>
     </g>
    </g>
    <g id="ytick_9">
     <g id="line2d_17">
      <g>
       <use style="stroke:#000000;stroke-width:0.8;" x="57.6" xlink:href="#m45ef91a404" y="56.765237"/>
      </g>
     </g>
     <g id="text_17">
      <!-- 1.6 -->
      <g transform="translate(34.696875 60.564456)scale(0.1 -0.1)">
       <use xlink:href="#DejaVuSans-49"/>
       <use x="63.623047" xlink:href="#DejaVuSans-46"/>
       <use x="95.410156" xlink:href="#DejaVuSans-54"/>
      </g>
     </g>
    </g>
   </g>
   <g id="line2d_18">
    <path clip-path="url(#p6106e9df03)" d="M 80.714783 307.563514 
L 83.854876 307.452751 
L 86.994969 306.977616 
L 90.135061 305.520347 
L 93.275154 302.240249 
L 96.415247 296.519346 
L 99.55534 287.970795 
L 102.695432 275.65212 
L 105.835525 257.764876 
L 108.975618 232.583601 
L 112.115711 199.780979 
L 115.255803 162.088059 
L 118.395896 126.596724 
L 121.535989 103.003429 
L 124.676082 98.522545 
L 127.816174 113.159454 
L 130.956267 139.696705 
L 134.09636 169.141202 
L 137.236453 196.005397 
L 140.376545 218.544732 
L 143.516638 236.96946 
L 146.656731 252.490851 
L 149.796824 265.738432 
L 152.936917 275.899295 
L 156.077009 282.418885 
L 159.217102 286.436707 
L 162.357195 289.612791 
L 165.497288 292.554539 
L 168.63738 295.022653 
L 171.777473 296.730581 
L 174.917566 297.678134 
L 178.057659 298.232146 
L 181.197751 298.813334 
L 184.337844 299.523154 
L 187.477937 300.233417 
L 190.61803 300.865018 
L 193.758122 301.496939 
L 196.898215 302.25888 
L 200.038308 303.180429 
L 203.178401 304.148017 
L 206.318493 304.921677 
L 209.458586 305.284745 
L 212.598679 305.259755 
L 215.738772 305.09615 
L 218.878864 305.079043 
L 222.018957 305.353532 
L 225.15905 305.868434 
L 228.299143 306.470325 
L 231.439236 306.996346 
L 234.579328 307.322321 
L 237.719421 307.40976 
L 240.859514 307.299815 
L 243.999607 307.100296 
L 247.139699 306.97541 
L 250.279792 307.024155 
L 253.419885 307.150942 
L 256.559978 307.151607 
L 259.70007 306.931516 
L 262.840163 306.605573 
L 265.980256 306.393923 
L 269.120349 306.423874 
L 272.260441 306.652131 
L 275.400534 306.96012 
L 278.540627 307.24507 
L 281.68072 307.441898 
L 284.820812 307.539559 
L 287.960905 307.56974 
L 291.100998 307.559437 
L 294.241091 307.505356 
L 297.381183 307.40186 
L 300.521276 307.295556 
L 303.661369 307.272223 
L 306.801462 307.353999 
L 309.941555 307.468199 
L 313.081647 307.544208 
L 316.22174 307.574668 
L 319.361833 307.582506 
L 322.501926 307.583837 
L 325.642018 307.583988 
L 328.782111 307.583999 
L 331.922204 307.583999 
L 335.062297 307.583976 
L 338.202389 307.583707 
L 341.342482 307.581563 
L 344.482575 307.570147 
L 347.622668 307.530268 
L 350.76276 307.441755 
L 353.902853 307.326981 
L 357.042946 307.266858 
L 360.183039 307.315282 
L 363.323131 307.418943 
L 366.463224 307.476155 
L 369.603317 307.43654 
L 372.74341 307.334521 
L 375.883502 307.267898 
L 379.023595 307.308005 
L 382.163688 307.419378 
L 385.303781 307.516979 
L 388.443874 307.565377 
L 391.583966 307.580468 
" style="fill:none;stroke:#f48024;stroke-linecap:square;stroke-width:1.5;"/>
   </g>
   <g id="line2d_19">
    <path clip-path="url(#p6106e9df03)" d="M 73.832727 307.578185 
L 77.112066 307.545235 
L 80.391405 307.39089 
L 83.670744 306.847161 
L 86.950083 305.374842 
L 90.229421 302.220805 
L 93.50876 296.617935 
L 96.788099 287.834315 
L 100.067438 275.133604 
L 103.346777 258.170661 
L 106.626116 237.572615 
L 109.905455 214.856613 
L 113.184793 191.841784 
L 116.464132 170.609886 
L 119.743471 153.826457 
L 123.02281 144.063812 
L 126.302149 142.66164 
L 129.581488 149.54343 
L 132.860826 163.588966 
L 136.140165 182.672988 
L 139.419504 203.706929 
L 142.698843 223.477093 
L 145.978182 239.9304 
L 149.257521 252.474353 
L 152.53686 261.444154 
L 155.816198 268.240494 
L 159.095537 274.818131 
L 162.374876 281.61328 
L 165.654215 287.239467 
L 168.933554 290.686274 
L 172.212893 292.583266 
L 175.492231 294.314485 
L 178.77157 296.503425 
L 182.050909 298.620149 
L 185.330248 300.05842 
L 188.609587 300.956728 
L 191.888926 301.753508 
L 195.168264 302.602409 
L 198.447603 303.402742 
L 201.726942 304.017988 
L 205.006281 304.342076 
L 208.28562 304.318367 
L 211.564959 304.053156 
L 214.844298 303.857702 
L 218.123636 304.02452 
L 221.402975 304.536774 
L 224.682314 305.107087 
L 227.961653 305.480985 
L 231.240992 305.600794 
L 234.520331 305.618695 
L 237.799669 305.793432 
L 241.079008 306.220785 
L 244.358347 306.744136 
L 247.637686 307.168914 
L 250.917025 307.42249 
L 254.196364 307.533516 
L 257.475702 307.55688 
L 260.755041 307.520234 
L 264.03438 307.428734 
L 267.313719 307.320886 
L 270.593058 307.280246 
L 273.872397 307.345323 
L 277.151736 307.456358 
L 280.431074 307.537541 
L 283.710413 307.572491 
L 286.989752 307.58206 
L 290.269091 307.583777 
L 293.54843 307.583983 
L 296.827769 307.583999 
L 300.107107 307.584 
L 303.386446 307.584 
L 306.665785 307.584 
L 309.945124 307.584 
L 313.224463 307.584 
L 316.503802 307.584 
L 319.78314 307.584 
L 323.062479 307.584 
L 326.341818 307.584 
L 329.621157 307.584 
L 332.900496 307.584 
L 336.179835 307.584 
L 339.459174 307.583997 
L 342.738512 307.58395 
L 346.017851 307.583447 
L 349.29719 307.579866 
L 352.576529 307.56297 
L 355.855868 307.511186 
L 359.135207 307.412405 
L 362.414545 307.308616 
L 365.693884 307.281827 
L 368.973223 307.350023 
L 372.252562 307.426823 
L 375.531901 307.421521 
L 378.81124 307.340245 
L 382.090579 307.279452 
L 385.369917 307.31739 
L 388.649256 307.424566 
L 391.928595 307.51908 
L 395.207934 307.566007 
L 398.487273 307.580606 
" style="fill:none;stroke:#008000;stroke-linecap:square;stroke-width:1.5;"/>
   </g>
   <g id="patch_203">
    <path d="M 57.6 307.584 
L 57.6 41.472 
" style="fill:none;stroke:#000000;stroke-linecap:square;stroke-linejoin:miter;stroke-width:0.8;"/>
   </g>
   <g id="patch_204">
    <path d="M 414.72 307.584 
L 414.72 41.472 
" style="fill:none;stroke:#000000;stroke-linecap:square;stroke-linejoin:miter;stroke-width:0.8;"/>
   </g>
   <g id="patch_205">
    <path d="M 57.6 307.584 
L 414.72 307.584 
" style="fill:none;stroke:#000000;stroke-linecap:square;stroke-linejoin:miter;stroke-width:0.8;"/>
   </g>
   <g id="patch_206">
    <path d="M 57.6 41.472 
L 414.72 41.472 
" style="fill:none;stroke:#000000;stroke-linecap:square;stroke-linejoin:miter;stroke-width:0.8;"/>
   </g>
   <g id="text_18">
    <!-- {'mae': 0.384, 'smape': 0.391, 'jsd': 0.123} -->
    <defs>
     <path d="M 51.125 -9.28125 
L 51.125 -16.3125 
L 48.09375 -16.3125 
Q 35.9375 -16.3125 31.8125 -12.6875 
Q 27.6875 -9.078125 27.6875 1.703125 
L 27.6875 13.375 
Q 27.6875 20.75 25.046875 23.578125 
Q 22.40625 26.421875 15.484375 26.421875 
L 12.5 26.421875 
L 12.5 33.40625 
L 15.484375 33.40625 
Q 22.46875 33.40625 25.078125 36.203125 
Q 27.6875 39.015625 27.6875 46.296875 
L 27.6875 58.015625 
Q 27.6875 68.796875 31.8125 72.390625 
Q 35.9375 75.984375 48.09375 75.984375 
L 51.125 75.984375 
L 51.125 69 
L 47.796875 69 
Q 40.921875 69 38.8125 66.84375 
Q 36.71875 64.703125 36.71875 57.8125 
L 36.71875 45.703125 
Q 36.71875 38.03125 34.5 34.5625 
Q 32.28125 31.109375 26.90625 29.890625 
Q 32.328125 28.5625 34.515625 25.09375 
Q 36.71875 21.625 36.71875 14.015625 
L 36.71875 1.90625 
Q 36.71875 -4.984375 38.8125 -7.125 
Q 40.921875 -9.28125 47.796875 -9.28125 
z
" id="DejaVuSans-123"/>
     <path d="M 17.921875 72.90625 
L 17.921875 45.796875 
L 9.625 45.796875 
L 9.625 72.90625 
z
" id="DejaVuSans-39"/>
     <path d="M 52 44.1875 
Q 55.375 50.25 60.0625 53.125 
Q 64.75 56 71.09375 56 
Q 79.640625 56 84.28125 50.015625 
Q 88.921875 44.046875 88.921875 33.015625 
L 88.921875 0 
L 79.890625 0 
L 79.890625 32.71875 
Q 79.890625 40.578125 77.09375 44.375 
Q 74.3125 48.1875 68.609375 48.1875 
Q 61.625 48.1875 57.5625 43.546875 
Q 53.515625 38.921875 53.515625 30.90625 
L 53.515625 0 
L 44.484375 0 
L 44.484375 32.71875 
Q 44.484375 40.625 41.703125 44.40625 
Q 38.921875 48.1875 33.109375 48.1875 
Q 26.21875 48.1875 22.15625 43.53125 
Q 18.109375 38.875 18.109375 30.90625 
L 18.109375 0 
L 9.078125 0 
L 9.078125 54.6875 
L 18.109375 54.6875 
L 18.109375 46.1875 
Q 21.1875 51.21875 25.484375 53.609375 
Q 29.78125 56 35.6875 56 
Q 41.65625 56 45.828125 52.96875 
Q 50 49.953125 52 44.1875 
z
" id="DejaVuSans-109"/>
     <path d="M 34.28125 27.484375 
Q 23.390625 27.484375 19.1875 25 
Q 14.984375 22.515625 14.984375 16.5 
Q 14.984375 11.71875 18.140625 8.90625 
Q 21.296875 6.109375 26.703125 6.109375 
Q 34.1875 6.109375 38.703125 11.40625 
Q 43.21875 16.703125 43.21875 25.484375 
L 43.21875 27.484375 
z
M 52.203125 31.203125 
L 52.203125 0 
L 43.21875 0 
L 43.21875 8.296875 
Q 40.140625 3.328125 35.546875 0.953125 
Q 30.953125 -1.421875 24.3125 -1.421875 
Q 15.921875 -1.421875 10.953125 3.296875 
Q 6 8.015625 6 15.921875 
Q 6 25.140625 12.171875 29.828125 
Q 18.359375 34.515625 30.609375 34.515625 
L 43.21875 34.515625 
L 43.21875 35.40625 
Q 43.21875 41.609375 39.140625 45 
Q 35.0625 48.390625 27.6875 48.390625 
Q 23 48.390625 18.546875 47.265625 
Q 14.109375 46.140625 10.015625 43.890625 
L 10.015625 52.203125 
Q 14.9375 54.109375 19.578125 55.046875 
Q 24.21875 56 28.609375 56 
Q 40.484375 56 46.34375 49.84375 
Q 52.203125 43.703125 52.203125 31.203125 
z
" id="DejaVuSans-97"/>
     <path d="M 56.203125 29.59375 
L 56.203125 25.203125 
L 14.890625 25.203125 
Q 15.484375 15.921875 20.484375 11.0625 
Q 25.484375 6.203125 34.421875 6.203125 
Q 39.59375 6.203125 44.453125 7.46875 
Q 49.3125 8.734375 54.109375 11.28125 
L 54.109375 2.78125 
Q 49.265625 0.734375 44.1875 -0.34375 
Q 39.109375 -1.421875 33.890625 -1.421875 
Q 20.796875 -1.421875 13.15625 6.1875 
Q 5.515625 13.8125 5.515625 26.8125 
Q 5.515625 40.234375 12.765625 48.109375 
Q 20.015625 56 32.328125 56 
Q 43.359375 56 49.78125 48.890625 
Q 56.203125 41.796875 56.203125 29.59375 
z
M 47.21875 32.234375 
Q 47.125 39.59375 43.09375 43.984375 
Q 39.0625 48.390625 32.421875 48.390625 
Q 24.90625 48.390625 20.390625 44.140625 
Q 15.875 39.890625 15.1875 32.171875 
z
" id="DejaVuSans-101"/>
     <path d="M 11.71875 12.40625 
L 22.015625 12.40625 
L 22.015625 0 
L 11.71875 0 
z
M 11.71875 51.703125 
L 22.015625 51.703125 
L 22.015625 39.3125 
L 11.71875 39.3125 
z
" id="DejaVuSans-58"/>
     <path id="DejaVuSans-32"/>
     <path d="M 11.71875 12.40625 
L 22.015625 12.40625 
L 22.015625 4 
L 14.015625 -11.625 
L 7.71875 -11.625 
L 11.71875 4 
z
" id="DejaVuSans-44"/>
     <path d="M 44.28125 53.078125 
L 44.28125 44.578125 
Q 40.484375 46.53125 36.375 47.5 
Q 32.28125 48.484375 27.875 48.484375 
Q 21.1875 48.484375 17.84375 46.4375 
Q 14.5 44.390625 14.5 40.28125 
Q 14.5 37.15625 16.890625 35.375 
Q 19.28125 33.59375 26.515625 31.984375 
L 29.59375 31.296875 
Q 39.15625 29.25 43.1875 25.515625 
Q 47.21875 21.78125 47.21875 15.09375 
Q 47.21875 7.46875 41.1875 3.015625 
Q 35.15625 -1.421875 24.609375 -1.421875 
Q 20.21875 -1.421875 15.453125 -0.5625 
Q 10.6875 0.296875 5.421875 2 
L 5.421875 11.28125 
Q 10.40625 8.6875 15.234375 7.390625 
Q 20.0625 6.109375 24.8125 6.109375 
Q 31.15625 6.109375 34.5625 8.28125 
Q 37.984375 10.453125 37.984375 14.40625 
Q 37.984375 18.0625 35.515625 20.015625 
Q 33.0625 21.96875 24.703125 23.78125 
L 21.578125 24.515625 
Q 13.234375 26.265625 9.515625 29.90625 
Q 5.8125 33.546875 5.8125 39.890625 
Q 5.8125 47.609375 11.28125 51.796875 
Q 16.75 56 26.8125 56 
Q 31.78125 56 36.171875 55.265625 
Q 40.578125 54.546875 44.28125 53.078125 
z
" id="DejaVuSans-115"/>
     <path d="M 18.109375 8.203125 
L 18.109375 -20.796875 
L 9.078125 -20.796875 
L 9.078125 54.6875 
L 18.109375 54.6875 
L 18.109375 46.390625 
Q 20.953125 51.265625 25.265625 53.625 
Q 29.59375 56 35.59375 56 
Q 45.5625 56 51.78125 48.09375 
Q 58.015625 40.1875 58.015625 27.296875 
Q 58.015625 14.40625 51.78125 6.484375 
Q 45.5625 -1.421875 35.59375 -1.421875 
Q 29.59375 -1.421875 25.265625 0.953125 
Q 20.953125 3.328125 18.109375 8.203125 
z
M 48.6875 27.296875 
Q 48.6875 37.203125 44.609375 42.84375 
Q 40.53125 48.484375 33.40625 48.484375 
Q 26.265625 48.484375 22.1875 42.84375 
Q 18.109375 37.203125 18.109375 27.296875 
Q 18.109375 17.390625 22.1875 11.75 
Q 26.265625 6.109375 33.40625 6.109375 
Q 40.53125 6.109375 44.609375 11.75 
Q 48.6875 17.390625 48.6875 27.296875 
z
" id="DejaVuSans-112"/>
     <path d="M 10.984375 1.515625 
L 10.984375 10.5 
Q 14.703125 8.734375 18.5 7.8125 
Q 22.3125 6.890625 25.984375 6.890625 
Q 35.75 6.890625 40.890625 13.453125 
Q 46.046875 20.015625 46.78125 33.40625 
Q 43.953125 29.203125 39.59375 26.953125 
Q 35.25 24.703125 29.984375 24.703125 
Q 19.046875 24.703125 12.671875 31.3125 
Q 6.296875 37.9375 6.296875 49.421875 
Q 6.296875 60.640625 12.9375 67.421875 
Q 19.578125 74.21875 30.609375 74.21875 
Q 43.265625 74.21875 49.921875 64.515625 
Q 56.59375 54.828125 56.59375 36.375 
Q 56.59375 19.140625 48.40625 8.859375 
Q 40.234375 -1.421875 26.421875 -1.421875 
Q 22.703125 -1.421875 18.890625 -0.6875 
Q 15.09375 0.046875 10.984375 1.515625 
z
M 30.609375 32.421875 
Q 37.25 32.421875 41.125 36.953125 
Q 45.015625 41.5 45.015625 49.421875 
Q 45.015625 57.28125 41.125 61.84375 
Q 37.25 66.40625 30.609375 66.40625 
Q 23.96875 66.40625 20.09375 61.84375 
Q 16.21875 57.28125 16.21875 49.421875 
Q 16.21875 41.5 20.09375 36.953125 
Q 23.96875 32.421875 30.609375 32.421875 
z
" id="DejaVuSans-57"/>
     <path d="M 9.421875 54.6875 
L 18.40625 54.6875 
L 18.40625 -0.984375 
Q 18.40625 -11.421875 14.421875 -16.109375 
Q 10.453125 -20.796875 1.609375 -20.796875 
L -1.8125 -20.796875 
L -1.8125 -13.1875 
L 0.59375 -13.1875 
Q 5.71875 -13.1875 7.5625 -10.8125 
Q 9.421875 -8.453125 9.421875 -0.984375 
z
M 9.421875 75.984375 
L 18.40625 75.984375 
L 18.40625 64.59375 
L 9.421875 64.59375 
z
" id="DejaVuSans-106"/>
     <path d="M 45.40625 46.390625 
L 45.40625 75.984375 
L 54.390625 75.984375 
L 54.390625 0 
L 45.40625 0 
L 45.40625 8.203125 
Q 42.578125 3.328125 38.25 0.953125 
Q 33.9375 -1.421875 27.875 -1.421875 
Q 17.96875 -1.421875 11.734375 6.484375 
Q 5.515625 14.40625 5.515625 27.296875 
Q 5.515625 40.1875 11.734375 48.09375 
Q 17.96875 56 27.875 56 
Q 33.9375 56 38.25 53.625 
Q 42.578125 51.265625 45.40625 46.390625 
z
M 14.796875 27.296875 
Q 14.796875 17.390625 18.875 11.75 
Q 22.953125 6.109375 30.078125 6.109375 
Q 37.203125 6.109375 41.296875 11.75 
Q 45.40625 17.390625 45.40625 27.296875 
Q 45.40625 37.203125 41.296875 42.84375 
Q 37.203125 48.484375 30.078125 48.484375 
Q 22.953125 48.484375 18.875 42.84375 
Q 14.796875 37.203125 14.796875 27.296875 
z
" id="DejaVuSans-100"/>
     <path d="M 12.5 -9.28125 
L 15.921875 -9.28125 
Q 22.75 -9.28125 24.828125 -7.171875 
Q 26.90625 -5.078125 26.90625 1.90625 
L 26.90625 14.015625 
Q 26.90625 21.625 29.09375 25.09375 
Q 31.296875 28.5625 36.71875 29.890625 
Q 31.296875 31.109375 29.09375 34.5625 
Q 26.90625 38.03125 26.90625 45.703125 
L 26.90625 57.8125 
Q 26.90625 64.75 24.828125 66.875 
Q 22.75 69 15.921875 69 
L 12.5 69 
L 12.5 75.984375 
L 15.578125 75.984375 
Q 27.734375 75.984375 31.8125 72.390625 
Q 35.890625 68.796875 35.890625 58.015625 
L 35.890625 46.296875 
Q 35.890625 39.015625 38.515625 36.203125 
Q 41.15625 33.40625 48.09375 33.40625 
L 51.125 33.40625 
L 51.125 26.421875 
L 48.09375 26.421875 
Q 41.15625 26.421875 38.515625 23.578125 
Q 35.890625 20.75 35.890625 13.375 
L 35.890625 1.703125 
Q 35.890625 -9.078125 31.8125 -12.6875 
Q 27.734375 -16.3125 15.578125 -16.3125 
L 12.5 -16.3125 
z
" id="DejaVuSans-125"/>
    </defs>
    <g transform="translate(105.725625 35.472)scale(0.12 -0.12)">
     <use xlink:href="#DejaVuSans-123"/>
     <use x="63.623047" xlink:href="#DejaVuSans-39"/>
     <use x="91.113281" xlink:href="#DejaVuSans-109"/>
     <use x="188.525391" xlink:href="#DejaVuSans-97"/>
     <use x="249.804688" xlink:href="#DejaVuSans-101"/>
     <use x="311.328125" xlink:href="#DejaVuSans-39"/>
     <use x="338.818359" xlink:href="#DejaVuSans-58"/>
     <use x="372.509766" xlink:href="#DejaVuSans-32"/>
     <use x="404.296875" xlink:href="#DejaVuSans-48"/>
     <use x="467.919922" xlink:href="#DejaVuSans-46"/>
     <use x="499.707031" xlink:href="#DejaVuSans-51"/>
     <use x="563.330078" xlink:href="#DejaVuSans-56"/>
     <use x="626.953125" xlink:href="#DejaVuSans-52"/>
     <use x="690.576172" xlink:href="#DejaVuSans-44"/>
     <use x="722.363281" xlink:href="#DejaVuSans-32"/>
     <use x="754.150391" xlink:href="#DejaVuSans-39"/>
     <use x="781.640625" xlink:href="#DejaVuSans-115"/>
     <use x="833.740234" xlink:href="#DejaVuSans-109"/>
     <use x="931.152344" xlink:href="#DejaVuSans-97"/>
     <use x="992.431641" xlink:href="#DejaVuSans-112"/>
     <use x="1055.908203" xlink:href="#DejaVuSans-101"/>
     <use x="1117.431641" xlink:href="#DejaVuSans-39"/>
     <use x="1144.921875" xlink:href="#DejaVuSans-58"/>
     <use x="1178.613281" xlink:href="#DejaVuSans-32"/>
     <use x="1210.400391" xlink:href="#DejaVuSans-48"/>
     <use x="1274.023438" xlink:href="#DejaVuSans-46"/>
     <use x="1305.810547" xlink:href="#DejaVuSans-51"/>
     <use x="1369.433594" xlink:href="#DejaVuSans-57"/>
     <use x="1433.056641" xlink:href="#DejaVuSans-49"/>
     <use x="1496.679688" xlink:href="#DejaVuSans-44"/>
     <use x="1528.466797" xlink:href="#DejaVuSans-32"/>
     <use x="1560.253906" xlink:href="#DejaVuSans-39"/>
     <use x="1587.744141" xlink:href="#DejaVuSans-106"/>
     <use x="1615.527344" xlink:href="#DejaVuSans-115"/>
     <use x="1667.626953" xlink:href="#DejaVuSans-100"/>
     <use x="1731.103516" xlink:href="#DejaVuSans-39"/>
     <use x="1758.59375" xlink:href="#DejaVuSans-58"/>
     <use x="1792.285156" xlink:href="#DejaVuSans-32"/>
     <use x="1824.072266" xlink:href="#DejaVuSans-48"/>
     <use x="1887.695312" xlink:href="#DejaVuSans-46"/>
     <use x="1919.482422" xlink:href="#DejaVuSans-49"/>
     <use x="1983.105469" xlink:href="#DejaVuSans-50"/>
     <use x="2046.728516" xlink:href="#DejaVuSans-51"/>
     <use x="2110.351562" xlink:href="#DejaVuSans-125"/>
    </g>
   </g>
   <g id="legend_1">
    <g id="patch_207">
     <path d="M 340.565313 78.82825 
L 407.72 78.82825 
Q 409.72 78.82825 409.72 76.82825 
L 409.72 48.472 
Q 409.72 46.472 407.72 46.472 
L 340.565313 46.472 
Q 338.565313 46.472 338.565313 48.472 
L 338.565313 76.82825 
Q 338.565313 78.82825 340.565313 78.82825 
z
" style="fill:#ffffff;opacity:0.8;stroke:#cccccc;stroke-linejoin:miter;"/>
    </g>
    <g id="patch_208">
     <path d="M 342.565313 58.070437 
L 362.565313 58.070437 
L 362.565313 51.070437 
L 342.565313 51.070437 
z
" style="fill:#f48024;opacity:0.4;"/>
    </g>
    <g id="text_19">
     <!-- actual -->
     <defs>
      <path d="M 48.78125 52.59375 
L 48.78125 44.1875 
Q 44.96875 46.296875 41.140625 47.34375 
Q 37.3125 48.390625 33.40625 48.390625 
Q 24.65625 48.390625 19.8125 42.84375 
Q 14.984375 37.3125 14.984375 27.296875 
Q 14.984375 17.28125 19.8125 11.734375 
Q 24.65625 6.203125 33.40625 6.203125 
Q 37.3125 6.203125 41.140625 7.25 
Q 44.96875 8.296875 48.78125 10.40625 
L 48.78125 2.09375 
Q 45.015625 0.34375 40.984375 -0.53125 
Q 36.96875 -1.421875 32.421875 -1.421875 
Q 20.0625 -1.421875 12.78125 6.34375 
Q 5.515625 14.109375 5.515625 27.296875 
Q 5.515625 40.671875 12.859375 48.328125 
Q 20.21875 56 33.015625 56 
Q 37.15625 56 41.109375 55.140625 
Q 45.0625 54.296875 48.78125 52.59375 
z
" id="DejaVuSans-99"/>
      <path d="M 18.3125 70.21875 
L 18.3125 54.6875 
L 36.8125 54.6875 
L 36.8125 47.703125 
L 18.3125 47.703125 
L 18.3125 18.015625 
Q 18.3125 11.328125 20.140625 9.421875 
Q 21.96875 7.515625 27.59375 7.515625 
L 36.8125 7.515625 
L 36.8125 0 
L 27.59375 0 
Q 17.1875 0 13.234375 3.875 
Q 9.28125 7.765625 9.28125 18.015625 
L 9.28125 47.703125 
L 2.6875 47.703125 
L 2.6875 54.6875 
L 9.28125 54.6875 
L 9.28125 70.21875 
z
" id="DejaVuSans-116"/>
      <path d="M 8.5 21.578125 
L 8.5 54.6875 
L 17.484375 54.6875 
L 17.484375 21.921875 
Q 17.484375 14.15625 20.5 10.265625 
Q 23.53125 6.390625 29.59375 6.390625 
Q 36.859375 6.390625 41.078125 11.03125 
Q 45.3125 15.671875 45.3125 23.6875 
L 45.3125 54.6875 
L 54.296875 54.6875 
L 54.296875 0 
L 45.3125 0 
L 45.3125 8.40625 
Q 42.046875 3.421875 37.71875 1 
Q 33.40625 -1.421875 27.6875 -1.421875 
Q 18.265625 -1.421875 13.375 4.4375 
Q 8.5 10.296875 8.5 21.578125 
z
M 31.109375 56 
z
" id="DejaVuSans-117"/>
      <path d="M 9.421875 75.984375 
L 18.40625 75.984375 
L 18.40625 0 
L 9.421875 0 
z
" id="DejaVuSans-108"/>
     </defs>
     <g transform="translate(370.565313 58.070437)scale(0.1 -0.1)">
      <use xlink:href="#DejaVuSans-97"/>
      <use x="61.279297" xlink:href="#DejaVuSans-99"/>
      <use x="116.259766" xlink:href="#DejaVuSans-116"/>
      <use x="155.46875" xlink:href="#DejaVuSans-117"/>
      <use x="218.847656" xlink:href="#DejaVuSans-97"/>
      <use x="280.126953" xlink:href="#DejaVuSans-108"/>
     </g>
    </g>
    <g id="patch_209">
     <path d="M 342.565313 72.748562 
L 362.565313 72.748562 
L 362.565313 65.748562 
L 342.565313 65.748562 
z
" style="fill:#008000;opacity:0.4;"/>
    </g>
    <g id="text_20">
     <!-- predict -->
     <defs>
      <path d="M 41.109375 46.296875 
Q 39.59375 47.171875 37.8125 47.578125 
Q 36.03125 48 33.890625 48 
Q 26.265625 48 22.1875 43.046875 
Q 18.109375 38.09375 18.109375 28.8125 
L 18.109375 0 
L 9.078125 0 
L 9.078125 54.6875 
L 18.109375 54.6875 
L 18.109375 46.1875 
Q 20.953125 51.171875 25.484375 53.578125 
Q 30.03125 56 36.53125 56 
Q 37.453125 56 38.578125 55.875 
Q 39.703125 55.765625 41.0625 55.515625 
z
" id="DejaVuSans-114"/>
      <path d="M 9.421875 54.6875 
L 18.40625 54.6875 
L 18.40625 0 
L 9.421875 0 
z
M 9.421875 75.984375 
L 18.40625 75.984375 
L 18.40625 64.59375 
L 9.421875 64.59375 
z
" id="DejaVuSans-105"/>
     </defs>
     <g transform="translate(370.565313 72.748562)scale(0.1 -0.1)">
      <use xlink:href="#DejaVuSans-112"/>
      <use x="63.476562" xlink:href="#DejaVuSans-114"/>
      <use x="104.558594" xlink:href="#DejaVuSans-101"/>
      <use x="166.082031" xlink:href="#DejaVuSans-100"/>
      <use x="229.558594" xlink:href="#DejaVuSans-105"/>
      <use x="257.341797" xlink:href="#DejaVuSans-99"/>
      <use x="312.322266" xlink:href="#DejaVuSans-116"/>
     </g>
    </g>
   </g>
  </g>
 </g>
 <defs>
  <clipPath id="p6106e9df03">
   <rect height="266.112" width="357.12" x="57.6" y="41.472"/>
  </clipPath>
 </defs>
</svg>
