<?xml version="1.0" encoding="utf-8" standalone="no"?>
<!DOCTYPE svg PUBLIC "-//W3C//DTD SVG 1.1//EN"
  "http://www.w3.org/Graphics/SVG/1.1/DTD/svg11.dtd">
<!-- Created with matplotlib (https://matplotlib.org/) -->
<svg height="345.6pt" version="1.1" viewBox="0 0 460.8 345.6" width="460.8pt" xmlns="http://www.w3.org/2000/svg" xmlns:xlink="http://www.w3.org/1999/xlink">
 <defs>
  <style type="text/css">
*{stroke-linecap:butt;stroke-linejoin:round;}
  </style>
 </defs>
 <g id="figure_1">
  <g id="patch_1">
   <path d="M 0 345.6 
L 460.8 345.6 
L 460.8 0 
L 0 0 
z
" style="fill:#ffffff;"/>
  </g>
  <g id="axes_1">
   <g id="patch_2">
    <path d="M 57.6 307.584 
L 414.72 307.584 
L 414.72 41.472 
L 57.6 41.472 
z
" style="fill:#ffffff;"/>
   </g>
   <g id="patch_3">
    <path clip-path="url(#pbd146a58e3)" d="M 113.537375 307.584 
L 115.959877 307.584 
L 115.959877 280.777846 
L 113.537375 280.777846 
z
" style="fill:#f48024;opacity:0.4;"/>
   </g>
   <g id="patch_4">
    <path clip-path="url(#pbd146a58e3)" d="M 115.959877 307.584 
L 118.382379 307.584 
L 118.382379 212.544 
L 115.959877 212.544 
z
" style="fill:#f48024;opacity:0.4;"/>
   </g>
   <g id="patch_5">
    <path clip-path="url(#pbd146a58e3)" d="M 118.382379 307.584 
L 120.80488 307.584 
L 120.80488 171.116308 
L 118.382379 171.116308 
z
" style="fill:#f48024;opacity:0.4;"/>
   </g>
   <g id="patch_6">
    <path clip-path="url(#pbd146a58e3)" d="M 120.80488 307.584 
L 123.227382 307.584 
L 123.227382 227.165538 
L 120.80488 227.165538 
z
" style="fill:#f48024;opacity:0.4;"/>
   </g>
   <g id="patch_7">
    <path clip-path="url(#pbd146a58e3)" d="M 123.227382 307.584 
L 125.649884 307.584 
L 125.649884 214.980923 
L 123.227382 214.980923 
z
" style="fill:#f48024;opacity:0.4;"/>
   </g>
   <g id="patch_8">
    <path clip-path="url(#pbd146a58e3)" d="M 125.649884 307.584 
L 128.072385 307.584 
L 128.072385 224.728615 
L 125.649884 224.728615 
z
" style="fill:#f48024;opacity:0.4;"/>
   </g>
   <g id="patch_9">
    <path clip-path="url(#pbd146a58e3)" d="M 128.072385 307.584 
L 130.494887 307.584 
L 130.494887 154.057846 
L 128.072385 154.057846 
z
" style="fill:#f48024;opacity:0.4;"/>
   </g>
   <g id="patch_10">
    <path clip-path="url(#pbd146a58e3)" d="M 130.494887 307.584 
L 132.917389 307.584 
L 132.917389 98.008615 
L 130.494887 98.008615 
z
" style="fill:#f48024;opacity:0.4;"/>
   </g>
   <g id="patch_11">
    <path clip-path="url(#pbd146a58e3)" d="M 132.917389 307.584 
L 135.33989 307.584 
L 135.33989 85.824 
L 132.917389 85.824 
z
" style="fill:#f48024;opacity:0.4;"/>
   </g>
   <g id="patch_12">
    <path clip-path="url(#pbd146a58e3)" d="M 135.33989 307.584 
L 137.762392 307.584 
L 137.762392 54.144 
L 135.33989 54.144 
z
" style="fill:#f48024;opacity:0.4;"/>
   </g>
   <g id="patch_13">
    <path clip-path="url(#pbd146a58e3)" d="M 137.762392 307.584 
L 140.184893 307.584 
L 140.184893 98.008615 
L 137.762392 98.008615 
z
" style="fill:#f48024;opacity:0.4;"/>
   </g>
   <g id="patch_14">
    <path clip-path="url(#pbd146a58e3)" d="M 140.184893 307.584 
L 142.607395 307.584 
L 142.607395 93.134769 
L 140.184893 93.134769 
z
" style="fill:#f48024;opacity:0.4;"/>
   </g>
   <g id="patch_15">
    <path clip-path="url(#pbd146a58e3)" d="M 142.607395 307.584 
L 145.029897 307.584 
L 145.029897 154.057846 
L 142.607395 154.057846 
z
" style="fill:#f48024;opacity:0.4;"/>
   </g>
   <g id="patch_16">
    <path clip-path="url(#pbd146a58e3)" d="M 145.029897 307.584 
L 147.452398 307.584 
L 147.452398 168.679385 
L 145.029897 168.679385 
z
" style="fill:#f48024;opacity:0.4;"/>
   </g>
   <g id="patch_17">
    <path clip-path="url(#pbd146a58e3)" d="M 147.452398 307.584 
L 149.8749 307.584 
L 149.8749 190.611692 
L 147.452398 190.611692 
z
" style="fill:#f48024;opacity:0.4;"/>
   </g>
   <g id="patch_18">
    <path clip-path="url(#pbd146a58e3)" d="M 149.8749 307.584 
L 152.297402 307.584 
L 152.297402 219.854769 
L 149.8749 219.854769 
z
" style="fill:#f48024;opacity:0.4;"/>
   </g>
   <g id="patch_19">
    <path clip-path="url(#pbd146a58e3)" d="M 152.297402 307.584 
L 154.719903 307.584 
L 154.719903 200.359385 
L 152.297402 200.359385 
z
" style="fill:#f48024;opacity:0.4;"/>
   </g>
   <g id="patch_20">
    <path clip-path="url(#pbd146a58e3)" d="M 154.719903 307.584 
L 157.142405 307.584 
L 157.142405 161.368615 
L 154.719903 161.368615 
z
" style="fill:#f48024;opacity:0.4;"/>
   </g>
   <g id="patch_21">
    <path clip-path="url(#pbd146a58e3)" d="M 157.142405 307.584 
L 159.564906 307.584 
L 159.564906 207.670154 
L 157.142405 207.670154 
z
" style="fill:#f48024;opacity:0.4;"/>
   </g>
   <g id="patch_22">
    <path clip-path="url(#pbd146a58e3)" d="M 159.564906 307.584 
L 161.987408 307.584 
L 161.987408 183.300923 
L 159.564906 183.300923 
z
" style="fill:#f48024;opacity:0.4;"/>
   </g>
   <g id="patch_23">
    <path clip-path="url(#pbd146a58e3)" d="M 161.987408 307.584 
L 164.40991 307.584 
L 164.40991 212.544 
L 161.987408 212.544 
z
" style="fill:#f48024;opacity:0.4;"/>
   </g>
   <g id="patch_24">
    <path clip-path="url(#pbd146a58e3)" d="M 164.40991 307.584 
L 166.832411 307.584 
L 166.832411 185.737846 
L 164.40991 185.737846 
z
" style="fill:#f48024;opacity:0.4;"/>
   </g>
   <g id="patch_25">
    <path clip-path="url(#pbd146a58e3)" d="M 166.832411 307.584 
L 169.254913 307.584 
L 169.254913 205.233231 
L 166.832411 205.233231 
z
" style="fill:#f48024;opacity:0.4;"/>
   </g>
   <g id="patch_26">
    <path clip-path="url(#pbd146a58e3)" d="M 169.254913 307.584 
L 171.677415 307.584 
L 171.677415 202.796308 
L 169.254913 202.796308 
z
" style="fill:#f48024;opacity:0.4;"/>
   </g>
   <g id="patch_27">
    <path clip-path="url(#pbd146a58e3)" d="M 171.677415 307.584 
L 174.099916 307.584 
L 174.099916 212.544 
L 171.677415 212.544 
z
" style="fill:#f48024;opacity:0.4;"/>
   </g>
   <g id="patch_28">
    <path clip-path="url(#pbd146a58e3)" d="M 174.099916 307.584 
L 176.522418 307.584 
L 176.522418 171.116308 
L 174.099916 171.116308 
z
" style="fill:#f48024;opacity:0.4;"/>
   </g>
   <g id="patch_29">
    <path clip-path="url(#pbd146a58e3)" d="M 176.522418 307.584 
L 178.94492 307.584 
L 178.94492 175.990154 
L 176.522418 175.990154 
z
" style="fill:#f48024;opacity:0.4;"/>
   </g>
   <g id="patch_30">
    <path clip-path="url(#pbd146a58e3)" d="M 178.94492 307.584 
L 181.367421 307.584 
L 181.367421 180.864 
L 178.94492 180.864 
z
" style="fill:#f48024;opacity:0.4;"/>
   </g>
   <g id="patch_31">
    <path clip-path="url(#pbd146a58e3)" d="M 181.367421 307.584 
L 183.789923 307.584 
L 183.789923 132.125538 
L 181.367421 132.125538 
z
" style="fill:#f48024;opacity:0.4;"/>
   </g>
   <g id="patch_32">
    <path clip-path="url(#pbd146a58e3)" d="M 183.789923 307.584 
L 186.212424 307.584 
L 186.212424 163.805538 
L 183.789923 163.805538 
z
" style="fill:#f48024;opacity:0.4;"/>
   </g>
   <g id="patch_33">
    <path clip-path="url(#pbd146a58e3)" d="M 186.212424 307.584 
L 188.634926 307.584 
L 188.634926 154.057846 
L 186.212424 154.057846 
z
" style="fill:#f48024;opacity:0.4;"/>
   </g>
   <g id="patch_34">
    <path clip-path="url(#pbd146a58e3)" d="M 188.634926 307.584 
L 191.057428 307.584 
L 191.057428 178.427077 
L 188.634926 178.427077 
z
" style="fill:#f48024;opacity:0.4;"/>
   </g>
   <g id="patch_35">
    <path clip-path="url(#pbd146a58e3)" d="M 191.057428 307.584 
L 193.479929 307.584 
L 193.479929 171.116308 
L 191.057428 171.116308 
z
" style="fill:#f48024;opacity:0.4;"/>
   </g>
   <g id="patch_36">
    <path clip-path="url(#pbd146a58e3)" d="M 193.479929 307.584 
L 195.902431 307.584 
L 195.902431 129.688615 
L 193.479929 129.688615 
z
" style="fill:#f48024;opacity:0.4;"/>
   </g>
   <g id="patch_37">
    <path clip-path="url(#pbd146a58e3)" d="M 195.902431 307.584 
L 198.324933 307.584 
L 198.324933 112.630154 
L 195.902431 112.630154 
z
" style="fill:#f48024;opacity:0.4;"/>
   </g>
   <g id="patch_38">
    <path clip-path="url(#pbd146a58e3)" d="M 198.324933 307.584 
L 200.747434 307.584 
L 200.747434 102.882462 
L 198.324933 102.882462 
z
" style="fill:#f48024;opacity:0.4;"/>
   </g>
   <g id="patch_39">
    <path clip-path="url(#pbd146a58e3)" d="M 200.747434 307.584 
L 203.169936 307.584 
L 203.169936 175.990154 
L 200.747434 175.990154 
z
" style="fill:#f48024;opacity:0.4;"/>
   </g>
   <g id="patch_40">
    <path clip-path="url(#pbd146a58e3)" d="M 203.169936 307.584 
L 205.592437 307.584 
L 205.592437 173.553231 
L 203.169936 173.553231 
z
" style="fill:#f48024;opacity:0.4;"/>
   </g>
   <g id="patch_41">
    <path clip-path="url(#pbd146a58e3)" d="M 205.592437 307.584 
L 208.014939 307.584 
L 208.014939 117.504 
L 205.592437 117.504 
z
" style="fill:#f48024;opacity:0.4;"/>
   </g>
   <g id="patch_42">
    <path clip-path="url(#pbd146a58e3)" d="M 208.014939 307.584 
L 210.437441 307.584 
L 210.437441 63.891692 
L 208.014939 63.891692 
z
" style="fill:#f48024;opacity:0.4;"/>
   </g>
   <g id="patch_43">
    <path clip-path="url(#pbd146a58e3)" d="M 210.437441 307.584 
L 212.859942 307.584 
L 212.859942 102.882462 
L 210.437441 102.882462 
z
" style="fill:#f48024;opacity:0.4;"/>
   </g>
   <g id="patch_44">
    <path clip-path="url(#pbd146a58e3)" d="M 212.859942 307.584 
L 215.282444 307.584 
L 215.282444 124.814769 
L 212.859942 124.814769 
z
" style="fill:#f48024;opacity:0.4;"/>
   </g>
   <g id="patch_45">
    <path clip-path="url(#pbd146a58e3)" d="M 215.282444 307.584 
L 217.704946 307.584 
L 217.704946 141.873231 
L 215.282444 141.873231 
z
" style="fill:#f48024;opacity:0.4;"/>
   </g>
   <g id="patch_46">
    <path clip-path="url(#pbd146a58e3)" d="M 217.704946 307.584 
L 220.127447 307.584 
L 220.127447 200.359385 
L 217.704946 200.359385 
z
" style="fill:#f48024;opacity:0.4;"/>
   </g>
   <g id="patch_47">
    <path clip-path="url(#pbd146a58e3)" d="M 220.127447 307.584 
L 222.549949 307.584 
L 222.549949 175.990154 
L 220.127447 175.990154 
z
" style="fill:#f48024;opacity:0.4;"/>
   </g>
   <g id="patch_48">
    <path clip-path="url(#pbd146a58e3)" d="M 222.549949 307.584 
L 224.972451 307.584 
L 224.972451 197.922462 
L 222.549949 197.922462 
z
" style="fill:#f48024;opacity:0.4;"/>
   </g>
   <g id="patch_49">
    <path clip-path="url(#pbd146a58e3)" d="M 224.972451 307.584 
L 227.394952 307.584 
L 227.394952 229.602462 
L 224.972451 229.602462 
z
" style="fill:#f48024;opacity:0.4;"/>
   </g>
   <g id="patch_50">
    <path clip-path="url(#pbd146a58e3)" d="M 227.394952 307.584 
L 229.817454 307.584 
L 229.817454 263.719385 
L 227.394952 263.719385 
z
" style="fill:#f48024;opacity:0.4;"/>
   </g>
   <g id="patch_51">
    <path clip-path="url(#pbd146a58e3)" d="M 229.817454 307.584 
L 232.239955 307.584 
L 232.239955 246.660923 
L 229.817454 246.660923 
z
" style="fill:#f48024;opacity:0.4;"/>
   </g>
   <g id="patch_52">
    <path clip-path="url(#pbd146a58e3)" d="M 232.239955 307.584 
L 234.662457 307.584 
L 234.662457 246.660923 
L 232.239955 246.660923 
z
" style="fill:#f48024;opacity:0.4;"/>
   </g>
   <g id="patch_53">
    <path clip-path="url(#pbd146a58e3)" d="M 234.662457 307.584 
L 237.084959 307.584 
L 237.084959 246.660923 
L 234.662457 246.660923 
z
" style="fill:#f48024;opacity:0.4;"/>
   </g>
   <g id="patch_54">
    <path clip-path="url(#pbd146a58e3)" d="M 237.084959 307.584 
L 239.50746 307.584 
L 239.50746 241.787077 
L 237.084959 241.787077 
z
" style="fill:#f48024;opacity:0.4;"/>
   </g>
   <g id="patch_55">
    <path clip-path="url(#pbd146a58e3)" d="M 239.50746 307.584 
L 241.929962 307.584 
L 241.929962 246.660923 
L 239.50746 246.660923 
z
" style="fill:#f48024;opacity:0.4;"/>
   </g>
   <g id="patch_56">
    <path clip-path="url(#pbd146a58e3)" d="M 241.929962 307.584 
L 244.352464 307.584 
L 244.352464 263.719385 
L 241.929962 263.719385 
z
" style="fill:#f48024;opacity:0.4;"/>
   </g>
   <g id="patch_57">
    <path clip-path="url(#pbd146a58e3)" d="M 244.352464 307.584 
L 246.774965 307.584 
L 246.774965 219.854769 
L 244.352464 219.854769 
z
" style="fill:#f48024;opacity:0.4;"/>
   </g>
   <g id="patch_58">
    <path clip-path="url(#pbd146a58e3)" d="M 246.774965 307.584 
L 249.197467 307.584 
L 249.197467 234.476308 
L 246.774965 234.476308 
z
" style="fill:#f48024;opacity:0.4;"/>
   </g>
   <g id="patch_59">
    <path clip-path="url(#pbd146a58e3)" d="M 249.197467 307.584 
L 251.619968 307.584 
L 251.619968 253.971692 
L 249.197467 253.971692 
z
" style="fill:#f48024;opacity:0.4;"/>
   </g>
   <g id="patch_60">
    <path clip-path="url(#pbd146a58e3)" d="M 251.619968 307.584 
L 254.04247 307.584 
L 254.04247 234.476308 
L 251.619968 234.476308 
z
" style="fill:#f48024;opacity:0.4;"/>
   </g>
   <g id="patch_61">
    <path clip-path="url(#pbd146a58e3)" d="M 254.04247 307.584 
L 256.464972 307.584 
L 256.464972 241.787077 
L 254.04247 241.787077 
z
" style="fill:#f48024;opacity:0.4;"/>
   </g>
   <g id="patch_62">
    <path clip-path="url(#pbd146a58e3)" d="M 256.464972 307.584 
L 258.887473 307.584 
L 258.887473 249.097846 
L 256.464972 249.097846 
z
" style="fill:#f48024;opacity:0.4;"/>
   </g>
   <g id="patch_63">
    <path clip-path="url(#pbd146a58e3)" d="M 258.887473 307.584 
L 261.309975 307.584 
L 261.309975 256.408615 
L 258.887473 256.408615 
z
" style="fill:#f48024;opacity:0.4;"/>
   </g>
   <g id="patch_64">
    <path clip-path="url(#pbd146a58e3)" d="M 261.309975 307.584 
L 263.732477 307.584 
L 263.732477 261.282462 
L 261.309975 261.282462 
z
" style="fill:#f48024;opacity:0.4;"/>
   </g>
   <g id="patch_65">
    <path clip-path="url(#pbd146a58e3)" d="M 263.732477 307.584 
L 266.154978 307.584 
L 266.154978 263.719385 
L 263.732477 263.719385 
z
" style="fill:#f48024;opacity:0.4;"/>
   </g>
   <g id="patch_66">
    <path clip-path="url(#pbd146a58e3)" d="M 266.154978 307.584 
L 268.57748 307.584 
L 268.57748 292.962462 
L 266.154978 292.962462 
z
" style="fill:#f48024;opacity:0.4;"/>
   </g>
   <g id="patch_67">
    <path clip-path="url(#pbd146a58e3)" d="M 268.57748 307.584 
L 270.999981 307.584 
L 270.999981 261.282462 
L 268.57748 261.282462 
z
" style="fill:#f48024;opacity:0.4;"/>
   </g>
   <g id="patch_68">
    <path clip-path="url(#pbd146a58e3)" d="M 270.999981 307.584 
L 273.422483 307.584 
L 273.422483 239.350154 
L 270.999981 239.350154 
z
" style="fill:#f48024;opacity:0.4;"/>
   </g>
   <g id="patch_69">
    <path clip-path="url(#pbd146a58e3)" d="M 273.422483 307.584 
L 275.844985 307.584 
L 275.844985 266.156308 
L 273.422483 266.156308 
z
" style="fill:#f48024;opacity:0.4;"/>
   </g>
   <g id="patch_70">
    <path clip-path="url(#pbd146a58e3)" d="M 275.844985 307.584 
L 278.267486 307.584 
L 278.267486 275.904 
L 275.844985 275.904 
z
" style="fill:#f48024;opacity:0.4;"/>
   </g>
   <g id="patch_71">
    <path clip-path="url(#pbd146a58e3)" d="M 278.267486 307.584 
L 280.689988 307.584 
L 280.689988 256.408615 
L 278.267486 256.408615 
z
" style="fill:#f48024;opacity:0.4;"/>
   </g>
   <g id="patch_72">
    <path clip-path="url(#pbd146a58e3)" d="M 280.689988 307.584 
L 283.11249 307.584 
L 283.11249 268.593231 
L 280.689988 268.593231 
z
" style="fill:#f48024;opacity:0.4;"/>
   </g>
   <g id="patch_73">
    <path clip-path="url(#pbd146a58e3)" d="M 283.11249 307.584 
L 285.534991 307.584 
L 285.534991 251.534769 
L 283.11249 251.534769 
z
" style="fill:#f48024;opacity:0.4;"/>
   </g>
   <g id="patch_74">
    <path clip-path="url(#pbd146a58e3)" d="M 285.534991 307.584 
L 287.957493 307.584 
L 287.957493 261.282462 
L 285.534991 261.282462 
z
" style="fill:#f48024;opacity:0.4;"/>
   </g>
   <g id="patch_75">
    <path clip-path="url(#pbd146a58e3)" d="M 287.957493 307.584 
L 290.379995 307.584 
L 290.379995 256.408615 
L 287.957493 256.408615 
z
" style="fill:#f48024;opacity:0.4;"/>
   </g>
   <g id="patch_76">
    <path clip-path="url(#pbd146a58e3)" d="M 290.379995 307.584 
L 292.802496 307.584 
L 292.802496 227.165538 
L 290.379995 227.165538 
z
" style="fill:#f48024;opacity:0.4;"/>
   </g>
   <g id="patch_77">
    <path clip-path="url(#pbd146a58e3)" d="M 292.802496 307.584 
L 295.224998 307.584 
L 295.224998 249.097846 
L 292.802496 249.097846 
z
" style="fill:#f48024;opacity:0.4;"/>
   </g>
   <g id="patch_78">
    <path clip-path="url(#pbd146a58e3)" d="M 295.224998 307.584 
L 297.647499 307.584 
L 297.647499 244.224 
L 295.224998 244.224 
z
" style="fill:#f48024;opacity:0.4;"/>
   </g>
   <g id="patch_79">
    <path clip-path="url(#pbd146a58e3)" d="M 297.647499 307.584 
L 300.070001 307.584 
L 300.070001 263.719385 
L 297.647499 263.719385 
z
" style="fill:#f48024;opacity:0.4;"/>
   </g>
   <g id="patch_80">
    <path clip-path="url(#pbd146a58e3)" d="M 300.070001 307.584 
L 302.492503 307.584 
L 302.492503 283.214769 
L 300.070001 283.214769 
z
" style="fill:#f48024;opacity:0.4;"/>
   </g>
   <g id="patch_81">
    <path clip-path="url(#pbd146a58e3)" d="M 302.492503 307.584 
L 304.915004 307.584 
L 304.915004 256.408615 
L 302.492503 256.408615 
z
" style="fill:#f48024;opacity:0.4;"/>
   </g>
   <g id="patch_82">
    <path clip-path="url(#pbd146a58e3)" d="M 304.915004 307.584 
L 307.337506 307.584 
L 307.337506 246.660923 
L 304.915004 246.660923 
z
" style="fill:#f48024;opacity:0.4;"/>
   </g>
   <g id="patch_83">
    <path clip-path="url(#pbd146a58e3)" d="M 307.337506 307.584 
L 309.760008 307.584 
L 309.760008 251.534769 
L 307.337506 251.534769 
z
" style="fill:#f48024;opacity:0.4;"/>
   </g>
   <g id="patch_84">
    <path clip-path="url(#pbd146a58e3)" d="M 309.760008 307.584 
L 312.182509 307.584 
L 312.182509 241.787077 
L 309.760008 241.787077 
z
" style="fill:#f48024;opacity:0.4;"/>
   </g>
   <g id="patch_85">
    <path clip-path="url(#pbd146a58e3)" d="M 312.182509 307.584 
L 314.605011 307.584 
L 314.605011 251.534769 
L 312.182509 251.534769 
z
" style="fill:#f48024;opacity:0.4;"/>
   </g>
   <g id="patch_86">
    <path clip-path="url(#pbd146a58e3)" d="M 314.605011 307.584 
L 317.027512 307.584 
L 317.027512 202.796308 
L 314.605011 202.796308 
z
" style="fill:#f48024;opacity:0.4;"/>
   </g>
   <g id="patch_87">
    <path clip-path="url(#pbd146a58e3)" d="M 317.027512 307.584 
L 319.450014 307.584 
L 319.450014 232.039385 
L 317.027512 232.039385 
z
" style="fill:#f48024;opacity:0.4;"/>
   </g>
   <g id="patch_88">
    <path clip-path="url(#pbd146a58e3)" d="M 319.450014 307.584 
L 321.872516 307.584 
L 321.872516 234.476308 
L 319.450014 234.476308 
z
" style="fill:#f48024;opacity:0.4;"/>
   </g>
   <g id="patch_89">
    <path clip-path="url(#pbd146a58e3)" d="M 321.872516 307.584 
L 324.295017 307.584 
L 324.295017 222.291692 
L 321.872516 222.291692 
z
" style="fill:#f48024;opacity:0.4;"/>
   </g>
   <g id="patch_90">
    <path clip-path="url(#pbd146a58e3)" d="M 324.295017 307.584 
L 326.717519 307.584 
L 326.717519 246.660923 
L 324.295017 246.660923 
z
" style="fill:#f48024;opacity:0.4;"/>
   </g>
   <g id="patch_91">
    <path clip-path="url(#pbd146a58e3)" d="M 326.717519 307.584 
L 329.140021 307.584 
L 329.140021 219.854769 
L 326.717519 219.854769 
z
" style="fill:#f48024;opacity:0.4;"/>
   </g>
   <g id="patch_92">
    <path clip-path="url(#pbd146a58e3)" d="M 329.140021 307.584 
L 331.562522 307.584 
L 331.562522 234.476308 
L 329.140021 234.476308 
z
" style="fill:#f48024;opacity:0.4;"/>
   </g>
   <g id="patch_93">
    <path clip-path="url(#pbd146a58e3)" d="M 331.562522 307.584 
L 333.985024 307.584 
L 333.985024 227.165538 
L 331.562522 227.165538 
z
" style="fill:#f48024;opacity:0.4;"/>
   </g>
   <g id="patch_94">
    <path clip-path="url(#pbd146a58e3)" d="M 333.985024 307.584 
L 336.407526 307.584 
L 336.407526 232.039385 
L 333.985024 232.039385 
z
" style="fill:#f48024;opacity:0.4;"/>
   </g>
   <g id="patch_95">
    <path clip-path="url(#pbd146a58e3)" d="M 336.407526 307.584 
L 338.830027 307.584 
L 338.830027 212.544 
L 336.407526 212.544 
z
" style="fill:#f48024;opacity:0.4;"/>
   </g>
   <g id="patch_96">
    <path clip-path="url(#pbd146a58e3)" d="M 338.830027 307.584 
L 341.252529 307.584 
L 341.252529 249.097846 
L 338.830027 249.097846 
z
" style="fill:#f48024;opacity:0.4;"/>
   </g>
   <g id="patch_97">
    <path clip-path="url(#pbd146a58e3)" d="M 341.252529 307.584 
L 343.67503 307.584 
L 343.67503 249.097846 
L 341.252529 249.097846 
z
" style="fill:#f48024;opacity:0.4;"/>
   </g>
   <g id="patch_98">
    <path clip-path="url(#pbd146a58e3)" d="M 343.67503 307.584 
L 346.097532 307.584 
L 346.097532 251.534769 
L 343.67503 251.534769 
z
" style="fill:#f48024;opacity:0.4;"/>
   </g>
   <g id="patch_99">
    <path clip-path="url(#pbd146a58e3)" d="M 346.097532 307.584 
L 348.520034 307.584 
L 348.520034 266.156308 
L 346.097532 266.156308 
z
" style="fill:#f48024;opacity:0.4;"/>
   </g>
   <g id="patch_100">
    <path clip-path="url(#pbd146a58e3)" d="M 348.520034 307.584 
L 350.942535 307.584 
L 350.942535 285.651692 
L 348.520034 285.651692 
z
" style="fill:#f48024;opacity:0.4;"/>
   </g>
   <g id="patch_101">
    <path clip-path="url(#pbd146a58e3)" d="M 350.942535 307.584 
L 353.365037 307.584 
L 353.365037 288.088615 
L 350.942535 288.088615 
z
" style="fill:#f48024;opacity:0.4;"/>
   </g>
   <g id="patch_102">
    <path clip-path="url(#pbd146a58e3)" d="M 353.365037 307.584 
L 355.787539 307.584 
L 355.787539 302.710154 
L 353.365037 302.710154 
z
" style="fill:#f48024;opacity:0.4;"/>
   </g>
   <g id="patch_103">
    <path clip-path="url(#pbd146a58e3)" d="M 110.660883 307.584 
L 113.170865 307.584 
L 113.170865 291.120079 
L 110.660883 291.120079 
z
" style="fill:#008000;opacity:0.4;"/>
   </g>
   <g id="patch_104">
    <path clip-path="url(#pbd146a58e3)" d="M 113.170865 307.584 
L 115.680848 307.584 
L 115.680848 274.656158 
L 113.170865 274.656158 
z
" style="fill:#008000;opacity:0.4;"/>
   </g>
   <g id="patch_105">
    <path clip-path="url(#pbd146a58e3)" d="M 115.680848 307.584 
L 118.19083 307.584 
L 118.19083 204.096497 
L 115.680848 204.096497 
z
" style="fill:#008000;opacity:0.4;"/>
   </g>
   <g id="patch_106">
    <path clip-path="url(#pbd146a58e3)" d="M 118.19083 307.584 
L 120.700812 307.584 
L 120.700812 208.800474 
L 118.19083 208.800474 
z
" style="fill:#008000;opacity:0.4;"/>
   </g>
   <g id="patch_107">
    <path clip-path="url(#pbd146a58e3)" d="M 120.700812 307.584 
L 123.210795 307.584 
L 123.210795 215.85644 
L 120.700812 215.85644 
z
" style="fill:#008000;opacity:0.4;"/>
   </g>
   <g id="patch_108">
    <path clip-path="url(#pbd146a58e3)" d="M 123.210795 307.584 
L 125.720777 307.584 
L 125.720777 227.616384 
L 123.210795 227.616384 
z
" style="fill:#008000;opacity:0.4;"/>
   </g>
   <g id="patch_109">
    <path clip-path="url(#pbd146a58e3)" d="M 125.720777 307.584 
L 128.230759 307.584 
L 128.230759 185.280587 
L 125.720777 185.280587 
z
" style="fill:#008000;opacity:0.4;"/>
   </g>
   <g id="patch_110">
    <path clip-path="url(#pbd146a58e3)" d="M 128.230759 307.584 
L 130.740742 307.584 
L 130.740742 131.184847 
L 128.230759 131.184847 
z
" style="fill:#008000;opacity:0.4;"/>
   </g>
   <g id="patch_111">
    <path clip-path="url(#pbd146a58e3)" d="M 130.740742 307.584 
L 133.250724 307.584 
L 133.250724 124.128881 
L 130.740742 124.128881 
z
" style="fill:#008000;opacity:0.4;"/>
   </g>
   <g id="patch_112">
    <path clip-path="url(#pbd146a58e3)" d="M 133.250724 307.584 
L 135.760706 307.584 
L 135.760706 72.385129 
L 133.250724 72.385129 
z
" style="fill:#008000;opacity:0.4;"/>
   </g>
   <g id="patch_113">
    <path clip-path="url(#pbd146a58e3)" d="M 135.760706 307.584 
L 138.270689 307.584 
L 138.270689 60.625186 
L 135.760706 60.625186 
z
" style="fill:#008000;opacity:0.4;"/>
   </g>
   <g id="patch_114">
    <path clip-path="url(#pbd146a58e3)" d="M 138.270689 307.584 
L 140.780671 307.584 
L 140.780671 110.016948 
L 138.270689 110.016948 
z
" style="fill:#008000;opacity:0.4;"/>
   </g>
   <g id="patch_115">
    <path clip-path="url(#pbd146a58e3)" d="M 140.780671 307.584 
L 143.290653 307.584 
L 143.290653 133.536836 
L 140.780671 133.536836 
z
" style="fill:#008000;opacity:0.4;"/>
   </g>
   <g id="patch_116">
    <path clip-path="url(#pbd146a58e3)" d="M 143.290653 307.584 
L 145.800636 307.584 
L 145.800636 145.296779 
L 143.290653 145.296779 
z
" style="fill:#008000;opacity:0.4;"/>
   </g>
   <g id="patch_117">
    <path clip-path="url(#pbd146a58e3)" d="M 145.800636 307.584 
L 148.310618 307.584 
L 148.310618 166.464677 
L 145.800636 166.464677 
z
" style="fill:#008000;opacity:0.4;"/>
   </g>
   <g id="patch_118">
    <path clip-path="url(#pbd146a58e3)" d="M 148.310618 307.584 
L 150.8206 307.584 
L 150.8206 211.152463 
L 148.310618 211.152463 
z
" style="fill:#008000;opacity:0.4;"/>
   </g>
   <g id="patch_119">
    <path clip-path="url(#pbd146a58e3)" d="M 150.8206 307.584 
L 153.330583 307.584 
L 153.330583 218.208429 
L 150.8206 218.208429 
z
" style="fill:#008000;opacity:0.4;"/>
   </g>
   <g id="patch_120">
    <path clip-path="url(#pbd146a58e3)" d="M 153.330583 307.584 
L 155.840565 307.584 
L 155.840565 159.408711 
L 153.330583 159.408711 
z
" style="fill:#008000;opacity:0.4;"/>
   </g>
   <g id="patch_121">
    <path clip-path="url(#pbd146a58e3)" d="M 155.840565 307.584 
L 158.350547 307.584 
L 158.350547 187.632576 
L 155.840565 187.632576 
z
" style="fill:#008000;opacity:0.4;"/>
   </g>
   <g id="patch_122">
    <path clip-path="url(#pbd146a58e3)" d="M 158.350547 307.584 
L 160.86053 307.584 
L 160.86053 194.688542 
L 158.350547 194.688542 
z
" style="fill:#008000;opacity:0.4;"/>
   </g>
   <g id="patch_123">
    <path clip-path="url(#pbd146a58e3)" d="M 160.86053 307.584 
L 163.370512 307.584 
L 163.370512 178.224621 
L 160.86053 178.224621 
z
" style="fill:#008000;opacity:0.4;"/>
   </g>
   <g id="patch_124">
    <path clip-path="url(#pbd146a58e3)" d="M 163.370512 307.584 
L 165.880494 307.584 
L 165.880494 222.912406 
L 163.370512 222.912406 
z
" style="fill:#008000;opacity:0.4;"/>
   </g>
   <g id="patch_125">
    <path clip-path="url(#pbd146a58e3)" d="M 165.880494 307.584 
L 168.390477 307.584 
L 168.390477 194.688542 
L 165.880494 194.688542 
z
" style="fill:#008000;opacity:0.4;"/>
   </g>
   <g id="patch_126">
    <path clip-path="url(#pbd146a58e3)" d="M 168.390477 307.584 
L 170.900459 307.584 
L 170.900459 201.744508 
L 168.390477 201.744508 
z
" style="fill:#008000;opacity:0.4;"/>
   </g>
   <g id="patch_127">
    <path clip-path="url(#pbd146a58e3)" d="M 170.900459 307.584 
L 173.410441 307.584 
L 173.410441 220.560418 
L 170.900459 220.560418 
z
" style="fill:#008000;opacity:0.4;"/>
   </g>
   <g id="patch_128">
    <path clip-path="url(#pbd146a58e3)" d="M 173.410441 307.584 
L 175.920424 307.584 
L 175.920424 164.112689 
L 173.410441 164.112689 
z
" style="fill:#008000;opacity:0.4;"/>
   </g>
   <g id="patch_129">
    <path clip-path="url(#pbd146a58e3)" d="M 175.920424 307.584 
L 178.430406 307.584 
L 178.430406 171.168655 
L 175.920424 171.168655 
z
" style="fill:#008000;opacity:0.4;"/>
   </g>
   <g id="patch_130">
    <path clip-path="url(#pbd146a58e3)" d="M 178.430406 307.584 
L 180.940388 307.584 
L 180.940388 164.112689 
L 178.430406 164.112689 
z
" style="fill:#008000;opacity:0.4;"/>
   </g>
   <g id="patch_131">
    <path clip-path="url(#pbd146a58e3)" d="M 180.940388 307.584 
L 183.450371 307.584 
L 183.450371 140.592802 
L 180.940388 140.592802 
z
" style="fill:#008000;opacity:0.4;"/>
   </g>
   <g id="patch_132">
    <path clip-path="url(#pbd146a58e3)" d="M 183.450371 307.584 
L 185.960353 307.584 
L 185.960353 194.688542 
L 183.450371 194.688542 
z
" style="fill:#008000;opacity:0.4;"/>
   </g>
   <g id="patch_133">
    <path clip-path="url(#pbd146a58e3)" d="M 185.960353 307.584 
L 188.470335 307.584 
L 188.470335 159.408711 
L 185.960353 159.408711 
z
" style="fill:#008000;opacity:0.4;"/>
   </g>
   <g id="patch_134">
    <path clip-path="url(#pbd146a58e3)" d="M 188.470335 307.584 
L 190.980318 307.584 
L 190.980318 121.776892 
L 188.470335 121.776892 
z
" style="fill:#008000;opacity:0.4;"/>
   </g>
   <g id="patch_135">
    <path clip-path="url(#pbd146a58e3)" d="M 190.980318 307.584 
L 193.4903 307.584 
L 193.4903 147.648768 
L 190.980318 147.648768 
z
" style="fill:#008000;opacity:0.4;"/>
   </g>
   <g id="patch_136">
    <path clip-path="url(#pbd146a58e3)" d="M 193.4903 307.584 
L 196.000283 307.584 
L 196.000283 112.368937 
L 193.4903 112.368937 
z
" style="fill:#008000;opacity:0.4;"/>
   </g>
   <g id="patch_137">
    <path clip-path="url(#pbd146a58e3)" d="M 196.000283 307.584 
L 198.510265 307.584 
L 198.510265 135.888824 
L 196.000283 135.888824 
z
" style="fill:#008000;opacity:0.4;"/>
   </g>
   <g id="patch_138">
    <path clip-path="url(#pbd146a58e3)" d="M 198.510265 307.584 
L 201.020247 307.584 
L 201.020247 138.240813 
L 198.510265 138.240813 
z
" style="fill:#008000;opacity:0.4;"/>
   </g>
   <g id="patch_139">
    <path clip-path="url(#pbd146a58e3)" d="M 201.020247 307.584 
L 203.53023 307.584 
L 203.53023 150.000757 
L 201.020247 150.000757 
z
" style="fill:#008000;opacity:0.4;"/>
   </g>
   <g id="patch_140">
    <path clip-path="url(#pbd146a58e3)" d="M 203.53023 307.584 
L 206.040212 307.584 
L 206.040212 168.816666 
L 203.53023 168.816666 
z
" style="fill:#008000;opacity:0.4;"/>
   </g>
   <g id="patch_141">
    <path clip-path="url(#pbd146a58e3)" d="M 206.040212 307.584 
L 208.550194 307.584 
L 208.550194 145.296779 
L 206.040212 145.296779 
z
" style="fill:#008000;opacity:0.4;"/>
   </g>
   <g id="patch_142">
    <path clip-path="url(#pbd146a58e3)" d="M 208.550194 307.584 
L 211.060177 307.584 
L 211.060177 93.553028 
L 208.550194 93.553028 
z
" style="fill:#008000;opacity:0.4;"/>
   </g>
   <g id="patch_143">
    <path clip-path="url(#pbd146a58e3)" d="M 211.060177 307.584 
L 213.570159 307.584 
L 213.570159 91.201039 
L 211.060177 91.201039 
z
" style="fill:#008000;opacity:0.4;"/>
   </g>
   <g id="patch_144">
    <path clip-path="url(#pbd146a58e3)" d="M 213.570159 307.584 
L 216.080141 307.584 
L 216.080141 133.536836 
L 213.570159 133.536836 
z
" style="fill:#008000;opacity:0.4;"/>
   </g>
   <g id="patch_145">
    <path clip-path="url(#pbd146a58e3)" d="M 216.080141 307.584 
L 218.590124 307.584 
L 218.590124 145.296779 
L 216.080141 145.296779 
z
" style="fill:#008000;opacity:0.4;"/>
   </g>
   <g id="patch_146">
    <path clip-path="url(#pbd146a58e3)" d="M 218.590124 307.584 
L 221.100106 307.584 
L 221.100106 194.688542 
L 218.590124 194.688542 
z
" style="fill:#008000;opacity:0.4;"/>
   </g>
   <g id="patch_147">
    <path clip-path="url(#pbd146a58e3)" d="M 221.100106 307.584 
L 223.610088 307.584 
L 223.610088 227.616384 
L 221.100106 227.616384 
z
" style="fill:#008000;opacity:0.4;"/>
   </g>
   <g id="patch_148">
    <path clip-path="url(#pbd146a58e3)" d="M 223.610088 307.584 
L 226.120071 307.584 
L 226.120071 215.85644 
L 223.610088 215.85644 
z
" style="fill:#008000;opacity:0.4;"/>
   </g>
   <g id="patch_149">
    <path clip-path="url(#pbd146a58e3)" d="M 226.120071 307.584 
L 228.630053 307.584 
L 228.630053 232.320361 
L 226.120071 232.320361 
z
" style="fill:#008000;opacity:0.4;"/>
   </g>
   <g id="patch_150">
    <path clip-path="url(#pbd146a58e3)" d="M 228.630053 307.584 
L 231.140035 307.584 
L 231.140035 232.320361 
L 228.630053 232.320361 
z
" style="fill:#008000;opacity:0.4;"/>
   </g>
   <g id="patch_151">
    <path clip-path="url(#pbd146a58e3)" d="M 231.140035 307.584 
L 233.650018 307.584 
L 233.650018 239.376327 
L 231.140035 239.376327 
z
" style="fill:#008000;opacity:0.4;"/>
   </g>
   <g id="patch_152">
    <path clip-path="url(#pbd146a58e3)" d="M 233.650018 307.584 
L 236.16 307.584 
L 236.16 251.136271 
L 233.650018 251.136271 
z
" style="fill:#008000;opacity:0.4;"/>
   </g>
   <g id="patch_153">
    <path clip-path="url(#pbd146a58e3)" d="M 236.16 307.584 
L 238.669982 307.584 
L 238.669982 251.136271 
L 236.16 251.136271 
z
" style="fill:#008000;opacity:0.4;"/>
   </g>
   <g id="patch_154">
    <path clip-path="url(#pbd146a58e3)" d="M 238.669982 307.584 
L 241.179965 307.584 
L 241.179965 253.48826 
L 238.669982 253.48826 
z
" style="fill:#008000;opacity:0.4;"/>
   </g>
   <g id="patch_155">
    <path clip-path="url(#pbd146a58e3)" d="M 241.179965 307.584 
L 243.689947 307.584 
L 243.689947 241.728316 
L 241.179965 241.728316 
z
" style="fill:#008000;opacity:0.4;"/>
   </g>
   <g id="patch_156">
    <path clip-path="url(#pbd146a58e3)" d="M 243.689947 307.584 
L 246.199929 307.584 
L 246.199929 241.728316 
L 243.689947 241.728316 
z
" style="fill:#008000;opacity:0.4;"/>
   </g>
   <g id="patch_157">
    <path clip-path="url(#pbd146a58e3)" d="M 246.199929 307.584 
L 248.709912 307.584 
L 248.709912 244.080305 
L 246.199929 244.080305 
z
" style="fill:#008000;opacity:0.4;"/>
   </g>
   <g id="patch_158">
    <path clip-path="url(#pbd146a58e3)" d="M 248.709912 307.584 
L 251.219894 307.584 
L 251.219894 246.432294 
L 248.709912 246.432294 
z
" style="fill:#008000;opacity:0.4;"/>
   </g>
   <g id="patch_159">
    <path clip-path="url(#pbd146a58e3)" d="M 251.219894 307.584 
L 253.729876 307.584 
L 253.729876 218.208429 
L 251.219894 218.208429 
z
" style="fill:#008000;opacity:0.4;"/>
   </g>
   <g id="patch_160">
    <path clip-path="url(#pbd146a58e3)" d="M 253.729876 307.584 
L 256.239859 307.584 
L 256.239859 251.136271 
L 253.729876 251.136271 
z
" style="fill:#008000;opacity:0.4;"/>
   </g>
   <g id="patch_161">
    <path clip-path="url(#pbd146a58e3)" d="M 256.239859 307.584 
L 258.749841 307.584 
L 258.749841 251.136271 
L 256.239859 251.136271 
z
" style="fill:#008000;opacity:0.4;"/>
   </g>
   <g id="patch_162">
    <path clip-path="url(#pbd146a58e3)" d="M 258.749841 307.584 
L 261.259823 307.584 
L 261.259823 267.600192 
L 258.749841 267.600192 
z
" style="fill:#008000;opacity:0.4;"/>
   </g>
   <g id="patch_163">
    <path clip-path="url(#pbd146a58e3)" d="M 261.259823 307.584 
L 263.769806 307.584 
L 263.769806 251.136271 
L 261.259823 251.136271 
z
" style="fill:#008000;opacity:0.4;"/>
   </g>
   <g id="patch_164">
    <path clip-path="url(#pbd146a58e3)" d="M 263.769806 307.584 
L 266.279788 307.584 
L 266.279788 279.360135 
L 263.769806 279.360135 
z
" style="fill:#008000;opacity:0.4;"/>
   </g>
   <g id="patch_165">
    <path clip-path="url(#pbd146a58e3)" d="M 266.279788 307.584 
L 268.78977 307.584 
L 268.78977 267.600192 
L 266.279788 267.600192 
z
" style="fill:#008000;opacity:0.4;"/>
   </g>
   <g id="patch_166">
    <path clip-path="url(#pbd146a58e3)" d="M 268.78977 307.584 
L 271.299753 307.584 
L 271.299753 248.784282 
L 268.78977 248.784282 
z
" style="fill:#008000;opacity:0.4;"/>
   </g>
   <g id="patch_167">
    <path clip-path="url(#pbd146a58e3)" d="M 271.299753 307.584 
L 273.809735 307.584 
L 273.809735 255.840248 
L 271.299753 255.840248 
z
" style="fill:#008000;opacity:0.4;"/>
   </g>
   <g id="patch_168">
    <path clip-path="url(#pbd146a58e3)" d="M 273.809735 307.584 
L 276.319717 307.584 
L 276.319717 272.304169 
L 273.809735 272.304169 
z
" style="fill:#008000;opacity:0.4;"/>
   </g>
   <g id="patch_169">
    <path clip-path="url(#pbd146a58e3)" d="M 276.319717 307.584 
L 278.8297 307.584 
L 278.8297 248.784282 
L 276.319717 248.784282 
z
" style="fill:#008000;opacity:0.4;"/>
   </g>
   <g id="patch_170">
    <path clip-path="url(#pbd146a58e3)" d="M 278.8297 307.584 
L 281.339682 307.584 
L 281.339682 260.544226 
L 278.8297 260.544226 
z
" style="fill:#008000;opacity:0.4;"/>
   </g>
   <g id="patch_171">
    <path clip-path="url(#pbd146a58e3)" d="M 281.339682 307.584 
L 283.849665 307.584 
L 283.849665 269.952181 
L 281.339682 269.952181 
z
" style="fill:#008000;opacity:0.4;"/>
   </g>
   <g id="patch_172">
    <path clip-path="url(#pbd146a58e3)" d="M 283.849665 307.584 
L 286.359647 307.584 
L 286.359647 260.544226 
L 283.849665 260.544226 
z
" style="fill:#008000;opacity:0.4;"/>
   </g>
   <g id="patch_173">
    <path clip-path="url(#pbd146a58e3)" d="M 286.359647 307.584 
L 288.869629 307.584 
L 288.869629 255.840248 
L 286.359647 255.840248 
z
" style="fill:#008000;opacity:0.4;"/>
   </g>
   <g id="patch_174">
    <path clip-path="url(#pbd146a58e3)" d="M 288.869629 307.584 
L 291.379612 307.584 
L 291.379612 253.48826 
L 288.869629 253.48826 
z
" style="fill:#008000;opacity:0.4;"/>
   </g>
   <g id="patch_175">
    <path clip-path="url(#pbd146a58e3)" d="M 291.379612 307.584 
L 293.889594 307.584 
L 293.889594 262.896215 
L 291.379612 262.896215 
z
" style="fill:#008000;opacity:0.4;"/>
   </g>
   <g id="patch_176">
    <path clip-path="url(#pbd146a58e3)" d="M 293.889594 307.584 
L 296.399576 307.584 
L 296.399576 253.48826 
L 293.889594 253.48826 
z
" style="fill:#008000;opacity:0.4;"/>
   </g>
   <g id="patch_177">
    <path clip-path="url(#pbd146a58e3)" d="M 296.399576 307.584 
L 298.909559 307.584 
L 298.909559 253.48826 
L 296.399576 253.48826 
z
" style="fill:#008000;opacity:0.4;"/>
   </g>
   <g id="patch_178">
    <path clip-path="url(#pbd146a58e3)" d="M 298.909559 307.584 
L 301.419541 307.584 
L 301.419541 260.544226 
L 298.909559 260.544226 
z
" style="fill:#008000;opacity:0.4;"/>
   </g>
   <g id="patch_179">
    <path clip-path="url(#pbd146a58e3)" d="M 301.419541 307.584 
L 303.929523 307.584 
L 303.929523 237.024339 
L 301.419541 237.024339 
z
" style="fill:#008000;opacity:0.4;"/>
   </g>
   <g id="patch_180">
    <path clip-path="url(#pbd146a58e3)" d="M 303.929523 307.584 
L 306.439506 307.584 
L 306.439506 253.48826 
L 303.929523 253.48826 
z
" style="fill:#008000;opacity:0.4;"/>
   </g>
   <g id="patch_181">
    <path clip-path="url(#pbd146a58e3)" d="M 306.439506 307.584 
L 308.949488 307.584 
L 308.949488 244.080305 
L 306.439506 244.080305 
z
" style="fill:#008000;opacity:0.4;"/>
   </g>
   <g id="patch_182">
    <path clip-path="url(#pbd146a58e3)" d="M 308.949488 307.584 
L 311.45947 307.584 
L 311.45947 246.432294 
L 308.949488 246.432294 
z
" style="fill:#008000;opacity:0.4;"/>
   </g>
   <g id="patch_183">
    <path clip-path="url(#pbd146a58e3)" d="M 311.45947 307.584 
L 313.969453 307.584 
L 313.969453 234.67235 
L 311.45947 234.67235 
z
" style="fill:#008000;opacity:0.4;"/>
   </g>
   <g id="patch_184">
    <path clip-path="url(#pbd146a58e3)" d="M 313.969453 307.584 
L 316.479435 307.584 
L 316.479435 248.784282 
L 313.969453 248.784282 
z
" style="fill:#008000;opacity:0.4;"/>
   </g>
   <g id="patch_185">
    <path clip-path="url(#pbd146a58e3)" d="M 316.479435 307.584 
L 318.989417 307.584 
L 318.989417 227.616384 
L 316.479435 227.616384 
z
" style="fill:#008000;opacity:0.4;"/>
   </g>
   <g id="patch_186">
    <path clip-path="url(#pbd146a58e3)" d="M 318.989417 307.584 
L 321.4994 307.584 
L 321.4994 227.616384 
L 318.989417 227.616384 
z
" style="fill:#008000;opacity:0.4;"/>
   </g>
   <g id="patch_187">
    <path clip-path="url(#pbd146a58e3)" d="M 321.4994 307.584 
L 324.009382 307.584 
L 324.009382 208.800474 
L 321.4994 208.800474 
z
" style="fill:#008000;opacity:0.4;"/>
   </g>
   <g id="patch_188">
    <path clip-path="url(#pbd146a58e3)" d="M 324.009382 307.584 
L 326.519364 307.584 
L 326.519364 229.968373 
L 324.009382 229.968373 
z
" style="fill:#008000;opacity:0.4;"/>
   </g>
   <g id="patch_189">
    <path clip-path="url(#pbd146a58e3)" d="M 326.519364 307.584 
L 329.029347 307.584 
L 329.029347 255.840248 
L 326.519364 255.840248 
z
" style="fill:#008000;opacity:0.4;"/>
   </g>
   <g id="patch_190">
    <path clip-path="url(#pbd146a58e3)" d="M 329.029347 307.584 
L 331.539329 307.584 
L 331.539329 227.616384 
L 329.029347 227.616384 
z
" style="fill:#008000;opacity:0.4;"/>
   </g>
   <g id="patch_191">
    <path clip-path="url(#pbd146a58e3)" d="M 331.539329 307.584 
L 334.049311 307.584 
L 334.049311 239.376327 
L 331.539329 239.376327 
z
" style="fill:#008000;opacity:0.4;"/>
   </g>
   <g id="patch_192">
    <path clip-path="url(#pbd146a58e3)" d="M 334.049311 307.584 
L 336.559294 307.584 
L 336.559294 227.616384 
L 334.049311 227.616384 
z
" style="fill:#008000;opacity:0.4;"/>
   </g>
   <g id="patch_193">
    <path clip-path="url(#pbd146a58e3)" d="M 336.559294 307.584 
L 339.069276 307.584 
L 339.069276 229.968373 
L 336.559294 229.968373 
z
" style="fill:#008000;opacity:0.4;"/>
   </g>
   <g id="patch_194">
    <path clip-path="url(#pbd146a58e3)" d="M 339.069276 307.584 
L 341.579258 307.584 
L 341.579258 255.840248 
L 339.069276 255.840248 
z
" style="fill:#008000;opacity:0.4;"/>
   </g>
   <g id="patch_195">
    <path clip-path="url(#pbd146a58e3)" d="M 341.579258 307.584 
L 344.089241 307.584 
L 344.089241 262.896215 
L 341.579258 262.896215 
z
" style="fill:#008000;opacity:0.4;"/>
   </g>
   <g id="patch_196">
    <path clip-path="url(#pbd146a58e3)" d="M 344.089241 307.584 
L 346.599223 307.584 
L 346.599223 269.952181 
L 344.089241 269.952181 
z
" style="fill:#008000;opacity:0.4;"/>
   </g>
   <g id="patch_197">
    <path clip-path="url(#pbd146a58e3)" d="M 346.599223 307.584 
L 349.109205 307.584 
L 349.109205 291.120079 
L 346.599223 291.120079 
z
" style="fill:#008000;opacity:0.4;"/>
   </g>
   <g id="patch_198">
    <path clip-path="url(#pbd146a58e3)" d="M 349.109205 307.584 
L 351.619188 307.584 
L 351.619188 279.360135 
L 349.109205 279.360135 
z
" style="fill:#008000;opacity:0.4;"/>
   </g>
   <g id="patch_199">
    <path clip-path="url(#pbd146a58e3)" d="M 351.619188 307.584 
L 354.12917 307.584 
L 354.12917 288.76809 
L 351.619188 288.76809 
z
" style="fill:#008000;opacity:0.4;"/>
   </g>
   <g id="patch_200">
    <path clip-path="url(#pbd146a58e3)" d="M 354.12917 307.584 
L 356.639152 307.584 
L 356.639152 293.472068 
L 354.12917 293.472068 
z
" style="fill:#008000;opacity:0.4;"/>
   </g>
   <g id="patch_201">
    <path clip-path="url(#pbd146a58e3)" d="M 356.639152 307.584 
L 359.149135 307.584 
L 359.149135 291.120079 
L 356.639152 291.120079 
z
" style="fill:#008000;opacity:0.4;"/>
   </g>
   <g id="patch_202">
    <path clip-path="url(#pbd146a58e3)" d="M 359.149135 307.584 
L 361.659117 307.584 
L 361.659117 302.880023 
L 359.149135 302.880023 
z
" style="fill:#008000;opacity:0.4;"/>
   </g>
   <g id="matplotlib.axis_1">
    <g id="xtick_1">
     <g id="line2d_1">
      <defs>
       <path d="M 0 0 
L 0 3.5 
" id="ma9fd0f75fe" style="stroke:#000000;stroke-width:0.8;"/>
      </defs>
      <g>
       <use style="stroke:#000000;stroke-width:0.8;" x="116.79928" xlink:href="#ma9fd0f75fe" y="307.584"/>
      </g>
     </g>
     <g id="text_1">
      <!-- 2000 -->
      <defs>
       <path d="M 19.1875 8.296875 
L 53.609375 8.296875 
L 53.609375 0 
L 7.328125 0 
L 7.328125 8.296875 
Q 12.9375 14.109375 22.625 23.890625 
Q 32.328125 33.6875 34.8125 36.53125 
Q 39.546875 41.84375 41.421875 45.53125 
Q 43.3125 49.21875 43.3125 52.78125 
Q 43.3125 58.59375 39.234375 62.25 
Q 35.15625 65.921875 28.609375 65.921875 
Q 23.96875 65.921875 18.8125 64.3125 
Q 13.671875 62.703125 7.8125 59.421875 
L 7.8125 69.390625 
Q 13.765625 71.78125 18.9375 73 
Q 24.125 74.21875 28.421875 74.21875 
Q 39.75 74.21875 46.484375 68.546875 
Q 53.21875 62.890625 53.21875 53.421875 
Q 53.21875 48.921875 51.53125 44.890625 
Q 49.859375 40.875 45.40625 35.40625 
Q 44.1875 33.984375 37.640625 27.21875 
Q 31.109375 20.453125 19.1875 8.296875 
z
" id="DejaVuSans-50"/>
       <path d="M 31.78125 66.40625 
Q 24.171875 66.40625 20.328125 58.90625 
Q 16.5 51.421875 16.5 36.375 
Q 16.5 21.390625 20.328125 13.890625 
Q 24.171875 6.390625 31.78125 6.390625 
Q 39.453125 6.390625 43.28125 13.890625 
Q 47.125 21.390625 47.125 36.375 
Q 47.125 51.421875 43.28125 58.90625 
Q 39.453125 66.40625 31.78125 66.40625 
z
M 31.78125 74.21875 
Q 44.046875 74.21875 50.515625 64.515625 
Q 56.984375 54.828125 56.984375 36.375 
Q 56.984375 17.96875 50.515625 8.265625 
Q 44.046875 -1.421875 31.78125 -1.421875 
Q 19.53125 -1.421875 13.0625 8.265625 
Q 6.59375 17.96875 6.59375 36.375 
Q 6.59375 54.828125 13.0625 64.515625 
Q 19.53125 74.21875 31.78125 74.21875 
z
" id="DejaVuSans-48"/>
      </defs>
      <g transform="translate(104.07428 322.182437)scale(0.1 -0.1)">
       <use xlink:href="#DejaVuSans-50"/>
       <use x="63.623047" xlink:href="#DejaVuSans-48"/>
       <use x="127.246094" xlink:href="#DejaVuSans-48"/>
       <use x="190.869141" xlink:href="#DejaVuSans-48"/>
      </g>
     </g>
    </g>
    <g id="xtick_2">
     <g id="line2d_2">
      <g>
       <use style="stroke:#000000;stroke-width:0.8;" x="195.536944" xlink:href="#ma9fd0f75fe" y="307.584"/>
      </g>
     </g>
     <g id="text_2">
      <!-- 4000 -->
      <defs>
       <path d="M 37.796875 64.3125 
L 12.890625 25.390625 
L 37.796875 25.390625 
z
M 35.203125 72.90625 
L 47.609375 72.90625 
L 47.609375 25.390625 
L 58.015625 25.390625 
L 58.015625 17.1875 
L 47.609375 17.1875 
L 47.609375 0 
L 37.796875 0 
L 37.796875 17.1875 
L 4.890625 17.1875 
L 4.890625 26.703125 
z
" id="DejaVuSans-52"/>
      </defs>
      <g transform="translate(182.811944 322.182437)scale(0.1 -0.1)">
       <use xlink:href="#DejaVuSans-52"/>
       <use x="63.623047" xlink:href="#DejaVuSans-48"/>
       <use x="127.246094" xlink:href="#DejaVuSans-48"/>
       <use x="190.869141" xlink:href="#DejaVuSans-48"/>
      </g>
     </g>
    </g>
    <g id="xtick_3">
     <g id="line2d_3">
      <g>
       <use style="stroke:#000000;stroke-width:0.8;" x="274.274608" xlink:href="#ma9fd0f75fe" y="307.584"/>
      </g>
     </g>
     <g id="text_3">
      <!-- 6000 -->
      <defs>
       <path d="M 33.015625 40.375 
Q 26.375 40.375 22.484375 35.828125 
Q 18.609375 31.296875 18.609375 23.390625 
Q 18.609375 15.53125 22.484375 10.953125 
Q 26.375 6.390625 33.015625 6.390625 
Q 39.65625 6.390625 43.53125 10.953125 
Q 47.40625 15.53125 47.40625 23.390625 
Q 47.40625 31.296875 43.53125 35.828125 
Q 39.65625 40.375 33.015625 40.375 
z
M 52.59375 71.296875 
L 52.59375 62.3125 
Q 48.875 64.0625 45.09375 64.984375 
Q 41.3125 65.921875 37.59375 65.921875 
Q 27.828125 65.921875 22.671875 59.328125 
Q 17.53125 52.734375 16.796875 39.40625 
Q 19.671875 43.65625 24.015625 45.921875 
Q 28.375 48.1875 33.59375 48.1875 
Q 44.578125 48.1875 50.953125 41.515625 
Q 57.328125 34.859375 57.328125 23.390625 
Q 57.328125 12.15625 50.6875 5.359375 
Q 44.046875 -1.421875 33.015625 -1.421875 
Q 20.359375 -1.421875 13.671875 8.265625 
Q 6.984375 17.96875 6.984375 36.375 
Q 6.984375 53.65625 15.1875 63.9375 
Q 23.390625 74.21875 37.203125 74.21875 
Q 40.921875 74.21875 44.703125 73.484375 
Q 48.484375 72.75 52.59375 71.296875 
z
" id="DejaVuSans-54"/>
      </defs>
      <g transform="translate(261.549608 322.182437)scale(0.1 -0.1)">
       <use xlink:href="#DejaVuSans-54"/>
       <use x="63.623047" xlink:href="#DejaVuSans-48"/>
       <use x="127.246094" xlink:href="#DejaVuSans-48"/>
       <use x="190.869141" xlink:href="#DejaVuSans-48"/>
      </g>
     </g>
    </g>
    <g id="xtick_4">
     <g id="line2d_4">
      <g>
       <use style="stroke:#000000;stroke-width:0.8;" x="353.012272" xlink:href="#ma9fd0f75fe" y="307.584"/>
      </g>
     </g>
     <g id="text_4">
      <!-- 8000 -->
      <defs>
       <path d="M 31.78125 34.625 
Q 24.75 34.625 20.71875 30.859375 
Q 16.703125 27.09375 16.703125 20.515625 
Q 16.703125 13.921875 20.71875 10.15625 
Q 24.75 6.390625 31.78125 6.390625 
Q 38.8125 6.390625 42.859375 10.171875 
Q 46.921875 13.96875 46.921875 20.515625 
Q 46.921875 27.09375 42.890625 30.859375 
Q 38.875 34.625 31.78125 34.625 
z
M 21.921875 38.8125 
Q 15.578125 40.375 12.03125 44.71875 
Q 8.5 49.078125 8.5 55.328125 
Q 8.5 64.0625 14.71875 69.140625 
Q 20.953125 74.21875 31.78125 74.21875 
Q 42.671875 74.21875 48.875 69.140625 
Q 55.078125 64.0625 55.078125 55.328125 
Q 55.078125 49.078125 51.53125 44.71875 
Q 48 40.375 41.703125 38.8125 
Q 48.828125 37.15625 52.796875 32.3125 
Q 56.78125 27.484375 56.78125 20.515625 
Q 56.78125 9.90625 50.3125 4.234375 
Q 43.84375 -1.421875 31.78125 -1.421875 
Q 19.734375 -1.421875 13.25 4.234375 
Q 6.78125 9.90625 6.78125 20.515625 
Q 6.78125 27.484375 10.78125 32.3125 
Q 14.796875 37.15625 21.921875 38.8125 
z
M 18.3125 54.390625 
Q 18.3125 48.734375 21.84375 45.5625 
Q 25.390625 42.390625 31.78125 42.390625 
Q 38.140625 42.390625 41.71875 45.5625 
Q 45.3125 48.734375 45.3125 54.390625 
Q 45.3125 60.0625 41.71875 63.234375 
Q 38.140625 66.40625 31.78125 66.40625 
Q 25.390625 66.40625 21.84375 63.234375 
Q 18.3125 60.0625 18.3125 54.390625 
z
" id="DejaVuSans-56"/>
      </defs>
      <g transform="translate(340.287272 322.182437)scale(0.1 -0.1)">
       <use xlink:href="#DejaVuSans-56"/>
       <use x="63.623047" xlink:href="#DejaVuSans-48"/>
       <use x="127.246094" xlink:href="#DejaVuSans-48"/>
       <use x="190.869141" xlink:href="#DejaVuSans-48"/>
      </g>
     </g>
    </g>
   </g>
   <g id="matplotlib.axis_2">
    <g id="ytick_1">
     <g id="line2d_5">
      <defs>
       <path d="M 0 0 
L -3.5 0 
" id="mde0565940c" style="stroke:#000000;stroke-width:0.8;"/>
      </defs>
      <g>
       <use style="stroke:#000000;stroke-width:0.8;" x="57.6" xlink:href="#mde0565940c" y="307.584"/>
      </g>
     </g>
     <g id="text_5">
      <!-- 0.00000 -->
      <defs>
       <path d="M 10.6875 12.40625 
L 21 12.40625 
L 21 0 
L 10.6875 0 
z
" id="DejaVuSans-46"/>
      </defs>
      <g transform="translate(9.246875 311.383219)scale(0.1 -0.1)">
       <use xlink:href="#DejaVuSans-48"/>
       <use x="63.623047" xlink:href="#DejaVuSans-46"/>
       <use x="95.410156" xlink:href="#DejaVuSans-48"/>
       <use x="159.033203" xlink:href="#DejaVuSans-48"/>
       <use x="222.65625" xlink:href="#DejaVuSans-48"/>
       <use x="286.279297" xlink:href="#DejaVuSans-48"/>
       <use x="349.902344" xlink:href="#DejaVuSans-48"/>
      </g>
     </g>
    </g>
    <g id="ytick_2">
     <g id="line2d_6">
      <g>
       <use style="stroke:#000000;stroke-width:0.8;" x="57.6" xlink:href="#mde0565940c" y="277.773467"/>
      </g>
     </g>
     <g id="text_6">
      <!-- 0.00005 -->
      <defs>
       <path d="M 10.796875 72.90625 
L 49.515625 72.90625 
L 49.515625 64.59375 
L 19.828125 64.59375 
L 19.828125 46.734375 
Q 21.96875 47.46875 24.109375 47.828125 
Q 26.265625 48.1875 28.421875 48.1875 
Q 40.625 48.1875 47.75 41.5 
Q 54.890625 34.8125 54.890625 23.390625 
Q 54.890625 11.625 47.5625 5.09375 
Q 40.234375 -1.421875 26.90625 -1.421875 
Q 22.3125 -1.421875 17.546875 -0.640625 
Q 12.796875 0.140625 7.71875 1.703125 
L 7.71875 11.625 
Q 12.109375 9.234375 16.796875 8.0625 
Q 21.484375 6.890625 26.703125 6.890625 
Q 35.15625 6.890625 40.078125 11.328125 
Q 45.015625 15.765625 45.015625 23.390625 
Q 45.015625 31 40.078125 35.4375 
Q 35.15625 39.890625 26.703125 39.890625 
Q 22.75 39.890625 18.8125 39.015625 
Q 14.890625 38.140625 10.796875 36.28125 
z
" id="DejaVuSans-53"/>
      </defs>
      <g transform="translate(9.246875 281.572685)scale(0.1 -0.1)">
       <use xlink:href="#DejaVuSans-48"/>
       <use x="63.623047" xlink:href="#DejaVuSans-46"/>
       <use x="95.410156" xlink:href="#DejaVuSans-48"/>
       <use x="159.033203" xlink:href="#DejaVuSans-48"/>
       <use x="222.65625" xlink:href="#DejaVuSans-48"/>
       <use x="286.279297" xlink:href="#DejaVuSans-48"/>
       <use x="349.902344" xlink:href="#DejaVuSans-53"/>
      </g>
     </g>
    </g>
    <g id="ytick_3">
     <g id="line2d_7">
      <g>
       <use style="stroke:#000000;stroke-width:0.8;" x="57.6" xlink:href="#mde0565940c" y="247.962933"/>
      </g>
     </g>
     <g id="text_7">
      <!-- 0.00010 -->
      <defs>
       <path d="M 12.40625 8.296875 
L 28.515625 8.296875 
L 28.515625 63.921875 
L 10.984375 60.40625 
L 10.984375 69.390625 
L 28.421875 72.90625 
L 38.28125 72.90625 
L 38.28125 8.296875 
L 54.390625 8.296875 
L 54.390625 0 
L 12.40625 0 
z
" id="DejaVuSans-49"/>
      </defs>
      <g transform="translate(9.246875 251.762152)scale(0.1 -0.1)">
       <use xlink:href="#DejaVuSans-48"/>
       <use x="63.623047" xlink:href="#DejaVuSans-46"/>
       <use x="95.410156" xlink:href="#DejaVuSans-48"/>
       <use x="159.033203" xlink:href="#DejaVuSans-48"/>
       <use x="222.65625" xlink:href="#DejaVuSans-48"/>
       <use x="286.279297" xlink:href="#DejaVuSans-49"/>
       <use x="349.902344" xlink:href="#DejaVuSans-48"/>
      </g>
     </g>
    </g>
    <g id="ytick_4">
     <g id="line2d_8">
      <g>
       <use style="stroke:#000000;stroke-width:0.8;" x="57.6" xlink:href="#mde0565940c" y="218.1524"/>
      </g>
     </g>
     <g id="text_8">
      <!-- 0.00015 -->
      <g transform="translate(9.246875 221.951618)scale(0.1 -0.1)">
       <use xlink:href="#DejaVuSans-48"/>
       <use x="63.623047" xlink:href="#DejaVuSans-46"/>
       <use x="95.410156" xlink:href="#DejaVuSans-48"/>
       <use x="159.033203" xlink:href="#DejaVuSans-48"/>
       <use x="222.65625" xlink:href="#DejaVuSans-48"/>
       <use x="286.279297" xlink:href="#DejaVuSans-49"/>
       <use x="349.902344" xlink:href="#DejaVuSans-53"/>
      </g>
     </g>
    </g>
    <g id="ytick_5">
     <g id="line2d_9">
      <g>
       <use style="stroke:#000000;stroke-width:0.8;" x="57.6" xlink:href="#mde0565940c" y="188.341866"/>
      </g>
     </g>
     <g id="text_9">
      <!-- 0.00020 -->
      <g transform="translate(9.246875 192.141085)scale(0.1 -0.1)">
       <use xlink:href="#DejaVuSans-48"/>
       <use x="63.623047" xlink:href="#DejaVuSans-46"/>
       <use x="95.410156" xlink:href="#DejaVuSans-48"/>
       <use x="159.033203" xlink:href="#DejaVuSans-48"/>
       <use x="222.65625" xlink:href="#DejaVuSans-48"/>
       <use x="286.279297" xlink:href="#DejaVuSans-50"/>
       <use x="349.902344" xlink:href="#DejaVuSans-48"/>
      </g>
     </g>
    </g>
    <g id="ytick_6">
     <g id="line2d_10">
      <g>
       <use style="stroke:#000000;stroke-width:0.8;" x="57.6" xlink:href="#mde0565940c" y="158.531333"/>
      </g>
     </g>
     <g id="text_10">
      <!-- 0.00025 -->
      <g transform="translate(9.246875 162.330551)scale(0.1 -0.1)">
       <use xlink:href="#DejaVuSans-48"/>
       <use x="63.623047" xlink:href="#DejaVuSans-46"/>
       <use x="95.410156" xlink:href="#DejaVuSans-48"/>
       <use x="159.033203" xlink:href="#DejaVuSans-48"/>
       <use x="222.65625" xlink:href="#DejaVuSans-48"/>
       <use x="286.279297" xlink:href="#DejaVuSans-50"/>
       <use x="349.902344" xlink:href="#DejaVuSans-53"/>
      </g>
     </g>
    </g>
    <g id="ytick_7">
     <g id="line2d_11">
      <g>
       <use style="stroke:#000000;stroke-width:0.8;" x="57.6" xlink:href="#mde0565940c" y="128.720799"/>
      </g>
     </g>
     <g id="text_11">
      <!-- 0.00030 -->
      <defs>
       <path d="M 40.578125 39.3125 
Q 47.65625 37.796875 51.625 33 
Q 55.609375 28.21875 55.609375 21.1875 
Q 55.609375 10.40625 48.1875 4.484375 
Q 40.765625 -1.421875 27.09375 -1.421875 
Q 22.515625 -1.421875 17.65625 -0.515625 
Q 12.796875 0.390625 7.625 2.203125 
L 7.625 11.71875 
Q 11.71875 9.328125 16.59375 8.109375 
Q 21.484375 6.890625 26.8125 6.890625 
Q 36.078125 6.890625 40.9375 10.546875 
Q 45.796875 14.203125 45.796875 21.1875 
Q 45.796875 27.640625 41.28125 31.265625 
Q 36.765625 34.90625 28.71875 34.90625 
L 20.21875 34.90625 
L 20.21875 43.015625 
L 29.109375 43.015625 
Q 36.375 43.015625 40.234375 45.921875 
Q 44.09375 48.828125 44.09375 54.296875 
Q 44.09375 59.90625 40.109375 62.90625 
Q 36.140625 65.921875 28.71875 65.921875 
Q 24.65625 65.921875 20.015625 65.03125 
Q 15.375 64.15625 9.8125 62.3125 
L 9.8125 71.09375 
Q 15.4375 72.65625 20.34375 73.4375 
Q 25.25 74.21875 29.59375 74.21875 
Q 40.828125 74.21875 47.359375 69.109375 
Q 53.90625 64.015625 53.90625 55.328125 
Q 53.90625 49.265625 50.4375 45.09375 
Q 46.96875 40.921875 40.578125 39.3125 
z
" id="DejaVuSans-51"/>
      </defs>
      <g transform="translate(9.246875 132.520018)scale(0.1 -0.1)">
       <use xlink:href="#DejaVuSans-48"/>
       <use x="63.623047" xlink:href="#DejaVuSans-46"/>
       <use x="95.410156" xlink:href="#DejaVuSans-48"/>
       <use x="159.033203" xlink:href="#DejaVuSans-48"/>
       <use x="222.65625" xlink:href="#DejaVuSans-48"/>
       <use x="286.279297" xlink:href="#DejaVuSans-51"/>
       <use x="349.902344" xlink:href="#DejaVuSans-48"/>
      </g>
     </g>
    </g>
    <g id="ytick_8">
     <g id="line2d_12">
      <g>
       <use style="stroke:#000000;stroke-width:0.8;" x="57.6" xlink:href="#mde0565940c" y="98.910266"/>
      </g>
     </g>
     <g id="text_12">
      <!-- 0.00035 -->
      <g transform="translate(9.246875 102.709484)scale(0.1 -0.1)">
       <use xlink:href="#DejaVuSans-48"/>
       <use x="63.623047" xlink:href="#DejaVuSans-46"/>
       <use x="95.410156" xlink:href="#DejaVuSans-48"/>
       <use x="159.033203" xlink:href="#DejaVuSans-48"/>
       <use x="222.65625" xlink:href="#DejaVuSans-48"/>
       <use x="286.279297" xlink:href="#DejaVuSans-51"/>
       <use x="349.902344" xlink:href="#DejaVuSans-53"/>
      </g>
     </g>
    </g>
    <g id="ytick_9">
     <g id="line2d_13">
      <g>
       <use style="stroke:#000000;stroke-width:0.8;" x="57.6" xlink:href="#mde0565940c" y="69.099732"/>
      </g>
     </g>
     <g id="text_13">
      <!-- 0.00040 -->
      <g transform="translate(9.246875 72.898951)scale(0.1 -0.1)">
       <use xlink:href="#DejaVuSans-48"/>
       <use x="63.623047" xlink:href="#DejaVuSans-46"/>
       <use x="95.410156" xlink:href="#DejaVuSans-48"/>
       <use x="159.033203" xlink:href="#DejaVuSans-48"/>
       <use x="222.65625" xlink:href="#DejaVuSans-48"/>
       <use x="286.279297" xlink:href="#DejaVuSans-52"/>
       <use x="349.902344" xlink:href="#DejaVuSans-48"/>
      </g>
     </g>
    </g>
   </g>
   <g id="line2d_14">
    <path clip-path="url(#pbd146a58e3)" d="M 76.61111 307.496218 
L 79.804067 307.377274 
L 82.997023 307.126058 
L 86.18998 306.628887 
L 89.382936 305.706337 
L 92.575893 304.099914 
L 95.768849 301.472153 
L 98.961806 297.428695 
L 102.154762 291.566461 
L 105.347719 283.544051 
L 108.540675 273.161987 
L 111.733632 260.435982 
L 114.926588 245.648081 
L 118.119545 229.366227 
L 121.312501 212.427237 
L 124.505458 195.878355 
L 127.698414 180.871486 
L 130.891371 168.509933 
L 134.084327 159.664701 
L 137.277284 154.800835 
L 140.47024 153.868362 
L 143.663197 156.302645 
L 146.856153 161.14382 
L 150.04911 167.240164 
L 153.242066 173.46972 
L 156.435023 178.914393 
L 159.627979 182.949078 
L 162.820936 185.247186 
L 166.013892 185.732032 
L 169.206849 184.509804 
L 172.399805 181.808103 
L 175.592762 177.927272 
L 178.785718 173.201941 
L 181.978675 167.970493 
L 185.171631 162.555665 
L 188.364588 157.262232 
L 191.557544 152.393638 
L 194.750501 148.280129 
L 197.943457 145.301714 
L 201.136414 143.88599 
L 204.32937 144.466393 
L 207.522327 147.40072 
L 210.715283 152.868214 
L 213.90824 160.778632 
L 217.101196 170.730322 
L 220.294153 182.042122 
L 223.487109 193.859278 
L 226.680066 205.306894 
L 229.873022 215.647552 
L 233.065979 224.399669 
L 236.258935 231.388442 
L 239.451892 236.723904 
L 242.644848 240.721369 
L 245.837805 243.791926 
L 249.030761 246.333255 
L 252.223718 248.645568 
L 255.416674 250.887473 
L 258.609631 253.074823 
L 261.802587 255.114906 
L 264.995544 256.860884 
L 268.1885 258.168969 
L 271.381457 258.943509 
L 274.574413 259.161359 
L 277.76737 258.873484 
L 280.960326 258.186657 
L 284.153283 257.231049 
L 287.346239 256.121906 
L 290.539196 254.925909 
L 293.732152 253.643852 
L 296.925109 252.218157 
L 300.118065 250.565478 
L 303.311022 248.623972 
L 306.503978 246.397527 
L 309.696935 243.980069 
L 312.889891 241.552337 
L 316.082848 239.355928 
L 319.275804 237.65779 
L 322.468761 236.718332 
L 325.661717 236.769022 
L 328.854674 237.996513 
L 332.04763 240.526 
L 335.240587 244.399235 
L 338.433543 249.550238 
L 341.6265 255.788741 
L 344.819456 262.803289 
L 348.012413 270.19085 
L 351.205369 277.510296 
L 354.398326 284.347657 
L 357.591282 290.376133 
L 360.784239 295.395447 
L 363.977195 299.342298 
L 367.170152 302.273049 
L 370.363108 304.327602 
L 373.556065 305.686894 
L 376.749021 306.53526 
L 379.941978 307.034527 
L 383.134934 307.311447 
L 386.327891 307.456138 
L 389.520847 307.527322 
L 392.713804 307.560281 
" style="fill:none;stroke:#f48024;stroke-linecap:square;stroke-width:1.5;"/>
   </g>
   <g id="line2d_15">
    <path clip-path="url(#pbd146a58e3)" d="M 73.832727 307.531805 
L 77.112066 307.455071 
L 80.391405 307.285157 
L 83.670744 306.933396 
L 86.950083 306.252137 
L 90.229421 305.016785 
L 93.50876 302.917083 
L 96.788099 299.56741 
L 100.067438 294.54358 
L 103.346777 287.44683 
L 106.626116 277.986357 
L 109.905455 266.064415 
L 113.184793 251.846232 
L 116.464132 235.800578 
L 119.743471 218.701361 
L 123.02281 201.582278 
L 126.302149 185.636767 
L 129.581488 172.061507 
L 132.860826 161.859507 
L 136.140165 155.644284 
L 139.419504 153.504321 
L 142.698843 154.979922 
L 145.978182 159.168744 
L 149.257521 164.927211 
L 152.53686 171.099277 
L 155.816198 176.701358 
L 159.095537 181.02209 
L 162.374876 183.638029 
L 165.654215 184.377015 
L 168.933554 183.266607 
L 172.212893 180.490282 
L 175.492231 176.354222 
L 178.77157 171.256056 
L 182.050909 165.647933 
L 185.330248 159.994805 
L 188.609587 154.737123 
L 191.888926 150.269589 
L 195.168264 146.942198 
L 198.447603 145.078 
L 201.726942 144.988955 
L 205.006281 146.965414 
L 208.28562 151.223785 
L 211.564959 157.82036 
L 214.844298 166.56561 
L 218.123636 176.98502 
L 221.402975 188.359095 
L 224.682314 199.841916 
L 227.961653 210.622809 
L 231.240992 220.078507 
L 234.520331 227.870247 
L 237.799669 233.964121 
L 241.079008 238.579552 
L 244.358347 242.089412 
L 247.637686 244.90318 
L 250.917025 247.363798 
L 254.196364 249.681973 
L 257.475702 251.919726 
L 260.755041 254.019842 
L 264.03438 255.863603 
L 267.313719 257.331858 
L 270.593058 258.347425 
L 273.872397 258.888639 
L 277.151736 258.977932 
L 280.431074 258.658586 
L 283.710413 257.973631 
L 286.989752 256.955062 
L 290.269091 255.624106 
L 293.54843 253.998575 
L 296.827769 252.102828 
L 300.107107 249.97784 
L 303.386446 247.690721 
L 306.665785 245.343066 
L 309.945124 243.076208 
L 313.224463 241.070443 
L 316.503802 239.535908 
L 319.78314 238.695105 
L 323.062479 238.759359 
L 326.341818 239.902496 
L 329.621157 242.23469 
L 332.900496 245.77927 
L 336.179835 250.456558 
L 339.459174 256.08044 
L 342.738512 262.372865 
L 346.017851 268.996959 
L 349.29719 275.602499 
L 352.576529 281.872143 
L 355.855868 287.55672 
L 359.135207 292.492963 
L 362.414545 296.604105 
L 365.693884 299.888552 
L 368.973223 302.402814 
L 372.252562 304.243001 
L 375.531901 305.527011 
L 378.81124 306.378444 
L 382.090579 306.913309 
L 385.369917 307.230703 
L 388.649256 307.408177 
L 391.928595 307.501491 
L 395.207934 307.547549 
L 398.487273 307.568861 
" style="fill:none;stroke:#008000;stroke-linecap:square;stroke-width:1.5;"/>
   </g>
   <g id="patch_203">
    <path d="M 57.6 307.584 
L 57.6 41.472 
" style="fill:none;stroke:#000000;stroke-linecap:square;stroke-linejoin:miter;stroke-width:0.8;"/>
   </g>
   <g id="patch_204">
    <path d="M 414.72 307.584 
L 414.72 41.472 
" style="fill:none;stroke:#000000;stroke-linecap:square;stroke-linejoin:miter;stroke-width:0.8;"/>
   </g>
   <g id="patch_205">
    <path d="M 57.6 307.584 
L 414.72 307.584 
" style="fill:none;stroke:#000000;stroke-linecap:square;stroke-linejoin:miter;stroke-width:0.8;"/>
   </g>
   <g id="patch_206">
    <path d="M 57.6 41.472 
L 414.72 41.472 
" style="fill:none;stroke:#000000;stroke-linecap:square;stroke-linejoin:miter;stroke-width:0.8;"/>
   </g>
   <g id="text_14">
    <!-- {'mae': 105.125, 'smape': 0.025, 'jsd': 0.074} -->
    <defs>
     <path d="M 51.125 -9.28125 
L 51.125 -16.3125 
L 48.09375 -16.3125 
Q 35.9375 -16.3125 31.8125 -12.6875 
Q 27.6875 -9.078125 27.6875 1.703125 
L 27.6875 13.375 
Q 27.6875 20.75 25.046875 23.578125 
Q 22.40625 26.421875 15.484375 26.421875 
L 12.5 26.421875 
L 12.5 33.40625 
L 15.484375 33.40625 
Q 22.46875 33.40625 25.078125 36.203125 
Q 27.6875 39.015625 27.6875 46.296875 
L 27.6875 58.015625 
Q 27.6875 68.796875 31.8125 72.390625 
Q 35.9375 75.984375 48.09375 75.984375 
L 51.125 75.984375 
L 51.125 69 
L 47.796875 69 
Q 40.921875 69 38.8125 66.84375 
Q 36.71875 64.703125 36.71875 57.8125 
L 36.71875 45.703125 
Q 36.71875 38.03125 34.5 34.5625 
Q 32.28125 31.109375 26.90625 29.890625 
Q 32.328125 28.5625 34.515625 25.09375 
Q 36.71875 21.625 36.71875 14.015625 
L 36.71875 1.90625 
Q 36.71875 -4.984375 38.8125 -7.125 
Q 40.921875 -9.28125 47.796875 -9.28125 
z
" id="DejaVuSans-123"/>
     <path d="M 17.921875 72.90625 
L 17.921875 45.796875 
L 9.625 45.796875 
L 9.625 72.90625 
z
" id="DejaVuSans-39"/>
     <path d="M 52 44.1875 
Q 55.375 50.25 60.0625 53.125 
Q 64.75 56 71.09375 56 
Q 79.640625 56 84.28125 50.015625 
Q 88.921875 44.046875 88.921875 33.015625 
L 88.921875 0 
L 79.890625 0 
L 79.890625 32.71875 
Q 79.890625 40.578125 77.09375 44.375 
Q 74.3125 48.1875 68.609375 48.1875 
Q 61.625 48.1875 57.5625 43.546875 
Q 53.515625 38.921875 53.515625 30.90625 
L 53.515625 0 
L 44.484375 0 
L 44.484375 32.71875 
Q 44.484375 40.625 41.703125 44.40625 
Q 38.921875 48.1875 33.109375 48.1875 
Q 26.21875 48.1875 22.15625 43.53125 
Q 18.109375 38.875 18.109375 30.90625 
L 18.109375 0 
L 9.078125 0 
L 9.078125 54.6875 
L 18.109375 54.6875 
L 18.109375 46.1875 
Q 21.1875 51.21875 25.484375 53.609375 
Q 29.78125 56 35.6875 56 
Q 41.65625 56 45.828125 52.96875 
Q 50 49.953125 52 44.1875 
z
" id="DejaVuSans-109"/>
     <path d="M 34.28125 27.484375 
Q 23.390625 27.484375 19.1875 25 
Q 14.984375 22.515625 14.984375 16.5 
Q 14.984375 11.71875 18.140625 8.90625 
Q 21.296875 6.109375 26.703125 6.109375 
Q 34.1875 6.109375 38.703125 11.40625 
Q 43.21875 16.703125 43.21875 25.484375 
L 43.21875 27.484375 
z
M 52.203125 31.203125 
L 52.203125 0 
L 43.21875 0 
L 43.21875 8.296875 
Q 40.140625 3.328125 35.546875 0.953125 
Q 30.953125 -1.421875 24.3125 -1.421875 
Q 15.921875 -1.421875 10.953125 3.296875 
Q 6 8.015625 6 15.921875 
Q 6 25.140625 12.171875 29.828125 
Q 18.359375 34.515625 30.609375 34.515625 
L 43.21875 34.515625 
L 43.21875 35.40625 
Q 43.21875 41.609375 39.140625 45 
Q 35.0625 48.390625 27.6875 48.390625 
Q 23 48.390625 18.546875 47.265625 
Q 14.109375 46.140625 10.015625 43.890625 
L 10.015625 52.203125 
Q 14.9375 54.109375 19.578125 55.046875 
Q 24.21875 56 28.609375 56 
Q 40.484375 56 46.34375 49.84375 
Q 52.203125 43.703125 52.203125 31.203125 
z
" id="DejaVuSans-97"/>
     <path d="M 56.203125 29.59375 
L 56.203125 25.203125 
L 14.890625 25.203125 
Q 15.484375 15.921875 20.484375 11.0625 
Q 25.484375 6.203125 34.421875 6.203125 
Q 39.59375 6.203125 44.453125 7.46875 
Q 49.3125 8.734375 54.109375 11.28125 
L 54.109375 2.78125 
Q 49.265625 0.734375 44.1875 -0.34375 
Q 39.109375 -1.421875 33.890625 -1.421875 
Q 20.796875 -1.421875 13.15625 6.1875 
Q 5.515625 13.8125 5.515625 26.8125 
Q 5.515625 40.234375 12.765625 48.109375 
Q 20.015625 56 32.328125 56 
Q 43.359375 56 49.78125 48.890625 
Q 56.203125 41.796875 56.203125 29.59375 
z
M 47.21875 32.234375 
Q 47.125 39.59375 43.09375 43.984375 
Q 39.0625 48.390625 32.421875 48.390625 
Q 24.90625 48.390625 20.390625 44.140625 
Q 15.875 39.890625 15.1875 32.171875 
z
" id="DejaVuSans-101"/>
     <path d="M 11.71875 12.40625 
L 22.015625 12.40625 
L 22.015625 0 
L 11.71875 0 
z
M 11.71875 51.703125 
L 22.015625 51.703125 
L 22.015625 39.3125 
L 11.71875 39.3125 
z
" id="DejaVuSans-58"/>
     <path id="DejaVuSans-32"/>
     <path d="M 11.71875 12.40625 
L 22.015625 12.40625 
L 22.015625 4 
L 14.015625 -11.625 
L 7.71875 -11.625 
L 11.71875 4 
z
" id="DejaVuSans-44"/>
     <path d="M 44.28125 53.078125 
L 44.28125 44.578125 
Q 40.484375 46.53125 36.375 47.5 
Q 32.28125 48.484375 27.875 48.484375 
Q 21.1875 48.484375 17.84375 46.4375 
Q 14.5 44.390625 14.5 40.28125 
Q 14.5 37.15625 16.890625 35.375 
Q 19.28125 33.59375 26.515625 31.984375 
L 29.59375 31.296875 
Q 39.15625 29.25 43.1875 25.515625 
Q 47.21875 21.78125 47.21875 15.09375 
Q 47.21875 7.46875 41.1875 3.015625 
Q 35.15625 -1.421875 24.609375 -1.421875 
Q 20.21875 -1.421875 15.453125 -0.5625 
Q 10.6875 0.296875 5.421875 2 
L 5.421875 11.28125 
Q 10.40625 8.6875 15.234375 7.390625 
Q 20.0625 6.109375 24.8125 6.109375 
Q 31.15625 6.109375 34.5625 8.28125 
Q 37.984375 10.453125 37.984375 14.40625 
Q 37.984375 18.0625 35.515625 20.015625 
Q 33.0625 21.96875 24.703125 23.78125 
L 21.578125 24.515625 
Q 13.234375 26.265625 9.515625 29.90625 
Q 5.8125 33.546875 5.8125 39.890625 
Q 5.8125 47.609375 11.28125 51.796875 
Q 16.75 56 26.8125 56 
Q 31.78125 56 36.171875 55.265625 
Q 40.578125 54.546875 44.28125 53.078125 
z
" id="DejaVuSans-115"/>
     <path d="M 18.109375 8.203125 
L 18.109375 -20.796875 
L 9.078125 -20.796875 
L 9.078125 54.6875 
L 18.109375 54.6875 
L 18.109375 46.390625 
Q 20.953125 51.265625 25.265625 53.625 
Q 29.59375 56 35.59375 56 
Q 45.5625 56 51.78125 48.09375 
Q 58.015625 40.1875 58.015625 27.296875 
Q 58.015625 14.40625 51.78125 6.484375 
Q 45.5625 -1.421875 35.59375 -1.421875 
Q 29.59375 -1.421875 25.265625 0.953125 
Q 20.953125 3.328125 18.109375 8.203125 
z
M 48.6875 27.296875 
Q 48.6875 37.203125 44.609375 42.84375 
Q 40.53125 48.484375 33.40625 48.484375 
Q 26.265625 48.484375 22.1875 42.84375 
Q 18.109375 37.203125 18.109375 27.296875 
Q 18.109375 17.390625 22.1875 11.75 
Q 26.265625 6.109375 33.40625 6.109375 
Q 40.53125 6.109375 44.609375 11.75 
Q 48.6875 17.390625 48.6875 27.296875 
z
" id="DejaVuSans-112"/>
     <path d="M 9.421875 54.6875 
L 18.40625 54.6875 
L 18.40625 -0.984375 
Q 18.40625 -11.421875 14.421875 -16.109375 
Q 10.453125 -20.796875 1.609375 -20.796875 
L -1.8125 -20.796875 
L -1.8125 -13.1875 
L 0.59375 -13.1875 
Q 5.71875 -13.1875 7.5625 -10.8125 
Q 9.421875 -8.453125 9.421875 -0.984375 
z
M 9.421875 75.984375 
L 18.40625 75.984375 
L 18.40625 64.59375 
L 9.421875 64.59375 
z
" id="DejaVuSans-106"/>
     <path d="M 45.40625 46.390625 
L 45.40625 75.984375 
L 54.390625 75.984375 
L 54.390625 0 
L 45.40625 0 
L 45.40625 8.203125 
Q 42.578125 3.328125 38.25 0.953125 
Q 33.9375 -1.421875 27.875 -1.421875 
Q 17.96875 -1.421875 11.734375 6.484375 
Q 5.515625 14.40625 5.515625 27.296875 
Q 5.515625 40.1875 11.734375 48.09375 
Q 17.96875 56 27.875 56 
Q 33.9375 56 38.25 53.625 
Q 42.578125 51.265625 45.40625 46.390625 
z
M 14.796875 27.296875 
Q 14.796875 17.390625 18.875 11.75 
Q 22.953125 6.109375 30.078125 6.109375 
Q 37.203125 6.109375 41.296875 11.75 
Q 45.40625 17.390625 45.40625 27.296875 
Q 45.40625 37.203125 41.296875 42.84375 
Q 37.203125 48.484375 30.078125 48.484375 
Q 22.953125 48.484375 18.875 42.84375 
Q 14.796875 37.203125 14.796875 27.296875 
z
" id="DejaVuSans-100"/>
     <path d="M 8.203125 72.90625 
L 55.078125 72.90625 
L 55.078125 68.703125 
L 28.609375 0 
L 18.3125 0 
L 43.21875 64.59375 
L 8.203125 64.59375 
z
" id="DejaVuSans-55"/>
     <path d="M 12.5 -9.28125 
L 15.921875 -9.28125 
Q 22.75 -9.28125 24.828125 -7.171875 
Q 26.90625 -5.078125 26.90625 1.90625 
L 26.90625 14.015625 
Q 26.90625 21.625 29.09375 25.09375 
Q 31.296875 28.5625 36.71875 29.890625 
Q 31.296875 31.109375 29.09375 34.5625 
Q 26.90625 38.03125 26.90625 45.703125 
L 26.90625 57.8125 
Q 26.90625 64.75 24.828125 66.875 
Q 22.75 69 15.921875 69 
L 12.5 69 
L 12.5 75.984375 
L 15.578125 75.984375 
Q 27.734375 75.984375 31.8125 72.390625 
Q 35.890625 68.796875 35.890625 58.015625 
L 35.890625 46.296875 
Q 35.890625 39.015625 38.515625 36.203125 
Q 41.15625 33.40625 48.09375 33.40625 
L 51.125 33.40625 
L 51.125 26.421875 
L 48.09375 26.421875 
Q 41.15625 26.421875 38.515625 23.578125 
Q 35.890625 20.75 35.890625 13.375 
L 35.890625 1.703125 
Q 35.890625 -9.078125 31.8125 -12.6875 
Q 27.734375 -16.3125 15.578125 -16.3125 
L 12.5 -16.3125 
z
" id="DejaVuSans-125"/>
    </defs>
    <g transform="translate(98.090625 35.472)scale(0.12 -0.12)">
     <use xlink:href="#DejaVuSans-123"/>
     <use x="63.623047" xlink:href="#DejaVuSans-39"/>
     <use x="91.113281" xlink:href="#DejaVuSans-109"/>
     <use x="188.525391" xlink:href="#DejaVuSans-97"/>
     <use x="249.804688" xlink:href="#DejaVuSans-101"/>
     <use x="311.328125" xlink:href="#DejaVuSans-39"/>
     <use x="338.818359" xlink:href="#DejaVuSans-58"/>
     <use x="372.509766" xlink:href="#DejaVuSans-32"/>
     <use x="404.296875" xlink:href="#DejaVuSans-49"/>
     <use x="467.919922" xlink:href="#DejaVuSans-48"/>
     <use x="531.542969" xlink:href="#DejaVuSans-53"/>
     <use x="595.166016" xlink:href="#DejaVuSans-46"/>
     <use x="626.953125" xlink:href="#DejaVuSans-49"/>
     <use x="690.576172" xlink:href="#DejaVuSans-50"/>
     <use x="754.199219" xlink:href="#DejaVuSans-53"/>
     <use x="817.822266" xlink:href="#DejaVuSans-44"/>
     <use x="849.609375" xlink:href="#DejaVuSans-32"/>
     <use x="881.396484" xlink:href="#DejaVuSans-39"/>
     <use x="908.886719" xlink:href="#DejaVuSans-115"/>
     <use x="960.986328" xlink:href="#DejaVuSans-109"/>
     <use x="1058.398438" xlink:href="#DejaVuSans-97"/>
     <use x="1119.677734" xlink:href="#DejaVuSans-112"/>
     <use x="1183.154297" xlink:href="#DejaVuSans-101"/>
     <use x="1244.677734" xlink:href="#DejaVuSans-39"/>
     <use x="1272.167969" xlink:href="#DejaVuSans-58"/>
     <use x="1305.859375" xlink:href="#DejaVuSans-32"/>
     <use x="1337.646484" xlink:href="#DejaVuSans-48"/>
     <use x="1401.269531" xlink:href="#DejaVuSans-46"/>
     <use x="1433.056641" xlink:href="#DejaVuSans-48"/>
     <use x="1496.679688" xlink:href="#DejaVuSans-50"/>
     <use x="1560.302734" xlink:href="#DejaVuSans-53"/>
     <use x="1623.925781" xlink:href="#DejaVuSans-44"/>
     <use x="1655.712891" xlink:href="#DejaVuSans-32"/>
     <use x="1687.5" xlink:href="#DejaVuSans-39"/>
     <use x="1714.990234" xlink:href="#DejaVuSans-106"/>
     <use x="1742.773438" xlink:href="#DejaVuSans-115"/>
     <use x="1794.873047" xlink:href="#DejaVuSans-100"/>
     <use x="1858.349609" xlink:href="#DejaVuSans-39"/>
     <use x="1885.839844" xlink:href="#DejaVuSans-58"/>
     <use x="1919.53125" xlink:href="#DejaVuSans-32"/>
     <use x="1951.318359" xlink:href="#DejaVuSans-48"/>
     <use x="2014.941406" xlink:href="#DejaVuSans-46"/>
     <use x="2046.728516" xlink:href="#DejaVuSans-48"/>
     <use x="2110.351562" xlink:href="#DejaVuSans-55"/>
     <use x="2173.974609" xlink:href="#DejaVuSans-52"/>
     <use x="2237.597656" xlink:href="#DejaVuSans-125"/>
    </g>
   </g>
   <g id="legend_1">
    <g id="patch_207">
     <path d="M 340.565313 78.82825 
L 407.72 78.82825 
Q 409.72 78.82825 409.72 76.82825 
L 409.72 48.472 
Q 409.72 46.472 407.72 46.472 
L 340.565313 46.472 
Q 338.565313 46.472 338.565313 48.472 
L 338.565313 76.82825 
Q 338.565313 78.82825 340.565313 78.82825 
z
" style="fill:#ffffff;opacity:0.8;stroke:#cccccc;stroke-linejoin:miter;"/>
    </g>
    <g id="patch_208">
     <path d="M 342.565313 58.070437 
L 362.565313 58.070437 
L 362.565313 51.070437 
L 342.565313 51.070437 
z
" style="fill:#f48024;opacity:0.4;"/>
    </g>
    <g id="text_15">
     <!-- actual -->
     <defs>
      <path d="M 48.78125 52.59375 
L 48.78125 44.1875 
Q 44.96875 46.296875 41.140625 47.34375 
Q 37.3125 48.390625 33.40625 48.390625 
Q 24.65625 48.390625 19.8125 42.84375 
Q 14.984375 37.3125 14.984375 27.296875 
Q 14.984375 17.28125 19.8125 11.734375 
Q 24.65625 6.203125 33.40625 6.203125 
Q 37.3125 6.203125 41.140625 7.25 
Q 44.96875 8.296875 48.78125 10.40625 
L 48.78125 2.09375 
Q 45.015625 0.34375 40.984375 -0.53125 
Q 36.96875 -1.421875 32.421875 -1.421875 
Q 20.0625 -1.421875 12.78125 6.34375 
Q 5.515625 14.109375 5.515625 27.296875 
Q 5.515625 40.671875 12.859375 48.328125 
Q 20.21875 56 33.015625 56 
Q 37.15625 56 41.109375 55.140625 
Q 45.0625 54.296875 48.78125 52.59375 
z
" id="DejaVuSans-99"/>
      <path d="M 18.3125 70.21875 
L 18.3125 54.6875 
L 36.8125 54.6875 
L 36.8125 47.703125 
L 18.3125 47.703125 
L 18.3125 18.015625 
Q 18.3125 11.328125 20.140625 9.421875 
Q 21.96875 7.515625 27.59375 7.515625 
L 36.8125 7.515625 
L 36.8125 0 
L 27.59375 0 
Q 17.1875 0 13.234375 3.875 
Q 9.28125 7.765625 9.28125 18.015625 
L 9.28125 47.703125 
L 2.6875 47.703125 
L 2.6875 54.6875 
L 9.28125 54.6875 
L 9.28125 70.21875 
z
" id="DejaVuSans-116"/>
      <path d="M 8.5 21.578125 
L 8.5 54.6875 
L 17.484375 54.6875 
L 17.484375 21.921875 
Q 17.484375 14.15625 20.5 10.265625 
Q 23.53125 6.390625 29.59375 6.390625 
Q 36.859375 6.390625 41.078125 11.03125 
Q 45.3125 15.671875 45.3125 23.6875 
L 45.3125 54.6875 
L 54.296875 54.6875 
L 54.296875 0 
L 45.3125 0 
L 45.3125 8.40625 
Q 42.046875 3.421875 37.71875 1 
Q 33.40625 -1.421875 27.6875 -1.421875 
Q 18.265625 -1.421875 13.375 4.4375 
Q 8.5 10.296875 8.5 21.578125 
z
M 31.109375 56 
z
" id="DejaVuSans-117"/>
      <path d="M 9.421875 75.984375 
L 18.40625 75.984375 
L 18.40625 0 
L 9.421875 0 
z
" id="DejaVuSans-108"/>
     </defs>
     <g transform="translate(370.565313 58.070437)scale(0.1 -0.1)">
      <use xlink:href="#DejaVuSans-97"/>
      <use x="61.279297" xlink:href="#DejaVuSans-99"/>
      <use x="116.259766" xlink:href="#DejaVuSans-116"/>
      <use x="155.46875" xlink:href="#DejaVuSans-117"/>
      <use x="218.847656" xlink:href="#DejaVuSans-97"/>
      <use x="280.126953" xlink:href="#DejaVuSans-108"/>
     </g>
    </g>
    <g id="patch_209">
     <path d="M 342.565313 72.748562 
L 362.565313 72.748562 
L 362.565313 65.748562 
L 342.565313 65.748562 
z
" style="fill:#008000;opacity:0.4;"/>
    </g>
    <g id="text_16">
     <!-- predict -->
     <defs>
      <path d="M 41.109375 46.296875 
Q 39.59375 47.171875 37.8125 47.578125 
Q 36.03125 48 33.890625 48 
Q 26.265625 48 22.1875 43.046875 
Q 18.109375 38.09375 18.109375 28.8125 
L 18.109375 0 
L 9.078125 0 
L 9.078125 54.6875 
L 18.109375 54.6875 
L 18.109375 46.1875 
Q 20.953125 51.171875 25.484375 53.578125 
Q 30.03125 56 36.53125 56 
Q 37.453125 56 38.578125 55.875 
Q 39.703125 55.765625 41.0625 55.515625 
z
" id="DejaVuSans-114"/>
      <path d="M 9.421875 54.6875 
L 18.40625 54.6875 
L 18.40625 0 
L 9.421875 0 
z
M 9.421875 75.984375 
L 18.40625 75.984375 
L 18.40625 64.59375 
L 9.421875 64.59375 
z
" id="DejaVuSans-105"/>
     </defs>
     <g transform="translate(370.565313 72.748562)scale(0.1 -0.1)">
      <use xlink:href="#DejaVuSans-112"/>
      <use x="63.476562" xlink:href="#DejaVuSans-114"/>
      <use x="104.558594" xlink:href="#DejaVuSans-101"/>
      <use x="166.082031" xlink:href="#DejaVuSans-100"/>
      <use x="229.558594" xlink:href="#DejaVuSans-105"/>
      <use x="257.341797" xlink:href="#DejaVuSans-99"/>
      <use x="312.322266" xlink:href="#DejaVuSans-116"/>
     </g>
    </g>
   </g>
  </g>
 </g>
 <defs>
  <clipPath id="pbd146a58e3">
   <rect height="266.112" width="357.12" x="57.6" y="41.472"/>
  </clipPath>
 </defs>
</svg>
