<?xml version="1.0" encoding="utf-8" standalone="no"?>
<!DOCTYPE svg PUBLIC "-//W3C//DTD SVG 1.1//EN"
  "http://www.w3.org/Graphics/SVG/1.1/DTD/svg11.dtd">
<!-- Created with matplotlib (https://matplotlib.org/) -->
<svg height="345.6pt" version="1.1" viewBox="0 0 460.8 345.6" width="460.8pt" xmlns="http://www.w3.org/2000/svg" xmlns:xlink="http://www.w3.org/1999/xlink">
 <defs>
  <style type="text/css">
*{stroke-linecap:butt;stroke-linejoin:round;}
  </style>
 </defs>
 <g id="figure_1">
  <g id="patch_1">
   <path d="M 0 345.6 
L 460.8 345.6 
L 460.8 0 
L 0 0 
z
" style="fill:#ffffff;"/>
  </g>
  <g id="axes_1">
   <g id="patch_2">
    <path d="M 57.6 307.584 
L 414.72 307.584 
L 414.72 41.472 
L 57.6 41.472 
z
" style="fill:#ffffff;"/>
   </g>
   <g id="patch_3">
    <path clip-path="url(#p150cab15fd)" d="M 116.093171 307.584 
L 118.399877 307.584 
L 118.399877 243.634605 
L 116.093171 243.634605 
z
" style="fill:#f48024;opacity:0.4;"/>
   </g>
   <g id="patch_4">
    <path clip-path="url(#p150cab15fd)" d="M 118.399877 307.584 
L 120.706584 307.584 
L 120.706584 161.119256 
L 118.399877 161.119256 
z
" style="fill:#f48024;opacity:0.4;"/>
   </g>
   <g id="patch_5">
    <path clip-path="url(#p150cab15fd)" d="M 120.706584 307.584 
L 123.013291 307.584 
L 123.013291 167.307907 
L 120.706584 167.307907 
z
" style="fill:#f48024;opacity:0.4;"/>
   </g>
   <g id="patch_6">
    <path clip-path="url(#p150cab15fd)" d="M 123.013291 307.584 
L 125.319998 307.584 
L 125.319998 84.792558 
L 123.013291 84.792558 
z
" style="fill:#f48024;opacity:0.4;"/>
   </g>
   <g id="patch_7">
    <path clip-path="url(#p150cab15fd)" d="M 125.319998 307.584 
L 127.626704 307.584 
L 127.626704 68.289488 
L 125.319998 68.289488 
z
" style="fill:#f48024;opacity:0.4;"/>
   </g>
   <g id="patch_8">
    <path clip-path="url(#p150cab15fd)" d="M 127.626704 307.584 
L 129.933411 307.584 
L 129.933411 41.472 
L 127.626704 41.472 
z
" style="fill:#f48024;opacity:0.4;"/>
   </g>
   <g id="patch_9">
    <path clip-path="url(#p150cab15fd)" d="M 129.933411 307.584 
L 132.240118 307.584 
L 132.240118 90.981209 
L 129.933411 90.981209 
z
" style="fill:#f48024;opacity:0.4;"/>
   </g>
   <g id="patch_10">
    <path clip-path="url(#p150cab15fd)" d="M 132.240118 307.584 
L 134.546825 307.584 
L 134.546825 183.810977 
L 132.240118 183.810977 
z
" style="fill:#f48024;opacity:0.4;"/>
   </g>
   <g id="patch_11">
    <path clip-path="url(#p150cab15fd)" d="M 134.546825 307.584 
L 136.853531 307.584 
L 136.853531 183.810977 
L 134.546825 183.810977 
z
" style="fill:#f48024;opacity:0.4;"/>
   </g>
   <g id="patch_12">
    <path clip-path="url(#p150cab15fd)" d="M 136.853531 307.584 
L 139.160238 307.584 
L 139.160238 216.817116 
L 136.853531 216.817116 
z
" style="fill:#f48024;opacity:0.4;"/>
   </g>
   <g id="patch_13">
    <path clip-path="url(#p150cab15fd)" d="M 139.160238 307.584 
L 141.466945 307.584 
L 141.466945 227.131535 
L 139.160238 227.131535 
z
" style="fill:#f48024;opacity:0.4;"/>
   </g>
   <g id="patch_14">
    <path clip-path="url(#p150cab15fd)" d="M 141.466945 307.584 
L 143.773651 307.584 
L 143.773651 241.571721 
L 141.466945 241.571721 
z
" style="fill:#f48024;opacity:0.4;"/>
   </g>
   <g id="patch_15">
    <path clip-path="url(#p150cab15fd)" d="M 143.773651 307.584 
L 146.080358 307.584 
L 146.080358 183.810977 
L 143.773651 183.810977 
z
" style="fill:#f48024;opacity:0.4;"/>
   </g>
   <g id="patch_16">
    <path clip-path="url(#p150cab15fd)" d="M 146.080358 307.584 
L 148.387065 307.584 
L 148.387065 204.439814 
L 146.080358 204.439814 
z
" style="fill:#f48024;opacity:0.4;"/>
   </g>
   <g id="patch_17">
    <path clip-path="url(#p150cab15fd)" d="M 148.387065 307.584 
L 150.693772 307.584 
L 150.693772 241.571721 
L 148.387065 241.571721 
z
" style="fill:#f48024;opacity:0.4;"/>
   </g>
   <g id="patch_18">
    <path clip-path="url(#p150cab15fd)" d="M 150.693772 307.584 
L 153.000478 307.584 
L 153.000478 237.445953 
L 150.693772 237.445953 
z
" style="fill:#f48024;opacity:0.4;"/>
   </g>
   <g id="patch_19">
    <path clip-path="url(#p150cab15fd)" d="M 153.000478 307.584 
L 155.307185 307.584 
L 155.307185 229.194419 
L 153.000478 229.194419 
z
" style="fill:#f48024;opacity:0.4;"/>
   </g>
   <g id="patch_20">
    <path clip-path="url(#p150cab15fd)" d="M 155.307185 307.584 
L 157.613892 307.584 
L 157.613892 161.119256 
L 155.307185 161.119256 
z
" style="fill:#f48024;opacity:0.4;"/>
   </g>
   <g id="patch_21">
    <path clip-path="url(#p150cab15fd)" d="M 157.613892 307.584 
L 159.920599 307.584 
L 159.920599 130.176 
L 157.613892 130.176 
z
" style="fill:#f48024;opacity:0.4;"/>
   </g>
   <g id="patch_22">
    <path clip-path="url(#p150cab15fd)" d="M 159.920599 307.584 
L 162.227305 307.584 
L 162.227305 210.628465 
L 159.920599 210.628465 
z
" style="fill:#f48024;opacity:0.4;"/>
   </g>
   <g id="patch_23">
    <path clip-path="url(#p150cab15fd)" d="M 162.227305 307.584 
L 164.534012 307.584 
L 164.534012 198.251163 
L 162.227305 198.251163 
z
" style="fill:#f48024;opacity:0.4;"/>
   </g>
   <g id="patch_24">
    <path clip-path="url(#p150cab15fd)" d="M 164.534012 307.584 
L 166.840719 307.584 
L 166.840719 212.691349 
L 164.534012 212.691349 
z
" style="fill:#f48024;opacity:0.4;"/>
   </g>
   <g id="patch_25">
    <path clip-path="url(#p150cab15fd)" d="M 166.840719 307.584 
L 169.147426 307.584 
L 169.147426 239.508837 
L 166.840719 239.508837 
z
" style="fill:#f48024;opacity:0.4;"/>
   </g>
   <g id="patch_26">
    <path clip-path="url(#p150cab15fd)" d="M 169.147426 307.584 
L 171.454132 307.584 
L 171.454132 204.439814 
L 169.147426 204.439814 
z
" style="fill:#f48024;opacity:0.4;"/>
   </g>
   <g id="patch_27">
    <path clip-path="url(#p150cab15fd)" d="M 171.454132 307.584 
L 173.760839 307.584 
L 173.760839 237.445953 
L 171.454132 237.445953 
z
" style="fill:#f48024;opacity:0.4;"/>
   </g>
   <g id="patch_28">
    <path clip-path="url(#p150cab15fd)" d="M 173.760839 307.584 
L 176.067546 307.584 
L 176.067546 208.565581 
L 173.760839 208.565581 
z
" style="fill:#f48024;opacity:0.4;"/>
   </g>
   <g id="patch_29">
    <path clip-path="url(#p150cab15fd)" d="M 176.067546 307.584 
L 178.374253 307.584 
L 178.374253 220.942884 
L 176.067546 220.942884 
z
" style="fill:#f48024;opacity:0.4;"/>
   </g>
   <g id="patch_30">
    <path clip-path="url(#p150cab15fd)" d="M 178.374253 307.584 
L 180.680959 307.584 
L 180.680959 233.320186 
L 178.374253 233.320186 
z
" style="fill:#f48024;opacity:0.4;"/>
   </g>
   <g id="patch_31">
    <path clip-path="url(#p150cab15fd)" d="M 180.680959 307.584 
L 182.987666 307.584 
L 182.987666 247.760372 
L 180.680959 247.760372 
z
" style="fill:#f48024;opacity:0.4;"/>
   </g>
   <g id="patch_32">
    <path clip-path="url(#p150cab15fd)" d="M 182.987666 307.584 
L 185.294373 307.584 
L 185.294373 243.634605 
L 182.987666 243.634605 
z
" style="fill:#f48024;opacity:0.4;"/>
   </g>
   <g id="patch_33">
    <path clip-path="url(#p150cab15fd)" d="M 185.294373 307.584 
L 187.601079 307.584 
L 187.601079 247.760372 
L 185.294373 247.760372 
z
" style="fill:#f48024;opacity:0.4;"/>
   </g>
   <g id="patch_34">
    <path clip-path="url(#p150cab15fd)" d="M 187.601079 307.584 
L 189.907786 307.584 
L 189.907786 241.571721 
L 187.601079 241.571721 
z
" style="fill:#f48024;opacity:0.4;"/>
   </g>
   <g id="patch_35">
    <path clip-path="url(#p150cab15fd)" d="M 189.907786 307.584 
L 192.214493 307.584 
L 192.214493 247.760372 
L 189.907786 247.760372 
z
" style="fill:#f48024;opacity:0.4;"/>
   </g>
   <g id="patch_36">
    <path clip-path="url(#p150cab15fd)" d="M 192.214493 307.584 
L 194.5212 307.584 
L 194.5212 264.263442 
L 192.214493 264.263442 
z
" style="fill:#f48024;opacity:0.4;"/>
   </g>
   <g id="patch_37">
    <path clip-path="url(#p150cab15fd)" d="M 194.5212 307.584 
L 196.827906 307.584 
L 196.827906 266.326326 
L 194.5212 266.326326 
z
" style="fill:#f48024;opacity:0.4;"/>
   </g>
   <g id="patch_38">
    <path clip-path="url(#p150cab15fd)" d="M 196.827906 307.584 
L 199.134613 307.584 
L 199.134613 260.137674 
L 196.827906 260.137674 
z
" style="fill:#f48024;opacity:0.4;"/>
   </g>
   <g id="patch_39">
    <path clip-path="url(#p150cab15fd)" d="M 199.134613 307.584 
L 201.44132 307.584 
L 201.44132 249.823256 
L 199.134613 249.823256 
z
" style="fill:#f48024;opacity:0.4;"/>
   </g>
   <g id="patch_40">
    <path clip-path="url(#p150cab15fd)" d="M 201.44132 307.584 
L 203.748027 307.584 
L 203.748027 260.137674 
L 201.44132 260.137674 
z
" style="fill:#f48024;opacity:0.4;"/>
   </g>
   <g id="patch_41">
    <path clip-path="url(#p150cab15fd)" d="M 203.748027 307.584 
L 206.054733 307.584 
L 206.054733 264.263442 
L 203.748027 264.263442 
z
" style="fill:#f48024;opacity:0.4;"/>
   </g>
   <g id="patch_42">
    <path clip-path="url(#p150cab15fd)" d="M 206.054733 307.584 
L 208.36144 307.584 
L 208.36144 270.452093 
L 206.054733 270.452093 
z
" style="fill:#f48024;opacity:0.4;"/>
   </g>
   <g id="patch_43">
    <path clip-path="url(#p150cab15fd)" d="M 208.36144 307.584 
L 210.668147 307.584 
L 210.668147 274.57786 
L 208.36144 274.57786 
z
" style="fill:#f48024;opacity:0.4;"/>
   </g>
   <g id="patch_44">
    <path clip-path="url(#p150cab15fd)" d="M 210.668147 307.584 
L 212.974854 307.584 
L 212.974854 272.514977 
L 210.668147 272.514977 
z
" style="fill:#f48024;opacity:0.4;"/>
   </g>
   <g id="patch_45">
    <path clip-path="url(#p150cab15fd)" d="M 212.974854 307.584 
L 215.28156 307.584 
L 215.28156 274.57786 
L 212.974854 274.57786 
z
" style="fill:#f48024;opacity:0.4;"/>
   </g>
   <g id="patch_46">
    <path clip-path="url(#p150cab15fd)" d="M 215.28156 307.584 
L 217.588267 307.584 
L 217.588267 282.829395 
L 215.28156 282.829395 
z
" style="fill:#f48024;opacity:0.4;"/>
   </g>
   <g id="patch_47">
    <path clip-path="url(#p150cab15fd)" d="M 217.588267 307.584 
L 219.894974 307.584 
L 219.894974 274.57786 
L 217.588267 274.57786 
z
" style="fill:#f48024;opacity:0.4;"/>
   </g>
   <g id="patch_48">
    <path clip-path="url(#p150cab15fd)" d="M 219.894974 307.584 
L 222.201681 307.584 
L 222.201681 284.892279 
L 219.894974 284.892279 
z
" style="fill:#f48024;opacity:0.4;"/>
   </g>
   <g id="patch_49">
    <path clip-path="url(#p150cab15fd)" d="M 222.201681 307.584 
L 224.508387 307.584 
L 224.508387 278.703628 
L 222.201681 278.703628 
z
" style="fill:#f48024;opacity:0.4;"/>
   </g>
   <g id="patch_50">
    <path clip-path="url(#p150cab15fd)" d="M 224.508387 307.584 
L 226.815094 307.584 
L 226.815094 278.703628 
L 224.508387 278.703628 
z
" style="fill:#f48024;opacity:0.4;"/>
   </g>
   <g id="patch_51">
    <path clip-path="url(#p150cab15fd)" d="M 226.815094 307.584 
L 229.121801 307.584 
L 229.121801 286.955163 
L 226.815094 286.955163 
z
" style="fill:#f48024;opacity:0.4;"/>
   </g>
   <g id="patch_52">
    <path clip-path="url(#p150cab15fd)" d="M 229.121801 307.584 
L 231.428507 307.584 
L 231.428507 270.452093 
L 229.121801 270.452093 
z
" style="fill:#f48024;opacity:0.4;"/>
   </g>
   <g id="patch_53">
    <path clip-path="url(#p150cab15fd)" d="M 231.428507 307.584 
L 233.735214 307.584 
L 233.735214 282.829395 
L 231.428507 282.829395 
z
" style="fill:#f48024;opacity:0.4;"/>
   </g>
   <g id="patch_54">
    <path clip-path="url(#p150cab15fd)" d="M 233.735214 307.584 
L 236.041921 307.584 
L 236.041921 280.766512 
L 233.735214 280.766512 
z
" style="fill:#f48024;opacity:0.4;"/>
   </g>
   <g id="patch_55">
    <path clip-path="url(#p150cab15fd)" d="M 236.041921 307.584 
L 238.348628 307.584 
L 238.348628 264.263442 
L 236.041921 264.263442 
z
" style="fill:#f48024;opacity:0.4;"/>
   </g>
   <g id="patch_56">
    <path clip-path="url(#p150cab15fd)" d="M 238.348628 307.584 
L 240.655334 307.584 
L 240.655334 264.263442 
L 238.348628 264.263442 
z
" style="fill:#f48024;opacity:0.4;"/>
   </g>
   <g id="patch_57">
    <path clip-path="url(#p150cab15fd)" d="M 240.655334 307.584 
L 242.962041 307.584 
L 242.962041 264.263442 
L 240.655334 264.263442 
z
" style="fill:#f48024;opacity:0.4;"/>
   </g>
   <g id="patch_58">
    <path clip-path="url(#p150cab15fd)" d="M 242.962041 307.584 
L 245.268748 307.584 
L 245.268748 268.389209 
L 242.962041 268.389209 
z
" style="fill:#f48024;opacity:0.4;"/>
   </g>
   <g id="patch_59">
    <path clip-path="url(#p150cab15fd)" d="M 245.268748 307.584 
L 247.575455 307.584 
L 247.575455 280.766512 
L 245.268748 280.766512 
z
" style="fill:#f48024;opacity:0.4;"/>
   </g>
   <g id="patch_60">
    <path clip-path="url(#p150cab15fd)" d="M 247.575455 307.584 
L 249.882161 307.584 
L 249.882161 274.57786 
L 247.575455 274.57786 
z
" style="fill:#f48024;opacity:0.4;"/>
   </g>
   <g id="patch_61">
    <path clip-path="url(#p150cab15fd)" d="M 249.882161 307.584 
L 252.188868 307.584 
L 252.188868 289.018047 
L 249.882161 289.018047 
z
" style="fill:#f48024;opacity:0.4;"/>
   </g>
   <g id="patch_62">
    <path clip-path="url(#p150cab15fd)" d="M 252.188868 307.584 
L 254.495575 307.584 
L 254.495575 289.018047 
L 252.188868 289.018047 
z
" style="fill:#f48024;opacity:0.4;"/>
   </g>
   <g id="patch_63">
    <path clip-path="url(#p150cab15fd)" d="M 254.495575 307.584 
L 256.802282 307.584 
L 256.802282 282.829395 
L 254.495575 282.829395 
z
" style="fill:#f48024;opacity:0.4;"/>
   </g>
   <g id="patch_64">
    <path clip-path="url(#p150cab15fd)" d="M 256.802282 307.584 
L 259.108988 307.584 
L 259.108988 293.143814 
L 256.802282 293.143814 
z
" style="fill:#f48024;opacity:0.4;"/>
   </g>
   <g id="patch_65">
    <path clip-path="url(#p150cab15fd)" d="M 259.108988 307.584 
L 261.415695 307.584 
L 261.415695 286.955163 
L 259.108988 286.955163 
z
" style="fill:#f48024;opacity:0.4;"/>
   </g>
   <g id="patch_66">
    <path clip-path="url(#p150cab15fd)" d="M 261.415695 307.584 
L 263.722402 307.584 
L 263.722402 282.829395 
L 261.415695 282.829395 
z
" style="fill:#f48024;opacity:0.4;"/>
   </g>
   <g id="patch_67">
    <path clip-path="url(#p150cab15fd)" d="M 263.722402 307.584 
L 266.029109 307.584 
L 266.029109 282.829395 
L 263.722402 282.829395 
z
" style="fill:#f48024;opacity:0.4;"/>
   </g>
   <g id="patch_68">
    <path clip-path="url(#p150cab15fd)" d="M 266.029109 307.584 
L 268.335815 307.584 
L 268.335815 278.703628 
L 266.029109 278.703628 
z
" style="fill:#f48024;opacity:0.4;"/>
   </g>
   <g id="patch_69">
    <path clip-path="url(#p150cab15fd)" d="M 268.335815 307.584 
L 270.642522 307.584 
L 270.642522 297.269581 
L 268.335815 297.269581 
z
" style="fill:#f48024;opacity:0.4;"/>
   </g>
   <g id="patch_70">
    <path clip-path="url(#p150cab15fd)" d="M 270.642522 307.584 
L 272.949229 307.584 
L 272.949229 276.640744 
L 270.642522 276.640744 
z
" style="fill:#f48024;opacity:0.4;"/>
   </g>
   <g id="patch_71">
    <path clip-path="url(#p150cab15fd)" d="M 272.949229 307.584 
L 275.255935 307.584 
L 275.255935 272.514977 
L 272.949229 272.514977 
z
" style="fill:#f48024;opacity:0.4;"/>
   </g>
   <g id="patch_72">
    <path clip-path="url(#p150cab15fd)" d="M 275.255935 307.584 
L 277.562642 307.584 
L 277.562642 262.200558 
L 275.255935 262.200558 
z
" style="fill:#f48024;opacity:0.4;"/>
   </g>
   <g id="patch_73">
    <path clip-path="url(#p150cab15fd)" d="M 277.562642 307.584 
L 279.869349 307.584 
L 279.869349 262.200558 
L 277.562642 262.200558 
z
" style="fill:#f48024;opacity:0.4;"/>
   </g>
   <g id="patch_74">
    <path clip-path="url(#p150cab15fd)" d="M 279.869349 307.584 
L 282.176056 307.584 
L 282.176056 260.137674 
L 279.869349 260.137674 
z
" style="fill:#f48024;opacity:0.4;"/>
   </g>
   <g id="patch_75">
    <path clip-path="url(#p150cab15fd)" d="M 282.176056 307.584 
L 284.482762 307.584 
L 284.482762 264.263442 
L 282.176056 264.263442 
z
" style="fill:#f48024;opacity:0.4;"/>
   </g>
   <g id="patch_76">
    <path clip-path="url(#p150cab15fd)" d="M 284.482762 307.584 
L 286.789469 307.584 
L 286.789469 260.137674 
L 284.482762 260.137674 
z
" style="fill:#f48024;opacity:0.4;"/>
   </g>
   <g id="patch_77">
    <path clip-path="url(#p150cab15fd)" d="M 286.789469 307.584 
L 289.096176 307.584 
L 289.096176 253.949023 
L 286.789469 253.949023 
z
" style="fill:#f48024;opacity:0.4;"/>
   </g>
   <g id="patch_78">
    <path clip-path="url(#p150cab15fd)" d="M 289.096176 307.584 
L 291.402883 307.584 
L 291.402883 247.760372 
L 289.096176 247.760372 
z
" style="fill:#f48024;opacity:0.4;"/>
   </g>
   <g id="patch_79">
    <path clip-path="url(#p150cab15fd)" d="M 291.402883 307.584 
L 293.709589 307.584 
L 293.709589 216.817116 
L 291.402883 216.817116 
z
" style="fill:#f48024;opacity:0.4;"/>
   </g>
   <g id="patch_80">
    <path clip-path="url(#p150cab15fd)" d="M 293.709589 307.584 
L 296.016296 307.584 
L 296.016296 241.571721 
L 293.709589 241.571721 
z
" style="fill:#f48024;opacity:0.4;"/>
   </g>
   <g id="patch_81">
    <path clip-path="url(#p150cab15fd)" d="M 296.016296 307.584 
L 298.323003 307.584 
L 298.323003 235.38307 
L 296.016296 235.38307 
z
" style="fill:#f48024;opacity:0.4;"/>
   </g>
   <g id="patch_82">
    <path clip-path="url(#p150cab15fd)" d="M 298.323003 307.584 
L 300.62971 307.584 
L 300.62971 239.508837 
L 298.323003 239.508837 
z
" style="fill:#f48024;opacity:0.4;"/>
   </g>
   <g id="patch_83">
    <path clip-path="url(#p150cab15fd)" d="M 300.62971 307.584 
L 302.936416 307.584 
L 302.936416 249.823256 
L 300.62971 249.823256 
z
" style="fill:#f48024;opacity:0.4;"/>
   </g>
   <g id="patch_84">
    <path clip-path="url(#p150cab15fd)" d="M 302.936416 307.584 
L 305.243123 307.584 
L 305.243123 245.697488 
L 302.936416 245.697488 
z
" style="fill:#f48024;opacity:0.4;"/>
   </g>
   <g id="patch_85">
    <path clip-path="url(#p150cab15fd)" d="M 305.243123 307.584 
L 307.54983 307.584 
L 307.54983 237.445953 
L 305.243123 237.445953 
z
" style="fill:#f48024;opacity:0.4;"/>
   </g>
   <g id="patch_86">
    <path clip-path="url(#p150cab15fd)" d="M 307.54983 307.584 
L 309.856537 307.584 
L 309.856537 262.200558 
L 307.54983 262.200558 
z
" style="fill:#f48024;opacity:0.4;"/>
   </g>
   <g id="patch_87">
    <path clip-path="url(#p150cab15fd)" d="M 309.856537 307.584 
L 312.163243 307.584 
L 312.163243 270.452093 
L 309.856537 270.452093 
z
" style="fill:#f48024;opacity:0.4;"/>
   </g>
   <g id="patch_88">
    <path clip-path="url(#p150cab15fd)" d="M 312.163243 307.584 
L 314.46995 307.584 
L 314.46995 268.389209 
L 312.163243 268.389209 
z
" style="fill:#f48024;opacity:0.4;"/>
   </g>
   <g id="patch_89">
    <path clip-path="url(#p150cab15fd)" d="M 314.46995 307.584 
L 316.776657 307.584 
L 316.776657 272.514977 
L 314.46995 272.514977 
z
" style="fill:#f48024;opacity:0.4;"/>
   </g>
   <g id="patch_90">
    <path clip-path="url(#p150cab15fd)" d="M 316.776657 307.584 
L 319.083364 307.584 
L 319.083364 286.955163 
L 316.776657 286.955163 
z
" style="fill:#f48024;opacity:0.4;"/>
   </g>
   <g id="patch_91">
    <path clip-path="url(#p150cab15fd)" d="M 319.083364 307.584 
L 321.39007 307.584 
L 321.39007 276.640744 
L 319.083364 276.640744 
z
" style="fill:#f48024;opacity:0.4;"/>
   </g>
   <g id="patch_92">
    <path clip-path="url(#p150cab15fd)" d="M 321.39007 307.584 
L 323.696777 307.584 
L 323.696777 289.018047 
L 321.39007 289.018047 
z
" style="fill:#f48024;opacity:0.4;"/>
   </g>
   <g id="patch_93">
    <path clip-path="url(#p150cab15fd)" d="M 323.696777 307.584 
L 326.003484 307.584 
L 326.003484 268.389209 
L 323.696777 268.389209 
z
" style="fill:#f48024;opacity:0.4;"/>
   </g>
   <g id="patch_94">
    <path clip-path="url(#p150cab15fd)" d="M 326.003484 307.584 
L 328.31019 307.584 
L 328.31019 270.452093 
L 326.003484 270.452093 
z
" style="fill:#f48024;opacity:0.4;"/>
   </g>
   <g id="patch_95">
    <path clip-path="url(#p150cab15fd)" d="M 328.31019 307.584 
L 330.616897 307.584 
L 330.616897 266.326326 
L 328.31019 266.326326 
z
" style="fill:#f48024;opacity:0.4;"/>
   </g>
   <g id="patch_96">
    <path clip-path="url(#p150cab15fd)" d="M 330.616897 307.584 
L 332.923604 307.584 
L 332.923604 274.57786 
L 330.616897 274.57786 
z
" style="fill:#f48024;opacity:0.4;"/>
   </g>
   <g id="patch_97">
    <path clip-path="url(#p150cab15fd)" d="M 332.923604 307.584 
L 335.230311 307.584 
L 335.230311 280.766512 
L 332.923604 280.766512 
z
" style="fill:#f48024;opacity:0.4;"/>
   </g>
   <g id="patch_98">
    <path clip-path="url(#p150cab15fd)" d="M 335.230311 307.584 
L 337.537017 307.584 
L 337.537017 291.08093 
L 335.230311 291.08093 
z
" style="fill:#f48024;opacity:0.4;"/>
   </g>
   <g id="patch_99">
    <path clip-path="url(#p150cab15fd)" d="M 337.537017 307.584 
L 339.843724 307.584 
L 339.843724 291.08093 
L 337.537017 291.08093 
z
" style="fill:#f48024;opacity:0.4;"/>
   </g>
   <g id="patch_100">
    <path clip-path="url(#p150cab15fd)" d="M 339.843724 307.584 
L 342.150431 307.584 
L 342.150431 293.143814 
L 339.843724 293.143814 
z
" style="fill:#f48024;opacity:0.4;"/>
   </g>
   <g id="patch_101">
    <path clip-path="url(#p150cab15fd)" d="M 342.150431 307.584 
L 344.457138 307.584 
L 344.457138 303.458233 
L 342.150431 303.458233 
z
" style="fill:#f48024;opacity:0.4;"/>
   </g>
   <g id="patch_102">
    <path clip-path="url(#p150cab15fd)" d="M 344.457138 307.584 
L 346.763844 307.584 
L 346.763844 303.458233 
L 344.457138 303.458233 
z
" style="fill:#f48024;opacity:0.4;"/>
   </g>
   <g id="patch_103">
    <path clip-path="url(#p150cab15fd)" d="M 114.922755 307.584 
L 117.3475 307.584 
L 117.3475 266.372315 
L 114.922755 266.372315 
z
" style="fill:#008000;opacity:0.4;"/>
   </g>
   <g id="patch_104">
    <path clip-path="url(#p150cab15fd)" d="M 117.3475 307.584 
L 119.772245 307.584 
L 119.772245 221.235708 
L 117.3475 221.235708 
z
" style="fill:#008000;opacity:0.4;"/>
   </g>
   <g id="patch_105">
    <path clip-path="url(#p150cab15fd)" d="M 119.772245 307.584 
L 122.196989 307.584 
L 122.196989 172.174178 
L 119.772245 172.174178 
z
" style="fill:#008000;opacity:0.4;"/>
   </g>
   <g id="patch_106">
    <path clip-path="url(#p150cab15fd)" d="M 122.196989 307.584 
L 124.621734 307.584 
L 124.621734 111.337881 
L 122.196989 111.337881 
z
" style="fill:#008000;opacity:0.4;"/>
   </g>
   <g id="patch_107">
    <path clip-path="url(#p150cab15fd)" d="M 124.621734 307.584 
L 127.046479 307.584 
L 127.046479 79.938502 
L 124.621734 79.938502 
z
" style="fill:#008000;opacity:0.4;"/>
   </g>
   <g id="patch_108">
    <path clip-path="url(#p150cab15fd)" d="M 127.046479 307.584 
L 129.471224 307.584 
L 129.471224 56.388967 
L 127.046479 56.388967 
z
" style="fill:#008000;opacity:0.4;"/>
   </g>
   <g id="patch_109">
    <path clip-path="url(#p150cab15fd)" d="M 129.471224 307.584 
L 131.895969 307.584 
L 131.895969 83.863424 
L 129.471224 83.863424 
z
" style="fill:#008000;opacity:0.4;"/>
   </g>
   <g id="patch_110">
    <path clip-path="url(#p150cab15fd)" d="M 131.895969 307.584 
L 134.320714 307.584 
L 134.320714 156.474488 
L 131.895969 156.474488 
z
" style="fill:#008000;opacity:0.4;"/>
   </g>
   <g id="patch_111">
    <path clip-path="url(#p150cab15fd)" d="M 134.320714 307.584 
L 136.745459 307.584 
L 136.745459 174.136639 
L 134.320714 174.136639 
z
" style="fill:#008000;opacity:0.4;"/>
   </g>
   <g id="patch_112">
    <path clip-path="url(#p150cab15fd)" d="M 136.745459 307.584 
L 139.170204 307.584 
L 139.170204 213.385863 
L 136.745459 213.385863 
z
" style="fill:#008000;opacity:0.4;"/>
   </g>
   <g id="patch_113">
    <path clip-path="url(#p150cab15fd)" d="M 139.170204 307.584 
L 141.594949 307.584 
L 141.594949 223.198169 
L 139.170204 223.198169 
z
" style="fill:#008000;opacity:0.4;"/>
   </g>
   <g id="patch_114">
    <path clip-path="url(#p150cab15fd)" d="M 141.594949 307.584 
L 144.019694 307.584 
L 144.019694 215.348324 
L 141.594949 215.348324 
z
" style="fill:#008000;opacity:0.4;"/>
   </g>
   <g id="patch_115">
    <path clip-path="url(#p150cab15fd)" d="M 144.019694 307.584 
L 146.444438 307.584 
L 146.444438 215.348324 
L 144.019694 215.348324 
z
" style="fill:#008000;opacity:0.4;"/>
   </g>
   <g id="patch_116">
    <path clip-path="url(#p150cab15fd)" d="M 146.444438 307.584 
L 148.869183 307.584 
L 148.869183 215.348324 
L 146.444438 215.348324 
z
" style="fill:#008000;opacity:0.4;"/>
   </g>
   <g id="patch_117">
    <path clip-path="url(#p150cab15fd)" d="M 148.869183 307.584 
L 151.293928 307.584 
L 151.293928 231.048014 
L 148.869183 231.048014 
z
" style="fill:#008000;opacity:0.4;"/>
   </g>
   <g id="patch_118">
    <path clip-path="url(#p150cab15fd)" d="M 151.293928 307.584 
L 153.718673 307.584 
L 153.718673 244.785242 
L 151.293928 244.785242 
z
" style="fill:#008000;opacity:0.4;"/>
   </g>
   <g id="patch_119">
    <path clip-path="url(#p150cab15fd)" d="M 153.718673 307.584 
L 156.143418 307.584 
L 156.143418 213.385863 
L 153.718673 213.385863 
z
" style="fill:#008000;opacity:0.4;"/>
   </g>
   <g id="patch_120">
    <path clip-path="url(#p150cab15fd)" d="M 156.143418 307.584 
L 158.568163 307.584 
L 158.568163 168.249255 
L 156.143418 168.249255 
z
" style="fill:#008000;opacity:0.4;"/>
   </g>
   <g id="patch_121">
    <path clip-path="url(#p150cab15fd)" d="M 158.568163 307.584 
L 160.992908 307.584 
L 160.992908 181.986484 
L 158.568163 181.986484 
z
" style="fill:#008000;opacity:0.4;"/>
   </g>
   <g id="patch_122">
    <path clip-path="url(#p150cab15fd)" d="M 160.992908 307.584 
L 163.417653 307.584 
L 163.417653 185.911406 
L 160.992908 185.911406 
z
" style="fill:#008000;opacity:0.4;"/>
   </g>
   <g id="patch_123">
    <path clip-path="url(#p150cab15fd)" d="M 163.417653 307.584 
L 165.842398 307.584 
L 165.842398 185.911406 
L 163.417653 185.911406 
z
" style="fill:#008000;opacity:0.4;"/>
   </g>
   <g id="patch_124">
    <path clip-path="url(#p150cab15fd)" d="M 165.842398 307.584 
L 168.267143 307.584 
L 168.267143 203.573557 
L 165.842398 203.573557 
z
" style="fill:#008000;opacity:0.4;"/>
   </g>
   <g id="patch_125">
    <path clip-path="url(#p150cab15fd)" d="M 168.267143 307.584 
L 170.691888 307.584 
L 170.691888 229.085552 
L 168.267143 229.085552 
z
" style="fill:#008000;opacity:0.4;"/>
   </g>
   <g id="patch_126">
    <path clip-path="url(#p150cab15fd)" d="M 170.691888 307.584 
L 173.116632 307.584 
L 173.116632 221.235708 
L 170.691888 221.235708 
z
" style="fill:#008000;opacity:0.4;"/>
   </g>
   <g id="patch_127">
    <path clip-path="url(#p150cab15fd)" d="M 173.116632 307.584 
L 175.541377 307.584 
L 175.541377 219.273246 
L 173.116632 219.273246 
z
" style="fill:#008000;opacity:0.4;"/>
   </g>
   <g id="patch_128">
    <path clip-path="url(#p150cab15fd)" d="M 175.541377 307.584 
L 177.966122 307.584 
L 177.966122 227.123091 
L 175.541377 227.123091 
z
" style="fill:#008000;opacity:0.4;"/>
   </g>
   <g id="patch_129">
    <path clip-path="url(#p150cab15fd)" d="M 177.966122 307.584 
L 180.390867 307.584 
L 180.390867 217.310785 
L 177.966122 217.310785 
z
" style="fill:#008000;opacity:0.4;"/>
   </g>
   <g id="patch_130">
    <path clip-path="url(#p150cab15fd)" d="M 180.390867 307.584 
L 182.815612 307.584 
L 182.815612 227.123091 
L 180.390867 227.123091 
z
" style="fill:#008000;opacity:0.4;"/>
   </g>
   <g id="patch_131">
    <path clip-path="url(#p150cab15fd)" d="M 182.815612 307.584 
L 185.240357 307.584 
L 185.240357 268.334776 
L 182.815612 268.334776 
z
" style="fill:#008000;opacity:0.4;"/>
   </g>
   <g id="patch_132">
    <path clip-path="url(#p150cab15fd)" d="M 185.240357 307.584 
L 187.665102 307.584 
L 187.665102 248.710164 
L 185.240357 248.710164 
z
" style="fill:#008000;opacity:0.4;"/>
   </g>
   <g id="patch_133">
    <path clip-path="url(#p150cab15fd)" d="M 187.665102 307.584 
L 190.089847 307.584 
L 190.089847 244.785242 
L 187.665102 244.785242 
z
" style="fill:#008000;opacity:0.4;"/>
   </g>
   <g id="patch_134">
    <path clip-path="url(#p150cab15fd)" d="M 190.089847 307.584 
L 192.514592 307.584 
L 192.514592 260.484931 
L 190.089847 260.484931 
z
" style="fill:#008000;opacity:0.4;"/>
   </g>
   <g id="patch_135">
    <path clip-path="url(#p150cab15fd)" d="M 192.514592 307.584 
L 194.939337 307.584 
L 194.939337 254.597548 
L 192.514592 254.597548 
z
" style="fill:#008000;opacity:0.4;"/>
   </g>
   <g id="patch_136">
    <path clip-path="url(#p150cab15fd)" d="M 194.939337 307.584 
L 197.364082 307.584 
L 197.364082 274.22216 
L 194.939337 274.22216 
z
" style="fill:#008000;opacity:0.4;"/>
   </g>
   <g id="patch_137">
    <path clip-path="url(#p150cab15fd)" d="M 197.364082 307.584 
L 199.788826 307.584 
L 199.788826 256.560009 
L 197.364082 256.560009 
z
" style="fill:#008000;opacity:0.4;"/>
   </g>
   <g id="patch_138">
    <path clip-path="url(#p150cab15fd)" d="M 199.788826 307.584 
L 202.213571 307.584 
L 202.213571 268.334776 
L 199.788826 268.334776 
z
" style="fill:#008000;opacity:0.4;"/>
   </g>
   <g id="patch_139">
    <path clip-path="url(#p150cab15fd)" d="M 202.213571 307.584 
L 204.638316 307.584 
L 204.638316 264.409854 
L 202.213571 264.409854 
z
" style="fill:#008000;opacity:0.4;"/>
   </g>
   <g id="patch_140">
    <path clip-path="url(#p150cab15fd)" d="M 204.638316 307.584 
L 207.063061 307.584 
L 207.063061 250.672625 
L 204.638316 250.672625 
z
" style="fill:#008000;opacity:0.4;"/>
   </g>
   <g id="patch_141">
    <path clip-path="url(#p150cab15fd)" d="M 207.063061 307.584 
L 209.487806 307.584 
L 209.487806 262.447393 
L 207.063061 262.447393 
z
" style="fill:#008000;opacity:0.4;"/>
   </g>
   <g id="patch_142">
    <path clip-path="url(#p150cab15fd)" d="M 209.487806 307.584 
L 211.912551 307.584 
L 211.912551 278.147082 
L 209.487806 278.147082 
z
" style="fill:#008000;opacity:0.4;"/>
   </g>
   <g id="patch_143">
    <path clip-path="url(#p150cab15fd)" d="M 211.912551 307.584 
L 214.337296 307.584 
L 214.337296 276.184621 
L 211.912551 276.184621 
z
" style="fill:#008000;opacity:0.4;"/>
   </g>
   <g id="patch_144">
    <path clip-path="url(#p150cab15fd)" d="M 214.337296 307.584 
L 216.762041 307.584 
L 216.762041 272.259699 
L 214.337296 272.259699 
z
" style="fill:#008000;opacity:0.4;"/>
   </g>
   <g id="patch_145">
    <path clip-path="url(#p150cab15fd)" d="M 216.762041 307.584 
L 219.186786 307.584 
L 219.186786 274.22216 
L 216.762041 274.22216 
z
" style="fill:#008000;opacity:0.4;"/>
   </g>
   <g id="patch_146">
    <path clip-path="url(#p150cab15fd)" d="M 219.186786 307.584 
L 221.611531 307.584 
L 221.611531 284.034466 
L 219.186786 284.034466 
z
" style="fill:#008000;opacity:0.4;"/>
   </g>
   <g id="patch_147">
    <path clip-path="url(#p150cab15fd)" d="M 221.611531 307.584 
L 224.036275 307.584 
L 224.036275 278.147082 
L 221.611531 278.147082 
z
" style="fill:#008000;opacity:0.4;"/>
   </g>
   <g id="patch_148">
    <path clip-path="url(#p150cab15fd)" d="M 224.036275 307.584 
L 226.46102 307.584 
L 226.46102 282.072005 
L 224.036275 282.072005 
z
" style="fill:#008000;opacity:0.4;"/>
   </g>
   <g id="patch_149">
    <path clip-path="url(#p150cab15fd)" d="M 226.46102 307.584 
L 228.885765 307.584 
L 228.885765 270.297237 
L 226.46102 270.297237 
z
" style="fill:#008000;opacity:0.4;"/>
   </g>
   <g id="patch_150">
    <path clip-path="url(#p150cab15fd)" d="M 228.885765 307.584 
L 231.31051 307.584 
L 231.31051 268.334776 
L 228.885765 268.334776 
z
" style="fill:#008000;opacity:0.4;"/>
   </g>
   <g id="patch_151">
    <path clip-path="url(#p150cab15fd)" d="M 231.31051 307.584 
L 233.735255 307.584 
L 233.735255 280.109543 
L 231.31051 280.109543 
z
" style="fill:#008000;opacity:0.4;"/>
   </g>
   <g id="patch_152">
    <path clip-path="url(#p150cab15fd)" d="M 233.735255 307.584 
L 236.16 307.584 
L 236.16 282.072005 
L 233.735255 282.072005 
z
" style="fill:#008000;opacity:0.4;"/>
   </g>
   <g id="patch_153">
    <path clip-path="url(#p150cab15fd)" d="M 236.16 307.584 
L 238.584745 307.584 
L 238.584745 276.184621 
L 236.16 276.184621 
z
" style="fill:#008000;opacity:0.4;"/>
   </g>
   <g id="patch_154">
    <path clip-path="url(#p150cab15fd)" d="M 238.584745 307.584 
L 241.00949 307.584 
L 241.00949 266.372315 
L 238.584745 266.372315 
z
" style="fill:#008000;opacity:0.4;"/>
   </g>
   <g id="patch_155">
    <path clip-path="url(#p150cab15fd)" d="M 241.00949 307.584 
L 243.434235 307.584 
L 243.434235 278.147082 
L 241.00949 278.147082 
z
" style="fill:#008000;opacity:0.4;"/>
   </g>
   <g id="patch_156">
    <path clip-path="url(#p150cab15fd)" d="M 243.434235 307.584 
L 245.85898 307.584 
L 245.85898 268.334776 
L 243.434235 268.334776 
z
" style="fill:#008000;opacity:0.4;"/>
   </g>
   <g id="patch_157">
    <path clip-path="url(#p150cab15fd)" d="M 245.85898 307.584 
L 248.283725 307.584 
L 248.283725 280.109543 
L 245.85898 280.109543 
z
" style="fill:#008000;opacity:0.4;"/>
   </g>
   <g id="patch_158">
    <path clip-path="url(#p150cab15fd)" d="M 248.283725 307.584 
L 250.708469 307.584 
L 250.708469 287.959388 
L 248.283725 287.959388 
z
" style="fill:#008000;opacity:0.4;"/>
   </g>
   <g id="patch_159">
    <path clip-path="url(#p150cab15fd)" d="M 250.708469 307.584 
L 253.133214 307.584 
L 253.133214 282.072005 
L 250.708469 282.072005 
z
" style="fill:#008000;opacity:0.4;"/>
   </g>
   <g id="patch_160">
    <path clip-path="url(#p150cab15fd)" d="M 253.133214 307.584 
L 255.557959 307.584 
L 255.557959 274.22216 
L 253.133214 274.22216 
z
" style="fill:#008000;opacity:0.4;"/>
   </g>
   <g id="patch_161">
    <path clip-path="url(#p150cab15fd)" d="M 255.557959 307.584 
L 257.982704 307.584 
L 257.982704 287.959388 
L 255.557959 287.959388 
z
" style="fill:#008000;opacity:0.4;"/>
   </g>
   <g id="patch_162">
    <path clip-path="url(#p150cab15fd)" d="M 257.982704 307.584 
L 260.407449 307.584 
L 260.407449 280.109543 
L 257.982704 280.109543 
z
" style="fill:#008000;opacity:0.4;"/>
   </g>
   <g id="patch_163">
    <path clip-path="url(#p150cab15fd)" d="M 260.407449 307.584 
L 262.832194 307.584 
L 262.832194 289.921849 
L 260.407449 289.921849 
z
" style="fill:#008000;opacity:0.4;"/>
   </g>
   <g id="patch_164">
    <path clip-path="url(#p150cab15fd)" d="M 262.832194 307.584 
L 265.256939 307.584 
L 265.256939 287.959388 
L 262.832194 287.959388 
z
" style="fill:#008000;opacity:0.4;"/>
   </g>
   <g id="patch_165">
    <path clip-path="url(#p150cab15fd)" d="M 265.256939 307.584 
L 267.681684 307.584 
L 267.681684 285.996927 
L 265.256939 285.996927 
z
" style="fill:#008000;opacity:0.4;"/>
   </g>
   <g id="patch_166">
    <path clip-path="url(#p150cab15fd)" d="M 267.681684 307.584 
L 270.106429 307.584 
L 270.106429 285.996927 
L 267.681684 285.996927 
z
" style="fill:#008000;opacity:0.4;"/>
   </g>
   <g id="patch_167">
    <path clip-path="url(#p150cab15fd)" d="M 270.106429 307.584 
L 272.531174 307.584 
L 272.531174 278.147082 
L 270.106429 278.147082 
z
" style="fill:#008000;opacity:0.4;"/>
   </g>
   <g id="patch_168">
    <path clip-path="url(#p150cab15fd)" d="M 272.531174 307.584 
L 274.955918 307.584 
L 274.955918 260.484931 
L 272.531174 260.484931 
z
" style="fill:#008000;opacity:0.4;"/>
   </g>
   <g id="patch_169">
    <path clip-path="url(#p150cab15fd)" d="M 274.955918 307.584 
L 277.380663 307.584 
L 277.380663 274.22216 
L 274.955918 274.22216 
z
" style="fill:#008000;opacity:0.4;"/>
   </g>
   <g id="patch_170">
    <path clip-path="url(#p150cab15fd)" d="M 277.380663 307.584 
L 279.805408 307.584 
L 279.805408 250.672625 
L 277.380663 250.672625 
z
" style="fill:#008000;opacity:0.4;"/>
   </g>
   <g id="patch_171">
    <path clip-path="url(#p150cab15fd)" d="M 279.805408 307.584 
L 282.230153 307.584 
L 282.230153 274.22216 
L 279.805408 274.22216 
z
" style="fill:#008000;opacity:0.4;"/>
   </g>
   <g id="patch_172">
    <path clip-path="url(#p150cab15fd)" d="M 282.230153 307.584 
L 284.654898 307.584 
L 284.654898 270.297237 
L 282.230153 270.297237 
z
" style="fill:#008000;opacity:0.4;"/>
   </g>
   <g id="patch_173">
    <path clip-path="url(#p150cab15fd)" d="M 284.654898 307.584 
L 287.079643 307.584 
L 287.079643 248.710164 
L 284.654898 248.710164 
z
" style="fill:#008000;opacity:0.4;"/>
   </g>
   <g id="patch_174">
    <path clip-path="url(#p150cab15fd)" d="M 287.079643 307.584 
L 289.504388 307.584 
L 289.504388 258.52247 
L 287.079643 258.52247 
z
" style="fill:#008000;opacity:0.4;"/>
   </g>
   <g id="patch_175">
    <path clip-path="url(#p150cab15fd)" d="M 289.504388 307.584 
L 291.929133 307.584 
L 291.929133 260.484931 
L 289.504388 260.484931 
z
" style="fill:#008000;opacity:0.4;"/>
   </g>
   <g id="patch_176">
    <path clip-path="url(#p150cab15fd)" d="M 291.929133 307.584 
L 294.353878 307.584 
L 294.353878 227.123091 
L 291.929133 227.123091 
z
" style="fill:#008000;opacity:0.4;"/>
   </g>
   <g id="patch_177">
    <path clip-path="url(#p150cab15fd)" d="M 294.353878 307.584 
L 296.778623 307.584 
L 296.778623 244.785242 
L 294.353878 244.785242 
z
" style="fill:#008000;opacity:0.4;"/>
   </g>
   <g id="patch_178">
    <path clip-path="url(#p150cab15fd)" d="M 296.778623 307.584 
L 299.203368 307.584 
L 299.203368 248.710164 
L 296.778623 248.710164 
z
" style="fill:#008000;opacity:0.4;"/>
   </g>
   <g id="patch_179">
    <path clip-path="url(#p150cab15fd)" d="M 299.203368 307.584 
L 301.628112 307.584 
L 301.628112 227.123091 
L 299.203368 227.123091 
z
" style="fill:#008000;opacity:0.4;"/>
   </g>
   <g id="patch_180">
    <path clip-path="url(#p150cab15fd)" d="M 301.628112 307.584 
L 304.052857 307.584 
L 304.052857 256.560009 
L 301.628112 256.560009 
z
" style="fill:#008000;opacity:0.4;"/>
   </g>
   <g id="patch_181">
    <path clip-path="url(#p150cab15fd)" d="M 304.052857 307.584 
L 306.477602 307.584 
L 306.477602 256.560009 
L 304.052857 256.560009 
z
" style="fill:#008000;opacity:0.4;"/>
   </g>
   <g id="patch_182">
    <path clip-path="url(#p150cab15fd)" d="M 306.477602 307.584 
L 308.902347 307.584 
L 308.902347 268.334776 
L 306.477602 268.334776 
z
" style="fill:#008000;opacity:0.4;"/>
   </g>
   <g id="patch_183">
    <path clip-path="url(#p150cab15fd)" d="M 308.902347 307.584 
L 311.327092 307.584 
L 311.327092 252.635087 
L 308.902347 252.635087 
z
" style="fill:#008000;opacity:0.4;"/>
   </g>
   <g id="patch_184">
    <path clip-path="url(#p150cab15fd)" d="M 311.327092 307.584 
L 313.751837 307.584 
L 313.751837 260.484931 
L 311.327092 260.484931 
z
" style="fill:#008000;opacity:0.4;"/>
   </g>
   <g id="patch_185">
    <path clip-path="url(#p150cab15fd)" d="M 313.751837 307.584 
L 316.176582 307.584 
L 316.176582 258.52247 
L 313.751837 258.52247 
z
" style="fill:#008000;opacity:0.4;"/>
   </g>
   <g id="patch_186">
    <path clip-path="url(#p150cab15fd)" d="M 316.176582 307.584 
L 318.601327 307.584 
L 318.601327 276.184621 
L 316.176582 276.184621 
z
" style="fill:#008000;opacity:0.4;"/>
   </g>
   <g id="patch_187">
    <path clip-path="url(#p150cab15fd)" d="M 318.601327 307.584 
L 321.026072 307.584 
L 321.026072 274.22216 
L 318.601327 274.22216 
z
" style="fill:#008000;opacity:0.4;"/>
   </g>
   <g id="patch_188">
    <path clip-path="url(#p150cab15fd)" d="M 321.026072 307.584 
L 323.450817 307.584 
L 323.450817 278.147082 
L 321.026072 278.147082 
z
" style="fill:#008000;opacity:0.4;"/>
   </g>
   <g id="patch_189">
    <path clip-path="url(#p150cab15fd)" d="M 323.450817 307.584 
L 325.875562 307.584 
L 325.875562 274.22216 
L 323.450817 274.22216 
z
" style="fill:#008000;opacity:0.4;"/>
   </g>
   <g id="patch_190">
    <path clip-path="url(#p150cab15fd)" d="M 325.875562 307.584 
L 328.300306 307.584 
L 328.300306 278.147082 
L 325.875562 278.147082 
z
" style="fill:#008000;opacity:0.4;"/>
   </g>
   <g id="patch_191">
    <path clip-path="url(#p150cab15fd)" d="M 328.300306 307.584 
L 330.725051 307.584 
L 330.725051 278.147082 
L 328.300306 278.147082 
z
" style="fill:#008000;opacity:0.4;"/>
   </g>
   <g id="patch_192">
    <path clip-path="url(#p150cab15fd)" d="M 330.725051 307.584 
L 333.149796 307.584 
L 333.149796 282.072005 
L 330.725051 282.072005 
z
" style="fill:#008000;opacity:0.4;"/>
   </g>
   <g id="patch_193">
    <path clip-path="url(#p150cab15fd)" d="M 333.149796 307.584 
L 335.574541 307.584 
L 335.574541 272.259699 
L 333.149796 272.259699 
z
" style="fill:#008000;opacity:0.4;"/>
   </g>
   <g id="patch_194">
    <path clip-path="url(#p150cab15fd)" d="M 335.574541 307.584 
L 337.999286 307.584 
L 337.999286 282.072005 
L 335.574541 282.072005 
z
" style="fill:#008000;opacity:0.4;"/>
   </g>
   <g id="patch_195">
    <path clip-path="url(#p150cab15fd)" d="M 337.999286 307.584 
L 340.424031 307.584 
L 340.424031 293.846772 
L 337.999286 293.846772 
z
" style="fill:#008000;opacity:0.4;"/>
   </g>
   <g id="patch_196">
    <path clip-path="url(#p150cab15fd)" d="M 340.424031 307.584 
L 342.848776 307.584 
L 342.848776 293.846772 
L 340.424031 293.846772 
z
" style="fill:#008000;opacity:0.4;"/>
   </g>
   <g id="patch_197">
    <path clip-path="url(#p150cab15fd)" d="M 342.848776 307.584 
L 345.273521 307.584 
L 345.273521 297.771694 
L 342.848776 297.771694 
z
" style="fill:#008000;opacity:0.4;"/>
   </g>
   <g id="patch_198">
    <path clip-path="url(#p150cab15fd)" d="M 345.273521 307.584 
L 347.698266 307.584 
L 347.698266 299.734155 
L 345.273521 299.734155 
z
" style="fill:#008000;opacity:0.4;"/>
   </g>
   <g id="patch_199">
    <path clip-path="url(#p150cab15fd)" d="M 347.698266 307.584 
L 350.123011 307.584 
L 350.123011 301.696616 
L 347.698266 301.696616 
z
" style="fill:#008000;opacity:0.4;"/>
   </g>
   <g id="patch_200">
    <path clip-path="url(#p150cab15fd)" d="M 350.123011 307.584 
L 352.547755 307.584 
L 352.547755 305.621539 
L 350.123011 305.621539 
z
" style="fill:#008000;opacity:0.4;"/>
   </g>
   <g id="patch_201">
    <path clip-path="url(#p150cab15fd)" d="M 352.547755 307.584 
L 354.9725 307.584 
L 354.9725 301.696616 
L 352.547755 301.696616 
z
" style="fill:#008000;opacity:0.4;"/>
   </g>
   <g id="patch_202">
    <path clip-path="url(#p150cab15fd)" d="M 354.9725 307.584 
L 357.397245 307.584 
L 357.397245 303.659078 
L 354.9725 303.659078 
z
" style="fill:#008000;opacity:0.4;"/>
   </g>
   <g id="matplotlib.axis_1">
    <g id="xtick_1">
     <g id="line2d_1">
      <defs>
       <path d="M 0 0 
L 0 3.5 
" id="mf81b359678" style="stroke:#000000;stroke-width:0.8;"/>
      </defs>
      <g>
       <use style="stroke:#000000;stroke-width:0.8;" x="74.171859" xlink:href="#mf81b359678" y="307.584"/>
      </g>
     </g>
     <g id="text_1">
      <!-- 0.0 -->
      <defs>
       <path d="M 31.78125 66.40625 
Q 24.171875 66.40625 20.328125 58.90625 
Q 16.5 51.421875 16.5 36.375 
Q 16.5 21.390625 20.328125 13.890625 
Q 24.171875 6.390625 31.78125 6.390625 
Q 39.453125 6.390625 43.28125 13.890625 
Q 47.125 21.390625 47.125 36.375 
Q 47.125 51.421875 43.28125 58.90625 
Q 39.453125 66.40625 31.78125 66.40625 
z
M 31.78125 74.21875 
Q 44.046875 74.21875 50.515625 64.515625 
Q 56.984375 54.828125 56.984375 36.375 
Q 56.984375 17.96875 50.515625 8.265625 
Q 44.046875 -1.421875 31.78125 -1.421875 
Q 19.53125 -1.421875 13.0625 8.265625 
Q 6.59375 17.96875 6.59375 36.375 
Q 6.59375 54.828125 13.0625 64.515625 
Q 19.53125 74.21875 31.78125 74.21875 
z
" id="DejaVuSans-48"/>
       <path d="M 10.6875 12.40625 
L 21 12.40625 
L 21 0 
L 10.6875 0 
z
" id="DejaVuSans-46"/>
      </defs>
      <g transform="translate(66.220297 322.182437)scale(0.1 -0.1)">
       <use xlink:href="#DejaVuSans-48"/>
       <use x="63.623047" xlink:href="#DejaVuSans-46"/>
       <use x="95.410156" xlink:href="#DejaVuSans-48"/>
      </g>
     </g>
    </g>
    <g id="xtick_2">
     <g id="line2d_2">
      <g>
       <use style="stroke:#000000;stroke-width:0.8;" x="139.250662" xlink:href="#mf81b359678" y="307.584"/>
      </g>
     </g>
     <g id="text_2">
      <!-- 0.2 -->
      <defs>
       <path d="M 19.1875 8.296875 
L 53.609375 8.296875 
L 53.609375 0 
L 7.328125 0 
L 7.328125 8.296875 
Q 12.9375 14.109375 22.625 23.890625 
Q 32.328125 33.6875 34.8125 36.53125 
Q 39.546875 41.84375 41.421875 45.53125 
Q 43.3125 49.21875 43.3125 52.78125 
Q 43.3125 58.59375 39.234375 62.25 
Q 35.15625 65.921875 28.609375 65.921875 
Q 23.96875 65.921875 18.8125 64.3125 
Q 13.671875 62.703125 7.8125 59.421875 
L 7.8125 69.390625 
Q 13.765625 71.78125 18.9375 73 
Q 24.125 74.21875 28.421875 74.21875 
Q 39.75 74.21875 46.484375 68.546875 
Q 53.21875 62.890625 53.21875 53.421875 
Q 53.21875 48.921875 51.53125 44.890625 
Q 49.859375 40.875 45.40625 35.40625 
Q 44.1875 33.984375 37.640625 27.21875 
Q 31.109375 20.453125 19.1875 8.296875 
z
" id="DejaVuSans-50"/>
      </defs>
      <g transform="translate(131.299099 322.182437)scale(0.1 -0.1)">
       <use xlink:href="#DejaVuSans-48"/>
       <use x="63.623047" xlink:href="#DejaVuSans-46"/>
       <use x="95.410156" xlink:href="#DejaVuSans-50"/>
      </g>
     </g>
    </g>
    <g id="xtick_3">
     <g id="line2d_3">
      <g>
       <use style="stroke:#000000;stroke-width:0.8;" x="204.329464" xlink:href="#mf81b359678" y="307.584"/>
      </g>
     </g>
     <g id="text_3">
      <!-- 0.4 -->
      <defs>
       <path d="M 37.796875 64.3125 
L 12.890625 25.390625 
L 37.796875 25.390625 
z
M 35.203125 72.90625 
L 47.609375 72.90625 
L 47.609375 25.390625 
L 58.015625 25.390625 
L 58.015625 17.1875 
L 47.609375 17.1875 
L 47.609375 0 
L 37.796875 0 
L 37.796875 17.1875 
L 4.890625 17.1875 
L 4.890625 26.703125 
z
" id="DejaVuSans-52"/>
      </defs>
      <g transform="translate(196.377901 322.182437)scale(0.1 -0.1)">
       <use xlink:href="#DejaVuSans-48"/>
       <use x="63.623047" xlink:href="#DejaVuSans-46"/>
       <use x="95.410156" xlink:href="#DejaVuSans-52"/>
      </g>
     </g>
    </g>
    <g id="xtick_4">
     <g id="line2d_4">
      <g>
       <use style="stroke:#000000;stroke-width:0.8;" x="269.408266" xlink:href="#mf81b359678" y="307.584"/>
      </g>
     </g>
     <g id="text_4">
      <!-- 0.6 -->
      <defs>
       <path d="M 33.015625 40.375 
Q 26.375 40.375 22.484375 35.828125 
Q 18.609375 31.296875 18.609375 23.390625 
Q 18.609375 15.53125 22.484375 10.953125 
Q 26.375 6.390625 33.015625 6.390625 
Q 39.65625 6.390625 43.53125 10.953125 
Q 47.40625 15.53125 47.40625 23.390625 
Q 47.40625 31.296875 43.53125 35.828125 
Q 39.65625 40.375 33.015625 40.375 
z
M 52.59375 71.296875 
L 52.59375 62.3125 
Q 48.875 64.0625 45.09375 64.984375 
Q 41.3125 65.921875 37.59375 65.921875 
Q 27.828125 65.921875 22.671875 59.328125 
Q 17.53125 52.734375 16.796875 39.40625 
Q 19.671875 43.65625 24.015625 45.921875 
Q 28.375 48.1875 33.59375 48.1875 
Q 44.578125 48.1875 50.953125 41.515625 
Q 57.328125 34.859375 57.328125 23.390625 
Q 57.328125 12.15625 50.6875 5.359375 
Q 44.046875 -1.421875 33.015625 -1.421875 
Q 20.359375 -1.421875 13.671875 8.265625 
Q 6.984375 17.96875 6.984375 36.375 
Q 6.984375 53.65625 15.1875 63.9375 
Q 23.390625 74.21875 37.203125 74.21875 
Q 40.921875 74.21875 44.703125 73.484375 
Q 48.484375 72.75 52.59375 71.296875 
z
" id="DejaVuSans-54"/>
      </defs>
      <g transform="translate(261.456704 322.182437)scale(0.1 -0.1)">
       <use xlink:href="#DejaVuSans-48"/>
       <use x="63.623047" xlink:href="#DejaVuSans-46"/>
       <use x="95.410156" xlink:href="#DejaVuSans-54"/>
      </g>
     </g>
    </g>
    <g id="xtick_5">
     <g id="line2d_5">
      <g>
       <use style="stroke:#000000;stroke-width:0.8;" x="334.487069" xlink:href="#mf81b359678" y="307.584"/>
      </g>
     </g>
     <g id="text_5">
      <!-- 0.8 -->
      <defs>
       <path d="M 31.78125 34.625 
Q 24.75 34.625 20.71875 30.859375 
Q 16.703125 27.09375 16.703125 20.515625 
Q 16.703125 13.921875 20.71875 10.15625 
Q 24.75 6.390625 31.78125 6.390625 
Q 38.8125 6.390625 42.859375 10.171875 
Q 46.921875 13.96875 46.921875 20.515625 
Q 46.921875 27.09375 42.890625 30.859375 
Q 38.875 34.625 31.78125 34.625 
z
M 21.921875 38.8125 
Q 15.578125 40.375 12.03125 44.71875 
Q 8.5 49.078125 8.5 55.328125 
Q 8.5 64.0625 14.71875 69.140625 
Q 20.953125 74.21875 31.78125 74.21875 
Q 42.671875 74.21875 48.875 69.140625 
Q 55.078125 64.0625 55.078125 55.328125 
Q 55.078125 49.078125 51.53125 44.71875 
Q 48 40.375 41.703125 38.8125 
Q 48.828125 37.15625 52.796875 32.3125 
Q 56.78125 27.484375 56.78125 20.515625 
Q 56.78125 9.90625 50.3125 4.234375 
Q 43.84375 -1.421875 31.78125 -1.421875 
Q 19.734375 -1.421875 13.25 4.234375 
Q 6.78125 9.90625 6.78125 20.515625 
Q 6.78125 27.484375 10.78125 32.3125 
Q 14.796875 37.15625 21.921875 38.8125 
z
M 18.3125 54.390625 
Q 18.3125 48.734375 21.84375 45.5625 
Q 25.390625 42.390625 31.78125 42.390625 
Q 38.140625 42.390625 41.71875 45.5625 
Q 45.3125 48.734375 45.3125 54.390625 
Q 45.3125 60.0625 41.71875 63.234375 
Q 38.140625 66.40625 31.78125 66.40625 
Q 25.390625 66.40625 21.84375 63.234375 
Q 18.3125 60.0625 18.3125 54.390625 
z
" id="DejaVuSans-56"/>
      </defs>
      <g transform="translate(326.535506 322.182437)scale(0.1 -0.1)">
       <use xlink:href="#DejaVuSans-48"/>
       <use x="63.623047" xlink:href="#DejaVuSans-46"/>
       <use x="95.410156" xlink:href="#DejaVuSans-56"/>
      </g>
     </g>
    </g>
    <g id="xtick_6">
     <g id="line2d_6">
      <g>
       <use style="stroke:#000000;stroke-width:0.8;" x="399.565871" xlink:href="#mf81b359678" y="307.584"/>
      </g>
     </g>
     <g id="text_6">
      <!-- 1.0 -->
      <defs>
       <path d="M 12.40625 8.296875 
L 28.515625 8.296875 
L 28.515625 63.921875 
L 10.984375 60.40625 
L 10.984375 69.390625 
L 28.421875 72.90625 
L 38.28125 72.90625 
L 38.28125 8.296875 
L 54.390625 8.296875 
L 54.390625 0 
L 12.40625 0 
z
" id="DejaVuSans-49"/>
      </defs>
      <g transform="translate(391.614308 322.182437)scale(0.1 -0.1)">
       <use xlink:href="#DejaVuSans-49"/>
       <use x="63.623047" xlink:href="#DejaVuSans-46"/>
       <use x="95.410156" xlink:href="#DejaVuSans-48"/>
      </g>
     </g>
    </g>
    <g id="text_7">
     <!-- 1e10 -->
     <defs>
      <path d="M 56.203125 29.59375 
L 56.203125 25.203125 
L 14.890625 25.203125 
Q 15.484375 15.921875 20.484375 11.0625 
Q 25.484375 6.203125 34.421875 6.203125 
Q 39.59375 6.203125 44.453125 7.46875 
Q 49.3125 8.734375 54.109375 11.28125 
L 54.109375 2.78125 
Q 49.265625 0.734375 44.1875 -0.34375 
Q 39.109375 -1.421875 33.890625 -1.421875 
Q 20.796875 -1.421875 13.15625 6.1875 
Q 5.515625 13.8125 5.515625 26.8125 
Q 5.515625 40.234375 12.765625 48.109375 
Q 20.015625 56 32.328125 56 
Q 43.359375 56 49.78125 48.890625 
Q 56.203125 41.796875 56.203125 29.59375 
z
M 47.21875 32.234375 
Q 47.125 39.59375 43.09375 43.984375 
Q 39.0625 48.390625 32.421875 48.390625 
Q 24.90625 48.390625 20.390625 44.140625 
Q 15.875 39.890625 15.1875 32.171875 
z
" id="DejaVuSans-101"/>
     </defs>
     <g transform="translate(389.479375 334.860562)scale(0.1 -0.1)">
      <use xlink:href="#DejaVuSans-49"/>
      <use x="63.623047" xlink:href="#DejaVuSans-101"/>
      <use x="125.146484" xlink:href="#DejaVuSans-49"/>
      <use x="188.769531" xlink:href="#DejaVuSans-48"/>
     </g>
    </g>
   </g>
   <g id="matplotlib.axis_2">
    <g id="ytick_1">
     <g id="line2d_7">
      <defs>
       <path d="M 0 0 
L -3.5 0 
" id="m1fe2f7f23a" style="stroke:#000000;stroke-width:0.8;"/>
      </defs>
      <g>
       <use style="stroke:#000000;stroke-width:0.8;" x="57.6" xlink:href="#m1fe2f7f23a" y="307.584"/>
      </g>
     </g>
     <g id="text_8">
      <!-- 0 -->
      <g transform="translate(44.2375 311.383219)scale(0.1 -0.1)">
       <use xlink:href="#DejaVuSans-48"/>
      </g>
     </g>
    </g>
    <g id="ytick_2">
     <g id="line2d_8">
      <g>
       <use style="stroke:#000000;stroke-width:0.8;" x="57.6" xlink:href="#m1fe2f7f23a" y="264.38556"/>
      </g>
     </g>
     <g id="text_9">
      <!-- 1 -->
      <g transform="translate(44.2375 268.184778)scale(0.1 -0.1)">
       <use xlink:href="#DejaVuSans-49"/>
      </g>
     </g>
    </g>
    <g id="ytick_3">
     <g id="line2d_9">
      <g>
       <use style="stroke:#000000;stroke-width:0.8;" x="57.6" xlink:href="#m1fe2f7f23a" y="221.187119"/>
      </g>
     </g>
     <g id="text_10">
      <!-- 2 -->
      <g transform="translate(44.2375 224.986338)scale(0.1 -0.1)">
       <use xlink:href="#DejaVuSans-50"/>
      </g>
     </g>
    </g>
    <g id="ytick_4">
     <g id="line2d_10">
      <g>
       <use style="stroke:#000000;stroke-width:0.8;" x="57.6" xlink:href="#m1fe2f7f23a" y="177.988679"/>
      </g>
     </g>
     <g id="text_11">
      <!-- 3 -->
      <defs>
       <path d="M 40.578125 39.3125 
Q 47.65625 37.796875 51.625 33 
Q 55.609375 28.21875 55.609375 21.1875 
Q 55.609375 10.40625 48.1875 4.484375 
Q 40.765625 -1.421875 27.09375 -1.421875 
Q 22.515625 -1.421875 17.65625 -0.515625 
Q 12.796875 0.390625 7.625 2.203125 
L 7.625 11.71875 
Q 11.71875 9.328125 16.59375 8.109375 
Q 21.484375 6.890625 26.8125 6.890625 
Q 36.078125 6.890625 40.9375 10.546875 
Q 45.796875 14.203125 45.796875 21.1875 
Q 45.796875 27.640625 41.28125 31.265625 
Q 36.765625 34.90625 28.71875 34.90625 
L 20.21875 34.90625 
L 20.21875 43.015625 
L 29.109375 43.015625 
Q 36.375 43.015625 40.234375 45.921875 
Q 44.09375 48.828125 44.09375 54.296875 
Q 44.09375 59.90625 40.109375 62.90625 
Q 36.140625 65.921875 28.71875 65.921875 
Q 24.65625 65.921875 20.015625 65.03125 
Q 15.375 64.15625 9.8125 62.3125 
L 9.8125 71.09375 
Q 15.4375 72.65625 20.34375 73.4375 
Q 25.25 74.21875 29.59375 74.21875 
Q 40.828125 74.21875 47.359375 69.109375 
Q 53.90625 64.015625 53.90625 55.328125 
Q 53.90625 49.265625 50.4375 45.09375 
Q 46.96875 40.921875 40.578125 39.3125 
z
" id="DejaVuSans-51"/>
      </defs>
      <g transform="translate(44.2375 181.787897)scale(0.1 -0.1)">
       <use xlink:href="#DejaVuSans-51"/>
      </g>
     </g>
    </g>
    <g id="ytick_5">
     <g id="line2d_11">
      <g>
       <use style="stroke:#000000;stroke-width:0.8;" x="57.6" xlink:href="#m1fe2f7f23a" y="134.790238"/>
      </g>
     </g>
     <g id="text_12">
      <!-- 4 -->
      <g transform="translate(44.2375 138.589457)scale(0.1 -0.1)">
       <use xlink:href="#DejaVuSans-52"/>
      </g>
     </g>
    </g>
    <g id="ytick_6">
     <g id="line2d_12">
      <g>
       <use style="stroke:#000000;stroke-width:0.8;" x="57.6" xlink:href="#m1fe2f7f23a" y="91.591798"/>
      </g>
     </g>
     <g id="text_13">
      <!-- 5 -->
      <defs>
       <path d="M 10.796875 72.90625 
L 49.515625 72.90625 
L 49.515625 64.59375 
L 19.828125 64.59375 
L 19.828125 46.734375 
Q 21.96875 47.46875 24.109375 47.828125 
Q 26.265625 48.1875 28.421875 48.1875 
Q 40.625 48.1875 47.75 41.5 
Q 54.890625 34.8125 54.890625 23.390625 
Q 54.890625 11.625 47.5625 5.09375 
Q 40.234375 -1.421875 26.90625 -1.421875 
Q 22.3125 -1.421875 17.546875 -0.640625 
Q 12.796875 0.140625 7.71875 1.703125 
L 7.71875 11.625 
Q 12.109375 9.234375 16.796875 8.0625 
Q 21.484375 6.890625 26.703125 6.890625 
Q 35.15625 6.890625 40.078125 11.328125 
Q 45.015625 15.765625 45.015625 23.390625 
Q 45.015625 31 40.078125 35.4375 
Q 35.15625 39.890625 26.703125 39.890625 
Q 22.75 39.890625 18.8125 39.015625 
Q 14.890625 38.140625 10.796875 36.28125 
z
" id="DejaVuSans-53"/>
      </defs>
      <g transform="translate(44.2375 95.391017)scale(0.1 -0.1)">
       <use xlink:href="#DejaVuSans-53"/>
      </g>
     </g>
    </g>
    <g id="ytick_7">
     <g id="line2d_13">
      <g>
       <use style="stroke:#000000;stroke-width:0.8;" x="57.6" xlink:href="#m1fe2f7f23a" y="48.393357"/>
      </g>
     </g>
     <g id="text_14">
      <!-- 6 -->
      <g transform="translate(44.2375 52.192576)scale(0.1 -0.1)">
       <use xlink:href="#DejaVuSans-54"/>
      </g>
     </g>
    </g>
    <g id="text_15">
     <!-- 1e10 -->
     <defs>
      <path d="M 10.59375 35.5 
L 73.1875 35.5 
L 73.1875 27.203125 
L 10.59375 27.203125 
z
" id="DejaVuSans-8722"/>
     </defs>
     <g transform="translate(57.6 38.472)scale(0.1 -0.1)">
      <use xlink:href="#DejaVuSans-49"/>
      <use x="63.623047" xlink:href="#DejaVuSans-101"/>
      <use x="125.146484" xlink:href="#DejaVuSans-8722"/>
      <use x="208.935547" xlink:href="#DejaVuSans-49"/>
      <use x="272.558594" xlink:href="#DejaVuSans-48"/>
     </g>
    </g>
   </g>
   <g id="line2d_14">
    <path clip-path="url(#p150cab15fd)" d="M 75.386134 307.420356 
L 78.538505 307.232755 
L 81.690876 306.866393 
L 84.843247 306.188059 
L 87.995618 304.997572 
L 91.14799 303.017884 
L 94.300361 299.900093 
L 97.452732 295.252961 
L 100.605103 288.70333 
L 103.757474 279.98556 
L 106.909846 269.045688 
L 110.062217 256.133329 
L 113.214588 241.84738 
L 116.366959 227.106113 
L 119.51933 213.030228 
L 122.671702 200.755049 
L 125.824073 191.215377 
L 128.976444 184.961908 
L 132.128815 182.063374 
L 135.281186 182.123703 
L 138.433557 184.407369 
L 141.585929 188.032654 
L 144.7383 192.174421 
L 147.890671 196.220821 
L 151.043042 199.849174 
L 154.195413 203.015402 
L 157.347785 205.877537 
L 160.500156 208.688725 
L 163.652527 211.695855 
L 166.804898 215.069392 
L 169.957269 218.874134 
L 173.109641 223.076116 
L 176.262012 227.572127 
L 179.414383 232.226554 
L 182.566754 236.903736 
L 185.719125 241.489629 
L 188.871496 245.901616 
L 192.023868 250.088374 
L 195.176239 254.022898 
L 198.32861 257.691988 
L 201.480981 261.085315 
L 204.633352 264.186891 
L 207.785724 266.97117 
L 210.938095 269.404971 
L 214.090466 271.454895 
L 217.242837 273.098449 
L 220.395208 274.335881 
L 223.54758 275.199241 
L 226.699951 275.755438 
L 229.852322 276.101118 
L 233.004693 276.348978 
L 236.157064 276.607411 
L 239.309435 276.95761 
L 242.461807 277.433676 
L 245.614178 278.011181 
L 248.766549 278.607683 
L 251.91892 279.095543 
L 255.071291 279.324032 
L 258.223663 279.145514 
L 261.376034 278.440122 
L 264.528405 277.134738 
L 267.680776 275.214375 
L 270.833147 272.726211 
L 273.985519 269.777686 
L 277.13789 266.530059 
L 280.290261 263.188037 
L 283.442632 259.985149 
L 286.595003 257.164337 
L 289.747374 254.953989 
L 292.899746 253.541426 
L 296.052117 253.047909 
L 299.204488 253.510654 
L 302.356859 254.877195 
L 305.50923 257.015318 
L 308.661602 259.738043 
L 311.813973 262.838793 
L 314.966344 266.12851 
L 318.118715 269.46532 
L 321.271086 272.769193 
L 324.423458 276.018418 
L 327.575829 279.23037 
L 330.7282 282.433765 
L 333.880571 285.641905 
L 337.032942 288.835263 
L 340.185313 291.957896 
L 343.337685 294.927163 
L 346.490056 297.651969 
L 349.642427 300.052804 
L 352.794798 302.077402 
L 355.947169 303.70833 
L 359.099541 304.96197 
L 362.251912 305.8809 
L 365.404283 306.523002 
L 368.556654 306.950603 
L 371.709025 307.221939 
L 374.861396 307.385973 
L 378.013768 307.480434 
L 381.166139 307.532239 
L 384.31851 307.559292 
L 387.470881 307.572741 
" style="fill:none;stroke:#f48024;stroke-linecap:square;stroke-width:1.5;"/>
   </g>
   <g id="line2d_15">
    <path clip-path="url(#p150cab15fd)" d="M 73.832727 307.463664 
L 77.112066 307.315589 
L 80.391405 307.015717 
L 83.670744 306.441538 
L 86.950083 305.402315 
L 90.229421 303.624965 
L 93.50876 300.753966 
L 96.788099 296.376703 
L 100.067438 290.083268 
L 103.346777 281.561182 
L 106.626116 270.711347 
L 109.905455 257.755798 
L 113.184793 243.297845 
L 116.464132 228.298418 
L 119.743471 213.952337 
L 123.02281 201.48068 
L 126.302149 191.888673 
L 129.581488 185.757901 
L 132.860826 183.136608 
L 136.140165 183.562364 
L 139.419504 186.208355 
L 142.698843 190.105246 
L 145.978182 194.370149 
L 149.257521 198.378833 
L 152.53686 201.842764 
L 155.816198 204.786675 
L 159.095537 207.452279 
L 162.374876 210.169876 
L 165.654215 213.239603 
L 168.933554 216.851286 
L 172.212893 221.053458 
L 175.492231 225.765531 
L 178.77157 230.817274 
L 182.050909 235.997754 
L 185.330248 241.099798 
L 188.609587 245.952104 
L 191.888926 250.436543 
L 195.168264 254.491606 
L 198.447603 258.104758 
L 201.726942 261.297461 
L 205.006281 264.107372 
L 208.28562 266.572485 
L 211.564959 268.721236 
L 214.844298 270.570556 
L 218.123636 272.131172 
L 221.402975 273.41692 
L 224.682314 274.453623 
L 227.961653 275.283449 
L 231.240992 275.962481 
L 234.520331 276.551614 
L 237.799669 277.103044 
L 241.079008 277.645967 
L 244.358347 278.175423 
L 247.637686 278.647545 
L 250.917025 278.983031 
L 254.196364 279.07877 
L 257.475702 278.825626 
L 260.755041 278.128857 
L 264.03438 276.927093 
L 267.313719 275.206276 
L 270.593058 273.006491 
L 273.872397 270.421405 
L 277.151736 267.591535 
L 280.431074 264.693021 
L 283.710413 261.923184 
L 286.989752 259.483502 
L 290.269091 257.560487 
L 293.54843 256.305835 
L 296.827769 255.818663 
L 300.107107 256.133709 
L 303.386446 257.218997 
L 306.665785 258.984528 
L 309.945124 261.300557 
L 313.224463 264.021256 
L 316.503802 267.008057 
L 319.78314 270.147308 
L 323.062479 273.358676 
L 326.341818 276.593518 
L 329.621157 279.825187 
L 332.900496 283.035296 
L 336.179835 286.200763 
L 339.459174 289.285683 
L 342.738512 292.240116 
L 346.017851 295.005408 
L 349.29719 297.523554 
L 352.576529 299.747192 
L 355.855868 301.647161 
L 359.135207 303.215893 
L 362.414545 304.466489 
L 365.693884 305.428524 
L 368.973223 306.142205 
L 372.252562 306.652375 
L 375.531901 307.003426 
L 378.81124 307.235651 
L 382.090579 307.383111 
L 385.369917 307.472845 
L 388.649256 307.525088 
L 391.928595 307.55414 
L 395.207934 307.569547 
L 398.487273 307.577329 
" style="fill:none;stroke:#008000;stroke-linecap:square;stroke-width:1.5;"/>
   </g>
   <g id="patch_203">
    <path d="M 57.6 307.584 
L 57.6 41.472 
" style="fill:none;stroke:#000000;stroke-linecap:square;stroke-linejoin:miter;stroke-width:0.8;"/>
   </g>
   <g id="patch_204">
    <path d="M 414.72 307.584 
L 414.72 41.472 
" style="fill:none;stroke:#000000;stroke-linecap:square;stroke-linejoin:miter;stroke-width:0.8;"/>
   </g>
   <g id="patch_205">
    <path d="M 57.6 307.584 
L 414.72 307.584 
" style="fill:none;stroke:#000000;stroke-linecap:square;stroke-linejoin:miter;stroke-width:0.8;"/>
   </g>
   <g id="patch_206">
    <path d="M 57.6 41.472 
L 414.72 41.472 
" style="fill:none;stroke:#000000;stroke-linecap:square;stroke-linejoin:miter;stroke-width:0.8;"/>
   </g>
   <g id="text_16">
    <!-- {'mae': 139781431.571, 'smape': 0.04, 'jsd': 0.076} -->
    <defs>
     <path d="M 51.125 -9.28125 
L 51.125 -16.3125 
L 48.09375 -16.3125 
Q 35.9375 -16.3125 31.8125 -12.6875 
Q 27.6875 -9.078125 27.6875 1.703125 
L 27.6875 13.375 
Q 27.6875 20.75 25.046875 23.578125 
Q 22.40625 26.421875 15.484375 26.421875 
L 12.5 26.421875 
L 12.5 33.40625 
L 15.484375 33.40625 
Q 22.46875 33.40625 25.078125 36.203125 
Q 27.6875 39.015625 27.6875 46.296875 
L 27.6875 58.015625 
Q 27.6875 68.796875 31.8125 72.390625 
Q 35.9375 75.984375 48.09375 75.984375 
L 51.125 75.984375 
L 51.125 69 
L 47.796875 69 
Q 40.921875 69 38.8125 66.84375 
Q 36.71875 64.703125 36.71875 57.8125 
L 36.71875 45.703125 
Q 36.71875 38.03125 34.5 34.5625 
Q 32.28125 31.109375 26.90625 29.890625 
Q 32.328125 28.5625 34.515625 25.09375 
Q 36.71875 21.625 36.71875 14.015625 
L 36.71875 1.90625 
Q 36.71875 -4.984375 38.8125 -7.125 
Q 40.921875 -9.28125 47.796875 -9.28125 
z
" id="DejaVuSans-123"/>
     <path d="M 17.921875 72.90625 
L 17.921875 45.796875 
L 9.625 45.796875 
L 9.625 72.90625 
z
" id="DejaVuSans-39"/>
     <path d="M 52 44.1875 
Q 55.375 50.25 60.0625 53.125 
Q 64.75 56 71.09375 56 
Q 79.640625 56 84.28125 50.015625 
Q 88.921875 44.046875 88.921875 33.015625 
L 88.921875 0 
L 79.890625 0 
L 79.890625 32.71875 
Q 79.890625 40.578125 77.09375 44.375 
Q 74.3125 48.1875 68.609375 48.1875 
Q 61.625 48.1875 57.5625 43.546875 
Q 53.515625 38.921875 53.515625 30.90625 
L 53.515625 0 
L 44.484375 0 
L 44.484375 32.71875 
Q 44.484375 40.625 41.703125 44.40625 
Q 38.921875 48.1875 33.109375 48.1875 
Q 26.21875 48.1875 22.15625 43.53125 
Q 18.109375 38.875 18.109375 30.90625 
L 18.109375 0 
L 9.078125 0 
L 9.078125 54.6875 
L 18.109375 54.6875 
L 18.109375 46.1875 
Q 21.1875 51.21875 25.484375 53.609375 
Q 29.78125 56 35.6875 56 
Q 41.65625 56 45.828125 52.96875 
Q 50 49.953125 52 44.1875 
z
" id="DejaVuSans-109"/>
     <path d="M 34.28125 27.484375 
Q 23.390625 27.484375 19.1875 25 
Q 14.984375 22.515625 14.984375 16.5 
Q 14.984375 11.71875 18.140625 8.90625 
Q 21.296875 6.109375 26.703125 6.109375 
Q 34.1875 6.109375 38.703125 11.40625 
Q 43.21875 16.703125 43.21875 25.484375 
L 43.21875 27.484375 
z
M 52.203125 31.203125 
L 52.203125 0 
L 43.21875 0 
L 43.21875 8.296875 
Q 40.140625 3.328125 35.546875 0.953125 
Q 30.953125 -1.421875 24.3125 -1.421875 
Q 15.921875 -1.421875 10.953125 3.296875 
Q 6 8.015625 6 15.921875 
Q 6 25.140625 12.171875 29.828125 
Q 18.359375 34.515625 30.609375 34.515625 
L 43.21875 34.515625 
L 43.21875 35.40625 
Q 43.21875 41.609375 39.140625 45 
Q 35.0625 48.390625 27.6875 48.390625 
Q 23 48.390625 18.546875 47.265625 
Q 14.109375 46.140625 10.015625 43.890625 
L 10.015625 52.203125 
Q 14.9375 54.109375 19.578125 55.046875 
Q 24.21875 56 28.609375 56 
Q 40.484375 56 46.34375 49.84375 
Q 52.203125 43.703125 52.203125 31.203125 
z
" id="DejaVuSans-97"/>
     <path d="M 11.71875 12.40625 
L 22.015625 12.40625 
L 22.015625 0 
L 11.71875 0 
z
M 11.71875 51.703125 
L 22.015625 51.703125 
L 22.015625 39.3125 
L 11.71875 39.3125 
z
" id="DejaVuSans-58"/>
     <path id="DejaVuSans-32"/>
     <path d="M 10.984375 1.515625 
L 10.984375 10.5 
Q 14.703125 8.734375 18.5 7.8125 
Q 22.3125 6.890625 25.984375 6.890625 
Q 35.75 6.890625 40.890625 13.453125 
Q 46.046875 20.015625 46.78125 33.40625 
Q 43.953125 29.203125 39.59375 26.953125 
Q 35.25 24.703125 29.984375 24.703125 
Q 19.046875 24.703125 12.671875 31.3125 
Q 6.296875 37.9375 6.296875 49.421875 
Q 6.296875 60.640625 12.9375 67.421875 
Q 19.578125 74.21875 30.609375 74.21875 
Q 43.265625 74.21875 49.921875 64.515625 
Q 56.59375 54.828125 56.59375 36.375 
Q 56.59375 19.140625 48.40625 8.859375 
Q 40.234375 -1.421875 26.421875 -1.421875 
Q 22.703125 -1.421875 18.890625 -0.6875 
Q 15.09375 0.046875 10.984375 1.515625 
z
M 30.609375 32.421875 
Q 37.25 32.421875 41.125 36.953125 
Q 45.015625 41.5 45.015625 49.421875 
Q 45.015625 57.28125 41.125 61.84375 
Q 37.25 66.40625 30.609375 66.40625 
Q 23.96875 66.40625 20.09375 61.84375 
Q 16.21875 57.28125 16.21875 49.421875 
Q 16.21875 41.5 20.09375 36.953125 
Q 23.96875 32.421875 30.609375 32.421875 
z
" id="DejaVuSans-57"/>
     <path d="M 8.203125 72.90625 
L 55.078125 72.90625 
L 55.078125 68.703125 
L 28.609375 0 
L 18.3125 0 
L 43.21875 64.59375 
L 8.203125 64.59375 
z
" id="DejaVuSans-55"/>
     <path d="M 11.71875 12.40625 
L 22.015625 12.40625 
L 22.015625 4 
L 14.015625 -11.625 
L 7.71875 -11.625 
L 11.71875 4 
z
" id="DejaVuSans-44"/>
     <path d="M 44.28125 53.078125 
L 44.28125 44.578125 
Q 40.484375 46.53125 36.375 47.5 
Q 32.28125 48.484375 27.875 48.484375 
Q 21.1875 48.484375 17.84375 46.4375 
Q 14.5 44.390625 14.5 40.28125 
Q 14.5 37.15625 16.890625 35.375 
Q 19.28125 33.59375 26.515625 31.984375 
L 29.59375 31.296875 
Q 39.15625 29.25 43.1875 25.515625 
Q 47.21875 21.78125 47.21875 15.09375 
Q 47.21875 7.46875 41.1875 3.015625 
Q 35.15625 -1.421875 24.609375 -1.421875 
Q 20.21875 -1.421875 15.453125 -0.5625 
Q 10.6875 0.296875 5.421875 2 
L 5.421875 11.28125 
Q 10.40625 8.6875 15.234375 7.390625 
Q 20.0625 6.109375 24.8125 6.109375 
Q 31.15625 6.109375 34.5625 8.28125 
Q 37.984375 10.453125 37.984375 14.40625 
Q 37.984375 18.0625 35.515625 20.015625 
Q 33.0625 21.96875 24.703125 23.78125 
L 21.578125 24.515625 
Q 13.234375 26.265625 9.515625 29.90625 
Q 5.8125 33.546875 5.8125 39.890625 
Q 5.8125 47.609375 11.28125 51.796875 
Q 16.75 56 26.8125 56 
Q 31.78125 56 36.171875 55.265625 
Q 40.578125 54.546875 44.28125 53.078125 
z
" id="DejaVuSans-115"/>
     <path d="M 18.109375 8.203125 
L 18.109375 -20.796875 
L 9.078125 -20.796875 
L 9.078125 54.6875 
L 18.109375 54.6875 
L 18.109375 46.390625 
Q 20.953125 51.265625 25.265625 53.625 
Q 29.59375 56 35.59375 56 
Q 45.5625 56 51.78125 48.09375 
Q 58.015625 40.1875 58.015625 27.296875 
Q 58.015625 14.40625 51.78125 6.484375 
Q 45.5625 -1.421875 35.59375 -1.421875 
Q 29.59375 -1.421875 25.265625 0.953125 
Q 20.953125 3.328125 18.109375 8.203125 
z
M 48.6875 27.296875 
Q 48.6875 37.203125 44.609375 42.84375 
Q 40.53125 48.484375 33.40625 48.484375 
Q 26.265625 48.484375 22.1875 42.84375 
Q 18.109375 37.203125 18.109375 27.296875 
Q 18.109375 17.390625 22.1875 11.75 
Q 26.265625 6.109375 33.40625 6.109375 
Q 40.53125 6.109375 44.609375 11.75 
Q 48.6875 17.390625 48.6875 27.296875 
z
" id="DejaVuSans-112"/>
     <path d="M 9.421875 54.6875 
L 18.40625 54.6875 
L 18.40625 -0.984375 
Q 18.40625 -11.421875 14.421875 -16.109375 
Q 10.453125 -20.796875 1.609375 -20.796875 
L -1.8125 -20.796875 
L -1.8125 -13.1875 
L 0.59375 -13.1875 
Q 5.71875 -13.1875 7.5625 -10.8125 
Q 9.421875 -8.453125 9.421875 -0.984375 
z
M 9.421875 75.984375 
L 18.40625 75.984375 
L 18.40625 64.59375 
L 9.421875 64.59375 
z
" id="DejaVuSans-106"/>
     <path d="M 45.40625 46.390625 
L 45.40625 75.984375 
L 54.390625 75.984375 
L 54.390625 0 
L 45.40625 0 
L 45.40625 8.203125 
Q 42.578125 3.328125 38.25 0.953125 
Q 33.9375 -1.421875 27.875 -1.421875 
Q 17.96875 -1.421875 11.734375 6.484375 
Q 5.515625 14.40625 5.515625 27.296875 
Q 5.515625 40.1875 11.734375 48.09375 
Q 17.96875 56 27.875 56 
Q 33.9375 56 38.25 53.625 
Q 42.578125 51.265625 45.40625 46.390625 
z
M 14.796875 27.296875 
Q 14.796875 17.390625 18.875 11.75 
Q 22.953125 6.109375 30.078125 6.109375 
Q 37.203125 6.109375 41.296875 11.75 
Q 45.40625 17.390625 45.40625 27.296875 
Q 45.40625 37.203125 41.296875 42.84375 
Q 37.203125 48.484375 30.078125 48.484375 
Q 22.953125 48.484375 18.875 42.84375 
Q 14.796875 37.203125 14.796875 27.296875 
z
" id="DejaVuSans-100"/>
     <path d="M 12.5 -9.28125 
L 15.921875 -9.28125 
Q 22.75 -9.28125 24.828125 -7.171875 
Q 26.90625 -5.078125 26.90625 1.90625 
L 26.90625 14.015625 
Q 26.90625 21.625 29.09375 25.09375 
Q 31.296875 28.5625 36.71875 29.890625 
Q 31.296875 31.109375 29.09375 34.5625 
Q 26.90625 38.03125 26.90625 45.703125 
L 26.90625 57.8125 
Q 26.90625 64.75 24.828125 66.875 
Q 22.75 69 15.921875 69 
L 12.5 69 
L 12.5 75.984375 
L 15.578125 75.984375 
Q 27.734375 75.984375 31.8125 72.390625 
Q 35.890625 68.796875 35.890625 58.015625 
L 35.890625 46.296875 
Q 35.890625 39.015625 38.515625 36.203125 
Q 41.15625 33.40625 48.09375 33.40625 
L 51.125 33.40625 
L 51.125 26.421875 
L 48.09375 26.421875 
Q 41.15625 26.421875 38.515625 23.578125 
Q 35.890625 20.75 35.890625 13.375 
L 35.890625 1.703125 
Q 35.890625 -9.078125 31.8125 -12.6875 
Q 27.734375 -16.3125 15.578125 -16.3125 
L 12.5 -16.3125 
z
" id="DejaVuSans-125"/>
    </defs>
    <g transform="translate(79.003125 35.472)scale(0.12 -0.12)">
     <use xlink:href="#DejaVuSans-123"/>
     <use x="63.623047" xlink:href="#DejaVuSans-39"/>
     <use x="91.113281" xlink:href="#DejaVuSans-109"/>
     <use x="188.525391" xlink:href="#DejaVuSans-97"/>
     <use x="249.804688" xlink:href="#DejaVuSans-101"/>
     <use x="311.328125" xlink:href="#DejaVuSans-39"/>
     <use x="338.818359" xlink:href="#DejaVuSans-58"/>
     <use x="372.509766" xlink:href="#DejaVuSans-32"/>
     <use x="404.296875" xlink:href="#DejaVuSans-49"/>
     <use x="467.919922" xlink:href="#DejaVuSans-51"/>
     <use x="531.542969" xlink:href="#DejaVuSans-57"/>
     <use x="595.166016" xlink:href="#DejaVuSans-55"/>
     <use x="658.789062" xlink:href="#DejaVuSans-56"/>
     <use x="722.412109" xlink:href="#DejaVuSans-49"/>
     <use x="786.035156" xlink:href="#DejaVuSans-52"/>
     <use x="849.658203" xlink:href="#DejaVuSans-51"/>
     <use x="913.28125" xlink:href="#DejaVuSans-49"/>
     <use x="976.904297" xlink:href="#DejaVuSans-46"/>
     <use x="1008.691406" xlink:href="#DejaVuSans-53"/>
     <use x="1072.314453" xlink:href="#DejaVuSans-55"/>
     <use x="1135.9375" xlink:href="#DejaVuSans-49"/>
     <use x="1199.560547" xlink:href="#DejaVuSans-44"/>
     <use x="1231.347656" xlink:href="#DejaVuSans-32"/>
     <use x="1263.134766" xlink:href="#DejaVuSans-39"/>
     <use x="1290.625" xlink:href="#DejaVuSans-115"/>
     <use x="1342.724609" xlink:href="#DejaVuSans-109"/>
     <use x="1440.136719" xlink:href="#DejaVuSans-97"/>
     <use x="1501.416016" xlink:href="#DejaVuSans-112"/>
     <use x="1564.892578" xlink:href="#DejaVuSans-101"/>
     <use x="1626.416016" xlink:href="#DejaVuSans-39"/>
     <use x="1653.90625" xlink:href="#DejaVuSans-58"/>
     <use x="1687.597656" xlink:href="#DejaVuSans-32"/>
     <use x="1719.384766" xlink:href="#DejaVuSans-48"/>
     <use x="1783.007812" xlink:href="#DejaVuSans-46"/>
     <use x="1814.794922" xlink:href="#DejaVuSans-48"/>
     <use x="1878.417969" xlink:href="#DejaVuSans-52"/>
     <use x="1942.041016" xlink:href="#DejaVuSans-44"/>
     <use x="1973.828125" xlink:href="#DejaVuSans-32"/>
     <use x="2005.615234" xlink:href="#DejaVuSans-39"/>
     <use x="2033.105469" xlink:href="#DejaVuSans-106"/>
     <use x="2060.888672" xlink:href="#DejaVuSans-115"/>
     <use x="2112.988281" xlink:href="#DejaVuSans-100"/>
     <use x="2176.464844" xlink:href="#DejaVuSans-39"/>
     <use x="2203.955078" xlink:href="#DejaVuSans-58"/>
     <use x="2237.646484" xlink:href="#DejaVuSans-32"/>
     <use x="2269.433594" xlink:href="#DejaVuSans-48"/>
     <use x="2333.056641" xlink:href="#DejaVuSans-46"/>
     <use x="2364.84375" xlink:href="#DejaVuSans-48"/>
     <use x="2428.466797" xlink:href="#DejaVuSans-55"/>
     <use x="2492.089844" xlink:href="#DejaVuSans-54"/>
     <use x="2555.712891" xlink:href="#DejaVuSans-125"/>
    </g>
   </g>
   <g id="legend_1">
    <g id="patch_207">
     <path d="M 340.565313 78.82825 
L 407.72 78.82825 
Q 409.72 78.82825 409.72 76.82825 
L 409.72 48.472 
Q 409.72 46.472 407.72 46.472 
L 340.565313 46.472 
Q 338.565313 46.472 338.565313 48.472 
L 338.565313 76.82825 
Q 338.565313 78.82825 340.565313 78.82825 
z
" style="fill:#ffffff;opacity:0.8;stroke:#cccccc;stroke-linejoin:miter;"/>
    </g>
    <g id="patch_208">
     <path d="M 342.565313 58.070437 
L 362.565313 58.070437 
L 362.565313 51.070437 
L 342.565313 51.070437 
z
" style="fill:#f48024;opacity:0.4;"/>
    </g>
    <g id="text_17">
     <!-- actual -->
     <defs>
      <path d="M 48.78125 52.59375 
L 48.78125 44.1875 
Q 44.96875 46.296875 41.140625 47.34375 
Q 37.3125 48.390625 33.40625 48.390625 
Q 24.65625 48.390625 19.8125 42.84375 
Q 14.984375 37.3125 14.984375 27.296875 
Q 14.984375 17.28125 19.8125 11.734375 
Q 24.65625 6.203125 33.40625 6.203125 
Q 37.3125 6.203125 41.140625 7.25 
Q 44.96875 8.296875 48.78125 10.40625 
L 48.78125 2.09375 
Q 45.015625 0.34375 40.984375 -0.53125 
Q 36.96875 -1.421875 32.421875 -1.421875 
Q 20.0625 -1.421875 12.78125 6.34375 
Q 5.515625 14.109375 5.515625 27.296875 
Q 5.515625 40.671875 12.859375 48.328125 
Q 20.21875 56 33.015625 56 
Q 37.15625 56 41.109375 55.140625 
Q 45.0625 54.296875 48.78125 52.59375 
z
" id="DejaVuSans-99"/>
      <path d="M 18.3125 70.21875 
L 18.3125 54.6875 
L 36.8125 54.6875 
L 36.8125 47.703125 
L 18.3125 47.703125 
L 18.3125 18.015625 
Q 18.3125 11.328125 20.140625 9.421875 
Q 21.96875 7.515625 27.59375 7.515625 
L 36.8125 7.515625 
L 36.8125 0 
L 27.59375 0 
Q 17.1875 0 13.234375 3.875 
Q 9.28125 7.765625 9.28125 18.015625 
L 9.28125 47.703125 
L 2.6875 47.703125 
L 2.6875 54.6875 
L 9.28125 54.6875 
L 9.28125 70.21875 
z
" id="DejaVuSans-116"/>
      <path d="M 8.5 21.578125 
L 8.5 54.6875 
L 17.484375 54.6875 
L 17.484375 21.921875 
Q 17.484375 14.15625 20.5 10.265625 
Q 23.53125 6.390625 29.59375 6.390625 
Q 36.859375 6.390625 41.078125 11.03125 
Q 45.3125 15.671875 45.3125 23.6875 
L 45.3125 54.6875 
L 54.296875 54.6875 
L 54.296875 0 
L 45.3125 0 
L 45.3125 8.40625 
Q 42.046875 3.421875 37.71875 1 
Q 33.40625 -1.421875 27.6875 -1.421875 
Q 18.265625 -1.421875 13.375 4.4375 
Q 8.5 10.296875 8.5 21.578125 
z
M 31.109375 56 
z
" id="DejaVuSans-117"/>
      <path d="M 9.421875 75.984375 
L 18.40625 75.984375 
L 18.40625 0 
L 9.421875 0 
z
" id="DejaVuSans-108"/>
     </defs>
     <g transform="translate(370.565313 58.070437)scale(0.1 -0.1)">
      <use xlink:href="#DejaVuSans-97"/>
      <use x="61.279297" xlink:href="#DejaVuSans-99"/>
      <use x="116.259766" xlink:href="#DejaVuSans-116"/>
      <use x="155.46875" xlink:href="#DejaVuSans-117"/>
      <use x="218.847656" xlink:href="#DejaVuSans-97"/>
      <use x="280.126953" xlink:href="#DejaVuSans-108"/>
     </g>
    </g>
    <g id="patch_209">
     <path d="M 342.565313 72.748562 
L 362.565313 72.748562 
L 362.565313 65.748562 
L 342.565313 65.748562 
z
" style="fill:#008000;opacity:0.4;"/>
    </g>
    <g id="text_18">
     <!-- predict -->
     <defs>
      <path d="M 41.109375 46.296875 
Q 39.59375 47.171875 37.8125 47.578125 
Q 36.03125 48 33.890625 48 
Q 26.265625 48 22.1875 43.046875 
Q 18.109375 38.09375 18.109375 28.8125 
L 18.109375 0 
L 9.078125 0 
L 9.078125 54.6875 
L 18.109375 54.6875 
L 18.109375 46.1875 
Q 20.953125 51.171875 25.484375 53.578125 
Q 30.03125 56 36.53125 56 
Q 37.453125 56 38.578125 55.875 
Q 39.703125 55.765625 41.0625 55.515625 
z
" id="DejaVuSans-114"/>
      <path d="M 9.421875 54.6875 
L 18.40625 54.6875 
L 18.40625 0 
L 9.421875 0 
z
M 9.421875 75.984375 
L 18.40625 75.984375 
L 18.40625 64.59375 
L 9.421875 64.59375 
z
" id="DejaVuSans-105"/>
     </defs>
     <g transform="translate(370.565313 72.748562)scale(0.1 -0.1)">
      <use xlink:href="#DejaVuSans-112"/>
      <use x="63.476562" xlink:href="#DejaVuSans-114"/>
      <use x="104.558594" xlink:href="#DejaVuSans-101"/>
      <use x="166.082031" xlink:href="#DejaVuSans-100"/>
      <use x="229.558594" xlink:href="#DejaVuSans-105"/>
      <use x="257.341797" xlink:href="#DejaVuSans-99"/>
      <use x="312.322266" xlink:href="#DejaVuSans-116"/>
     </g>
    </g>
   </g>
  </g>
 </g>
 <defs>
  <clipPath id="p150cab15fd">
   <rect height="266.112" width="357.12" x="57.6" y="41.472"/>
  </clipPath>
 </defs>
</svg>
