<?xml version="1.0" encoding="utf-8" standalone="no"?>
<!DOCTYPE svg PUBLIC "-//W3C//DTD SVG 1.1//EN"
  "http://www.w3.org/Graphics/SVG/1.1/DTD/svg11.dtd">
<!-- Created with matplotlib (https://matplotlib.org/) -->
<svg height="345.6pt" version="1.1" viewBox="0 0 460.8 345.6" width="460.8pt" xmlns="http://www.w3.org/2000/svg" xmlns:xlink="http://www.w3.org/1999/xlink">
 <defs>
  <style type="text/css">
*{stroke-linecap:butt;stroke-linejoin:round;}
  </style>
 </defs>
 <g id="figure_1">
  <g id="patch_1">
   <path d="M 0 345.6 
L 460.8 345.6 
L 460.8 0 
L 0 0 
z
" style="fill:#ffffff;"/>
  </g>
  <g id="axes_1">
   <g id="patch_2">
    <path d="M 57.6 307.584 
L 414.72 307.584 
L 414.72 41.472 
L 57.6 41.472 
z
" style="fill:#ffffff;"/>
   </g>
   <g id="patch_3">
    <path clip-path="url(#p1de7960ac8)" d="M 89.745559 307.584 
L 92.673848 307.584 
L 92.673848 296.030707 
L 89.745559 296.030707 
z
" style="fill:#f48024;opacity:0.4;"/>
   </g>
   <g id="patch_4">
    <path clip-path="url(#p1de7960ac8)" d="M 92.673848 307.584 
L 95.602137 307.584 
L 95.602137 288.328512 
L 92.673848 288.328512 
z
" style="fill:#f48024;opacity:0.4;"/>
   </g>
   <g id="patch_5">
    <path clip-path="url(#p1de7960ac8)" d="M 95.602137 307.584 
L 98.530426 307.584 
L 98.530426 287.044813 
L 95.602137 287.044813 
z
" style="fill:#f48024;opacity:0.4;"/>
   </g>
   <g id="patch_6">
    <path clip-path="url(#p1de7960ac8)" d="M 98.530426 307.584 
L 101.458715 307.584 
L 101.458715 275.49152 
L 98.530426 275.49152 
z
" style="fill:#f48024;opacity:0.4;"/>
   </g>
   <g id="patch_7">
    <path clip-path="url(#p1de7960ac8)" d="M 101.458715 307.584 
L 104.387003 307.584 
L 104.387003 252.384935 
L 101.458715 252.384935 
z
" style="fill:#f48024;opacity:0.4;"/>
   </g>
   <g id="patch_8">
    <path clip-path="url(#p1de7960ac8)" d="M 104.387003 307.584 
L 107.315292 307.584 
L 107.315292 225.427252 
L 104.387003 225.427252 
z
" style="fill:#f48024;opacity:0.4;"/>
   </g>
   <g id="patch_9">
    <path clip-path="url(#p1de7960ac8)" d="M 107.315292 307.584 
L 110.243581 307.584 
L 110.243581 202.320666 
L 107.315292 202.320666 
z
" style="fill:#f48024;opacity:0.4;"/>
   </g>
   <g id="patch_10">
    <path clip-path="url(#p1de7960ac8)" d="M 110.243581 307.584 
L 113.17187 307.584 
L 113.17187 143.270503 
L 110.243581 143.270503 
z
" style="fill:#f48024;opacity:0.4;"/>
   </g>
   <g id="patch_11">
    <path clip-path="url(#p1de7960ac8)" d="M 113.17187 307.584 
L 116.100159 307.584 
L 116.100159 127.866113 
L 113.17187 127.866113 
z
" style="fill:#f48024;opacity:0.4;"/>
   </g>
   <g id="patch_12">
    <path clip-path="url(#p1de7960ac8)" d="M 116.100159 307.584 
L 119.028447 307.584 
L 119.028447 81.652942 
L 116.100159 81.652942 
z
" style="fill:#f48024;opacity:0.4;"/>
   </g>
   <g id="patch_13">
    <path clip-path="url(#p1de7960ac8)" d="M 119.028447 307.584 
L 121.956736 307.584 
L 121.956736 102.192129 
L 119.028447 102.192129 
z
" style="fill:#f48024;opacity:0.4;"/>
   </g>
   <g id="patch_14">
    <path clip-path="url(#p1de7960ac8)" d="M 121.956736 307.584 
L 124.885025 307.584 
L 124.885025 108.610625 
L 121.956736 108.610625 
z
" style="fill:#f48024;opacity:0.4;"/>
   </g>
   <g id="patch_15">
    <path clip-path="url(#p1de7960ac8)" d="M 124.885025 307.584 
L 127.813314 307.584 
L 127.813314 174.079284 
L 124.885025 174.079284 
z
" style="fill:#f48024;opacity:0.4;"/>
   </g>
   <g id="patch_16">
    <path clip-path="url(#p1de7960ac8)" d="M 127.813314 307.584 
L 130.741603 307.584 
L 130.741603 188.199975 
L 127.813314 188.199975 
z
" style="fill:#f48024;opacity:0.4;"/>
   </g>
   <g id="patch_17">
    <path clip-path="url(#p1de7960ac8)" d="M 130.741603 307.584 
L 133.669891 307.584 
L 133.669891 201.036967 
L 130.741603 201.036967 
z
" style="fill:#f48024;opacity:0.4;"/>
   </g>
   <g id="patch_18">
    <path clip-path="url(#p1de7960ac8)" d="M 133.669891 307.584 
L 136.59818 307.584 
L 136.59818 230.562048 
L 133.669891 230.562048 
z
" style="fill:#f48024;opacity:0.4;"/>
   </g>
   <g id="patch_19">
    <path clip-path="url(#p1de7960ac8)" d="M 136.59818 307.584 
L 139.526469 307.584 
L 139.526469 251.101236 
L 136.59818 251.101236 
z
" style="fill:#f48024;opacity:0.4;"/>
   </g>
   <g id="patch_20">
    <path clip-path="url(#p1de7960ac8)" d="M 139.526469 307.584 
L 142.454758 307.584 
L 142.454758 242.115341 
L 139.526469 242.115341 
z
" style="fill:#f48024;opacity:0.4;"/>
   </g>
   <g id="patch_21">
    <path clip-path="url(#p1de7960ac8)" d="M 142.454758 307.584 
L 145.383047 307.584 
L 145.383047 265.221927 
L 142.454758 265.221927 
z
" style="fill:#f48024;opacity:0.4;"/>
   </g>
   <g id="patch_22">
    <path clip-path="url(#p1de7960ac8)" d="M 145.383047 307.584 
L 148.311336 307.584 
L 148.311336 276.775219 
L 145.383047 276.775219 
z
" style="fill:#f48024;opacity:0.4;"/>
   </g>
   <g id="patch_23">
    <path clip-path="url(#p1de7960ac8)" d="M 148.311336 307.584 
L 151.239624 307.584 
L 151.239624 289.612211 
L 148.311336 289.612211 
z
" style="fill:#f48024;opacity:0.4;"/>
   </g>
   <g id="patch_24">
    <path clip-path="url(#p1de7960ac8)" d="M 151.239624 307.584 
L 154.167913 307.584 
L 154.167913 294.747008 
L 151.239624 294.747008 
z
" style="fill:#f48024;opacity:0.4;"/>
   </g>
   <g id="patch_25">
    <path clip-path="url(#p1de7960ac8)" d="M 154.167913 307.584 
L 157.096202 307.584 
L 157.096202 276.775219 
L 154.167913 276.775219 
z
" style="fill:#f48024;opacity:0.4;"/>
   </g>
   <g id="patch_26">
    <path clip-path="url(#p1de7960ac8)" d="M 157.096202 307.584 
L 160.024491 307.584 
L 160.024491 296.030707 
L 157.096202 296.030707 
z
" style="fill:#f48024;opacity:0.4;"/>
   </g>
   <g id="patch_27">
    <path clip-path="url(#p1de7960ac8)" d="M 160.024491 307.584 
L 162.95278 307.584 
L 162.95278 294.747008 
L 160.024491 294.747008 
z
" style="fill:#f48024;opacity:0.4;"/>
   </g>
   <g id="patch_28">
    <path clip-path="url(#p1de7960ac8)" d="M 162.95278 307.584 
L 165.881068 307.584 
L 165.881068 296.030707 
L 162.95278 296.030707 
z
" style="fill:#f48024;opacity:0.4;"/>
   </g>
   <g id="patch_29">
    <path clip-path="url(#p1de7960ac8)" d="M 165.881068 307.584 
L 168.809357 307.584 
L 168.809357 294.747008 
L 165.881068 294.747008 
z
" style="fill:#f48024;opacity:0.4;"/>
   </g>
   <g id="patch_30">
    <path clip-path="url(#p1de7960ac8)" d="M 168.809357 307.584 
L 171.737646 307.584 
L 171.737646 306.300301 
L 168.809357 306.300301 
z
" style="fill:#f48024;opacity:0.4;"/>
   </g>
   <g id="patch_31">
    <path clip-path="url(#p1de7960ac8)" d="M 171.737646 307.584 
L 174.665935 307.584 
L 174.665935 296.030707 
L 171.737646 296.030707 
z
" style="fill:#f48024;opacity:0.4;"/>
   </g>
   <g id="patch_32">
    <path clip-path="url(#p1de7960ac8)" d="M 174.665935 307.584 
L 177.594224 307.584 
L 177.594224 299.881805 
L 174.665935 299.881805 
z
" style="fill:#f48024;opacity:0.4;"/>
   </g>
   <g id="patch_33">
    <path clip-path="url(#p1de7960ac8)" d="M 177.594224 307.584 
L 180.522513 307.584 
L 180.522513 296.030707 
L 177.594224 296.030707 
z
" style="fill:#f48024;opacity:0.4;"/>
   </g>
   <g id="patch_34">
    <path clip-path="url(#p1de7960ac8)" d="M 180.522513 307.584 
L 183.450801 307.584 
L 183.450801 302.449203 
L 180.522513 302.449203 
z
" style="fill:#f48024;opacity:0.4;"/>
   </g>
   <g id="patch_35">
    <path clip-path="url(#p1de7960ac8)" d="M 183.450801 307.584 
L 186.37909 307.584 
L 186.37909 301.165504 
L 183.450801 301.165504 
z
" style="fill:#f48024;opacity:0.4;"/>
   </g>
   <g id="patch_36">
    <path clip-path="url(#p1de7960ac8)" d="M 186.37909 307.584 
L 189.307379 307.584 
L 189.307379 302.449203 
L 186.37909 302.449203 
z
" style="fill:#f48024;opacity:0.4;"/>
   </g>
   <g id="patch_37">
    <path clip-path="url(#p1de7960ac8)" d="M 189.307379 307.584 
L 192.235668 307.584 
L 192.235668 299.881805 
L 189.307379 299.881805 
z
" style="fill:#f48024;opacity:0.4;"/>
   </g>
   <g id="patch_38">
    <path clip-path="url(#p1de7960ac8)" d="M 192.235668 307.584 
L 195.163957 307.584 
L 195.163957 302.449203 
L 192.235668 302.449203 
z
" style="fill:#f48024;opacity:0.4;"/>
   </g>
   <g id="patch_39">
    <path clip-path="url(#p1de7960ac8)" d="M 195.163957 307.584 
L 198.092245 307.584 
L 198.092245 305.016602 
L 195.163957 305.016602 
z
" style="fill:#f48024;opacity:0.4;"/>
   </g>
   <g id="patch_40">
    <path clip-path="url(#p1de7960ac8)" d="M 198.092245 307.584 
L 201.020534 307.584 
L 201.020534 301.165504 
L 198.092245 301.165504 
z
" style="fill:#f48024;opacity:0.4;"/>
   </g>
   <g id="patch_41">
    <path clip-path="url(#p1de7960ac8)" d="M 201.020534 307.584 
L 203.948823 307.584 
L 203.948823 306.300301 
L 201.020534 306.300301 
z
" style="fill:#f48024;opacity:0.4;"/>
   </g>
   <g id="patch_42">
    <path clip-path="url(#p1de7960ac8)" d="M 203.948823 307.584 
L 206.877112 307.584 
L 206.877112 306.300301 
L 203.948823 306.300301 
z
" style="fill:#f48024;opacity:0.4;"/>
   </g>
   <g id="patch_43">
    <path clip-path="url(#p1de7960ac8)" d="M 206.877112 307.584 
L 209.805401 307.584 
L 209.805401 306.300301 
L 206.877112 306.300301 
z
" style="fill:#f48024;opacity:0.4;"/>
   </g>
   <g id="patch_44">
    <path clip-path="url(#p1de7960ac8)" d="M 209.805401 307.584 
L 212.733689 307.584 
L 212.733689 305.016602 
L 209.805401 305.016602 
z
" style="fill:#f48024;opacity:0.4;"/>
   </g>
   <g id="patch_45">
    <path clip-path="url(#p1de7960ac8)" d="M 212.733689 307.584 
L 215.661978 307.584 
L 215.661978 306.300301 
L 212.733689 306.300301 
z
" style="fill:#f48024;opacity:0.4;"/>
   </g>
   <g id="patch_46">
    <path clip-path="url(#p1de7960ac8)" d="M 215.661978 307.584 
L 218.590267 307.584 
L 218.590267 302.449203 
L 215.661978 302.449203 
z
" style="fill:#f48024;opacity:0.4;"/>
   </g>
   <g id="patch_47">
    <path clip-path="url(#p1de7960ac8)" d="M 218.590267 307.584 
L 221.518556 307.584 
L 221.518556 306.300301 
L 218.590267 306.300301 
z
" style="fill:#f48024;opacity:0.4;"/>
   </g>
   <g id="patch_48">
    <path clip-path="url(#p1de7960ac8)" d="M 221.518556 307.584 
L 224.446845 307.584 
L 224.446845 306.300301 
L 221.518556 306.300301 
z
" style="fill:#f48024;opacity:0.4;"/>
   </g>
   <g id="patch_49">
    <path clip-path="url(#p1de7960ac8)" d="M 224.446845 307.584 
L 227.375134 307.584 
L 227.375134 305.016602 
L 224.446845 305.016602 
z
" style="fill:#f48024;opacity:0.4;"/>
   </g>
   <g id="patch_50">
    <path clip-path="url(#p1de7960ac8)" d="M 227.375134 307.584 
L 230.303422 307.584 
L 230.303422 307.584 
L 227.375134 307.584 
z
" style="fill:#f48024;opacity:0.4;"/>
   </g>
   <g id="patch_51">
    <path clip-path="url(#p1de7960ac8)" d="M 230.303422 307.584 
L 233.231711 307.584 
L 233.231711 307.584 
L 230.303422 307.584 
z
" style="fill:#f48024;opacity:0.4;"/>
   </g>
   <g id="patch_52">
    <path clip-path="url(#p1de7960ac8)" d="M 233.231711 307.584 
L 236.16 307.584 
L 236.16 307.584 
L 233.231711 307.584 
z
" style="fill:#f48024;opacity:0.4;"/>
   </g>
   <g id="patch_53">
    <path clip-path="url(#p1de7960ac8)" d="M 236.16 307.584 
L 239.088289 307.584 
L 239.088289 307.584 
L 236.16 307.584 
z
" style="fill:#f48024;opacity:0.4;"/>
   </g>
   <g id="patch_54">
    <path clip-path="url(#p1de7960ac8)" d="M 239.088289 307.584 
L 242.016578 307.584 
L 242.016578 307.584 
L 239.088289 307.584 
z
" style="fill:#f48024;opacity:0.4;"/>
   </g>
   <g id="patch_55">
    <path clip-path="url(#p1de7960ac8)" d="M 242.016578 307.584 
L 244.944866 307.584 
L 244.944866 307.584 
L 242.016578 307.584 
z
" style="fill:#f48024;opacity:0.4;"/>
   </g>
   <g id="patch_56">
    <path clip-path="url(#p1de7960ac8)" d="M 244.944866 307.584 
L 247.873155 307.584 
L 247.873155 306.300301 
L 244.944866 306.300301 
z
" style="fill:#f48024;opacity:0.4;"/>
   </g>
   <g id="patch_57">
    <path clip-path="url(#p1de7960ac8)" d="M 247.873155 307.584 
L 250.801444 307.584 
L 250.801444 306.300301 
L 247.873155 306.300301 
z
" style="fill:#f48024;opacity:0.4;"/>
   </g>
   <g id="patch_58">
    <path clip-path="url(#p1de7960ac8)" d="M 250.801444 307.584 
L 253.729733 307.584 
L 253.729733 307.584 
L 250.801444 307.584 
z
" style="fill:#f48024;opacity:0.4;"/>
   </g>
   <g id="patch_59">
    <path clip-path="url(#p1de7960ac8)" d="M 253.729733 307.584 
L 256.658022 307.584 
L 256.658022 307.584 
L 253.729733 307.584 
z
" style="fill:#f48024;opacity:0.4;"/>
   </g>
   <g id="patch_60">
    <path clip-path="url(#p1de7960ac8)" d="M 256.658022 307.584 
L 259.586311 307.584 
L 259.586311 307.584 
L 256.658022 307.584 
z
" style="fill:#f48024;opacity:0.4;"/>
   </g>
   <g id="patch_61">
    <path clip-path="url(#p1de7960ac8)" d="M 259.586311 307.584 
L 262.514599 307.584 
L 262.514599 307.584 
L 259.586311 307.584 
z
" style="fill:#f48024;opacity:0.4;"/>
   </g>
   <g id="patch_62">
    <path clip-path="url(#p1de7960ac8)" d="M 262.514599 307.584 
L 265.442888 307.584 
L 265.442888 306.300301 
L 262.514599 306.300301 
z
" style="fill:#f48024;opacity:0.4;"/>
   </g>
   <g id="patch_63">
    <path clip-path="url(#p1de7960ac8)" d="M 265.442888 307.584 
L 268.371177 307.584 
L 268.371177 305.016602 
L 265.442888 305.016602 
z
" style="fill:#f48024;opacity:0.4;"/>
   </g>
   <g id="patch_64">
    <path clip-path="url(#p1de7960ac8)" d="M 268.371177 307.584 
L 271.299466 307.584 
L 271.299466 307.584 
L 268.371177 307.584 
z
" style="fill:#f48024;opacity:0.4;"/>
   </g>
   <g id="patch_65">
    <path clip-path="url(#p1de7960ac8)" d="M 271.299466 307.584 
L 274.227755 307.584 
L 274.227755 306.300301 
L 271.299466 306.300301 
z
" style="fill:#f48024;opacity:0.4;"/>
   </g>
   <g id="patch_66">
    <path clip-path="url(#p1de7960ac8)" d="M 274.227755 307.584 
L 277.156043 307.584 
L 277.156043 306.300301 
L 274.227755 306.300301 
z
" style="fill:#f48024;opacity:0.4;"/>
   </g>
   <g id="patch_67">
    <path clip-path="url(#p1de7960ac8)" d="M 277.156043 307.584 
L 280.084332 307.584 
L 280.084332 307.584 
L 277.156043 307.584 
z
" style="fill:#f48024;opacity:0.4;"/>
   </g>
   <g id="patch_68">
    <path clip-path="url(#p1de7960ac8)" d="M 280.084332 307.584 
L 283.012621 307.584 
L 283.012621 307.584 
L 280.084332 307.584 
z
" style="fill:#f48024;opacity:0.4;"/>
   </g>
   <g id="patch_69">
    <path clip-path="url(#p1de7960ac8)" d="M 283.012621 307.584 
L 285.94091 307.584 
L 285.94091 307.584 
L 283.012621 307.584 
z
" style="fill:#f48024;opacity:0.4;"/>
   </g>
   <g id="patch_70">
    <path clip-path="url(#p1de7960ac8)" d="M 285.94091 307.584 
L 288.869199 307.584 
L 288.869199 307.584 
L 285.94091 307.584 
z
" style="fill:#f48024;opacity:0.4;"/>
   </g>
   <g id="patch_71">
    <path clip-path="url(#p1de7960ac8)" d="M 288.869199 307.584 
L 291.797487 307.584 
L 291.797487 307.584 
L 288.869199 307.584 
z
" style="fill:#f48024;opacity:0.4;"/>
   </g>
   <g id="patch_72">
    <path clip-path="url(#p1de7960ac8)" d="M 291.797487 307.584 
L 294.725776 307.584 
L 294.725776 307.584 
L 291.797487 307.584 
z
" style="fill:#f48024;opacity:0.4;"/>
   </g>
   <g id="patch_73">
    <path clip-path="url(#p1de7960ac8)" d="M 294.725776 307.584 
L 297.654065 307.584 
L 297.654065 307.584 
L 294.725776 307.584 
z
" style="fill:#f48024;opacity:0.4;"/>
   </g>
   <g id="patch_74">
    <path clip-path="url(#p1de7960ac8)" d="M 297.654065 307.584 
L 300.582354 307.584 
L 300.582354 307.584 
L 297.654065 307.584 
z
" style="fill:#f48024;opacity:0.4;"/>
   </g>
   <g id="patch_75">
    <path clip-path="url(#p1de7960ac8)" d="M 300.582354 307.584 
L 303.510643 307.584 
L 303.510643 307.584 
L 300.582354 307.584 
z
" style="fill:#f48024;opacity:0.4;"/>
   </g>
   <g id="patch_76">
    <path clip-path="url(#p1de7960ac8)" d="M 303.510643 307.584 
L 306.438932 307.584 
L 306.438932 306.300301 
L 303.510643 306.300301 
z
" style="fill:#f48024;opacity:0.4;"/>
   </g>
   <g id="patch_77">
    <path clip-path="url(#p1de7960ac8)" d="M 306.438932 307.584 
L 309.36722 307.584 
L 309.36722 307.584 
L 306.438932 307.584 
z
" style="fill:#f48024;opacity:0.4;"/>
   </g>
   <g id="patch_78">
    <path clip-path="url(#p1de7960ac8)" d="M 309.36722 307.584 
L 312.295509 307.584 
L 312.295509 307.584 
L 309.36722 307.584 
z
" style="fill:#f48024;opacity:0.4;"/>
   </g>
   <g id="patch_79">
    <path clip-path="url(#p1de7960ac8)" d="M 312.295509 307.584 
L 315.223798 307.584 
L 315.223798 307.584 
L 312.295509 307.584 
z
" style="fill:#f48024;opacity:0.4;"/>
   </g>
   <g id="patch_80">
    <path clip-path="url(#p1de7960ac8)" d="M 315.223798 307.584 
L 318.152087 307.584 
L 318.152087 307.584 
L 315.223798 307.584 
z
" style="fill:#f48024;opacity:0.4;"/>
   </g>
   <g id="patch_81">
    <path clip-path="url(#p1de7960ac8)" d="M 318.152087 307.584 
L 321.080376 307.584 
L 321.080376 307.584 
L 318.152087 307.584 
z
" style="fill:#f48024;opacity:0.4;"/>
   </g>
   <g id="patch_82">
    <path clip-path="url(#p1de7960ac8)" d="M 321.080376 307.584 
L 324.008664 307.584 
L 324.008664 307.584 
L 321.080376 307.584 
z
" style="fill:#f48024;opacity:0.4;"/>
   </g>
   <g id="patch_83">
    <path clip-path="url(#p1de7960ac8)" d="M 324.008664 307.584 
L 326.936953 307.584 
L 326.936953 307.584 
L 324.008664 307.584 
z
" style="fill:#f48024;opacity:0.4;"/>
   </g>
   <g id="patch_84">
    <path clip-path="url(#p1de7960ac8)" d="M 326.936953 307.584 
L 329.865242 307.584 
L 329.865242 307.584 
L 326.936953 307.584 
z
" style="fill:#f48024;opacity:0.4;"/>
   </g>
   <g id="patch_85">
    <path clip-path="url(#p1de7960ac8)" d="M 329.865242 307.584 
L 332.793531 307.584 
L 332.793531 307.584 
L 329.865242 307.584 
z
" style="fill:#f48024;opacity:0.4;"/>
   </g>
   <g id="patch_86">
    <path clip-path="url(#p1de7960ac8)" d="M 332.793531 307.584 
L 335.72182 307.584 
L 335.72182 307.584 
L 332.793531 307.584 
z
" style="fill:#f48024;opacity:0.4;"/>
   </g>
   <g id="patch_87">
    <path clip-path="url(#p1de7960ac8)" d="M 335.72182 307.584 
L 338.650109 307.584 
L 338.650109 307.584 
L 335.72182 307.584 
z
" style="fill:#f48024;opacity:0.4;"/>
   </g>
   <g id="patch_88">
    <path clip-path="url(#p1de7960ac8)" d="M 338.650109 307.584 
L 341.578397 307.584 
L 341.578397 307.584 
L 338.650109 307.584 
z
" style="fill:#f48024;opacity:0.4;"/>
   </g>
   <g id="patch_89">
    <path clip-path="url(#p1de7960ac8)" d="M 341.578397 307.584 
L 344.506686 307.584 
L 344.506686 307.584 
L 341.578397 307.584 
z
" style="fill:#f48024;opacity:0.4;"/>
   </g>
   <g id="patch_90">
    <path clip-path="url(#p1de7960ac8)" d="M 344.506686 307.584 
L 347.434975 307.584 
L 347.434975 307.584 
L 344.506686 307.584 
z
" style="fill:#f48024;opacity:0.4;"/>
   </g>
   <g id="patch_91">
    <path clip-path="url(#p1de7960ac8)" d="M 347.434975 307.584 
L 350.363264 307.584 
L 350.363264 307.584 
L 347.434975 307.584 
z
" style="fill:#f48024;opacity:0.4;"/>
   </g>
   <g id="patch_92">
    <path clip-path="url(#p1de7960ac8)" d="M 350.363264 307.584 
L 353.291553 307.584 
L 353.291553 307.584 
L 350.363264 307.584 
z
" style="fill:#f48024;opacity:0.4;"/>
   </g>
   <g id="patch_93">
    <path clip-path="url(#p1de7960ac8)" d="M 353.291553 307.584 
L 356.219841 307.584 
L 356.219841 307.584 
L 353.291553 307.584 
z
" style="fill:#f48024;opacity:0.4;"/>
   </g>
   <g id="patch_94">
    <path clip-path="url(#p1de7960ac8)" d="M 356.219841 307.584 
L 359.14813 307.584 
L 359.14813 307.584 
L 356.219841 307.584 
z
" style="fill:#f48024;opacity:0.4;"/>
   </g>
   <g id="patch_95">
    <path clip-path="url(#p1de7960ac8)" d="M 359.14813 307.584 
L 362.076419 307.584 
L 362.076419 307.584 
L 359.14813 307.584 
z
" style="fill:#f48024;opacity:0.4;"/>
   </g>
   <g id="patch_96">
    <path clip-path="url(#p1de7960ac8)" d="M 362.076419 307.584 
L 365.004708 307.584 
L 365.004708 306.300301 
L 362.076419 306.300301 
z
" style="fill:#f48024;opacity:0.4;"/>
   </g>
   <g id="patch_97">
    <path clip-path="url(#p1de7960ac8)" d="M 365.004708 307.584 
L 367.932997 307.584 
L 367.932997 307.584 
L 365.004708 307.584 
z
" style="fill:#f48024;opacity:0.4;"/>
   </g>
   <g id="patch_98">
    <path clip-path="url(#p1de7960ac8)" d="M 367.932997 307.584 
L 370.861285 307.584 
L 370.861285 307.584 
L 367.932997 307.584 
z
" style="fill:#f48024;opacity:0.4;"/>
   </g>
   <g id="patch_99">
    <path clip-path="url(#p1de7960ac8)" d="M 370.861285 307.584 
L 373.789574 307.584 
L 373.789574 307.584 
L 370.861285 307.584 
z
" style="fill:#f48024;opacity:0.4;"/>
   </g>
   <g id="patch_100">
    <path clip-path="url(#p1de7960ac8)" d="M 373.789574 307.584 
L 376.717863 307.584 
L 376.717863 307.584 
L 373.789574 307.584 
z
" style="fill:#f48024;opacity:0.4;"/>
   </g>
   <g id="patch_101">
    <path clip-path="url(#p1de7960ac8)" d="M 376.717863 307.584 
L 379.646152 307.584 
L 379.646152 307.584 
L 376.717863 307.584 
z
" style="fill:#f48024;opacity:0.4;"/>
   </g>
   <g id="patch_102">
    <path clip-path="url(#p1de7960ac8)" d="M 379.646152 307.584 
L 382.574441 307.584 
L 382.574441 306.300301 
L 379.646152 306.300301 
z
" style="fill:#f48024;opacity:0.4;"/>
   </g>
   <g id="patch_103">
    <path clip-path="url(#p1de7960ac8)" d="M 91.007054 307.584 
L 93.6175 307.584 
L 93.6175 293.184 
L 91.007054 293.184 
z
" style="fill:#008000;opacity:0.4;"/>
   </g>
   <g id="patch_104">
    <path clip-path="url(#p1de7960ac8)" d="M 93.6175 307.584 
L 96.227946 307.584 
L 96.227946 301.824 
L 93.6175 301.824 
z
" style="fill:#008000;opacity:0.4;"/>
   </g>
   <g id="patch_105">
    <path clip-path="url(#p1de7960ac8)" d="M 96.227946 307.584 
L 98.838392 307.584 
L 98.838392 285.984 
L 96.227946 285.984 
z
" style="fill:#008000;opacity:0.4;"/>
   </g>
   <g id="patch_106">
    <path clip-path="url(#p1de7960ac8)" d="M 98.838392 307.584 
L 101.448837 307.584 
L 101.448837 285.984 
L 98.838392 285.984 
z
" style="fill:#008000;opacity:0.4;"/>
   </g>
   <g id="patch_107">
    <path clip-path="url(#p1de7960ac8)" d="M 101.448837 307.584 
L 104.059283 307.584 
L 104.059283 265.824 
L 101.448837 265.824 
z
" style="fill:#008000;opacity:0.4;"/>
   </g>
   <g id="patch_108">
    <path clip-path="url(#p1de7960ac8)" d="M 104.059283 307.584 
L 106.669729 307.584 
L 106.669729 258.624 
L 104.059283 258.624 
z
" style="fill:#008000;opacity:0.4;"/>
   </g>
   <g id="patch_109">
    <path clip-path="url(#p1de7960ac8)" d="M 106.669729 307.584 
L 109.280175 307.584 
L 109.280175 221.184 
L 106.669729 221.184 
z
" style="fill:#008000;opacity:0.4;"/>
   </g>
   <g id="patch_110">
    <path clip-path="url(#p1de7960ac8)" d="M 109.280175 307.584 
L 111.890621 307.584 
L 111.890621 192.384 
L 109.280175 192.384 
z
" style="fill:#008000;opacity:0.4;"/>
   </g>
   <g id="patch_111">
    <path clip-path="url(#p1de7960ac8)" d="M 111.890621 307.584 
L 114.501067 307.584 
L 114.501067 131.904 
L 111.890621 131.904 
z
" style="fill:#008000;opacity:0.4;"/>
   </g>
   <g id="patch_112">
    <path clip-path="url(#p1de7960ac8)" d="M 114.501067 307.584 
L 117.111512 307.584 
L 117.111512 90.144 
L 114.501067 90.144 
z
" style="fill:#008000;opacity:0.4;"/>
   </g>
   <g id="patch_113">
    <path clip-path="url(#p1de7960ac8)" d="M 117.111512 307.584 
L 119.721958 307.584 
L 119.721958 80.064 
L 117.111512 80.064 
z
" style="fill:#008000;opacity:0.4;"/>
   </g>
   <g id="patch_114">
    <path clip-path="url(#p1de7960ac8)" d="M 119.721958 307.584 
L 122.332404 307.584 
L 122.332404 54.144 
L 119.721958 54.144 
z
" style="fill:#008000;opacity:0.4;"/>
   </g>
   <g id="patch_115">
    <path clip-path="url(#p1de7960ac8)" d="M 122.332404 307.584 
L 124.94285 307.584 
L 124.94285 105.984 
L 122.332404 105.984 
z
" style="fill:#008000;opacity:0.4;"/>
   </g>
   <g id="patch_116">
    <path clip-path="url(#p1de7960ac8)" d="M 124.94285 307.584 
L 127.553296 307.584 
L 127.553296 114.624 
L 124.94285 114.624 
z
" style="fill:#008000;opacity:0.4;"/>
   </g>
   <g id="patch_117">
    <path clip-path="url(#p1de7960ac8)" d="M 127.553296 307.584 
L 130.163742 307.584 
L 130.163742 186.624 
L 127.553296 186.624 
z
" style="fill:#008000;opacity:0.4;"/>
   </g>
   <g id="patch_118">
    <path clip-path="url(#p1de7960ac8)" d="M 130.163742 307.584 
L 132.774187 307.584 
L 132.774187 182.304 
L 130.163742 182.304 
z
" style="fill:#008000;opacity:0.4;"/>
   </g>
   <g id="patch_119">
    <path clip-path="url(#p1de7960ac8)" d="M 132.774187 307.584 
L 135.384633 307.584 
L 135.384633 232.704 
L 132.774187 232.704 
z
" style="fill:#008000;opacity:0.4;"/>
   </g>
   <g id="patch_120">
    <path clip-path="url(#p1de7960ac8)" d="M 135.384633 307.584 
L 137.995079 307.584 
L 137.995079 248.544 
L 135.384633 248.544 
z
" style="fill:#008000;opacity:0.4;"/>
   </g>
   <g id="patch_121">
    <path clip-path="url(#p1de7960ac8)" d="M 137.995079 307.584 
L 140.605525 307.584 
L 140.605525 239.904 
L 137.995079 239.904 
z
" style="fill:#008000;opacity:0.4;"/>
   </g>
   <g id="patch_122">
    <path clip-path="url(#p1de7960ac8)" d="M 140.605525 307.584 
L 143.215971 307.584 
L 143.215971 261.504 
L 140.605525 261.504 
z
" style="fill:#008000;opacity:0.4;"/>
   </g>
   <g id="patch_123">
    <path clip-path="url(#p1de7960ac8)" d="M 143.215971 307.584 
L 145.826417 307.584 
L 145.826417 265.824 
L 143.215971 265.824 
z
" style="fill:#008000;opacity:0.4;"/>
   </g>
   <g id="patch_124">
    <path clip-path="url(#p1de7960ac8)" d="M 145.826417 307.584 
L 148.436862 307.584 
L 148.436862 285.984 
L 145.826417 285.984 
z
" style="fill:#008000;opacity:0.4;"/>
   </g>
   <g id="patch_125">
    <path clip-path="url(#p1de7960ac8)" d="M 148.436862 307.584 
L 151.047308 307.584 
L 151.047308 288.864 
L 148.436862 288.864 
z
" style="fill:#008000;opacity:0.4;"/>
   </g>
   <g id="patch_126">
    <path clip-path="url(#p1de7960ac8)" d="M 151.047308 307.584 
L 153.657754 307.584 
L 153.657754 275.904 
L 151.047308 275.904 
z
" style="fill:#008000;opacity:0.4;"/>
   </g>
   <g id="patch_127">
    <path clip-path="url(#p1de7960ac8)" d="M 153.657754 307.584 
L 156.2682 307.584 
L 156.2682 294.624 
L 153.657754 294.624 
z
" style="fill:#008000;opacity:0.4;"/>
   </g>
   <g id="patch_128">
    <path clip-path="url(#p1de7960ac8)" d="M 156.2682 307.584 
L 158.878646 307.584 
L 158.878646 290.304 
L 156.2682 290.304 
z
" style="fill:#008000;opacity:0.4;"/>
   </g>
   <g id="patch_129">
    <path clip-path="url(#p1de7960ac8)" d="M 158.878646 307.584 
L 161.489091 307.584 
L 161.489091 291.744 
L 158.878646 291.744 
z
" style="fill:#008000;opacity:0.4;"/>
   </g>
   <g id="patch_130">
    <path clip-path="url(#p1de7960ac8)" d="M 161.489091 307.584 
L 164.099537 307.584 
L 164.099537 293.184 
L 161.489091 293.184 
z
" style="fill:#008000;opacity:0.4;"/>
   </g>
   <g id="patch_131">
    <path clip-path="url(#p1de7960ac8)" d="M 164.099537 307.584 
L 166.709983 307.584 
L 166.709983 298.944 
L 164.099537 298.944 
z
" style="fill:#008000;opacity:0.4;"/>
   </g>
   <g id="patch_132">
    <path clip-path="url(#p1de7960ac8)" d="M 166.709983 307.584 
L 169.320429 307.584 
L 169.320429 296.064 
L 166.709983 296.064 
z
" style="fill:#008000;opacity:0.4;"/>
   </g>
   <g id="patch_133">
    <path clip-path="url(#p1de7960ac8)" d="M 169.320429 307.584 
L 171.930875 307.584 
L 171.930875 300.384 
L 169.320429 300.384 
z
" style="fill:#008000;opacity:0.4;"/>
   </g>
   <g id="patch_134">
    <path clip-path="url(#p1de7960ac8)" d="M 171.930875 307.584 
L 174.541321 307.584 
L 174.541321 301.824 
L 171.930875 301.824 
z
" style="fill:#008000;opacity:0.4;"/>
   </g>
   <g id="patch_135">
    <path clip-path="url(#p1de7960ac8)" d="M 174.541321 307.584 
L 177.151766 307.584 
L 177.151766 300.384 
L 174.541321 300.384 
z
" style="fill:#008000;opacity:0.4;"/>
   </g>
   <g id="patch_136">
    <path clip-path="url(#p1de7960ac8)" d="M 177.151766 307.584 
L 179.762212 307.584 
L 179.762212 296.064 
L 177.151766 296.064 
z
" style="fill:#008000;opacity:0.4;"/>
   </g>
   <g id="patch_137">
    <path clip-path="url(#p1de7960ac8)" d="M 179.762212 307.584 
L 182.372658 307.584 
L 182.372658 297.504 
L 179.762212 297.504 
z
" style="fill:#008000;opacity:0.4;"/>
   </g>
   <g id="patch_138">
    <path clip-path="url(#p1de7960ac8)" d="M 182.372658 307.584 
L 184.983104 307.584 
L 184.983104 303.264 
L 182.372658 303.264 
z
" style="fill:#008000;opacity:0.4;"/>
   </g>
   <g id="patch_139">
    <path clip-path="url(#p1de7960ac8)" d="M 184.983104 307.584 
L 187.59355 307.584 
L 187.59355 303.264 
L 184.983104 303.264 
z
" style="fill:#008000;opacity:0.4;"/>
   </g>
   <g id="patch_140">
    <path clip-path="url(#p1de7960ac8)" d="M 187.59355 307.584 
L 190.203996 307.584 
L 190.203996 303.264 
L 187.59355 303.264 
z
" style="fill:#008000;opacity:0.4;"/>
   </g>
   <g id="patch_141">
    <path clip-path="url(#p1de7960ac8)" d="M 190.203996 307.584 
L 192.814441 307.584 
L 192.814441 300.384 
L 190.203996 300.384 
z
" style="fill:#008000;opacity:0.4;"/>
   </g>
   <g id="patch_142">
    <path clip-path="url(#p1de7960ac8)" d="M 192.814441 307.584 
L 195.424887 307.584 
L 195.424887 304.704 
L 192.814441 304.704 
z
" style="fill:#008000;opacity:0.4;"/>
   </g>
   <g id="patch_143">
    <path clip-path="url(#p1de7960ac8)" d="M 195.424887 307.584 
L 198.035333 307.584 
L 198.035333 300.384 
L 195.424887 300.384 
z
" style="fill:#008000;opacity:0.4;"/>
   </g>
   <g id="patch_144">
    <path clip-path="url(#p1de7960ac8)" d="M 198.035333 307.584 
L 200.645779 307.584 
L 200.645779 307.584 
L 198.035333 307.584 
z
" style="fill:#008000;opacity:0.4;"/>
   </g>
   <g id="patch_145">
    <path clip-path="url(#p1de7960ac8)" d="M 200.645779 307.584 
L 203.256225 307.584 
L 203.256225 306.144 
L 200.645779 306.144 
z
" style="fill:#008000;opacity:0.4;"/>
   </g>
   <g id="patch_146">
    <path clip-path="url(#p1de7960ac8)" d="M 203.256225 307.584 
L 205.86667 307.584 
L 205.86667 306.144 
L 203.256225 306.144 
z
" style="fill:#008000;opacity:0.4;"/>
   </g>
   <g id="patch_147">
    <path clip-path="url(#p1de7960ac8)" d="M 205.86667 307.584 
L 208.477116 307.584 
L 208.477116 306.144 
L 205.86667 306.144 
z
" style="fill:#008000;opacity:0.4;"/>
   </g>
   <g id="patch_148">
    <path clip-path="url(#p1de7960ac8)" d="M 208.477116 307.584 
L 211.087562 307.584 
L 211.087562 307.584 
L 208.477116 307.584 
z
" style="fill:#008000;opacity:0.4;"/>
   </g>
   <g id="patch_149">
    <path clip-path="url(#p1de7960ac8)" d="M 211.087562 307.584 
L 213.698008 307.584 
L 213.698008 306.144 
L 211.087562 306.144 
z
" style="fill:#008000;opacity:0.4;"/>
   </g>
   <g id="patch_150">
    <path clip-path="url(#p1de7960ac8)" d="M 213.698008 307.584 
L 216.308454 307.584 
L 216.308454 306.144 
L 213.698008 306.144 
z
" style="fill:#008000;opacity:0.4;"/>
   </g>
   <g id="patch_151">
    <path clip-path="url(#p1de7960ac8)" d="M 216.308454 307.584 
L 218.9189 307.584 
L 218.9189 306.144 
L 216.308454 306.144 
z
" style="fill:#008000;opacity:0.4;"/>
   </g>
   <g id="patch_152">
    <path clip-path="url(#p1de7960ac8)" d="M 218.9189 307.584 
L 221.529345 307.584 
L 221.529345 306.144 
L 218.9189 306.144 
z
" style="fill:#008000;opacity:0.4;"/>
   </g>
   <g id="patch_153">
    <path clip-path="url(#p1de7960ac8)" d="M 221.529345 307.584 
L 224.139791 307.584 
L 224.139791 307.584 
L 221.529345 307.584 
z
" style="fill:#008000;opacity:0.4;"/>
   </g>
   <g id="patch_154">
    <path clip-path="url(#p1de7960ac8)" d="M 224.139791 307.584 
L 226.750237 307.584 
L 226.750237 307.584 
L 224.139791 307.584 
z
" style="fill:#008000;opacity:0.4;"/>
   </g>
   <g id="patch_155">
    <path clip-path="url(#p1de7960ac8)" d="M 226.750237 307.584 
L 229.360683 307.584 
L 229.360683 307.584 
L 226.750237 307.584 
z
" style="fill:#008000;opacity:0.4;"/>
   </g>
   <g id="patch_156">
    <path clip-path="url(#p1de7960ac8)" d="M 229.360683 307.584 
L 231.971129 307.584 
L 231.971129 306.144 
L 229.360683 306.144 
z
" style="fill:#008000;opacity:0.4;"/>
   </g>
   <g id="patch_157">
    <path clip-path="url(#p1de7960ac8)" d="M 231.971129 307.584 
L 234.581575 307.584 
L 234.581575 307.584 
L 231.971129 307.584 
z
" style="fill:#008000;opacity:0.4;"/>
   </g>
   <g id="patch_158">
    <path clip-path="url(#p1de7960ac8)" d="M 234.581575 307.584 
L 237.19202 307.584 
L 237.19202 307.584 
L 234.581575 307.584 
z
" style="fill:#008000;opacity:0.4;"/>
   </g>
   <g id="patch_159">
    <path clip-path="url(#p1de7960ac8)" d="M 237.19202 307.584 
L 239.802466 307.584 
L 239.802466 304.704 
L 237.19202 304.704 
z
" style="fill:#008000;opacity:0.4;"/>
   </g>
   <g id="patch_160">
    <path clip-path="url(#p1de7960ac8)" d="M 239.802466 307.584 
L 242.412912 307.584 
L 242.412912 307.584 
L 239.802466 307.584 
z
" style="fill:#008000;opacity:0.4;"/>
   </g>
   <g id="patch_161">
    <path clip-path="url(#p1de7960ac8)" d="M 242.412912 307.584 
L 245.023358 307.584 
L 245.023358 307.584 
L 242.412912 307.584 
z
" style="fill:#008000;opacity:0.4;"/>
   </g>
   <g id="patch_162">
    <path clip-path="url(#p1de7960ac8)" d="M 245.023358 307.584 
L 247.633804 307.584 
L 247.633804 306.144 
L 245.023358 306.144 
z
" style="fill:#008000;opacity:0.4;"/>
   </g>
   <g id="patch_163">
    <path clip-path="url(#p1de7960ac8)" d="M 247.633804 307.584 
L 250.24425 307.584 
L 250.24425 307.584 
L 247.633804 307.584 
z
" style="fill:#008000;opacity:0.4;"/>
   </g>
   <g id="patch_164">
    <path clip-path="url(#p1de7960ac8)" d="M 250.24425 307.584 
L 252.854695 307.584 
L 252.854695 307.584 
L 250.24425 307.584 
z
" style="fill:#008000;opacity:0.4;"/>
   </g>
   <g id="patch_165">
    <path clip-path="url(#p1de7960ac8)" d="M 252.854695 307.584 
L 255.465141 307.584 
L 255.465141 307.584 
L 252.854695 307.584 
z
" style="fill:#008000;opacity:0.4;"/>
   </g>
   <g id="patch_166">
    <path clip-path="url(#p1de7960ac8)" d="M 255.465141 307.584 
L 258.075587 307.584 
L 258.075587 307.584 
L 255.465141 307.584 
z
" style="fill:#008000;opacity:0.4;"/>
   </g>
   <g id="patch_167">
    <path clip-path="url(#p1de7960ac8)" d="M 258.075587 307.584 
L 260.686033 307.584 
L 260.686033 307.584 
L 258.075587 307.584 
z
" style="fill:#008000;opacity:0.4;"/>
   </g>
   <g id="patch_168">
    <path clip-path="url(#p1de7960ac8)" d="M 260.686033 307.584 
L 263.296479 307.584 
L 263.296479 307.584 
L 260.686033 307.584 
z
" style="fill:#008000;opacity:0.4;"/>
   </g>
   <g id="patch_169">
    <path clip-path="url(#p1de7960ac8)" d="M 263.296479 307.584 
L 265.906924 307.584 
L 265.906924 307.584 
L 263.296479 307.584 
z
" style="fill:#008000;opacity:0.4;"/>
   </g>
   <g id="patch_170">
    <path clip-path="url(#p1de7960ac8)" d="M 265.906924 307.584 
L 268.51737 307.584 
L 268.51737 306.144 
L 265.906924 306.144 
z
" style="fill:#008000;opacity:0.4;"/>
   </g>
   <g id="patch_171">
    <path clip-path="url(#p1de7960ac8)" d="M 268.51737 307.584 
L 271.127816 307.584 
L 271.127816 307.584 
L 268.51737 307.584 
z
" style="fill:#008000;opacity:0.4;"/>
   </g>
   <g id="patch_172">
    <path clip-path="url(#p1de7960ac8)" d="M 271.127816 307.584 
L 273.738262 307.584 
L 273.738262 307.584 
L 271.127816 307.584 
z
" style="fill:#008000;opacity:0.4;"/>
   </g>
   <g id="patch_173">
    <path clip-path="url(#p1de7960ac8)" d="M 273.738262 307.584 
L 276.348708 307.584 
L 276.348708 307.584 
L 273.738262 307.584 
z
" style="fill:#008000;opacity:0.4;"/>
   </g>
   <g id="patch_174">
    <path clip-path="url(#p1de7960ac8)" d="M 276.348708 307.584 
L 278.959154 307.584 
L 278.959154 307.584 
L 276.348708 307.584 
z
" style="fill:#008000;opacity:0.4;"/>
   </g>
   <g id="patch_175">
    <path clip-path="url(#p1de7960ac8)" d="M 278.959154 307.584 
L 281.569599 307.584 
L 281.569599 307.584 
L 278.959154 307.584 
z
" style="fill:#008000;opacity:0.4;"/>
   </g>
   <g id="patch_176">
    <path clip-path="url(#p1de7960ac8)" d="M 281.569599 307.584 
L 284.180045 307.584 
L 284.180045 307.584 
L 281.569599 307.584 
z
" style="fill:#008000;opacity:0.4;"/>
   </g>
   <g id="patch_177">
    <path clip-path="url(#p1de7960ac8)" d="M 284.180045 307.584 
L 286.790491 307.584 
L 286.790491 307.584 
L 284.180045 307.584 
z
" style="fill:#008000;opacity:0.4;"/>
   </g>
   <g id="patch_178">
    <path clip-path="url(#p1de7960ac8)" d="M 286.790491 307.584 
L 289.400937 307.584 
L 289.400937 307.584 
L 286.790491 307.584 
z
" style="fill:#008000;opacity:0.4;"/>
   </g>
   <g id="patch_179">
    <path clip-path="url(#p1de7960ac8)" d="M 289.400937 307.584 
L 292.011383 307.584 
L 292.011383 307.584 
L 289.400937 307.584 
z
" style="fill:#008000;opacity:0.4;"/>
   </g>
   <g id="patch_180">
    <path clip-path="url(#p1de7960ac8)" d="M 292.011383 307.584 
L 294.621829 307.584 
L 294.621829 307.584 
L 292.011383 307.584 
z
" style="fill:#008000;opacity:0.4;"/>
   </g>
   <g id="patch_181">
    <path clip-path="url(#p1de7960ac8)" d="M 294.621829 307.584 
L 297.232274 307.584 
L 297.232274 307.584 
L 294.621829 307.584 
z
" style="fill:#008000;opacity:0.4;"/>
   </g>
   <g id="patch_182">
    <path clip-path="url(#p1de7960ac8)" d="M 297.232274 307.584 
L 299.84272 307.584 
L 299.84272 307.584 
L 297.232274 307.584 
z
" style="fill:#008000;opacity:0.4;"/>
   </g>
   <g id="patch_183">
    <path clip-path="url(#p1de7960ac8)" d="M 299.84272 307.584 
L 302.453166 307.584 
L 302.453166 307.584 
L 299.84272 307.584 
z
" style="fill:#008000;opacity:0.4;"/>
   </g>
   <g id="patch_184">
    <path clip-path="url(#p1de7960ac8)" d="M 302.453166 307.584 
L 305.063612 307.584 
L 305.063612 307.584 
L 302.453166 307.584 
z
" style="fill:#008000;opacity:0.4;"/>
   </g>
   <g id="patch_185">
    <path clip-path="url(#p1de7960ac8)" d="M 305.063612 307.584 
L 307.674058 307.584 
L 307.674058 307.584 
L 305.063612 307.584 
z
" style="fill:#008000;opacity:0.4;"/>
   </g>
   <g id="patch_186">
    <path clip-path="url(#p1de7960ac8)" d="M 307.674058 307.584 
L 310.284504 307.584 
L 310.284504 307.584 
L 307.674058 307.584 
z
" style="fill:#008000;opacity:0.4;"/>
   </g>
   <g id="patch_187">
    <path clip-path="url(#p1de7960ac8)" d="M 310.284504 307.584 
L 312.894949 307.584 
L 312.894949 306.144 
L 310.284504 306.144 
z
" style="fill:#008000;opacity:0.4;"/>
   </g>
   <g id="patch_188">
    <path clip-path="url(#p1de7960ac8)" d="M 312.894949 307.584 
L 315.505395 307.584 
L 315.505395 307.584 
L 312.894949 307.584 
z
" style="fill:#008000;opacity:0.4;"/>
   </g>
   <g id="patch_189">
    <path clip-path="url(#p1de7960ac8)" d="M 315.505395 307.584 
L 318.115841 307.584 
L 318.115841 307.584 
L 315.505395 307.584 
z
" style="fill:#008000;opacity:0.4;"/>
   </g>
   <g id="patch_190">
    <path clip-path="url(#p1de7960ac8)" d="M 318.115841 307.584 
L 320.726287 307.584 
L 320.726287 307.584 
L 318.115841 307.584 
z
" style="fill:#008000;opacity:0.4;"/>
   </g>
   <g id="patch_191">
    <path clip-path="url(#p1de7960ac8)" d="M 320.726287 307.584 
L 323.336733 307.584 
L 323.336733 307.584 
L 320.726287 307.584 
z
" style="fill:#008000;opacity:0.4;"/>
   </g>
   <g id="patch_192">
    <path clip-path="url(#p1de7960ac8)" d="M 323.336733 307.584 
L 325.947178 307.584 
L 325.947178 307.584 
L 323.336733 307.584 
z
" style="fill:#008000;opacity:0.4;"/>
   </g>
   <g id="patch_193">
    <path clip-path="url(#p1de7960ac8)" d="M 325.947178 307.584 
L 328.557624 307.584 
L 328.557624 307.584 
L 325.947178 307.584 
z
" style="fill:#008000;opacity:0.4;"/>
   </g>
   <g id="patch_194">
    <path clip-path="url(#p1de7960ac8)" d="M 328.557624 307.584 
L 331.16807 307.584 
L 331.16807 307.584 
L 328.557624 307.584 
z
" style="fill:#008000;opacity:0.4;"/>
   </g>
   <g id="patch_195">
    <path clip-path="url(#p1de7960ac8)" d="M 331.16807 307.584 
L 333.778516 307.584 
L 333.778516 307.584 
L 331.16807 307.584 
z
" style="fill:#008000;opacity:0.4;"/>
   </g>
   <g id="patch_196">
    <path clip-path="url(#p1de7960ac8)" d="M 333.778516 307.584 
L 336.388962 307.584 
L 336.388962 307.584 
L 333.778516 307.584 
z
" style="fill:#008000;opacity:0.4;"/>
   </g>
   <g id="patch_197">
    <path clip-path="url(#p1de7960ac8)" d="M 336.388962 307.584 
L 338.999408 307.584 
L 338.999408 307.584 
L 336.388962 307.584 
z
" style="fill:#008000;opacity:0.4;"/>
   </g>
   <g id="patch_198">
    <path clip-path="url(#p1de7960ac8)" d="M 338.999408 307.584 
L 341.609853 307.584 
L 341.609853 307.584 
L 338.999408 307.584 
z
" style="fill:#008000;opacity:0.4;"/>
   </g>
   <g id="patch_199">
    <path clip-path="url(#p1de7960ac8)" d="M 341.609853 307.584 
L 344.220299 307.584 
L 344.220299 307.584 
L 341.609853 307.584 
z
" style="fill:#008000;opacity:0.4;"/>
   </g>
   <g id="patch_200">
    <path clip-path="url(#p1de7960ac8)" d="M 344.220299 307.584 
L 346.830745 307.584 
L 346.830745 307.584 
L 344.220299 307.584 
z
" style="fill:#008000;opacity:0.4;"/>
   </g>
   <g id="patch_201">
    <path clip-path="url(#p1de7960ac8)" d="M 346.830745 307.584 
L 349.441191 307.584 
L 349.441191 307.584 
L 346.830745 307.584 
z
" style="fill:#008000;opacity:0.4;"/>
   </g>
   <g id="patch_202">
    <path clip-path="url(#p1de7960ac8)" d="M 349.441191 307.584 
L 352.051637 307.584 
L 352.051637 306.144 
L 349.441191 306.144 
z
" style="fill:#008000;opacity:0.4;"/>
   </g>
   <g id="matplotlib.axis_1">
    <g id="xtick_1">
     <g id="line2d_1">
      <defs>
       <path d="M 0 0 
L 0 3.5 
" id="m7451759441" style="stroke:#000000;stroke-width:0.8;"/>
      </defs>
      <g>
       <use style="stroke:#000000;stroke-width:0.8;" x="83.783732" xlink:href="#m7451759441" y="307.584"/>
      </g>
     </g>
     <g id="text_1">
      <!-- 0 -->
      <defs>
       <path d="M 31.78125 66.40625 
Q 24.171875 66.40625 20.328125 58.90625 
Q 16.5 51.421875 16.5 36.375 
Q 16.5 21.390625 20.328125 13.890625 
Q 24.171875 6.390625 31.78125 6.390625 
Q 39.453125 6.390625 43.28125 13.890625 
Q 47.125 21.390625 47.125 36.375 
Q 47.125 51.421875 43.28125 58.90625 
Q 39.453125 66.40625 31.78125 66.40625 
z
M 31.78125 74.21875 
Q 44.046875 74.21875 50.515625 64.515625 
Q 56.984375 54.828125 56.984375 36.375 
Q 56.984375 17.96875 50.515625 8.265625 
Q 44.046875 -1.421875 31.78125 -1.421875 
Q 19.53125 -1.421875 13.0625 8.265625 
Q 6.59375 17.96875 6.59375 36.375 
Q 6.59375 54.828125 13.0625 64.515625 
Q 19.53125 74.21875 31.78125 74.21875 
z
" id="DejaVuSans-48"/>
      </defs>
      <g transform="translate(80.602482 322.182437)scale(0.1 -0.1)">
       <use xlink:href="#DejaVuSans-48"/>
      </g>
     </g>
    </g>
    <g id="xtick_2">
     <g id="line2d_2">
      <g>
       <use style="stroke:#000000;stroke-width:0.8;" x="128.705086" xlink:href="#m7451759441" y="307.584"/>
      </g>
     </g>
     <g id="text_2">
      <!-- 1 -->
      <defs>
       <path d="M 12.40625 8.296875 
L 28.515625 8.296875 
L 28.515625 63.921875 
L 10.984375 60.40625 
L 10.984375 69.390625 
L 28.421875 72.90625 
L 38.28125 72.90625 
L 38.28125 8.296875 
L 54.390625 8.296875 
L 54.390625 0 
L 12.40625 0 
z
" id="DejaVuSans-49"/>
      </defs>
      <g transform="translate(125.523836 322.182437)scale(0.1 -0.1)">
       <use xlink:href="#DejaVuSans-49"/>
      </g>
     </g>
    </g>
    <g id="xtick_3">
     <g id="line2d_3">
      <g>
       <use style="stroke:#000000;stroke-width:0.8;" x="173.626439" xlink:href="#m7451759441" y="307.584"/>
      </g>
     </g>
     <g id="text_3">
      <!-- 2 -->
      <defs>
       <path d="M 19.1875 8.296875 
L 53.609375 8.296875 
L 53.609375 0 
L 7.328125 0 
L 7.328125 8.296875 
Q 12.9375 14.109375 22.625 23.890625 
Q 32.328125 33.6875 34.8125 36.53125 
Q 39.546875 41.84375 41.421875 45.53125 
Q 43.3125 49.21875 43.3125 52.78125 
Q 43.3125 58.59375 39.234375 62.25 
Q 35.15625 65.921875 28.609375 65.921875 
Q 23.96875 65.921875 18.8125 64.3125 
Q 13.671875 62.703125 7.8125 59.421875 
L 7.8125 69.390625 
Q 13.765625 71.78125 18.9375 73 
Q 24.125 74.21875 28.421875 74.21875 
Q 39.75 74.21875 46.484375 68.546875 
Q 53.21875 62.890625 53.21875 53.421875 
Q 53.21875 48.921875 51.53125 44.890625 
Q 49.859375 40.875 45.40625 35.40625 
Q 44.1875 33.984375 37.640625 27.21875 
Q 31.109375 20.453125 19.1875 8.296875 
z
" id="DejaVuSans-50"/>
      </defs>
      <g transform="translate(170.445189 322.182437)scale(0.1 -0.1)">
       <use xlink:href="#DejaVuSans-50"/>
      </g>
     </g>
    </g>
    <g id="xtick_4">
     <g id="line2d_4">
      <g>
       <use style="stroke:#000000;stroke-width:0.8;" x="218.547793" xlink:href="#m7451759441" y="307.584"/>
      </g>
     </g>
     <g id="text_4">
      <!-- 3 -->
      <defs>
       <path d="M 40.578125 39.3125 
Q 47.65625 37.796875 51.625 33 
Q 55.609375 28.21875 55.609375 21.1875 
Q 55.609375 10.40625 48.1875 4.484375 
Q 40.765625 -1.421875 27.09375 -1.421875 
Q 22.515625 -1.421875 17.65625 -0.515625 
Q 12.796875 0.390625 7.625 2.203125 
L 7.625 11.71875 
Q 11.71875 9.328125 16.59375 8.109375 
Q 21.484375 6.890625 26.8125 6.890625 
Q 36.078125 6.890625 40.9375 10.546875 
Q 45.796875 14.203125 45.796875 21.1875 
Q 45.796875 27.640625 41.28125 31.265625 
Q 36.765625 34.90625 28.71875 34.90625 
L 20.21875 34.90625 
L 20.21875 43.015625 
L 29.109375 43.015625 
Q 36.375 43.015625 40.234375 45.921875 
Q 44.09375 48.828125 44.09375 54.296875 
Q 44.09375 59.90625 40.109375 62.90625 
Q 36.140625 65.921875 28.71875 65.921875 
Q 24.65625 65.921875 20.015625 65.03125 
Q 15.375 64.15625 9.8125 62.3125 
L 9.8125 71.09375 
Q 15.4375 72.65625 20.34375 73.4375 
Q 25.25 74.21875 29.59375 74.21875 
Q 40.828125 74.21875 47.359375 69.109375 
Q 53.90625 64.015625 53.90625 55.328125 
Q 53.90625 49.265625 50.4375 45.09375 
Q 46.96875 40.921875 40.578125 39.3125 
z
" id="DejaVuSans-51"/>
      </defs>
      <g transform="translate(215.366543 322.182437)scale(0.1 -0.1)">
       <use xlink:href="#DejaVuSans-51"/>
      </g>
     </g>
    </g>
    <g id="xtick_5">
     <g id="line2d_5">
      <g>
       <use style="stroke:#000000;stroke-width:0.8;" x="263.469146" xlink:href="#m7451759441" y="307.584"/>
      </g>
     </g>
     <g id="text_5">
      <!-- 4 -->
      <defs>
       <path d="M 37.796875 64.3125 
L 12.890625 25.390625 
L 37.796875 25.390625 
z
M 35.203125 72.90625 
L 47.609375 72.90625 
L 47.609375 25.390625 
L 58.015625 25.390625 
L 58.015625 17.1875 
L 47.609375 17.1875 
L 47.609375 0 
L 37.796875 0 
L 37.796875 17.1875 
L 4.890625 17.1875 
L 4.890625 26.703125 
z
" id="DejaVuSans-52"/>
      </defs>
      <g transform="translate(260.287896 322.182437)scale(0.1 -0.1)">
       <use xlink:href="#DejaVuSans-52"/>
      </g>
     </g>
    </g>
    <g id="xtick_6">
     <g id="line2d_6">
      <g>
       <use style="stroke:#000000;stroke-width:0.8;" x="308.3905" xlink:href="#m7451759441" y="307.584"/>
      </g>
     </g>
     <g id="text_6">
      <!-- 5 -->
      <defs>
       <path d="M 10.796875 72.90625 
L 49.515625 72.90625 
L 49.515625 64.59375 
L 19.828125 64.59375 
L 19.828125 46.734375 
Q 21.96875 47.46875 24.109375 47.828125 
Q 26.265625 48.1875 28.421875 48.1875 
Q 40.625 48.1875 47.75 41.5 
Q 54.890625 34.8125 54.890625 23.390625 
Q 54.890625 11.625 47.5625 5.09375 
Q 40.234375 -1.421875 26.90625 -1.421875 
Q 22.3125 -1.421875 17.546875 -0.640625 
Q 12.796875 0.140625 7.71875 1.703125 
L 7.71875 11.625 
Q 12.109375 9.234375 16.796875 8.0625 
Q 21.484375 6.890625 26.703125 6.890625 
Q 35.15625 6.890625 40.078125 11.328125 
Q 45.015625 15.765625 45.015625 23.390625 
Q 45.015625 31 40.078125 35.4375 
Q 35.15625 39.890625 26.703125 39.890625 
Q 22.75 39.890625 18.8125 39.015625 
Q 14.890625 38.140625 10.796875 36.28125 
z
" id="DejaVuSans-53"/>
      </defs>
      <g transform="translate(305.20925 322.182437)scale(0.1 -0.1)">
       <use xlink:href="#DejaVuSans-53"/>
      </g>
     </g>
    </g>
    <g id="xtick_7">
     <g id="line2d_7">
      <g>
       <use style="stroke:#000000;stroke-width:0.8;" x="353.311853" xlink:href="#m7451759441" y="307.584"/>
      </g>
     </g>
     <g id="text_7">
      <!-- 6 -->
      <defs>
       <path d="M 33.015625 40.375 
Q 26.375 40.375 22.484375 35.828125 
Q 18.609375 31.296875 18.609375 23.390625 
Q 18.609375 15.53125 22.484375 10.953125 
Q 26.375 6.390625 33.015625 6.390625 
Q 39.65625 6.390625 43.53125 10.953125 
Q 47.40625 15.53125 47.40625 23.390625 
Q 47.40625 31.296875 43.53125 35.828125 
Q 39.65625 40.375 33.015625 40.375 
z
M 52.59375 71.296875 
L 52.59375 62.3125 
Q 48.875 64.0625 45.09375 64.984375 
Q 41.3125 65.921875 37.59375 65.921875 
Q 27.828125 65.921875 22.671875 59.328125 
Q 17.53125 52.734375 16.796875 39.40625 
Q 19.671875 43.65625 24.015625 45.921875 
Q 28.375 48.1875 33.59375 48.1875 
Q 44.578125 48.1875 50.953125 41.515625 
Q 57.328125 34.859375 57.328125 23.390625 
Q 57.328125 12.15625 50.6875 5.359375 
Q 44.046875 -1.421875 33.015625 -1.421875 
Q 20.359375 -1.421875 13.671875 8.265625 
Q 6.984375 17.96875 6.984375 36.375 
Q 6.984375 53.65625 15.1875 63.9375 
Q 23.390625 74.21875 37.203125 74.21875 
Q 40.921875 74.21875 44.703125 73.484375 
Q 48.484375 72.75 52.59375 71.296875 
z
" id="DejaVuSans-54"/>
      </defs>
      <g transform="translate(350.130603 322.182437)scale(0.1 -0.1)">
       <use xlink:href="#DejaVuSans-54"/>
      </g>
     </g>
    </g>
    <g id="xtick_8">
     <g id="line2d_8">
      <g>
       <use style="stroke:#000000;stroke-width:0.8;" x="398.233207" xlink:href="#m7451759441" y="307.584"/>
      </g>
     </g>
     <g id="text_8">
      <!-- 7 -->
      <defs>
       <path d="M 8.203125 72.90625 
L 55.078125 72.90625 
L 55.078125 68.703125 
L 28.609375 0 
L 18.3125 0 
L 43.21875 64.59375 
L 8.203125 64.59375 
z
" id="DejaVuSans-55"/>
      </defs>
      <g transform="translate(395.051957 322.182437)scale(0.1 -0.1)">
       <use xlink:href="#DejaVuSans-55"/>
      </g>
     </g>
    </g>
   </g>
   <g id="matplotlib.axis_2">
    <g id="ytick_1">
     <g id="line2d_9">
      <defs>
       <path d="M 0 0 
L -3.5 0 
" id="m8c94c828d1" style="stroke:#000000;stroke-width:0.8;"/>
      </defs>
      <g>
       <use style="stroke:#000000;stroke-width:0.8;" x="57.6" xlink:href="#m8c94c828d1" y="307.584"/>
      </g>
     </g>
     <g id="text_9">
      <!-- 0.00 -->
      <defs>
       <path d="M 10.6875 12.40625 
L 21 12.40625 
L 21 0 
L 10.6875 0 
z
" id="DejaVuSans-46"/>
      </defs>
      <g transform="translate(28.334375 311.383219)scale(0.1 -0.1)">
       <use xlink:href="#DejaVuSans-48"/>
       <use x="63.623047" xlink:href="#DejaVuSans-46"/>
       <use x="95.410156" xlink:href="#DejaVuSans-48"/>
       <use x="159.033203" xlink:href="#DejaVuSans-48"/>
      </g>
     </g>
    </g>
    <g id="ytick_2">
     <g id="line2d_10">
      <g>
       <use style="stroke:#000000;stroke-width:0.8;" x="57.6" xlink:href="#m8c94c828d1" y="272.647385"/>
      </g>
     </g>
     <g id="text_10">
      <!-- 0.25 -->
      <g transform="translate(28.334375 276.446604)scale(0.1 -0.1)">
       <use xlink:href="#DejaVuSans-48"/>
       <use x="63.623047" xlink:href="#DejaVuSans-46"/>
       <use x="95.410156" xlink:href="#DejaVuSans-50"/>
       <use x="159.033203" xlink:href="#DejaVuSans-53"/>
      </g>
     </g>
    </g>
    <g id="ytick_3">
     <g id="line2d_11">
      <g>
       <use style="stroke:#000000;stroke-width:0.8;" x="57.6" xlink:href="#m8c94c828d1" y="237.71077"/>
      </g>
     </g>
     <g id="text_11">
      <!-- 0.50 -->
      <g transform="translate(28.334375 241.509989)scale(0.1 -0.1)">
       <use xlink:href="#DejaVuSans-48"/>
       <use x="63.623047" xlink:href="#DejaVuSans-46"/>
       <use x="95.410156" xlink:href="#DejaVuSans-53"/>
       <use x="159.033203" xlink:href="#DejaVuSans-48"/>
      </g>
     </g>
    </g>
    <g id="ytick_4">
     <g id="line2d_12">
      <g>
       <use style="stroke:#000000;stroke-width:0.8;" x="57.6" xlink:href="#m8c94c828d1" y="202.774155"/>
      </g>
     </g>
     <g id="text_12">
      <!-- 0.75 -->
      <g transform="translate(28.334375 206.573374)scale(0.1 -0.1)">
       <use xlink:href="#DejaVuSans-48"/>
       <use x="63.623047" xlink:href="#DejaVuSans-46"/>
       <use x="95.410156" xlink:href="#DejaVuSans-55"/>
       <use x="159.033203" xlink:href="#DejaVuSans-53"/>
      </g>
     </g>
    </g>
    <g id="ytick_5">
     <g id="line2d_13">
      <g>
       <use style="stroke:#000000;stroke-width:0.8;" x="57.6" xlink:href="#m8c94c828d1" y="167.83754"/>
      </g>
     </g>
     <g id="text_13">
      <!-- 1.00 -->
      <g transform="translate(28.334375 171.636759)scale(0.1 -0.1)">
       <use xlink:href="#DejaVuSans-49"/>
       <use x="63.623047" xlink:href="#DejaVuSans-46"/>
       <use x="95.410156" xlink:href="#DejaVuSans-48"/>
       <use x="159.033203" xlink:href="#DejaVuSans-48"/>
      </g>
     </g>
    </g>
    <g id="ytick_6">
     <g id="line2d_14">
      <g>
       <use style="stroke:#000000;stroke-width:0.8;" x="57.6" xlink:href="#m8c94c828d1" y="132.900925"/>
      </g>
     </g>
     <g id="text_14">
      <!-- 1.25 -->
      <g transform="translate(28.334375 136.700144)scale(0.1 -0.1)">
       <use xlink:href="#DejaVuSans-49"/>
       <use x="63.623047" xlink:href="#DejaVuSans-46"/>
       <use x="95.410156" xlink:href="#DejaVuSans-50"/>
       <use x="159.033203" xlink:href="#DejaVuSans-53"/>
      </g>
     </g>
    </g>
    <g id="ytick_7">
     <g id="line2d_15">
      <g>
       <use style="stroke:#000000;stroke-width:0.8;" x="57.6" xlink:href="#m8c94c828d1" y="97.96431"/>
      </g>
     </g>
     <g id="text_15">
      <!-- 1.50 -->
      <g transform="translate(28.334375 101.763529)scale(0.1 -0.1)">
       <use xlink:href="#DejaVuSans-49"/>
       <use x="63.623047" xlink:href="#DejaVuSans-46"/>
       <use x="95.410156" xlink:href="#DejaVuSans-53"/>
       <use x="159.033203" xlink:href="#DejaVuSans-48"/>
      </g>
     </g>
    </g>
    <g id="ytick_8">
     <g id="line2d_16">
      <g>
       <use style="stroke:#000000;stroke-width:0.8;" x="57.6" xlink:href="#m8c94c828d1" y="63.027695"/>
      </g>
     </g>
     <g id="text_16">
      <!-- 1.75 -->
      <g transform="translate(28.334375 66.826914)scale(0.1 -0.1)">
       <use xlink:href="#DejaVuSans-49"/>
       <use x="63.623047" xlink:href="#DejaVuSans-46"/>
       <use x="95.410156" xlink:href="#DejaVuSans-55"/>
       <use x="159.033203" xlink:href="#DejaVuSans-53"/>
      </g>
     </g>
    </g>
   </g>
   <g id="line2d_17">
    <path clip-path="url(#p1de7960ac8)" d="M 73.832727 307.565737 
L 77.112066 307.466997 
L 80.391405 307.043434 
L 83.670744 305.744341 
L 86.950083 302.820272 
L 90.229421 297.720328 
L 93.50876 290.099656 
L 96.788099 279.118077 
L 100.067438 263.172355 
L 103.346777 240.724311 
L 106.626116 211.482159 
L 109.905455 177.880512 
L 113.184793 146.241486 
L 116.464132 125.20906 
L 119.743471 121.214541 
L 123.02281 134.262728 
L 126.302149 157.919566 
L 129.581488 184.168092 
L 132.860826 208.116387 
L 136.140165 228.209253 
L 139.419504 244.634119 
L 142.698843 258.470784 
L 145.978182 270.280444 
L 149.257521 279.338424 
L 152.53686 285.150363 
L 155.816198 288.732082 
L 159.095537 291.563426 
L 162.374876 294.18587 
L 165.654215 296.38609 
L 168.933554 297.908636 
L 172.212893 298.753338 
L 175.492231 299.247217 
L 178.77157 299.765322 
L 182.050909 300.398096 
L 185.330248 301.031266 
L 188.609587 301.594311 
L 191.888926 302.157642 
L 195.168264 302.83688 
L 198.447603 303.658402 
L 201.726942 304.520966 
L 205.006281 305.210651 
L 208.28562 305.534311 
L 211.564959 305.512033 
L 214.844298 305.366187 
L 218.123636 305.350937 
L 221.402975 305.595632 
L 224.682314 306.054645 
L 227.961653 306.591205 
L 231.240992 307.060131 
L 234.520331 307.350724 
L 237.799669 307.428673 
L 241.079008 307.330661 
L 244.358347 307.152798 
L 247.637686 307.041467 
L 250.917025 307.084921 
L 254.196364 307.197947 
L 257.475702 307.19854 
L 260.755041 307.002338 
L 264.03438 306.711774 
L 267.313719 306.523097 
L 270.593058 306.549796 
L 273.872397 306.753278 
L 277.151736 307.027837 
L 280.431074 307.281858 
L 283.710413 307.457322 
L 286.989752 307.544382 
L 290.269091 307.571288 
L 293.54843 307.562103 
L 296.827769 307.513892 
L 300.107107 307.42163 
L 303.386446 307.326864 
L 306.665785 307.306064 
L 309.945124 307.378964 
L 313.224463 307.480768 
L 316.503802 307.548527 
L 319.78314 307.575681 
L 323.062479 307.582668 
L 326.341818 307.583855 
L 329.621157 307.583989 
L 332.900496 307.583999 
L 336.179835 307.583999 
L 339.459174 307.583979 
L 342.738512 307.583739 
L 346.017851 307.581827 
L 349.29719 307.571651 
L 352.576529 307.5361 
L 355.855868 307.457195 
L 359.135207 307.354879 
L 362.414545 307.301282 
L 365.693884 307.344449 
L 368.973223 307.436859 
L 372.252562 307.487861 
L 375.531901 307.452546 
L 378.81124 307.3616 
L 382.090579 307.302209 
L 385.369917 307.337962 
L 388.649256 307.437247 
L 391.928595 307.524253 
L 395.207934 307.567399 
L 398.487273 307.580852 
" style="fill:none;stroke:#f48024;stroke-linecap:square;stroke-width:1.5;"/>
   </g>
   <g id="line2d_18">
    <path clip-path="url(#p1de7960ac8)" d="M 77.442586 307.566124 
L 80.35343 307.464607 
L 83.264273 307.035808 
L 86.175117 305.810143 
L 89.085961 303.345158 
L 91.996804 299.493766 
L 94.907648 293.952228 
L 97.818492 285.652041 
L 100.729335 272.966005 
L 103.640179 254.107723 
L 106.551022 227.52449 
L 109.461866 193.167774 
L 112.37271 154.571289 
L 115.283553 119.824612 
L 118.194397 98.692034 
L 121.10524 97.159963 
L 124.016084 114.271634 
L 126.926928 143.200941 
L 129.837771 175.361391 
L 132.748615 204.291862 
L 135.659459 226.88396 
L 138.570302 243.420433 
L 141.481146 256.386891 
L 144.391989 267.484107 
L 147.302833 276.348882 
L 150.213677 282.338152 
L 153.12452 286.157084 
L 156.035364 289.013325 
L 158.946208 291.42086 
L 161.857051 293.567938 
L 164.767895 295.647551 
L 167.678738 297.581291 
L 170.589582 298.966927 
L 173.500426 299.450055 
L 176.411269 299.337457 
L 179.322113 299.531395 
L 182.232957 300.470348 
L 185.1438 301.629614 
L 188.054644 302.391791 
L 190.965487 302.787189 
L 193.876331 303.209233 
L 196.787175 303.922724 
L 199.698018 304.855307 
L 202.608862 305.679291 
L 205.519706 306.170778 
L 208.430549 306.366537 
L 211.341393 306.404421 
L 214.252236 306.416227 
L 217.16308 306.502755 
L 220.073924 306.711294 
L 222.984767 306.988207 
L 225.895611 307.177034 
L 228.806455 307.171422 
L 231.717298 307.020312 
L 234.628142 306.841322 
L 237.538985 306.747116 
L 240.449829 306.804273 
L 243.360673 306.952814 
L 246.271516 307.09965 
L 249.18236 307.247536 
L 252.093203 307.400901 
L 255.004047 307.507595 
L 257.914891 307.532051 
L 260.825734 307.471504 
L 263.736578 307.351688 
L 266.647422 307.259079 
L 269.558265 307.283272 
L 272.469109 307.400044 
L 275.379952 307.509635 
L 278.290796 307.564133 
L 281.20164 307.580492 
L 284.112483 307.583591 
L 287.023327 307.583968 
L 289.934171 307.583997 
L 292.845014 307.583964 
L 295.755858 307.583543 
L 298.666701 307.58016 
L 301.577545 307.562668 
L 304.488389 307.505687 
L 307.399232 307.394005 
L 310.310076 307.279375 
L 313.22092 307.261224 
L 316.131763 307.357977 
L 319.042607 307.479404 
L 321.95345 307.552012 
L 324.864294 307.577535 
L 327.775138 307.583136 
L 330.685981 307.583919 
L 333.596825 307.583915 
L 336.507669 307.583097 
L 339.418512 307.577295 
L 342.329356 307.5511 
L 345.240199 307.477322 
L 348.151043 307.355404 
L 351.061887 307.260275 
L 353.97273 307.28103 
L 356.883574 307.396615 
L 359.794418 307.507408 
L 362.705261 307.563311 
L 365.616105 307.580307 
" style="fill:none;stroke:#008000;stroke-linecap:square;stroke-width:1.5;"/>
   </g>
   <g id="patch_203">
    <path d="M 57.6 307.584 
L 57.6 41.472 
" style="fill:none;stroke:#000000;stroke-linecap:square;stroke-linejoin:miter;stroke-width:0.8;"/>
   </g>
   <g id="patch_204">
    <path d="M 414.72 307.584 
L 414.72 41.472 
" style="fill:none;stroke:#000000;stroke-linecap:square;stroke-linejoin:miter;stroke-width:0.8;"/>
   </g>
   <g id="patch_205">
    <path d="M 57.6 307.584 
L 414.72 307.584 
" style="fill:none;stroke:#000000;stroke-linecap:square;stroke-linejoin:miter;stroke-width:0.8;"/>
   </g>
   <g id="patch_206">
    <path d="M 57.6 41.472 
L 414.72 41.472 
" style="fill:none;stroke:#000000;stroke-linecap:square;stroke-linejoin:miter;stroke-width:0.8;"/>
   </g>
   <g id="text_17">
    <!-- {'mae': 0.321, 'smape': 0.32, 'jsd': 0.109} -->
    <defs>
     <path d="M 51.125 -9.28125 
L 51.125 -16.3125 
L 48.09375 -16.3125 
Q 35.9375 -16.3125 31.8125 -12.6875 
Q 27.6875 -9.078125 27.6875 1.703125 
L 27.6875 13.375 
Q 27.6875 20.75 25.046875 23.578125 
Q 22.40625 26.421875 15.484375 26.421875 
L 12.5 26.421875 
L 12.5 33.40625 
L 15.484375 33.40625 
Q 22.46875 33.40625 25.078125 36.203125 
Q 27.6875 39.015625 27.6875 46.296875 
L 27.6875 58.015625 
Q 27.6875 68.796875 31.8125 72.390625 
Q 35.9375 75.984375 48.09375 75.984375 
L 51.125 75.984375 
L 51.125 69 
L 47.796875 69 
Q 40.921875 69 38.8125 66.84375 
Q 36.71875 64.703125 36.71875 57.8125 
L 36.71875 45.703125 
Q 36.71875 38.03125 34.5 34.5625 
Q 32.28125 31.109375 26.90625 29.890625 
Q 32.328125 28.5625 34.515625 25.09375 
Q 36.71875 21.625 36.71875 14.015625 
L 36.71875 1.90625 
Q 36.71875 -4.984375 38.8125 -7.125 
Q 40.921875 -9.28125 47.796875 -9.28125 
z
" id="DejaVuSans-123"/>
     <path d="M 17.921875 72.90625 
L 17.921875 45.796875 
L 9.625 45.796875 
L 9.625 72.90625 
z
" id="DejaVuSans-39"/>
     <path d="M 52 44.1875 
Q 55.375 50.25 60.0625 53.125 
Q 64.75 56 71.09375 56 
Q 79.640625 56 84.28125 50.015625 
Q 88.921875 44.046875 88.921875 33.015625 
L 88.921875 0 
L 79.890625 0 
L 79.890625 32.71875 
Q 79.890625 40.578125 77.09375 44.375 
Q 74.3125 48.1875 68.609375 48.1875 
Q 61.625 48.1875 57.5625 43.546875 
Q 53.515625 38.921875 53.515625 30.90625 
L 53.515625 0 
L 44.484375 0 
L 44.484375 32.71875 
Q 44.484375 40.625 41.703125 44.40625 
Q 38.921875 48.1875 33.109375 48.1875 
Q 26.21875 48.1875 22.15625 43.53125 
Q 18.109375 38.875 18.109375 30.90625 
L 18.109375 0 
L 9.078125 0 
L 9.078125 54.6875 
L 18.109375 54.6875 
L 18.109375 46.1875 
Q 21.1875 51.21875 25.484375 53.609375 
Q 29.78125 56 35.6875 56 
Q 41.65625 56 45.828125 52.96875 
Q 50 49.953125 52 44.1875 
z
" id="DejaVuSans-109"/>
     <path d="M 34.28125 27.484375 
Q 23.390625 27.484375 19.1875 25 
Q 14.984375 22.515625 14.984375 16.5 
Q 14.984375 11.71875 18.140625 8.90625 
Q 21.296875 6.109375 26.703125 6.109375 
Q 34.1875 6.109375 38.703125 11.40625 
Q 43.21875 16.703125 43.21875 25.484375 
L 43.21875 27.484375 
z
M 52.203125 31.203125 
L 52.203125 0 
L 43.21875 0 
L 43.21875 8.296875 
Q 40.140625 3.328125 35.546875 0.953125 
Q 30.953125 -1.421875 24.3125 -1.421875 
Q 15.921875 -1.421875 10.953125 3.296875 
Q 6 8.015625 6 15.921875 
Q 6 25.140625 12.171875 29.828125 
Q 18.359375 34.515625 30.609375 34.515625 
L 43.21875 34.515625 
L 43.21875 35.40625 
Q 43.21875 41.609375 39.140625 45 
Q 35.0625 48.390625 27.6875 48.390625 
Q 23 48.390625 18.546875 47.265625 
Q 14.109375 46.140625 10.015625 43.890625 
L 10.015625 52.203125 
Q 14.9375 54.109375 19.578125 55.046875 
Q 24.21875 56 28.609375 56 
Q 40.484375 56 46.34375 49.84375 
Q 52.203125 43.703125 52.203125 31.203125 
z
" id="DejaVuSans-97"/>
     <path d="M 56.203125 29.59375 
L 56.203125 25.203125 
L 14.890625 25.203125 
Q 15.484375 15.921875 20.484375 11.0625 
Q 25.484375 6.203125 34.421875 6.203125 
Q 39.59375 6.203125 44.453125 7.46875 
Q 49.3125 8.734375 54.109375 11.28125 
L 54.109375 2.78125 
Q 49.265625 0.734375 44.1875 -0.34375 
Q 39.109375 -1.421875 33.890625 -1.421875 
Q 20.796875 -1.421875 13.15625 6.1875 
Q 5.515625 13.8125 5.515625 26.8125 
Q 5.515625 40.234375 12.765625 48.109375 
Q 20.015625 56 32.328125 56 
Q 43.359375 56 49.78125 48.890625 
Q 56.203125 41.796875 56.203125 29.59375 
z
M 47.21875 32.234375 
Q 47.125 39.59375 43.09375 43.984375 
Q 39.0625 48.390625 32.421875 48.390625 
Q 24.90625 48.390625 20.390625 44.140625 
Q 15.875 39.890625 15.1875 32.171875 
z
" id="DejaVuSans-101"/>
     <path d="M 11.71875 12.40625 
L 22.015625 12.40625 
L 22.015625 0 
L 11.71875 0 
z
M 11.71875 51.703125 
L 22.015625 51.703125 
L 22.015625 39.3125 
L 11.71875 39.3125 
z
" id="DejaVuSans-58"/>
     <path id="DejaVuSans-32"/>
     <path d="M 11.71875 12.40625 
L 22.015625 12.40625 
L 22.015625 4 
L 14.015625 -11.625 
L 7.71875 -11.625 
L 11.71875 4 
z
" id="DejaVuSans-44"/>
     <path d="M 44.28125 53.078125 
L 44.28125 44.578125 
Q 40.484375 46.53125 36.375 47.5 
Q 32.28125 48.484375 27.875 48.484375 
Q 21.1875 48.484375 17.84375 46.4375 
Q 14.5 44.390625 14.5 40.28125 
Q 14.5 37.15625 16.890625 35.375 
Q 19.28125 33.59375 26.515625 31.984375 
L 29.59375 31.296875 
Q 39.15625 29.25 43.1875 25.515625 
Q 47.21875 21.78125 47.21875 15.09375 
Q 47.21875 7.46875 41.1875 3.015625 
Q 35.15625 -1.421875 24.609375 -1.421875 
Q 20.21875 -1.421875 15.453125 -0.5625 
Q 10.6875 0.296875 5.421875 2 
L 5.421875 11.28125 
Q 10.40625 8.6875 15.234375 7.390625 
Q 20.0625 6.109375 24.8125 6.109375 
Q 31.15625 6.109375 34.5625 8.28125 
Q 37.984375 10.453125 37.984375 14.40625 
Q 37.984375 18.0625 35.515625 20.015625 
Q 33.0625 21.96875 24.703125 23.78125 
L 21.578125 24.515625 
Q 13.234375 26.265625 9.515625 29.90625 
Q 5.8125 33.546875 5.8125 39.890625 
Q 5.8125 47.609375 11.28125 51.796875 
Q 16.75 56 26.8125 56 
Q 31.78125 56 36.171875 55.265625 
Q 40.578125 54.546875 44.28125 53.078125 
z
" id="DejaVuSans-115"/>
     <path d="M 18.109375 8.203125 
L 18.109375 -20.796875 
L 9.078125 -20.796875 
L 9.078125 54.6875 
L 18.109375 54.6875 
L 18.109375 46.390625 
Q 20.953125 51.265625 25.265625 53.625 
Q 29.59375 56 35.59375 56 
Q 45.5625 56 51.78125 48.09375 
Q 58.015625 40.1875 58.015625 27.296875 
Q 58.015625 14.40625 51.78125 6.484375 
Q 45.5625 -1.421875 35.59375 -1.421875 
Q 29.59375 -1.421875 25.265625 0.953125 
Q 20.953125 3.328125 18.109375 8.203125 
z
M 48.6875 27.296875 
Q 48.6875 37.203125 44.609375 42.84375 
Q 40.53125 48.484375 33.40625 48.484375 
Q 26.265625 48.484375 22.1875 42.84375 
Q 18.109375 37.203125 18.109375 27.296875 
Q 18.109375 17.390625 22.1875 11.75 
Q 26.265625 6.109375 33.40625 6.109375 
Q 40.53125 6.109375 44.609375 11.75 
Q 48.6875 17.390625 48.6875 27.296875 
z
" id="DejaVuSans-112"/>
     <path d="M 9.421875 54.6875 
L 18.40625 54.6875 
L 18.40625 -0.984375 
Q 18.40625 -11.421875 14.421875 -16.109375 
Q 10.453125 -20.796875 1.609375 -20.796875 
L -1.8125 -20.796875 
L -1.8125 -13.1875 
L 0.59375 -13.1875 
Q 5.71875 -13.1875 7.5625 -10.8125 
Q 9.421875 -8.453125 9.421875 -0.984375 
z
M 9.421875 75.984375 
L 18.40625 75.984375 
L 18.40625 64.59375 
L 9.421875 64.59375 
z
" id="DejaVuSans-106"/>
     <path d="M 45.40625 46.390625 
L 45.40625 75.984375 
L 54.390625 75.984375 
L 54.390625 0 
L 45.40625 0 
L 45.40625 8.203125 
Q 42.578125 3.328125 38.25 0.953125 
Q 33.9375 -1.421875 27.875 -1.421875 
Q 17.96875 -1.421875 11.734375 6.484375 
Q 5.515625 14.40625 5.515625 27.296875 
Q 5.515625 40.1875 11.734375 48.09375 
Q 17.96875 56 27.875 56 
Q 33.9375 56 38.25 53.625 
Q 42.578125 51.265625 45.40625 46.390625 
z
M 14.796875 27.296875 
Q 14.796875 17.390625 18.875 11.75 
Q 22.953125 6.109375 30.078125 6.109375 
Q 37.203125 6.109375 41.296875 11.75 
Q 45.40625 17.390625 45.40625 27.296875 
Q 45.40625 37.203125 41.296875 42.84375 
Q 37.203125 48.484375 30.078125 48.484375 
Q 22.953125 48.484375 18.875 42.84375 
Q 14.796875 37.203125 14.796875 27.296875 
z
" id="DejaVuSans-100"/>
     <path d="M 10.984375 1.515625 
L 10.984375 10.5 
Q 14.703125 8.734375 18.5 7.8125 
Q 22.3125 6.890625 25.984375 6.890625 
Q 35.75 6.890625 40.890625 13.453125 
Q 46.046875 20.015625 46.78125 33.40625 
Q 43.953125 29.203125 39.59375 26.953125 
Q 35.25 24.703125 29.984375 24.703125 
Q 19.046875 24.703125 12.671875 31.3125 
Q 6.296875 37.9375 6.296875 49.421875 
Q 6.296875 60.640625 12.9375 67.421875 
Q 19.578125 74.21875 30.609375 74.21875 
Q 43.265625 74.21875 49.921875 64.515625 
Q 56.59375 54.828125 56.59375 36.375 
Q 56.59375 19.140625 48.40625 8.859375 
Q 40.234375 -1.421875 26.421875 -1.421875 
Q 22.703125 -1.421875 18.890625 -0.6875 
Q 15.09375 0.046875 10.984375 1.515625 
z
M 30.609375 32.421875 
Q 37.25 32.421875 41.125 36.953125 
Q 45.015625 41.5 45.015625 49.421875 
Q 45.015625 57.28125 41.125 61.84375 
Q 37.25 66.40625 30.609375 66.40625 
Q 23.96875 66.40625 20.09375 61.84375 
Q 16.21875 57.28125 16.21875 49.421875 
Q 16.21875 41.5 20.09375 36.953125 
Q 23.96875 32.421875 30.609375 32.421875 
z
" id="DejaVuSans-57"/>
     <path d="M 12.5 -9.28125 
L 15.921875 -9.28125 
Q 22.75 -9.28125 24.828125 -7.171875 
Q 26.90625 -5.078125 26.90625 1.90625 
L 26.90625 14.015625 
Q 26.90625 21.625 29.09375 25.09375 
Q 31.296875 28.5625 36.71875 29.890625 
Q 31.296875 31.109375 29.09375 34.5625 
Q 26.90625 38.03125 26.90625 45.703125 
L 26.90625 57.8125 
Q 26.90625 64.75 24.828125 66.875 
Q 22.75 69 15.921875 69 
L 12.5 69 
L 12.5 75.984375 
L 15.578125 75.984375 
Q 27.734375 75.984375 31.8125 72.390625 
Q 35.890625 68.796875 35.890625 58.015625 
L 35.890625 46.296875 
Q 35.890625 39.015625 38.515625 36.203125 
Q 41.15625 33.40625 48.09375 33.40625 
L 51.125 33.40625 
L 51.125 26.421875 
L 48.09375 26.421875 
Q 41.15625 26.421875 38.515625 23.578125 
Q 35.890625 20.75 35.890625 13.375 
L 35.890625 1.703125 
Q 35.890625 -9.078125 31.8125 -12.6875 
Q 27.734375 -16.3125 15.578125 -16.3125 
L 12.5 -16.3125 
z
" id="DejaVuSans-125"/>
    </defs>
    <g transform="translate(109.543125 35.472)scale(0.12 -0.12)">
     <use xlink:href="#DejaVuSans-123"/>
     <use x="63.623047" xlink:href="#DejaVuSans-39"/>
     <use x="91.113281" xlink:href="#DejaVuSans-109"/>
     <use x="188.525391" xlink:href="#DejaVuSans-97"/>
     <use x="249.804688" xlink:href="#DejaVuSans-101"/>
     <use x="311.328125" xlink:href="#DejaVuSans-39"/>
     <use x="338.818359" xlink:href="#DejaVuSans-58"/>
     <use x="372.509766" xlink:href="#DejaVuSans-32"/>
     <use x="404.296875" xlink:href="#DejaVuSans-48"/>
     <use x="467.919922" xlink:href="#DejaVuSans-46"/>
     <use x="499.707031" xlink:href="#DejaVuSans-51"/>
     <use x="563.330078" xlink:href="#DejaVuSans-50"/>
     <use x="626.953125" xlink:href="#DejaVuSans-49"/>
     <use x="690.576172" xlink:href="#DejaVuSans-44"/>
     <use x="722.363281" xlink:href="#DejaVuSans-32"/>
     <use x="754.150391" xlink:href="#DejaVuSans-39"/>
     <use x="781.640625" xlink:href="#DejaVuSans-115"/>
     <use x="833.740234" xlink:href="#DejaVuSans-109"/>
     <use x="931.152344" xlink:href="#DejaVuSans-97"/>
     <use x="992.431641" xlink:href="#DejaVuSans-112"/>
     <use x="1055.908203" xlink:href="#DejaVuSans-101"/>
     <use x="1117.431641" xlink:href="#DejaVuSans-39"/>
     <use x="1144.921875" xlink:href="#DejaVuSans-58"/>
     <use x="1178.613281" xlink:href="#DejaVuSans-32"/>
     <use x="1210.400391" xlink:href="#DejaVuSans-48"/>
     <use x="1274.023438" xlink:href="#DejaVuSans-46"/>
     <use x="1305.810547" xlink:href="#DejaVuSans-51"/>
     <use x="1369.433594" xlink:href="#DejaVuSans-50"/>
     <use x="1433.056641" xlink:href="#DejaVuSans-44"/>
     <use x="1464.84375" xlink:href="#DejaVuSans-32"/>
     <use x="1496.630859" xlink:href="#DejaVuSans-39"/>
     <use x="1524.121094" xlink:href="#DejaVuSans-106"/>
     <use x="1551.904297" xlink:href="#DejaVuSans-115"/>
     <use x="1604.003906" xlink:href="#DejaVuSans-100"/>
     <use x="1667.480469" xlink:href="#DejaVuSans-39"/>
     <use x="1694.970703" xlink:href="#DejaVuSans-58"/>
     <use x="1728.662109" xlink:href="#DejaVuSans-32"/>
     <use x="1760.449219" xlink:href="#DejaVuSans-48"/>
     <use x="1824.072266" xlink:href="#DejaVuSans-46"/>
     <use x="1855.859375" xlink:href="#DejaVuSans-49"/>
     <use x="1919.482422" xlink:href="#DejaVuSans-48"/>
     <use x="1983.105469" xlink:href="#DejaVuSans-57"/>
     <use x="2046.728516" xlink:href="#DejaVuSans-125"/>
    </g>
   </g>
   <g id="legend_1">
    <g id="patch_207">
     <path d="M 340.565313 78.82825 
L 407.72 78.82825 
Q 409.72 78.82825 409.72 76.82825 
L 409.72 48.472 
Q 409.72 46.472 407.72 46.472 
L 340.565313 46.472 
Q 338.565313 46.472 338.565313 48.472 
L 338.565313 76.82825 
Q 338.565313 78.82825 340.565313 78.82825 
z
" style="fill:#ffffff;opacity:0.8;stroke:#cccccc;stroke-linejoin:miter;"/>
    </g>
    <g id="patch_208">
     <path d="M 342.565313 58.070437 
L 362.565313 58.070437 
L 362.565313 51.070437 
L 342.565313 51.070437 
z
" style="fill:#f48024;opacity:0.4;"/>
    </g>
    <g id="text_18">
     <!-- actual -->
     <defs>
      <path d="M 48.78125 52.59375 
L 48.78125 44.1875 
Q 44.96875 46.296875 41.140625 47.34375 
Q 37.3125 48.390625 33.40625 48.390625 
Q 24.65625 48.390625 19.8125 42.84375 
Q 14.984375 37.3125 14.984375 27.296875 
Q 14.984375 17.28125 19.8125 11.734375 
Q 24.65625 6.203125 33.40625 6.203125 
Q 37.3125 6.203125 41.140625 7.25 
Q 44.96875 8.296875 48.78125 10.40625 
L 48.78125 2.09375 
Q 45.015625 0.34375 40.984375 -0.53125 
Q 36.96875 -1.421875 32.421875 -1.421875 
Q 20.0625 -1.421875 12.78125 6.34375 
Q 5.515625 14.109375 5.515625 27.296875 
Q 5.515625 40.671875 12.859375 48.328125 
Q 20.21875 56 33.015625 56 
Q 37.15625 56 41.109375 55.140625 
Q 45.0625 54.296875 48.78125 52.59375 
z
" id="DejaVuSans-99"/>
      <path d="M 18.3125 70.21875 
L 18.3125 54.6875 
L 36.8125 54.6875 
L 36.8125 47.703125 
L 18.3125 47.703125 
L 18.3125 18.015625 
Q 18.3125 11.328125 20.140625 9.421875 
Q 21.96875 7.515625 27.59375 7.515625 
L 36.8125 7.515625 
L 36.8125 0 
L 27.59375 0 
Q 17.1875 0 13.234375 3.875 
Q 9.28125 7.765625 9.28125 18.015625 
L 9.28125 47.703125 
L 2.6875 47.703125 
L 2.6875 54.6875 
L 9.28125 54.6875 
L 9.28125 70.21875 
z
" id="DejaVuSans-116"/>
      <path d="M 8.5 21.578125 
L 8.5 54.6875 
L 17.484375 54.6875 
L 17.484375 21.921875 
Q 17.484375 14.15625 20.5 10.265625 
Q 23.53125 6.390625 29.59375 6.390625 
Q 36.859375 6.390625 41.078125 11.03125 
Q 45.3125 15.671875 45.3125 23.6875 
L 45.3125 54.6875 
L 54.296875 54.6875 
L 54.296875 0 
L 45.3125 0 
L 45.3125 8.40625 
Q 42.046875 3.421875 37.71875 1 
Q 33.40625 -1.421875 27.6875 -1.421875 
Q 18.265625 -1.421875 13.375 4.4375 
Q 8.5 10.296875 8.5 21.578125 
z
M 31.109375 56 
z
" id="DejaVuSans-117"/>
      <path d="M 9.421875 75.984375 
L 18.40625 75.984375 
L 18.40625 0 
L 9.421875 0 
z
" id="DejaVuSans-108"/>
     </defs>
     <g transform="translate(370.565313 58.070437)scale(0.1 -0.1)">
      <use xlink:href="#DejaVuSans-97"/>
      <use x="61.279297" xlink:href="#DejaVuSans-99"/>
      <use x="116.259766" xlink:href="#DejaVuSans-116"/>
      <use x="155.46875" xlink:href="#DejaVuSans-117"/>
      <use x="218.847656" xlink:href="#DejaVuSans-97"/>
      <use x="280.126953" xlink:href="#DejaVuSans-108"/>
     </g>
    </g>
    <g id="patch_209">
     <path d="M 342.565313 72.748562 
L 362.565313 72.748562 
L 362.565313 65.748562 
L 342.565313 65.748562 
z
" style="fill:#008000;opacity:0.4;"/>
    </g>
    <g id="text_19">
     <!-- predict -->
     <defs>
      <path d="M 41.109375 46.296875 
Q 39.59375 47.171875 37.8125 47.578125 
Q 36.03125 48 33.890625 48 
Q 26.265625 48 22.1875 43.046875 
Q 18.109375 38.09375 18.109375 28.8125 
L 18.109375 0 
L 9.078125 0 
L 9.078125 54.6875 
L 18.109375 54.6875 
L 18.109375 46.1875 
Q 20.953125 51.171875 25.484375 53.578125 
Q 30.03125 56 36.53125 56 
Q 37.453125 56 38.578125 55.875 
Q 39.703125 55.765625 41.0625 55.515625 
z
" id="DejaVuSans-114"/>
      <path d="M 9.421875 54.6875 
L 18.40625 54.6875 
L 18.40625 0 
L 9.421875 0 
z
M 9.421875 75.984375 
L 18.40625 75.984375 
L 18.40625 64.59375 
L 9.421875 64.59375 
z
" id="DejaVuSans-105"/>
     </defs>
     <g transform="translate(370.565313 72.748562)scale(0.1 -0.1)">
      <use xlink:href="#DejaVuSans-112"/>
      <use x="63.476562" xlink:href="#DejaVuSans-114"/>
      <use x="104.558594" xlink:href="#DejaVuSans-101"/>
      <use x="166.082031" xlink:href="#DejaVuSans-100"/>
      <use x="229.558594" xlink:href="#DejaVuSans-105"/>
      <use x="257.341797" xlink:href="#DejaVuSans-99"/>
      <use x="312.322266" xlink:href="#DejaVuSans-116"/>
     </g>
    </g>
   </g>
  </g>
 </g>
 <defs>
  <clipPath id="p1de7960ac8">
   <rect height="266.112" width="357.12" x="57.6" y="41.472"/>
  </clipPath>
 </defs>
</svg>
