<?xml version="1.0" encoding="utf-8" standalone="no"?>
<!DOCTYPE svg PUBLIC "-//W3C//DTD SVG 1.1//EN"
  "http://www.w3.org/Graphics/SVG/1.1/DTD/svg11.dtd">
<!-- Created with matplotlib (https://matplotlib.org/) -->
<svg height="345.6pt" version="1.1" viewBox="0 0 460.8 345.6" width="460.8pt" xmlns="http://www.w3.org/2000/svg" xmlns:xlink="http://www.w3.org/1999/xlink">
 <defs>
  <style type="text/css">
*{stroke-linecap:butt;stroke-linejoin:round;}
  </style>
 </defs>
 <g id="figure_1">
  <g id="patch_1">
   <path d="M 0 345.6 
L 460.8 345.6 
L 460.8 0 
L 0 0 
z
" style="fill:#ffffff;"/>
  </g>
  <g id="axes_1">
   <g id="patch_2">
    <path d="M 57.6 307.584 
L 414.72 307.584 
L 414.72 41.472 
L 57.6 41.472 
z
" style="fill:#ffffff;"/>
   </g>
   <g id="patch_3">
    <path clip-path="url(#pd246a218e0)" d="M 98.126513 307.584 
L 100.887183 307.584 
L 100.887183 191.478154 
L 98.126513 191.478154 
z
" style="fill:#f48024;opacity:0.4;"/>
   </g>
   <g id="patch_4">
    <path clip-path="url(#pd246a218e0)" d="M 100.887183 307.584 
L 103.647853 307.584 
L 103.647853 198.409846 
L 100.887183 198.409846 
z
" style="fill:#f48024;opacity:0.4;"/>
   </g>
   <g id="patch_5">
    <path clip-path="url(#pd246a218e0)" d="M 103.647853 307.584 
L 106.408522 307.584 
L 106.408522 233.068308 
L 103.647853 233.068308 
z
" style="fill:#f48024;opacity:0.4;"/>
   </g>
   <g id="patch_6">
    <path clip-path="url(#pd246a218e0)" d="M 106.408522 307.584 
L 109.169192 307.584 
L 109.169192 129.092923 
L 106.408522 129.092923 
z
" style="fill:#f48024;opacity:0.4;"/>
   </g>
   <g id="patch_7">
    <path clip-path="url(#pd246a218e0)" d="M 109.169192 307.584 
L 111.929862 307.584 
L 111.929862 54.144 
L 109.169192 54.144 
z
" style="fill:#f48024;opacity:0.4;"/>
   </g>
   <g id="patch_8">
    <path clip-path="url(#pd246a218e0)" d="M 111.929862 307.584 
L 114.690532 307.584 
L 114.690532 134.291692 
L 111.929862 134.291692 
z
" style="fill:#f48024;opacity:0.4;"/>
   </g>
   <g id="patch_9">
    <path clip-path="url(#pd246a218e0)" d="M 114.690532 307.584 
L 117.451201 307.584 
L 117.451201 206.641231 
L 114.690532 206.641231 
z
" style="fill:#f48024;opacity:0.4;"/>
   </g>
   <g id="patch_10">
    <path clip-path="url(#pd246a218e0)" d="M 117.451201 307.584 
L 120.211871 307.584 
L 120.211871 245.198769 
L 117.451201 245.198769 
z
" style="fill:#f48024;opacity:0.4;"/>
   </g>
   <g id="patch_11">
    <path clip-path="url(#pd246a218e0)" d="M 120.211871 307.584 
L 122.972541 307.584 
L 122.972541 262.094769 
L 120.211871 262.094769 
z
" style="fill:#f48024;opacity:0.4;"/>
   </g>
   <g id="patch_12">
    <path clip-path="url(#pd246a218e0)" d="M 122.972541 307.584 
L 125.733211 307.584 
L 125.733211 275.091692 
L 122.972541 275.091692 
z
" style="fill:#f48024;opacity:0.4;"/>
   </g>
   <g id="patch_13">
    <path clip-path="url(#pd246a218e0)" d="M 125.733211 307.584 
L 128.49388 307.584 
L 128.49388 275.958154 
L 125.733211 275.958154 
z
" style="fill:#f48024;opacity:0.4;"/>
   </g>
   <g id="patch_14">
    <path clip-path="url(#pd246a218e0)" d="M 128.49388 307.584 
L 131.25455 307.584 
L 131.25455 282.456615 
L 128.49388 282.456615 
z
" style="fill:#f48024;opacity:0.4;"/>
   </g>
   <g id="patch_15">
    <path clip-path="url(#pd246a218e0)" d="M 131.25455 307.584 
L 134.01522 307.584 
L 134.01522 282.889846 
L 131.25455 282.889846 
z
" style="fill:#f48024;opacity:0.4;"/>
   </g>
   <g id="patch_16">
    <path clip-path="url(#pd246a218e0)" d="M 134.01522 307.584 
L 136.77589 307.584 
L 136.77589 291.554462 
L 134.01522 291.554462 
z
" style="fill:#f48024;opacity:0.4;"/>
   </g>
   <g id="patch_17">
    <path clip-path="url(#pd246a218e0)" d="M 136.77589 307.584 
L 139.536559 307.584 
L 139.536559 295.020308 
L 136.77589 295.020308 
z
" style="fill:#f48024;opacity:0.4;"/>
   </g>
   <g id="patch_18">
    <path clip-path="url(#pd246a218e0)" d="M 139.536559 307.584 
L 142.297229 307.584 
L 142.297229 298.486154 
L 139.536559 298.486154 
z
" style="fill:#f48024;opacity:0.4;"/>
   </g>
   <g id="patch_19">
    <path clip-path="url(#pd246a218e0)" d="M 142.297229 307.584 
L 145.057899 307.584 
L 145.057899 296.32 
L 142.297229 296.32 
z
" style="fill:#f48024;opacity:0.4;"/>
   </g>
   <g id="patch_20">
    <path clip-path="url(#pd246a218e0)" d="M 145.057899 307.584 
L 147.818568 307.584 
L 147.818568 296.753231 
L 145.057899 296.753231 
z
" style="fill:#f48024;opacity:0.4;"/>
   </g>
   <g id="patch_21">
    <path clip-path="url(#pd246a218e0)" d="M 147.818568 307.584 
L 150.579238 307.584 
L 150.579238 298.919385 
L 147.818568 298.919385 
z
" style="fill:#f48024;opacity:0.4;"/>
   </g>
   <g id="patch_22">
    <path clip-path="url(#pd246a218e0)" d="M 150.579238 307.584 
L 153.339908 307.584 
L 153.339908 296.753231 
L 150.579238 296.753231 
z
" style="fill:#f48024;opacity:0.4;"/>
   </g>
   <g id="patch_23">
    <path clip-path="url(#pd246a218e0)" d="M 153.339908 307.584 
L 156.100578 307.584 
L 156.100578 296.753231 
L 153.339908 296.753231 
z
" style="fill:#f48024;opacity:0.4;"/>
   </g>
   <g id="patch_24">
    <path clip-path="url(#pd246a218e0)" d="M 156.100578 307.584 
L 158.861247 307.584 
L 158.861247 299.352615 
L 156.100578 299.352615 
z
" style="fill:#f48024;opacity:0.4;"/>
   </g>
   <g id="patch_25">
    <path clip-path="url(#pd246a218e0)" d="M 158.861247 307.584 
L 161.621917 307.584 
L 161.621917 298.052923 
L 158.861247 298.052923 
z
" style="fill:#f48024;opacity:0.4;"/>
   </g>
   <g id="patch_26">
    <path clip-path="url(#pd246a218e0)" d="M 161.621917 307.584 
L 164.382587 307.584 
L 164.382587 298.919385 
L 161.621917 298.919385 
z
" style="fill:#f48024;opacity:0.4;"/>
   </g>
   <g id="patch_27">
    <path clip-path="url(#pd246a218e0)" d="M 164.382587 307.584 
L 167.143257 307.584 
L 167.143257 304.551385 
L 164.382587 304.551385 
z
" style="fill:#f48024;opacity:0.4;"/>
   </g>
   <g id="patch_28">
    <path clip-path="url(#pd246a218e0)" d="M 167.143257 307.584 
L 169.903926 307.584 
L 169.903926 301.952 
L 167.143257 301.952 
z
" style="fill:#f48024;opacity:0.4;"/>
   </g>
   <g id="patch_29">
    <path clip-path="url(#pd246a218e0)" d="M 169.903926 307.584 
L 172.664596 307.584 
L 172.664596 302.818462 
L 169.903926 302.818462 
z
" style="fill:#f48024;opacity:0.4;"/>
   </g>
   <g id="patch_30">
    <path clip-path="url(#pd246a218e0)" d="M 172.664596 307.584 
L 175.425266 307.584 
L 175.425266 299.785846 
L 172.664596 299.785846 
z
" style="fill:#f48024;opacity:0.4;"/>
   </g>
   <g id="patch_31">
    <path clip-path="url(#pd246a218e0)" d="M 175.425266 307.584 
L 178.185936 307.584 
L 178.185936 302.385231 
L 175.425266 302.385231 
z
" style="fill:#f48024;opacity:0.4;"/>
   </g>
   <g id="patch_32">
    <path clip-path="url(#pd246a218e0)" d="M 178.185936 307.584 
L 180.946605 307.584 
L 180.946605 304.551385 
L 178.185936 304.551385 
z
" style="fill:#f48024;opacity:0.4;"/>
   </g>
   <g id="patch_33">
    <path clip-path="url(#pd246a218e0)" d="M 180.946605 307.584 
L 183.707275 307.584 
L 183.707275 303.684923 
L 180.946605 303.684923 
z
" style="fill:#f48024;opacity:0.4;"/>
   </g>
   <g id="patch_34">
    <path clip-path="url(#pd246a218e0)" d="M 183.707275 307.584 
L 186.467945 307.584 
L 186.467945 303.684923 
L 183.707275 303.684923 
z
" style="fill:#f48024;opacity:0.4;"/>
   </g>
   <g id="patch_35">
    <path clip-path="url(#pd246a218e0)" d="M 186.467945 307.584 
L 189.228615 307.584 
L 189.228615 301.085538 
L 186.467945 301.085538 
z
" style="fill:#f48024;opacity:0.4;"/>
   </g>
   <g id="patch_36">
    <path clip-path="url(#pd246a218e0)" d="M 189.228615 307.584 
L 191.989284 307.584 
L 191.989284 303.251692 
L 189.228615 303.251692 
z
" style="fill:#f48024;opacity:0.4;"/>
   </g>
   <g id="patch_37">
    <path clip-path="url(#pd246a218e0)" d="M 191.989284 307.584 
L 194.749954 307.584 
L 194.749954 304.984615 
L 191.989284 304.984615 
z
" style="fill:#f48024;opacity:0.4;"/>
   </g>
   <g id="patch_38">
    <path clip-path="url(#pd246a218e0)" d="M 194.749954 307.584 
L 197.510624 307.584 
L 197.510624 303.684923 
L 194.749954 303.684923 
z
" style="fill:#f48024;opacity:0.4;"/>
   </g>
   <g id="patch_39">
    <path clip-path="url(#pd246a218e0)" d="M 197.510624 307.584 
L 200.271293 307.584 
L 200.271293 304.118154 
L 197.510624 304.118154 
z
" style="fill:#f48024;opacity:0.4;"/>
   </g>
   <g id="patch_40">
    <path clip-path="url(#pd246a218e0)" d="M 200.271293 307.584 
L 203.031963 307.584 
L 203.031963 302.385231 
L 200.271293 302.385231 
z
" style="fill:#f48024;opacity:0.4;"/>
   </g>
   <g id="patch_41">
    <path clip-path="url(#pd246a218e0)" d="M 203.031963 307.584 
L 205.792633 307.584 
L 205.792633 301.518769 
L 203.031963 301.518769 
z
" style="fill:#f48024;opacity:0.4;"/>
   </g>
   <g id="patch_42">
    <path clip-path="url(#pd246a218e0)" d="M 205.792633 307.584 
L 208.553303 307.584 
L 208.553303 304.551385 
L 205.792633 304.551385 
z
" style="fill:#f48024;opacity:0.4;"/>
   </g>
   <g id="patch_43">
    <path clip-path="url(#pd246a218e0)" d="M 208.553303 307.584 
L 211.313972 307.584 
L 211.313972 303.684923 
L 208.553303 303.684923 
z
" style="fill:#f48024;opacity:0.4;"/>
   </g>
   <g id="patch_44">
    <path clip-path="url(#pd246a218e0)" d="M 211.313972 307.584 
L 214.074642 307.584 
L 214.074642 301.952 
L 211.313972 301.952 
z
" style="fill:#f48024;opacity:0.4;"/>
   </g>
   <g id="patch_45">
    <path clip-path="url(#pd246a218e0)" d="M 214.074642 307.584 
L 216.835312 307.584 
L 216.835312 301.085538 
L 214.074642 301.085538 
z
" style="fill:#f48024;opacity:0.4;"/>
   </g>
   <g id="patch_46">
    <path clip-path="url(#pd246a218e0)" d="M 216.835312 307.584 
L 219.595982 307.584 
L 219.595982 302.818462 
L 216.835312 302.818462 
z
" style="fill:#f48024;opacity:0.4;"/>
   </g>
   <g id="patch_47">
    <path clip-path="url(#pd246a218e0)" d="M 219.595982 307.584 
L 222.356651 307.584 
L 222.356651 302.385231 
L 219.595982 302.385231 
z
" style="fill:#f48024;opacity:0.4;"/>
   </g>
   <g id="patch_48">
    <path clip-path="url(#pd246a218e0)" d="M 222.356651 307.584 
L 225.117321 307.584 
L 225.117321 305.417846 
L 222.356651 305.417846 
z
" style="fill:#f48024;opacity:0.4;"/>
   </g>
   <g id="patch_49">
    <path clip-path="url(#pd246a218e0)" d="M 225.117321 307.584 
L 227.877991 307.584 
L 227.877991 302.385231 
L 225.117321 302.385231 
z
" style="fill:#f48024;opacity:0.4;"/>
   </g>
   <g id="patch_50">
    <path clip-path="url(#pd246a218e0)" d="M 227.877991 307.584 
L 230.638661 307.584 
L 230.638661 304.984615 
L 227.877991 304.984615 
z
" style="fill:#f48024;opacity:0.4;"/>
   </g>
   <g id="patch_51">
    <path clip-path="url(#pd246a218e0)" d="M 230.638661 307.584 
L 233.39933 307.584 
L 233.39933 303.684923 
L 230.638661 303.684923 
z
" style="fill:#f48024;opacity:0.4;"/>
   </g>
   <g id="patch_52">
    <path clip-path="url(#pd246a218e0)" d="M 233.39933 307.584 
L 236.16 307.584 
L 236.16 304.984615 
L 233.39933 304.984615 
z
" style="fill:#f48024;opacity:0.4;"/>
   </g>
   <g id="patch_53">
    <path clip-path="url(#pd246a218e0)" d="M 236.16 307.584 
L 238.92067 307.584 
L 238.92067 305.417846 
L 236.16 305.417846 
z
" style="fill:#f48024;opacity:0.4;"/>
   </g>
   <g id="patch_54">
    <path clip-path="url(#pd246a218e0)" d="M 238.92067 307.584 
L 241.681339 307.584 
L 241.681339 304.551385 
L 238.92067 304.551385 
z
" style="fill:#f48024;opacity:0.4;"/>
   </g>
   <g id="patch_55">
    <path clip-path="url(#pd246a218e0)" d="M 241.681339 307.584 
L 244.442009 307.584 
L 244.442009 305.417846 
L 241.681339 305.417846 
z
" style="fill:#f48024;opacity:0.4;"/>
   </g>
   <g id="patch_56">
    <path clip-path="url(#pd246a218e0)" d="M 244.442009 307.584 
L 247.202679 307.584 
L 247.202679 305.851077 
L 244.442009 305.851077 
z
" style="fill:#f48024;opacity:0.4;"/>
   </g>
   <g id="patch_57">
    <path clip-path="url(#pd246a218e0)" d="M 247.202679 307.584 
L 249.963349 307.584 
L 249.963349 305.851077 
L 247.202679 305.851077 
z
" style="fill:#f48024;opacity:0.4;"/>
   </g>
   <g id="patch_58">
    <path clip-path="url(#pd246a218e0)" d="M 249.963349 307.584 
L 252.724018 307.584 
L 252.724018 303.684923 
L 249.963349 303.684923 
z
" style="fill:#f48024;opacity:0.4;"/>
   </g>
   <g id="patch_59">
    <path clip-path="url(#pd246a218e0)" d="M 252.724018 307.584 
L 255.484688 307.584 
L 255.484688 304.551385 
L 252.724018 304.551385 
z
" style="fill:#f48024;opacity:0.4;"/>
   </g>
   <g id="patch_60">
    <path clip-path="url(#pd246a218e0)" d="M 255.484688 307.584 
L 258.245358 307.584 
L 258.245358 304.984615 
L 255.484688 304.984615 
z
" style="fill:#f48024;opacity:0.4;"/>
   </g>
   <g id="patch_61">
    <path clip-path="url(#pd246a218e0)" d="M 258.245358 307.584 
L 261.006028 307.584 
L 261.006028 304.118154 
L 258.245358 304.118154 
z
" style="fill:#f48024;opacity:0.4;"/>
   </g>
   <g id="patch_62">
    <path clip-path="url(#pd246a218e0)" d="M 261.006028 307.584 
L 263.766697 307.584 
L 263.766697 304.984615 
L 261.006028 304.984615 
z
" style="fill:#f48024;opacity:0.4;"/>
   </g>
   <g id="patch_63">
    <path clip-path="url(#pd246a218e0)" d="M 263.766697 307.584 
L 266.527367 307.584 
L 266.527367 304.118154 
L 263.766697 304.118154 
z
" style="fill:#f48024;opacity:0.4;"/>
   </g>
   <g id="patch_64">
    <path clip-path="url(#pd246a218e0)" d="M 266.527367 307.584 
L 269.288037 307.584 
L 269.288037 304.551385 
L 266.527367 304.551385 
z
" style="fill:#f48024;opacity:0.4;"/>
   </g>
   <g id="patch_65">
    <path clip-path="url(#pd246a218e0)" d="M 269.288037 307.584 
L 272.048707 307.584 
L 272.048707 306.717538 
L 269.288037 306.717538 
z
" style="fill:#f48024;opacity:0.4;"/>
   </g>
   <g id="patch_66">
    <path clip-path="url(#pd246a218e0)" d="M 272.048707 307.584 
L 274.809376 307.584 
L 274.809376 306.284308 
L 272.048707 306.284308 
z
" style="fill:#f48024;opacity:0.4;"/>
   </g>
   <g id="patch_67">
    <path clip-path="url(#pd246a218e0)" d="M 274.809376 307.584 
L 277.570046 307.584 
L 277.570046 306.284308 
L 274.809376 306.284308 
z
" style="fill:#f48024;opacity:0.4;"/>
   </g>
   <g id="patch_68">
    <path clip-path="url(#pd246a218e0)" d="M 277.570046 307.584 
L 280.330716 307.584 
L 280.330716 304.551385 
L 277.570046 304.551385 
z
" style="fill:#f48024;opacity:0.4;"/>
   </g>
   <g id="patch_69">
    <path clip-path="url(#pd246a218e0)" d="M 280.330716 307.584 
L 283.091385 307.584 
L 283.091385 307.150769 
L 280.330716 307.150769 
z
" style="fill:#f48024;opacity:0.4;"/>
   </g>
   <g id="patch_70">
    <path clip-path="url(#pd246a218e0)" d="M 283.091385 307.584 
L 285.852055 307.584 
L 285.852055 305.851077 
L 283.091385 305.851077 
z
" style="fill:#f48024;opacity:0.4;"/>
   </g>
   <g id="patch_71">
    <path clip-path="url(#pd246a218e0)" d="M 285.852055 307.584 
L 288.612725 307.584 
L 288.612725 305.851077 
L 285.852055 305.851077 
z
" style="fill:#f48024;opacity:0.4;"/>
   </g>
   <g id="patch_72">
    <path clip-path="url(#pd246a218e0)" d="M 288.612725 307.584 
L 291.373395 307.584 
L 291.373395 306.717538 
L 288.612725 306.717538 
z
" style="fill:#f48024;opacity:0.4;"/>
   </g>
   <g id="patch_73">
    <path clip-path="url(#pd246a218e0)" d="M 291.373395 307.584 
L 294.134064 307.584 
L 294.134064 306.717538 
L 291.373395 306.717538 
z
" style="fill:#f48024;opacity:0.4;"/>
   </g>
   <g id="patch_74">
    <path clip-path="url(#pd246a218e0)" d="M 294.134064 307.584 
L 296.894734 307.584 
L 296.894734 306.717538 
L 294.134064 306.717538 
z
" style="fill:#f48024;opacity:0.4;"/>
   </g>
   <g id="patch_75">
    <path clip-path="url(#pd246a218e0)" d="M 296.894734 307.584 
L 299.655404 307.584 
L 299.655404 305.417846 
L 296.894734 305.417846 
z
" style="fill:#f48024;opacity:0.4;"/>
   </g>
   <g id="patch_76">
    <path clip-path="url(#pd246a218e0)" d="M 299.655404 307.584 
L 302.416074 307.584 
L 302.416074 307.150769 
L 299.655404 307.150769 
z
" style="fill:#f48024;opacity:0.4;"/>
   </g>
   <g id="patch_77">
    <path clip-path="url(#pd246a218e0)" d="M 302.416074 307.584 
L 305.176743 307.584 
L 305.176743 306.284308 
L 302.416074 306.284308 
z
" style="fill:#f48024;opacity:0.4;"/>
   </g>
   <g id="patch_78">
    <path clip-path="url(#pd246a218e0)" d="M 305.176743 307.584 
L 307.937413 307.584 
L 307.937413 307.150769 
L 305.176743 307.150769 
z
" style="fill:#f48024;opacity:0.4;"/>
   </g>
   <g id="patch_79">
    <path clip-path="url(#pd246a218e0)" d="M 307.937413 307.584 
L 310.698083 307.584 
L 310.698083 306.284308 
L 307.937413 306.284308 
z
" style="fill:#f48024;opacity:0.4;"/>
   </g>
   <g id="patch_80">
    <path clip-path="url(#pd246a218e0)" d="M 310.698083 307.584 
L 313.458753 307.584 
L 313.458753 307.150769 
L 310.698083 307.150769 
z
" style="fill:#f48024;opacity:0.4;"/>
   </g>
   <g id="patch_81">
    <path clip-path="url(#pd246a218e0)" d="M 313.458753 307.584 
L 316.219422 307.584 
L 316.219422 306.717538 
L 313.458753 306.717538 
z
" style="fill:#f48024;opacity:0.4;"/>
   </g>
   <g id="patch_82">
    <path clip-path="url(#pd246a218e0)" d="M 316.219422 307.584 
L 318.980092 307.584 
L 318.980092 306.284308 
L 316.219422 306.284308 
z
" style="fill:#f48024;opacity:0.4;"/>
   </g>
   <g id="patch_83">
    <path clip-path="url(#pd246a218e0)" d="M 318.980092 307.584 
L 321.740762 307.584 
L 321.740762 306.717538 
L 318.980092 306.717538 
z
" style="fill:#f48024;opacity:0.4;"/>
   </g>
   <g id="patch_84">
    <path clip-path="url(#pd246a218e0)" d="M 321.740762 307.584 
L 324.501432 307.584 
L 324.501432 306.717538 
L 321.740762 306.717538 
z
" style="fill:#f48024;opacity:0.4;"/>
   </g>
   <g id="patch_85">
    <path clip-path="url(#pd246a218e0)" d="M 324.501432 307.584 
L 327.262101 307.584 
L 327.262101 306.717538 
L 324.501432 306.717538 
z
" style="fill:#f48024;opacity:0.4;"/>
   </g>
   <g id="patch_86">
    <path clip-path="url(#pd246a218e0)" d="M 327.262101 307.584 
L 330.022771 307.584 
L 330.022771 307.150769 
L 327.262101 307.150769 
z
" style="fill:#f48024;opacity:0.4;"/>
   </g>
   <g id="patch_87">
    <path clip-path="url(#pd246a218e0)" d="M 330.022771 307.584 
L 332.783441 307.584 
L 332.783441 307.150769 
L 330.022771 307.150769 
z
" style="fill:#f48024;opacity:0.4;"/>
   </g>
   <g id="patch_88">
    <path clip-path="url(#pd246a218e0)" d="M 332.783441 307.584 
L 335.54411 307.584 
L 335.54411 306.717538 
L 332.783441 306.717538 
z
" style="fill:#f48024;opacity:0.4;"/>
   </g>
   <g id="patch_89">
    <path clip-path="url(#pd246a218e0)" d="M 335.54411 307.584 
L 338.30478 307.584 
L 338.30478 307.150769 
L 335.54411 307.150769 
z
" style="fill:#f48024;opacity:0.4;"/>
   </g>
   <g id="patch_90">
    <path clip-path="url(#pd246a218e0)" d="M 338.30478 307.584 
L 341.06545 307.584 
L 341.06545 307.584 
L 338.30478 307.584 
z
" style="fill:#f48024;opacity:0.4;"/>
   </g>
   <g id="patch_91">
    <path clip-path="url(#pd246a218e0)" d="M 341.06545 307.584 
L 343.82612 307.584 
L 343.82612 307.584 
L 341.06545 307.584 
z
" style="fill:#f48024;opacity:0.4;"/>
   </g>
   <g id="patch_92">
    <path clip-path="url(#pd246a218e0)" d="M 343.82612 307.584 
L 346.586789 307.584 
L 346.586789 306.717538 
L 343.82612 306.717538 
z
" style="fill:#f48024;opacity:0.4;"/>
   </g>
   <g id="patch_93">
    <path clip-path="url(#pd246a218e0)" d="M 346.586789 307.584 
L 349.347459 307.584 
L 349.347459 307.584 
L 346.586789 307.584 
z
" style="fill:#f48024;opacity:0.4;"/>
   </g>
   <g id="patch_94">
    <path clip-path="url(#pd246a218e0)" d="M 349.347459 307.584 
L 352.108129 307.584 
L 352.108129 307.150769 
L 349.347459 307.150769 
z
" style="fill:#f48024;opacity:0.4;"/>
   </g>
   <g id="patch_95">
    <path clip-path="url(#pd246a218e0)" d="M 352.108129 307.584 
L 354.868799 307.584 
L 354.868799 307.584 
L 352.108129 307.584 
z
" style="fill:#f48024;opacity:0.4;"/>
   </g>
   <g id="patch_96">
    <path clip-path="url(#pd246a218e0)" d="M 354.868799 307.584 
L 357.629468 307.584 
L 357.629468 307.584 
L 354.868799 307.584 
z
" style="fill:#f48024;opacity:0.4;"/>
   </g>
   <g id="patch_97">
    <path clip-path="url(#pd246a218e0)" d="M 357.629468 307.584 
L 360.390138 307.584 
L 360.390138 307.150769 
L 357.629468 307.150769 
z
" style="fill:#f48024;opacity:0.4;"/>
   </g>
   <g id="patch_98">
    <path clip-path="url(#pd246a218e0)" d="M 360.390138 307.584 
L 363.150808 307.584 
L 363.150808 307.150769 
L 360.390138 307.150769 
z
" style="fill:#f48024;opacity:0.4;"/>
   </g>
   <g id="patch_99">
    <path clip-path="url(#pd246a218e0)" d="M 363.150808 307.584 
L 365.911478 307.584 
L 365.911478 306.717538 
L 363.150808 306.717538 
z
" style="fill:#f48024;opacity:0.4;"/>
   </g>
   <g id="patch_100">
    <path clip-path="url(#pd246a218e0)" d="M 365.911478 307.584 
L 368.672147 307.584 
L 368.672147 307.150769 
L 365.911478 307.150769 
z
" style="fill:#f48024;opacity:0.4;"/>
   </g>
   <g id="patch_101">
    <path clip-path="url(#pd246a218e0)" d="M 368.672147 307.584 
L 371.432817 307.584 
L 371.432817 307.584 
L 368.672147 307.584 
z
" style="fill:#f48024;opacity:0.4;"/>
   </g>
   <g id="patch_102">
    <path clip-path="url(#pd246a218e0)" d="M 371.432817 307.584 
L 374.193487 307.584 
L 374.193487 306.717538 
L 371.432817 306.717538 
z
" style="fill:#f48024;opacity:0.4;"/>
   </g>
   <g id="patch_103">
    <path clip-path="url(#pd246a218e0)" d="M 98.469615 307.584 
L 101.157152 307.584 
L 101.157152 176.30318 
L 98.469615 176.30318 
z
" style="fill:#008000;opacity:0.4;"/>
   </g>
   <g id="patch_104">
    <path clip-path="url(#pd246a218e0)" d="M 101.157152 307.584 
L 103.844689 307.584 
L 103.844689 195.884048 
L 101.157152 195.884048 
z
" style="fill:#008000;opacity:0.4;"/>
   </g>
   <g id="patch_105">
    <path clip-path="url(#pd246a218e0)" d="M 103.844689 307.584 
L 106.532226 307.584 
L 106.532226 236.825863 
L 103.844689 236.825863 
z
" style="fill:#008000;opacity:0.4;"/>
   </g>
   <g id="patch_106">
    <path clip-path="url(#pd246a218e0)" d="M 106.532226 307.584 
L 109.219763 307.584 
L 109.219763 110.44026 
L 106.532226 110.44026 
z
" style="fill:#008000;opacity:0.4;"/>
   </g>
   <g id="patch_107">
    <path clip-path="url(#pd246a218e0)" d="M 109.219763 307.584 
L 111.907301 307.584 
L 111.907301 58.817972 
L 109.219763 58.817972 
z
" style="fill:#008000;opacity:0.4;"/>
   </g>
   <g id="patch_108">
    <path clip-path="url(#pd246a218e0)" d="M 111.907301 307.584 
L 114.594838 307.584 
L 114.594838 133.581286 
L 111.907301 133.581286 
z
" style="fill:#008000;opacity:0.4;"/>
   </g>
   <g id="patch_109">
    <path clip-path="url(#pd246a218e0)" d="M 114.594838 307.584 
L 117.282375 307.584 
L 117.282375 207.454561 
L 114.594838 207.454561 
z
" style="fill:#008000;opacity:0.4;"/>
   </g>
   <g id="patch_110">
    <path clip-path="url(#pd246a218e0)" d="M 117.282375 307.584 
L 119.969912 307.584 
L 119.969912 243.946179 
L 117.282375 243.946179 
z
" style="fill:#008000;opacity:0.4;"/>
   </g>
   <g id="patch_111">
    <path clip-path="url(#pd246a218e0)" d="M 119.969912 307.584 
L 122.657449 307.584 
L 122.657449 263.082027 
L 119.969912 263.082027 
z
" style="fill:#008000;opacity:0.4;"/>
   </g>
   <g id="patch_112">
    <path clip-path="url(#pd246a218e0)" d="M 122.657449 307.584 
L 125.344987 307.584 
L 125.344987 273.317481 
L 122.657449 273.317481 
z
" style="fill:#008000;opacity:0.4;"/>
   </g>
   <g id="patch_113">
    <path clip-path="url(#pd246a218e0)" d="M 125.344987 307.584 
L 128.032524 307.584 
L 128.032524 275.54258 
L 125.344987 275.54258 
z
" style="fill:#008000;opacity:0.4;"/>
   </g>
   <g id="patch_114">
    <path clip-path="url(#pd246a218e0)" d="M 128.032524 307.584 
L 130.720061 307.584 
L 130.720061 281.772856 
L 128.032524 281.772856 
z
" style="fill:#008000;opacity:0.4;"/>
   </g>
   <g id="patch_115">
    <path clip-path="url(#pd246a218e0)" d="M 130.720061 307.584 
L 133.407598 307.584 
L 133.407598 281.772856 
L 130.720061 281.772856 
z
" style="fill:#008000;opacity:0.4;"/>
   </g>
   <g id="patch_116">
    <path clip-path="url(#pd246a218e0)" d="M 133.407598 307.584 
L 136.095135 307.584 
L 136.095135 291.56329 
L 133.407598 291.56329 
z
" style="fill:#008000;opacity:0.4;"/>
   </g>
   <g id="patch_117">
    <path clip-path="url(#pd246a218e0)" d="M 136.095135 307.584 
L 138.782673 307.584 
L 138.782673 297.793566 
L 136.095135 297.793566 
z
" style="fill:#008000;opacity:0.4;"/>
   </g>
   <g id="patch_118">
    <path clip-path="url(#pd246a218e0)" d="M 138.782673 307.584 
L 141.47021 307.584 
L 141.47021 297.793566 
L 138.782673 297.793566 
z
" style="fill:#008000;opacity:0.4;"/>
   </g>
   <g id="patch_119">
    <path clip-path="url(#pd246a218e0)" d="M 141.47021 307.584 
L 144.157747 307.584 
L 144.157747 296.013487 
L 141.47021 296.013487 
z
" style="fill:#008000;opacity:0.4;"/>
   </g>
   <g id="patch_120">
    <path clip-path="url(#pd246a218e0)" d="M 144.157747 307.584 
L 146.845284 307.584 
L 146.845284 297.793566 
L 144.157747 297.793566 
z
" style="fill:#008000;opacity:0.4;"/>
   </g>
   <g id="patch_121">
    <path clip-path="url(#pd246a218e0)" d="M 146.845284 307.584 
L 149.532821 307.584 
L 149.532821 295.123448 
L 146.845284 295.123448 
z
" style="fill:#008000;opacity:0.4;"/>
   </g>
   <g id="patch_122">
    <path clip-path="url(#pd246a218e0)" d="M 149.532821 307.584 
L 152.220358 307.584 
L 152.220358 297.793566 
L 149.532821 297.793566 
z
" style="fill:#008000;opacity:0.4;"/>
   </g>
   <g id="patch_123">
    <path clip-path="url(#pd246a218e0)" d="M 152.220358 307.584 
L 154.907896 307.584 
L 154.907896 297.793566 
L 152.220358 297.793566 
z
" style="fill:#008000;opacity:0.4;"/>
   </g>
   <g id="patch_124">
    <path clip-path="url(#pd246a218e0)" d="M 154.907896 307.584 
L 157.595433 307.584 
L 157.595433 297.793566 
L 154.907896 297.793566 
z
" style="fill:#008000;opacity:0.4;"/>
   </g>
   <g id="patch_125">
    <path clip-path="url(#pd246a218e0)" d="M 157.595433 307.584 
L 160.28297 307.584 
L 160.28297 294.678428 
L 157.595433 294.678428 
z
" style="fill:#008000;opacity:0.4;"/>
   </g>
   <g id="patch_126">
    <path clip-path="url(#pd246a218e0)" d="M 160.28297 307.584 
L 162.970507 307.584 
L 162.970507 299.573645 
L 160.28297 299.573645 
z
" style="fill:#008000;opacity:0.4;"/>
   </g>
   <g id="patch_127">
    <path clip-path="url(#pd246a218e0)" d="M 162.970507 307.584 
L 165.658044 307.584 
L 165.658044 303.578822 
L 162.970507 303.578822 
z
" style="fill:#008000;opacity:0.4;"/>
   </g>
   <g id="patch_128">
    <path clip-path="url(#pd246a218e0)" d="M 165.658044 307.584 
L 168.345582 307.584 
L 168.345582 303.578822 
L 165.658044 303.578822 
z
" style="fill:#008000;opacity:0.4;"/>
   </g>
   <g id="patch_129">
    <path clip-path="url(#pd246a218e0)" d="M 168.345582 307.584 
L 171.033119 307.584 
L 171.033119 299.573645 
L 168.345582 299.573645 
z
" style="fill:#008000;opacity:0.4;"/>
   </g>
   <g id="patch_130">
    <path clip-path="url(#pd246a218e0)" d="M 171.033119 307.584 
L 173.720656 307.584 
L 173.720656 302.688783 
L 171.033119 302.688783 
z
" style="fill:#008000;opacity:0.4;"/>
   </g>
   <g id="patch_131">
    <path clip-path="url(#pd246a218e0)" d="M 173.720656 307.584 
L 176.408193 307.584 
L 176.408193 300.908704 
L 173.720656 300.908704 
z
" style="fill:#008000;opacity:0.4;"/>
   </g>
   <g id="patch_132">
    <path clip-path="url(#pd246a218e0)" d="M 176.408193 307.584 
L 179.09573 307.584 
L 179.09573 304.913882 
L 176.408193 304.913882 
z
" style="fill:#008000;opacity:0.4;"/>
   </g>
   <g id="patch_133">
    <path clip-path="url(#pd246a218e0)" d="M 179.09573 307.584 
L 181.783268 307.584 
L 181.783268 302.688783 
L 179.09573 302.688783 
z
" style="fill:#008000;opacity:0.4;"/>
   </g>
   <g id="patch_134">
    <path clip-path="url(#pd246a218e0)" d="M 181.783268 307.584 
L 184.470805 307.584 
L 184.470805 303.133803 
L 181.783268 303.133803 
z
" style="fill:#008000;opacity:0.4;"/>
   </g>
   <g id="patch_135">
    <path clip-path="url(#pd246a218e0)" d="M 184.470805 307.584 
L 187.158342 307.584 
L 187.158342 301.353724 
L 184.470805 301.353724 
z
" style="fill:#008000;opacity:0.4;"/>
   </g>
   <g id="patch_136">
    <path clip-path="url(#pd246a218e0)" d="M 187.158342 307.584 
L 189.845879 307.584 
L 189.845879 304.468862 
L 187.158342 304.468862 
z
" style="fill:#008000;opacity:0.4;"/>
   </g>
   <g id="patch_137">
    <path clip-path="url(#pd246a218e0)" d="M 189.845879 307.584 
L 192.533416 307.584 
L 192.533416 301.798744 
L 189.845879 301.798744 
z
" style="fill:#008000;opacity:0.4;"/>
   </g>
   <g id="patch_138">
    <path clip-path="url(#pd246a218e0)" d="M 192.533416 307.584 
L 195.220954 307.584 
L 195.220954 305.358901 
L 192.533416 305.358901 
z
" style="fill:#008000;opacity:0.4;"/>
   </g>
   <g id="patch_139">
    <path clip-path="url(#pd246a218e0)" d="M 195.220954 307.584 
L 197.908491 307.584 
L 197.908491 304.468862 
L 195.220954 304.468862 
z
" style="fill:#008000;opacity:0.4;"/>
   </g>
   <g id="patch_140">
    <path clip-path="url(#pd246a218e0)" d="M 197.908491 307.584 
L 200.596028 307.584 
L 200.596028 303.133803 
L 197.908491 303.133803 
z
" style="fill:#008000;opacity:0.4;"/>
   </g>
   <g id="patch_141">
    <path clip-path="url(#pd246a218e0)" d="M 200.596028 307.584 
L 203.283565 307.584 
L 203.283565 302.243763 
L 200.596028 302.243763 
z
" style="fill:#008000;opacity:0.4;"/>
   </g>
   <g id="patch_142">
    <path clip-path="url(#pd246a218e0)" d="M 203.283565 307.584 
L 205.971102 307.584 
L 205.971102 302.688783 
L 203.283565 302.688783 
z
" style="fill:#008000;opacity:0.4;"/>
   </g>
   <g id="patch_143">
    <path clip-path="url(#pd246a218e0)" d="M 205.971102 307.584 
L 208.65864 307.584 
L 208.65864 301.798744 
L 205.971102 301.798744 
z
" style="fill:#008000;opacity:0.4;"/>
   </g>
   <g id="patch_144">
    <path clip-path="url(#pd246a218e0)" d="M 208.65864 307.584 
L 211.346177 307.584 
L 211.346177 302.688783 
L 208.65864 302.688783 
z
" style="fill:#008000;opacity:0.4;"/>
   </g>
   <g id="patch_145">
    <path clip-path="url(#pd246a218e0)" d="M 211.346177 307.584 
L 214.033714 307.584 
L 214.033714 302.243763 
L 211.346177 302.243763 
z
" style="fill:#008000;opacity:0.4;"/>
   </g>
   <g id="patch_146">
    <path clip-path="url(#pd246a218e0)" d="M 214.033714 307.584 
L 216.721251 307.584 
L 216.721251 303.133803 
L 214.033714 303.133803 
z
" style="fill:#008000;opacity:0.4;"/>
   </g>
   <g id="patch_147">
    <path clip-path="url(#pd246a218e0)" d="M 216.721251 307.584 
L 219.408788 307.584 
L 219.408788 303.133803 
L 216.721251 303.133803 
z
" style="fill:#008000;opacity:0.4;"/>
   </g>
   <g id="patch_148">
    <path clip-path="url(#pd246a218e0)" d="M 219.408788 307.584 
L 222.096325 307.584 
L 222.096325 303.133803 
L 219.408788 303.133803 
z
" style="fill:#008000;opacity:0.4;"/>
   </g>
   <g id="patch_149">
    <path clip-path="url(#pd246a218e0)" d="M 222.096325 307.584 
L 224.783863 307.584 
L 224.783863 302.688783 
L 222.096325 302.688783 
z
" style="fill:#008000;opacity:0.4;"/>
   </g>
   <g id="patch_150">
    <path clip-path="url(#pd246a218e0)" d="M 224.783863 307.584 
L 227.4714 307.584 
L 227.4714 303.578822 
L 224.783863 303.578822 
z
" style="fill:#008000;opacity:0.4;"/>
   </g>
   <g id="patch_151">
    <path clip-path="url(#pd246a218e0)" d="M 227.4714 307.584 
L 230.158937 307.584 
L 230.158937 304.023842 
L 227.4714 304.023842 
z
" style="fill:#008000;opacity:0.4;"/>
   </g>
   <g id="patch_152">
    <path clip-path="url(#pd246a218e0)" d="M 230.158937 307.584 
L 232.846474 307.584 
L 232.846474 303.578822 
L 230.158937 303.578822 
z
" style="fill:#008000;opacity:0.4;"/>
   </g>
   <g id="patch_153">
    <path clip-path="url(#pd246a218e0)" d="M 232.846474 307.584 
L 235.534011 307.584 
L 235.534011 305.803921 
L 232.846474 305.803921 
z
" style="fill:#008000;opacity:0.4;"/>
   </g>
   <g id="patch_154">
    <path clip-path="url(#pd246a218e0)" d="M 235.534011 307.584 
L 238.221549 307.584 
L 238.221549 305.358901 
L 235.534011 305.358901 
z
" style="fill:#008000;opacity:0.4;"/>
   </g>
   <g id="patch_155">
    <path clip-path="url(#pd246a218e0)" d="M 238.221549 307.584 
L 240.909086 307.584 
L 240.909086 305.803921 
L 238.221549 305.803921 
z
" style="fill:#008000;opacity:0.4;"/>
   </g>
   <g id="patch_156">
    <path clip-path="url(#pd246a218e0)" d="M 240.909086 307.584 
L 243.596623 307.584 
L 243.596623 306.248941 
L 240.909086 306.248941 
z
" style="fill:#008000;opacity:0.4;"/>
   </g>
   <g id="patch_157">
    <path clip-path="url(#pd246a218e0)" d="M 243.596623 307.584 
L 246.28416 307.584 
L 246.28416 305.358901 
L 243.596623 305.358901 
z
" style="fill:#008000;opacity:0.4;"/>
   </g>
   <g id="patch_158">
    <path clip-path="url(#pd246a218e0)" d="M 246.28416 307.584 
L 248.971697 307.584 
L 248.971697 304.468862 
L 246.28416 304.468862 
z
" style="fill:#008000;opacity:0.4;"/>
   </g>
   <g id="patch_159">
    <path clip-path="url(#pd246a218e0)" d="M 248.971697 307.584 
L 251.659235 307.584 
L 251.659235 304.913882 
L 248.971697 304.913882 
z
" style="fill:#008000;opacity:0.4;"/>
   </g>
   <g id="patch_160">
    <path clip-path="url(#pd246a218e0)" d="M 251.659235 307.584 
L 254.346772 307.584 
L 254.346772 305.803921 
L 251.659235 305.803921 
z
" style="fill:#008000;opacity:0.4;"/>
   </g>
   <g id="patch_161">
    <path clip-path="url(#pd246a218e0)" d="M 254.346772 307.584 
L 257.034309 307.584 
L 257.034309 304.468862 
L 254.346772 304.468862 
z
" style="fill:#008000;opacity:0.4;"/>
   </g>
   <g id="patch_162">
    <path clip-path="url(#pd246a218e0)" d="M 257.034309 307.584 
L 259.721846 307.584 
L 259.721846 304.913882 
L 257.034309 304.913882 
z
" style="fill:#008000;opacity:0.4;"/>
   </g>
   <g id="patch_163">
    <path clip-path="url(#pd246a218e0)" d="M 259.721846 307.584 
L 262.409383 307.584 
L 262.409383 302.688783 
L 259.721846 302.688783 
z
" style="fill:#008000;opacity:0.4;"/>
   </g>
   <g id="patch_164">
    <path clip-path="url(#pd246a218e0)" d="M 262.409383 307.584 
L 265.096921 307.584 
L 265.096921 305.358901 
L 262.409383 305.358901 
z
" style="fill:#008000;opacity:0.4;"/>
   </g>
   <g id="patch_165">
    <path clip-path="url(#pd246a218e0)" d="M 265.096921 307.584 
L 267.784458 307.584 
L 267.784458 306.248941 
L 265.096921 306.248941 
z
" style="fill:#008000;opacity:0.4;"/>
   </g>
   <g id="patch_166">
    <path clip-path="url(#pd246a218e0)" d="M 267.784458 307.584 
L 270.471995 307.584 
L 270.471995 304.468862 
L 267.784458 304.468862 
z
" style="fill:#008000;opacity:0.4;"/>
   </g>
   <g id="patch_167">
    <path clip-path="url(#pd246a218e0)" d="M 270.471995 307.584 
L 273.159532 307.584 
L 273.159532 305.358901 
L 270.471995 305.358901 
z
" style="fill:#008000;opacity:0.4;"/>
   </g>
   <g id="patch_168">
    <path clip-path="url(#pd246a218e0)" d="M 273.159532 307.584 
L 275.847069 307.584 
L 275.847069 306.248941 
L 273.159532 306.248941 
z
" style="fill:#008000;opacity:0.4;"/>
   </g>
   <g id="patch_169">
    <path clip-path="url(#pd246a218e0)" d="M 275.847069 307.584 
L 278.534607 307.584 
L 278.534607 305.358901 
L 275.847069 305.358901 
z
" style="fill:#008000;opacity:0.4;"/>
   </g>
   <g id="patch_170">
    <path clip-path="url(#pd246a218e0)" d="M 278.534607 307.584 
L 281.222144 307.584 
L 281.222144 305.358901 
L 278.534607 305.358901 
z
" style="fill:#008000;opacity:0.4;"/>
   </g>
   <g id="patch_171">
    <path clip-path="url(#pd246a218e0)" d="M 281.222144 307.584 
L 283.909681 307.584 
L 283.909681 306.693961 
L 281.222144 306.693961 
z
" style="fill:#008000;opacity:0.4;"/>
   </g>
   <g id="patch_172">
    <path clip-path="url(#pd246a218e0)" d="M 283.909681 307.584 
L 286.597218 307.584 
L 286.597218 305.803921 
L 283.909681 305.803921 
z
" style="fill:#008000;opacity:0.4;"/>
   </g>
   <g id="patch_173">
    <path clip-path="url(#pd246a218e0)" d="M 286.597218 307.584 
L 289.284755 307.584 
L 289.284755 306.693961 
L 286.597218 306.693961 
z
" style="fill:#008000;opacity:0.4;"/>
   </g>
   <g id="patch_174">
    <path clip-path="url(#pd246a218e0)" d="M 289.284755 307.584 
L 291.972292 307.584 
L 291.972292 306.693961 
L 289.284755 306.693961 
z
" style="fill:#008000;opacity:0.4;"/>
   </g>
   <g id="patch_175">
    <path clip-path="url(#pd246a218e0)" d="M 291.972292 307.584 
L 294.65983 307.584 
L 294.65983 305.803921 
L 291.972292 305.803921 
z
" style="fill:#008000;opacity:0.4;"/>
   </g>
   <g id="patch_176">
    <path clip-path="url(#pd246a218e0)" d="M 294.65983 307.584 
L 297.347367 307.584 
L 297.347367 306.248941 
L 294.65983 306.248941 
z
" style="fill:#008000;opacity:0.4;"/>
   </g>
   <g id="patch_177">
    <path clip-path="url(#pd246a218e0)" d="M 297.347367 307.584 
L 300.034904 307.584 
L 300.034904 306.693961 
L 297.347367 306.693961 
z
" style="fill:#008000;opacity:0.4;"/>
   </g>
   <g id="patch_178">
    <path clip-path="url(#pd246a218e0)" d="M 300.034904 307.584 
L 302.722441 307.584 
L 302.722441 307.13898 
L 300.034904 307.13898 
z
" style="fill:#008000;opacity:0.4;"/>
   </g>
   <g id="patch_179">
    <path clip-path="url(#pd246a218e0)" d="M 302.722441 307.584 
L 305.409978 307.584 
L 305.409978 306.248941 
L 302.722441 306.248941 
z
" style="fill:#008000;opacity:0.4;"/>
   </g>
   <g id="patch_180">
    <path clip-path="url(#pd246a218e0)" d="M 305.409978 307.584 
L 308.097516 307.584 
L 308.097516 306.693961 
L 305.409978 306.693961 
z
" style="fill:#008000;opacity:0.4;"/>
   </g>
   <g id="patch_181">
    <path clip-path="url(#pd246a218e0)" d="M 308.097516 307.584 
L 310.785053 307.584 
L 310.785053 307.13898 
L 308.097516 307.13898 
z
" style="fill:#008000;opacity:0.4;"/>
   </g>
   <g id="patch_182">
    <path clip-path="url(#pd246a218e0)" d="M 310.785053 307.584 
L 313.47259 307.584 
L 313.47259 307.13898 
L 310.785053 307.13898 
z
" style="fill:#008000;opacity:0.4;"/>
   </g>
   <g id="patch_183">
    <path clip-path="url(#pd246a218e0)" d="M 313.47259 307.584 
L 316.160127 307.584 
L 316.160127 307.13898 
L 313.47259 307.13898 
z
" style="fill:#008000;opacity:0.4;"/>
   </g>
   <g id="patch_184">
    <path clip-path="url(#pd246a218e0)" d="M 316.160127 307.584 
L 318.847664 307.584 
L 318.847664 306.693961 
L 316.160127 306.693961 
z
" style="fill:#008000;opacity:0.4;"/>
   </g>
   <g id="patch_185">
    <path clip-path="url(#pd246a218e0)" d="M 318.847664 307.584 
L 321.535202 307.584 
L 321.535202 306.693961 
L 318.847664 306.693961 
z
" style="fill:#008000;opacity:0.4;"/>
   </g>
   <g id="patch_186">
    <path clip-path="url(#pd246a218e0)" d="M 321.535202 307.584 
L 324.222739 307.584 
L 324.222739 306.248941 
L 321.535202 306.248941 
z
" style="fill:#008000;opacity:0.4;"/>
   </g>
   <g id="patch_187">
    <path clip-path="url(#pd246a218e0)" d="M 324.222739 307.584 
L 326.910276 307.584 
L 326.910276 306.693961 
L 324.222739 306.693961 
z
" style="fill:#008000;opacity:0.4;"/>
   </g>
   <g id="patch_188">
    <path clip-path="url(#pd246a218e0)" d="M 326.910276 307.584 
L 329.597813 307.584 
L 329.597813 307.13898 
L 326.910276 307.13898 
z
" style="fill:#008000;opacity:0.4;"/>
   </g>
   <g id="patch_189">
    <path clip-path="url(#pd246a218e0)" d="M 329.597813 307.584 
L 332.28535 307.584 
L 332.28535 307.584 
L 329.597813 307.584 
z
" style="fill:#008000;opacity:0.4;"/>
   </g>
   <g id="patch_190">
    <path clip-path="url(#pd246a218e0)" d="M 332.28535 307.584 
L 334.972888 307.584 
L 334.972888 307.584 
L 332.28535 307.584 
z
" style="fill:#008000;opacity:0.4;"/>
   </g>
   <g id="patch_191">
    <path clip-path="url(#pd246a218e0)" d="M 334.972888 307.584 
L 337.660425 307.584 
L 337.660425 306.248941 
L 334.972888 306.248941 
z
" style="fill:#008000;opacity:0.4;"/>
   </g>
   <g id="patch_192">
    <path clip-path="url(#pd246a218e0)" d="M 337.660425 307.584 
L 340.347962 307.584 
L 340.347962 307.584 
L 337.660425 307.584 
z
" style="fill:#008000;opacity:0.4;"/>
   </g>
   <g id="patch_193">
    <path clip-path="url(#pd246a218e0)" d="M 340.347962 307.584 
L 343.035499 307.584 
L 343.035499 307.584 
L 340.347962 307.584 
z
" style="fill:#008000;opacity:0.4;"/>
   </g>
   <g id="patch_194">
    <path clip-path="url(#pd246a218e0)" d="M 343.035499 307.584 
L 345.723036 307.584 
L 345.723036 307.584 
L 343.035499 307.584 
z
" style="fill:#008000;opacity:0.4;"/>
   </g>
   <g id="patch_195">
    <path clip-path="url(#pd246a218e0)" d="M 345.723036 307.584 
L 348.410574 307.584 
L 348.410574 307.584 
L 345.723036 307.584 
z
" style="fill:#008000;opacity:0.4;"/>
   </g>
   <g id="patch_196">
    <path clip-path="url(#pd246a218e0)" d="M 348.410574 307.584 
L 351.098111 307.584 
L 351.098111 306.693961 
L 348.410574 306.693961 
z
" style="fill:#008000;opacity:0.4;"/>
   </g>
   <g id="patch_197">
    <path clip-path="url(#pd246a218e0)" d="M 351.098111 307.584 
L 353.785648 307.584 
L 353.785648 307.584 
L 351.098111 307.584 
z
" style="fill:#008000;opacity:0.4;"/>
   </g>
   <g id="patch_198">
    <path clip-path="url(#pd246a218e0)" d="M 353.785648 307.584 
L 356.473185 307.584 
L 356.473185 306.693961 
L 353.785648 306.693961 
z
" style="fill:#008000;opacity:0.4;"/>
   </g>
   <g id="patch_199">
    <path clip-path="url(#pd246a218e0)" d="M 356.473185 307.584 
L 359.160722 307.584 
L 359.160722 307.584 
L 356.473185 307.584 
z
" style="fill:#008000;opacity:0.4;"/>
   </g>
   <g id="patch_200">
    <path clip-path="url(#pd246a218e0)" d="M 359.160722 307.584 
L 361.848259 307.584 
L 361.848259 306.693961 
L 359.160722 306.693961 
z
" style="fill:#008000;opacity:0.4;"/>
   </g>
   <g id="patch_201">
    <path clip-path="url(#pd246a218e0)" d="M 361.848259 307.584 
L 364.535797 307.584 
L 364.535797 307.584 
L 361.848259 307.584 
z
" style="fill:#008000;opacity:0.4;"/>
   </g>
   <g id="patch_202">
    <path clip-path="url(#pd246a218e0)" d="M 364.535797 307.584 
L 367.223334 307.584 
L 367.223334 307.13898 
L 364.535797 307.13898 
z
" style="fill:#008000;opacity:0.4;"/>
   </g>
   <g id="matplotlib.axis_1">
    <g id="xtick_1">
     <g id="line2d_1">
      <defs>
       <path d="M 0 0 
L 0 3.5 
" id="mfc0efdbf2c" style="stroke:#000000;stroke-width:0.8;"/>
      </defs>
      <g>
       <use style="stroke:#000000;stroke-width:0.8;" x="89.563337" xlink:href="#mfc0efdbf2c" y="307.584"/>
      </g>
     </g>
     <g id="text_1">
      <!-- 0 -->
      <defs>
       <path d="M 31.78125 66.40625 
Q 24.171875 66.40625 20.328125 58.90625 
Q 16.5 51.421875 16.5 36.375 
Q 16.5 21.390625 20.328125 13.890625 
Q 24.171875 6.390625 31.78125 6.390625 
Q 39.453125 6.390625 43.28125 13.890625 
Q 47.125 21.390625 47.125 36.375 
Q 47.125 51.421875 43.28125 58.90625 
Q 39.453125 66.40625 31.78125 66.40625 
z
M 31.78125 74.21875 
Q 44.046875 74.21875 50.515625 64.515625 
Q 56.984375 54.828125 56.984375 36.375 
Q 56.984375 17.96875 50.515625 8.265625 
Q 44.046875 -1.421875 31.78125 -1.421875 
Q 19.53125 -1.421875 13.0625 8.265625 
Q 6.59375 17.96875 6.59375 36.375 
Q 6.59375 54.828125 13.0625 64.515625 
Q 19.53125 74.21875 31.78125 74.21875 
z
" id="DejaVuSans-48"/>
      </defs>
      <g transform="translate(86.382087 322.182437)scale(0.1 -0.1)">
       <use xlink:href="#DejaVuSans-48"/>
      </g>
     </g>
    </g>
    <g id="xtick_2">
     <g id="line2d_2">
      <g>
       <use style="stroke:#000000;stroke-width:0.8;" x="142.305246" xlink:href="#mfc0efdbf2c" y="307.584"/>
      </g>
     </g>
     <g id="text_2">
      <!-- 200000 -->
      <defs>
       <path d="M 19.1875 8.296875 
L 53.609375 8.296875 
L 53.609375 0 
L 7.328125 0 
L 7.328125 8.296875 
Q 12.9375 14.109375 22.625 23.890625 
Q 32.328125 33.6875 34.8125 36.53125 
Q 39.546875 41.84375 41.421875 45.53125 
Q 43.3125 49.21875 43.3125 52.78125 
Q 43.3125 58.59375 39.234375 62.25 
Q 35.15625 65.921875 28.609375 65.921875 
Q 23.96875 65.921875 18.8125 64.3125 
Q 13.671875 62.703125 7.8125 59.421875 
L 7.8125 69.390625 
Q 13.765625 71.78125 18.9375 73 
Q 24.125 74.21875 28.421875 74.21875 
Q 39.75 74.21875 46.484375 68.546875 
Q 53.21875 62.890625 53.21875 53.421875 
Q 53.21875 48.921875 51.53125 44.890625 
Q 49.859375 40.875 45.40625 35.40625 
Q 44.1875 33.984375 37.640625 27.21875 
Q 31.109375 20.453125 19.1875 8.296875 
z
" id="DejaVuSans-50"/>
      </defs>
      <g transform="translate(123.217746 322.182437)scale(0.1 -0.1)">
       <use xlink:href="#DejaVuSans-50"/>
       <use x="63.623047" xlink:href="#DejaVuSans-48"/>
       <use x="127.246094" xlink:href="#DejaVuSans-48"/>
       <use x="190.869141" xlink:href="#DejaVuSans-48"/>
       <use x="254.492188" xlink:href="#DejaVuSans-48"/>
       <use x="318.115234" xlink:href="#DejaVuSans-48"/>
      </g>
     </g>
    </g>
    <g id="xtick_3">
     <g id="line2d_3">
      <g>
       <use style="stroke:#000000;stroke-width:0.8;" x="195.047155" xlink:href="#mfc0efdbf2c" y="307.584"/>
      </g>
     </g>
     <g id="text_3">
      <!-- 400000 -->
      <defs>
       <path d="M 37.796875 64.3125 
L 12.890625 25.390625 
L 37.796875 25.390625 
z
M 35.203125 72.90625 
L 47.609375 72.90625 
L 47.609375 25.390625 
L 58.015625 25.390625 
L 58.015625 17.1875 
L 47.609375 17.1875 
L 47.609375 0 
L 37.796875 0 
L 37.796875 17.1875 
L 4.890625 17.1875 
L 4.890625 26.703125 
z
" id="DejaVuSans-52"/>
      </defs>
      <g transform="translate(175.959655 322.182437)scale(0.1 -0.1)">
       <use xlink:href="#DejaVuSans-52"/>
       <use x="63.623047" xlink:href="#DejaVuSans-48"/>
       <use x="127.246094" xlink:href="#DejaVuSans-48"/>
       <use x="190.869141" xlink:href="#DejaVuSans-48"/>
       <use x="254.492188" xlink:href="#DejaVuSans-48"/>
       <use x="318.115234" xlink:href="#DejaVuSans-48"/>
      </g>
     </g>
    </g>
    <g id="xtick_4">
     <g id="line2d_4">
      <g>
       <use style="stroke:#000000;stroke-width:0.8;" x="247.789063" xlink:href="#mfc0efdbf2c" y="307.584"/>
      </g>
     </g>
     <g id="text_4">
      <!-- 600000 -->
      <defs>
       <path d="M 33.015625 40.375 
Q 26.375 40.375 22.484375 35.828125 
Q 18.609375 31.296875 18.609375 23.390625 
Q 18.609375 15.53125 22.484375 10.953125 
Q 26.375 6.390625 33.015625 6.390625 
Q 39.65625 6.390625 43.53125 10.953125 
Q 47.40625 15.53125 47.40625 23.390625 
Q 47.40625 31.296875 43.53125 35.828125 
Q 39.65625 40.375 33.015625 40.375 
z
M 52.59375 71.296875 
L 52.59375 62.3125 
Q 48.875 64.0625 45.09375 64.984375 
Q 41.3125 65.921875 37.59375 65.921875 
Q 27.828125 65.921875 22.671875 59.328125 
Q 17.53125 52.734375 16.796875 39.40625 
Q 19.671875 43.65625 24.015625 45.921875 
Q 28.375 48.1875 33.59375 48.1875 
Q 44.578125 48.1875 50.953125 41.515625 
Q 57.328125 34.859375 57.328125 23.390625 
Q 57.328125 12.15625 50.6875 5.359375 
Q 44.046875 -1.421875 33.015625 -1.421875 
Q 20.359375 -1.421875 13.671875 8.265625 
Q 6.984375 17.96875 6.984375 36.375 
Q 6.984375 53.65625 15.1875 63.9375 
Q 23.390625 74.21875 37.203125 74.21875 
Q 40.921875 74.21875 44.703125 73.484375 
Q 48.484375 72.75 52.59375 71.296875 
z
" id="DejaVuSans-54"/>
      </defs>
      <g transform="translate(228.701563 322.182437)scale(0.1 -0.1)">
       <use xlink:href="#DejaVuSans-54"/>
       <use x="63.623047" xlink:href="#DejaVuSans-48"/>
       <use x="127.246094" xlink:href="#DejaVuSans-48"/>
       <use x="190.869141" xlink:href="#DejaVuSans-48"/>
       <use x="254.492188" xlink:href="#DejaVuSans-48"/>
       <use x="318.115234" xlink:href="#DejaVuSans-48"/>
      </g>
     </g>
    </g>
    <g id="xtick_5">
     <g id="line2d_5">
      <g>
       <use style="stroke:#000000;stroke-width:0.8;" x="300.530972" xlink:href="#mfc0efdbf2c" y="307.584"/>
      </g>
     </g>
     <g id="text_5">
      <!-- 800000 -->
      <defs>
       <path d="M 31.78125 34.625 
Q 24.75 34.625 20.71875 30.859375 
Q 16.703125 27.09375 16.703125 20.515625 
Q 16.703125 13.921875 20.71875 10.15625 
Q 24.75 6.390625 31.78125 6.390625 
Q 38.8125 6.390625 42.859375 10.171875 
Q 46.921875 13.96875 46.921875 20.515625 
Q 46.921875 27.09375 42.890625 30.859375 
Q 38.875 34.625 31.78125 34.625 
z
M 21.921875 38.8125 
Q 15.578125 40.375 12.03125 44.71875 
Q 8.5 49.078125 8.5 55.328125 
Q 8.5 64.0625 14.71875 69.140625 
Q 20.953125 74.21875 31.78125 74.21875 
Q 42.671875 74.21875 48.875 69.140625 
Q 55.078125 64.0625 55.078125 55.328125 
Q 55.078125 49.078125 51.53125 44.71875 
Q 48 40.375 41.703125 38.8125 
Q 48.828125 37.15625 52.796875 32.3125 
Q 56.78125 27.484375 56.78125 20.515625 
Q 56.78125 9.90625 50.3125 4.234375 
Q 43.84375 -1.421875 31.78125 -1.421875 
Q 19.734375 -1.421875 13.25 4.234375 
Q 6.78125 9.90625 6.78125 20.515625 
Q 6.78125 27.484375 10.78125 32.3125 
Q 14.796875 37.15625 21.921875 38.8125 
z
M 18.3125 54.390625 
Q 18.3125 48.734375 21.84375 45.5625 
Q 25.390625 42.390625 31.78125 42.390625 
Q 38.140625 42.390625 41.71875 45.5625 
Q 45.3125 48.734375 45.3125 54.390625 
Q 45.3125 60.0625 41.71875 63.234375 
Q 38.140625 66.40625 31.78125 66.40625 
Q 25.390625 66.40625 21.84375 63.234375 
Q 18.3125 60.0625 18.3125 54.390625 
z
" id="DejaVuSans-56"/>
      </defs>
      <g transform="translate(281.443472 322.182437)scale(0.1 -0.1)">
       <use xlink:href="#DejaVuSans-56"/>
       <use x="63.623047" xlink:href="#DejaVuSans-48"/>
       <use x="127.246094" xlink:href="#DejaVuSans-48"/>
       <use x="190.869141" xlink:href="#DejaVuSans-48"/>
       <use x="254.492188" xlink:href="#DejaVuSans-48"/>
       <use x="318.115234" xlink:href="#DejaVuSans-48"/>
      </g>
     </g>
    </g>
    <g id="xtick_6">
     <g id="line2d_6">
      <g>
       <use style="stroke:#000000;stroke-width:0.8;" x="353.272881" xlink:href="#mfc0efdbf2c" y="307.584"/>
      </g>
     </g>
     <g id="text_6">
      <!-- 1000000 -->
      <defs>
       <path d="M 12.40625 8.296875 
L 28.515625 8.296875 
L 28.515625 63.921875 
L 10.984375 60.40625 
L 10.984375 69.390625 
L 28.421875 72.90625 
L 38.28125 72.90625 
L 38.28125 8.296875 
L 54.390625 8.296875 
L 54.390625 0 
L 12.40625 0 
z
" id="DejaVuSans-49"/>
      </defs>
      <g transform="translate(331.004131 322.182437)scale(0.1 -0.1)">
       <use xlink:href="#DejaVuSans-49"/>
       <use x="63.623047" xlink:href="#DejaVuSans-48"/>
       <use x="127.246094" xlink:href="#DejaVuSans-48"/>
       <use x="190.869141" xlink:href="#DejaVuSans-48"/>
       <use x="254.492188" xlink:href="#DejaVuSans-48"/>
       <use x="318.115234" xlink:href="#DejaVuSans-48"/>
       <use x="381.738281" xlink:href="#DejaVuSans-48"/>
      </g>
     </g>
    </g>
    <g id="xtick_7">
     <g id="line2d_7">
      <g>
       <use style="stroke:#000000;stroke-width:0.8;" x="406.01479" xlink:href="#mfc0efdbf2c" y="307.584"/>
      </g>
     </g>
     <g id="text_7">
      <!-- 1200000 -->
      <g transform="translate(383.74604 322.182437)scale(0.1 -0.1)">
       <use xlink:href="#DejaVuSans-49"/>
       <use x="63.623047" xlink:href="#DejaVuSans-50"/>
       <use x="127.246094" xlink:href="#DejaVuSans-48"/>
       <use x="190.869141" xlink:href="#DejaVuSans-48"/>
       <use x="254.492188" xlink:href="#DejaVuSans-48"/>
       <use x="318.115234" xlink:href="#DejaVuSans-48"/>
       <use x="381.738281" xlink:href="#DejaVuSans-48"/>
      </g>
     </g>
    </g>
   </g>
   <g id="matplotlib.axis_2">
    <g id="ytick_1">
     <g id="line2d_8">
      <defs>
       <path d="M 0 0 
L -3.5 0 
" id="me4b8420d51" style="stroke:#000000;stroke-width:0.8;"/>
      </defs>
      <g>
       <use style="stroke:#000000;stroke-width:0.8;" x="57.6" xlink:href="#me4b8420d51" y="307.584"/>
      </g>
     </g>
     <g id="text_8">
      <!-- 0.000000 -->
      <defs>
       <path d="M 10.6875 12.40625 
L 21 12.40625 
L 21 0 
L 10.6875 0 
z
" id="DejaVuSans-46"/>
      </defs>
      <g transform="translate(2.884375 311.383219)scale(0.1 -0.1)">
       <use xlink:href="#DejaVuSans-48"/>
       <use x="63.623047" xlink:href="#DejaVuSans-46"/>
       <use x="95.410156" xlink:href="#DejaVuSans-48"/>
       <use x="159.033203" xlink:href="#DejaVuSans-48"/>
       <use x="222.65625" xlink:href="#DejaVuSans-48"/>
       <use x="286.279297" xlink:href="#DejaVuSans-48"/>
       <use x="349.902344" xlink:href="#DejaVuSans-48"/>
       <use x="413.525391" xlink:href="#DejaVuSans-48"/>
      </g>
     </g>
    </g>
    <g id="ytick_2">
     <g id="line2d_9">
      <g>
       <use style="stroke:#000000;stroke-width:0.8;" x="57.6" xlink:href="#me4b8420d51" y="275.709774"/>
      </g>
     </g>
     <g id="text_9">
      <!-- 0.000002 -->
      <g transform="translate(2.884375 279.508992)scale(0.1 -0.1)">
       <use xlink:href="#DejaVuSans-48"/>
       <use x="63.623047" xlink:href="#DejaVuSans-46"/>
       <use x="95.410156" xlink:href="#DejaVuSans-48"/>
       <use x="159.033203" xlink:href="#DejaVuSans-48"/>
       <use x="222.65625" xlink:href="#DejaVuSans-48"/>
       <use x="286.279297" xlink:href="#DejaVuSans-48"/>
       <use x="349.902344" xlink:href="#DejaVuSans-48"/>
       <use x="413.525391" xlink:href="#DejaVuSans-50"/>
      </g>
     </g>
    </g>
    <g id="ytick_3">
     <g id="line2d_10">
      <g>
       <use style="stroke:#000000;stroke-width:0.8;" x="57.6" xlink:href="#me4b8420d51" y="243.835547"/>
      </g>
     </g>
     <g id="text_10">
      <!-- 0.000004 -->
      <g transform="translate(2.884375 247.634766)scale(0.1 -0.1)">
       <use xlink:href="#DejaVuSans-48"/>
       <use x="63.623047" xlink:href="#DejaVuSans-46"/>
       <use x="95.410156" xlink:href="#DejaVuSans-48"/>
       <use x="159.033203" xlink:href="#DejaVuSans-48"/>
       <use x="222.65625" xlink:href="#DejaVuSans-48"/>
       <use x="286.279297" xlink:href="#DejaVuSans-48"/>
       <use x="349.902344" xlink:href="#DejaVuSans-48"/>
       <use x="413.525391" xlink:href="#DejaVuSans-52"/>
      </g>
     </g>
    </g>
    <g id="ytick_4">
     <g id="line2d_11">
      <g>
       <use style="stroke:#000000;stroke-width:0.8;" x="57.6" xlink:href="#me4b8420d51" y="211.961321"/>
      </g>
     </g>
     <g id="text_11">
      <!-- 0.000006 -->
      <g transform="translate(2.884375 215.76054)scale(0.1 -0.1)">
       <use xlink:href="#DejaVuSans-48"/>
       <use x="63.623047" xlink:href="#DejaVuSans-46"/>
       <use x="95.410156" xlink:href="#DejaVuSans-48"/>
       <use x="159.033203" xlink:href="#DejaVuSans-48"/>
       <use x="222.65625" xlink:href="#DejaVuSans-48"/>
       <use x="286.279297" xlink:href="#DejaVuSans-48"/>
       <use x="349.902344" xlink:href="#DejaVuSans-48"/>
       <use x="413.525391" xlink:href="#DejaVuSans-54"/>
      </g>
     </g>
    </g>
    <g id="ytick_5">
     <g id="line2d_12">
      <g>
       <use style="stroke:#000000;stroke-width:0.8;" x="57.6" xlink:href="#me4b8420d51" y="180.087095"/>
      </g>
     </g>
     <g id="text_12">
      <!-- 0.000008 -->
      <g transform="translate(2.884375 183.886313)scale(0.1 -0.1)">
       <use xlink:href="#DejaVuSans-48"/>
       <use x="63.623047" xlink:href="#DejaVuSans-46"/>
       <use x="95.410156" xlink:href="#DejaVuSans-48"/>
       <use x="159.033203" xlink:href="#DejaVuSans-48"/>
       <use x="222.65625" xlink:href="#DejaVuSans-48"/>
       <use x="286.279297" xlink:href="#DejaVuSans-48"/>
       <use x="349.902344" xlink:href="#DejaVuSans-48"/>
       <use x="413.525391" xlink:href="#DejaVuSans-56"/>
      </g>
     </g>
    </g>
    <g id="ytick_6">
     <g id="line2d_13">
      <g>
       <use style="stroke:#000000;stroke-width:0.8;" x="57.6" xlink:href="#me4b8420d51" y="148.212868"/>
      </g>
     </g>
     <g id="text_13">
      <!-- 0.000010 -->
      <g transform="translate(2.884375 152.012087)scale(0.1 -0.1)">
       <use xlink:href="#DejaVuSans-48"/>
       <use x="63.623047" xlink:href="#DejaVuSans-46"/>
       <use x="95.410156" xlink:href="#DejaVuSans-48"/>
       <use x="159.033203" xlink:href="#DejaVuSans-48"/>
       <use x="222.65625" xlink:href="#DejaVuSans-48"/>
       <use x="286.279297" xlink:href="#DejaVuSans-48"/>
       <use x="349.902344" xlink:href="#DejaVuSans-49"/>
       <use x="413.525391" xlink:href="#DejaVuSans-48"/>
      </g>
     </g>
    </g>
    <g id="ytick_7">
     <g id="line2d_14">
      <g>
       <use style="stroke:#000000;stroke-width:0.8;" x="57.6" xlink:href="#me4b8420d51" y="116.338642"/>
      </g>
     </g>
     <g id="text_14">
      <!-- 0.000012 -->
      <g transform="translate(2.884375 120.137861)scale(0.1 -0.1)">
       <use xlink:href="#DejaVuSans-48"/>
       <use x="63.623047" xlink:href="#DejaVuSans-46"/>
       <use x="95.410156" xlink:href="#DejaVuSans-48"/>
       <use x="159.033203" xlink:href="#DejaVuSans-48"/>
       <use x="222.65625" xlink:href="#DejaVuSans-48"/>
       <use x="286.279297" xlink:href="#DejaVuSans-48"/>
       <use x="349.902344" xlink:href="#DejaVuSans-49"/>
       <use x="413.525391" xlink:href="#DejaVuSans-50"/>
      </g>
     </g>
    </g>
    <g id="ytick_8">
     <g id="line2d_15">
      <g>
       <use style="stroke:#000000;stroke-width:0.8;" x="57.6" xlink:href="#me4b8420d51" y="84.464415"/>
      </g>
     </g>
     <g id="text_15">
      <!-- 0.000014 -->
      <g transform="translate(2.884375 88.263634)scale(0.1 -0.1)">
       <use xlink:href="#DejaVuSans-48"/>
       <use x="63.623047" xlink:href="#DejaVuSans-46"/>
       <use x="95.410156" xlink:href="#DejaVuSans-48"/>
       <use x="159.033203" xlink:href="#DejaVuSans-48"/>
       <use x="222.65625" xlink:href="#DejaVuSans-48"/>
       <use x="286.279297" xlink:href="#DejaVuSans-48"/>
       <use x="349.902344" xlink:href="#DejaVuSans-49"/>
       <use x="413.525391" xlink:href="#DejaVuSans-52"/>
      </g>
     </g>
    </g>
    <g id="ytick_9">
     <g id="line2d_16">
      <g>
       <use style="stroke:#000000;stroke-width:0.8;" x="57.6" xlink:href="#me4b8420d51" y="52.590189"/>
      </g>
     </g>
     <g id="text_16">
      <!-- 0.000016 -->
      <g transform="translate(2.884375 56.389408)scale(0.1 -0.1)">
       <use xlink:href="#DejaVuSans-48"/>
       <use x="63.623047" xlink:href="#DejaVuSans-46"/>
       <use x="95.410156" xlink:href="#DejaVuSans-48"/>
       <use x="159.033203" xlink:href="#DejaVuSans-48"/>
       <use x="222.65625" xlink:href="#DejaVuSans-48"/>
       <use x="286.279297" xlink:href="#DejaVuSans-48"/>
       <use x="349.902344" xlink:href="#DejaVuSans-49"/>
       <use x="413.525391" xlink:href="#DejaVuSans-54"/>
      </g>
     </g>
    </g>
   </g>
   <g id="line2d_17">
    <path clip-path="url(#pd246a218e0)" d="M 73.832727 307.451251 
L 77.112066 307.10672 
L 80.391405 306.10572 
L 83.670744 303.622913 
L 86.950083 298.352049 
L 90.229421 288.74469 
L 93.50876 273.667639 
L 96.788099 253.292869 
L 100.067438 229.759222 
L 103.346777 207.134746 
L 106.626116 190.440803 
L 109.905455 183.880598 
L 113.184793 188.97062 
L 116.464132 203.710187 
L 119.743471 223.532032 
L 123.02281 243.508349 
L 126.302149 260.320222 
L 129.581488 272.866817 
L 132.860826 281.610882 
L 136.140165 287.550193 
L 139.419504 291.552854 
L 142.698843 294.200509 
L 145.978182 295.895769 
L 149.257521 296.978617 
L 152.53686 297.755791 
L 155.816198 298.464965 
L 159.095537 299.228089 
L 162.374876 300.040895 
L 165.654215 300.819094 
L 168.933554 301.476911 
L 172.212893 301.982856 
L 175.492231 302.359428 
L 178.77157 302.647643 
L 182.050909 302.879792 
L 185.330248 303.074358 
L 188.609587 303.235998 
L 191.888926 303.352088 
L 195.168264 303.398377 
L 198.447603 303.35885 
L 201.726942 303.242974 
L 205.006281 303.08541 
L 208.28562 302.934833 
L 211.564959 302.844132 
L 214.844298 302.859853 
L 218.123636 303.0048 
L 221.402975 303.263721 
L 224.682314 303.589409 
L 227.961653 303.928234 
L 231.240992 304.243316 
L 234.520331 304.51756 
L 237.799669 304.74084 
L 241.079008 304.89932 
L 244.358347 304.978903 
L 247.637686 304.978947 
L 250.917025 304.922433 
L 254.196364 304.852682 
L 257.475702 304.818932 
L 260.755041 304.859512 
L 264.03438 304.988487 
L 267.313719 305.189537 
L 270.593058 305.422782 
L 273.872397 305.645542 
L 277.151736 305.8344 
L 280.431074 305.990726 
L 283.710413 306.126539 
L 286.989752 306.247092 
L 290.269091 306.347579 
L 293.54843 306.423773 
L 296.827769 306.481302 
L 300.107107 306.532066 
L 303.386446 306.582579 
L 306.665785 306.628332 
L 309.945124 306.660635 
L 313.224463 306.678361 
L 316.503802 306.69265 
L 319.78314 306.720629 
L 323.062479 306.774329 
L 326.341818 306.853974 
L 329.621157 306.949557 
L 332.900496 307.047359 
L 336.179835 307.13562 
L 339.459174 307.206916 
L 342.738512 307.258192 
L 346.017851 307.289458 
L 349.29719 307.301638 
L 352.576529 307.295578 
L 355.855868 307.274208 
L 359.135207 307.245941 
L 362.414545 307.224516 
L 365.693884 307.223593 
L 368.973223 307.2501 
L 372.252562 307.301374 
L 375.531901 307.36722 
L 378.81124 307.434585 
L 382.090579 307.492319 
L 385.369917 307.534395 
L 388.649256 307.560539 
L 391.928595 307.574372 
L 395.207934 307.58059 
L 398.487273 307.582962 
" style="fill:none;stroke:#f48024;stroke-linecap:square;stroke-width:1.5;"/>
   </g>
   <g id="line2d_18">
    <path clip-path="url(#pd246a218e0)" d="M 74.747748 307.427783 
L 77.941661 307.033579 
L 81.135575 305.911907 
L 84.329489 303.185383 
L 87.523402 297.507816 
L 90.717316 287.344974 
L 93.91123 271.657509 
L 97.105143 250.763838 
L 100.299057 226.930915 
L 103.492971 204.278402 
L 106.686884 187.79954 
L 109.880798 181.623646 
L 113.074712 187.177812 
L 116.268625 202.373176 
L 119.462539 222.572652 
L 122.656453 242.815201 
L 125.850366 259.790097 
L 129.04428 272.4311 
L 132.238194 281.236599 
L 135.432107 287.220903 
L 138.626021 291.24574 
L 141.819935 293.876945 
L 145.013848 295.511134 
L 148.207762 296.501116 
L 151.401676 297.179679 
L 154.595589 297.814034 
L 157.789503 298.553046 
L 160.983417 299.409362 
L 164.17733 300.294177 
L 167.371244 301.091344 
L 170.565158 301.726298 
L 173.759071 302.189134 
L 176.952985 302.513686 
L 180.146899 302.746289 
L 183.340812 302.926509 
L 186.534726 303.076332 
L 189.72864 303.192524 
L 192.922553 303.250459 
L 196.116467 303.225611 
L 199.310381 303.120035 
L 202.504294 302.971888 
L 205.698208 302.839531 
L 208.892122 302.772836 
L 212.086035 302.792954 
L 215.279949 302.893625 
L 218.473863 303.060021 
L 221.667776 303.287178 
L 224.86169 303.580488 
L 228.055604 303.937465 
L 231.249517 304.328604 
L 234.443431 304.69741 
L 237.637345 304.982943 
L 240.831258 305.148393 
L 244.025172 305.194551 
L 247.219086 305.151421 
L 250.412999 305.06025 
L 253.606913 304.962195 
L 256.800827 304.895898 
L 259.99474 304.893312 
L 263.188654 304.968656 
L 266.382568 305.110478 
L 269.576481 305.288734 
L 272.770395 305.473504 
L 275.964309 305.649438 
L 279.158222 305.815199 
L 282.352136 305.972632 
L 285.54605 306.118707 
L 288.739963 306.247508 
L 291.933877 306.357548 
L 295.127791 306.454692 
L 298.321704 306.547193 
L 301.515618 306.638057 
L 304.709532 306.721562 
L 307.903445 306.786248 
L 311.097359 306.822747 
L 314.291273 306.832588 
L 317.485186 306.831907 
L 320.6791 306.844874 
L 323.873014 306.889375 
L 327.066927 306.965996 
L 330.260841 307.059593 
L 333.454755 307.1505 
L 336.648668 307.22396 
L 339.842582 307.271803 
L 343.036496 307.291017 
L 346.230409 307.284968 
L 349.424323 307.265146 
L 352.618237 307.248041 
L 355.81215 307.247631 
L 359.006064 307.269639 
L 362.199978 307.311403 
L 365.393891 307.365439 
L 368.587805 307.422947 
L 371.781719 307.475955 
L 374.975633 307.518758 
L 378.169546 307.548945 
L 381.36346 307.567412 
L 384.557374 307.577146 
L 387.751287 307.581544 
L 390.945201 307.58324 
" style="fill:none;stroke:#008000;stroke-linecap:square;stroke-width:1.5;"/>
   </g>
   <g id="patch_203">
    <path d="M 57.6 307.584 
L 57.6 41.472 
" style="fill:none;stroke:#000000;stroke-linecap:square;stroke-linejoin:miter;stroke-width:0.8;"/>
   </g>
   <g id="patch_204">
    <path d="M 414.72 307.584 
L 414.72 41.472 
" style="fill:none;stroke:#000000;stroke-linecap:square;stroke-linejoin:miter;stroke-width:0.8;"/>
   </g>
   <g id="patch_205">
    <path d="M 57.6 307.584 
L 414.72 307.584 
" style="fill:none;stroke:#000000;stroke-linecap:square;stroke-linejoin:miter;stroke-width:0.8;"/>
   </g>
   <g id="patch_206">
    <path d="M 57.6 41.472 
L 414.72 41.472 
" style="fill:none;stroke:#000000;stroke-linecap:square;stroke-linejoin:miter;stroke-width:0.8;"/>
   </g>
   <g id="text_17">
    <!-- {'mae': 9925.588, 'smape': 0.049, 'jsd': 0.058} -->
    <defs>
     <path d="M 51.125 -9.28125 
L 51.125 -16.3125 
L 48.09375 -16.3125 
Q 35.9375 -16.3125 31.8125 -12.6875 
Q 27.6875 -9.078125 27.6875 1.703125 
L 27.6875 13.375 
Q 27.6875 20.75 25.046875 23.578125 
Q 22.40625 26.421875 15.484375 26.421875 
L 12.5 26.421875 
L 12.5 33.40625 
L 15.484375 33.40625 
Q 22.46875 33.40625 25.078125 36.203125 
Q 27.6875 39.015625 27.6875 46.296875 
L 27.6875 58.015625 
Q 27.6875 68.796875 31.8125 72.390625 
Q 35.9375 75.984375 48.09375 75.984375 
L 51.125 75.984375 
L 51.125 69 
L 47.796875 69 
Q 40.921875 69 38.8125 66.84375 
Q 36.71875 64.703125 36.71875 57.8125 
L 36.71875 45.703125 
Q 36.71875 38.03125 34.5 34.5625 
Q 32.28125 31.109375 26.90625 29.890625 
Q 32.328125 28.5625 34.515625 25.09375 
Q 36.71875 21.625 36.71875 14.015625 
L 36.71875 1.90625 
Q 36.71875 -4.984375 38.8125 -7.125 
Q 40.921875 -9.28125 47.796875 -9.28125 
z
" id="DejaVuSans-123"/>
     <path d="M 17.921875 72.90625 
L 17.921875 45.796875 
L 9.625 45.796875 
L 9.625 72.90625 
z
" id="DejaVuSans-39"/>
     <path d="M 52 44.1875 
Q 55.375 50.25 60.0625 53.125 
Q 64.75 56 71.09375 56 
Q 79.640625 56 84.28125 50.015625 
Q 88.921875 44.046875 88.921875 33.015625 
L 88.921875 0 
L 79.890625 0 
L 79.890625 32.71875 
Q 79.890625 40.578125 77.09375 44.375 
Q 74.3125 48.1875 68.609375 48.1875 
Q 61.625 48.1875 57.5625 43.546875 
Q 53.515625 38.921875 53.515625 30.90625 
L 53.515625 0 
L 44.484375 0 
L 44.484375 32.71875 
Q 44.484375 40.625 41.703125 44.40625 
Q 38.921875 48.1875 33.109375 48.1875 
Q 26.21875 48.1875 22.15625 43.53125 
Q 18.109375 38.875 18.109375 30.90625 
L 18.109375 0 
L 9.078125 0 
L 9.078125 54.6875 
L 18.109375 54.6875 
L 18.109375 46.1875 
Q 21.1875 51.21875 25.484375 53.609375 
Q 29.78125 56 35.6875 56 
Q 41.65625 56 45.828125 52.96875 
Q 50 49.953125 52 44.1875 
z
" id="DejaVuSans-109"/>
     <path d="M 34.28125 27.484375 
Q 23.390625 27.484375 19.1875 25 
Q 14.984375 22.515625 14.984375 16.5 
Q 14.984375 11.71875 18.140625 8.90625 
Q 21.296875 6.109375 26.703125 6.109375 
Q 34.1875 6.109375 38.703125 11.40625 
Q 43.21875 16.703125 43.21875 25.484375 
L 43.21875 27.484375 
z
M 52.203125 31.203125 
L 52.203125 0 
L 43.21875 0 
L 43.21875 8.296875 
Q 40.140625 3.328125 35.546875 0.953125 
Q 30.953125 -1.421875 24.3125 -1.421875 
Q 15.921875 -1.421875 10.953125 3.296875 
Q 6 8.015625 6 15.921875 
Q 6 25.140625 12.171875 29.828125 
Q 18.359375 34.515625 30.609375 34.515625 
L 43.21875 34.515625 
L 43.21875 35.40625 
Q 43.21875 41.609375 39.140625 45 
Q 35.0625 48.390625 27.6875 48.390625 
Q 23 48.390625 18.546875 47.265625 
Q 14.109375 46.140625 10.015625 43.890625 
L 10.015625 52.203125 
Q 14.9375 54.109375 19.578125 55.046875 
Q 24.21875 56 28.609375 56 
Q 40.484375 56 46.34375 49.84375 
Q 52.203125 43.703125 52.203125 31.203125 
z
" id="DejaVuSans-97"/>
     <path d="M 56.203125 29.59375 
L 56.203125 25.203125 
L 14.890625 25.203125 
Q 15.484375 15.921875 20.484375 11.0625 
Q 25.484375 6.203125 34.421875 6.203125 
Q 39.59375 6.203125 44.453125 7.46875 
Q 49.3125 8.734375 54.109375 11.28125 
L 54.109375 2.78125 
Q 49.265625 0.734375 44.1875 -0.34375 
Q 39.109375 -1.421875 33.890625 -1.421875 
Q 20.796875 -1.421875 13.15625 6.1875 
Q 5.515625 13.8125 5.515625 26.8125 
Q 5.515625 40.234375 12.765625 48.109375 
Q 20.015625 56 32.328125 56 
Q 43.359375 56 49.78125 48.890625 
Q 56.203125 41.796875 56.203125 29.59375 
z
M 47.21875 32.234375 
Q 47.125 39.59375 43.09375 43.984375 
Q 39.0625 48.390625 32.421875 48.390625 
Q 24.90625 48.390625 20.390625 44.140625 
Q 15.875 39.890625 15.1875 32.171875 
z
" id="DejaVuSans-101"/>
     <path d="M 11.71875 12.40625 
L 22.015625 12.40625 
L 22.015625 0 
L 11.71875 0 
z
M 11.71875 51.703125 
L 22.015625 51.703125 
L 22.015625 39.3125 
L 11.71875 39.3125 
z
" id="DejaVuSans-58"/>
     <path id="DejaVuSans-32"/>
     <path d="M 10.984375 1.515625 
L 10.984375 10.5 
Q 14.703125 8.734375 18.5 7.8125 
Q 22.3125 6.890625 25.984375 6.890625 
Q 35.75 6.890625 40.890625 13.453125 
Q 46.046875 20.015625 46.78125 33.40625 
Q 43.953125 29.203125 39.59375 26.953125 
Q 35.25 24.703125 29.984375 24.703125 
Q 19.046875 24.703125 12.671875 31.3125 
Q 6.296875 37.9375 6.296875 49.421875 
Q 6.296875 60.640625 12.9375 67.421875 
Q 19.578125 74.21875 30.609375 74.21875 
Q 43.265625 74.21875 49.921875 64.515625 
Q 56.59375 54.828125 56.59375 36.375 
Q 56.59375 19.140625 48.40625 8.859375 
Q 40.234375 -1.421875 26.421875 -1.421875 
Q 22.703125 -1.421875 18.890625 -0.6875 
Q 15.09375 0.046875 10.984375 1.515625 
z
M 30.609375 32.421875 
Q 37.25 32.421875 41.125 36.953125 
Q 45.015625 41.5 45.015625 49.421875 
Q 45.015625 57.28125 41.125 61.84375 
Q 37.25 66.40625 30.609375 66.40625 
Q 23.96875 66.40625 20.09375 61.84375 
Q 16.21875 57.28125 16.21875 49.421875 
Q 16.21875 41.5 20.09375 36.953125 
Q 23.96875 32.421875 30.609375 32.421875 
z
" id="DejaVuSans-57"/>
     <path d="M 10.796875 72.90625 
L 49.515625 72.90625 
L 49.515625 64.59375 
L 19.828125 64.59375 
L 19.828125 46.734375 
Q 21.96875 47.46875 24.109375 47.828125 
Q 26.265625 48.1875 28.421875 48.1875 
Q 40.625 48.1875 47.75 41.5 
Q 54.890625 34.8125 54.890625 23.390625 
Q 54.890625 11.625 47.5625 5.09375 
Q 40.234375 -1.421875 26.90625 -1.421875 
Q 22.3125 -1.421875 17.546875 -0.640625 
Q 12.796875 0.140625 7.71875 1.703125 
L 7.71875 11.625 
Q 12.109375 9.234375 16.796875 8.0625 
Q 21.484375 6.890625 26.703125 6.890625 
Q 35.15625 6.890625 40.078125 11.328125 
Q 45.015625 15.765625 45.015625 23.390625 
Q 45.015625 31 40.078125 35.4375 
Q 35.15625 39.890625 26.703125 39.890625 
Q 22.75 39.890625 18.8125 39.015625 
Q 14.890625 38.140625 10.796875 36.28125 
z
" id="DejaVuSans-53"/>
     <path d="M 11.71875 12.40625 
L 22.015625 12.40625 
L 22.015625 4 
L 14.015625 -11.625 
L 7.71875 -11.625 
L 11.71875 4 
z
" id="DejaVuSans-44"/>
     <path d="M 44.28125 53.078125 
L 44.28125 44.578125 
Q 40.484375 46.53125 36.375 47.5 
Q 32.28125 48.484375 27.875 48.484375 
Q 21.1875 48.484375 17.84375 46.4375 
Q 14.5 44.390625 14.5 40.28125 
Q 14.5 37.15625 16.890625 35.375 
Q 19.28125 33.59375 26.515625 31.984375 
L 29.59375 31.296875 
Q 39.15625 29.25 43.1875 25.515625 
Q 47.21875 21.78125 47.21875 15.09375 
Q 47.21875 7.46875 41.1875 3.015625 
Q 35.15625 -1.421875 24.609375 -1.421875 
Q 20.21875 -1.421875 15.453125 -0.5625 
Q 10.6875 0.296875 5.421875 2 
L 5.421875 11.28125 
Q 10.40625 8.6875 15.234375 7.390625 
Q 20.0625 6.109375 24.8125 6.109375 
Q 31.15625 6.109375 34.5625 8.28125 
Q 37.984375 10.453125 37.984375 14.40625 
Q 37.984375 18.0625 35.515625 20.015625 
Q 33.0625 21.96875 24.703125 23.78125 
L 21.578125 24.515625 
Q 13.234375 26.265625 9.515625 29.90625 
Q 5.8125 33.546875 5.8125 39.890625 
Q 5.8125 47.609375 11.28125 51.796875 
Q 16.75 56 26.8125 56 
Q 31.78125 56 36.171875 55.265625 
Q 40.578125 54.546875 44.28125 53.078125 
z
" id="DejaVuSans-115"/>
     <path d="M 18.109375 8.203125 
L 18.109375 -20.796875 
L 9.078125 -20.796875 
L 9.078125 54.6875 
L 18.109375 54.6875 
L 18.109375 46.390625 
Q 20.953125 51.265625 25.265625 53.625 
Q 29.59375 56 35.59375 56 
Q 45.5625 56 51.78125 48.09375 
Q 58.015625 40.1875 58.015625 27.296875 
Q 58.015625 14.40625 51.78125 6.484375 
Q 45.5625 -1.421875 35.59375 -1.421875 
Q 29.59375 -1.421875 25.265625 0.953125 
Q 20.953125 3.328125 18.109375 8.203125 
z
M 48.6875 27.296875 
Q 48.6875 37.203125 44.609375 42.84375 
Q 40.53125 48.484375 33.40625 48.484375 
Q 26.265625 48.484375 22.1875 42.84375 
Q 18.109375 37.203125 18.109375 27.296875 
Q 18.109375 17.390625 22.1875 11.75 
Q 26.265625 6.109375 33.40625 6.109375 
Q 40.53125 6.109375 44.609375 11.75 
Q 48.6875 17.390625 48.6875 27.296875 
z
" id="DejaVuSans-112"/>
     <path d="M 9.421875 54.6875 
L 18.40625 54.6875 
L 18.40625 -0.984375 
Q 18.40625 -11.421875 14.421875 -16.109375 
Q 10.453125 -20.796875 1.609375 -20.796875 
L -1.8125 -20.796875 
L -1.8125 -13.1875 
L 0.59375 -13.1875 
Q 5.71875 -13.1875 7.5625 -10.8125 
Q 9.421875 -8.453125 9.421875 -0.984375 
z
M 9.421875 75.984375 
L 18.40625 75.984375 
L 18.40625 64.59375 
L 9.421875 64.59375 
z
" id="DejaVuSans-106"/>
     <path d="M 45.40625 46.390625 
L 45.40625 75.984375 
L 54.390625 75.984375 
L 54.390625 0 
L 45.40625 0 
L 45.40625 8.203125 
Q 42.578125 3.328125 38.25 0.953125 
Q 33.9375 -1.421875 27.875 -1.421875 
Q 17.96875 -1.421875 11.734375 6.484375 
Q 5.515625 14.40625 5.515625 27.296875 
Q 5.515625 40.1875 11.734375 48.09375 
Q 17.96875 56 27.875 56 
Q 33.9375 56 38.25 53.625 
Q 42.578125 51.265625 45.40625 46.390625 
z
M 14.796875 27.296875 
Q 14.796875 17.390625 18.875 11.75 
Q 22.953125 6.109375 30.078125 6.109375 
Q 37.203125 6.109375 41.296875 11.75 
Q 45.40625 17.390625 45.40625 27.296875 
Q 45.40625 37.203125 41.296875 42.84375 
Q 37.203125 48.484375 30.078125 48.484375 
Q 22.953125 48.484375 18.875 42.84375 
Q 14.796875 37.203125 14.796875 27.296875 
z
" id="DejaVuSans-100"/>
     <path d="M 12.5 -9.28125 
L 15.921875 -9.28125 
Q 22.75 -9.28125 24.828125 -7.171875 
Q 26.90625 -5.078125 26.90625 1.90625 
L 26.90625 14.015625 
Q 26.90625 21.625 29.09375 25.09375 
Q 31.296875 28.5625 36.71875 29.890625 
Q 31.296875 31.109375 29.09375 34.5625 
Q 26.90625 38.03125 26.90625 45.703125 
L 26.90625 57.8125 
Q 26.90625 64.75 24.828125 66.875 
Q 22.75 69 15.921875 69 
L 12.5 69 
L 12.5 75.984375 
L 15.578125 75.984375 
Q 27.734375 75.984375 31.8125 72.390625 
Q 35.890625 68.796875 35.890625 58.015625 
L 35.890625 46.296875 
Q 35.890625 39.015625 38.515625 36.203125 
Q 41.15625 33.40625 48.09375 33.40625 
L 51.125 33.40625 
L 51.125 26.421875 
L 48.09375 26.421875 
Q 41.15625 26.421875 38.515625 23.578125 
Q 35.890625 20.75 35.890625 13.375 
L 35.890625 1.703125 
Q 35.890625 -9.078125 31.8125 -12.6875 
Q 27.734375 -16.3125 15.578125 -16.3125 
L 12.5 -16.3125 
z
" id="DejaVuSans-125"/>
    </defs>
    <g transform="translate(94.273125 35.472)scale(0.12 -0.12)">
     <use xlink:href="#DejaVuSans-123"/>
     <use x="63.623047" xlink:href="#DejaVuSans-39"/>
     <use x="91.113281" xlink:href="#DejaVuSans-109"/>
     <use x="188.525391" xlink:href="#DejaVuSans-97"/>
     <use x="249.804688" xlink:href="#DejaVuSans-101"/>
     <use x="311.328125" xlink:href="#DejaVuSans-39"/>
     <use x="338.818359" xlink:href="#DejaVuSans-58"/>
     <use x="372.509766" xlink:href="#DejaVuSans-32"/>
     <use x="404.296875" xlink:href="#DejaVuSans-57"/>
     <use x="467.919922" xlink:href="#DejaVuSans-57"/>
     <use x="531.542969" xlink:href="#DejaVuSans-50"/>
     <use x="595.166016" xlink:href="#DejaVuSans-53"/>
     <use x="658.789062" xlink:href="#DejaVuSans-46"/>
     <use x="690.576172" xlink:href="#DejaVuSans-53"/>
     <use x="754.199219" xlink:href="#DejaVuSans-56"/>
     <use x="817.822266" xlink:href="#DejaVuSans-56"/>
     <use x="881.445312" xlink:href="#DejaVuSans-44"/>
     <use x="913.232422" xlink:href="#DejaVuSans-32"/>
     <use x="945.019531" xlink:href="#DejaVuSans-39"/>
     <use x="972.509766" xlink:href="#DejaVuSans-115"/>
     <use x="1024.609375" xlink:href="#DejaVuSans-109"/>
     <use x="1122.021484" xlink:href="#DejaVuSans-97"/>
     <use x="1183.300781" xlink:href="#DejaVuSans-112"/>
     <use x="1246.777344" xlink:href="#DejaVuSans-101"/>
     <use x="1308.300781" xlink:href="#DejaVuSans-39"/>
     <use x="1335.791016" xlink:href="#DejaVuSans-58"/>
     <use x="1369.482422" xlink:href="#DejaVuSans-32"/>
     <use x="1401.269531" xlink:href="#DejaVuSans-48"/>
     <use x="1464.892578" xlink:href="#DejaVuSans-46"/>
     <use x="1496.679688" xlink:href="#DejaVuSans-48"/>
     <use x="1560.302734" xlink:href="#DejaVuSans-52"/>
     <use x="1623.925781" xlink:href="#DejaVuSans-57"/>
     <use x="1687.548828" xlink:href="#DejaVuSans-44"/>
     <use x="1719.335938" xlink:href="#DejaVuSans-32"/>
     <use x="1751.123047" xlink:href="#DejaVuSans-39"/>
     <use x="1778.613281" xlink:href="#DejaVuSans-106"/>
     <use x="1806.396484" xlink:href="#DejaVuSans-115"/>
     <use x="1858.496094" xlink:href="#DejaVuSans-100"/>
     <use x="1921.972656" xlink:href="#DejaVuSans-39"/>
     <use x="1949.462891" xlink:href="#DejaVuSans-58"/>
     <use x="1983.154297" xlink:href="#DejaVuSans-32"/>
     <use x="2014.941406" xlink:href="#DejaVuSans-48"/>
     <use x="2078.564453" xlink:href="#DejaVuSans-46"/>
     <use x="2110.351562" xlink:href="#DejaVuSans-48"/>
     <use x="2173.974609" xlink:href="#DejaVuSans-53"/>
     <use x="2237.597656" xlink:href="#DejaVuSans-56"/>
     <use x="2301.220703" xlink:href="#DejaVuSans-125"/>
    </g>
   </g>
   <g id="legend_1">
    <g id="patch_207">
     <path d="M 340.565313 78.82825 
L 407.72 78.82825 
Q 409.72 78.82825 409.72 76.82825 
L 409.72 48.472 
Q 409.72 46.472 407.72 46.472 
L 340.565313 46.472 
Q 338.565313 46.472 338.565313 48.472 
L 338.565313 76.82825 
Q 338.565313 78.82825 340.565313 78.82825 
z
" style="fill:#ffffff;opacity:0.8;stroke:#cccccc;stroke-linejoin:miter;"/>
    </g>
    <g id="patch_208">
     <path d="M 342.565313 58.070437 
L 362.565313 58.070437 
L 362.565313 51.070437 
L 342.565313 51.070437 
z
" style="fill:#f48024;opacity:0.4;"/>
    </g>
    <g id="text_18">
     <!-- actual -->
     <defs>
      <path d="M 48.78125 52.59375 
L 48.78125 44.1875 
Q 44.96875 46.296875 41.140625 47.34375 
Q 37.3125 48.390625 33.40625 48.390625 
Q 24.65625 48.390625 19.8125 42.84375 
Q 14.984375 37.3125 14.984375 27.296875 
Q 14.984375 17.28125 19.8125 11.734375 
Q 24.65625 6.203125 33.40625 6.203125 
Q 37.3125 6.203125 41.140625 7.25 
Q 44.96875 8.296875 48.78125 10.40625 
L 48.78125 2.09375 
Q 45.015625 0.34375 40.984375 -0.53125 
Q 36.96875 -1.421875 32.421875 -1.421875 
Q 20.0625 -1.421875 12.78125 6.34375 
Q 5.515625 14.109375 5.515625 27.296875 
Q 5.515625 40.671875 12.859375 48.328125 
Q 20.21875 56 33.015625 56 
Q 37.15625 56 41.109375 55.140625 
Q 45.0625 54.296875 48.78125 52.59375 
z
" id="DejaVuSans-99"/>
      <path d="M 18.3125 70.21875 
L 18.3125 54.6875 
L 36.8125 54.6875 
L 36.8125 47.703125 
L 18.3125 47.703125 
L 18.3125 18.015625 
Q 18.3125 11.328125 20.140625 9.421875 
Q 21.96875 7.515625 27.59375 7.515625 
L 36.8125 7.515625 
L 36.8125 0 
L 27.59375 0 
Q 17.1875 0 13.234375 3.875 
Q 9.28125 7.765625 9.28125 18.015625 
L 9.28125 47.703125 
L 2.6875 47.703125 
L 2.6875 54.6875 
L 9.28125 54.6875 
L 9.28125 70.21875 
z
" id="DejaVuSans-116"/>
      <path d="M 8.5 21.578125 
L 8.5 54.6875 
L 17.484375 54.6875 
L 17.484375 21.921875 
Q 17.484375 14.15625 20.5 10.265625 
Q 23.53125 6.390625 29.59375 6.390625 
Q 36.859375 6.390625 41.078125 11.03125 
Q 45.3125 15.671875 45.3125 23.6875 
L 45.3125 54.6875 
L 54.296875 54.6875 
L 54.296875 0 
L 45.3125 0 
L 45.3125 8.40625 
Q 42.046875 3.421875 37.71875 1 
Q 33.40625 -1.421875 27.6875 -1.421875 
Q 18.265625 -1.421875 13.375 4.4375 
Q 8.5 10.296875 8.5 21.578125 
z
M 31.109375 56 
z
" id="DejaVuSans-117"/>
      <path d="M 9.421875 75.984375 
L 18.40625 75.984375 
L 18.40625 0 
L 9.421875 0 
z
" id="DejaVuSans-108"/>
     </defs>
     <g transform="translate(370.565313 58.070437)scale(0.1 -0.1)">
      <use xlink:href="#DejaVuSans-97"/>
      <use x="61.279297" xlink:href="#DejaVuSans-99"/>
      <use x="116.259766" xlink:href="#DejaVuSans-116"/>
      <use x="155.46875" xlink:href="#DejaVuSans-117"/>
      <use x="218.847656" xlink:href="#DejaVuSans-97"/>
      <use x="280.126953" xlink:href="#DejaVuSans-108"/>
     </g>
    </g>
    <g id="patch_209">
     <path d="M 342.565313 72.748562 
L 362.565313 72.748562 
L 362.565313 65.748562 
L 342.565313 65.748562 
z
" style="fill:#008000;opacity:0.4;"/>
    </g>
    <g id="text_19">
     <!-- predict -->
     <defs>
      <path d="M 41.109375 46.296875 
Q 39.59375 47.171875 37.8125 47.578125 
Q 36.03125 48 33.890625 48 
Q 26.265625 48 22.1875 43.046875 
Q 18.109375 38.09375 18.109375 28.8125 
L 18.109375 0 
L 9.078125 0 
L 9.078125 54.6875 
L 18.109375 54.6875 
L 18.109375 46.1875 
Q 20.953125 51.171875 25.484375 53.578125 
Q 30.03125 56 36.53125 56 
Q 37.453125 56 38.578125 55.875 
Q 39.703125 55.765625 41.0625 55.515625 
z
" id="DejaVuSans-114"/>
      <path d="M 9.421875 54.6875 
L 18.40625 54.6875 
L 18.40625 0 
L 9.421875 0 
z
M 9.421875 75.984375 
L 18.40625 75.984375 
L 18.40625 64.59375 
L 9.421875 64.59375 
z
" id="DejaVuSans-105"/>
     </defs>
     <g transform="translate(370.565313 72.748562)scale(0.1 -0.1)">
      <use xlink:href="#DejaVuSans-112"/>
      <use x="63.476562" xlink:href="#DejaVuSans-114"/>
      <use x="104.558594" xlink:href="#DejaVuSans-101"/>
      <use x="166.082031" xlink:href="#DejaVuSans-100"/>
      <use x="229.558594" xlink:href="#DejaVuSans-105"/>
      <use x="257.341797" xlink:href="#DejaVuSans-99"/>
      <use x="312.322266" xlink:href="#DejaVuSans-116"/>
     </g>
    </g>
   </g>
  </g>
 </g>
 <defs>
  <clipPath id="pd246a218e0">
   <rect height="266.112" width="357.12" x="57.6" y="41.472"/>
  </clipPath>
 </defs>
</svg>
