<?xml version="1.0" encoding="utf-8" standalone="no"?>
<!DOCTYPE svg PUBLIC "-//W3C//DTD SVG 1.1//EN"
  "http://www.w3.org/Graphics/SVG/1.1/DTD/svg11.dtd">
<!-- Created with matplotlib (https://matplotlib.org/) -->
<svg height="345.6pt" version="1.1" viewBox="0 0 460.8 345.6" width="460.8pt" xmlns="http://www.w3.org/2000/svg" xmlns:xlink="http://www.w3.org/1999/xlink">
 <defs>
  <style type="text/css">
*{stroke-linecap:butt;stroke-linejoin:round;}
  </style>
 </defs>
 <g id="figure_1">
  <g id="patch_1">
   <path d="M 0 345.6 
L 460.8 345.6 
L 460.8 0 
L 0 0 
z
" style="fill:#ffffff;"/>
  </g>
  <g id="axes_1">
   <g id="patch_2">
    <path d="M 57.6 307.584 
L 414.72 307.584 
L 414.72 41.472 
L 57.6 41.472 
z
" style="fill:#ffffff;"/>
   </g>
   <g id="patch_3">
    <path clip-path="url(#pa35dd1d701)" d="M 89.745559 307.584 
L 92.673848 307.584 
L 92.673848 296.806688 
L 89.745559 296.806688 
z
" style="fill:#f48024;opacity:0.4;"/>
   </g>
   <g id="patch_4">
    <path clip-path="url(#pa35dd1d701)" d="M 92.673848 307.584 
L 95.602137 307.584 
L 95.602137 289.621814 
L 92.673848 289.621814 
z
" style="fill:#f48024;opacity:0.4;"/>
   </g>
   <g id="patch_5">
    <path clip-path="url(#pa35dd1d701)" d="M 95.602137 307.584 
L 98.530426 307.584 
L 98.530426 288.424335 
L 95.602137 288.424335 
z
" style="fill:#f48024;opacity:0.4;"/>
   </g>
   <g id="patch_6">
    <path clip-path="url(#pa35dd1d701)" d="M 98.530426 307.584 
L 101.458715 307.584 
L 101.458715 277.647023 
L 98.530426 277.647023 
z
" style="fill:#f48024;opacity:0.4;"/>
   </g>
   <g id="patch_7">
    <path clip-path="url(#pa35dd1d701)" d="M 101.458715 307.584 
L 104.387003 307.584 
L 104.387003 256.092399 
L 101.458715 256.092399 
z
" style="fill:#f48024;opacity:0.4;"/>
   </g>
   <g id="patch_8">
    <path clip-path="url(#pa35dd1d701)" d="M 104.387003 307.584 
L 107.315292 307.584 
L 107.315292 230.945338 
L 104.387003 230.945338 
z
" style="fill:#f48024;opacity:0.4;"/>
   </g>
   <g id="patch_9">
    <path clip-path="url(#pa35dd1d701)" d="M 107.315292 307.584 
L 110.243581 307.584 
L 110.243581 209.390715 
L 107.315292 209.390715 
z
" style="fill:#f48024;opacity:0.4;"/>
   </g>
   <g id="patch_10">
    <path clip-path="url(#pa35dd1d701)" d="M 110.243581 307.584 
L 113.17187 307.584 
L 113.17187 154.306677 
L 110.243581 154.306677 
z
" style="fill:#f48024;opacity:0.4;"/>
   </g>
   <g id="patch_11">
    <path clip-path="url(#pa35dd1d701)" d="M 113.17187 307.584 
L 116.100159 307.584 
L 116.100159 139.936928 
L 113.17187 139.936928 
z
" style="fill:#f48024;opacity:0.4;"/>
   </g>
   <g id="patch_12">
    <path clip-path="url(#pa35dd1d701)" d="M 116.100159 307.584 
L 119.028447 307.584 
L 119.028447 96.82768 
L 116.100159 96.82768 
z
" style="fill:#f48024;opacity:0.4;"/>
   </g>
   <g id="patch_13">
    <path clip-path="url(#pa35dd1d701)" d="M 119.028447 307.584 
L 121.956736 307.584 
L 121.956736 115.987346 
L 119.028447 115.987346 
z
" style="fill:#f48024;opacity:0.4;"/>
   </g>
   <g id="patch_14">
    <path clip-path="url(#pa35dd1d701)" d="M 121.956736 307.584 
L 124.885025 307.584 
L 124.885025 121.974741 
L 121.956736 121.974741 
z
" style="fill:#f48024;opacity:0.4;"/>
   </g>
   <g id="patch_15">
    <path clip-path="url(#pa35dd1d701)" d="M 124.885025 307.584 
L 127.813314 307.584 
L 127.813314 183.046175 
L 124.885025 183.046175 
z
" style="fill:#f48024;opacity:0.4;"/>
   </g>
   <g id="patch_16">
    <path clip-path="url(#pa35dd1d701)" d="M 127.813314 307.584 
L 130.741603 307.584 
L 130.741603 196.218445 
L 127.813314 196.218445 
z
" style="fill:#f48024;opacity:0.4;"/>
   </g>
   <g id="patch_17">
    <path clip-path="url(#pa35dd1d701)" d="M 130.741603 307.584 
L 133.669891 307.584 
L 133.669891 208.193236 
L 130.741603 208.193236 
z
" style="fill:#f48024;opacity:0.4;"/>
   </g>
   <g id="patch_18">
    <path clip-path="url(#pa35dd1d701)" d="M 133.669891 307.584 
L 136.59818 307.584 
L 136.59818 235.735255 
L 133.669891 235.735255 
z
" style="fill:#f48024;opacity:0.4;"/>
   </g>
   <g id="patch_19">
    <path clip-path="url(#pa35dd1d701)" d="M 136.59818 307.584 
L 139.526469 307.584 
L 139.526469 254.89492 
L 136.59818 254.89492 
z
" style="fill:#f48024;opacity:0.4;"/>
   </g>
   <g id="patch_20">
    <path clip-path="url(#pa35dd1d701)" d="M 139.526469 307.584 
L 142.454758 307.584 
L 142.454758 246.512566 
L 139.526469 246.512566 
z
" style="fill:#f48024;opacity:0.4;"/>
   </g>
   <g id="patch_21">
    <path clip-path="url(#pa35dd1d701)" d="M 142.454758 307.584 
L 145.383047 307.584 
L 145.383047 268.06719 
L 142.454758 268.06719 
z
" style="fill:#f48024;opacity:0.4;"/>
   </g>
   <g id="patch_22">
    <path clip-path="url(#pa35dd1d701)" d="M 145.383047 307.584 
L 148.311336 307.584 
L 148.311336 278.844502 
L 145.383047 278.844502 
z
" style="fill:#f48024;opacity:0.4;"/>
   </g>
   <g id="patch_23">
    <path clip-path="url(#pa35dd1d701)" d="M 148.311336 307.584 
L 151.239624 307.584 
L 151.239624 290.819293 
L 148.311336 290.819293 
z
" style="fill:#f48024;opacity:0.4;"/>
   </g>
   <g id="patch_24">
    <path clip-path="url(#pa35dd1d701)" d="M 151.239624 307.584 
L 154.167913 307.584 
L 154.167913 295.609209 
L 151.239624 295.609209 
z
" style="fill:#f48024;opacity:0.4;"/>
   </g>
   <g id="patch_25">
    <path clip-path="url(#pa35dd1d701)" d="M 154.167913 307.584 
L 157.096202 307.584 
L 157.096202 278.844502 
L 154.167913 278.844502 
z
" style="fill:#f48024;opacity:0.4;"/>
   </g>
   <g id="patch_26">
    <path clip-path="url(#pa35dd1d701)" d="M 157.096202 307.584 
L 160.024491 307.584 
L 160.024491 296.806688 
L 157.096202 296.806688 
z
" style="fill:#f48024;opacity:0.4;"/>
   </g>
   <g id="patch_27">
    <path clip-path="url(#pa35dd1d701)" d="M 160.024491 307.584 
L 162.95278 307.584 
L 162.95278 295.609209 
L 160.024491 295.609209 
z
" style="fill:#f48024;opacity:0.4;"/>
   </g>
   <g id="patch_28">
    <path clip-path="url(#pa35dd1d701)" d="M 162.95278 307.584 
L 165.881068 307.584 
L 165.881068 296.806688 
L 162.95278 296.806688 
z
" style="fill:#f48024;opacity:0.4;"/>
   </g>
   <g id="patch_29">
    <path clip-path="url(#pa35dd1d701)" d="M 165.881068 307.584 
L 168.809357 307.584 
L 168.809357 295.609209 
L 165.881068 295.609209 
z
" style="fill:#f48024;opacity:0.4;"/>
   </g>
   <g id="patch_30">
    <path clip-path="url(#pa35dd1d701)" d="M 168.809357 307.584 
L 171.737646 307.584 
L 171.737646 306.386521 
L 168.809357 306.386521 
z
" style="fill:#f48024;opacity:0.4;"/>
   </g>
   <g id="patch_31">
    <path clip-path="url(#pa35dd1d701)" d="M 171.737646 307.584 
L 174.665935 307.584 
L 174.665935 296.806688 
L 171.737646 296.806688 
z
" style="fill:#f48024;opacity:0.4;"/>
   </g>
   <g id="patch_32">
    <path clip-path="url(#pa35dd1d701)" d="M 174.665935 307.584 
L 177.594224 307.584 
L 177.594224 300.399125 
L 174.665935 300.399125 
z
" style="fill:#f48024;opacity:0.4;"/>
   </g>
   <g id="patch_33">
    <path clip-path="url(#pa35dd1d701)" d="M 177.594224 307.584 
L 180.522513 307.584 
L 180.522513 296.806688 
L 177.594224 296.806688 
z
" style="fill:#f48024;opacity:0.4;"/>
   </g>
   <g id="patch_34">
    <path clip-path="url(#pa35dd1d701)" d="M 180.522513 307.584 
L 183.450801 307.584 
L 183.450801 302.794084 
L 180.522513 302.794084 
z
" style="fill:#f48024;opacity:0.4;"/>
   </g>
   <g id="patch_35">
    <path clip-path="url(#pa35dd1d701)" d="M 183.450801 307.584 
L 186.37909 307.584 
L 186.37909 301.596605 
L 183.450801 301.596605 
z
" style="fill:#f48024;opacity:0.4;"/>
   </g>
   <g id="patch_36">
    <path clip-path="url(#pa35dd1d701)" d="M 186.37909 307.584 
L 189.307379 307.584 
L 189.307379 302.794084 
L 186.37909 302.794084 
z
" style="fill:#f48024;opacity:0.4;"/>
   </g>
   <g id="patch_37">
    <path clip-path="url(#pa35dd1d701)" d="M 189.307379 307.584 
L 192.235668 307.584 
L 192.235668 300.399125 
L 189.307379 300.399125 
z
" style="fill:#f48024;opacity:0.4;"/>
   </g>
   <g id="patch_38">
    <path clip-path="url(#pa35dd1d701)" d="M 192.235668 307.584 
L 195.163957 307.584 
L 195.163957 302.794084 
L 192.235668 302.794084 
z
" style="fill:#f48024;opacity:0.4;"/>
   </g>
   <g id="patch_39">
    <path clip-path="url(#pa35dd1d701)" d="M 195.163957 307.584 
L 198.092245 307.584 
L 198.092245 305.189042 
L 195.163957 305.189042 
z
" style="fill:#f48024;opacity:0.4;"/>
   </g>
   <g id="patch_40">
    <path clip-path="url(#pa35dd1d701)" d="M 198.092245 307.584 
L 201.020534 307.584 
L 201.020534 301.596605 
L 198.092245 301.596605 
z
" style="fill:#f48024;opacity:0.4;"/>
   </g>
   <g id="patch_41">
    <path clip-path="url(#pa35dd1d701)" d="M 201.020534 307.584 
L 203.948823 307.584 
L 203.948823 306.386521 
L 201.020534 306.386521 
z
" style="fill:#f48024;opacity:0.4;"/>
   </g>
   <g id="patch_42">
    <path clip-path="url(#pa35dd1d701)" d="M 203.948823 307.584 
L 206.877112 307.584 
L 206.877112 306.386521 
L 203.948823 306.386521 
z
" style="fill:#f48024;opacity:0.4;"/>
   </g>
   <g id="patch_43">
    <path clip-path="url(#pa35dd1d701)" d="M 206.877112 307.584 
L 209.805401 307.584 
L 209.805401 306.386521 
L 206.877112 306.386521 
z
" style="fill:#f48024;opacity:0.4;"/>
   </g>
   <g id="patch_44">
    <path clip-path="url(#pa35dd1d701)" d="M 209.805401 307.584 
L 212.733689 307.584 
L 212.733689 305.189042 
L 209.805401 305.189042 
z
" style="fill:#f48024;opacity:0.4;"/>
   </g>
   <g id="patch_45">
    <path clip-path="url(#pa35dd1d701)" d="M 212.733689 307.584 
L 215.661978 307.584 
L 215.661978 306.386521 
L 212.733689 306.386521 
z
" style="fill:#f48024;opacity:0.4;"/>
   </g>
   <g id="patch_46">
    <path clip-path="url(#pa35dd1d701)" d="M 215.661978 307.584 
L 218.590267 307.584 
L 218.590267 302.794084 
L 215.661978 302.794084 
z
" style="fill:#f48024;opacity:0.4;"/>
   </g>
   <g id="patch_47">
    <path clip-path="url(#pa35dd1d701)" d="M 218.590267 307.584 
L 221.518556 307.584 
L 221.518556 306.386521 
L 218.590267 306.386521 
z
" style="fill:#f48024;opacity:0.4;"/>
   </g>
   <g id="patch_48">
    <path clip-path="url(#pa35dd1d701)" d="M 221.518556 307.584 
L 224.446845 307.584 
L 224.446845 306.386521 
L 221.518556 306.386521 
z
" style="fill:#f48024;opacity:0.4;"/>
   </g>
   <g id="patch_49">
    <path clip-path="url(#pa35dd1d701)" d="M 224.446845 307.584 
L 227.375134 307.584 
L 227.375134 305.189042 
L 224.446845 305.189042 
z
" style="fill:#f48024;opacity:0.4;"/>
   </g>
   <g id="patch_50">
    <path clip-path="url(#pa35dd1d701)" d="M 227.375134 307.584 
L 230.303422 307.584 
L 230.303422 307.584 
L 227.375134 307.584 
z
" style="fill:#f48024;opacity:0.4;"/>
   </g>
   <g id="patch_51">
    <path clip-path="url(#pa35dd1d701)" d="M 230.303422 307.584 
L 233.231711 307.584 
L 233.231711 307.584 
L 230.303422 307.584 
z
" style="fill:#f48024;opacity:0.4;"/>
   </g>
   <g id="patch_52">
    <path clip-path="url(#pa35dd1d701)" d="M 233.231711 307.584 
L 236.16 307.584 
L 236.16 307.584 
L 233.231711 307.584 
z
" style="fill:#f48024;opacity:0.4;"/>
   </g>
   <g id="patch_53">
    <path clip-path="url(#pa35dd1d701)" d="M 236.16 307.584 
L 239.088289 307.584 
L 239.088289 307.584 
L 236.16 307.584 
z
" style="fill:#f48024;opacity:0.4;"/>
   </g>
   <g id="patch_54">
    <path clip-path="url(#pa35dd1d701)" d="M 239.088289 307.584 
L 242.016578 307.584 
L 242.016578 307.584 
L 239.088289 307.584 
z
" style="fill:#f48024;opacity:0.4;"/>
   </g>
   <g id="patch_55">
    <path clip-path="url(#pa35dd1d701)" d="M 242.016578 307.584 
L 244.944866 307.584 
L 244.944866 307.584 
L 242.016578 307.584 
z
" style="fill:#f48024;opacity:0.4;"/>
   </g>
   <g id="patch_56">
    <path clip-path="url(#pa35dd1d701)" d="M 244.944866 307.584 
L 247.873155 307.584 
L 247.873155 306.386521 
L 244.944866 306.386521 
z
" style="fill:#f48024;opacity:0.4;"/>
   </g>
   <g id="patch_57">
    <path clip-path="url(#pa35dd1d701)" d="M 247.873155 307.584 
L 250.801444 307.584 
L 250.801444 306.386521 
L 247.873155 306.386521 
z
" style="fill:#f48024;opacity:0.4;"/>
   </g>
   <g id="patch_58">
    <path clip-path="url(#pa35dd1d701)" d="M 250.801444 307.584 
L 253.729733 307.584 
L 253.729733 307.584 
L 250.801444 307.584 
z
" style="fill:#f48024;opacity:0.4;"/>
   </g>
   <g id="patch_59">
    <path clip-path="url(#pa35dd1d701)" d="M 253.729733 307.584 
L 256.658022 307.584 
L 256.658022 307.584 
L 253.729733 307.584 
z
" style="fill:#f48024;opacity:0.4;"/>
   </g>
   <g id="patch_60">
    <path clip-path="url(#pa35dd1d701)" d="M 256.658022 307.584 
L 259.586311 307.584 
L 259.586311 307.584 
L 256.658022 307.584 
z
" style="fill:#f48024;opacity:0.4;"/>
   </g>
   <g id="patch_61">
    <path clip-path="url(#pa35dd1d701)" d="M 259.586311 307.584 
L 262.514599 307.584 
L 262.514599 307.584 
L 259.586311 307.584 
z
" style="fill:#f48024;opacity:0.4;"/>
   </g>
   <g id="patch_62">
    <path clip-path="url(#pa35dd1d701)" d="M 262.514599 307.584 
L 265.442888 307.584 
L 265.442888 306.386521 
L 262.514599 306.386521 
z
" style="fill:#f48024;opacity:0.4;"/>
   </g>
   <g id="patch_63">
    <path clip-path="url(#pa35dd1d701)" d="M 265.442888 307.584 
L 268.371177 307.584 
L 268.371177 305.189042 
L 265.442888 305.189042 
z
" style="fill:#f48024;opacity:0.4;"/>
   </g>
   <g id="patch_64">
    <path clip-path="url(#pa35dd1d701)" d="M 268.371177 307.584 
L 271.299466 307.584 
L 271.299466 307.584 
L 268.371177 307.584 
z
" style="fill:#f48024;opacity:0.4;"/>
   </g>
   <g id="patch_65">
    <path clip-path="url(#pa35dd1d701)" d="M 271.299466 307.584 
L 274.227755 307.584 
L 274.227755 306.386521 
L 271.299466 306.386521 
z
" style="fill:#f48024;opacity:0.4;"/>
   </g>
   <g id="patch_66">
    <path clip-path="url(#pa35dd1d701)" d="M 274.227755 307.584 
L 277.156043 307.584 
L 277.156043 306.386521 
L 274.227755 306.386521 
z
" style="fill:#f48024;opacity:0.4;"/>
   </g>
   <g id="patch_67">
    <path clip-path="url(#pa35dd1d701)" d="M 277.156043 307.584 
L 280.084332 307.584 
L 280.084332 307.584 
L 277.156043 307.584 
z
" style="fill:#f48024;opacity:0.4;"/>
   </g>
   <g id="patch_68">
    <path clip-path="url(#pa35dd1d701)" d="M 280.084332 307.584 
L 283.012621 307.584 
L 283.012621 307.584 
L 280.084332 307.584 
z
" style="fill:#f48024;opacity:0.4;"/>
   </g>
   <g id="patch_69">
    <path clip-path="url(#pa35dd1d701)" d="M 283.012621 307.584 
L 285.94091 307.584 
L 285.94091 307.584 
L 283.012621 307.584 
z
" style="fill:#f48024;opacity:0.4;"/>
   </g>
   <g id="patch_70">
    <path clip-path="url(#pa35dd1d701)" d="M 285.94091 307.584 
L 288.869199 307.584 
L 288.869199 307.584 
L 285.94091 307.584 
z
" style="fill:#f48024;opacity:0.4;"/>
   </g>
   <g id="patch_71">
    <path clip-path="url(#pa35dd1d701)" d="M 288.869199 307.584 
L 291.797487 307.584 
L 291.797487 307.584 
L 288.869199 307.584 
z
" style="fill:#f48024;opacity:0.4;"/>
   </g>
   <g id="patch_72">
    <path clip-path="url(#pa35dd1d701)" d="M 291.797487 307.584 
L 294.725776 307.584 
L 294.725776 307.584 
L 291.797487 307.584 
z
" style="fill:#f48024;opacity:0.4;"/>
   </g>
   <g id="patch_73">
    <path clip-path="url(#pa35dd1d701)" d="M 294.725776 307.584 
L 297.654065 307.584 
L 297.654065 307.584 
L 294.725776 307.584 
z
" style="fill:#f48024;opacity:0.4;"/>
   </g>
   <g id="patch_74">
    <path clip-path="url(#pa35dd1d701)" d="M 297.654065 307.584 
L 300.582354 307.584 
L 300.582354 307.584 
L 297.654065 307.584 
z
" style="fill:#f48024;opacity:0.4;"/>
   </g>
   <g id="patch_75">
    <path clip-path="url(#pa35dd1d701)" d="M 300.582354 307.584 
L 303.510643 307.584 
L 303.510643 307.584 
L 300.582354 307.584 
z
" style="fill:#f48024;opacity:0.4;"/>
   </g>
   <g id="patch_76">
    <path clip-path="url(#pa35dd1d701)" d="M 303.510643 307.584 
L 306.438932 307.584 
L 306.438932 306.386521 
L 303.510643 306.386521 
z
" style="fill:#f48024;opacity:0.4;"/>
   </g>
   <g id="patch_77">
    <path clip-path="url(#pa35dd1d701)" d="M 306.438932 307.584 
L 309.36722 307.584 
L 309.36722 307.584 
L 306.438932 307.584 
z
" style="fill:#f48024;opacity:0.4;"/>
   </g>
   <g id="patch_78">
    <path clip-path="url(#pa35dd1d701)" d="M 309.36722 307.584 
L 312.295509 307.584 
L 312.295509 307.584 
L 309.36722 307.584 
z
" style="fill:#f48024;opacity:0.4;"/>
   </g>
   <g id="patch_79">
    <path clip-path="url(#pa35dd1d701)" d="M 312.295509 307.584 
L 315.223798 307.584 
L 315.223798 307.584 
L 312.295509 307.584 
z
" style="fill:#f48024;opacity:0.4;"/>
   </g>
   <g id="patch_80">
    <path clip-path="url(#pa35dd1d701)" d="M 315.223798 307.584 
L 318.152087 307.584 
L 318.152087 307.584 
L 315.223798 307.584 
z
" style="fill:#f48024;opacity:0.4;"/>
   </g>
   <g id="patch_81">
    <path clip-path="url(#pa35dd1d701)" d="M 318.152087 307.584 
L 321.080376 307.584 
L 321.080376 307.584 
L 318.152087 307.584 
z
" style="fill:#f48024;opacity:0.4;"/>
   </g>
   <g id="patch_82">
    <path clip-path="url(#pa35dd1d701)" d="M 321.080376 307.584 
L 324.008664 307.584 
L 324.008664 307.584 
L 321.080376 307.584 
z
" style="fill:#f48024;opacity:0.4;"/>
   </g>
   <g id="patch_83">
    <path clip-path="url(#pa35dd1d701)" d="M 324.008664 307.584 
L 326.936953 307.584 
L 326.936953 307.584 
L 324.008664 307.584 
z
" style="fill:#f48024;opacity:0.4;"/>
   </g>
   <g id="patch_84">
    <path clip-path="url(#pa35dd1d701)" d="M 326.936953 307.584 
L 329.865242 307.584 
L 329.865242 307.584 
L 326.936953 307.584 
z
" style="fill:#f48024;opacity:0.4;"/>
   </g>
   <g id="patch_85">
    <path clip-path="url(#pa35dd1d701)" d="M 329.865242 307.584 
L 332.793531 307.584 
L 332.793531 307.584 
L 329.865242 307.584 
z
" style="fill:#f48024;opacity:0.4;"/>
   </g>
   <g id="patch_86">
    <path clip-path="url(#pa35dd1d701)" d="M 332.793531 307.584 
L 335.72182 307.584 
L 335.72182 307.584 
L 332.793531 307.584 
z
" style="fill:#f48024;opacity:0.4;"/>
   </g>
   <g id="patch_87">
    <path clip-path="url(#pa35dd1d701)" d="M 335.72182 307.584 
L 338.650109 307.584 
L 338.650109 307.584 
L 335.72182 307.584 
z
" style="fill:#f48024;opacity:0.4;"/>
   </g>
   <g id="patch_88">
    <path clip-path="url(#pa35dd1d701)" d="M 338.650109 307.584 
L 341.578397 307.584 
L 341.578397 307.584 
L 338.650109 307.584 
z
" style="fill:#f48024;opacity:0.4;"/>
   </g>
   <g id="patch_89">
    <path clip-path="url(#pa35dd1d701)" d="M 341.578397 307.584 
L 344.506686 307.584 
L 344.506686 307.584 
L 341.578397 307.584 
z
" style="fill:#f48024;opacity:0.4;"/>
   </g>
   <g id="patch_90">
    <path clip-path="url(#pa35dd1d701)" d="M 344.506686 307.584 
L 347.434975 307.584 
L 347.434975 307.584 
L 344.506686 307.584 
z
" style="fill:#f48024;opacity:0.4;"/>
   </g>
   <g id="patch_91">
    <path clip-path="url(#pa35dd1d701)" d="M 347.434975 307.584 
L 350.363264 307.584 
L 350.363264 307.584 
L 347.434975 307.584 
z
" style="fill:#f48024;opacity:0.4;"/>
   </g>
   <g id="patch_92">
    <path clip-path="url(#pa35dd1d701)" d="M 350.363264 307.584 
L 353.291553 307.584 
L 353.291553 307.584 
L 350.363264 307.584 
z
" style="fill:#f48024;opacity:0.4;"/>
   </g>
   <g id="patch_93">
    <path clip-path="url(#pa35dd1d701)" d="M 353.291553 307.584 
L 356.219841 307.584 
L 356.219841 307.584 
L 353.291553 307.584 
z
" style="fill:#f48024;opacity:0.4;"/>
   </g>
   <g id="patch_94">
    <path clip-path="url(#pa35dd1d701)" d="M 356.219841 307.584 
L 359.14813 307.584 
L 359.14813 307.584 
L 356.219841 307.584 
z
" style="fill:#f48024;opacity:0.4;"/>
   </g>
   <g id="patch_95">
    <path clip-path="url(#pa35dd1d701)" d="M 359.14813 307.584 
L 362.076419 307.584 
L 362.076419 307.584 
L 359.14813 307.584 
z
" style="fill:#f48024;opacity:0.4;"/>
   </g>
   <g id="patch_96">
    <path clip-path="url(#pa35dd1d701)" d="M 362.076419 307.584 
L 365.004708 307.584 
L 365.004708 306.386521 
L 362.076419 306.386521 
z
" style="fill:#f48024;opacity:0.4;"/>
   </g>
   <g id="patch_97">
    <path clip-path="url(#pa35dd1d701)" d="M 365.004708 307.584 
L 367.932997 307.584 
L 367.932997 307.584 
L 365.004708 307.584 
z
" style="fill:#f48024;opacity:0.4;"/>
   </g>
   <g id="patch_98">
    <path clip-path="url(#pa35dd1d701)" d="M 367.932997 307.584 
L 370.861285 307.584 
L 370.861285 307.584 
L 367.932997 307.584 
z
" style="fill:#f48024;opacity:0.4;"/>
   </g>
   <g id="patch_99">
    <path clip-path="url(#pa35dd1d701)" d="M 370.861285 307.584 
L 373.789574 307.584 
L 373.789574 307.584 
L 370.861285 307.584 
z
" style="fill:#f48024;opacity:0.4;"/>
   </g>
   <g id="patch_100">
    <path clip-path="url(#pa35dd1d701)" d="M 373.789574 307.584 
L 376.717863 307.584 
L 376.717863 307.584 
L 373.789574 307.584 
z
" style="fill:#f48024;opacity:0.4;"/>
   </g>
   <g id="patch_101">
    <path clip-path="url(#pa35dd1d701)" d="M 376.717863 307.584 
L 379.646152 307.584 
L 379.646152 307.584 
L 376.717863 307.584 
z
" style="fill:#f48024;opacity:0.4;"/>
   </g>
   <g id="patch_102">
    <path clip-path="url(#pa35dd1d701)" d="M 379.646152 307.584 
L 382.574441 307.584 
L 382.574441 306.386521 
L 379.646152 306.386521 
z
" style="fill:#f48024;opacity:0.4;"/>
   </g>
   <g id="patch_103">
    <path clip-path="url(#pa35dd1d701)" d="M 90.404468 307.584 
L 92.95027 307.584 
L 92.95027 299.319652 
L 90.404468 299.319652 
z
" style="fill:#008000;opacity:0.4;"/>
   </g>
   <g id="patch_104">
    <path clip-path="url(#pa35dd1d701)" d="M 92.95027 307.584 
L 95.496071 307.584 
L 95.496071 296.56487 
L 92.95027 296.56487 
z
" style="fill:#008000;opacity:0.4;"/>
   </g>
   <g id="patch_105">
    <path clip-path="url(#pa35dd1d701)" d="M 95.496071 307.584 
L 98.041872 307.584 
L 98.041872 286.92313 
L 95.496071 286.92313 
z
" style="fill:#008000;opacity:0.4;"/>
   </g>
   <g id="patch_106">
    <path clip-path="url(#pa35dd1d701)" d="M 98.041872 307.584 
L 100.587674 307.584 
L 100.587674 288.300522 
L 98.041872 288.300522 
z
" style="fill:#008000;opacity:0.4;"/>
   </g>
   <g id="patch_107">
    <path clip-path="url(#pa35dd1d701)" d="M 100.587674 307.584 
L 103.133475 307.584 
L 103.133475 275.904 
L 100.587674 275.904 
z
" style="fill:#008000;opacity:0.4;"/>
   </g>
   <g id="patch_108">
    <path clip-path="url(#pa35dd1d701)" d="M 103.133475 307.584 
L 105.679276 307.584 
L 105.679276 270.394435 
L 103.133475 270.394435 
z
" style="fill:#008000;opacity:0.4;"/>
   </g>
   <g id="patch_109">
    <path clip-path="url(#pa35dd1d701)" d="M 105.679276 307.584 
L 108.225078 307.584 
L 108.225078 233.20487 
L 105.679276 233.20487 
z
" style="fill:#008000;opacity:0.4;"/>
   </g>
   <g id="patch_110">
    <path clip-path="url(#pa35dd1d701)" d="M 108.225078 307.584 
L 110.770879 307.584 
L 110.770879 201.52487 
L 108.225078 201.52487 
z
" style="fill:#008000;opacity:0.4;"/>
   </g>
   <g id="patch_111">
    <path clip-path="url(#pa35dd1d701)" d="M 110.770879 307.584 
L 113.31668 307.584 
L 113.31668 151.938783 
L 110.770879 151.938783 
z
" style="fill:#008000;opacity:0.4;"/>
   </g>
   <g id="patch_112">
    <path clip-path="url(#pa35dd1d701)" d="M 113.31668 307.584 
L 115.862482 307.584 
L 115.862482 113.371826 
L 113.31668 113.371826 
z
" style="fill:#008000;opacity:0.4;"/>
   </g>
   <g id="patch_113">
    <path clip-path="url(#pa35dd1d701)" d="M 115.862482 307.584 
L 118.408283 307.584 
L 118.408283 72.050087 
L 115.862482 72.050087 
z
" style="fill:#008000;opacity:0.4;"/>
   </g>
   <g id="patch_114">
    <path clip-path="url(#pa35dd1d701)" d="M 118.408283 307.584 
L 120.954084 307.584 
L 120.954084 98.220522 
L 118.408283 98.220522 
z
" style="fill:#008000;opacity:0.4;"/>
   </g>
   <g id="patch_115">
    <path clip-path="url(#pa35dd1d701)" d="M 120.954084 307.584 
L 123.499886 307.584 
L 123.499886 54.144 
L 120.954084 54.144 
z
" style="fill:#008000;opacity:0.4;"/>
   </g>
   <g id="patch_116">
    <path clip-path="url(#pa35dd1d701)" d="M 123.499886 307.584 
L 126.045687 307.584 
L 126.045687 151.938783 
L 123.499886 151.938783 
z
" style="fill:#008000;opacity:0.4;"/>
   </g>
   <g id="patch_117">
    <path clip-path="url(#pa35dd1d701)" d="M 126.045687 307.584 
L 128.591488 307.584 
L 128.591488 161.580522 
L 126.045687 161.580522 
z
" style="fill:#008000;opacity:0.4;"/>
   </g>
   <g id="patch_118">
    <path clip-path="url(#pa35dd1d701)" d="M 128.591488 307.584 
L 131.13729 307.584 
L 131.13729 208.411826 
L 128.591488 208.411826 
z
" style="fill:#008000;opacity:0.4;"/>
   </g>
   <g id="patch_119">
    <path clip-path="url(#pa35dd1d701)" d="M 131.13729 307.584 
L 133.683091 307.584 
L 133.683091 218.053565 
L 131.13729 218.053565 
z
" style="fill:#008000;opacity:0.4;"/>
   </g>
   <g id="patch_120">
    <path clip-path="url(#pa35dd1d701)" d="M 133.683091 307.584 
L 136.228892 307.584 
L 136.228892 240.091826 
L 133.683091 240.091826 
z
" style="fill:#008000;opacity:0.4;"/>
   </g>
   <g id="patch_121">
    <path clip-path="url(#pa35dd1d701)" d="M 136.228892 307.584 
L 138.774694 307.584 
L 138.774694 263.507478 
L 136.228892 263.507478 
z
" style="fill:#008000;opacity:0.4;"/>
   </g>
   <g id="patch_122">
    <path clip-path="url(#pa35dd1d701)" d="M 138.774694 307.584 
L 141.320495 307.584 
L 141.320495 253.865739 
L 138.774694 253.865739 
z
" style="fill:#008000;opacity:0.4;"/>
   </g>
   <g id="patch_123">
    <path clip-path="url(#pa35dd1d701)" d="M 141.320495 307.584 
L 143.866296 307.584 
L 143.866296 271.771826 
L 141.320495 271.771826 
z
" style="fill:#008000;opacity:0.4;"/>
   </g>
   <g id="patch_124">
    <path clip-path="url(#pa35dd1d701)" d="M 143.866296 307.584 
L 146.412098 307.584 
L 146.412098 288.300522 
L 143.866296 288.300522 
z
" style="fill:#008000;opacity:0.4;"/>
   </g>
   <g id="patch_125">
    <path clip-path="url(#pa35dd1d701)" d="M 146.412098 307.584 
L 148.957899 307.584 
L 148.957899 281.413565 
L 146.412098 281.413565 
z
" style="fill:#008000;opacity:0.4;"/>
   </g>
   <g id="patch_126">
    <path clip-path="url(#pa35dd1d701)" d="M 148.957899 307.584 
L 151.5037 307.584 
L 151.5037 274.526609 
L 148.957899 274.526609 
z
" style="fill:#008000;opacity:0.4;"/>
   </g>
   <g id="patch_127">
    <path clip-path="url(#pa35dd1d701)" d="M 151.5037 307.584 
L 154.049502 307.584 
L 154.049502 289.677913 
L 151.5037 289.677913 
z
" style="fill:#008000;opacity:0.4;"/>
   </g>
   <g id="patch_128">
    <path clip-path="url(#pa35dd1d701)" d="M 154.049502 307.584 
L 156.595303 307.584 
L 156.595303 291.055304 
L 154.049502 291.055304 
z
" style="fill:#008000;opacity:0.4;"/>
   </g>
   <g id="patch_129">
    <path clip-path="url(#pa35dd1d701)" d="M 156.595303 307.584 
L 159.141104 307.584 
L 159.141104 297.942261 
L 156.595303 297.942261 
z
" style="fill:#008000;opacity:0.4;"/>
   </g>
   <g id="patch_130">
    <path clip-path="url(#pa35dd1d701)" d="M 159.141104 307.584 
L 161.686906 307.584 
L 161.686906 291.055304 
L 159.141104 291.055304 
z
" style="fill:#008000;opacity:0.4;"/>
   </g>
   <g id="patch_131">
    <path clip-path="url(#pa35dd1d701)" d="M 161.686906 307.584 
L 164.232707 307.584 
L 164.232707 299.319652 
L 161.686906 299.319652 
z
" style="fill:#008000;opacity:0.4;"/>
   </g>
   <g id="patch_132">
    <path clip-path="url(#pa35dd1d701)" d="M 164.232707 307.584 
L 166.778508 307.584 
L 166.778508 300.697043 
L 164.232707 300.697043 
z
" style="fill:#008000;opacity:0.4;"/>
   </g>
   <g id="patch_133">
    <path clip-path="url(#pa35dd1d701)" d="M 166.778508 307.584 
L 169.32431 307.584 
L 169.32431 297.942261 
L 166.778508 297.942261 
z
" style="fill:#008000;opacity:0.4;"/>
   </g>
   <g id="patch_134">
    <path clip-path="url(#pa35dd1d701)" d="M 169.32431 307.584 
L 171.870111 307.584 
L 171.870111 300.697043 
L 169.32431 300.697043 
z
" style="fill:#008000;opacity:0.4;"/>
   </g>
   <g id="patch_135">
    <path clip-path="url(#pa35dd1d701)" d="M 171.870111 307.584 
L 174.415912 307.584 
L 174.415912 299.319652 
L 171.870111 299.319652 
z
" style="fill:#008000;opacity:0.4;"/>
   </g>
   <g id="patch_136">
    <path clip-path="url(#pa35dd1d701)" d="M 174.415912 307.584 
L 176.961714 307.584 
L 176.961714 297.942261 
L 174.415912 297.942261 
z
" style="fill:#008000;opacity:0.4;"/>
   </g>
   <g id="patch_137">
    <path clip-path="url(#pa35dd1d701)" d="M 176.961714 307.584 
L 179.507515 307.584 
L 179.507515 295.187478 
L 176.961714 295.187478 
z
" style="fill:#008000;opacity:0.4;"/>
   </g>
   <g id="patch_138">
    <path clip-path="url(#pa35dd1d701)" d="M 179.507515 307.584 
L 182.053316 307.584 
L 182.053316 297.942261 
L 179.507515 297.942261 
z
" style="fill:#008000;opacity:0.4;"/>
   </g>
   <g id="patch_139">
    <path clip-path="url(#pa35dd1d701)" d="M 182.053316 307.584 
L 184.599118 307.584 
L 184.599118 307.584 
L 182.053316 307.584 
z
" style="fill:#008000;opacity:0.4;"/>
   </g>
   <g id="patch_140">
    <path clip-path="url(#pa35dd1d701)" d="M 184.599118 307.584 
L 187.144919 307.584 
L 187.144919 306.206609 
L 184.599118 306.206609 
z
" style="fill:#008000;opacity:0.4;"/>
   </g>
   <g id="patch_141">
    <path clip-path="url(#pa35dd1d701)" d="M 187.144919 307.584 
L 189.69072 307.584 
L 189.69072 303.451826 
L 187.144919 303.451826 
z
" style="fill:#008000;opacity:0.4;"/>
   </g>
   <g id="patch_142">
    <path clip-path="url(#pa35dd1d701)" d="M 189.69072 307.584 
L 192.236522 307.584 
L 192.236522 302.074435 
L 189.69072 302.074435 
z
" style="fill:#008000;opacity:0.4;"/>
   </g>
   <g id="patch_143">
    <path clip-path="url(#pa35dd1d701)" d="M 192.236522 307.584 
L 194.782323 307.584 
L 194.782323 304.829217 
L 192.236522 304.829217 
z
" style="fill:#008000;opacity:0.4;"/>
   </g>
   <g id="patch_144">
    <path clip-path="url(#pa35dd1d701)" d="M 194.782323 307.584 
L 197.328124 307.584 
L 197.328124 303.451826 
L 194.782323 303.451826 
z
" style="fill:#008000;opacity:0.4;"/>
   </g>
   <g id="patch_145">
    <path clip-path="url(#pa35dd1d701)" d="M 197.328124 307.584 
L 199.873926 307.584 
L 199.873926 303.451826 
L 197.328124 303.451826 
z
" style="fill:#008000;opacity:0.4;"/>
   </g>
   <g id="patch_146">
    <path clip-path="url(#pa35dd1d701)" d="M 199.873926 307.584 
L 202.419727 307.584 
L 202.419727 306.206609 
L 199.873926 306.206609 
z
" style="fill:#008000;opacity:0.4;"/>
   </g>
   <g id="patch_147">
    <path clip-path="url(#pa35dd1d701)" d="M 202.419727 307.584 
L 204.965528 307.584 
L 204.965528 307.584 
L 202.419727 307.584 
z
" style="fill:#008000;opacity:0.4;"/>
   </g>
   <g id="patch_148">
    <path clip-path="url(#pa35dd1d701)" d="M 204.965528 307.584 
L 207.51133 307.584 
L 207.51133 306.206609 
L 204.965528 306.206609 
z
" style="fill:#008000;opacity:0.4;"/>
   </g>
   <g id="patch_149">
    <path clip-path="url(#pa35dd1d701)" d="M 207.51133 307.584 
L 210.057131 307.584 
L 210.057131 306.206609 
L 207.51133 306.206609 
z
" style="fill:#008000;opacity:0.4;"/>
   </g>
   <g id="patch_150">
    <path clip-path="url(#pa35dd1d701)" d="M 210.057131 307.584 
L 212.602932 307.584 
L 212.602932 307.584 
L 210.057131 307.584 
z
" style="fill:#008000;opacity:0.4;"/>
   </g>
   <g id="patch_151">
    <path clip-path="url(#pa35dd1d701)" d="M 212.602932 307.584 
L 215.148734 307.584 
L 215.148734 306.206609 
L 212.602932 306.206609 
z
" style="fill:#008000;opacity:0.4;"/>
   </g>
   <g id="patch_152">
    <path clip-path="url(#pa35dd1d701)" d="M 215.148734 307.584 
L 217.694535 307.584 
L 217.694535 306.206609 
L 215.148734 306.206609 
z
" style="fill:#008000;opacity:0.4;"/>
   </g>
   <g id="patch_153">
    <path clip-path="url(#pa35dd1d701)" d="M 217.694535 307.584 
L 220.240336 307.584 
L 220.240336 304.829217 
L 217.694535 304.829217 
z
" style="fill:#008000;opacity:0.4;"/>
   </g>
   <g id="patch_154">
    <path clip-path="url(#pa35dd1d701)" d="M 220.240336 307.584 
L 222.786138 307.584 
L 222.786138 306.206609 
L 220.240336 306.206609 
z
" style="fill:#008000;opacity:0.4;"/>
   </g>
   <g id="patch_155">
    <path clip-path="url(#pa35dd1d701)" d="M 222.786138 307.584 
L 225.331939 307.584 
L 225.331939 307.584 
L 222.786138 307.584 
z
" style="fill:#008000;opacity:0.4;"/>
   </g>
   <g id="patch_156">
    <path clip-path="url(#pa35dd1d701)" d="M 225.331939 307.584 
L 227.87774 307.584 
L 227.87774 307.584 
L 225.331939 307.584 
z
" style="fill:#008000;opacity:0.4;"/>
   </g>
   <g id="patch_157">
    <path clip-path="url(#pa35dd1d701)" d="M 227.87774 307.584 
L 230.423542 307.584 
L 230.423542 307.584 
L 227.87774 307.584 
z
" style="fill:#008000;opacity:0.4;"/>
   </g>
   <g id="patch_158">
    <path clip-path="url(#pa35dd1d701)" d="M 230.423542 307.584 
L 232.969343 307.584 
L 232.969343 307.584 
L 230.423542 307.584 
z
" style="fill:#008000;opacity:0.4;"/>
   </g>
   <g id="patch_159">
    <path clip-path="url(#pa35dd1d701)" d="M 232.969343 307.584 
L 235.515144 307.584 
L 235.515144 307.584 
L 232.969343 307.584 
z
" style="fill:#008000;opacity:0.4;"/>
   </g>
   <g id="patch_160">
    <path clip-path="url(#pa35dd1d701)" d="M 235.515144 307.584 
L 238.060946 307.584 
L 238.060946 307.584 
L 235.515144 307.584 
z
" style="fill:#008000;opacity:0.4;"/>
   </g>
   <g id="patch_161">
    <path clip-path="url(#pa35dd1d701)" d="M 238.060946 307.584 
L 240.606747 307.584 
L 240.606747 307.584 
L 238.060946 307.584 
z
" style="fill:#008000;opacity:0.4;"/>
   </g>
   <g id="patch_162">
    <path clip-path="url(#pa35dd1d701)" d="M 240.606747 307.584 
L 243.152548 307.584 
L 243.152548 306.206609 
L 240.606747 306.206609 
z
" style="fill:#008000;opacity:0.4;"/>
   </g>
   <g id="patch_163">
    <path clip-path="url(#pa35dd1d701)" d="M 243.152548 307.584 
L 245.69835 307.584 
L 245.69835 304.829217 
L 243.152548 304.829217 
z
" style="fill:#008000;opacity:0.4;"/>
   </g>
   <g id="patch_164">
    <path clip-path="url(#pa35dd1d701)" d="M 245.69835 307.584 
L 248.244151 307.584 
L 248.244151 307.584 
L 245.69835 307.584 
z
" style="fill:#008000;opacity:0.4;"/>
   </g>
   <g id="patch_165">
    <path clip-path="url(#pa35dd1d701)" d="M 248.244151 307.584 
L 250.789952 307.584 
L 250.789952 307.584 
L 248.244151 307.584 
z
" style="fill:#008000;opacity:0.4;"/>
   </g>
   <g id="patch_166">
    <path clip-path="url(#pa35dd1d701)" d="M 250.789952 307.584 
L 253.335754 307.584 
L 253.335754 307.584 
L 250.789952 307.584 
z
" style="fill:#008000;opacity:0.4;"/>
   </g>
   <g id="patch_167">
    <path clip-path="url(#pa35dd1d701)" d="M 253.335754 307.584 
L 255.881555 307.584 
L 255.881555 307.584 
L 253.335754 307.584 
z
" style="fill:#008000;opacity:0.4;"/>
   </g>
   <g id="patch_168">
    <path clip-path="url(#pa35dd1d701)" d="M 255.881555 307.584 
L 258.427356 307.584 
L 258.427356 306.206609 
L 255.881555 306.206609 
z
" style="fill:#008000;opacity:0.4;"/>
   </g>
   <g id="patch_169">
    <path clip-path="url(#pa35dd1d701)" d="M 258.427356 307.584 
L 260.973158 307.584 
L 260.973158 307.584 
L 258.427356 307.584 
z
" style="fill:#008000;opacity:0.4;"/>
   </g>
   <g id="patch_170">
    <path clip-path="url(#pa35dd1d701)" d="M 260.973158 307.584 
L 263.518959 307.584 
L 263.518959 307.584 
L 260.973158 307.584 
z
" style="fill:#008000;opacity:0.4;"/>
   </g>
   <g id="patch_171">
    <path clip-path="url(#pa35dd1d701)" d="M 263.518959 307.584 
L 266.06476 307.584 
L 266.06476 307.584 
L 263.518959 307.584 
z
" style="fill:#008000;opacity:0.4;"/>
   </g>
   <g id="patch_172">
    <path clip-path="url(#pa35dd1d701)" d="M 266.06476 307.584 
L 268.610562 307.584 
L 268.610562 307.584 
L 266.06476 307.584 
z
" style="fill:#008000;opacity:0.4;"/>
   </g>
   <g id="patch_173">
    <path clip-path="url(#pa35dd1d701)" d="M 268.610562 307.584 
L 271.156363 307.584 
L 271.156363 307.584 
L 268.610562 307.584 
z
" style="fill:#008000;opacity:0.4;"/>
   </g>
   <g id="patch_174">
    <path clip-path="url(#pa35dd1d701)" d="M 271.156363 307.584 
L 273.702164 307.584 
L 273.702164 307.584 
L 271.156363 307.584 
z
" style="fill:#008000;opacity:0.4;"/>
   </g>
   <g id="patch_175">
    <path clip-path="url(#pa35dd1d701)" d="M 273.702164 307.584 
L 276.247966 307.584 
L 276.247966 307.584 
L 273.702164 307.584 
z
" style="fill:#008000;opacity:0.4;"/>
   </g>
   <g id="patch_176">
    <path clip-path="url(#pa35dd1d701)" d="M 276.247966 307.584 
L 278.793767 307.584 
L 278.793767 307.584 
L 276.247966 307.584 
z
" style="fill:#008000;opacity:0.4;"/>
   </g>
   <g id="patch_177">
    <path clip-path="url(#pa35dd1d701)" d="M 278.793767 307.584 
L 281.339569 307.584 
L 281.339569 307.584 
L 278.793767 307.584 
z
" style="fill:#008000;opacity:0.4;"/>
   </g>
   <g id="patch_178">
    <path clip-path="url(#pa35dd1d701)" d="M 281.339569 307.584 
L 283.88537 307.584 
L 283.88537 307.584 
L 281.339569 307.584 
z
" style="fill:#008000;opacity:0.4;"/>
   </g>
   <g id="patch_179">
    <path clip-path="url(#pa35dd1d701)" d="M 283.88537 307.584 
L 286.431171 307.584 
L 286.431171 307.584 
L 283.88537 307.584 
z
" style="fill:#008000;opacity:0.4;"/>
   </g>
   <g id="patch_180">
    <path clip-path="url(#pa35dd1d701)" d="M 286.431171 307.584 
L 288.976973 307.584 
L 288.976973 307.584 
L 286.431171 307.584 
z
" style="fill:#008000;opacity:0.4;"/>
   </g>
   <g id="patch_181">
    <path clip-path="url(#pa35dd1d701)" d="M 288.976973 307.584 
L 291.522774 307.584 
L 291.522774 307.584 
L 288.976973 307.584 
z
" style="fill:#008000;opacity:0.4;"/>
   </g>
   <g id="patch_182">
    <path clip-path="url(#pa35dd1d701)" d="M 291.522774 307.584 
L 294.068575 307.584 
L 294.068575 307.584 
L 291.522774 307.584 
z
" style="fill:#008000;opacity:0.4;"/>
   </g>
   <g id="patch_183">
    <path clip-path="url(#pa35dd1d701)" d="M 294.068575 307.584 
L 296.614377 307.584 
L 296.614377 307.584 
L 294.068575 307.584 
z
" style="fill:#008000;opacity:0.4;"/>
   </g>
   <g id="patch_184">
    <path clip-path="url(#pa35dd1d701)" d="M 296.614377 307.584 
L 299.160178 307.584 
L 299.160178 307.584 
L 296.614377 307.584 
z
" style="fill:#008000;opacity:0.4;"/>
   </g>
   <g id="patch_185">
    <path clip-path="url(#pa35dd1d701)" d="M 299.160178 307.584 
L 301.705979 307.584 
L 301.705979 306.206609 
L 299.160178 306.206609 
z
" style="fill:#008000;opacity:0.4;"/>
   </g>
   <g id="patch_186">
    <path clip-path="url(#pa35dd1d701)" d="M 301.705979 307.584 
L 304.251781 307.584 
L 304.251781 307.584 
L 301.705979 307.584 
z
" style="fill:#008000;opacity:0.4;"/>
   </g>
   <g id="patch_187">
    <path clip-path="url(#pa35dd1d701)" d="M 304.251781 307.584 
L 306.797582 307.584 
L 306.797582 307.584 
L 304.251781 307.584 
z
" style="fill:#008000;opacity:0.4;"/>
   </g>
   <g id="patch_188">
    <path clip-path="url(#pa35dd1d701)" d="M 306.797582 307.584 
L 309.343383 307.584 
L 309.343383 307.584 
L 306.797582 307.584 
z
" style="fill:#008000;opacity:0.4;"/>
   </g>
   <g id="patch_189">
    <path clip-path="url(#pa35dd1d701)" d="M 309.343383 307.584 
L 311.889185 307.584 
L 311.889185 307.584 
L 309.343383 307.584 
z
" style="fill:#008000;opacity:0.4;"/>
   </g>
   <g id="patch_190">
    <path clip-path="url(#pa35dd1d701)" d="M 311.889185 307.584 
L 314.434986 307.584 
L 314.434986 307.584 
L 311.889185 307.584 
z
" style="fill:#008000;opacity:0.4;"/>
   </g>
   <g id="patch_191">
    <path clip-path="url(#pa35dd1d701)" d="M 314.434986 307.584 
L 316.980787 307.584 
L 316.980787 307.584 
L 314.434986 307.584 
z
" style="fill:#008000;opacity:0.4;"/>
   </g>
   <g id="patch_192">
    <path clip-path="url(#pa35dd1d701)" d="M 316.980787 307.584 
L 319.526589 307.584 
L 319.526589 307.584 
L 316.980787 307.584 
z
" style="fill:#008000;opacity:0.4;"/>
   </g>
   <g id="patch_193">
    <path clip-path="url(#pa35dd1d701)" d="M 319.526589 307.584 
L 322.07239 307.584 
L 322.07239 307.584 
L 319.526589 307.584 
z
" style="fill:#008000;opacity:0.4;"/>
   </g>
   <g id="patch_194">
    <path clip-path="url(#pa35dd1d701)" d="M 322.07239 307.584 
L 324.618191 307.584 
L 324.618191 307.584 
L 322.07239 307.584 
z
" style="fill:#008000;opacity:0.4;"/>
   </g>
   <g id="patch_195">
    <path clip-path="url(#pa35dd1d701)" d="M 324.618191 307.584 
L 327.163993 307.584 
L 327.163993 307.584 
L 324.618191 307.584 
z
" style="fill:#008000;opacity:0.4;"/>
   </g>
   <g id="patch_196">
    <path clip-path="url(#pa35dd1d701)" d="M 327.163993 307.584 
L 329.709794 307.584 
L 329.709794 307.584 
L 327.163993 307.584 
z
" style="fill:#008000;opacity:0.4;"/>
   </g>
   <g id="patch_197">
    <path clip-path="url(#pa35dd1d701)" d="M 329.709794 307.584 
L 332.255595 307.584 
L 332.255595 307.584 
L 329.709794 307.584 
z
" style="fill:#008000;opacity:0.4;"/>
   </g>
   <g id="patch_198">
    <path clip-path="url(#pa35dd1d701)" d="M 332.255595 307.584 
L 334.801397 307.584 
L 334.801397 307.584 
L 332.255595 307.584 
z
" style="fill:#008000;opacity:0.4;"/>
   </g>
   <g id="patch_199">
    <path clip-path="url(#pa35dd1d701)" d="M 334.801397 307.584 
L 337.347198 307.584 
L 337.347198 307.584 
L 334.801397 307.584 
z
" style="fill:#008000;opacity:0.4;"/>
   </g>
   <g id="patch_200">
    <path clip-path="url(#pa35dd1d701)" d="M 337.347198 307.584 
L 339.892999 307.584 
L 339.892999 307.584 
L 337.347198 307.584 
z
" style="fill:#008000;opacity:0.4;"/>
   </g>
   <g id="patch_201">
    <path clip-path="url(#pa35dd1d701)" d="M 339.892999 307.584 
L 342.438801 307.584 
L 342.438801 307.584 
L 339.892999 307.584 
z
" style="fill:#008000;opacity:0.4;"/>
   </g>
   <g id="patch_202">
    <path clip-path="url(#pa35dd1d701)" d="M 342.438801 307.584 
L 344.984602 307.584 
L 344.984602 306.206609 
L 342.438801 306.206609 
z
" style="fill:#008000;opacity:0.4;"/>
   </g>
   <g id="matplotlib.axis_1">
    <g id="xtick_1">
     <g id="line2d_1">
      <defs>
       <path d="M 0 0 
L 0 3.5 
" id="mfe6fd74797" style="stroke:#000000;stroke-width:0.8;"/>
      </defs>
      <g>
       <use style="stroke:#000000;stroke-width:0.8;" x="83.783732" xlink:href="#mfe6fd74797" y="307.584"/>
      </g>
     </g>
     <g id="text_1">
      <!-- 0 -->
      <defs>
       <path d="M 31.78125 66.40625 
Q 24.171875 66.40625 20.328125 58.90625 
Q 16.5 51.421875 16.5 36.375 
Q 16.5 21.390625 20.328125 13.890625 
Q 24.171875 6.390625 31.78125 6.390625 
Q 39.453125 6.390625 43.28125 13.890625 
Q 47.125 21.390625 47.125 36.375 
Q 47.125 51.421875 43.28125 58.90625 
Q 39.453125 66.40625 31.78125 66.40625 
z
M 31.78125 74.21875 
Q 44.046875 74.21875 50.515625 64.515625 
Q 56.984375 54.828125 56.984375 36.375 
Q 56.984375 17.96875 50.515625 8.265625 
Q 44.046875 -1.421875 31.78125 -1.421875 
Q 19.53125 -1.421875 13.0625 8.265625 
Q 6.59375 17.96875 6.59375 36.375 
Q 6.59375 54.828125 13.0625 64.515625 
Q 19.53125 74.21875 31.78125 74.21875 
z
" id="DejaVuSans-48"/>
      </defs>
      <g transform="translate(80.602482 322.182437)scale(0.1 -0.1)">
       <use xlink:href="#DejaVuSans-48"/>
      </g>
     </g>
    </g>
    <g id="xtick_2">
     <g id="line2d_2">
      <g>
       <use style="stroke:#000000;stroke-width:0.8;" x="128.705086" xlink:href="#mfe6fd74797" y="307.584"/>
      </g>
     </g>
     <g id="text_2">
      <!-- 1 -->
      <defs>
       <path d="M 12.40625 8.296875 
L 28.515625 8.296875 
L 28.515625 63.921875 
L 10.984375 60.40625 
L 10.984375 69.390625 
L 28.421875 72.90625 
L 38.28125 72.90625 
L 38.28125 8.296875 
L 54.390625 8.296875 
L 54.390625 0 
L 12.40625 0 
z
" id="DejaVuSans-49"/>
      </defs>
      <g transform="translate(125.523836 322.182437)scale(0.1 -0.1)">
       <use xlink:href="#DejaVuSans-49"/>
      </g>
     </g>
    </g>
    <g id="xtick_3">
     <g id="line2d_3">
      <g>
       <use style="stroke:#000000;stroke-width:0.8;" x="173.626439" xlink:href="#mfe6fd74797" y="307.584"/>
      </g>
     </g>
     <g id="text_3">
      <!-- 2 -->
      <defs>
       <path d="M 19.1875 8.296875 
L 53.609375 8.296875 
L 53.609375 0 
L 7.328125 0 
L 7.328125 8.296875 
Q 12.9375 14.109375 22.625 23.890625 
Q 32.328125 33.6875 34.8125 36.53125 
Q 39.546875 41.84375 41.421875 45.53125 
Q 43.3125 49.21875 43.3125 52.78125 
Q 43.3125 58.59375 39.234375 62.25 
Q 35.15625 65.921875 28.609375 65.921875 
Q 23.96875 65.921875 18.8125 64.3125 
Q 13.671875 62.703125 7.8125 59.421875 
L 7.8125 69.390625 
Q 13.765625 71.78125 18.9375 73 
Q 24.125 74.21875 28.421875 74.21875 
Q 39.75 74.21875 46.484375 68.546875 
Q 53.21875 62.890625 53.21875 53.421875 
Q 53.21875 48.921875 51.53125 44.890625 
Q 49.859375 40.875 45.40625 35.40625 
Q 44.1875 33.984375 37.640625 27.21875 
Q 31.109375 20.453125 19.1875 8.296875 
z
" id="DejaVuSans-50"/>
      </defs>
      <g transform="translate(170.445189 322.182437)scale(0.1 -0.1)">
       <use xlink:href="#DejaVuSans-50"/>
      </g>
     </g>
    </g>
    <g id="xtick_4">
     <g id="line2d_4">
      <g>
       <use style="stroke:#000000;stroke-width:0.8;" x="218.547793" xlink:href="#mfe6fd74797" y="307.584"/>
      </g>
     </g>
     <g id="text_4">
      <!-- 3 -->
      <defs>
       <path d="M 40.578125 39.3125 
Q 47.65625 37.796875 51.625 33 
Q 55.609375 28.21875 55.609375 21.1875 
Q 55.609375 10.40625 48.1875 4.484375 
Q 40.765625 -1.421875 27.09375 -1.421875 
Q 22.515625 -1.421875 17.65625 -0.515625 
Q 12.796875 0.390625 7.625 2.203125 
L 7.625 11.71875 
Q 11.71875 9.328125 16.59375 8.109375 
Q 21.484375 6.890625 26.8125 6.890625 
Q 36.078125 6.890625 40.9375 10.546875 
Q 45.796875 14.203125 45.796875 21.1875 
Q 45.796875 27.640625 41.28125 31.265625 
Q 36.765625 34.90625 28.71875 34.90625 
L 20.21875 34.90625 
L 20.21875 43.015625 
L 29.109375 43.015625 
Q 36.375 43.015625 40.234375 45.921875 
Q 44.09375 48.828125 44.09375 54.296875 
Q 44.09375 59.90625 40.109375 62.90625 
Q 36.140625 65.921875 28.71875 65.921875 
Q 24.65625 65.921875 20.015625 65.03125 
Q 15.375 64.15625 9.8125 62.3125 
L 9.8125 71.09375 
Q 15.4375 72.65625 20.34375 73.4375 
Q 25.25 74.21875 29.59375 74.21875 
Q 40.828125 74.21875 47.359375 69.109375 
Q 53.90625 64.015625 53.90625 55.328125 
Q 53.90625 49.265625 50.4375 45.09375 
Q 46.96875 40.921875 40.578125 39.3125 
z
" id="DejaVuSans-51"/>
      </defs>
      <g transform="translate(215.366543 322.182437)scale(0.1 -0.1)">
       <use xlink:href="#DejaVuSans-51"/>
      </g>
     </g>
    </g>
    <g id="xtick_5">
     <g id="line2d_5">
      <g>
       <use style="stroke:#000000;stroke-width:0.8;" x="263.469146" xlink:href="#mfe6fd74797" y="307.584"/>
      </g>
     </g>
     <g id="text_5">
      <!-- 4 -->
      <defs>
       <path d="M 37.796875 64.3125 
L 12.890625 25.390625 
L 37.796875 25.390625 
z
M 35.203125 72.90625 
L 47.609375 72.90625 
L 47.609375 25.390625 
L 58.015625 25.390625 
L 58.015625 17.1875 
L 47.609375 17.1875 
L 47.609375 0 
L 37.796875 0 
L 37.796875 17.1875 
L 4.890625 17.1875 
L 4.890625 26.703125 
z
" id="DejaVuSans-52"/>
      </defs>
      <g transform="translate(260.287896 322.182437)scale(0.1 -0.1)">
       <use xlink:href="#DejaVuSans-52"/>
      </g>
     </g>
    </g>
    <g id="xtick_6">
     <g id="line2d_6">
      <g>
       <use style="stroke:#000000;stroke-width:0.8;" x="308.3905" xlink:href="#mfe6fd74797" y="307.584"/>
      </g>
     </g>
     <g id="text_6">
      <!-- 5 -->
      <defs>
       <path d="M 10.796875 72.90625 
L 49.515625 72.90625 
L 49.515625 64.59375 
L 19.828125 64.59375 
L 19.828125 46.734375 
Q 21.96875 47.46875 24.109375 47.828125 
Q 26.265625 48.1875 28.421875 48.1875 
Q 40.625 48.1875 47.75 41.5 
Q 54.890625 34.8125 54.890625 23.390625 
Q 54.890625 11.625 47.5625 5.09375 
Q 40.234375 -1.421875 26.90625 -1.421875 
Q 22.3125 -1.421875 17.546875 -0.640625 
Q 12.796875 0.140625 7.71875 1.703125 
L 7.71875 11.625 
Q 12.109375 9.234375 16.796875 8.0625 
Q 21.484375 6.890625 26.703125 6.890625 
Q 35.15625 6.890625 40.078125 11.328125 
Q 45.015625 15.765625 45.015625 23.390625 
Q 45.015625 31 40.078125 35.4375 
Q 35.15625 39.890625 26.703125 39.890625 
Q 22.75 39.890625 18.8125 39.015625 
Q 14.890625 38.140625 10.796875 36.28125 
z
" id="DejaVuSans-53"/>
      </defs>
      <g transform="translate(305.20925 322.182437)scale(0.1 -0.1)">
       <use xlink:href="#DejaVuSans-53"/>
      </g>
     </g>
    </g>
    <g id="xtick_7">
     <g id="line2d_7">
      <g>
       <use style="stroke:#000000;stroke-width:0.8;" x="353.311853" xlink:href="#mfe6fd74797" y="307.584"/>
      </g>
     </g>
     <g id="text_7">
      <!-- 6 -->
      <defs>
       <path d="M 33.015625 40.375 
Q 26.375 40.375 22.484375 35.828125 
Q 18.609375 31.296875 18.609375 23.390625 
Q 18.609375 15.53125 22.484375 10.953125 
Q 26.375 6.390625 33.015625 6.390625 
Q 39.65625 6.390625 43.53125 10.953125 
Q 47.40625 15.53125 47.40625 23.390625 
Q 47.40625 31.296875 43.53125 35.828125 
Q 39.65625 40.375 33.015625 40.375 
z
M 52.59375 71.296875 
L 52.59375 62.3125 
Q 48.875 64.0625 45.09375 64.984375 
Q 41.3125 65.921875 37.59375 65.921875 
Q 27.828125 65.921875 22.671875 59.328125 
Q 17.53125 52.734375 16.796875 39.40625 
Q 19.671875 43.65625 24.015625 45.921875 
Q 28.375 48.1875 33.59375 48.1875 
Q 44.578125 48.1875 50.953125 41.515625 
Q 57.328125 34.859375 57.328125 23.390625 
Q 57.328125 12.15625 50.6875 5.359375 
Q 44.046875 -1.421875 33.015625 -1.421875 
Q 20.359375 -1.421875 13.671875 8.265625 
Q 6.984375 17.96875 6.984375 36.375 
Q 6.984375 53.65625 15.1875 63.9375 
Q 23.390625 74.21875 37.203125 74.21875 
Q 40.921875 74.21875 44.703125 73.484375 
Q 48.484375 72.75 52.59375 71.296875 
z
" id="DejaVuSans-54"/>
      </defs>
      <g transform="translate(350.130603 322.182437)scale(0.1 -0.1)">
       <use xlink:href="#DejaVuSans-54"/>
      </g>
     </g>
    </g>
    <g id="xtick_8">
     <g id="line2d_8">
      <g>
       <use style="stroke:#000000;stroke-width:0.8;" x="398.233207" xlink:href="#mfe6fd74797" y="307.584"/>
      </g>
     </g>
     <g id="text_8">
      <!-- 7 -->
      <defs>
       <path d="M 8.203125 72.90625 
L 55.078125 72.90625 
L 55.078125 68.703125 
L 28.609375 0 
L 18.3125 0 
L 43.21875 64.59375 
L 8.203125 64.59375 
z
" id="DejaVuSans-55"/>
      </defs>
      <g transform="translate(395.051957 322.182437)scale(0.1 -0.1)">
       <use xlink:href="#DejaVuSans-55"/>
      </g>
     </g>
    </g>
   </g>
   <g id="matplotlib.axis_2">
    <g id="ytick_1">
     <g id="line2d_9">
      <defs>
       <path d="M 0 0 
L -3.5 0 
" id="m52fb05318b" style="stroke:#000000;stroke-width:0.8;"/>
      </defs>
      <g>
       <use style="stroke:#000000;stroke-width:0.8;" x="57.6" xlink:href="#m52fb05318b" y="307.584"/>
      </g>
     </g>
     <g id="text_9">
      <!-- 0.00 -->
      <defs>
       <path d="M 10.6875 12.40625 
L 21 12.40625 
L 21 0 
L 10.6875 0 
z
" id="DejaVuSans-46"/>
      </defs>
      <g transform="translate(28.334375 311.383219)scale(0.1 -0.1)">
       <use xlink:href="#DejaVuSans-48"/>
       <use x="63.623047" xlink:href="#DejaVuSans-46"/>
       <use x="95.410156" xlink:href="#DejaVuSans-48"/>
       <use x="159.033203" xlink:href="#DejaVuSans-48"/>
      </g>
     </g>
    </g>
    <g id="ytick_2">
     <g id="line2d_10">
      <g>
       <use style="stroke:#000000;stroke-width:0.8;" x="57.6" xlink:href="#m52fb05318b" y="274.993915"/>
      </g>
     </g>
     <g id="text_10">
      <!-- 0.25 -->
      <g transform="translate(28.334375 278.793134)scale(0.1 -0.1)">
       <use xlink:href="#DejaVuSans-48"/>
       <use x="63.623047" xlink:href="#DejaVuSans-46"/>
       <use x="95.410156" xlink:href="#DejaVuSans-50"/>
       <use x="159.033203" xlink:href="#DejaVuSans-53"/>
      </g>
     </g>
    </g>
    <g id="ytick_3">
     <g id="line2d_11">
      <g>
       <use style="stroke:#000000;stroke-width:0.8;" x="57.6" xlink:href="#m52fb05318b" y="242.40383"/>
      </g>
     </g>
     <g id="text_11">
      <!-- 0.50 -->
      <g transform="translate(28.334375 246.203049)scale(0.1 -0.1)">
       <use xlink:href="#DejaVuSans-48"/>
       <use x="63.623047" xlink:href="#DejaVuSans-46"/>
       <use x="95.410156" xlink:href="#DejaVuSans-53"/>
       <use x="159.033203" xlink:href="#DejaVuSans-48"/>
      </g>
     </g>
    </g>
    <g id="ytick_4">
     <g id="line2d_12">
      <g>
       <use style="stroke:#000000;stroke-width:0.8;" x="57.6" xlink:href="#m52fb05318b" y="209.813745"/>
      </g>
     </g>
     <g id="text_12">
      <!-- 0.75 -->
      <g transform="translate(28.334375 213.612964)scale(0.1 -0.1)">
       <use xlink:href="#DejaVuSans-48"/>
       <use x="63.623047" xlink:href="#DejaVuSans-46"/>
       <use x="95.410156" xlink:href="#DejaVuSans-55"/>
       <use x="159.033203" xlink:href="#DejaVuSans-53"/>
      </g>
     </g>
    </g>
    <g id="ytick_5">
     <g id="line2d_13">
      <g>
       <use style="stroke:#000000;stroke-width:0.8;" x="57.6" xlink:href="#m52fb05318b" y="177.22366"/>
      </g>
     </g>
     <g id="text_13">
      <!-- 1.00 -->
      <g transform="translate(28.334375 181.022879)scale(0.1 -0.1)">
       <use xlink:href="#DejaVuSans-49"/>
       <use x="63.623047" xlink:href="#DejaVuSans-46"/>
       <use x="95.410156" xlink:href="#DejaVuSans-48"/>
       <use x="159.033203" xlink:href="#DejaVuSans-48"/>
      </g>
     </g>
    </g>
    <g id="ytick_6">
     <g id="line2d_14">
      <g>
       <use style="stroke:#000000;stroke-width:0.8;" x="57.6" xlink:href="#m52fb05318b" y="144.633575"/>
      </g>
     </g>
     <g id="text_14">
      <!-- 1.25 -->
      <g transform="translate(28.334375 148.432794)scale(0.1 -0.1)">
       <use xlink:href="#DejaVuSans-49"/>
       <use x="63.623047" xlink:href="#DejaVuSans-46"/>
       <use x="95.410156" xlink:href="#DejaVuSans-50"/>
       <use x="159.033203" xlink:href="#DejaVuSans-53"/>
      </g>
     </g>
    </g>
    <g id="ytick_7">
     <g id="line2d_15">
      <g>
       <use style="stroke:#000000;stroke-width:0.8;" x="57.6" xlink:href="#m52fb05318b" y="112.04349"/>
      </g>
     </g>
     <g id="text_15">
      <!-- 1.50 -->
      <g transform="translate(28.334375 115.842709)scale(0.1 -0.1)">
       <use xlink:href="#DejaVuSans-49"/>
       <use x="63.623047" xlink:href="#DejaVuSans-46"/>
       <use x="95.410156" xlink:href="#DejaVuSans-53"/>
       <use x="159.033203" xlink:href="#DejaVuSans-48"/>
      </g>
     </g>
    </g>
    <g id="ytick_8">
     <g id="line2d_16">
      <g>
       <use style="stroke:#000000;stroke-width:0.8;" x="57.6" xlink:href="#m52fb05318b" y="79.453405"/>
      </g>
     </g>
     <g id="text_16">
      <!-- 1.75 -->
      <g transform="translate(28.334375 83.252624)scale(0.1 -0.1)">
       <use xlink:href="#DejaVuSans-49"/>
       <use x="63.623047" xlink:href="#DejaVuSans-46"/>
       <use x="95.410156" xlink:href="#DejaVuSans-55"/>
       <use x="159.033203" xlink:href="#DejaVuSans-53"/>
      </g>
     </g>
    </g>
    <g id="ytick_9">
     <g id="line2d_17">
      <g>
       <use style="stroke:#000000;stroke-width:0.8;" x="57.6" xlink:href="#m52fb05318b" y="46.86332"/>
      </g>
     </g>
     <g id="text_17">
      <!-- 2.00 -->
      <g transform="translate(28.334375 50.662539)scale(0.1 -0.1)">
       <use xlink:href="#DejaVuSans-50"/>
       <use x="63.623047" xlink:href="#DejaVuSans-46"/>
       <use x="95.410156" xlink:href="#DejaVuSans-48"/>
       <use x="159.033203" xlink:href="#DejaVuSans-48"/>
      </g>
     </g>
    </g>
   </g>
   <g id="line2d_18">
    <path clip-path="url(#pa35dd1d701)" d="M 73.832727 307.566964 
L 77.112066 307.474855 
L 80.391405 307.079742 
L 83.670744 305.867902 
L 86.950083 303.140229 
L 90.229421 298.382825 
L 93.50876 291.273998 
L 96.788099 281.030001 
L 100.067438 266.155279 
L 103.346777 245.214966 
L 106.626116 217.936873 
L 109.905455 186.592092 
L 113.184793 157.078112 
L 116.464132 137.458336 
L 119.743471 133.732111 
L 123.02281 145.903911 
L 126.302149 167.97183 
L 129.581488 192.457364 
L 132.860826 214.797164 
L 136.140165 233.540485 
L 139.419504 248.86217 
L 142.698843 261.769491 
L 145.978182 272.78595 
L 149.257521 281.235548 
L 152.53686 286.657126 
L 155.816198 289.998277 
L 159.095537 292.639454 
L 162.374876 295.08576 
L 165.654215 297.138201 
L 168.933554 298.558485 
L 172.212893 299.346453 
L 175.492231 299.80716 
L 178.77157 300.290466 
L 182.050909 300.88074 
L 185.330248 301.471383 
L 188.609587 301.996611 
L 191.888926 302.522105 
L 195.168264 303.155722 
L 198.447603 303.922067 
L 201.726942 304.726696 
L 205.006281 305.370058 
L 208.28562 305.671979 
L 211.564959 305.651198 
L 214.844298 305.515147 
L 218.123636 305.500921 
L 221.402975 305.729181 
L 224.682314 306.157365 
L 227.961653 306.657887 
L 231.240992 307.095317 
L 234.520331 307.366392 
L 237.799669 307.439105 
L 241.079008 307.347677 
L 244.358347 307.18176 
L 247.637686 307.077907 
L 250.917025 307.118442 
L 254.196364 307.223877 
L 257.475702 307.22443 
L 260.755041 307.041405 
L 264.03438 306.770357 
L 267.313719 306.594353 
L 270.593058 306.619259 
L 273.872397 306.809073 
L 277.151736 307.065192 
L 280.431074 307.302152 
L 283.710413 307.46583 
L 286.989752 307.547043 
L 290.269091 307.572142 
L 293.54843 307.563574 
L 296.827769 307.518601 
L 300.107107 307.432535 
L 303.386446 307.344135 
L 306.665785 307.324731 
L 309.945124 307.392736 
L 313.224463 307.487702 
L 316.503802 307.550909 
L 319.78314 307.576239 
L 323.062479 307.582758 
L 326.341818 307.583864 
L 329.621157 307.58399 
L 332.900496 307.583999 
L 336.179835 307.583999 
L 339.459174 307.58398 
L 342.738512 307.583757 
L 346.017851 307.581973 
L 349.29719 307.57248 
L 352.576529 307.539317 
L 355.855868 307.465712 
L 359.135207 307.370268 
L 362.414545 307.320271 
L 365.693884 307.360538 
L 368.973223 307.446742 
L 372.252562 307.494318 
L 375.531901 307.461375 
L 378.81124 307.376537 
L 382.090579 307.321135 
L 385.369917 307.354487 
L 388.649256 307.447103 
L 391.928595 307.528266 
L 395.207934 307.568514 
L 398.487273 307.581063 
" style="fill:none;stroke:#f48024;stroke-linecap:square;stroke-width:1.5;"/>
   </g>
   <g id="line2d_19">
    <path clip-path="url(#pa35dd1d701)" d="M 77.01735 307.568798 
L 79.859313 307.486665 
L 82.701277 307.142905 
L 85.54324 306.126038 
L 88.385203 303.924513 
L 91.227167 300.258711 
L 94.06913 295.19184 
L 96.911093 288.546003 
L 99.753057 278.942911 
L 102.59502 263.753778 
L 105.436983 240.499968 
L 108.278947 208.782838 
L 111.12091 171.808902 
L 113.962873 136.474589 
L 116.804837 111.275796 
L 119.6468 103.114865 
L 122.488763 114.327278 
L 125.330727 140.632366 
L 128.17269 172.951942 
L 131.014653 203.093061 
L 133.856617 227.204685 
L 136.69858 245.081419 
L 139.540543 258.315413 
L 142.382507 268.435679 
L 145.22447 275.795782 
L 148.066433 280.624968 
L 150.908397 284.21928 
L 153.75036 287.78192 
L 156.592323 291.299675 
L 159.434287 294.291437 
L 162.27625 296.549442 
L 165.118213 298.081961 
L 167.960177 298.966317 
L 170.80214 299.251659 
L 173.644103 299.101929 
L 176.486067 299.105255 
L 179.32803 299.972226 
L 182.169993 301.66444 
L 185.011957 303.262765 
L 187.85392 304.009089 
L 190.695883 304.034744 
L 193.537847 303.930834 
L 196.37981 304.149293 
L 199.221773 304.794735 
L 202.063737 305.597729 
L 204.9057 306.199729 
L 207.747663 306.498553 
L 210.589627 306.556095 
L 213.43159 306.431758 
L 216.273553 306.276684 
L 219.115517 306.302385 
L 221.95748 306.574224 
L 224.799443 306.965557 
L 227.641407 307.296839 
L 230.48337 307.474714 
L 233.325333 307.495945 
L 236.167297 307.359516 
L 239.00926 307.071196 
L 241.851223 306.767338 
L 244.693187 306.685625 
L 247.53515 306.885183 
L 250.377113 307.147216 
L 253.219077 307.261157 
L 256.06104 307.25575 
L 258.903003 307.281456 
L 261.744967 307.385483 
L 264.58693 307.496156 
L 267.428893 307.558033 
L 270.270857 307.578881 
L 273.11282 307.583327 
L 275.954783 307.583941 
L 278.796747 307.583992 
L 281.63871 307.583931 
L 284.480673 307.58323 
L 287.322637 307.578286 
L 290.1646 307.555723 
L 293.006563 307.490697 
L 295.848527 307.37874 
L 298.69049 307.282931 
L 301.532453 307.289571 
L 304.374417 307.392023 
L 307.21638 307.500542 
L 310.058343 307.55981 
L 312.900307 307.579325 
L 315.74227 307.583398 
L 318.584233 307.583948 
L 321.426197 307.583997 
L 324.26816 307.583993 
L 327.110123 307.583897 
L 329.952087 307.58292 
L 332.79405 307.576475 
L 335.636013 307.549036 
L 338.477977 307.475682 
L 341.31994 307.360265 
L 344.161903 307.27588 
L 347.003867 307.301083 
L 349.84583 307.410799 
L 352.687793 307.513304 
L 355.529757 307.564761 
L 358.37172 307.580509 
" style="fill:none;stroke:#008000;stroke-linecap:square;stroke-width:1.5;"/>
   </g>
   <g id="patch_203">
    <path d="M 57.6 307.584 
L 57.6 41.472 
" style="fill:none;stroke:#000000;stroke-linecap:square;stroke-linejoin:miter;stroke-width:0.8;"/>
   </g>
   <g id="patch_204">
    <path d="M 414.72 307.584 
L 414.72 41.472 
" style="fill:none;stroke:#000000;stroke-linecap:square;stroke-linejoin:miter;stroke-width:0.8;"/>
   </g>
   <g id="patch_205">
    <path d="M 57.6 307.584 
L 414.72 307.584 
" style="fill:none;stroke:#000000;stroke-linecap:square;stroke-linejoin:miter;stroke-width:0.8;"/>
   </g>
   <g id="patch_206">
    <path d="M 57.6 41.472 
L 414.72 41.472 
" style="fill:none;stroke:#000000;stroke-linecap:square;stroke-linejoin:miter;stroke-width:0.8;"/>
   </g>
   <g id="text_18">
    <!-- {'mae': 0.32, 'smape': 0.32, 'jsd': 0.106} -->
    <defs>
     <path d="M 51.125 -9.28125 
L 51.125 -16.3125 
L 48.09375 -16.3125 
Q 35.9375 -16.3125 31.8125 -12.6875 
Q 27.6875 -9.078125 27.6875 1.703125 
L 27.6875 13.375 
Q 27.6875 20.75 25.046875 23.578125 
Q 22.40625 26.421875 15.484375 26.421875 
L 12.5 26.421875 
L 12.5 33.40625 
L 15.484375 33.40625 
Q 22.46875 33.40625 25.078125 36.203125 
Q 27.6875 39.015625 27.6875 46.296875 
L 27.6875 58.015625 
Q 27.6875 68.796875 31.8125 72.390625 
Q 35.9375 75.984375 48.09375 75.984375 
L 51.125 75.984375 
L 51.125 69 
L 47.796875 69 
Q 40.921875 69 38.8125 66.84375 
Q 36.71875 64.703125 36.71875 57.8125 
L 36.71875 45.703125 
Q 36.71875 38.03125 34.5 34.5625 
Q 32.28125 31.109375 26.90625 29.890625 
Q 32.328125 28.5625 34.515625 25.09375 
Q 36.71875 21.625 36.71875 14.015625 
L 36.71875 1.90625 
Q 36.71875 -4.984375 38.8125 -7.125 
Q 40.921875 -9.28125 47.796875 -9.28125 
z
" id="DejaVuSans-123"/>
     <path d="M 17.921875 72.90625 
L 17.921875 45.796875 
L 9.625 45.796875 
L 9.625 72.90625 
z
" id="DejaVuSans-39"/>
     <path d="M 52 44.1875 
Q 55.375 50.25 60.0625 53.125 
Q 64.75 56 71.09375 56 
Q 79.640625 56 84.28125 50.015625 
Q 88.921875 44.046875 88.921875 33.015625 
L 88.921875 0 
L 79.890625 0 
L 79.890625 32.71875 
Q 79.890625 40.578125 77.09375 44.375 
Q 74.3125 48.1875 68.609375 48.1875 
Q 61.625 48.1875 57.5625 43.546875 
Q 53.515625 38.921875 53.515625 30.90625 
L 53.515625 0 
L 44.484375 0 
L 44.484375 32.71875 
Q 44.484375 40.625 41.703125 44.40625 
Q 38.921875 48.1875 33.109375 48.1875 
Q 26.21875 48.1875 22.15625 43.53125 
Q 18.109375 38.875 18.109375 30.90625 
L 18.109375 0 
L 9.078125 0 
L 9.078125 54.6875 
L 18.109375 54.6875 
L 18.109375 46.1875 
Q 21.1875 51.21875 25.484375 53.609375 
Q 29.78125 56 35.6875 56 
Q 41.65625 56 45.828125 52.96875 
Q 50 49.953125 52 44.1875 
z
" id="DejaVuSans-109"/>
     <path d="M 34.28125 27.484375 
Q 23.390625 27.484375 19.1875 25 
Q 14.984375 22.515625 14.984375 16.5 
Q 14.984375 11.71875 18.140625 8.90625 
Q 21.296875 6.109375 26.703125 6.109375 
Q 34.1875 6.109375 38.703125 11.40625 
Q 43.21875 16.703125 43.21875 25.484375 
L 43.21875 27.484375 
z
M 52.203125 31.203125 
L 52.203125 0 
L 43.21875 0 
L 43.21875 8.296875 
Q 40.140625 3.328125 35.546875 0.953125 
Q 30.953125 -1.421875 24.3125 -1.421875 
Q 15.921875 -1.421875 10.953125 3.296875 
Q 6 8.015625 6 15.921875 
Q 6 25.140625 12.171875 29.828125 
Q 18.359375 34.515625 30.609375 34.515625 
L 43.21875 34.515625 
L 43.21875 35.40625 
Q 43.21875 41.609375 39.140625 45 
Q 35.0625 48.390625 27.6875 48.390625 
Q 23 48.390625 18.546875 47.265625 
Q 14.109375 46.140625 10.015625 43.890625 
L 10.015625 52.203125 
Q 14.9375 54.109375 19.578125 55.046875 
Q 24.21875 56 28.609375 56 
Q 40.484375 56 46.34375 49.84375 
Q 52.203125 43.703125 52.203125 31.203125 
z
" id="DejaVuSans-97"/>
     <path d="M 56.203125 29.59375 
L 56.203125 25.203125 
L 14.890625 25.203125 
Q 15.484375 15.921875 20.484375 11.0625 
Q 25.484375 6.203125 34.421875 6.203125 
Q 39.59375 6.203125 44.453125 7.46875 
Q 49.3125 8.734375 54.109375 11.28125 
L 54.109375 2.78125 
Q 49.265625 0.734375 44.1875 -0.34375 
Q 39.109375 -1.421875 33.890625 -1.421875 
Q 20.796875 -1.421875 13.15625 6.1875 
Q 5.515625 13.8125 5.515625 26.8125 
Q 5.515625 40.234375 12.765625 48.109375 
Q 20.015625 56 32.328125 56 
Q 43.359375 56 49.78125 48.890625 
Q 56.203125 41.796875 56.203125 29.59375 
z
M 47.21875 32.234375 
Q 47.125 39.59375 43.09375 43.984375 
Q 39.0625 48.390625 32.421875 48.390625 
Q 24.90625 48.390625 20.390625 44.140625 
Q 15.875 39.890625 15.1875 32.171875 
z
" id="DejaVuSans-101"/>
     <path d="M 11.71875 12.40625 
L 22.015625 12.40625 
L 22.015625 0 
L 11.71875 0 
z
M 11.71875 51.703125 
L 22.015625 51.703125 
L 22.015625 39.3125 
L 11.71875 39.3125 
z
" id="DejaVuSans-58"/>
     <path id="DejaVuSans-32"/>
     <path d="M 11.71875 12.40625 
L 22.015625 12.40625 
L 22.015625 4 
L 14.015625 -11.625 
L 7.71875 -11.625 
L 11.71875 4 
z
" id="DejaVuSans-44"/>
     <path d="M 44.28125 53.078125 
L 44.28125 44.578125 
Q 40.484375 46.53125 36.375 47.5 
Q 32.28125 48.484375 27.875 48.484375 
Q 21.1875 48.484375 17.84375 46.4375 
Q 14.5 44.390625 14.5 40.28125 
Q 14.5 37.15625 16.890625 35.375 
Q 19.28125 33.59375 26.515625 31.984375 
L 29.59375 31.296875 
Q 39.15625 29.25 43.1875 25.515625 
Q 47.21875 21.78125 47.21875 15.09375 
Q 47.21875 7.46875 41.1875 3.015625 
Q 35.15625 -1.421875 24.609375 -1.421875 
Q 20.21875 -1.421875 15.453125 -0.5625 
Q 10.6875 0.296875 5.421875 2 
L 5.421875 11.28125 
Q 10.40625 8.6875 15.234375 7.390625 
Q 20.0625 6.109375 24.8125 6.109375 
Q 31.15625 6.109375 34.5625 8.28125 
Q 37.984375 10.453125 37.984375 14.40625 
Q 37.984375 18.0625 35.515625 20.015625 
Q 33.0625 21.96875 24.703125 23.78125 
L 21.578125 24.515625 
Q 13.234375 26.265625 9.515625 29.90625 
Q 5.8125 33.546875 5.8125 39.890625 
Q 5.8125 47.609375 11.28125 51.796875 
Q 16.75 56 26.8125 56 
Q 31.78125 56 36.171875 55.265625 
Q 40.578125 54.546875 44.28125 53.078125 
z
" id="DejaVuSans-115"/>
     <path d="M 18.109375 8.203125 
L 18.109375 -20.796875 
L 9.078125 -20.796875 
L 9.078125 54.6875 
L 18.109375 54.6875 
L 18.109375 46.390625 
Q 20.953125 51.265625 25.265625 53.625 
Q 29.59375 56 35.59375 56 
Q 45.5625 56 51.78125 48.09375 
Q 58.015625 40.1875 58.015625 27.296875 
Q 58.015625 14.40625 51.78125 6.484375 
Q 45.5625 -1.421875 35.59375 -1.421875 
Q 29.59375 -1.421875 25.265625 0.953125 
Q 20.953125 3.328125 18.109375 8.203125 
z
M 48.6875 27.296875 
Q 48.6875 37.203125 44.609375 42.84375 
Q 40.53125 48.484375 33.40625 48.484375 
Q 26.265625 48.484375 22.1875 42.84375 
Q 18.109375 37.203125 18.109375 27.296875 
Q 18.109375 17.390625 22.1875 11.75 
Q 26.265625 6.109375 33.40625 6.109375 
Q 40.53125 6.109375 44.609375 11.75 
Q 48.6875 17.390625 48.6875 27.296875 
z
" id="DejaVuSans-112"/>
     <path d="M 9.421875 54.6875 
L 18.40625 54.6875 
L 18.40625 -0.984375 
Q 18.40625 -11.421875 14.421875 -16.109375 
Q 10.453125 -20.796875 1.609375 -20.796875 
L -1.8125 -20.796875 
L -1.8125 -13.1875 
L 0.59375 -13.1875 
Q 5.71875 -13.1875 7.5625 -10.8125 
Q 9.421875 -8.453125 9.421875 -0.984375 
z
M 9.421875 75.984375 
L 18.40625 75.984375 
L 18.40625 64.59375 
L 9.421875 64.59375 
z
" id="DejaVuSans-106"/>
     <path d="M 45.40625 46.390625 
L 45.40625 75.984375 
L 54.390625 75.984375 
L 54.390625 0 
L 45.40625 0 
L 45.40625 8.203125 
Q 42.578125 3.328125 38.25 0.953125 
Q 33.9375 -1.421875 27.875 -1.421875 
Q 17.96875 -1.421875 11.734375 6.484375 
Q 5.515625 14.40625 5.515625 27.296875 
Q 5.515625 40.1875 11.734375 48.09375 
Q 17.96875 56 27.875 56 
Q 33.9375 56 38.25 53.625 
Q 42.578125 51.265625 45.40625 46.390625 
z
M 14.796875 27.296875 
Q 14.796875 17.390625 18.875 11.75 
Q 22.953125 6.109375 30.078125 6.109375 
Q 37.203125 6.109375 41.296875 11.75 
Q 45.40625 17.390625 45.40625 27.296875 
Q 45.40625 37.203125 41.296875 42.84375 
Q 37.203125 48.484375 30.078125 48.484375 
Q 22.953125 48.484375 18.875 42.84375 
Q 14.796875 37.203125 14.796875 27.296875 
z
" id="DejaVuSans-100"/>
     <path d="M 12.5 -9.28125 
L 15.921875 -9.28125 
Q 22.75 -9.28125 24.828125 -7.171875 
Q 26.90625 -5.078125 26.90625 1.90625 
L 26.90625 14.015625 
Q 26.90625 21.625 29.09375 25.09375 
Q 31.296875 28.5625 36.71875 29.890625 
Q 31.296875 31.109375 29.09375 34.5625 
Q 26.90625 38.03125 26.90625 45.703125 
L 26.90625 57.8125 
Q 26.90625 64.75 24.828125 66.875 
Q 22.75 69 15.921875 69 
L 12.5 69 
L 12.5 75.984375 
L 15.578125 75.984375 
Q 27.734375 75.984375 31.8125 72.390625 
Q 35.890625 68.796875 35.890625 58.015625 
L 35.890625 46.296875 
Q 35.890625 39.015625 38.515625 36.203125 
Q 41.15625 33.40625 48.09375 33.40625 
L 51.125 33.40625 
L 51.125 26.421875 
L 48.09375 26.421875 
Q 41.15625 26.421875 38.515625 23.578125 
Q 35.890625 20.75 35.890625 13.375 
L 35.890625 1.703125 
Q 35.890625 -9.078125 31.8125 -12.6875 
Q 27.734375 -16.3125 15.578125 -16.3125 
L 12.5 -16.3125 
z
" id="DejaVuSans-125"/>
    </defs>
    <g transform="translate(113.360625 35.472)scale(0.12 -0.12)">
     <use xlink:href="#DejaVuSans-123"/>
     <use x="63.623047" xlink:href="#DejaVuSans-39"/>
     <use x="91.113281" xlink:href="#DejaVuSans-109"/>
     <use x="188.525391" xlink:href="#DejaVuSans-97"/>
     <use x="249.804688" xlink:href="#DejaVuSans-101"/>
     <use x="311.328125" xlink:href="#DejaVuSans-39"/>
     <use x="338.818359" xlink:href="#DejaVuSans-58"/>
     <use x="372.509766" xlink:href="#DejaVuSans-32"/>
     <use x="404.296875" xlink:href="#DejaVuSans-48"/>
     <use x="467.919922" xlink:href="#DejaVuSans-46"/>
     <use x="499.707031" xlink:href="#DejaVuSans-51"/>
     <use x="563.330078" xlink:href="#DejaVuSans-50"/>
     <use x="626.953125" xlink:href="#DejaVuSans-44"/>
     <use x="658.740234" xlink:href="#DejaVuSans-32"/>
     <use x="690.527344" xlink:href="#DejaVuSans-39"/>
     <use x="718.017578" xlink:href="#DejaVuSans-115"/>
     <use x="770.117188" xlink:href="#DejaVuSans-109"/>
     <use x="867.529297" xlink:href="#DejaVuSans-97"/>
     <use x="928.808594" xlink:href="#DejaVuSans-112"/>
     <use x="992.285156" xlink:href="#DejaVuSans-101"/>
     <use x="1053.808594" xlink:href="#DejaVuSans-39"/>
     <use x="1081.298828" xlink:href="#DejaVuSans-58"/>
     <use x="1114.990234" xlink:href="#DejaVuSans-32"/>
     <use x="1146.777344" xlink:href="#DejaVuSans-48"/>
     <use x="1210.400391" xlink:href="#DejaVuSans-46"/>
     <use x="1242.1875" xlink:href="#DejaVuSans-51"/>
     <use x="1305.810547" xlink:href="#DejaVuSans-50"/>
     <use x="1369.433594" xlink:href="#DejaVuSans-44"/>
     <use x="1401.220703" xlink:href="#DejaVuSans-32"/>
     <use x="1433.007812" xlink:href="#DejaVuSans-39"/>
     <use x="1460.498047" xlink:href="#DejaVuSans-106"/>
     <use x="1488.28125" xlink:href="#DejaVuSans-115"/>
     <use x="1540.380859" xlink:href="#DejaVuSans-100"/>
     <use x="1603.857422" xlink:href="#DejaVuSans-39"/>
     <use x="1631.347656" xlink:href="#DejaVuSans-58"/>
     <use x="1665.039062" xlink:href="#DejaVuSans-32"/>
     <use x="1696.826172" xlink:href="#DejaVuSans-48"/>
     <use x="1760.449219" xlink:href="#DejaVuSans-46"/>
     <use x="1792.236328" xlink:href="#DejaVuSans-49"/>
     <use x="1855.859375" xlink:href="#DejaVuSans-48"/>
     <use x="1919.482422" xlink:href="#DejaVuSans-54"/>
     <use x="1983.105469" xlink:href="#DejaVuSans-125"/>
    </g>
   </g>
   <g id="legend_1">
    <g id="patch_207">
     <path d="M 340.565313 78.82825 
L 407.72 78.82825 
Q 409.72 78.82825 409.72 76.82825 
L 409.72 48.472 
Q 409.72 46.472 407.72 46.472 
L 340.565313 46.472 
Q 338.565313 46.472 338.565313 48.472 
L 338.565313 76.82825 
Q 338.565313 78.82825 340.565313 78.82825 
z
" style="fill:#ffffff;opacity:0.8;stroke:#cccccc;stroke-linejoin:miter;"/>
    </g>
    <g id="patch_208">
     <path d="M 342.565313 58.070437 
L 362.565313 58.070437 
L 362.565313 51.070437 
L 342.565313 51.070437 
z
" style="fill:#f48024;opacity:0.4;"/>
    </g>
    <g id="text_19">
     <!-- actual -->
     <defs>
      <path d="M 48.78125 52.59375 
L 48.78125 44.1875 
Q 44.96875 46.296875 41.140625 47.34375 
Q 37.3125 48.390625 33.40625 48.390625 
Q 24.65625 48.390625 19.8125 42.84375 
Q 14.984375 37.3125 14.984375 27.296875 
Q 14.984375 17.28125 19.8125 11.734375 
Q 24.65625 6.203125 33.40625 6.203125 
Q 37.3125 6.203125 41.140625 7.25 
Q 44.96875 8.296875 48.78125 10.40625 
L 48.78125 2.09375 
Q 45.015625 0.34375 40.984375 -0.53125 
Q 36.96875 -1.421875 32.421875 -1.421875 
Q 20.0625 -1.421875 12.78125 6.34375 
Q 5.515625 14.109375 5.515625 27.296875 
Q 5.515625 40.671875 12.859375 48.328125 
Q 20.21875 56 33.015625 56 
Q 37.15625 56 41.109375 55.140625 
Q 45.0625 54.296875 48.78125 52.59375 
z
" id="DejaVuSans-99"/>
      <path d="M 18.3125 70.21875 
L 18.3125 54.6875 
L 36.8125 54.6875 
L 36.8125 47.703125 
L 18.3125 47.703125 
L 18.3125 18.015625 
Q 18.3125 11.328125 20.140625 9.421875 
Q 21.96875 7.515625 27.59375 7.515625 
L 36.8125 7.515625 
L 36.8125 0 
L 27.59375 0 
Q 17.1875 0 13.234375 3.875 
Q 9.28125 7.765625 9.28125 18.015625 
L 9.28125 47.703125 
L 2.6875 47.703125 
L 2.6875 54.6875 
L 9.28125 54.6875 
L 9.28125 70.21875 
z
" id="DejaVuSans-116"/>
      <path d="M 8.5 21.578125 
L 8.5 54.6875 
L 17.484375 54.6875 
L 17.484375 21.921875 
Q 17.484375 14.15625 20.5 10.265625 
Q 23.53125 6.390625 29.59375 6.390625 
Q 36.859375 6.390625 41.078125 11.03125 
Q 45.3125 15.671875 45.3125 23.6875 
L 45.3125 54.6875 
L 54.296875 54.6875 
L 54.296875 0 
L 45.3125 0 
L 45.3125 8.40625 
Q 42.046875 3.421875 37.71875 1 
Q 33.40625 -1.421875 27.6875 -1.421875 
Q 18.265625 -1.421875 13.375 4.4375 
Q 8.5 10.296875 8.5 21.578125 
z
M 31.109375 56 
z
" id="DejaVuSans-117"/>
      <path d="M 9.421875 75.984375 
L 18.40625 75.984375 
L 18.40625 0 
L 9.421875 0 
z
" id="DejaVuSans-108"/>
     </defs>
     <g transform="translate(370.565313 58.070437)scale(0.1 -0.1)">
      <use xlink:href="#DejaVuSans-97"/>
      <use x="61.279297" xlink:href="#DejaVuSans-99"/>
      <use x="116.259766" xlink:href="#DejaVuSans-116"/>
      <use x="155.46875" xlink:href="#DejaVuSans-117"/>
      <use x="218.847656" xlink:href="#DejaVuSans-97"/>
      <use x="280.126953" xlink:href="#DejaVuSans-108"/>
     </g>
    </g>
    <g id="patch_209">
     <path d="M 342.565313 72.748562 
L 362.565313 72.748562 
L 362.565313 65.748562 
L 342.565313 65.748562 
z
" style="fill:#008000;opacity:0.4;"/>
    </g>
    <g id="text_20">
     <!-- predict -->
     <defs>
      <path d="M 41.109375 46.296875 
Q 39.59375 47.171875 37.8125 47.578125 
Q 36.03125 48 33.890625 48 
Q 26.265625 48 22.1875 43.046875 
Q 18.109375 38.09375 18.109375 28.8125 
L 18.109375 0 
L 9.078125 0 
L 9.078125 54.6875 
L 18.109375 54.6875 
L 18.109375 46.1875 
Q 20.953125 51.171875 25.484375 53.578125 
Q 30.03125 56 36.53125 56 
Q 37.453125 56 38.578125 55.875 
Q 39.703125 55.765625 41.0625 55.515625 
z
" id="DejaVuSans-114"/>
      <path d="M 9.421875 54.6875 
L 18.40625 54.6875 
L 18.40625 0 
L 9.421875 0 
z
M 9.421875 75.984375 
L 18.40625 75.984375 
L 18.40625 64.59375 
L 9.421875 64.59375 
z
" id="DejaVuSans-105"/>
     </defs>
     <g transform="translate(370.565313 72.748562)scale(0.1 -0.1)">
      <use xlink:href="#DejaVuSans-112"/>
      <use x="63.476562" xlink:href="#DejaVuSans-114"/>
      <use x="104.558594" xlink:href="#DejaVuSans-101"/>
      <use x="166.082031" xlink:href="#DejaVuSans-100"/>
      <use x="229.558594" xlink:href="#DejaVuSans-105"/>
      <use x="257.341797" xlink:href="#DejaVuSans-99"/>
      <use x="312.322266" xlink:href="#DejaVuSans-116"/>
     </g>
    </g>
   </g>
  </g>
 </g>
 <defs>
  <clipPath id="pa35dd1d701">
   <rect height="266.112" width="357.12" x="57.6" y="41.472"/>
  </clipPath>
 </defs>
</svg>
