<?xml version="1.0" encoding="utf-8" standalone="no"?>
<!DOCTYPE svg PUBLIC "-//W3C//DTD SVG 1.1//EN"
  "http://www.w3.org/Graphics/SVG/1.1/DTD/svg11.dtd">
<!-- Created with matplotlib (https://matplotlib.org/) -->
<svg height="345.6pt" version="1.1" viewBox="0 0 460.8 345.6" width="460.8pt" xmlns="http://www.w3.org/2000/svg" xmlns:xlink="http://www.w3.org/1999/xlink">
 <defs>
  <style type="text/css">
*{stroke-linecap:butt;stroke-linejoin:round;}
  </style>
 </defs>
 <g id="figure_1">
  <g id="patch_1">
   <path d="M 0 345.6 
L 460.8 345.6 
L 460.8 0 
L 0 0 
z
" style="fill:#ffffff;"/>
  </g>
  <g id="axes_1">
   <g id="patch_2">
    <path d="M 57.6 307.584 
L 414.72 307.584 
L 414.72 41.472 
L 57.6 41.472 
z
" style="fill:#ffffff;"/>
   </g>
   <g id="patch_3">
    <path clip-path="url(#pf0a033cfba)" d="M 116.143898 307.584 
L 118.540855 307.584 
L 118.540855 245.464979 
L 116.143898 245.464979 
z
" style="fill:#f48024;opacity:0.4;"/>
   </g>
   <g id="patch_4">
    <path clip-path="url(#pf0a033cfba)" d="M 118.540855 307.584 
L 120.937811 307.584 
L 120.937811 165.311402 
L 118.540855 165.311402 
z
" style="fill:#f48024;opacity:0.4;"/>
   </g>
   <g id="patch_5">
    <path clip-path="url(#pf0a033cfba)" d="M 120.937811 307.584 
L 123.334768 307.584 
L 123.334768 171.322921 
L 120.937811 171.322921 
z
" style="fill:#f48024;opacity:0.4;"/>
   </g>
   <g id="patch_6">
    <path clip-path="url(#pf0a033cfba)" d="M 123.334768 307.584 
L 125.731724 307.584 
L 125.731724 91.169345 
L 123.334768 91.169345 
z
" style="fill:#f48024;opacity:0.4;"/>
   </g>
   <g id="patch_7">
    <path clip-path="url(#pf0a033cfba)" d="M 125.731724 307.584 
L 128.128681 307.584 
L 128.128681 75.138629 
L 125.731724 75.138629 
z
" style="fill:#f48024;opacity:0.4;"/>
   </g>
   <g id="patch_8">
    <path clip-path="url(#pf0a033cfba)" d="M 128.128681 307.584 
L 130.525637 307.584 
L 130.525637 49.088717 
L 128.128681 49.088717 
z
" style="fill:#f48024;opacity:0.4;"/>
   </g>
   <g id="patch_9">
    <path clip-path="url(#pf0a033cfba)" d="M 130.525637 307.584 
L 132.922594 307.584 
L 132.922594 97.180863 
L 130.525637 97.180863 
z
" style="fill:#f48024;opacity:0.4;"/>
   </g>
   <g id="patch_10">
    <path clip-path="url(#pf0a033cfba)" d="M 132.922594 307.584 
L 135.319551 307.584 
L 135.319551 187.353636 
L 132.922594 187.353636 
z
" style="fill:#f48024;opacity:0.4;"/>
   </g>
   <g id="patch_11">
    <path clip-path="url(#pf0a033cfba)" d="M 135.319551 307.584 
L 137.716507 307.584 
L 137.716507 187.353636 
L 135.319551 187.353636 
z
" style="fill:#f48024;opacity:0.4;"/>
   </g>
   <g id="patch_12">
    <path clip-path="url(#pf0a033cfba)" d="M 137.716507 307.584 
L 140.113464 307.584 
L 140.113464 219.415066 
L 137.716507 219.415066 
z
" style="fill:#f48024;opacity:0.4;"/>
   </g>
   <g id="patch_13">
    <path clip-path="url(#pf0a033cfba)" d="M 140.113464 307.584 
L 142.51042 307.584 
L 142.51042 229.434263 
L 140.113464 229.434263 
z
" style="fill:#f48024;opacity:0.4;"/>
   </g>
   <g id="patch_14">
    <path clip-path="url(#pf0a033cfba)" d="M 142.51042 307.584 
L 144.907377 307.584 
L 144.907377 243.461139 
L 142.51042 243.461139 
z
" style="fill:#f48024;opacity:0.4;"/>
   </g>
   <g id="patch_15">
    <path clip-path="url(#pf0a033cfba)" d="M 144.907377 307.584 
L 147.304333 307.584 
L 147.304333 187.353636 
L 144.907377 187.353636 
z
" style="fill:#f48024;opacity:0.4;"/>
   </g>
   <g id="patch_16">
    <path clip-path="url(#pf0a033cfba)" d="M 147.304333 307.584 
L 149.70129 307.584 
L 149.70129 207.39203 
L 147.304333 207.39203 
z
" style="fill:#f48024;opacity:0.4;"/>
   </g>
   <g id="patch_17">
    <path clip-path="url(#pf0a033cfba)" d="M 149.70129 307.584 
L 152.098246 307.584 
L 152.098246 243.461139 
L 149.70129 243.461139 
z
" style="fill:#f48024;opacity:0.4;"/>
   </g>
   <g id="patch_18">
    <path clip-path="url(#pf0a033cfba)" d="M 152.098246 307.584 
L 154.495203 307.584 
L 154.495203 239.45346 
L 152.098246 239.45346 
z
" style="fill:#f48024;opacity:0.4;"/>
   </g>
   <g id="patch_19">
    <path clip-path="url(#pf0a033cfba)" d="M 154.495203 307.584 
L 156.89216 307.584 
L 156.89216 231.438103 
L 154.495203 231.438103 
z
" style="fill:#f48024;opacity:0.4;"/>
   </g>
   <g id="patch_20">
    <path clip-path="url(#pf0a033cfba)" d="M 156.89216 307.584 
L 159.289116 307.584 
L 159.289116 165.311402 
L 156.89216 165.311402 
z
" style="fill:#f48024;opacity:0.4;"/>
   </g>
   <g id="patch_21">
    <path clip-path="url(#pf0a033cfba)" d="M 159.289116 307.584 
L 161.686073 307.584 
L 161.686073 135.253811 
L 159.289116 135.253811 
z
" style="fill:#f48024;opacity:0.4;"/>
   </g>
   <g id="patch_22">
    <path clip-path="url(#pf0a033cfba)" d="M 161.686073 307.584 
L 164.083029 307.584 
L 164.083029 213.403548 
L 161.686073 213.403548 
z
" style="fill:#f48024;opacity:0.4;"/>
   </g>
   <g id="patch_23">
    <path clip-path="url(#pf0a033cfba)" d="M 164.083029 307.584 
L 166.479986 307.584 
L 166.479986 201.380512 
L 164.083029 201.380512 
z
" style="fill:#f48024;opacity:0.4;"/>
   </g>
   <g id="patch_24">
    <path clip-path="url(#pf0a033cfba)" d="M 166.479986 307.584 
L 168.876942 307.584 
L 168.876942 215.407387 
L 166.479986 215.407387 
z
" style="fill:#f48024;opacity:0.4;"/>
   </g>
   <g id="patch_25">
    <path clip-path="url(#pf0a033cfba)" d="M 168.876942 307.584 
L 171.273899 307.584 
L 171.273899 241.4573 
L 168.876942 241.4573 
z
" style="fill:#f48024;opacity:0.4;"/>
   </g>
   <g id="patch_26">
    <path clip-path="url(#pf0a033cfba)" d="M 171.273899 307.584 
L 173.670856 307.584 
L 173.670856 207.39203 
L 171.273899 207.39203 
z
" style="fill:#f48024;opacity:0.4;"/>
   </g>
   <g id="patch_27">
    <path clip-path="url(#pf0a033cfba)" d="M 173.670856 307.584 
L 176.067812 307.584 
L 176.067812 239.45346 
L 173.670856 239.45346 
z
" style="fill:#f48024;opacity:0.4;"/>
   </g>
   <g id="patch_28">
    <path clip-path="url(#pf0a033cfba)" d="M 176.067812 307.584 
L 178.464769 307.584 
L 178.464769 211.399709 
L 176.067812 211.399709 
z
" style="fill:#f48024;opacity:0.4;"/>
   </g>
   <g id="patch_29">
    <path clip-path="url(#pf0a033cfba)" d="M 178.464769 307.584 
L 180.861725 307.584 
L 180.861725 223.422745 
L 178.464769 223.422745 
z
" style="fill:#f48024;opacity:0.4;"/>
   </g>
   <g id="patch_30">
    <path clip-path="url(#pf0a033cfba)" d="M 180.861725 307.584 
L 183.258682 307.584 
L 183.258682 235.445782 
L 180.861725 235.445782 
z
" style="fill:#f48024;opacity:0.4;"/>
   </g>
   <g id="patch_31">
    <path clip-path="url(#pf0a033cfba)" d="M 183.258682 307.584 
L 185.655638 307.584 
L 185.655638 249.472657 
L 183.258682 249.472657 
z
" style="fill:#f48024;opacity:0.4;"/>
   </g>
   <g id="patch_32">
    <path clip-path="url(#pf0a033cfba)" d="M 185.655638 307.584 
L 188.052595 307.584 
L 188.052595 245.464979 
L 185.655638 245.464979 
z
" style="fill:#f48024;opacity:0.4;"/>
   </g>
   <g id="patch_33">
    <path clip-path="url(#pf0a033cfba)" d="M 188.052595 307.584 
L 190.449552 307.584 
L 190.449552 249.472657 
L 188.052595 249.472657 
z
" style="fill:#f48024;opacity:0.4;"/>
   </g>
   <g id="patch_34">
    <path clip-path="url(#pf0a033cfba)" d="M 190.449552 307.584 
L 192.846508 307.584 
L 192.846508 243.461139 
L 190.449552 243.461139 
z
" style="fill:#f48024;opacity:0.4;"/>
   </g>
   <g id="patch_35">
    <path clip-path="url(#pf0a033cfba)" d="M 192.846508 307.584 
L 195.243465 307.584 
L 195.243465 249.472657 
L 192.846508 249.472657 
z
" style="fill:#f48024;opacity:0.4;"/>
   </g>
   <g id="patch_36">
    <path clip-path="url(#pf0a033cfba)" d="M 195.243465 307.584 
L 197.640421 307.584 
L 197.640421 265.503373 
L 195.243465 265.503373 
z
" style="fill:#f48024;opacity:0.4;"/>
   </g>
   <g id="patch_37">
    <path clip-path="url(#pf0a033cfba)" d="M 197.640421 307.584 
L 200.037378 307.584 
L 200.037378 267.507212 
L 197.640421 267.507212 
z
" style="fill:#f48024;opacity:0.4;"/>
   </g>
   <g id="patch_38">
    <path clip-path="url(#pf0a033cfba)" d="M 200.037378 307.584 
L 202.434334 307.584 
L 202.434334 261.495694 
L 200.037378 261.495694 
z
" style="fill:#f48024;opacity:0.4;"/>
   </g>
   <g id="patch_39">
    <path clip-path="url(#pf0a033cfba)" d="M 202.434334 307.584 
L 204.831291 307.584 
L 204.831291 251.476497 
L 202.434334 251.476497 
z
" style="fill:#f48024;opacity:0.4;"/>
   </g>
   <g id="patch_40">
    <path clip-path="url(#pf0a033cfba)" d="M 204.831291 307.584 
L 207.228247 307.584 
L 207.228247 261.495694 
L 204.831291 261.495694 
z
" style="fill:#f48024;opacity:0.4;"/>
   </g>
   <g id="patch_41">
    <path clip-path="url(#pf0a033cfba)" d="M 207.228247 307.584 
L 209.625204 307.584 
L 209.625204 265.503373 
L 207.228247 265.503373 
z
" style="fill:#f48024;opacity:0.4;"/>
   </g>
   <g id="patch_42">
    <path clip-path="url(#pf0a033cfba)" d="M 209.625204 307.584 
L 212.022161 307.584 
L 212.022161 271.514891 
L 209.625204 271.514891 
z
" style="fill:#f48024;opacity:0.4;"/>
   </g>
   <g id="patch_43">
    <path clip-path="url(#pf0a033cfba)" d="M 212.022161 307.584 
L 214.419117 307.584 
L 214.419117 275.52257 
L 212.022161 275.52257 
z
" style="fill:#f48024;opacity:0.4;"/>
   </g>
   <g id="patch_44">
    <path clip-path="url(#pf0a033cfba)" d="M 214.419117 307.584 
L 216.816074 307.584 
L 216.816074 273.51873 
L 214.419117 273.51873 
z
" style="fill:#f48024;opacity:0.4;"/>
   </g>
   <g id="patch_45">
    <path clip-path="url(#pf0a033cfba)" d="M 216.816074 307.584 
L 219.21303 307.584 
L 219.21303 275.52257 
L 216.816074 275.52257 
z
" style="fill:#f48024;opacity:0.4;"/>
   </g>
   <g id="patch_46">
    <path clip-path="url(#pf0a033cfba)" d="M 219.21303 307.584 
L 221.609987 307.584 
L 221.609987 283.537927 
L 219.21303 283.537927 
z
" style="fill:#f48024;opacity:0.4;"/>
   </g>
   <g id="patch_47">
    <path clip-path="url(#pf0a033cfba)" d="M 221.609987 307.584 
L 224.006943 307.584 
L 224.006943 275.52257 
L 221.609987 275.52257 
z
" style="fill:#f48024;opacity:0.4;"/>
   </g>
   <g id="patch_48">
    <path clip-path="url(#pf0a033cfba)" d="M 224.006943 307.584 
L 226.4039 307.584 
L 226.4039 285.541767 
L 224.006943 285.541767 
z
" style="fill:#f48024;opacity:0.4;"/>
   </g>
   <g id="patch_49">
    <path clip-path="url(#pf0a033cfba)" d="M 226.4039 307.584 
L 228.800857 307.584 
L 228.800857 279.530248 
L 226.4039 279.530248 
z
" style="fill:#f48024;opacity:0.4;"/>
   </g>
   <g id="patch_50">
    <path clip-path="url(#pf0a033cfba)" d="M 228.800857 307.584 
L 231.197813 307.584 
L 231.197813 279.530248 
L 228.800857 279.530248 
z
" style="fill:#f48024;opacity:0.4;"/>
   </g>
   <g id="patch_51">
    <path clip-path="url(#pf0a033cfba)" d="M 231.197813 307.584 
L 233.59477 307.584 
L 233.59477 287.545606 
L 231.197813 287.545606 
z
" style="fill:#f48024;opacity:0.4;"/>
   </g>
   <g id="patch_52">
    <path clip-path="url(#pf0a033cfba)" d="M 233.59477 307.584 
L 235.991726 307.584 
L 235.991726 271.514891 
L 233.59477 271.514891 
z
" style="fill:#f48024;opacity:0.4;"/>
   </g>
   <g id="patch_53">
    <path clip-path="url(#pf0a033cfba)" d="M 235.991726 307.584 
L 238.388683 307.584 
L 238.388683 283.537927 
L 235.991726 283.537927 
z
" style="fill:#f48024;opacity:0.4;"/>
   </g>
   <g id="patch_54">
    <path clip-path="url(#pf0a033cfba)" d="M 238.388683 307.584 
L 240.785639 307.584 
L 240.785639 281.534088 
L 238.388683 281.534088 
z
" style="fill:#f48024;opacity:0.4;"/>
   </g>
   <g id="patch_55">
    <path clip-path="url(#pf0a033cfba)" d="M 240.785639 307.584 
L 243.182596 307.584 
L 243.182596 265.503373 
L 240.785639 265.503373 
z
" style="fill:#f48024;opacity:0.4;"/>
   </g>
   <g id="patch_56">
    <path clip-path="url(#pf0a033cfba)" d="M 243.182596 307.584 
L 245.579552 307.584 
L 245.579552 265.503373 
L 243.182596 265.503373 
z
" style="fill:#f48024;opacity:0.4;"/>
   </g>
   <g id="patch_57">
    <path clip-path="url(#pf0a033cfba)" d="M 245.579552 307.584 
L 247.976509 307.584 
L 247.976509 265.503373 
L 245.579552 265.503373 
z
" style="fill:#f48024;opacity:0.4;"/>
   </g>
   <g id="patch_58">
    <path clip-path="url(#pf0a033cfba)" d="M 247.976509 307.584 
L 250.373466 307.584 
L 250.373466 269.511051 
L 247.976509 269.511051 
z
" style="fill:#f48024;opacity:0.4;"/>
   </g>
   <g id="patch_59">
    <path clip-path="url(#pf0a033cfba)" d="M 250.373466 307.584 
L 252.770422 307.584 
L 252.770422 281.534088 
L 250.373466 281.534088 
z
" style="fill:#f48024;opacity:0.4;"/>
   </g>
   <g id="patch_60">
    <path clip-path="url(#pf0a033cfba)" d="M 252.770422 307.584 
L 255.167379 307.584 
L 255.167379 275.52257 
L 252.770422 275.52257 
z
" style="fill:#f48024;opacity:0.4;"/>
   </g>
   <g id="patch_61">
    <path clip-path="url(#pf0a033cfba)" d="M 255.167379 307.584 
L 257.564335 307.584 
L 257.564335 289.549445 
L 255.167379 289.549445 
z
" style="fill:#f48024;opacity:0.4;"/>
   </g>
   <g id="patch_62">
    <path clip-path="url(#pf0a033cfba)" d="M 257.564335 307.584 
L 259.961292 307.584 
L 259.961292 289.549445 
L 257.564335 289.549445 
z
" style="fill:#f48024;opacity:0.4;"/>
   </g>
   <g id="patch_63">
    <path clip-path="url(#pf0a033cfba)" d="M 259.961292 307.584 
L 262.358248 307.584 
L 262.358248 283.537927 
L 259.961292 283.537927 
z
" style="fill:#f48024;opacity:0.4;"/>
   </g>
   <g id="patch_64">
    <path clip-path="url(#pf0a033cfba)" d="M 262.358248 307.584 
L 264.755205 307.584 
L 264.755205 293.557124 
L 262.358248 293.557124 
z
" style="fill:#f48024;opacity:0.4;"/>
   </g>
   <g id="patch_65">
    <path clip-path="url(#pf0a033cfba)" d="M 264.755205 307.584 
L 267.152162 307.584 
L 267.152162 287.545606 
L 264.755205 287.545606 
z
" style="fill:#f48024;opacity:0.4;"/>
   </g>
   <g id="patch_66">
    <path clip-path="url(#pf0a033cfba)" d="M 267.152162 307.584 
L 269.549118 307.584 
L 269.549118 283.537927 
L 267.152162 283.537927 
z
" style="fill:#f48024;opacity:0.4;"/>
   </g>
   <g id="patch_67">
    <path clip-path="url(#pf0a033cfba)" d="M 269.549118 307.584 
L 271.946075 307.584 
L 271.946075 283.537927 
L 269.549118 283.537927 
z
" style="fill:#f48024;opacity:0.4;"/>
   </g>
   <g id="patch_68">
    <path clip-path="url(#pf0a033cfba)" d="M 271.946075 307.584 
L 274.343031 307.584 
L 274.343031 279.530248 
L 271.946075 279.530248 
z
" style="fill:#f48024;opacity:0.4;"/>
   </g>
   <g id="patch_69">
    <path clip-path="url(#pf0a033cfba)" d="M 274.343031 307.584 
L 276.739988 307.584 
L 276.739988 297.564803 
L 274.343031 297.564803 
z
" style="fill:#f48024;opacity:0.4;"/>
   </g>
   <g id="patch_70">
    <path clip-path="url(#pf0a033cfba)" d="M 276.739988 307.584 
L 279.136944 307.584 
L 279.136944 277.526409 
L 276.739988 277.526409 
z
" style="fill:#f48024;opacity:0.4;"/>
   </g>
   <g id="patch_71">
    <path clip-path="url(#pf0a033cfba)" d="M 279.136944 307.584 
L 281.533901 307.584 
L 281.533901 273.51873 
L 279.136944 273.51873 
z
" style="fill:#f48024;opacity:0.4;"/>
   </g>
   <g id="patch_72">
    <path clip-path="url(#pf0a033cfba)" d="M 281.533901 307.584 
L 283.930858 307.584 
L 283.930858 263.499533 
L 281.533901 263.499533 
z
" style="fill:#f48024;opacity:0.4;"/>
   </g>
   <g id="patch_73">
    <path clip-path="url(#pf0a033cfba)" d="M 283.930858 307.584 
L 286.327814 307.584 
L 286.327814 263.499533 
L 283.930858 263.499533 
z
" style="fill:#f48024;opacity:0.4;"/>
   </g>
   <g id="patch_74">
    <path clip-path="url(#pf0a033cfba)" d="M 286.327814 307.584 
L 288.724771 307.584 
L 288.724771 261.495694 
L 286.327814 261.495694 
z
" style="fill:#f48024;opacity:0.4;"/>
   </g>
   <g id="patch_75">
    <path clip-path="url(#pf0a033cfba)" d="M 288.724771 307.584 
L 291.121727 307.584 
L 291.121727 265.503373 
L 288.724771 265.503373 
z
" style="fill:#f48024;opacity:0.4;"/>
   </g>
   <g id="patch_76">
    <path clip-path="url(#pf0a033cfba)" d="M 291.121727 307.584 
L 293.518684 307.584 
L 293.518684 261.495694 
L 291.121727 261.495694 
z
" style="fill:#f48024;opacity:0.4;"/>
   </g>
   <g id="patch_77">
    <path clip-path="url(#pf0a033cfba)" d="M 293.518684 307.584 
L 295.91564 307.584 
L 295.91564 255.484176 
L 293.518684 255.484176 
z
" style="fill:#f48024;opacity:0.4;"/>
   </g>
   <g id="patch_78">
    <path clip-path="url(#pf0a033cfba)" d="M 295.91564 307.584 
L 298.312597 307.584 
L 298.312597 249.472657 
L 295.91564 249.472657 
z
" style="fill:#f48024;opacity:0.4;"/>
   </g>
   <g id="patch_79">
    <path clip-path="url(#pf0a033cfba)" d="M 298.312597 307.584 
L 300.709553 307.584 
L 300.709553 219.415066 
L 298.312597 219.415066 
z
" style="fill:#f48024;opacity:0.4;"/>
   </g>
   <g id="patch_80">
    <path clip-path="url(#pf0a033cfba)" d="M 300.709553 307.584 
L 303.10651 307.584 
L 303.10651 243.461139 
L 300.709553 243.461139 
z
" style="fill:#f48024;opacity:0.4;"/>
   </g>
   <g id="patch_81">
    <path clip-path="url(#pf0a033cfba)" d="M 303.10651 307.584 
L 305.503467 307.584 
L 305.503467 237.449621 
L 303.10651 237.449621 
z
" style="fill:#f48024;opacity:0.4;"/>
   </g>
   <g id="patch_82">
    <path clip-path="url(#pf0a033cfba)" d="M 305.503467 307.584 
L 307.900423 307.584 
L 307.900423 241.4573 
L 305.503467 241.4573 
z
" style="fill:#f48024;opacity:0.4;"/>
   </g>
   <g id="patch_83">
    <path clip-path="url(#pf0a033cfba)" d="M 307.900423 307.584 
L 310.29738 307.584 
L 310.29738 251.476497 
L 307.900423 251.476497 
z
" style="fill:#f48024;opacity:0.4;"/>
   </g>
   <g id="patch_84">
    <path clip-path="url(#pf0a033cfba)" d="M 310.29738 307.584 
L 312.694336 307.584 
L 312.694336 247.468818 
L 310.29738 247.468818 
z
" style="fill:#f48024;opacity:0.4;"/>
   </g>
   <g id="patch_85">
    <path clip-path="url(#pf0a033cfba)" d="M 312.694336 307.584 
L 315.091293 307.584 
L 315.091293 239.45346 
L 312.694336 239.45346 
z
" style="fill:#f48024;opacity:0.4;"/>
   </g>
   <g id="patch_86">
    <path clip-path="url(#pf0a033cfba)" d="M 315.091293 307.584 
L 317.488249 307.584 
L 317.488249 263.499533 
L 315.091293 263.499533 
z
" style="fill:#f48024;opacity:0.4;"/>
   </g>
   <g id="patch_87">
    <path clip-path="url(#pf0a033cfba)" d="M 317.488249 307.584 
L 319.885206 307.584 
L 319.885206 271.514891 
L 317.488249 271.514891 
z
" style="fill:#f48024;opacity:0.4;"/>
   </g>
   <g id="patch_88">
    <path clip-path="url(#pf0a033cfba)" d="M 319.885206 307.584 
L 322.282163 307.584 
L 322.282163 269.511051 
L 319.885206 269.511051 
z
" style="fill:#f48024;opacity:0.4;"/>
   </g>
   <g id="patch_89">
    <path clip-path="url(#pf0a033cfba)" d="M 322.282163 307.584 
L 324.679119 307.584 
L 324.679119 273.51873 
L 322.282163 273.51873 
z
" style="fill:#f48024;opacity:0.4;"/>
   </g>
   <g id="patch_90">
    <path clip-path="url(#pf0a033cfba)" d="M 324.679119 307.584 
L 327.076076 307.584 
L 327.076076 287.545606 
L 324.679119 287.545606 
z
" style="fill:#f48024;opacity:0.4;"/>
   </g>
   <g id="patch_91">
    <path clip-path="url(#pf0a033cfba)" d="M 327.076076 307.584 
L 329.473032 307.584 
L 329.473032 277.526409 
L 327.076076 277.526409 
z
" style="fill:#f48024;opacity:0.4;"/>
   </g>
   <g id="patch_92">
    <path clip-path="url(#pf0a033cfba)" d="M 329.473032 307.584 
L 331.869989 307.584 
L 331.869989 289.549445 
L 329.473032 289.549445 
z
" style="fill:#f48024;opacity:0.4;"/>
   </g>
   <g id="patch_93">
    <path clip-path="url(#pf0a033cfba)" d="M 331.869989 307.584 
L 334.266945 307.584 
L 334.266945 269.511051 
L 331.869989 269.511051 
z
" style="fill:#f48024;opacity:0.4;"/>
   </g>
   <g id="patch_94">
    <path clip-path="url(#pf0a033cfba)" d="M 334.266945 307.584 
L 336.663902 307.584 
L 336.663902 271.514891 
L 334.266945 271.514891 
z
" style="fill:#f48024;opacity:0.4;"/>
   </g>
   <g id="patch_95">
    <path clip-path="url(#pf0a033cfba)" d="M 336.663902 307.584 
L 339.060858 307.584 
L 339.060858 267.507212 
L 336.663902 267.507212 
z
" style="fill:#f48024;opacity:0.4;"/>
   </g>
   <g id="patch_96">
    <path clip-path="url(#pf0a033cfba)" d="M 339.060858 307.584 
L 341.457815 307.584 
L 341.457815 275.52257 
L 339.060858 275.52257 
z
" style="fill:#f48024;opacity:0.4;"/>
   </g>
   <g id="patch_97">
    <path clip-path="url(#pf0a033cfba)" d="M 341.457815 307.584 
L 343.854772 307.584 
L 343.854772 281.534088 
L 341.457815 281.534088 
z
" style="fill:#f48024;opacity:0.4;"/>
   </g>
   <g id="patch_98">
    <path clip-path="url(#pf0a033cfba)" d="M 343.854772 307.584 
L 346.251728 307.584 
L 346.251728 291.553285 
L 343.854772 291.553285 
z
" style="fill:#f48024;opacity:0.4;"/>
   </g>
   <g id="patch_99">
    <path clip-path="url(#pf0a033cfba)" d="M 346.251728 307.584 
L 348.648685 307.584 
L 348.648685 291.553285 
L 346.251728 291.553285 
z
" style="fill:#f48024;opacity:0.4;"/>
   </g>
   <g id="patch_100">
    <path clip-path="url(#pf0a033cfba)" d="M 348.648685 307.584 
L 351.045641 307.584 
L 351.045641 293.557124 
L 348.648685 293.557124 
z
" style="fill:#f48024;opacity:0.4;"/>
   </g>
   <g id="patch_101">
    <path clip-path="url(#pf0a033cfba)" d="M 351.045641 307.584 
L 353.442598 307.584 
L 353.442598 303.576321 
L 351.045641 303.576321 
z
" style="fill:#f48024;opacity:0.4;"/>
   </g>
   <g id="patch_102">
    <path clip-path="url(#pf0a033cfba)" d="M 353.442598 307.584 
L 355.839554 307.584 
L 355.839554 303.576321 
L 353.442598 303.576321 
z
" style="fill:#f48024;opacity:0.4;"/>
   </g>
   <g id="patch_103">
    <path clip-path="url(#pf0a033cfba)" d="M 116.132638 307.584 
L 118.533185 307.584 
L 118.533185 243.557053 
L 116.132638 243.557053 
z
" style="fill:#008000;opacity:0.4;"/>
   </g>
   <g id="patch_104">
    <path clip-path="url(#pf0a033cfba)" d="M 118.533185 307.584 
L 120.933732 307.584 
L 120.933732 171.526737 
L 118.533185 171.526737 
z
" style="fill:#008000;opacity:0.4;"/>
   </g>
   <g id="patch_105">
    <path clip-path="url(#pf0a033cfba)" d="M 120.933732 307.584 
L 123.334279 307.584 
L 123.334279 169.525895 
L 120.933732 169.525895 
z
" style="fill:#008000;opacity:0.4;"/>
   </g>
   <g id="patch_106">
    <path clip-path="url(#pf0a033cfba)" d="M 123.334279 307.584 
L 125.734827 307.584 
L 125.734827 89.492211 
L 123.334279 89.492211 
z
" style="fill:#008000;opacity:0.4;"/>
   </g>
   <g id="patch_107">
    <path clip-path="url(#pf0a033cfba)" d="M 125.734827 307.584 
L 128.135374 307.584 
L 128.135374 77.487158 
L 125.734827 77.487158 
z
" style="fill:#008000;opacity:0.4;"/>
   </g>
   <g id="patch_108">
    <path clip-path="url(#pf0a033cfba)" d="M 128.135374 307.584 
L 130.535921 307.584 
L 130.535921 41.472 
L 128.135374 41.472 
z
" style="fill:#008000;opacity:0.4;"/>
   </g>
   <g id="patch_109">
    <path clip-path="url(#pf0a033cfba)" d="M 130.535921 307.584 
L 132.936468 307.584 
L 132.936468 107.499789 
L 130.535921 107.499789 
z
" style="fill:#008000;opacity:0.4;"/>
   </g>
   <g id="patch_110">
    <path clip-path="url(#pf0a033cfba)" d="M 132.936468 307.584 
L 135.337016 307.584 
L 135.337016 177.529263 
L 132.936468 177.529263 
z
" style="fill:#008000;opacity:0.4;"/>
   </g>
   <g id="patch_111">
    <path clip-path="url(#pf0a033cfba)" d="M 135.337016 307.584 
L 137.737563 307.584 
L 137.737563 187.533474 
L 135.337016 187.533474 
z
" style="fill:#008000;opacity:0.4;"/>
   </g>
   <g id="patch_112">
    <path clip-path="url(#pf0a033cfba)" d="M 137.737563 307.584 
L 140.13811 307.584 
L 140.13811 221.547789 
L 137.737563 221.547789 
z
" style="fill:#008000;opacity:0.4;"/>
   </g>
   <g id="patch_113">
    <path clip-path="url(#pf0a033cfba)" d="M 140.13811 307.584 
L 142.538657 307.584 
L 142.538657 231.552 
L 140.13811 231.552 
z
" style="fill:#008000;opacity:0.4;"/>
   </g>
   <g id="patch_114">
    <path clip-path="url(#pf0a033cfba)" d="M 142.538657 307.584 
L 144.939205 307.584 
L 144.939205 241.556211 
L 142.538657 241.556211 
z
" style="fill:#008000;opacity:0.4;"/>
   </g>
   <g id="patch_115">
    <path clip-path="url(#pf0a033cfba)" d="M 144.939205 307.584 
L 147.339752 307.584 
L 147.339752 183.531789 
L 144.939205 183.531789 
z
" style="fill:#008000;opacity:0.4;"/>
   </g>
   <g id="patch_116">
    <path clip-path="url(#pf0a033cfba)" d="M 147.339752 307.584 
L 149.740299 307.584 
L 149.740299 211.543579 
L 147.339752 211.543579 
z
" style="fill:#008000;opacity:0.4;"/>
   </g>
   <g id="patch_117">
    <path clip-path="url(#pf0a033cfba)" d="M 149.740299 307.584 
L 152.140846 307.584 
L 152.140846 241.556211 
L 149.740299 241.556211 
z
" style="fill:#008000;opacity:0.4;"/>
   </g>
   <g id="patch_118">
    <path clip-path="url(#pf0a033cfba)" d="M 152.140846 307.584 
L 154.541394 307.584 
L 154.541394 237.554526 
L 152.140846 237.554526 
z
" style="fill:#008000;opacity:0.4;"/>
   </g>
   <g id="patch_119">
    <path clip-path="url(#pf0a033cfba)" d="M 154.541394 307.584 
L 156.941941 307.584 
L 156.941941 237.554526 
L 154.541394 237.554526 
z
" style="fill:#008000;opacity:0.4;"/>
   </g>
   <g id="patch_120">
    <path clip-path="url(#pf0a033cfba)" d="M 156.941941 307.584 
L 159.342488 307.584 
L 159.342488 163.523368 
L 156.941941 163.523368 
z
" style="fill:#008000;opacity:0.4;"/>
   </g>
   <g id="patch_121">
    <path clip-path="url(#pf0a033cfba)" d="M 159.342488 307.584 
L 161.743035 307.584 
L 161.743035 131.509895 
L 159.342488 131.509895 
z
" style="fill:#008000;opacity:0.4;"/>
   </g>
   <g id="patch_122">
    <path clip-path="url(#pf0a033cfba)" d="M 161.743035 307.584 
L 164.143583 307.584 
L 164.143583 219.546947 
L 161.743035 219.546947 
z
" style="fill:#008000;opacity:0.4;"/>
   </g>
   <g id="patch_123">
    <path clip-path="url(#pf0a033cfba)" d="M 164.143583 307.584 
L 166.54413 307.584 
L 166.54413 195.536842 
L 164.143583 195.536842 
z
" style="fill:#008000;opacity:0.4;"/>
   </g>
   <g id="patch_124">
    <path clip-path="url(#pf0a033cfba)" d="M 166.54413 307.584 
L 168.944677 307.584 
L 168.944677 213.544421 
L 166.54413 213.544421 
z
" style="fill:#008000;opacity:0.4;"/>
   </g>
   <g id="patch_125">
    <path clip-path="url(#pf0a033cfba)" d="M 168.944677 307.584 
L 171.345224 307.584 
L 171.345224 239.555368 
L 168.944677 239.555368 
z
" style="fill:#008000;opacity:0.4;"/>
   </g>
   <g id="patch_126">
    <path clip-path="url(#pf0a033cfba)" d="M 171.345224 307.584 
L 173.745772 307.584 
L 173.745772 215.545263 
L 171.345224 215.545263 
z
" style="fill:#008000;opacity:0.4;"/>
   </g>
   <g id="patch_127">
    <path clip-path="url(#pf0a033cfba)" d="M 173.745772 307.584 
L 176.146319 307.584 
L 176.146319 241.556211 
L 173.745772 241.556211 
z
" style="fill:#008000;opacity:0.4;"/>
   </g>
   <g id="patch_128">
    <path clip-path="url(#pf0a033cfba)" d="M 176.146319 307.584 
L 178.546866 307.584 
L 178.546866 203.540211 
L 176.146319 203.540211 
z
" style="fill:#008000;opacity:0.4;"/>
   </g>
   <g id="patch_129">
    <path clip-path="url(#pf0a033cfba)" d="M 178.546866 307.584 
L 180.947413 307.584 
L 180.947413 225.549474 
L 178.546866 225.549474 
z
" style="fill:#008000;opacity:0.4;"/>
   </g>
   <g id="patch_130">
    <path clip-path="url(#pf0a033cfba)" d="M 180.947413 307.584 
L 183.347961 307.584 
L 183.347961 237.554526 
L 180.947413 237.554526 
z
" style="fill:#008000;opacity:0.4;"/>
   </g>
   <g id="patch_131">
    <path clip-path="url(#pf0a033cfba)" d="M 183.347961 307.584 
L 185.748508 307.584 
L 185.748508 245.557895 
L 183.347961 245.557895 
z
" style="fill:#008000;opacity:0.4;"/>
   </g>
   <g id="patch_132">
    <path clip-path="url(#pf0a033cfba)" d="M 185.748508 307.584 
L 188.149055 307.584 
L 188.149055 253.561263 
L 185.748508 253.561263 
z
" style="fill:#008000;opacity:0.4;"/>
   </g>
   <g id="patch_133">
    <path clip-path="url(#pf0a033cfba)" d="M 188.149055 307.584 
L 190.549602 307.584 
L 190.549602 243.557053 
L 188.149055 243.557053 
z
" style="fill:#008000;opacity:0.4;"/>
   </g>
   <g id="patch_134">
    <path clip-path="url(#pf0a033cfba)" d="M 190.549602 307.584 
L 192.95015 307.584 
L 192.95015 249.559579 
L 190.549602 249.559579 
z
" style="fill:#008000;opacity:0.4;"/>
   </g>
   <g id="patch_135">
    <path clip-path="url(#pf0a033cfba)" d="M 192.95015 307.584 
L 195.350697 307.584 
L 195.350697 243.557053 
L 192.95015 243.557053 
z
" style="fill:#008000;opacity:0.4;"/>
   </g>
   <g id="patch_136">
    <path clip-path="url(#pf0a033cfba)" d="M 195.350697 307.584 
L 197.751244 307.584 
L 197.751244 269.568 
L 195.350697 269.568 
z
" style="fill:#008000;opacity:0.4;"/>
   </g>
   <g id="patch_137">
    <path clip-path="url(#pf0a033cfba)" d="M 197.751244 307.584 
L 200.151791 307.584 
L 200.151791 269.568 
L 197.751244 269.568 
z
" style="fill:#008000;opacity:0.4;"/>
   </g>
   <g id="patch_138">
    <path clip-path="url(#pf0a033cfba)" d="M 200.151791 307.584 
L 202.552339 307.584 
L 202.552339 251.560421 
L 200.151791 251.560421 
z
" style="fill:#008000;opacity:0.4;"/>
   </g>
   <g id="patch_139">
    <path clip-path="url(#pf0a033cfba)" d="M 202.552339 307.584 
L 204.952886 307.584 
L 204.952886 261.564632 
L 202.552339 261.564632 
z
" style="fill:#008000;opacity:0.4;"/>
   </g>
   <g id="patch_140">
    <path clip-path="url(#pf0a033cfba)" d="M 204.952886 307.584 
L 207.353433 307.584 
L 207.353433 255.562105 
L 204.952886 255.562105 
z
" style="fill:#008000;opacity:0.4;"/>
   </g>
   <g id="patch_141">
    <path clip-path="url(#pf0a033cfba)" d="M 207.353433 307.584 
L 209.75398 307.584 
L 209.75398 265.566316 
L 207.353433 265.566316 
z
" style="fill:#008000;opacity:0.4;"/>
   </g>
   <g id="patch_142">
    <path clip-path="url(#pf0a033cfba)" d="M 209.75398 307.584 
L 212.154528 307.584 
L 212.154528 277.571368 
L 209.75398 277.571368 
z
" style="fill:#008000;opacity:0.4;"/>
   </g>
   <g id="patch_143">
    <path clip-path="url(#pf0a033cfba)" d="M 212.154528 307.584 
L 214.555075 307.584 
L 214.555075 271.568842 
L 212.154528 271.568842 
z
" style="fill:#008000;opacity:0.4;"/>
   </g>
   <g id="patch_144">
    <path clip-path="url(#pf0a033cfba)" d="M 214.555075 307.584 
L 216.955622 307.584 
L 216.955622 277.571368 
L 214.555075 277.571368 
z
" style="fill:#008000;opacity:0.4;"/>
   </g>
   <g id="patch_145">
    <path clip-path="url(#pf0a033cfba)" d="M 216.955622 307.584 
L 219.356169 307.584 
L 219.356169 275.570526 
L 216.955622 275.570526 
z
" style="fill:#008000;opacity:0.4;"/>
   </g>
   <g id="patch_146">
    <path clip-path="url(#pf0a033cfba)" d="M 219.356169 307.584 
L 221.756717 307.584 
L 221.756717 285.574737 
L 219.356169 285.574737 
z
" style="fill:#008000;opacity:0.4;"/>
   </g>
   <g id="patch_147">
    <path clip-path="url(#pf0a033cfba)" d="M 221.756717 307.584 
L 224.157264 307.584 
L 224.157264 275.570526 
L 221.756717 275.570526 
z
" style="fill:#008000;opacity:0.4;"/>
   </g>
   <g id="patch_148">
    <path clip-path="url(#pf0a033cfba)" d="M 224.157264 307.584 
L 226.557811 307.584 
L 226.557811 283.573895 
L 224.157264 283.573895 
z
" style="fill:#008000;opacity:0.4;"/>
   </g>
   <g id="patch_149">
    <path clip-path="url(#pf0a033cfba)" d="M 226.557811 307.584 
L 228.958358 307.584 
L 228.958358 275.570526 
L 226.557811 275.570526 
z
" style="fill:#008000;opacity:0.4;"/>
   </g>
   <g id="patch_150">
    <path clip-path="url(#pf0a033cfba)" d="M 228.958358 307.584 
L 231.358906 307.584 
L 231.358906 281.573053 
L 228.958358 281.573053 
z
" style="fill:#008000;opacity:0.4;"/>
   </g>
   <g id="patch_151">
    <path clip-path="url(#pf0a033cfba)" d="M 231.358906 307.584 
L 233.759453 307.584 
L 233.759453 285.574737 
L 231.358906 285.574737 
z
" style="fill:#008000;opacity:0.4;"/>
   </g>
   <g id="patch_152">
    <path clip-path="url(#pf0a033cfba)" d="M 233.759453 307.584 
L 236.16 307.584 
L 236.16 271.568842 
L 233.759453 271.568842 
z
" style="fill:#008000;opacity:0.4;"/>
   </g>
   <g id="patch_153">
    <path clip-path="url(#pf0a033cfba)" d="M 236.16 307.584 
L 238.560547 307.584 
L 238.560547 281.573053 
L 236.16 281.573053 
z
" style="fill:#008000;opacity:0.4;"/>
   </g>
   <g id="patch_154">
    <path clip-path="url(#pf0a033cfba)" d="M 238.560547 307.584 
L 240.961094 307.584 
L 240.961094 283.573895 
L 238.560547 283.573895 
z
" style="fill:#008000;opacity:0.4;"/>
   </g>
   <g id="patch_155">
    <path clip-path="url(#pf0a033cfba)" d="M 240.961094 307.584 
L 243.361642 307.584 
L 243.361642 265.566316 
L 240.961094 265.566316 
z
" style="fill:#008000;opacity:0.4;"/>
   </g>
   <g id="patch_156">
    <path clip-path="url(#pf0a033cfba)" d="M 243.361642 307.584 
L 245.762189 307.584 
L 245.762189 265.566316 
L 243.361642 265.566316 
z
" style="fill:#008000;opacity:0.4;"/>
   </g>
   <g id="patch_157">
    <path clip-path="url(#pf0a033cfba)" d="M 245.762189 307.584 
L 248.162736 307.584 
L 248.162736 267.567158 
L 245.762189 267.567158 
z
" style="fill:#008000;opacity:0.4;"/>
   </g>
   <g id="patch_158">
    <path clip-path="url(#pf0a033cfba)" d="M 248.162736 307.584 
L 250.563283 307.584 
L 250.563283 267.567158 
L 248.162736 267.567158 
z
" style="fill:#008000;opacity:0.4;"/>
   </g>
   <g id="patch_159">
    <path clip-path="url(#pf0a033cfba)" d="M 250.563283 307.584 
L 252.963831 307.584 
L 252.963831 279.572211 
L 250.563283 279.572211 
z
" style="fill:#008000;opacity:0.4;"/>
   </g>
   <g id="patch_160">
    <path clip-path="url(#pf0a033cfba)" d="M 252.963831 307.584 
L 255.364378 307.584 
L 255.364378 283.573895 
L 252.963831 283.573895 
z
" style="fill:#008000;opacity:0.4;"/>
   </g>
   <g id="patch_161">
    <path clip-path="url(#pf0a033cfba)" d="M 255.364378 307.584 
L 257.764925 307.584 
L 257.764925 279.572211 
L 255.364378 279.572211 
z
" style="fill:#008000;opacity:0.4;"/>
   </g>
   <g id="patch_162">
    <path clip-path="url(#pf0a033cfba)" d="M 257.764925 307.584 
L 260.165472 307.584 
L 260.165472 295.578947 
L 257.764925 295.578947 
z
" style="fill:#008000;opacity:0.4;"/>
   </g>
   <g id="patch_163">
    <path clip-path="url(#pf0a033cfba)" d="M 260.165472 307.584 
L 262.56602 307.584 
L 262.56602 285.574737 
L 260.165472 285.574737 
z
" style="fill:#008000;opacity:0.4;"/>
   </g>
   <g id="patch_164">
    <path clip-path="url(#pf0a033cfba)" d="M 262.56602 307.584 
L 264.966567 307.584 
L 264.966567 295.578947 
L 262.56602 295.578947 
z
" style="fill:#008000;opacity:0.4;"/>
   </g>
   <g id="patch_165">
    <path clip-path="url(#pf0a033cfba)" d="M 264.966567 307.584 
L 267.367114 307.584 
L 267.367114 283.573895 
L 264.966567 283.573895 
z
" style="fill:#008000;opacity:0.4;"/>
   </g>
   <g id="patch_166">
    <path clip-path="url(#pf0a033cfba)" d="M 267.367114 307.584 
L 269.767661 307.584 
L 269.767661 281.573053 
L 267.367114 281.573053 
z
" style="fill:#008000;opacity:0.4;"/>
   </g>
   <g id="patch_167">
    <path clip-path="url(#pf0a033cfba)" d="M 269.767661 307.584 
L 272.168209 307.584 
L 272.168209 287.575579 
L 269.767661 287.575579 
z
" style="fill:#008000;opacity:0.4;"/>
   </g>
   <g id="patch_168">
    <path clip-path="url(#pf0a033cfba)" d="M 272.168209 307.584 
L 274.568756 307.584 
L 274.568756 279.572211 
L 272.168209 279.572211 
z
" style="fill:#008000;opacity:0.4;"/>
   </g>
   <g id="patch_169">
    <path clip-path="url(#pf0a033cfba)" d="M 274.568756 307.584 
L 276.969303 307.584 
L 276.969303 291.577263 
L 274.568756 291.577263 
z
" style="fill:#008000;opacity:0.4;"/>
   </g>
   <g id="patch_170">
    <path clip-path="url(#pf0a033cfba)" d="M 276.969303 307.584 
L 279.36985 307.584 
L 279.36985 285.574737 
L 276.969303 285.574737 
z
" style="fill:#008000;opacity:0.4;"/>
   </g>
   <g id="patch_171">
    <path clip-path="url(#pf0a033cfba)" d="M 279.36985 307.584 
L 281.770398 307.584 
L 281.770398 267.567158 
L 279.36985 267.567158 
z
" style="fill:#008000;opacity:0.4;"/>
   </g>
   <g id="patch_172">
    <path clip-path="url(#pf0a033cfba)" d="M 281.770398 307.584 
L 284.170945 307.584 
L 284.170945 265.566316 
L 281.770398 265.566316 
z
" style="fill:#008000;opacity:0.4;"/>
   </g>
   <g id="patch_173">
    <path clip-path="url(#pf0a033cfba)" d="M 284.170945 307.584 
L 286.571492 307.584 
L 286.571492 257.562947 
L 284.170945 257.562947 
z
" style="fill:#008000;opacity:0.4;"/>
   </g>
   <g id="patch_174">
    <path clip-path="url(#pf0a033cfba)" d="M 286.571492 307.584 
L 288.972039 307.584 
L 288.972039 269.568 
L 286.571492 269.568 
z
" style="fill:#008000;opacity:0.4;"/>
   </g>
   <g id="patch_175">
    <path clip-path="url(#pf0a033cfba)" d="M 288.972039 307.584 
L 291.372587 307.584 
L 291.372587 259.563789 
L 288.972039 259.563789 
z
" style="fill:#008000;opacity:0.4;"/>
   </g>
   <g id="patch_176">
    <path clip-path="url(#pf0a033cfba)" d="M 291.372587 307.584 
L 293.773134 307.584 
L 293.773134 267.567158 
L 291.372587 267.567158 
z
" style="fill:#008000;opacity:0.4;"/>
   </g>
   <g id="patch_177">
    <path clip-path="url(#pf0a033cfba)" d="M 293.773134 307.584 
L 296.173681 307.584 
L 296.173681 253.561263 
L 293.773134 253.561263 
z
" style="fill:#008000;opacity:0.4;"/>
   </g>
   <g id="patch_178">
    <path clip-path="url(#pf0a033cfba)" d="M 296.173681 307.584 
L 298.574228 307.584 
L 298.574228 247.558737 
L 296.173681 247.558737 
z
" style="fill:#008000;opacity:0.4;"/>
   </g>
   <g id="patch_179">
    <path clip-path="url(#pf0a033cfba)" d="M 298.574228 307.584 
L 300.974776 307.584 
L 300.974776 221.547789 
L 298.574228 221.547789 
z
" style="fill:#008000;opacity:0.4;"/>
   </g>
   <g id="patch_180">
    <path clip-path="url(#pf0a033cfba)" d="M 300.974776 307.584 
L 303.375323 307.584 
L 303.375323 235.553684 
L 300.974776 235.553684 
z
" style="fill:#008000;opacity:0.4;"/>
   </g>
   <g id="patch_181">
    <path clip-path="url(#pf0a033cfba)" d="M 303.375323 307.584 
L 305.77587 307.584 
L 305.77587 249.559579 
L 303.375323 249.559579 
z
" style="fill:#008000;opacity:0.4;"/>
   </g>
   <g id="patch_182">
    <path clip-path="url(#pf0a033cfba)" d="M 305.77587 307.584 
L 308.176417 307.584 
L 308.176417 233.552842 
L 305.77587 233.552842 
z
" style="fill:#008000;opacity:0.4;"/>
   </g>
   <g id="patch_183">
    <path clip-path="url(#pf0a033cfba)" d="M 308.176417 307.584 
L 310.576965 307.584 
L 310.576965 249.559579 
L 308.176417 249.559579 
z
" style="fill:#008000;opacity:0.4;"/>
   </g>
   <g id="patch_184">
    <path clip-path="url(#pf0a033cfba)" d="M 310.576965 307.584 
L 312.977512 307.584 
L 312.977512 241.556211 
L 310.576965 241.556211 
z
" style="fill:#008000;opacity:0.4;"/>
   </g>
   <g id="patch_185">
    <path clip-path="url(#pf0a033cfba)" d="M 312.977512 307.584 
L 315.378059 307.584 
L 315.378059 253.561263 
L 312.977512 253.561263 
z
" style="fill:#008000;opacity:0.4;"/>
   </g>
   <g id="patch_186">
    <path clip-path="url(#pf0a033cfba)" d="M 315.378059 307.584 
L 317.778606 307.584 
L 317.778606 263.565474 
L 315.378059 263.565474 
z
" style="fill:#008000;opacity:0.4;"/>
   </g>
   <g id="patch_187">
    <path clip-path="url(#pf0a033cfba)" d="M 317.778606 307.584 
L 320.179154 307.584 
L 320.179154 269.568 
L 317.778606 269.568 
z
" style="fill:#008000;opacity:0.4;"/>
   </g>
   <g id="patch_188">
    <path clip-path="url(#pf0a033cfba)" d="M 320.179154 307.584 
L 322.579701 307.584 
L 322.579701 269.568 
L 320.179154 269.568 
z
" style="fill:#008000;opacity:0.4;"/>
   </g>
   <g id="patch_189">
    <path clip-path="url(#pf0a033cfba)" d="M 322.579701 307.584 
L 324.980248 307.584 
L 324.980248 273.569684 
L 322.579701 273.569684 
z
" style="fill:#008000;opacity:0.4;"/>
   </g>
   <g id="patch_190">
    <path clip-path="url(#pf0a033cfba)" d="M 324.980248 307.584 
L 327.380795 307.584 
L 327.380795 285.574737 
L 324.980248 285.574737 
z
" style="fill:#008000;opacity:0.4;"/>
   </g>
   <g id="patch_191">
    <path clip-path="url(#pf0a033cfba)" d="M 327.380795 307.584 
L 329.781343 307.584 
L 329.781343 283.573895 
L 327.380795 283.573895 
z
" style="fill:#008000;opacity:0.4;"/>
   </g>
   <g id="patch_192">
    <path clip-path="url(#pf0a033cfba)" d="M 329.781343 307.584 
L 332.18189 307.584 
L 332.18189 283.573895 
L 329.781343 283.573895 
z
" style="fill:#008000;opacity:0.4;"/>
   </g>
   <g id="patch_193">
    <path clip-path="url(#pf0a033cfba)" d="M 332.18189 307.584 
L 334.582437 307.584 
L 334.582437 267.567158 
L 332.18189 267.567158 
z
" style="fill:#008000;opacity:0.4;"/>
   </g>
   <g id="patch_194">
    <path clip-path="url(#pf0a033cfba)" d="M 334.582437 307.584 
L 336.982984 307.584 
L 336.982984 269.568 
L 334.582437 269.568 
z
" style="fill:#008000;opacity:0.4;"/>
   </g>
   <g id="patch_195">
    <path clip-path="url(#pf0a033cfba)" d="M 336.982984 307.584 
L 339.383532 307.584 
L 339.383532 275.570526 
L 336.982984 275.570526 
z
" style="fill:#008000;opacity:0.4;"/>
   </g>
   <g id="patch_196">
    <path clip-path="url(#pf0a033cfba)" d="M 339.383532 307.584 
L 341.784079 307.584 
L 341.784079 273.569684 
L 339.383532 273.569684 
z
" style="fill:#008000;opacity:0.4;"/>
   </g>
   <g id="patch_197">
    <path clip-path="url(#pf0a033cfba)" d="M 341.784079 307.584 
L 344.184626 307.584 
L 344.184626 283.573895 
L 341.784079 283.573895 
z
" style="fill:#008000;opacity:0.4;"/>
   </g>
   <g id="patch_198">
    <path clip-path="url(#pf0a033cfba)" d="M 344.184626 307.584 
L 346.585173 307.584 
L 346.585173 291.577263 
L 344.184626 291.577263 
z
" style="fill:#008000;opacity:0.4;"/>
   </g>
   <g id="patch_199">
    <path clip-path="url(#pf0a033cfba)" d="M 346.585173 307.584 
L 348.985721 307.584 
L 348.985721 291.577263 
L 346.585173 291.577263 
z
" style="fill:#008000;opacity:0.4;"/>
   </g>
   <g id="patch_200">
    <path clip-path="url(#pf0a033cfba)" d="M 348.985721 307.584 
L 351.386268 307.584 
L 351.386268 293.578105 
L 348.985721 293.578105 
z
" style="fill:#008000;opacity:0.4;"/>
   </g>
   <g id="patch_201">
    <path clip-path="url(#pf0a033cfba)" d="M 351.386268 307.584 
L 353.786815 307.584 
L 353.786815 303.582316 
L 351.386268 303.582316 
z
" style="fill:#008000;opacity:0.4;"/>
   </g>
   <g id="patch_202">
    <path clip-path="url(#pf0a033cfba)" d="M 353.786815 307.584 
L 356.187362 307.584 
L 356.187362 305.583158 
L 353.786815 305.583158 
z
" style="fill:#008000;opacity:0.4;"/>
   </g>
   <g id="matplotlib.axis_1">
    <g id="xtick_1">
     <g id="line2d_1">
      <defs>
       <path d="M 0 0 
L 0 3.5 
" id="meeb00e5252" style="stroke:#000000;stroke-width:0.8;"/>
      </defs>
      <g>
       <use style="stroke:#000000;stroke-width:0.8;" x="72.582417" xlink:href="#meeb00e5252" y="307.584"/>
      </g>
     </g>
     <g id="text_1">
      <!-- 0.0 -->
      <defs>
       <path d="M 31.78125 66.40625 
Q 24.171875 66.40625 20.328125 58.90625 
Q 16.5 51.421875 16.5 36.375 
Q 16.5 21.390625 20.328125 13.890625 
Q 24.171875 6.390625 31.78125 6.390625 
Q 39.453125 6.390625 43.28125 13.890625 
Q 47.125 21.390625 47.125 36.375 
Q 47.125 51.421875 43.28125 58.90625 
Q 39.453125 66.40625 31.78125 66.40625 
z
M 31.78125 74.21875 
Q 44.046875 74.21875 50.515625 64.515625 
Q 56.984375 54.828125 56.984375 36.375 
Q 56.984375 17.96875 50.515625 8.265625 
Q 44.046875 -1.421875 31.78125 -1.421875 
Q 19.53125 -1.421875 13.0625 8.265625 
Q 6.59375 17.96875 6.59375 36.375 
Q 6.59375 54.828125 13.0625 64.515625 
Q 19.53125 74.21875 31.78125 74.21875 
z
" id="DejaVuSans-48"/>
       <path d="M 10.6875 12.40625 
L 21 12.40625 
L 21 0 
L 10.6875 0 
z
" id="DejaVuSans-46"/>
      </defs>
      <g transform="translate(64.630854 322.182437)scale(0.1 -0.1)">
       <use xlink:href="#DejaVuSans-48"/>
       <use x="63.623047" xlink:href="#DejaVuSans-46"/>
       <use x="95.410156" xlink:href="#DejaVuSans-48"/>
      </g>
     </g>
    </g>
    <g id="xtick_2">
     <g id="line2d_2">
      <g>
       <use style="stroke:#000000;stroke-width:0.8;" x="140.207425" xlink:href="#meeb00e5252" y="307.584"/>
      </g>
     </g>
     <g id="text_2">
      <!-- 0.2 -->
      <defs>
       <path d="M 19.1875 8.296875 
L 53.609375 8.296875 
L 53.609375 0 
L 7.328125 0 
L 7.328125 8.296875 
Q 12.9375 14.109375 22.625 23.890625 
Q 32.328125 33.6875 34.8125 36.53125 
Q 39.546875 41.84375 41.421875 45.53125 
Q 43.3125 49.21875 43.3125 52.78125 
Q 43.3125 58.59375 39.234375 62.25 
Q 35.15625 65.921875 28.609375 65.921875 
Q 23.96875 65.921875 18.8125 64.3125 
Q 13.671875 62.703125 7.8125 59.421875 
L 7.8125 69.390625 
Q 13.765625 71.78125 18.9375 73 
Q 24.125 74.21875 28.421875 74.21875 
Q 39.75 74.21875 46.484375 68.546875 
Q 53.21875 62.890625 53.21875 53.421875 
Q 53.21875 48.921875 51.53125 44.890625 
Q 49.859375 40.875 45.40625 35.40625 
Q 44.1875 33.984375 37.640625 27.21875 
Q 31.109375 20.453125 19.1875 8.296875 
z
" id="DejaVuSans-50"/>
      </defs>
      <g transform="translate(132.255863 322.182437)scale(0.1 -0.1)">
       <use xlink:href="#DejaVuSans-48"/>
       <use x="63.623047" xlink:href="#DejaVuSans-46"/>
       <use x="95.410156" xlink:href="#DejaVuSans-50"/>
      </g>
     </g>
    </g>
    <g id="xtick_3">
     <g id="line2d_3">
      <g>
       <use style="stroke:#000000;stroke-width:0.8;" x="207.832434" xlink:href="#meeb00e5252" y="307.584"/>
      </g>
     </g>
     <g id="text_3">
      <!-- 0.4 -->
      <defs>
       <path d="M 37.796875 64.3125 
L 12.890625 25.390625 
L 37.796875 25.390625 
z
M 35.203125 72.90625 
L 47.609375 72.90625 
L 47.609375 25.390625 
L 58.015625 25.390625 
L 58.015625 17.1875 
L 47.609375 17.1875 
L 47.609375 0 
L 37.796875 0 
L 37.796875 17.1875 
L 4.890625 17.1875 
L 4.890625 26.703125 
z
" id="DejaVuSans-52"/>
      </defs>
      <g transform="translate(199.880871 322.182437)scale(0.1 -0.1)">
       <use xlink:href="#DejaVuSans-48"/>
       <use x="63.623047" xlink:href="#DejaVuSans-46"/>
       <use x="95.410156" xlink:href="#DejaVuSans-52"/>
      </g>
     </g>
    </g>
    <g id="xtick_4">
     <g id="line2d_4">
      <g>
       <use style="stroke:#000000;stroke-width:0.8;" x="275.457442" xlink:href="#meeb00e5252" y="307.584"/>
      </g>
     </g>
     <g id="text_4">
      <!-- 0.6 -->
      <defs>
       <path d="M 33.015625 40.375 
Q 26.375 40.375 22.484375 35.828125 
Q 18.609375 31.296875 18.609375 23.390625 
Q 18.609375 15.53125 22.484375 10.953125 
Q 26.375 6.390625 33.015625 6.390625 
Q 39.65625 6.390625 43.53125 10.953125 
Q 47.40625 15.53125 47.40625 23.390625 
Q 47.40625 31.296875 43.53125 35.828125 
Q 39.65625 40.375 33.015625 40.375 
z
M 52.59375 71.296875 
L 52.59375 62.3125 
Q 48.875 64.0625 45.09375 64.984375 
Q 41.3125 65.921875 37.59375 65.921875 
Q 27.828125 65.921875 22.671875 59.328125 
Q 17.53125 52.734375 16.796875 39.40625 
Q 19.671875 43.65625 24.015625 45.921875 
Q 28.375 48.1875 33.59375 48.1875 
Q 44.578125 48.1875 50.953125 41.515625 
Q 57.328125 34.859375 57.328125 23.390625 
Q 57.328125 12.15625 50.6875 5.359375 
Q 44.046875 -1.421875 33.015625 -1.421875 
Q 20.359375 -1.421875 13.671875 8.265625 
Q 6.984375 17.96875 6.984375 36.375 
Q 6.984375 53.65625 15.1875 63.9375 
Q 23.390625 74.21875 37.203125 74.21875 
Q 40.921875 74.21875 44.703125 73.484375 
Q 48.484375 72.75 52.59375 71.296875 
z
" id="DejaVuSans-54"/>
      </defs>
      <g transform="translate(267.505879 322.182437)scale(0.1 -0.1)">
       <use xlink:href="#DejaVuSans-48"/>
       <use x="63.623047" xlink:href="#DejaVuSans-46"/>
       <use x="95.410156" xlink:href="#DejaVuSans-54"/>
      </g>
     </g>
    </g>
    <g id="xtick_5">
     <g id="line2d_5">
      <g>
       <use style="stroke:#000000;stroke-width:0.8;" x="343.08245" xlink:href="#meeb00e5252" y="307.584"/>
      </g>
     </g>
     <g id="text_5">
      <!-- 0.8 -->
      <defs>
       <path d="M 31.78125 34.625 
Q 24.75 34.625 20.71875 30.859375 
Q 16.703125 27.09375 16.703125 20.515625 
Q 16.703125 13.921875 20.71875 10.15625 
Q 24.75 6.390625 31.78125 6.390625 
Q 38.8125 6.390625 42.859375 10.171875 
Q 46.921875 13.96875 46.921875 20.515625 
Q 46.921875 27.09375 42.890625 30.859375 
Q 38.875 34.625 31.78125 34.625 
z
M 21.921875 38.8125 
Q 15.578125 40.375 12.03125 44.71875 
Q 8.5 49.078125 8.5 55.328125 
Q 8.5 64.0625 14.71875 69.140625 
Q 20.953125 74.21875 31.78125 74.21875 
Q 42.671875 74.21875 48.875 69.140625 
Q 55.078125 64.0625 55.078125 55.328125 
Q 55.078125 49.078125 51.53125 44.71875 
Q 48 40.375 41.703125 38.8125 
Q 48.828125 37.15625 52.796875 32.3125 
Q 56.78125 27.484375 56.78125 20.515625 
Q 56.78125 9.90625 50.3125 4.234375 
Q 43.84375 -1.421875 31.78125 -1.421875 
Q 19.734375 -1.421875 13.25 4.234375 
Q 6.78125 9.90625 6.78125 20.515625 
Q 6.78125 27.484375 10.78125 32.3125 
Q 14.796875 37.15625 21.921875 38.8125 
z
M 18.3125 54.390625 
Q 18.3125 48.734375 21.84375 45.5625 
Q 25.390625 42.390625 31.78125 42.390625 
Q 38.140625 42.390625 41.71875 45.5625 
Q 45.3125 48.734375 45.3125 54.390625 
Q 45.3125 60.0625 41.71875 63.234375 
Q 38.140625 66.40625 31.78125 66.40625 
Q 25.390625 66.40625 21.84375 63.234375 
Q 18.3125 60.0625 18.3125 54.390625 
z
" id="DejaVuSans-56"/>
      </defs>
      <g transform="translate(335.130888 322.182437)scale(0.1 -0.1)">
       <use xlink:href="#DejaVuSans-48"/>
       <use x="63.623047" xlink:href="#DejaVuSans-46"/>
       <use x="95.410156" xlink:href="#DejaVuSans-56"/>
      </g>
     </g>
    </g>
    <g id="xtick_6">
     <g id="line2d_6">
      <g>
       <use style="stroke:#000000;stroke-width:0.8;" x="410.707458" xlink:href="#meeb00e5252" y="307.584"/>
      </g>
     </g>
     <g id="text_6">
      <!-- 1.0 -->
      <defs>
       <path d="M 12.40625 8.296875 
L 28.515625 8.296875 
L 28.515625 63.921875 
L 10.984375 60.40625 
L 10.984375 69.390625 
L 28.421875 72.90625 
L 38.28125 72.90625 
L 38.28125 8.296875 
L 54.390625 8.296875 
L 54.390625 0 
L 12.40625 0 
z
" id="DejaVuSans-49"/>
      </defs>
      <g transform="translate(402.755896 322.182437)scale(0.1 -0.1)">
       <use xlink:href="#DejaVuSans-49"/>
       <use x="63.623047" xlink:href="#DejaVuSans-46"/>
       <use x="95.410156" xlink:href="#DejaVuSans-48"/>
      </g>
     </g>
    </g>
    <g id="text_7">
     <!-- 1e10 -->
     <defs>
      <path d="M 56.203125 29.59375 
L 56.203125 25.203125 
L 14.890625 25.203125 
Q 15.484375 15.921875 20.484375 11.0625 
Q 25.484375 6.203125 34.421875 6.203125 
Q 39.59375 6.203125 44.453125 7.46875 
Q 49.3125 8.734375 54.109375 11.28125 
L 54.109375 2.78125 
Q 49.265625 0.734375 44.1875 -0.34375 
Q 39.109375 -1.421875 33.890625 -1.421875 
Q 20.796875 -1.421875 13.15625 6.1875 
Q 5.515625 13.8125 5.515625 26.8125 
Q 5.515625 40.234375 12.765625 48.109375 
Q 20.015625 56 32.328125 56 
Q 43.359375 56 49.78125 48.890625 
Q 56.203125 41.796875 56.203125 29.59375 
z
M 47.21875 32.234375 
Q 47.125 39.59375 43.09375 43.984375 
Q 39.0625 48.390625 32.421875 48.390625 
Q 24.90625 48.390625 20.390625 44.140625 
Q 15.875 39.890625 15.1875 32.171875 
z
" id="DejaVuSans-101"/>
     </defs>
     <g transform="translate(389.479375 334.860562)scale(0.1 -0.1)">
      <use xlink:href="#DejaVuSans-49"/>
      <use x="63.623047" xlink:href="#DejaVuSans-101"/>
      <use x="125.146484" xlink:href="#DejaVuSans-49"/>
      <use x="188.769531" xlink:href="#DejaVuSans-48"/>
     </g>
    </g>
   </g>
   <g id="matplotlib.axis_2">
    <g id="ytick_1">
     <g id="line2d_7">
      <defs>
       <path d="M 0 0 
L -3.5 0 
" id="m71dba85573" style="stroke:#000000;stroke-width:0.8;"/>
      </defs>
      <g>
       <use style="stroke:#000000;stroke-width:0.8;" x="57.6" xlink:href="#m71dba85573" y="307.584"/>
      </g>
     </g>
     <g id="text_8">
      <!-- 0 -->
      <g transform="translate(44.2375 311.383219)scale(0.1 -0.1)">
       <use xlink:href="#DejaVuSans-48"/>
      </g>
     </g>
    </g>
    <g id="ytick_2">
     <g id="line2d_8">
      <g>
       <use style="stroke:#000000;stroke-width:0.8;" x="57.6" xlink:href="#m71dba85573" y="265.621995"/>
      </g>
     </g>
     <g id="text_9">
      <!-- 1 -->
      <g transform="translate(44.2375 269.421214)scale(0.1 -0.1)">
       <use xlink:href="#DejaVuSans-49"/>
      </g>
     </g>
    </g>
    <g id="ytick_3">
     <g id="line2d_9">
      <g>
       <use style="stroke:#000000;stroke-width:0.8;" x="57.6" xlink:href="#m71dba85573" y="223.65999"/>
      </g>
     </g>
     <g id="text_10">
      <!-- 2 -->
      <g transform="translate(44.2375 227.459209)scale(0.1 -0.1)">
       <use xlink:href="#DejaVuSans-50"/>
      </g>
     </g>
    </g>
    <g id="ytick_4">
     <g id="line2d_10">
      <g>
       <use style="stroke:#000000;stroke-width:0.8;" x="57.6" xlink:href="#m71dba85573" y="181.697985"/>
      </g>
     </g>
     <g id="text_11">
      <!-- 3 -->
      <defs>
       <path d="M 40.578125 39.3125 
Q 47.65625 37.796875 51.625 33 
Q 55.609375 28.21875 55.609375 21.1875 
Q 55.609375 10.40625 48.1875 4.484375 
Q 40.765625 -1.421875 27.09375 -1.421875 
Q 22.515625 -1.421875 17.65625 -0.515625 
Q 12.796875 0.390625 7.625 2.203125 
L 7.625 11.71875 
Q 11.71875 9.328125 16.59375 8.109375 
Q 21.484375 6.890625 26.8125 6.890625 
Q 36.078125 6.890625 40.9375 10.546875 
Q 45.796875 14.203125 45.796875 21.1875 
Q 45.796875 27.640625 41.28125 31.265625 
Q 36.765625 34.90625 28.71875 34.90625 
L 20.21875 34.90625 
L 20.21875 43.015625 
L 29.109375 43.015625 
Q 36.375 43.015625 40.234375 45.921875 
Q 44.09375 48.828125 44.09375 54.296875 
Q 44.09375 59.90625 40.109375 62.90625 
Q 36.140625 65.921875 28.71875 65.921875 
Q 24.65625 65.921875 20.015625 65.03125 
Q 15.375 64.15625 9.8125 62.3125 
L 9.8125 71.09375 
Q 15.4375 72.65625 20.34375 73.4375 
Q 25.25 74.21875 29.59375 74.21875 
Q 40.828125 74.21875 47.359375 69.109375 
Q 53.90625 64.015625 53.90625 55.328125 
Q 53.90625 49.265625 50.4375 45.09375 
Q 46.96875 40.921875 40.578125 39.3125 
z
" id="DejaVuSans-51"/>
      </defs>
      <g transform="translate(44.2375 185.497204)scale(0.1 -0.1)">
       <use xlink:href="#DejaVuSans-51"/>
      </g>
     </g>
    </g>
    <g id="ytick_5">
     <g id="line2d_11">
      <g>
       <use style="stroke:#000000;stroke-width:0.8;" x="57.6" xlink:href="#m71dba85573" y="139.73598"/>
      </g>
     </g>
     <g id="text_12">
      <!-- 4 -->
      <g transform="translate(44.2375 143.535199)scale(0.1 -0.1)">
       <use xlink:href="#DejaVuSans-52"/>
      </g>
     </g>
    </g>
    <g id="ytick_6">
     <g id="line2d_12">
      <g>
       <use style="stroke:#000000;stroke-width:0.8;" x="57.6" xlink:href="#m71dba85573" y="97.773975"/>
      </g>
     </g>
     <g id="text_13">
      <!-- 5 -->
      <defs>
       <path d="M 10.796875 72.90625 
L 49.515625 72.90625 
L 49.515625 64.59375 
L 19.828125 64.59375 
L 19.828125 46.734375 
Q 21.96875 47.46875 24.109375 47.828125 
Q 26.265625 48.1875 28.421875 48.1875 
Q 40.625 48.1875 47.75 41.5 
Q 54.890625 34.8125 54.890625 23.390625 
Q 54.890625 11.625 47.5625 5.09375 
Q 40.234375 -1.421875 26.90625 -1.421875 
Q 22.3125 -1.421875 17.546875 -0.640625 
Q 12.796875 0.140625 7.71875 1.703125 
L 7.71875 11.625 
Q 12.109375 9.234375 16.796875 8.0625 
Q 21.484375 6.890625 26.703125 6.890625 
Q 35.15625 6.890625 40.078125 11.328125 
Q 45.015625 15.765625 45.015625 23.390625 
Q 45.015625 31 40.078125 35.4375 
Q 35.15625 39.890625 26.703125 39.890625 
Q 22.75 39.890625 18.8125 39.015625 
Q 14.890625 38.140625 10.796875 36.28125 
z
" id="DejaVuSans-53"/>
      </defs>
      <g transform="translate(44.2375 101.573194)scale(0.1 -0.1)">
       <use xlink:href="#DejaVuSans-53"/>
      </g>
     </g>
    </g>
    <g id="ytick_7">
     <g id="line2d_13">
      <g>
       <use style="stroke:#000000;stroke-width:0.8;" x="57.6" xlink:href="#m71dba85573" y="55.81197"/>
      </g>
     </g>
     <g id="text_14">
      <!-- 6 -->
      <g transform="translate(44.2375 59.611189)scale(0.1 -0.1)">
       <use xlink:href="#DejaVuSans-54"/>
      </g>
     </g>
    </g>
    <g id="text_15">
     <!-- 1e10 -->
     <defs>
      <path d="M 10.59375 35.5 
L 73.1875 35.5 
L 73.1875 27.203125 
L 10.59375 27.203125 
z
" id="DejaVuSans-8722"/>
     </defs>
     <g transform="translate(57.6 38.472)scale(0.1 -0.1)">
      <use xlink:href="#DejaVuSans-49"/>
      <use x="63.623047" xlink:href="#DejaVuSans-101"/>
      <use x="125.146484" xlink:href="#DejaVuSans-8722"/>
      <use x="208.935547" xlink:href="#DejaVuSans-49"/>
      <use x="272.558594" xlink:href="#DejaVuSans-48"/>
     </g>
    </g>
   </g>
   <g id="line2d_14">
    <path clip-path="url(#pf0a033cfba)" d="M 73.8442 307.42504 
L 77.119907 307.242808 
L 80.395615 306.886933 
L 83.671322 306.228014 
L 86.94703 305.071601 
L 90.222738 303.148576 
L 93.498445 300.120024 
L 96.774153 295.605903 
L 100.049861 289.243736 
L 103.325568 280.775488 
L 106.601276 270.148741 
L 109.876983 257.605961 
L 113.152691 243.728908 
L 116.428399 229.409569 
L 119.704106 215.736567 
L 122.979814 203.812731 
L 126.255521 194.546106 
L 129.531229 188.471625 
L 132.806937 185.656054 
L 136.082644 185.714656 
L 139.358352 187.932958 
L 142.634059 191.454479 
L 145.909767 195.4777 
L 149.185475 199.408283 
L 152.461182 202.932785 
L 155.73689 206.008388 
L 159.012597 208.788602 
L 162.288305 211.519328 
L 165.564013 214.440387 
L 168.83972 217.717365 
L 172.115428 221.413207 
L 175.391135 225.494919 
L 178.666843 229.862245 
L 181.942551 234.383452 
L 185.218258 238.926763 
L 188.493966 243.381396 
L 191.769674 247.667103 
L 195.045381 251.734027 
L 198.321089 255.555936 
L 201.596796 259.120008 
L 204.872504 262.416211 
L 208.148212 265.429012 
L 211.423919 268.1336 
L 214.699627 270.497739 
L 217.975334 272.48899 
L 221.251042 274.085502 
L 224.52675 275.287516 
L 227.802457 276.126165 
L 231.078165 276.666442 
L 234.353872 277.002228 
L 237.62958 277.242993 
L 240.905288 277.49403 
L 244.180995 277.834205 
L 247.456703 278.296645 
L 250.73241 278.857621 
L 254.008118 279.437049 
L 257.283826 279.910946 
L 260.559533 280.132895 
L 263.835241 279.959487 
L 267.110949 279.274285 
L 270.386656 278.006264 
L 273.662364 276.140866 
L 276.938071 273.723919 
L 280.213779 270.859787 
L 283.489487 267.705114 
L 286.765194 264.458748 
L 290.040902 261.347534 
L 293.316609 258.60746 
L 296.592317 256.460377 
L 299.868025 255.088245 
L 303.143732 254.608853 
L 306.41944 255.058353 
L 309.695147 256.385781 
L 312.970855 258.462706 
L 316.246563 261.107501 
L 319.52227 264.1195 
L 322.797978 267.315058 
L 326.073685 270.556362 
L 329.349393 273.76567 
L 332.625101 276.921895 
L 335.900808 280.041913 
L 339.176516 283.15362 
L 342.452223 286.269937 
L 345.727931 289.371893 
L 349.003639 292.40515 
L 352.279346 295.28943 
L 355.555054 297.936246 
L 358.830762 300.268364 
L 362.106469 302.235013 
L 365.382177 303.81926 
L 368.657884 305.037019 
L 371.933592 305.929646 
L 375.2093 306.553371 
L 378.485007 306.968733 
L 381.760715 307.232302 
L 385.036422 307.391641 
L 388.31213 307.483398 
L 391.587838 307.533721 
L 394.863545 307.56 
L 398.139253 307.573064 
" style="fill:none;stroke:#f48024;stroke-linecap:square;stroke-width:1.5;"/>
   </g>
   <g id="line2d_15">
    <path clip-path="url(#pf0a033cfba)" d="M 73.832727 307.425904 
L 77.112066 307.24421 
L 80.391405 306.888948 
L 83.670744 306.230431 
L 86.950083 305.073569 
L 90.229421 303.148097 
L 93.50876 300.11337 
L 96.788099 295.587133 
L 100.067438 289.204569 
L 103.346777 280.705844 
L 106.626116 270.038119 
L 109.905455 257.445599 
L 113.184793 243.514288 
L 116.464132 229.14259 
L 119.743471 215.426572 
L 123.02281 203.475856 
L 126.302149 194.202917 
L 129.581488 188.14362 
L 132.860826 185.362054 
L 136.140165 185.468154 
L 139.419504 187.741114 
L 142.698843 191.31884 
L 145.978182 195.396072 
L 149.257521 199.376878 
L 152.53686 202.947783 
L 155.816198 206.066471 
L 159.095537 208.886533 
L 162.374876 211.653043 
L 165.654215 214.604248 
L 168.933554 217.904027 
L 172.212893 221.614222 
L 175.492231 225.701858 
L 178.77157 230.067891 
L 182.050909 234.582658 
L 185.330248 239.11674 
L 188.609587 243.561474 
L 191.888926 247.838131 
L 195.168264 251.897662 
L 198.447603 255.713949 
L 201.726942 259.273683 
L 205.006281 262.565843 
L 208.28562 265.573554 
L 211.564959 268.270556 
L 214.844298 270.623436 
L 218.123636 272.599265 
L 221.402975 274.176737 
L 224.682314 275.357763 
L 227.961653 276.176024 
L 231.240992 276.699379 
L 234.520331 277.02414 
L 237.799669 277.26106 
L 241.079008 277.515106 
L 244.358347 277.863194 
L 247.637686 278.335313 
L 250.917025 278.904197 
L 254.196364 279.486742 
L 257.475702 279.957195 
L 260.755041 280.169002 
L 264.03438 279.980153 
L 267.313719 279.276682 
L 270.593058 277.990435 
L 273.872397 276.109458 
L 277.151736 273.681438 
L 280.431074 270.811677 
L 283.710413 267.656977 
L 286.989752 264.415949 
L 290.269091 261.315265 
L 293.54843 258.591117 
L 296.827769 256.465899 
L 300.107107 255.122022 
L 303.386446 254.676964 
L 306.665785 255.165208 
L 309.945124 256.532623 
L 313.224463 258.646616 
L 316.503802 261.321476 
L 319.78314 264.353794 
L 323.062479 267.559445 
L 326.341818 270.802573 
L 329.621157 274.00913 
L 332.900496 277.162123 
L 336.179835 280.281477 
L 339.459174 283.396063 
L 342.738512 286.517475 
L 346.017851 289.623704 
L 349.29719 292.656806 
L 352.576529 295.533583 
L 355.855868 298.164225 
L 359.135207 300.472098 
L 362.414545 302.408663 
L 365.693884 303.960143 
L 368.973223 305.145692 
L 372.252562 306.009299 
L 375.531901 306.608825 
L 378.81124 307.005398 
L 382.090579 307.255322 
L 385.369917 307.405365 
L 388.649256 307.491167 
L 391.928595 307.537896 
L 395.207934 307.56213 
L 398.487273 307.574096 
" style="fill:none;stroke:#008000;stroke-linecap:square;stroke-width:1.5;"/>
   </g>
   <g id="patch_203">
    <path d="M 57.6 307.584 
L 57.6 41.472 
" style="fill:none;stroke:#000000;stroke-linecap:square;stroke-linejoin:miter;stroke-width:0.8;"/>
   </g>
   <g id="patch_204">
    <path d="M 414.72 307.584 
L 414.72 41.472 
" style="fill:none;stroke:#000000;stroke-linecap:square;stroke-linejoin:miter;stroke-width:0.8;"/>
   </g>
   <g id="patch_205">
    <path d="M 57.6 307.584 
L 414.72 307.584 
" style="fill:none;stroke:#000000;stroke-linecap:square;stroke-linejoin:miter;stroke-width:0.8;"/>
   </g>
   <g id="patch_206">
    <path d="M 57.6 41.472 
L 414.72 41.472 
" style="fill:none;stroke:#000000;stroke-linecap:square;stroke-linejoin:miter;stroke-width:0.8;"/>
   </g>
   <g id="text_16">
    <!-- {'mae': 96220122.129, 'smape': 0.029, 'jsd': 0.023} -->
    <defs>
     <path d="M 51.125 -9.28125 
L 51.125 -16.3125 
L 48.09375 -16.3125 
Q 35.9375 -16.3125 31.8125 -12.6875 
Q 27.6875 -9.078125 27.6875 1.703125 
L 27.6875 13.375 
Q 27.6875 20.75 25.046875 23.578125 
Q 22.40625 26.421875 15.484375 26.421875 
L 12.5 26.421875 
L 12.5 33.40625 
L 15.484375 33.40625 
Q 22.46875 33.40625 25.078125 36.203125 
Q 27.6875 39.015625 27.6875 46.296875 
L 27.6875 58.015625 
Q 27.6875 68.796875 31.8125 72.390625 
Q 35.9375 75.984375 48.09375 75.984375 
L 51.125 75.984375 
L 51.125 69 
L 47.796875 69 
Q 40.921875 69 38.8125 66.84375 
Q 36.71875 64.703125 36.71875 57.8125 
L 36.71875 45.703125 
Q 36.71875 38.03125 34.5 34.5625 
Q 32.28125 31.109375 26.90625 29.890625 
Q 32.328125 28.5625 34.515625 25.09375 
Q 36.71875 21.625 36.71875 14.015625 
L 36.71875 1.90625 
Q 36.71875 -4.984375 38.8125 -7.125 
Q 40.921875 -9.28125 47.796875 -9.28125 
z
" id="DejaVuSans-123"/>
     <path d="M 17.921875 72.90625 
L 17.921875 45.796875 
L 9.625 45.796875 
L 9.625 72.90625 
z
" id="DejaVuSans-39"/>
     <path d="M 52 44.1875 
Q 55.375 50.25 60.0625 53.125 
Q 64.75 56 71.09375 56 
Q 79.640625 56 84.28125 50.015625 
Q 88.921875 44.046875 88.921875 33.015625 
L 88.921875 0 
L 79.890625 0 
L 79.890625 32.71875 
Q 79.890625 40.578125 77.09375 44.375 
Q 74.3125 48.1875 68.609375 48.1875 
Q 61.625 48.1875 57.5625 43.546875 
Q 53.515625 38.921875 53.515625 30.90625 
L 53.515625 0 
L 44.484375 0 
L 44.484375 32.71875 
Q 44.484375 40.625 41.703125 44.40625 
Q 38.921875 48.1875 33.109375 48.1875 
Q 26.21875 48.1875 22.15625 43.53125 
Q 18.109375 38.875 18.109375 30.90625 
L 18.109375 0 
L 9.078125 0 
L 9.078125 54.6875 
L 18.109375 54.6875 
L 18.109375 46.1875 
Q 21.1875 51.21875 25.484375 53.609375 
Q 29.78125 56 35.6875 56 
Q 41.65625 56 45.828125 52.96875 
Q 50 49.953125 52 44.1875 
z
" id="DejaVuSans-109"/>
     <path d="M 34.28125 27.484375 
Q 23.390625 27.484375 19.1875 25 
Q 14.984375 22.515625 14.984375 16.5 
Q 14.984375 11.71875 18.140625 8.90625 
Q 21.296875 6.109375 26.703125 6.109375 
Q 34.1875 6.109375 38.703125 11.40625 
Q 43.21875 16.703125 43.21875 25.484375 
L 43.21875 27.484375 
z
M 52.203125 31.203125 
L 52.203125 0 
L 43.21875 0 
L 43.21875 8.296875 
Q 40.140625 3.328125 35.546875 0.953125 
Q 30.953125 -1.421875 24.3125 -1.421875 
Q 15.921875 -1.421875 10.953125 3.296875 
Q 6 8.015625 6 15.921875 
Q 6 25.140625 12.171875 29.828125 
Q 18.359375 34.515625 30.609375 34.515625 
L 43.21875 34.515625 
L 43.21875 35.40625 
Q 43.21875 41.609375 39.140625 45 
Q 35.0625 48.390625 27.6875 48.390625 
Q 23 48.390625 18.546875 47.265625 
Q 14.109375 46.140625 10.015625 43.890625 
L 10.015625 52.203125 
Q 14.9375 54.109375 19.578125 55.046875 
Q 24.21875 56 28.609375 56 
Q 40.484375 56 46.34375 49.84375 
Q 52.203125 43.703125 52.203125 31.203125 
z
" id="DejaVuSans-97"/>
     <path d="M 11.71875 12.40625 
L 22.015625 12.40625 
L 22.015625 0 
L 11.71875 0 
z
M 11.71875 51.703125 
L 22.015625 51.703125 
L 22.015625 39.3125 
L 11.71875 39.3125 
z
" id="DejaVuSans-58"/>
     <path id="DejaVuSans-32"/>
     <path d="M 10.984375 1.515625 
L 10.984375 10.5 
Q 14.703125 8.734375 18.5 7.8125 
Q 22.3125 6.890625 25.984375 6.890625 
Q 35.75 6.890625 40.890625 13.453125 
Q 46.046875 20.015625 46.78125 33.40625 
Q 43.953125 29.203125 39.59375 26.953125 
Q 35.25 24.703125 29.984375 24.703125 
Q 19.046875 24.703125 12.671875 31.3125 
Q 6.296875 37.9375 6.296875 49.421875 
Q 6.296875 60.640625 12.9375 67.421875 
Q 19.578125 74.21875 30.609375 74.21875 
Q 43.265625 74.21875 49.921875 64.515625 
Q 56.59375 54.828125 56.59375 36.375 
Q 56.59375 19.140625 48.40625 8.859375 
Q 40.234375 -1.421875 26.421875 -1.421875 
Q 22.703125 -1.421875 18.890625 -0.6875 
Q 15.09375 0.046875 10.984375 1.515625 
z
M 30.609375 32.421875 
Q 37.25 32.421875 41.125 36.953125 
Q 45.015625 41.5 45.015625 49.421875 
Q 45.015625 57.28125 41.125 61.84375 
Q 37.25 66.40625 30.609375 66.40625 
Q 23.96875 66.40625 20.09375 61.84375 
Q 16.21875 57.28125 16.21875 49.421875 
Q 16.21875 41.5 20.09375 36.953125 
Q 23.96875 32.421875 30.609375 32.421875 
z
" id="DejaVuSans-57"/>
     <path d="M 11.71875 12.40625 
L 22.015625 12.40625 
L 22.015625 4 
L 14.015625 -11.625 
L 7.71875 -11.625 
L 11.71875 4 
z
" id="DejaVuSans-44"/>
     <path d="M 44.28125 53.078125 
L 44.28125 44.578125 
Q 40.484375 46.53125 36.375 47.5 
Q 32.28125 48.484375 27.875 48.484375 
Q 21.1875 48.484375 17.84375 46.4375 
Q 14.5 44.390625 14.5 40.28125 
Q 14.5 37.15625 16.890625 35.375 
Q 19.28125 33.59375 26.515625 31.984375 
L 29.59375 31.296875 
Q 39.15625 29.25 43.1875 25.515625 
Q 47.21875 21.78125 47.21875 15.09375 
Q 47.21875 7.46875 41.1875 3.015625 
Q 35.15625 -1.421875 24.609375 -1.421875 
Q 20.21875 -1.421875 15.453125 -0.5625 
Q 10.6875 0.296875 5.421875 2 
L 5.421875 11.28125 
Q 10.40625 8.6875 15.234375 7.390625 
Q 20.0625 6.109375 24.8125 6.109375 
Q 31.15625 6.109375 34.5625 8.28125 
Q 37.984375 10.453125 37.984375 14.40625 
Q 37.984375 18.0625 35.515625 20.015625 
Q 33.0625 21.96875 24.703125 23.78125 
L 21.578125 24.515625 
Q 13.234375 26.265625 9.515625 29.90625 
Q 5.8125 33.546875 5.8125 39.890625 
Q 5.8125 47.609375 11.28125 51.796875 
Q 16.75 56 26.8125 56 
Q 31.78125 56 36.171875 55.265625 
Q 40.578125 54.546875 44.28125 53.078125 
z
" id="DejaVuSans-115"/>
     <path d="M 18.109375 8.203125 
L 18.109375 -20.796875 
L 9.078125 -20.796875 
L 9.078125 54.6875 
L 18.109375 54.6875 
L 18.109375 46.390625 
Q 20.953125 51.265625 25.265625 53.625 
Q 29.59375 56 35.59375 56 
Q 45.5625 56 51.78125 48.09375 
Q 58.015625 40.1875 58.015625 27.296875 
Q 58.015625 14.40625 51.78125 6.484375 
Q 45.5625 -1.421875 35.59375 -1.421875 
Q 29.59375 -1.421875 25.265625 0.953125 
Q 20.953125 3.328125 18.109375 8.203125 
z
M 48.6875 27.296875 
Q 48.6875 37.203125 44.609375 42.84375 
Q 40.53125 48.484375 33.40625 48.484375 
Q 26.265625 48.484375 22.1875 42.84375 
Q 18.109375 37.203125 18.109375 27.296875 
Q 18.109375 17.390625 22.1875 11.75 
Q 26.265625 6.109375 33.40625 6.109375 
Q 40.53125 6.109375 44.609375 11.75 
Q 48.6875 17.390625 48.6875 27.296875 
z
" id="DejaVuSans-112"/>
     <path d="M 9.421875 54.6875 
L 18.40625 54.6875 
L 18.40625 -0.984375 
Q 18.40625 -11.421875 14.421875 -16.109375 
Q 10.453125 -20.796875 1.609375 -20.796875 
L -1.8125 -20.796875 
L -1.8125 -13.1875 
L 0.59375 -13.1875 
Q 5.71875 -13.1875 7.5625 -10.8125 
Q 9.421875 -8.453125 9.421875 -0.984375 
z
M 9.421875 75.984375 
L 18.40625 75.984375 
L 18.40625 64.59375 
L 9.421875 64.59375 
z
" id="DejaVuSans-106"/>
     <path d="M 45.40625 46.390625 
L 45.40625 75.984375 
L 54.390625 75.984375 
L 54.390625 0 
L 45.40625 0 
L 45.40625 8.203125 
Q 42.578125 3.328125 38.25 0.953125 
Q 33.9375 -1.421875 27.875 -1.421875 
Q 17.96875 -1.421875 11.734375 6.484375 
Q 5.515625 14.40625 5.515625 27.296875 
Q 5.515625 40.1875 11.734375 48.09375 
Q 17.96875 56 27.875 56 
Q 33.9375 56 38.25 53.625 
Q 42.578125 51.265625 45.40625 46.390625 
z
M 14.796875 27.296875 
Q 14.796875 17.390625 18.875 11.75 
Q 22.953125 6.109375 30.078125 6.109375 
Q 37.203125 6.109375 41.296875 11.75 
Q 45.40625 17.390625 45.40625 27.296875 
Q 45.40625 37.203125 41.296875 42.84375 
Q 37.203125 48.484375 30.078125 48.484375 
Q 22.953125 48.484375 18.875 42.84375 
Q 14.796875 37.203125 14.796875 27.296875 
z
" id="DejaVuSans-100"/>
     <path d="M 12.5 -9.28125 
L 15.921875 -9.28125 
Q 22.75 -9.28125 24.828125 -7.171875 
Q 26.90625 -5.078125 26.90625 1.90625 
L 26.90625 14.015625 
Q 26.90625 21.625 29.09375 25.09375 
Q 31.296875 28.5625 36.71875 29.890625 
Q 31.296875 31.109375 29.09375 34.5625 
Q 26.90625 38.03125 26.90625 45.703125 
L 26.90625 57.8125 
Q 26.90625 64.75 24.828125 66.875 
Q 22.75 69 15.921875 69 
L 12.5 69 
L 12.5 75.984375 
L 15.578125 75.984375 
Q 27.734375 75.984375 31.8125 72.390625 
Q 35.890625 68.796875 35.890625 58.015625 
L 35.890625 46.296875 
Q 35.890625 39.015625 38.515625 36.203125 
Q 41.15625 33.40625 48.09375 33.40625 
L 51.125 33.40625 
L 51.125 26.421875 
L 48.09375 26.421875 
Q 41.15625 26.421875 38.515625 23.578125 
Q 35.890625 20.75 35.890625 13.375 
L 35.890625 1.703125 
Q 35.890625 -9.078125 31.8125 -12.6875 
Q 27.734375 -16.3125 15.578125 -16.3125 
L 12.5 -16.3125 
z
" id="DejaVuSans-125"/>
    </defs>
    <g transform="translate(79.003125 35.472)scale(0.12 -0.12)">
     <use xlink:href="#DejaVuSans-123"/>
     <use x="63.623047" xlink:href="#DejaVuSans-39"/>
     <use x="91.113281" xlink:href="#DejaVuSans-109"/>
     <use x="188.525391" xlink:href="#DejaVuSans-97"/>
     <use x="249.804688" xlink:href="#DejaVuSans-101"/>
     <use x="311.328125" xlink:href="#DejaVuSans-39"/>
     <use x="338.818359" xlink:href="#DejaVuSans-58"/>
     <use x="372.509766" xlink:href="#DejaVuSans-32"/>
     <use x="404.296875" xlink:href="#DejaVuSans-57"/>
     <use x="467.919922" xlink:href="#DejaVuSans-54"/>
     <use x="531.542969" xlink:href="#DejaVuSans-50"/>
     <use x="595.166016" xlink:href="#DejaVuSans-50"/>
     <use x="658.789062" xlink:href="#DejaVuSans-48"/>
     <use x="722.412109" xlink:href="#DejaVuSans-49"/>
     <use x="786.035156" xlink:href="#DejaVuSans-50"/>
     <use x="849.658203" xlink:href="#DejaVuSans-50"/>
     <use x="913.28125" xlink:href="#DejaVuSans-46"/>
     <use x="945.068359" xlink:href="#DejaVuSans-49"/>
     <use x="1008.691406" xlink:href="#DejaVuSans-50"/>
     <use x="1072.314453" xlink:href="#DejaVuSans-57"/>
     <use x="1135.9375" xlink:href="#DejaVuSans-44"/>
     <use x="1167.724609" xlink:href="#DejaVuSans-32"/>
     <use x="1199.511719" xlink:href="#DejaVuSans-39"/>
     <use x="1227.001953" xlink:href="#DejaVuSans-115"/>
     <use x="1279.101562" xlink:href="#DejaVuSans-109"/>
     <use x="1376.513672" xlink:href="#DejaVuSans-97"/>
     <use x="1437.792969" xlink:href="#DejaVuSans-112"/>
     <use x="1501.269531" xlink:href="#DejaVuSans-101"/>
     <use x="1562.792969" xlink:href="#DejaVuSans-39"/>
     <use x="1590.283203" xlink:href="#DejaVuSans-58"/>
     <use x="1623.974609" xlink:href="#DejaVuSans-32"/>
     <use x="1655.761719" xlink:href="#DejaVuSans-48"/>
     <use x="1719.384766" xlink:href="#DejaVuSans-46"/>
     <use x="1751.171875" xlink:href="#DejaVuSans-48"/>
     <use x="1814.794922" xlink:href="#DejaVuSans-50"/>
     <use x="1878.417969" xlink:href="#DejaVuSans-57"/>
     <use x="1942.041016" xlink:href="#DejaVuSans-44"/>
     <use x="1973.828125" xlink:href="#DejaVuSans-32"/>
     <use x="2005.615234" xlink:href="#DejaVuSans-39"/>
     <use x="2033.105469" xlink:href="#DejaVuSans-106"/>
     <use x="2060.888672" xlink:href="#DejaVuSans-115"/>
     <use x="2112.988281" xlink:href="#DejaVuSans-100"/>
     <use x="2176.464844" xlink:href="#DejaVuSans-39"/>
     <use x="2203.955078" xlink:href="#DejaVuSans-58"/>
     <use x="2237.646484" xlink:href="#DejaVuSans-32"/>
     <use x="2269.433594" xlink:href="#DejaVuSans-48"/>
     <use x="2333.056641" xlink:href="#DejaVuSans-46"/>
     <use x="2364.84375" xlink:href="#DejaVuSans-48"/>
     <use x="2428.466797" xlink:href="#DejaVuSans-50"/>
     <use x="2492.089844" xlink:href="#DejaVuSans-51"/>
     <use x="2555.712891" xlink:href="#DejaVuSans-125"/>
    </g>
   </g>
   <g id="legend_1">
    <g id="patch_207">
     <path d="M 340.565313 78.82825 
L 407.72 78.82825 
Q 409.72 78.82825 409.72 76.82825 
L 409.72 48.472 
Q 409.72 46.472 407.72 46.472 
L 340.565313 46.472 
Q 338.565313 46.472 338.565313 48.472 
L 338.565313 76.82825 
Q 338.565313 78.82825 340.565313 78.82825 
z
" style="fill:#ffffff;opacity:0.8;stroke:#cccccc;stroke-linejoin:miter;"/>
    </g>
    <g id="patch_208">
     <path d="M 342.565313 58.070437 
L 362.565313 58.070437 
L 362.565313 51.070437 
L 342.565313 51.070437 
z
" style="fill:#f48024;opacity:0.4;"/>
    </g>
    <g id="text_17">
     <!-- actual -->
     <defs>
      <path d="M 48.78125 52.59375 
L 48.78125 44.1875 
Q 44.96875 46.296875 41.140625 47.34375 
Q 37.3125 48.390625 33.40625 48.390625 
Q 24.65625 48.390625 19.8125 42.84375 
Q 14.984375 37.3125 14.984375 27.296875 
Q 14.984375 17.28125 19.8125 11.734375 
Q 24.65625 6.203125 33.40625 6.203125 
Q 37.3125 6.203125 41.140625 7.25 
Q 44.96875 8.296875 48.78125 10.40625 
L 48.78125 2.09375 
Q 45.015625 0.34375 40.984375 -0.53125 
Q 36.96875 -1.421875 32.421875 -1.421875 
Q 20.0625 -1.421875 12.78125 6.34375 
Q 5.515625 14.109375 5.515625 27.296875 
Q 5.515625 40.671875 12.859375 48.328125 
Q 20.21875 56 33.015625 56 
Q 37.15625 56 41.109375 55.140625 
Q 45.0625 54.296875 48.78125 52.59375 
z
" id="DejaVuSans-99"/>
      <path d="M 18.3125 70.21875 
L 18.3125 54.6875 
L 36.8125 54.6875 
L 36.8125 47.703125 
L 18.3125 47.703125 
L 18.3125 18.015625 
Q 18.3125 11.328125 20.140625 9.421875 
Q 21.96875 7.515625 27.59375 7.515625 
L 36.8125 7.515625 
L 36.8125 0 
L 27.59375 0 
Q 17.1875 0 13.234375 3.875 
Q 9.28125 7.765625 9.28125 18.015625 
L 9.28125 47.703125 
L 2.6875 47.703125 
L 2.6875 54.6875 
L 9.28125 54.6875 
L 9.28125 70.21875 
z
" id="DejaVuSans-116"/>
      <path d="M 8.5 21.578125 
L 8.5 54.6875 
L 17.484375 54.6875 
L 17.484375 21.921875 
Q 17.484375 14.15625 20.5 10.265625 
Q 23.53125 6.390625 29.59375 6.390625 
Q 36.859375 6.390625 41.078125 11.03125 
Q 45.3125 15.671875 45.3125 23.6875 
L 45.3125 54.6875 
L 54.296875 54.6875 
L 54.296875 0 
L 45.3125 0 
L 45.3125 8.40625 
Q 42.046875 3.421875 37.71875 1 
Q 33.40625 -1.421875 27.6875 -1.421875 
Q 18.265625 -1.421875 13.375 4.4375 
Q 8.5 10.296875 8.5 21.578125 
z
M 31.109375 56 
z
" id="DejaVuSans-117"/>
      <path d="M 9.421875 75.984375 
L 18.40625 75.984375 
L 18.40625 0 
L 9.421875 0 
z
" id="DejaVuSans-108"/>
     </defs>
     <g transform="translate(370.565313 58.070437)scale(0.1 -0.1)">
      <use xlink:href="#DejaVuSans-97"/>
      <use x="61.279297" xlink:href="#DejaVuSans-99"/>
      <use x="116.259766" xlink:href="#DejaVuSans-116"/>
      <use x="155.46875" xlink:href="#DejaVuSans-117"/>
      <use x="218.847656" xlink:href="#DejaVuSans-97"/>
      <use x="280.126953" xlink:href="#DejaVuSans-108"/>
     </g>
    </g>
    <g id="patch_209">
     <path d="M 342.565313 72.748562 
L 362.565313 72.748562 
L 362.565313 65.748562 
L 342.565313 65.748562 
z
" style="fill:#008000;opacity:0.4;"/>
    </g>
    <g id="text_18">
     <!-- predict -->
     <defs>
      <path d="M 41.109375 46.296875 
Q 39.59375 47.171875 37.8125 47.578125 
Q 36.03125 48 33.890625 48 
Q 26.265625 48 22.1875 43.046875 
Q 18.109375 38.09375 18.109375 28.8125 
L 18.109375 0 
L 9.078125 0 
L 9.078125 54.6875 
L 18.109375 54.6875 
L 18.109375 46.1875 
Q 20.953125 51.171875 25.484375 53.578125 
Q 30.03125 56 36.53125 56 
Q 37.453125 56 38.578125 55.875 
Q 39.703125 55.765625 41.0625 55.515625 
z
" id="DejaVuSans-114"/>
      <path d="M 9.421875 54.6875 
L 18.40625 54.6875 
L 18.40625 0 
L 9.421875 0 
z
M 9.421875 75.984375 
L 18.40625 75.984375 
L 18.40625 64.59375 
L 9.421875 64.59375 
z
" id="DejaVuSans-105"/>
     </defs>
     <g transform="translate(370.565313 72.748562)scale(0.1 -0.1)">
      <use xlink:href="#DejaVuSans-112"/>
      <use x="63.476562" xlink:href="#DejaVuSans-114"/>
      <use x="104.558594" xlink:href="#DejaVuSans-101"/>
      <use x="166.082031" xlink:href="#DejaVuSans-100"/>
      <use x="229.558594" xlink:href="#DejaVuSans-105"/>
      <use x="257.341797" xlink:href="#DejaVuSans-99"/>
      <use x="312.322266" xlink:href="#DejaVuSans-116"/>
     </g>
    </g>
   </g>
  </g>
 </g>
 <defs>
  <clipPath id="pf0a033cfba">
   <rect height="266.112" width="357.12" x="57.6" y="41.472"/>
  </clipPath>
 </defs>
</svg>
