<?xml version="1.0" encoding="utf-8" standalone="no"?>
<!DOCTYPE svg PUBLIC "-//W3C//DTD SVG 1.1//EN"
  "http://www.w3.org/Graphics/SVG/1.1/DTD/svg11.dtd">
<!-- Created with matplotlib (https://matplotlib.org/) -->
<svg height="345.6pt" version="1.1" viewBox="0 0 460.8 345.6" width="460.8pt" xmlns="http://www.w3.org/2000/svg" xmlns:xlink="http://www.w3.org/1999/xlink">
 <defs>
  <style type="text/css">
*{stroke-linecap:butt;stroke-linejoin:round;}
  </style>
 </defs>
 <g id="figure_1">
  <g id="patch_1">
   <path d="M 0 345.6 
L 460.8 345.6 
L 460.8 0 
L 0 0 
z
" style="fill:#ffffff;"/>
  </g>
  <g id="axes_1">
   <g id="patch_2">
    <path d="M 57.6 307.584 
L 414.72 307.584 
L 414.72 41.472 
L 57.6 41.472 
z
" style="fill:#ffffff;"/>
   </g>
   <g id="patch_3">
    <path clip-path="url(#p836cdc0f72)" d="M 124.384875 307.584 
L 124.857917 307.584 
L 124.857917 302.976 
L 124.384875 302.976 
z
" style="fill:#f48024;opacity:0.4;"/>
   </g>
   <g id="patch_4">
    <path clip-path="url(#p836cdc0f72)" d="M 124.857917 307.584 
L 125.330959 307.584 
L 125.330959 307.584 
L 124.857917 307.584 
z
" style="fill:#f48024;opacity:0.4;"/>
   </g>
   <g id="patch_5">
    <path clip-path="url(#p836cdc0f72)" d="M 125.330959 307.584 
L 125.804001 307.584 
L 125.804001 298.368 
L 125.330959 298.368 
z
" style="fill:#f48024;opacity:0.4;"/>
   </g>
   <g id="patch_6">
    <path clip-path="url(#p836cdc0f72)" d="M 125.804001 307.584 
L 126.277043 307.584 
L 126.277043 302.976 
L 125.804001 302.976 
z
" style="fill:#f48024;opacity:0.4;"/>
   </g>
   <g id="patch_7">
    <path clip-path="url(#p836cdc0f72)" d="M 126.277043 307.584 
L 126.750084 307.584 
L 126.750084 298.368 
L 126.277043 298.368 
z
" style="fill:#f48024;opacity:0.4;"/>
   </g>
   <g id="patch_8">
    <path clip-path="url(#p836cdc0f72)" d="M 126.750084 307.584 
L 127.223126 307.584 
L 127.223126 307.584 
L 126.750084 307.584 
z
" style="fill:#f48024;opacity:0.4;"/>
   </g>
   <g id="patch_9">
    <path clip-path="url(#p836cdc0f72)" d="M 127.223126 307.584 
L 127.696168 307.584 
L 127.696168 289.152 
L 127.223126 289.152 
z
" style="fill:#f48024;opacity:0.4;"/>
   </g>
   <g id="patch_10">
    <path clip-path="url(#p836cdc0f72)" d="M 127.696168 307.584 
L 128.16921 307.584 
L 128.16921 284.544 
L 127.696168 284.544 
z
" style="fill:#f48024;opacity:0.4;"/>
   </g>
   <g id="patch_11">
    <path clip-path="url(#p836cdc0f72)" d="M 128.16921 307.584 
L 128.642252 307.584 
L 128.642252 284.544 
L 128.16921 284.544 
z
" style="fill:#f48024;opacity:0.4;"/>
   </g>
   <g id="patch_12">
    <path clip-path="url(#p836cdc0f72)" d="M 128.642252 307.584 
L 129.115293 307.584 
L 129.115293 279.936 
L 128.642252 279.936 
z
" style="fill:#f48024;opacity:0.4;"/>
   </g>
   <g id="patch_13">
    <path clip-path="url(#p836cdc0f72)" d="M 129.115293 307.584 
L 129.588335 307.584 
L 129.588335 279.936 
L 129.115293 279.936 
z
" style="fill:#f48024;opacity:0.4;"/>
   </g>
   <g id="patch_14">
    <path clip-path="url(#p836cdc0f72)" d="M 129.588335 307.584 
L 130.061377 307.584 
L 130.061377 252.288 
L 129.588335 252.288 
z
" style="fill:#f48024;opacity:0.4;"/>
   </g>
   <g id="patch_15">
    <path clip-path="url(#p836cdc0f72)" d="M 130.061377 307.584 
L 130.534419 307.584 
L 130.534419 233.856 
L 130.061377 233.856 
z
" style="fill:#f48024;opacity:0.4;"/>
   </g>
   <g id="patch_16">
    <path clip-path="url(#p836cdc0f72)" d="M 130.534419 307.584 
L 131.00746 307.584 
L 131.00746 187.776 
L 130.534419 187.776 
z
" style="fill:#f48024;opacity:0.4;"/>
   </g>
   <g id="patch_17">
    <path clip-path="url(#p836cdc0f72)" d="M 131.00746 307.584 
L 131.480502 307.584 
L 131.480502 206.208 
L 131.00746 206.208 
z
" style="fill:#f48024;opacity:0.4;"/>
   </g>
   <g id="patch_18">
    <path clip-path="url(#p836cdc0f72)" d="M 131.480502 307.584 
L 131.953544 307.584 
L 131.953544 201.6 
L 131.480502 201.6 
z
" style="fill:#f48024;opacity:0.4;"/>
   </g>
   <g id="patch_19">
    <path clip-path="url(#p836cdc0f72)" d="M 131.953544 307.584 
L 132.426586 307.584 
L 132.426586 192.384 
L 131.953544 192.384 
z
" style="fill:#f48024;opacity:0.4;"/>
   </g>
   <g id="patch_20">
    <path clip-path="url(#p836cdc0f72)" d="M 132.426586 307.584 
L 132.899628 307.584 
L 132.899628 169.344 
L 132.426586 169.344 
z
" style="fill:#f48024;opacity:0.4;"/>
   </g>
   <g id="patch_21">
    <path clip-path="url(#p836cdc0f72)" d="M 132.899628 307.584 
L 133.372669 307.584 
L 133.372669 196.992 
L 132.899628 196.992 
z
" style="fill:#f48024;opacity:0.4;"/>
   </g>
   <g id="patch_22">
    <path clip-path="url(#p836cdc0f72)" d="M 133.372669 307.584 
L 133.845711 307.584 
L 133.845711 196.992 
L 133.372669 196.992 
z
" style="fill:#f48024;opacity:0.4;"/>
   </g>
   <g id="patch_23">
    <path clip-path="url(#p836cdc0f72)" d="M 133.845711 307.584 
L 134.318753 307.584 
L 134.318753 183.168 
L 133.845711 183.168 
z
" style="fill:#f48024;opacity:0.4;"/>
   </g>
   <g id="patch_24">
    <path clip-path="url(#p836cdc0f72)" d="M 134.318753 307.584 
L 134.791795 307.584 
L 134.791795 150.912 
L 134.318753 150.912 
z
" style="fill:#f48024;opacity:0.4;"/>
   </g>
   <g id="patch_25">
    <path clip-path="url(#p836cdc0f72)" d="M 134.791795 307.584 
L 135.264837 307.584 
L 135.264837 155.52 
L 134.791795 155.52 
z
" style="fill:#f48024;opacity:0.4;"/>
   </g>
   <g id="patch_26">
    <path clip-path="url(#p836cdc0f72)" d="M 135.264837 307.584 
L 135.737878 307.584 
L 135.737878 137.088 
L 135.264837 137.088 
z
" style="fill:#f48024;opacity:0.4;"/>
   </g>
   <g id="patch_27">
    <path clip-path="url(#p836cdc0f72)" d="M 135.737878 307.584 
L 136.21092 307.584 
L 136.21092 109.44 
L 135.737878 109.44 
z
" style="fill:#f48024;opacity:0.4;"/>
   </g>
   <g id="patch_28">
    <path clip-path="url(#p836cdc0f72)" d="M 136.21092 307.584 
L 136.683962 307.584 
L 136.683962 100.224 
L 136.21092 100.224 
z
" style="fill:#f48024;opacity:0.4;"/>
   </g>
   <g id="patch_29">
    <path clip-path="url(#p836cdc0f72)" d="M 136.683962 307.584 
L 137.157004 307.584 
L 137.157004 54.144 
L 136.683962 54.144 
z
" style="fill:#f48024;opacity:0.4;"/>
   </g>
   <g id="patch_30">
    <path clip-path="url(#p836cdc0f72)" d="M 137.157004 307.584 
L 137.630046 307.584 
L 137.630046 127.872 
L 137.157004 127.872 
z
" style="fill:#f48024;opacity:0.4;"/>
   </g>
   <g id="patch_31">
    <path clip-path="url(#p836cdc0f72)" d="M 137.630046 307.584 
L 138.103087 307.584 
L 138.103087 160.128 
L 137.630046 160.128 
z
" style="fill:#f48024;opacity:0.4;"/>
   </g>
   <g id="patch_32">
    <path clip-path="url(#p836cdc0f72)" d="M 138.103087 307.584 
L 138.576129 307.584 
L 138.576129 63.36 
L 138.103087 63.36 
z
" style="fill:#f48024;opacity:0.4;"/>
   </g>
   <g id="patch_33">
    <path clip-path="url(#p836cdc0f72)" d="M 138.576129 307.584 
L 139.049171 307.584 
L 139.049171 141.696 
L 138.576129 141.696 
z
" style="fill:#f48024;opacity:0.4;"/>
   </g>
   <g id="patch_34">
    <path clip-path="url(#p836cdc0f72)" d="M 139.049171 307.584 
L 139.522213 307.584 
L 139.522213 141.696 
L 139.049171 141.696 
z
" style="fill:#f48024;opacity:0.4;"/>
   </g>
   <g id="patch_35">
    <path clip-path="url(#p836cdc0f72)" d="M 139.522213 307.584 
L 139.995254 307.584 
L 139.995254 132.48 
L 139.522213 132.48 
z
" style="fill:#f48024;opacity:0.4;"/>
   </g>
   <g id="patch_36">
    <path clip-path="url(#p836cdc0f72)" d="M 139.995254 307.584 
L 140.468296 307.584 
L 140.468296 164.736 
L 139.995254 164.736 
z
" style="fill:#f48024;opacity:0.4;"/>
   </g>
   <g id="patch_37">
    <path clip-path="url(#p836cdc0f72)" d="M 140.468296 307.584 
L 140.941338 307.584 
L 140.941338 183.168 
L 140.468296 183.168 
z
" style="fill:#f48024;opacity:0.4;"/>
   </g>
   <g id="patch_38">
    <path clip-path="url(#p836cdc0f72)" d="M 140.941338 307.584 
L 141.41438 307.584 
L 141.41438 137.088 
L 140.941338 137.088 
z
" style="fill:#f48024;opacity:0.4;"/>
   </g>
   <g id="patch_39">
    <path clip-path="url(#p836cdc0f72)" d="M 141.41438 307.584 
L 141.887422 307.584 
L 141.887422 127.872 
L 141.41438 127.872 
z
" style="fill:#f48024;opacity:0.4;"/>
   </g>
   <g id="patch_40">
    <path clip-path="url(#p836cdc0f72)" d="M 141.887422 307.584 
L 142.360463 307.584 
L 142.360463 146.304 
L 141.887422 146.304 
z
" style="fill:#f48024;opacity:0.4;"/>
   </g>
   <g id="patch_41">
    <path clip-path="url(#p836cdc0f72)" d="M 142.360463 307.584 
L 142.833505 307.584 
L 142.833505 187.776 
L 142.360463 187.776 
z
" style="fill:#f48024;opacity:0.4;"/>
   </g>
   <g id="patch_42">
    <path clip-path="url(#p836cdc0f72)" d="M 142.833505 307.584 
L 143.306547 307.584 
L 143.306547 206.208 
L 142.833505 206.208 
z
" style="fill:#f48024;opacity:0.4;"/>
   </g>
   <g id="patch_43">
    <path clip-path="url(#p836cdc0f72)" d="M 143.306547 307.584 
L 143.779589 307.584 
L 143.779589 229.248 
L 143.306547 229.248 
z
" style="fill:#f48024;opacity:0.4;"/>
   </g>
   <g id="patch_44">
    <path clip-path="url(#p836cdc0f72)" d="M 143.779589 307.584 
L 144.252631 307.584 
L 144.252631 243.072 
L 143.779589 243.072 
z
" style="fill:#f48024;opacity:0.4;"/>
   </g>
   <g id="patch_45">
    <path clip-path="url(#p836cdc0f72)" d="M 144.252631 307.584 
L 144.725672 307.584 
L 144.725672 238.464 
L 144.252631 238.464 
z
" style="fill:#f48024;opacity:0.4;"/>
   </g>
   <g id="patch_46">
    <path clip-path="url(#p836cdc0f72)" d="M 144.725672 307.584 
L 145.198714 307.584 
L 145.198714 233.856 
L 144.725672 233.856 
z
" style="fill:#f48024;opacity:0.4;"/>
   </g>
   <g id="patch_47">
    <path clip-path="url(#p836cdc0f72)" d="M 145.198714 307.584 
L 145.671756 307.584 
L 145.671756 261.504 
L 145.198714 261.504 
z
" style="fill:#f48024;opacity:0.4;"/>
   </g>
   <g id="patch_48">
    <path clip-path="url(#p836cdc0f72)" d="M 145.671756 307.584 
L 146.144798 307.584 
L 146.144798 247.68 
L 145.671756 247.68 
z
" style="fill:#f48024;opacity:0.4;"/>
   </g>
   <g id="patch_49">
    <path clip-path="url(#p836cdc0f72)" d="M 146.144798 307.584 
L 146.61784 307.584 
L 146.61784 266.112 
L 146.144798 266.112 
z
" style="fill:#f48024;opacity:0.4;"/>
   </g>
   <g id="patch_50">
    <path clip-path="url(#p836cdc0f72)" d="M 146.61784 307.584 
L 147.090881 307.584 
L 147.090881 270.72 
L 146.61784 270.72 
z
" style="fill:#f48024;opacity:0.4;"/>
   </g>
   <g id="patch_51">
    <path clip-path="url(#p836cdc0f72)" d="M 147.090881 307.584 
L 147.563923 307.584 
L 147.563923 279.936 
L 147.090881 279.936 
z
" style="fill:#f48024;opacity:0.4;"/>
   </g>
   <g id="patch_52">
    <path clip-path="url(#p836cdc0f72)" d="M 147.563923 307.584 
L 148.036965 307.584 
L 148.036965 256.896 
L 147.563923 256.896 
z
" style="fill:#f48024;opacity:0.4;"/>
   </g>
   <g id="patch_53">
    <path clip-path="url(#p836cdc0f72)" d="M 148.036965 307.584 
L 148.510007 307.584 
L 148.510007 275.328 
L 148.036965 275.328 
z
" style="fill:#f48024;opacity:0.4;"/>
   </g>
   <g id="patch_54">
    <path clip-path="url(#p836cdc0f72)" d="M 148.510007 307.584 
L 148.983048 307.584 
L 148.983048 289.152 
L 148.510007 289.152 
z
" style="fill:#f48024;opacity:0.4;"/>
   </g>
   <g id="patch_55">
    <path clip-path="url(#p836cdc0f72)" d="M 148.983048 307.584 
L 149.45609 307.584 
L 149.45609 298.368 
L 148.983048 298.368 
z
" style="fill:#f48024;opacity:0.4;"/>
   </g>
   <g id="patch_56">
    <path clip-path="url(#p836cdc0f72)" d="M 149.45609 307.584 
L 149.929132 307.584 
L 149.929132 293.76 
L 149.45609 293.76 
z
" style="fill:#f48024;opacity:0.4;"/>
   </g>
   <g id="patch_57">
    <path clip-path="url(#p836cdc0f72)" d="M 149.929132 307.584 
L 150.402174 307.584 
L 150.402174 298.368 
L 149.929132 298.368 
z
" style="fill:#f48024;opacity:0.4;"/>
   </g>
   <g id="patch_58">
    <path clip-path="url(#p836cdc0f72)" d="M 150.402174 307.584 
L 150.875216 307.584 
L 150.875216 289.152 
L 150.402174 289.152 
z
" style="fill:#f48024;opacity:0.4;"/>
   </g>
   <g id="patch_59">
    <path clip-path="url(#p836cdc0f72)" d="M 150.875216 307.584 
L 151.348257 307.584 
L 151.348257 284.544 
L 150.875216 284.544 
z
" style="fill:#f48024;opacity:0.4;"/>
   </g>
   <g id="patch_60">
    <path clip-path="url(#p836cdc0f72)" d="M 151.348257 307.584 
L 151.821299 307.584 
L 151.821299 284.544 
L 151.348257 284.544 
z
" style="fill:#f48024;opacity:0.4;"/>
   </g>
   <g id="patch_61">
    <path clip-path="url(#p836cdc0f72)" d="M 151.821299 307.584 
L 152.294341 307.584 
L 152.294341 289.152 
L 151.821299 289.152 
z
" style="fill:#f48024;opacity:0.4;"/>
   </g>
   <g id="patch_62">
    <path clip-path="url(#p836cdc0f72)" d="M 152.294341 307.584 
L 152.767383 307.584 
L 152.767383 279.936 
L 152.294341 279.936 
z
" style="fill:#f48024;opacity:0.4;"/>
   </g>
   <g id="patch_63">
    <path clip-path="url(#p836cdc0f72)" d="M 152.767383 307.584 
L 153.240425 307.584 
L 153.240425 289.152 
L 152.767383 289.152 
z
" style="fill:#f48024;opacity:0.4;"/>
   </g>
   <g id="patch_64">
    <path clip-path="url(#p836cdc0f72)" d="M 153.240425 307.584 
L 153.713466 307.584 
L 153.713466 293.76 
L 153.240425 293.76 
z
" style="fill:#f48024;opacity:0.4;"/>
   </g>
   <g id="patch_65">
    <path clip-path="url(#p836cdc0f72)" d="M 153.713466 307.584 
L 154.186508 307.584 
L 154.186508 298.368 
L 153.713466 298.368 
z
" style="fill:#f48024;opacity:0.4;"/>
   </g>
   <g id="patch_66">
    <path clip-path="url(#p836cdc0f72)" d="M 154.186508 307.584 
L 154.65955 307.584 
L 154.65955 275.328 
L 154.186508 275.328 
z
" style="fill:#f48024;opacity:0.4;"/>
   </g>
   <g id="patch_67">
    <path clip-path="url(#p836cdc0f72)" d="M 154.65955 307.584 
L 155.132592 307.584 
L 155.132592 298.368 
L 154.65955 298.368 
z
" style="fill:#f48024;opacity:0.4;"/>
   </g>
   <g id="patch_68">
    <path clip-path="url(#p836cdc0f72)" d="M 155.132592 307.584 
L 155.605633 307.584 
L 155.605633 284.544 
L 155.132592 284.544 
z
" style="fill:#f48024;opacity:0.4;"/>
   </g>
   <g id="patch_69">
    <path clip-path="url(#p836cdc0f72)" d="M 155.605633 307.584 
L 156.078675 307.584 
L 156.078675 289.152 
L 155.605633 289.152 
z
" style="fill:#f48024;opacity:0.4;"/>
   </g>
   <g id="patch_70">
    <path clip-path="url(#p836cdc0f72)" d="M 156.078675 307.584 
L 156.551717 307.584 
L 156.551717 266.112 
L 156.078675 266.112 
z
" style="fill:#f48024;opacity:0.4;"/>
   </g>
   <g id="patch_71">
    <path clip-path="url(#p836cdc0f72)" d="M 156.551717 307.584 
L 157.024759 307.584 
L 157.024759 243.072 
L 156.551717 243.072 
z
" style="fill:#f48024;opacity:0.4;"/>
   </g>
   <g id="patch_72">
    <path clip-path="url(#p836cdc0f72)" d="M 157.024759 307.584 
L 157.497801 307.584 
L 157.497801 266.112 
L 157.024759 266.112 
z
" style="fill:#f48024;opacity:0.4;"/>
   </g>
   <g id="patch_73">
    <path clip-path="url(#p836cdc0f72)" d="M 157.497801 307.584 
L 157.970842 307.584 
L 157.970842 261.504 
L 157.497801 261.504 
z
" style="fill:#f48024;opacity:0.4;"/>
   </g>
   <g id="patch_74">
    <path clip-path="url(#p836cdc0f72)" d="M 157.970842 307.584 
L 158.443884 307.584 
L 158.443884 261.504 
L 157.970842 261.504 
z
" style="fill:#f48024;opacity:0.4;"/>
   </g>
   <g id="patch_75">
    <path clip-path="url(#p836cdc0f72)" d="M 158.443884 307.584 
L 158.916926 307.584 
L 158.916926 252.288 
L 158.443884 252.288 
z
" style="fill:#f48024;opacity:0.4;"/>
   </g>
   <g id="patch_76">
    <path clip-path="url(#p836cdc0f72)" d="M 158.916926 307.584 
L 159.389968 307.584 
L 159.389968 215.424 
L 158.916926 215.424 
z
" style="fill:#f48024;opacity:0.4;"/>
   </g>
   <g id="patch_77">
    <path clip-path="url(#p836cdc0f72)" d="M 159.389968 307.584 
L 159.86301 307.584 
L 159.86301 220.032 
L 159.389968 220.032 
z
" style="fill:#f48024;opacity:0.4;"/>
   </g>
   <g id="patch_78">
    <path clip-path="url(#p836cdc0f72)" d="M 159.86301 307.584 
L 160.336051 307.584 
L 160.336051 127.872 
L 159.86301 127.872 
z
" style="fill:#f48024;opacity:0.4;"/>
   </g>
   <g id="patch_79">
    <path clip-path="url(#p836cdc0f72)" d="M 160.336051 307.584 
L 160.809093 307.584 
L 160.809093 160.128 
L 160.336051 160.128 
z
" style="fill:#f48024;opacity:0.4;"/>
   </g>
   <g id="patch_80">
    <path clip-path="url(#p836cdc0f72)" d="M 160.809093 307.584 
L 161.282135 307.584 
L 161.282135 137.088 
L 160.809093 137.088 
z
" style="fill:#f48024;opacity:0.4;"/>
   </g>
   <g id="patch_81">
    <path clip-path="url(#p836cdc0f72)" d="M 161.282135 307.584 
L 161.755177 307.584 
L 161.755177 109.44 
L 161.282135 109.44 
z
" style="fill:#f48024;opacity:0.4;"/>
   </g>
   <g id="patch_82">
    <path clip-path="url(#p836cdc0f72)" d="M 161.755177 307.584 
L 162.228219 307.584 
L 162.228219 118.656 
L 161.755177 118.656 
z
" style="fill:#f48024;opacity:0.4;"/>
   </g>
   <g id="patch_83">
    <path clip-path="url(#p836cdc0f72)" d="M 162.228219 307.584 
L 162.70126 307.584 
L 162.70126 141.696 
L 162.228219 141.696 
z
" style="fill:#f48024;opacity:0.4;"/>
   </g>
   <g id="patch_84">
    <path clip-path="url(#p836cdc0f72)" d="M 162.70126 307.584 
L 163.174302 307.584 
L 163.174302 160.128 
L 162.70126 160.128 
z
" style="fill:#f48024;opacity:0.4;"/>
   </g>
   <g id="patch_85">
    <path clip-path="url(#p836cdc0f72)" d="M 163.174302 307.584 
L 163.647344 307.584 
L 163.647344 141.696 
L 163.174302 141.696 
z
" style="fill:#f48024;opacity:0.4;"/>
   </g>
   <g id="patch_86">
    <path clip-path="url(#p836cdc0f72)" d="M 163.647344 307.584 
L 164.120386 307.584 
L 164.120386 229.248 
L 163.647344 229.248 
z
" style="fill:#f48024;opacity:0.4;"/>
   </g>
   <g id="patch_87">
    <path clip-path="url(#p836cdc0f72)" d="M 164.120386 307.584 
L 164.593427 307.584 
L 164.593427 224.64 
L 164.120386 224.64 
z
" style="fill:#f48024;opacity:0.4;"/>
   </g>
   <g id="patch_88">
    <path clip-path="url(#p836cdc0f72)" d="M 164.593427 307.584 
L 165.066469 307.584 
L 165.066469 233.856 
L 164.593427 233.856 
z
" style="fill:#f48024;opacity:0.4;"/>
   </g>
   <g id="patch_89">
    <path clip-path="url(#p836cdc0f72)" d="M 165.066469 307.584 
L 165.539511 307.584 
L 165.539511 215.424 
L 165.066469 215.424 
z
" style="fill:#f48024;opacity:0.4;"/>
   </g>
   <g id="patch_90">
    <path clip-path="url(#p836cdc0f72)" d="M 165.539511 307.584 
L 166.012553 307.584 
L 166.012553 247.68 
L 165.539511 247.68 
z
" style="fill:#f48024;opacity:0.4;"/>
   </g>
   <g id="patch_91">
    <path clip-path="url(#p836cdc0f72)" d="M 166.012553 307.584 
L 166.485595 307.584 
L 166.485595 256.896 
L 166.012553 256.896 
z
" style="fill:#f48024;opacity:0.4;"/>
   </g>
   <g id="patch_92">
    <path clip-path="url(#p836cdc0f72)" d="M 166.485595 307.584 
L 166.958636 307.584 
L 166.958636 279.936 
L 166.485595 279.936 
z
" style="fill:#f48024;opacity:0.4;"/>
   </g>
   <g id="patch_93">
    <path clip-path="url(#p836cdc0f72)" d="M 166.958636 307.584 
L 167.431678 307.584 
L 167.431678 275.328 
L 166.958636 275.328 
z
" style="fill:#f48024;opacity:0.4;"/>
   </g>
   <g id="patch_94">
    <path clip-path="url(#p836cdc0f72)" d="M 167.431678 307.584 
L 167.90472 307.584 
L 167.90472 293.76 
L 167.431678 293.76 
z
" style="fill:#f48024;opacity:0.4;"/>
   </g>
   <g id="patch_95">
    <path clip-path="url(#p836cdc0f72)" d="M 167.90472 307.584 
L 168.377762 307.584 
L 168.377762 298.368 
L 167.90472 298.368 
z
" style="fill:#f48024;opacity:0.4;"/>
   </g>
   <g id="patch_96">
    <path clip-path="url(#p836cdc0f72)" d="M 168.377762 307.584 
L 168.850804 307.584 
L 168.850804 293.76 
L 168.377762 293.76 
z
" style="fill:#f48024;opacity:0.4;"/>
   </g>
   <g id="patch_97">
    <path clip-path="url(#p836cdc0f72)" d="M 168.850804 307.584 
L 169.323845 307.584 
L 169.323845 289.152 
L 168.850804 289.152 
z
" style="fill:#f48024;opacity:0.4;"/>
   </g>
   <g id="patch_98">
    <path clip-path="url(#p836cdc0f72)" d="M 169.323845 307.584 
L 169.796887 307.584 
L 169.796887 302.976 
L 169.323845 302.976 
z
" style="fill:#f48024;opacity:0.4;"/>
   </g>
   <g id="patch_99">
    <path clip-path="url(#p836cdc0f72)" d="M 169.796887 307.584 
L 170.269929 307.584 
L 170.269929 307.584 
L 169.796887 307.584 
z
" style="fill:#f48024;opacity:0.4;"/>
   </g>
   <g id="patch_100">
    <path clip-path="url(#p836cdc0f72)" d="M 170.269929 307.584 
L 170.742971 307.584 
L 170.742971 307.584 
L 170.269929 307.584 
z
" style="fill:#f48024;opacity:0.4;"/>
   </g>
   <g id="patch_101">
    <path clip-path="url(#p836cdc0f72)" d="M 170.742971 307.584 
L 171.216012 307.584 
L 171.216012 302.976 
L 170.742971 302.976 
z
" style="fill:#f48024;opacity:0.4;"/>
   </g>
   <g id="patch_102">
    <path clip-path="url(#p836cdc0f72)" d="M 171.216012 307.584 
L 171.689054 307.584 
L 171.689054 302.976 
L 171.216012 302.976 
z
" style="fill:#f48024;opacity:0.4;"/>
   </g>
   <g id="patch_103">
    <path clip-path="url(#p836cdc0f72)" d="M 103.260679 307.584 
L 105.918666 307.584 
L 105.918666 299.383143 
L 103.260679 299.383143 
z
" style="fill:#008000;opacity:0.4;"/>
   </g>
   <g id="patch_104">
    <path clip-path="url(#p836cdc0f72)" d="M 105.918666 307.584 
L 108.576652 307.584 
L 108.576652 295.282715 
L 105.918666 295.282715 
z
" style="fill:#008000;opacity:0.4;"/>
   </g>
   <g id="patch_105">
    <path clip-path="url(#p836cdc0f72)" d="M 108.576652 307.584 
L 111.234638 307.584 
L 111.234638 296.102801 
L 108.576652 296.102801 
z
" style="fill:#008000;opacity:0.4;"/>
   </g>
   <g id="patch_106">
    <path clip-path="url(#p836cdc0f72)" d="M 111.234638 307.584 
L 113.892625 307.584 
L 113.892625 280.521173 
L 111.234638 280.521173 
z
" style="fill:#008000;opacity:0.4;"/>
   </g>
   <g id="patch_107">
    <path clip-path="url(#p836cdc0f72)" d="M 113.892625 307.584 
L 116.550611 307.584 
L 116.550611 278.881002 
L 113.892625 278.881002 
z
" style="fill:#008000;opacity:0.4;"/>
   </g>
   <g id="patch_108">
    <path clip-path="url(#p836cdc0f72)" d="M 116.550611 307.584 
L 119.208598 307.584 
L 119.208598 276.420745 
L 116.550611 276.420745 
z
" style="fill:#008000;opacity:0.4;"/>
   </g>
   <g id="patch_109">
    <path clip-path="url(#p836cdc0f72)" d="M 119.208598 307.584 
L 121.866584 307.584 
L 121.866584 269.039974 
L 119.208598 269.039974 
z
" style="fill:#008000;opacity:0.4;"/>
   </g>
   <g id="patch_110">
    <path clip-path="url(#p836cdc0f72)" d="M 121.866584 307.584 
L 124.524571 307.584 
L 124.524571 276.420745 
L 121.866584 276.420745 
z
" style="fill:#008000;opacity:0.4;"/>
   </g>
   <g id="patch_111">
    <path clip-path="url(#p836cdc0f72)" d="M 124.524571 307.584 
L 127.182557 307.584 
L 127.182557 264.939545 
L 124.524571 264.939545 
z
" style="fill:#008000;opacity:0.4;"/>
   </g>
   <g id="patch_112">
    <path clip-path="url(#p836cdc0f72)" d="M 127.182557 307.584 
L 129.840543 307.584 
L 129.840543 267.399802 
L 127.182557 267.399802 
z
" style="fill:#008000;opacity:0.4;"/>
   </g>
   <g id="patch_113">
    <path clip-path="url(#p836cdc0f72)" d="M 129.840543 307.584 
L 132.49853 307.584 
L 132.49853 267.399802 
L 129.840543 267.399802 
z
" style="fill:#008000;opacity:0.4;"/>
   </g>
   <g id="patch_114">
    <path clip-path="url(#p836cdc0f72)" d="M 132.49853 307.584 
L 135.156516 307.584 
L 135.156516 271.500231 
L 132.49853 271.500231 
z
" style="fill:#008000;opacity:0.4;"/>
   </g>
   <g id="patch_115">
    <path clip-path="url(#p836cdc0f72)" d="M 135.156516 307.584 
L 137.814503 307.584 
L 137.814503 266.579717 
L 135.156516 266.579717 
z
" style="fill:#008000;opacity:0.4;"/>
   </g>
   <g id="patch_116">
    <path clip-path="url(#p836cdc0f72)" d="M 137.814503 307.584 
L 140.472489 307.584 
L 140.472489 267.399802 
L 137.814503 267.399802 
z
" style="fill:#008000;opacity:0.4;"/>
   </g>
   <g id="patch_117">
    <path clip-path="url(#p836cdc0f72)" d="M 140.472489 307.584 
L 143.130475 307.584 
L 143.130475 263.299374 
L 140.472489 263.299374 
z
" style="fill:#008000;opacity:0.4;"/>
   </g>
   <g id="patch_118">
    <path clip-path="url(#p836cdc0f72)" d="M 143.130475 307.584 
L 145.788462 307.584 
L 145.788462 268.219888 
L 143.130475 268.219888 
z
" style="fill:#008000;opacity:0.4;"/>
   </g>
   <g id="patch_119">
    <path clip-path="url(#p836cdc0f72)" d="M 145.788462 307.584 
L 148.446448 307.584 
L 148.446448 275.600659 
L 145.788462 275.600659 
z
" style="fill:#008000;opacity:0.4;"/>
   </g>
   <g id="patch_120">
    <path clip-path="url(#p836cdc0f72)" d="M 148.446448 307.584 
L 151.104435 307.584 
L 151.104435 268.219888 
L 148.446448 268.219888 
z
" style="fill:#008000;opacity:0.4;"/>
   </g>
   <g id="patch_121">
    <path clip-path="url(#p836cdc0f72)" d="M 151.104435 307.584 
L 153.762421 307.584 
L 153.762421 254.278432 
L 151.104435 254.278432 
z
" style="fill:#008000;opacity:0.4;"/>
   </g>
   <g id="patch_122">
    <path clip-path="url(#p836cdc0f72)" d="M 153.762421 307.584 
L 156.420408 307.584 
L 156.420408 259.198946 
L 153.762421 259.198946 
z
" style="fill:#008000;opacity:0.4;"/>
   </g>
   <g id="patch_123">
    <path clip-path="url(#p836cdc0f72)" d="M 156.420408 307.584 
L 159.078394 307.584 
L 159.078394 268.219888 
L 156.420408 268.219888 
z
" style="fill:#008000;opacity:0.4;"/>
   </g>
   <g id="patch_124">
    <path clip-path="url(#p836cdc0f72)" d="M 159.078394 307.584 
L 161.73638 307.584 
L 161.73638 273.140402 
L 159.078394 273.140402 
z
" style="fill:#008000;opacity:0.4;"/>
   </g>
   <g id="patch_125">
    <path clip-path="url(#p836cdc0f72)" d="M 161.73638 307.584 
L 164.394367 307.584 
L 164.394367 272.320316 
L 161.73638 272.320316 
z
" style="fill:#008000;opacity:0.4;"/>
   </g>
   <g id="patch_126">
    <path clip-path="url(#p836cdc0f72)" d="M 164.394367 307.584 
L 167.052353 307.584 
L 167.052353 270.680145 
L 164.394367 270.680145 
z
" style="fill:#008000;opacity:0.4;"/>
   </g>
   <g id="patch_127">
    <path clip-path="url(#p836cdc0f72)" d="M 167.052353 307.584 
L 169.71034 307.584 
L 169.71034 284.621601 
L 167.052353 284.621601 
z
" style="fill:#008000;opacity:0.4;"/>
   </g>
   <g id="patch_128">
    <path clip-path="url(#p836cdc0f72)" d="M 169.71034 307.584 
L 172.368326 307.584 
L 172.368326 276.420745 
L 169.71034 276.420745 
z
" style="fill:#008000;opacity:0.4;"/>
   </g>
   <g id="patch_129">
    <path clip-path="url(#p836cdc0f72)" d="M 172.368326 307.584 
L 175.026312 307.584 
L 175.026312 287.901944 
L 172.368326 287.901944 
z
" style="fill:#008000;opacity:0.4;"/>
   </g>
   <g id="patch_130">
    <path clip-path="url(#p836cdc0f72)" d="M 175.026312 307.584 
L 177.684299 307.584 
L 177.684299 276.420745 
L 175.026312 276.420745 
z
" style="fill:#008000;opacity:0.4;"/>
   </g>
   <g id="patch_131">
    <path clip-path="url(#p836cdc0f72)" d="M 177.684299 307.584 
L 180.342285 307.584 
L 180.342285 282.98143 
L 177.684299 282.98143 
z
" style="fill:#008000;opacity:0.4;"/>
   </g>
   <g id="patch_132">
    <path clip-path="url(#p836cdc0f72)" d="M 180.342285 307.584 
L 183.000272 307.584 
L 183.000272 274.780573 
L 180.342285 274.780573 
z
" style="fill:#008000;opacity:0.4;"/>
   </g>
   <g id="patch_133">
    <path clip-path="url(#p836cdc0f72)" d="M 183.000272 307.584 
L 185.658258 307.584 
L 185.658258 286.261773 
L 183.000272 286.261773 
z
" style="fill:#008000;opacity:0.4;"/>
   </g>
   <g id="patch_134">
    <path clip-path="url(#p836cdc0f72)" d="M 185.658258 307.584 
L 188.316245 307.584 
L 188.316245 288.72203 
L 185.658258 288.72203 
z
" style="fill:#008000;opacity:0.4;"/>
   </g>
   <g id="patch_135">
    <path clip-path="url(#p836cdc0f72)" d="M 188.316245 307.584 
L 190.974231 307.584 
L 190.974231 283.801516 
L 188.316245 283.801516 
z
" style="fill:#008000;opacity:0.4;"/>
   </g>
   <g id="patch_136">
    <path clip-path="url(#p836cdc0f72)" d="M 190.974231 307.584 
L 193.632217 307.584 
L 193.632217 285.441687 
L 190.974231 285.441687 
z
" style="fill:#008000;opacity:0.4;"/>
   </g>
   <g id="patch_137">
    <path clip-path="url(#p836cdc0f72)" d="M 193.632217 307.584 
L 196.290204 307.584 
L 196.290204 294.462629 
L 193.632217 294.462629 
z
" style="fill:#008000;opacity:0.4;"/>
   </g>
   <g id="patch_138">
    <path clip-path="url(#p836cdc0f72)" d="M 196.290204 307.584 
L 198.94819 307.584 
L 198.94819 284.621601 
L 196.290204 284.621601 
z
" style="fill:#008000;opacity:0.4;"/>
   </g>
   <g id="patch_139">
    <path clip-path="url(#p836cdc0f72)" d="M 198.94819 307.584 
L 201.606177 307.584 
L 201.606177 290.362201 
L 198.94819 290.362201 
z
" style="fill:#008000;opacity:0.4;"/>
   </g>
   <g id="patch_140">
    <path clip-path="url(#p836cdc0f72)" d="M 201.606177 307.584 
L 204.264163 307.584 
L 204.264163 296.102801 
L 201.606177 296.102801 
z
" style="fill:#008000;opacity:0.4;"/>
   </g>
   <g id="patch_141">
    <path clip-path="url(#p836cdc0f72)" d="M 204.264163 307.584 
L 206.922149 307.584 
L 206.922149 296.922886 
L 204.264163 296.922886 
z
" style="fill:#008000;opacity:0.4;"/>
   </g>
   <g id="patch_142">
    <path clip-path="url(#p836cdc0f72)" d="M 206.922149 307.584 
L 209.580136 307.584 
L 209.580136 291.182287 
L 206.922149 291.182287 
z
" style="fill:#008000;opacity:0.4;"/>
   </g>
   <g id="patch_143">
    <path clip-path="url(#p836cdc0f72)" d="M 209.580136 307.584 
L 212.238122 307.584 
L 212.238122 294.462629 
L 209.580136 294.462629 
z
" style="fill:#008000;opacity:0.4;"/>
   </g>
   <g id="patch_144">
    <path clip-path="url(#p836cdc0f72)" d="M 212.238122 307.584 
L 214.896109 307.584 
L 214.896109 294.462629 
L 212.238122 294.462629 
z
" style="fill:#008000;opacity:0.4;"/>
   </g>
   <g id="patch_145">
    <path clip-path="url(#p836cdc0f72)" d="M 214.896109 307.584 
L 217.554095 307.584 
L 217.554095 295.282715 
L 214.896109 295.282715 
z
" style="fill:#008000;opacity:0.4;"/>
   </g>
   <g id="patch_146">
    <path clip-path="url(#p836cdc0f72)" d="M 217.554095 307.584 
L 220.212082 307.584 
L 220.212082 299.383143 
L 217.554095 299.383143 
z
" style="fill:#008000;opacity:0.4;"/>
   </g>
   <g id="patch_147">
    <path clip-path="url(#p836cdc0f72)" d="M 220.212082 307.584 
L 222.870068 307.584 
L 222.870068 301.023315 
L 220.212082 301.023315 
z
" style="fill:#008000;opacity:0.4;"/>
   </g>
   <g id="patch_148">
    <path clip-path="url(#p836cdc0f72)" d="M 222.870068 307.584 
L 225.528054 307.584 
L 225.528054 296.102801 
L 222.870068 296.102801 
z
" style="fill:#008000;opacity:0.4;"/>
   </g>
   <g id="patch_149">
    <path clip-path="url(#p836cdc0f72)" d="M 225.528054 307.584 
L 228.186041 307.584 
L 228.186041 302.663486 
L 225.528054 302.663486 
z
" style="fill:#008000;opacity:0.4;"/>
   </g>
   <g id="patch_150">
    <path clip-path="url(#p836cdc0f72)" d="M 228.186041 307.584 
L 230.844027 307.584 
L 230.844027 299.383143 
L 228.186041 299.383143 
z
" style="fill:#008000;opacity:0.4;"/>
   </g>
   <g id="patch_151">
    <path clip-path="url(#p836cdc0f72)" d="M 230.844027 307.584 
L 233.502014 307.584 
L 233.502014 299.383143 
L 230.844027 299.383143 
z
" style="fill:#008000;opacity:0.4;"/>
   </g>
   <g id="patch_152">
    <path clip-path="url(#p836cdc0f72)" d="M 233.502014 307.584 
L 236.16 307.584 
L 236.16 297.742972 
L 233.502014 297.742972 
z
" style="fill:#008000;opacity:0.4;"/>
   </g>
   <g id="patch_153">
    <path clip-path="url(#p836cdc0f72)" d="M 236.16 307.584 
L 238.817986 307.584 
L 238.817986 299.383143 
L 236.16 299.383143 
z
" style="fill:#008000;opacity:0.4;"/>
   </g>
   <g id="patch_154">
    <path clip-path="url(#p836cdc0f72)" d="M 238.817986 307.584 
L 241.475973 307.584 
L 241.475973 302.663486 
L 238.817986 302.663486 
z
" style="fill:#008000;opacity:0.4;"/>
   </g>
   <g id="patch_155">
    <path clip-path="url(#p836cdc0f72)" d="M 241.475973 307.584 
L 244.133959 307.584 
L 244.133959 302.663486 
L 241.475973 302.663486 
z
" style="fill:#008000;opacity:0.4;"/>
   </g>
   <g id="patch_156">
    <path clip-path="url(#p836cdc0f72)" d="M 244.133959 307.584 
L 246.791946 307.584 
L 246.791946 304.303657 
L 244.133959 304.303657 
z
" style="fill:#008000;opacity:0.4;"/>
   </g>
   <g id="patch_157">
    <path clip-path="url(#p836cdc0f72)" d="M 246.791946 307.584 
L 249.449932 307.584 
L 249.449932 299.383143 
L 246.791946 299.383143 
z
" style="fill:#008000;opacity:0.4;"/>
   </g>
   <g id="patch_158">
    <path clip-path="url(#p836cdc0f72)" d="M 249.449932 307.584 
L 252.107918 307.584 
L 252.107918 301.8434 
L 249.449932 301.8434 
z
" style="fill:#008000;opacity:0.4;"/>
   </g>
   <g id="patch_159">
    <path clip-path="url(#p836cdc0f72)" d="M 252.107918 307.584 
L 254.765905 307.584 
L 254.765905 303.483572 
L 252.107918 303.483572 
z
" style="fill:#008000;opacity:0.4;"/>
   </g>
   <g id="patch_160">
    <path clip-path="url(#p836cdc0f72)" d="M 254.765905 307.584 
L 257.423891 307.584 
L 257.423891 306.763914 
L 254.765905 306.763914 
z
" style="fill:#008000;opacity:0.4;"/>
   </g>
   <g id="patch_161">
    <path clip-path="url(#p836cdc0f72)" d="M 257.423891 307.584 
L 260.081878 307.584 
L 260.081878 301.023315 
L 257.423891 301.023315 
z
" style="fill:#008000;opacity:0.4;"/>
   </g>
   <g id="patch_162">
    <path clip-path="url(#p836cdc0f72)" d="M 260.081878 307.584 
L 262.739864 307.584 
L 262.739864 305.123743 
L 260.081878 305.123743 
z
" style="fill:#008000;opacity:0.4;"/>
   </g>
   <g id="patch_163">
    <path clip-path="url(#p836cdc0f72)" d="M 262.739864 307.584 
L 265.397851 307.584 
L 265.397851 304.303657 
L 262.739864 304.303657 
z
" style="fill:#008000;opacity:0.4;"/>
   </g>
   <g id="patch_164">
    <path clip-path="url(#p836cdc0f72)" d="M 265.397851 307.584 
L 268.055837 307.584 
L 268.055837 302.663486 
L 265.397851 302.663486 
z
" style="fill:#008000;opacity:0.4;"/>
   </g>
   <g id="patch_165">
    <path clip-path="url(#p836cdc0f72)" d="M 268.055837 307.584 
L 270.713823 307.584 
L 270.713823 305.943829 
L 268.055837 305.943829 
z
" style="fill:#008000;opacity:0.4;"/>
   </g>
   <g id="patch_166">
    <path clip-path="url(#p836cdc0f72)" d="M 270.713823 307.584 
L 273.37181 307.584 
L 273.37181 305.123743 
L 270.713823 305.123743 
z
" style="fill:#008000;opacity:0.4;"/>
   </g>
   <g id="patch_167">
    <path clip-path="url(#p836cdc0f72)" d="M 273.37181 307.584 
L 276.029796 307.584 
L 276.029796 305.123743 
L 273.37181 305.123743 
z
" style="fill:#008000;opacity:0.4;"/>
   </g>
   <g id="patch_168">
    <path clip-path="url(#p836cdc0f72)" d="M 276.029796 307.584 
L 278.687783 307.584 
L 278.687783 304.303657 
L 276.029796 304.303657 
z
" style="fill:#008000;opacity:0.4;"/>
   </g>
   <g id="patch_169">
    <path clip-path="url(#p836cdc0f72)" d="M 278.687783 307.584 
L 281.345769 307.584 
L 281.345769 303.483572 
L 278.687783 303.483572 
z
" style="fill:#008000;opacity:0.4;"/>
   </g>
   <g id="patch_170">
    <path clip-path="url(#p836cdc0f72)" d="M 281.345769 307.584 
L 284.003755 307.584 
L 284.003755 303.483572 
L 281.345769 303.483572 
z
" style="fill:#008000;opacity:0.4;"/>
   </g>
   <g id="patch_171">
    <path clip-path="url(#p836cdc0f72)" d="M 284.003755 307.584 
L 286.661742 307.584 
L 286.661742 305.943829 
L 284.003755 305.943829 
z
" style="fill:#008000;opacity:0.4;"/>
   </g>
   <g id="patch_172">
    <path clip-path="url(#p836cdc0f72)" d="M 286.661742 307.584 
L 289.319728 307.584 
L 289.319728 306.763914 
L 286.661742 306.763914 
z
" style="fill:#008000;opacity:0.4;"/>
   </g>
   <g id="patch_173">
    <path clip-path="url(#p836cdc0f72)" d="M 289.319728 307.584 
L 291.977715 307.584 
L 291.977715 305.123743 
L 289.319728 305.123743 
z
" style="fill:#008000;opacity:0.4;"/>
   </g>
   <g id="patch_174">
    <path clip-path="url(#p836cdc0f72)" d="M 291.977715 307.584 
L 294.635701 307.584 
L 294.635701 306.763914 
L 291.977715 306.763914 
z
" style="fill:#008000;opacity:0.4;"/>
   </g>
   <g id="patch_175">
    <path clip-path="url(#p836cdc0f72)" d="M 294.635701 307.584 
L 297.293688 307.584 
L 297.293688 305.943829 
L 294.635701 305.943829 
z
" style="fill:#008000;opacity:0.4;"/>
   </g>
   <g id="patch_176">
    <path clip-path="url(#p836cdc0f72)" d="M 297.293688 307.584 
L 299.951674 307.584 
L 299.951674 307.584 
L 297.293688 307.584 
z
" style="fill:#008000;opacity:0.4;"/>
   </g>
   <g id="patch_177">
    <path clip-path="url(#p836cdc0f72)" d="M 299.951674 307.584 
L 302.60966 307.584 
L 302.60966 306.763914 
L 299.951674 306.763914 
z
" style="fill:#008000;opacity:0.4;"/>
   </g>
   <g id="patch_178">
    <path clip-path="url(#p836cdc0f72)" d="M 302.60966 307.584 
L 305.267647 307.584 
L 305.267647 306.763914 
L 302.60966 306.763914 
z
" style="fill:#008000;opacity:0.4;"/>
   </g>
   <g id="patch_179">
    <path clip-path="url(#p836cdc0f72)" d="M 305.267647 307.584 
L 307.925633 307.584 
L 307.925633 306.763914 
L 305.267647 306.763914 
z
" style="fill:#008000;opacity:0.4;"/>
   </g>
   <g id="patch_180">
    <path clip-path="url(#p836cdc0f72)" d="M 307.925633 307.584 
L 310.58362 307.584 
L 310.58362 307.584 
L 307.925633 307.584 
z
" style="fill:#008000;opacity:0.4;"/>
   </g>
   <g id="patch_181">
    <path clip-path="url(#p836cdc0f72)" d="M 310.58362 307.584 
L 313.241606 307.584 
L 313.241606 304.303657 
L 310.58362 304.303657 
z
" style="fill:#008000;opacity:0.4;"/>
   </g>
   <g id="patch_182">
    <path clip-path="url(#p836cdc0f72)" d="M 313.241606 307.584 
L 315.899592 307.584 
L 315.899592 307.584 
L 313.241606 307.584 
z
" style="fill:#008000;opacity:0.4;"/>
   </g>
   <g id="patch_183">
    <path clip-path="url(#p836cdc0f72)" d="M 315.899592 307.584 
L 318.557579 307.584 
L 318.557579 306.763914 
L 315.899592 306.763914 
z
" style="fill:#008000;opacity:0.4;"/>
   </g>
   <g id="patch_184">
    <path clip-path="url(#p836cdc0f72)" d="M 318.557579 307.584 
L 321.215565 307.584 
L 321.215565 306.763914 
L 318.557579 306.763914 
z
" style="fill:#008000;opacity:0.4;"/>
   </g>
   <g id="patch_185">
    <path clip-path="url(#p836cdc0f72)" d="M 321.215565 307.584 
L 323.873552 307.584 
L 323.873552 305.943829 
L 321.215565 305.943829 
z
" style="fill:#008000;opacity:0.4;"/>
   </g>
   <g id="patch_186">
    <path clip-path="url(#p836cdc0f72)" d="M 323.873552 307.584 
L 326.531538 307.584 
L 326.531538 306.763914 
L 323.873552 306.763914 
z
" style="fill:#008000;opacity:0.4;"/>
   </g>
   <g id="patch_187">
    <path clip-path="url(#p836cdc0f72)" d="M 326.531538 307.584 
L 329.189525 307.584 
L 329.189525 306.763914 
L 326.531538 306.763914 
z
" style="fill:#008000;opacity:0.4;"/>
   </g>
   <g id="patch_188">
    <path clip-path="url(#p836cdc0f72)" d="M 329.189525 307.584 
L 331.847511 307.584 
L 331.847511 307.584 
L 329.189525 307.584 
z
" style="fill:#008000;opacity:0.4;"/>
   </g>
   <g id="patch_189">
    <path clip-path="url(#p836cdc0f72)" d="M 331.847511 307.584 
L 334.505497 307.584 
L 334.505497 307.584 
L 331.847511 307.584 
z
" style="fill:#008000;opacity:0.4;"/>
   </g>
   <g id="patch_190">
    <path clip-path="url(#p836cdc0f72)" d="M 334.505497 307.584 
L 337.163484 307.584 
L 337.163484 306.763914 
L 334.505497 306.763914 
z
" style="fill:#008000;opacity:0.4;"/>
   </g>
   <g id="patch_191">
    <path clip-path="url(#p836cdc0f72)" d="M 337.163484 307.584 
L 339.82147 307.584 
L 339.82147 306.763914 
L 337.163484 306.763914 
z
" style="fill:#008000;opacity:0.4;"/>
   </g>
   <g id="patch_192">
    <path clip-path="url(#p836cdc0f72)" d="M 339.82147 307.584 
L 342.479457 307.584 
L 342.479457 307.584 
L 339.82147 307.584 
z
" style="fill:#008000;opacity:0.4;"/>
   </g>
   <g id="patch_193">
    <path clip-path="url(#p836cdc0f72)" d="M 342.479457 307.584 
L 345.137443 307.584 
L 345.137443 305.943829 
L 342.479457 305.943829 
z
" style="fill:#008000;opacity:0.4;"/>
   </g>
   <g id="patch_194">
    <path clip-path="url(#p836cdc0f72)" d="M 345.137443 307.584 
L 347.795429 307.584 
L 347.795429 307.584 
L 345.137443 307.584 
z
" style="fill:#008000;opacity:0.4;"/>
   </g>
   <g id="patch_195">
    <path clip-path="url(#p836cdc0f72)" d="M 347.795429 307.584 
L 350.453416 307.584 
L 350.453416 306.763914 
L 347.795429 306.763914 
z
" style="fill:#008000;opacity:0.4;"/>
   </g>
   <g id="patch_196">
    <path clip-path="url(#p836cdc0f72)" d="M 350.453416 307.584 
L 353.111402 307.584 
L 353.111402 307.584 
L 350.453416 307.584 
z
" style="fill:#008000;opacity:0.4;"/>
   </g>
   <g id="patch_197">
    <path clip-path="url(#p836cdc0f72)" d="M 353.111402 307.584 
L 355.769389 307.584 
L 355.769389 307.584 
L 353.111402 307.584 
z
" style="fill:#008000;opacity:0.4;"/>
   </g>
   <g id="patch_198">
    <path clip-path="url(#p836cdc0f72)" d="M 355.769389 307.584 
L 358.427375 307.584 
L 358.427375 306.763914 
L 355.769389 306.763914 
z
" style="fill:#008000;opacity:0.4;"/>
   </g>
   <g id="patch_199">
    <path clip-path="url(#p836cdc0f72)" d="M 358.427375 307.584 
L 361.085362 307.584 
L 361.085362 307.584 
L 358.427375 307.584 
z
" style="fill:#008000;opacity:0.4;"/>
   </g>
   <g id="patch_200">
    <path clip-path="url(#p836cdc0f72)" d="M 361.085362 307.584 
L 363.743348 307.584 
L 363.743348 307.584 
L 361.085362 307.584 
z
" style="fill:#008000;opacity:0.4;"/>
   </g>
   <g id="patch_201">
    <path clip-path="url(#p836cdc0f72)" d="M 363.743348 307.584 
L 366.401334 307.584 
L 366.401334 305.943829 
L 363.743348 305.943829 
z
" style="fill:#008000;opacity:0.4;"/>
   </g>
   <g id="patch_202">
    <path clip-path="url(#p836cdc0f72)" d="M 366.401334 307.584 
L 369.059321 307.584 
L 369.059321 306.763914 
L 366.401334 306.763914 
z
" style="fill:#008000;opacity:0.4;"/>
   </g>
   <g id="matplotlib.axis_1">
    <g id="xtick_1">
     <g id="line2d_1">
      <defs>
       <path d="M 0 0 
L 0 3.5 
" id="mff86930493" style="stroke:#000000;stroke-width:0.8;"/>
      </defs>
      <g>
       <use style="stroke:#000000;stroke-width:0.8;" x="97.688843" xlink:href="#mff86930493" y="307.584"/>
      </g>
     </g>
     <g id="text_1">
      <!-- 0 -->
      <defs>
       <path d="M 31.78125 66.40625 
Q 24.171875 66.40625 20.328125 58.90625 
Q 16.5 51.421875 16.5 36.375 
Q 16.5 21.390625 20.328125 13.890625 
Q 24.171875 6.390625 31.78125 6.390625 
Q 39.453125 6.390625 43.28125 13.890625 
Q 47.125 21.390625 47.125 36.375 
Q 47.125 51.421875 43.28125 58.90625 
Q 39.453125 66.40625 31.78125 66.40625 
z
M 31.78125 74.21875 
Q 44.046875 74.21875 50.515625 64.515625 
Q 56.984375 54.828125 56.984375 36.375 
Q 56.984375 17.96875 50.515625 8.265625 
Q 44.046875 -1.421875 31.78125 -1.421875 
Q 19.53125 -1.421875 13.0625 8.265625 
Q 6.59375 17.96875 6.59375 36.375 
Q 6.59375 54.828125 13.0625 64.515625 
Q 19.53125 74.21875 31.78125 74.21875 
z
" id="DejaVuSans-48"/>
      </defs>
      <g transform="translate(94.507593 322.182437)scale(0.1 -0.1)">
       <use xlink:href="#DejaVuSans-48"/>
      </g>
     </g>
    </g>
    <g id="xtick_2">
     <g id="line2d_2">
      <g>
       <use style="stroke:#000000;stroke-width:0.8;" x="172.978122" xlink:href="#mff86930493" y="307.584"/>
      </g>
     </g>
     <g id="text_2">
      <!-- 5000 -->
      <defs>
       <path d="M 10.796875 72.90625 
L 49.515625 72.90625 
L 49.515625 64.59375 
L 19.828125 64.59375 
L 19.828125 46.734375 
Q 21.96875 47.46875 24.109375 47.828125 
Q 26.265625 48.1875 28.421875 48.1875 
Q 40.625 48.1875 47.75 41.5 
Q 54.890625 34.8125 54.890625 23.390625 
Q 54.890625 11.625 47.5625 5.09375 
Q 40.234375 -1.421875 26.90625 -1.421875 
Q 22.3125 -1.421875 17.546875 -0.640625 
Q 12.796875 0.140625 7.71875 1.703125 
L 7.71875 11.625 
Q 12.109375 9.234375 16.796875 8.0625 
Q 21.484375 6.890625 26.703125 6.890625 
Q 35.15625 6.890625 40.078125 11.328125 
Q 45.015625 15.765625 45.015625 23.390625 
Q 45.015625 31 40.078125 35.4375 
Q 35.15625 39.890625 26.703125 39.890625 
Q 22.75 39.890625 18.8125 39.015625 
Q 14.890625 38.140625 10.796875 36.28125 
z
" id="DejaVuSans-53"/>
      </defs>
      <g transform="translate(160.253122 322.182437)scale(0.1 -0.1)">
       <use xlink:href="#DejaVuSans-53"/>
       <use x="63.623047" xlink:href="#DejaVuSans-48"/>
       <use x="127.246094" xlink:href="#DejaVuSans-48"/>
       <use x="190.869141" xlink:href="#DejaVuSans-48"/>
      </g>
     </g>
    </g>
    <g id="xtick_3">
     <g id="line2d_3">
      <g>
       <use style="stroke:#000000;stroke-width:0.8;" x="248.267401" xlink:href="#mff86930493" y="307.584"/>
      </g>
     </g>
     <g id="text_3">
      <!-- 10000 -->
      <defs>
       <path d="M 12.40625 8.296875 
L 28.515625 8.296875 
L 28.515625 63.921875 
L 10.984375 60.40625 
L 10.984375 69.390625 
L 28.421875 72.90625 
L 38.28125 72.90625 
L 38.28125 8.296875 
L 54.390625 8.296875 
L 54.390625 0 
L 12.40625 0 
z
" id="DejaVuSans-49"/>
      </defs>
      <g transform="translate(232.361151 322.182437)scale(0.1 -0.1)">
       <use xlink:href="#DejaVuSans-49"/>
       <use x="63.623047" xlink:href="#DejaVuSans-48"/>
       <use x="127.246094" xlink:href="#DejaVuSans-48"/>
       <use x="190.869141" xlink:href="#DejaVuSans-48"/>
       <use x="254.492188" xlink:href="#DejaVuSans-48"/>
      </g>
     </g>
    </g>
    <g id="xtick_4">
     <g id="line2d_4">
      <g>
       <use style="stroke:#000000;stroke-width:0.8;" x="323.556679" xlink:href="#mff86930493" y="307.584"/>
      </g>
     </g>
     <g id="text_4">
      <!-- 15000 -->
      <g transform="translate(307.650429 322.182437)scale(0.1 -0.1)">
       <use xlink:href="#DejaVuSans-49"/>
       <use x="63.623047" xlink:href="#DejaVuSans-53"/>
       <use x="127.246094" xlink:href="#DejaVuSans-48"/>
       <use x="190.869141" xlink:href="#DejaVuSans-48"/>
       <use x="254.492188" xlink:href="#DejaVuSans-48"/>
      </g>
     </g>
    </g>
    <g id="xtick_5">
     <g id="line2d_5">
      <g>
       <use style="stroke:#000000;stroke-width:0.8;" x="398.845958" xlink:href="#mff86930493" y="307.584"/>
      </g>
     </g>
     <g id="text_5">
      <!-- 20000 -->
      <defs>
       <path d="M 19.1875 8.296875 
L 53.609375 8.296875 
L 53.609375 0 
L 7.328125 0 
L 7.328125 8.296875 
Q 12.9375 14.109375 22.625 23.890625 
Q 32.328125 33.6875 34.8125 36.53125 
Q 39.546875 41.84375 41.421875 45.53125 
Q 43.3125 49.21875 43.3125 52.78125 
Q 43.3125 58.59375 39.234375 62.25 
Q 35.15625 65.921875 28.609375 65.921875 
Q 23.96875 65.921875 18.8125 64.3125 
Q 13.671875 62.703125 7.8125 59.421875 
L 7.8125 69.390625 
Q 13.765625 71.78125 18.9375 73 
Q 24.125 74.21875 28.421875 74.21875 
Q 39.75 74.21875 46.484375 68.546875 
Q 53.21875 62.890625 53.21875 53.421875 
Q 53.21875 48.921875 51.53125 44.890625 
Q 49.859375 40.875 45.40625 35.40625 
Q 44.1875 33.984375 37.640625 27.21875 
Q 31.109375 20.453125 19.1875 8.296875 
z
" id="DejaVuSans-50"/>
      </defs>
      <g transform="translate(382.939708 322.182437)scale(0.1 -0.1)">
       <use xlink:href="#DejaVuSans-50"/>
       <use x="63.623047" xlink:href="#DejaVuSans-48"/>
       <use x="127.246094" xlink:href="#DejaVuSans-48"/>
       <use x="190.869141" xlink:href="#DejaVuSans-48"/>
       <use x="254.492188" xlink:href="#DejaVuSans-48"/>
      </g>
     </g>
    </g>
   </g>
   <g id="matplotlib.axis_2">
    <g id="ytick_1">
     <g id="line2d_6">
      <defs>
       <path d="M 0 0 
L -3.5 0 
" id="md86139ca58" style="stroke:#000000;stroke-width:0.8;"/>
      </defs>
      <g>
       <use style="stroke:#000000;stroke-width:0.8;" x="57.6" xlink:href="#md86139ca58" y="307.584"/>
      </g>
     </g>
     <g id="text_6">
      <!-- 0.0000 -->
      <defs>
       <path d="M 10.6875 12.40625 
L 21 12.40625 
L 21 0 
L 10.6875 0 
z
" id="DejaVuSans-46"/>
      </defs>
      <g transform="translate(15.609375 311.383219)scale(0.1 -0.1)">
       <use xlink:href="#DejaVuSans-48"/>
       <use x="63.623047" xlink:href="#DejaVuSans-46"/>
       <use x="95.410156" xlink:href="#DejaVuSans-48"/>
       <use x="159.033203" xlink:href="#DejaVuSans-48"/>
       <use x="222.65625" xlink:href="#DejaVuSans-48"/>
       <use x="286.279297" xlink:href="#DejaVuSans-48"/>
      </g>
     </g>
    </g>
    <g id="ytick_2">
     <g id="line2d_7">
      <g>
       <use style="stroke:#000000;stroke-width:0.8;" x="57.6" xlink:href="#md86139ca58" y="259.263082"/>
      </g>
     </g>
     <g id="text_7">
      <!-- 0.0002 -->
      <g transform="translate(15.609375 263.062301)scale(0.1 -0.1)">
       <use xlink:href="#DejaVuSans-48"/>
       <use x="63.623047" xlink:href="#DejaVuSans-46"/>
       <use x="95.410156" xlink:href="#DejaVuSans-48"/>
       <use x="159.033203" xlink:href="#DejaVuSans-48"/>
       <use x="222.65625" xlink:href="#DejaVuSans-48"/>
       <use x="286.279297" xlink:href="#DejaVuSans-50"/>
      </g>
     </g>
    </g>
    <g id="ytick_3">
     <g id="line2d_8">
      <g>
       <use style="stroke:#000000;stroke-width:0.8;" x="57.6" xlink:href="#md86139ca58" y="210.942164"/>
      </g>
     </g>
     <g id="text_8">
      <!-- 0.0004 -->
      <defs>
       <path d="M 37.796875 64.3125 
L 12.890625 25.390625 
L 37.796875 25.390625 
z
M 35.203125 72.90625 
L 47.609375 72.90625 
L 47.609375 25.390625 
L 58.015625 25.390625 
L 58.015625 17.1875 
L 47.609375 17.1875 
L 47.609375 0 
L 37.796875 0 
L 37.796875 17.1875 
L 4.890625 17.1875 
L 4.890625 26.703125 
z
" id="DejaVuSans-52"/>
      </defs>
      <g transform="translate(15.609375 214.741382)scale(0.1 -0.1)">
       <use xlink:href="#DejaVuSans-48"/>
       <use x="63.623047" xlink:href="#DejaVuSans-46"/>
       <use x="95.410156" xlink:href="#DejaVuSans-48"/>
       <use x="159.033203" xlink:href="#DejaVuSans-48"/>
       <use x="222.65625" xlink:href="#DejaVuSans-48"/>
       <use x="286.279297" xlink:href="#DejaVuSans-52"/>
      </g>
     </g>
    </g>
    <g id="ytick_4">
     <g id="line2d_9">
      <g>
       <use style="stroke:#000000;stroke-width:0.8;" x="57.6" xlink:href="#md86139ca58" y="162.621245"/>
      </g>
     </g>
     <g id="text_9">
      <!-- 0.0006 -->
      <defs>
       <path d="M 33.015625 40.375 
Q 26.375 40.375 22.484375 35.828125 
Q 18.609375 31.296875 18.609375 23.390625 
Q 18.609375 15.53125 22.484375 10.953125 
Q 26.375 6.390625 33.015625 6.390625 
Q 39.65625 6.390625 43.53125 10.953125 
Q 47.40625 15.53125 47.40625 23.390625 
Q 47.40625 31.296875 43.53125 35.828125 
Q 39.65625 40.375 33.015625 40.375 
z
M 52.59375 71.296875 
L 52.59375 62.3125 
Q 48.875 64.0625 45.09375 64.984375 
Q 41.3125 65.921875 37.59375 65.921875 
Q 27.828125 65.921875 22.671875 59.328125 
Q 17.53125 52.734375 16.796875 39.40625 
Q 19.671875 43.65625 24.015625 45.921875 
Q 28.375 48.1875 33.59375 48.1875 
Q 44.578125 48.1875 50.953125 41.515625 
Q 57.328125 34.859375 57.328125 23.390625 
Q 57.328125 12.15625 50.6875 5.359375 
Q 44.046875 -1.421875 33.015625 -1.421875 
Q 20.359375 -1.421875 13.671875 8.265625 
Q 6.984375 17.96875 6.984375 36.375 
Q 6.984375 53.65625 15.1875 63.9375 
Q 23.390625 74.21875 37.203125 74.21875 
Q 40.921875 74.21875 44.703125 73.484375 
Q 48.484375 72.75 52.59375 71.296875 
z
" id="DejaVuSans-54"/>
      </defs>
      <g transform="translate(15.609375 166.420464)scale(0.1 -0.1)">
       <use xlink:href="#DejaVuSans-48"/>
       <use x="63.623047" xlink:href="#DejaVuSans-46"/>
       <use x="95.410156" xlink:href="#DejaVuSans-48"/>
       <use x="159.033203" xlink:href="#DejaVuSans-48"/>
       <use x="222.65625" xlink:href="#DejaVuSans-48"/>
       <use x="286.279297" xlink:href="#DejaVuSans-54"/>
      </g>
     </g>
    </g>
    <g id="ytick_5">
     <g id="line2d_10">
      <g>
       <use style="stroke:#000000;stroke-width:0.8;" x="57.6" xlink:href="#md86139ca58" y="114.300327"/>
      </g>
     </g>
     <g id="text_10">
      <!-- 0.0008 -->
      <defs>
       <path d="M 31.78125 34.625 
Q 24.75 34.625 20.71875 30.859375 
Q 16.703125 27.09375 16.703125 20.515625 
Q 16.703125 13.921875 20.71875 10.15625 
Q 24.75 6.390625 31.78125 6.390625 
Q 38.8125 6.390625 42.859375 10.171875 
Q 46.921875 13.96875 46.921875 20.515625 
Q 46.921875 27.09375 42.890625 30.859375 
Q 38.875 34.625 31.78125 34.625 
z
M 21.921875 38.8125 
Q 15.578125 40.375 12.03125 44.71875 
Q 8.5 49.078125 8.5 55.328125 
Q 8.5 64.0625 14.71875 69.140625 
Q 20.953125 74.21875 31.78125 74.21875 
Q 42.671875 74.21875 48.875 69.140625 
Q 55.078125 64.0625 55.078125 55.328125 
Q 55.078125 49.078125 51.53125 44.71875 
Q 48 40.375 41.703125 38.8125 
Q 48.828125 37.15625 52.796875 32.3125 
Q 56.78125 27.484375 56.78125 20.515625 
Q 56.78125 9.90625 50.3125 4.234375 
Q 43.84375 -1.421875 31.78125 -1.421875 
Q 19.734375 -1.421875 13.25 4.234375 
Q 6.78125 9.90625 6.78125 20.515625 
Q 6.78125 27.484375 10.78125 32.3125 
Q 14.796875 37.15625 21.921875 38.8125 
z
M 18.3125 54.390625 
Q 18.3125 48.734375 21.84375 45.5625 
Q 25.390625 42.390625 31.78125 42.390625 
Q 38.140625 42.390625 41.71875 45.5625 
Q 45.3125 48.734375 45.3125 54.390625 
Q 45.3125 60.0625 41.71875 63.234375 
Q 38.140625 66.40625 31.78125 66.40625 
Q 25.390625 66.40625 21.84375 63.234375 
Q 18.3125 60.0625 18.3125 54.390625 
z
" id="DejaVuSans-56"/>
      </defs>
      <g transform="translate(15.609375 118.099546)scale(0.1 -0.1)">
       <use xlink:href="#DejaVuSans-48"/>
       <use x="63.623047" xlink:href="#DejaVuSans-46"/>
       <use x="95.410156" xlink:href="#DejaVuSans-48"/>
       <use x="159.033203" xlink:href="#DejaVuSans-48"/>
       <use x="222.65625" xlink:href="#DejaVuSans-48"/>
       <use x="286.279297" xlink:href="#DejaVuSans-56"/>
      </g>
     </g>
    </g>
    <g id="ytick_6">
     <g id="line2d_11">
      <g>
       <use style="stroke:#000000;stroke-width:0.8;" x="57.6" xlink:href="#md86139ca58" y="65.979409"/>
      </g>
     </g>
     <g id="text_11">
      <!-- 0.0010 -->
      <g transform="translate(15.609375 69.778628)scale(0.1 -0.1)">
       <use xlink:href="#DejaVuSans-48"/>
       <use x="63.623047" xlink:href="#DejaVuSans-46"/>
       <use x="95.410156" xlink:href="#DejaVuSans-48"/>
       <use x="159.033203" xlink:href="#DejaVuSans-48"/>
       <use x="222.65625" xlink:href="#DejaVuSans-49"/>
       <use x="286.279297" xlink:href="#DejaVuSans-48"/>
      </g>
     </g>
    </g>
   </g>
   <g id="line2d_12">
    <path clip-path="url(#p836cdc0f72)" d="M 116.264427 307.577236 
L 116.906297 307.569524 
L 117.548166 307.554388 
L 118.190036 307.526009 
L 118.831905 307.475044 
L 119.473775 307.387147 
L 120.115644 307.241109 
L 120.757514 307.006571 
L 121.399383 306.641221 
L 122.041252 306.087436 
L 122.683122 305.268506 
L 123.324991 304.08503 
L 123.966861 302.412674 
L 124.60873 300.10321 
L 125.2506 296.991087 
L 125.892469 292.90735 
L 126.534339 287.701125 
L 127.176208 281.266161 
L 127.818077 273.566882 
L 128.459947 264.656339 
L 129.101816 254.678929 
L 129.743686 243.854512 
L 130.385555 232.446947 
L 131.027425 220.726688 
L 131.669294 208.940763 
L 132.311164 197.301614 
L 132.953033 185.998885 
L 133.594902 175.227936 
L 134.236772 165.220435 
L 134.878641 156.26015 
L 135.520511 148.672633 
L 136.16238 142.788711 
L 136.80425 138.893391 
L 137.446119 137.178281 
L 138.087989 137.71393 
L 138.729858 140.449433 
L 139.371727 145.234876 
L 140.013597 151.853623 
L 140.655466 160.049953 
L 141.297336 169.543412 
L 141.939205 180.030643 
L 142.581075 191.1831 
L 143.222944 202.650938 
L 143.864813 214.078943 
L 144.506683 225.132774 
L 145.148552 235.527445 
L 145.790422 245.048322 
L 146.432291 253.558312 
L 147.074161 260.990968 
L 147.71603 267.334465 
L 148.3579 272.613316 
L 148.999769 276.87295 
L 149.641638 280.168568 
L 150.283508 282.556447 
L 150.925377 284.084823 
L 151.567247 284.782888 
L 152.209116 284.649068 
L 152.850986 283.641865 
L 153.492855 281.677142 
L 154.134725 278.634733 
L 154.776594 274.3758 
L 155.418463 268.771085 
L 156.060333 261.73934 
L 156.702202 253.293545 
L 157.344072 243.589261 
L 157.985941 232.964739 
L 158.627811 221.958404 
L 159.26968 211.289329 
L 159.91155 201.792665 
L 160.553419 194.314356 
L 161.195288 189.583841 
L 161.837158 188.093858 
L 162.479027 190.017749 
L 163.120897 195.185367 
L 163.762766 203.122028 
L 164.404636 213.137396 
L 165.046505 224.43935 
L 165.688375 236.245323 
L 166.330244 247.869767 
L 166.972113 258.777274 
L 167.613983 268.601614 
L 168.255852 277.138105 
L 168.897722 284.319293 
L 169.539591 290.183012 
L 170.181461 294.839421 
L 170.82333 298.441053 
L 171.4652 301.158025 
L 172.107069 303.159294 
L 172.748938 304.600006 
L 173.390808 305.614363 
L 174.032677 306.312983 
L 174.674547 306.783472 
L 175.316416 307.092935 
L 175.958286 307.291351 
L 176.600155 307.415034 
L 177.242024 307.489757 
L 177.883894 307.533363 
L 178.525763 307.557861 
L 179.167633 307.571068 
L 179.809502 307.577882 
" style="fill:none;stroke:#f48024;stroke-linecap:square;stroke-width:1.5;"/>
   </g>
   <g id="line2d_13">
    <path clip-path="url(#p836cdc0f72)" d="M 73.832727 307.570324 
L 77.112066 307.543506 
L 80.391405 307.47513 
L 83.670744 307.317566 
L 86.950083 306.98876 
L 90.229421 306.366066 
L 93.50876 305.29341 
L 96.788099 303.608682 
L 100.067438 301.190246 
L 103.346777 298.009444 
L 106.626116 294.16677 
L 109.905455 289.891066 
L 113.184793 285.495819 
L 116.464132 281.307392 
L 119.743471 277.593492 
L 123.02281 274.517285 
L 126.302149 272.126643 
L 129.581488 270.371942 
L 132.860826 269.139824 
L 136.140165 268.293661 
L 139.419504 267.715645 
L 142.698843 267.344295 
L 145.978182 267.195631 
L 149.257521 267.354024 
L 152.53686 267.928038 
L 155.816198 268.986559 
L 159.095537 270.507563 
L 162.374876 272.369143 
L 165.654215 274.388421 
L 168.933554 276.386125 
L 172.212893 278.242939 
L 175.492231 279.923035 
L 178.77157 281.460401 
L 182.050909 282.921648 
L 185.330248 284.366862 
L 188.609587 285.825823 
L 191.888926 287.294771 
L 195.168264 288.747577 
L 198.447603 290.151536 
L 201.726942 291.481031 
L 205.006281 292.725708 
L 208.28562 293.890579 
L 211.564959 294.986857 
L 214.844298 296.017754 
L 218.123636 296.969524 
L 221.402975 297.816835 
L 224.682314 298.541167 
L 227.961653 299.149145 
L 231.240992 299.676006 
L 234.520331 300.170296 
L 237.799669 300.670528 
L 241.079008 301.189855 
L 244.358347 301.716979 
L 247.637686 302.228571 
L 250.917025 302.702359 
L 254.196364 303.123814 
L 257.475702 303.486698 
L 260.755041 303.791127 
L 264.03438 304.041871 
L 267.313719 304.247823 
L 270.593058 304.422645 
L 273.872397 304.585345 
L 277.151736 304.758285 
L 280.431074 304.961078 
L 283.710413 305.202529 
L 286.989752 305.475621 
L 290.269091 305.759252 
L 293.54843 306.025862 
L 296.827769 306.250802 
L 300.107107 306.419419 
L 303.386446 306.530082 
L 306.665785 306.59309 
L 309.945124 306.626299 
L 313.224463 306.649077 
L 316.503802 306.676837 
L 319.78314 306.717875 
L 323.062479 306.772877 
L 326.341818 306.836471 
L 329.621157 306.900176 
L 332.900496 306.956149 
L 336.179835 307.000444 
L 339.459174 307.034035 
L 342.738512 307.060845 
L 346.017851 307.084285 
L 349.29719 307.105113 
L 352.576529 307.12238 
L 355.855868 307.136524 
L 359.135207 307.151721 
L 362.414545 307.175104 
L 365.693884 307.21306 
L 368.973223 307.267181 
L 372.252562 307.332759 
L 375.531901 307.400771 
L 378.81124 307.46188 
L 382.090579 307.509926 
L 385.369917 307.543226 
L 388.649256 307.563674 
L 391.928595 307.574838 
L 395.207934 307.580271 
L 398.487273 307.582631 
" style="fill:none;stroke:#008000;stroke-linecap:square;stroke-width:1.5;"/>
   </g>
   <g id="patch_203">
    <path d="M 57.6 307.584 
L 57.6 41.472 
" style="fill:none;stroke:#000000;stroke-linecap:square;stroke-linejoin:miter;stroke-width:0.8;"/>
   </g>
   <g id="patch_204">
    <path d="M 414.72 307.584 
L 414.72 41.472 
" style="fill:none;stroke:#000000;stroke-linecap:square;stroke-linejoin:miter;stroke-width:0.8;"/>
   </g>
   <g id="patch_205">
    <path d="M 57.6 307.584 
L 414.72 307.584 
" style="fill:none;stroke:#000000;stroke-linecap:square;stroke-linejoin:miter;stroke-width:0.8;"/>
   </g>
   <g id="patch_206">
    <path d="M 57.6 41.472 
L 414.72 41.472 
" style="fill:none;stroke:#000000;stroke-linecap:square;stroke-linejoin:miter;stroke-width:0.8;"/>
   </g>
   <g id="text_12">
    <!-- {'mae': 2141.368, 'smape': 0.503, 'jsd': 0.345} -->
    <defs>
     <path d="M 51.125 -9.28125 
L 51.125 -16.3125 
L 48.09375 -16.3125 
Q 35.9375 -16.3125 31.8125 -12.6875 
Q 27.6875 -9.078125 27.6875 1.703125 
L 27.6875 13.375 
Q 27.6875 20.75 25.046875 23.578125 
Q 22.40625 26.421875 15.484375 26.421875 
L 12.5 26.421875 
L 12.5 33.40625 
L 15.484375 33.40625 
Q 22.46875 33.40625 25.078125 36.203125 
Q 27.6875 39.015625 27.6875 46.296875 
L 27.6875 58.015625 
Q 27.6875 68.796875 31.8125 72.390625 
Q 35.9375 75.984375 48.09375 75.984375 
L 51.125 75.984375 
L 51.125 69 
L 47.796875 69 
Q 40.921875 69 38.8125 66.84375 
Q 36.71875 64.703125 36.71875 57.8125 
L 36.71875 45.703125 
Q 36.71875 38.03125 34.5 34.5625 
Q 32.28125 31.109375 26.90625 29.890625 
Q 32.328125 28.5625 34.515625 25.09375 
Q 36.71875 21.625 36.71875 14.015625 
L 36.71875 1.90625 
Q 36.71875 -4.984375 38.8125 -7.125 
Q 40.921875 -9.28125 47.796875 -9.28125 
z
" id="DejaVuSans-123"/>
     <path d="M 17.921875 72.90625 
L 17.921875 45.796875 
L 9.625 45.796875 
L 9.625 72.90625 
z
" id="DejaVuSans-39"/>
     <path d="M 52 44.1875 
Q 55.375 50.25 60.0625 53.125 
Q 64.75 56 71.09375 56 
Q 79.640625 56 84.28125 50.015625 
Q 88.921875 44.046875 88.921875 33.015625 
L 88.921875 0 
L 79.890625 0 
L 79.890625 32.71875 
Q 79.890625 40.578125 77.09375 44.375 
Q 74.3125 48.1875 68.609375 48.1875 
Q 61.625 48.1875 57.5625 43.546875 
Q 53.515625 38.921875 53.515625 30.90625 
L 53.515625 0 
L 44.484375 0 
L 44.484375 32.71875 
Q 44.484375 40.625 41.703125 44.40625 
Q 38.921875 48.1875 33.109375 48.1875 
Q 26.21875 48.1875 22.15625 43.53125 
Q 18.109375 38.875 18.109375 30.90625 
L 18.109375 0 
L 9.078125 0 
L 9.078125 54.6875 
L 18.109375 54.6875 
L 18.109375 46.1875 
Q 21.1875 51.21875 25.484375 53.609375 
Q 29.78125 56 35.6875 56 
Q 41.65625 56 45.828125 52.96875 
Q 50 49.953125 52 44.1875 
z
" id="DejaVuSans-109"/>
     <path d="M 34.28125 27.484375 
Q 23.390625 27.484375 19.1875 25 
Q 14.984375 22.515625 14.984375 16.5 
Q 14.984375 11.71875 18.140625 8.90625 
Q 21.296875 6.109375 26.703125 6.109375 
Q 34.1875 6.109375 38.703125 11.40625 
Q 43.21875 16.703125 43.21875 25.484375 
L 43.21875 27.484375 
z
M 52.203125 31.203125 
L 52.203125 0 
L 43.21875 0 
L 43.21875 8.296875 
Q 40.140625 3.328125 35.546875 0.953125 
Q 30.953125 -1.421875 24.3125 -1.421875 
Q 15.921875 -1.421875 10.953125 3.296875 
Q 6 8.015625 6 15.921875 
Q 6 25.140625 12.171875 29.828125 
Q 18.359375 34.515625 30.609375 34.515625 
L 43.21875 34.515625 
L 43.21875 35.40625 
Q 43.21875 41.609375 39.140625 45 
Q 35.0625 48.390625 27.6875 48.390625 
Q 23 48.390625 18.546875 47.265625 
Q 14.109375 46.140625 10.015625 43.890625 
L 10.015625 52.203125 
Q 14.9375 54.109375 19.578125 55.046875 
Q 24.21875 56 28.609375 56 
Q 40.484375 56 46.34375 49.84375 
Q 52.203125 43.703125 52.203125 31.203125 
z
" id="DejaVuSans-97"/>
     <path d="M 56.203125 29.59375 
L 56.203125 25.203125 
L 14.890625 25.203125 
Q 15.484375 15.921875 20.484375 11.0625 
Q 25.484375 6.203125 34.421875 6.203125 
Q 39.59375 6.203125 44.453125 7.46875 
Q 49.3125 8.734375 54.109375 11.28125 
L 54.109375 2.78125 
Q 49.265625 0.734375 44.1875 -0.34375 
Q 39.109375 -1.421875 33.890625 -1.421875 
Q 20.796875 -1.421875 13.15625 6.1875 
Q 5.515625 13.8125 5.515625 26.8125 
Q 5.515625 40.234375 12.765625 48.109375 
Q 20.015625 56 32.328125 56 
Q 43.359375 56 49.78125 48.890625 
Q 56.203125 41.796875 56.203125 29.59375 
z
M 47.21875 32.234375 
Q 47.125 39.59375 43.09375 43.984375 
Q 39.0625 48.390625 32.421875 48.390625 
Q 24.90625 48.390625 20.390625 44.140625 
Q 15.875 39.890625 15.1875 32.171875 
z
" id="DejaVuSans-101"/>
     <path d="M 11.71875 12.40625 
L 22.015625 12.40625 
L 22.015625 0 
L 11.71875 0 
z
M 11.71875 51.703125 
L 22.015625 51.703125 
L 22.015625 39.3125 
L 11.71875 39.3125 
z
" id="DejaVuSans-58"/>
     <path id="DejaVuSans-32"/>
     <path d="M 40.578125 39.3125 
Q 47.65625 37.796875 51.625 33 
Q 55.609375 28.21875 55.609375 21.1875 
Q 55.609375 10.40625 48.1875 4.484375 
Q 40.765625 -1.421875 27.09375 -1.421875 
Q 22.515625 -1.421875 17.65625 -0.515625 
Q 12.796875 0.390625 7.625 2.203125 
L 7.625 11.71875 
Q 11.71875 9.328125 16.59375 8.109375 
Q 21.484375 6.890625 26.8125 6.890625 
Q 36.078125 6.890625 40.9375 10.546875 
Q 45.796875 14.203125 45.796875 21.1875 
Q 45.796875 27.640625 41.28125 31.265625 
Q 36.765625 34.90625 28.71875 34.90625 
L 20.21875 34.90625 
L 20.21875 43.015625 
L 29.109375 43.015625 
Q 36.375 43.015625 40.234375 45.921875 
Q 44.09375 48.828125 44.09375 54.296875 
Q 44.09375 59.90625 40.109375 62.90625 
Q 36.140625 65.921875 28.71875 65.921875 
Q 24.65625 65.921875 20.015625 65.03125 
Q 15.375 64.15625 9.8125 62.3125 
L 9.8125 71.09375 
Q 15.4375 72.65625 20.34375 73.4375 
Q 25.25 74.21875 29.59375 74.21875 
Q 40.828125 74.21875 47.359375 69.109375 
Q 53.90625 64.015625 53.90625 55.328125 
Q 53.90625 49.265625 50.4375 45.09375 
Q 46.96875 40.921875 40.578125 39.3125 
z
" id="DejaVuSans-51"/>
     <path d="M 11.71875 12.40625 
L 22.015625 12.40625 
L 22.015625 4 
L 14.015625 -11.625 
L 7.71875 -11.625 
L 11.71875 4 
z
" id="DejaVuSans-44"/>
     <path d="M 44.28125 53.078125 
L 44.28125 44.578125 
Q 40.484375 46.53125 36.375 47.5 
Q 32.28125 48.484375 27.875 48.484375 
Q 21.1875 48.484375 17.84375 46.4375 
Q 14.5 44.390625 14.5 40.28125 
Q 14.5 37.15625 16.890625 35.375 
Q 19.28125 33.59375 26.515625 31.984375 
L 29.59375 31.296875 
Q 39.15625 29.25 43.1875 25.515625 
Q 47.21875 21.78125 47.21875 15.09375 
Q 47.21875 7.46875 41.1875 3.015625 
Q 35.15625 -1.421875 24.609375 -1.421875 
Q 20.21875 -1.421875 15.453125 -0.5625 
Q 10.6875 0.296875 5.421875 2 
L 5.421875 11.28125 
Q 10.40625 8.6875 15.234375 7.390625 
Q 20.0625 6.109375 24.8125 6.109375 
Q 31.15625 6.109375 34.5625 8.28125 
Q 37.984375 10.453125 37.984375 14.40625 
Q 37.984375 18.0625 35.515625 20.015625 
Q 33.0625 21.96875 24.703125 23.78125 
L 21.578125 24.515625 
Q 13.234375 26.265625 9.515625 29.90625 
Q 5.8125 33.546875 5.8125 39.890625 
Q 5.8125 47.609375 11.28125 51.796875 
Q 16.75 56 26.8125 56 
Q 31.78125 56 36.171875 55.265625 
Q 40.578125 54.546875 44.28125 53.078125 
z
" id="DejaVuSans-115"/>
     <path d="M 18.109375 8.203125 
L 18.109375 -20.796875 
L 9.078125 -20.796875 
L 9.078125 54.6875 
L 18.109375 54.6875 
L 18.109375 46.390625 
Q 20.953125 51.265625 25.265625 53.625 
Q 29.59375 56 35.59375 56 
Q 45.5625 56 51.78125 48.09375 
Q 58.015625 40.1875 58.015625 27.296875 
Q 58.015625 14.40625 51.78125 6.484375 
Q 45.5625 -1.421875 35.59375 -1.421875 
Q 29.59375 -1.421875 25.265625 0.953125 
Q 20.953125 3.328125 18.109375 8.203125 
z
M 48.6875 27.296875 
Q 48.6875 37.203125 44.609375 42.84375 
Q 40.53125 48.484375 33.40625 48.484375 
Q 26.265625 48.484375 22.1875 42.84375 
Q 18.109375 37.203125 18.109375 27.296875 
Q 18.109375 17.390625 22.1875 11.75 
Q 26.265625 6.109375 33.40625 6.109375 
Q 40.53125 6.109375 44.609375 11.75 
Q 48.6875 17.390625 48.6875 27.296875 
z
" id="DejaVuSans-112"/>
     <path d="M 9.421875 54.6875 
L 18.40625 54.6875 
L 18.40625 -0.984375 
Q 18.40625 -11.421875 14.421875 -16.109375 
Q 10.453125 -20.796875 1.609375 -20.796875 
L -1.8125 -20.796875 
L -1.8125 -13.1875 
L 0.59375 -13.1875 
Q 5.71875 -13.1875 7.5625 -10.8125 
Q 9.421875 -8.453125 9.421875 -0.984375 
z
M 9.421875 75.984375 
L 18.40625 75.984375 
L 18.40625 64.59375 
L 9.421875 64.59375 
z
" id="DejaVuSans-106"/>
     <path d="M 45.40625 46.390625 
L 45.40625 75.984375 
L 54.390625 75.984375 
L 54.390625 0 
L 45.40625 0 
L 45.40625 8.203125 
Q 42.578125 3.328125 38.25 0.953125 
Q 33.9375 -1.421875 27.875 -1.421875 
Q 17.96875 -1.421875 11.734375 6.484375 
Q 5.515625 14.40625 5.515625 27.296875 
Q 5.515625 40.1875 11.734375 48.09375 
Q 17.96875 56 27.875 56 
Q 33.9375 56 38.25 53.625 
Q 42.578125 51.265625 45.40625 46.390625 
z
M 14.796875 27.296875 
Q 14.796875 17.390625 18.875 11.75 
Q 22.953125 6.109375 30.078125 6.109375 
Q 37.203125 6.109375 41.296875 11.75 
Q 45.40625 17.390625 45.40625 27.296875 
Q 45.40625 37.203125 41.296875 42.84375 
Q 37.203125 48.484375 30.078125 48.484375 
Q 22.953125 48.484375 18.875 42.84375 
Q 14.796875 37.203125 14.796875 27.296875 
z
" id="DejaVuSans-100"/>
     <path d="M 12.5 -9.28125 
L 15.921875 -9.28125 
Q 22.75 -9.28125 24.828125 -7.171875 
Q 26.90625 -5.078125 26.90625 1.90625 
L 26.90625 14.015625 
Q 26.90625 21.625 29.09375 25.09375 
Q 31.296875 28.5625 36.71875 29.890625 
Q 31.296875 31.109375 29.09375 34.5625 
Q 26.90625 38.03125 26.90625 45.703125 
L 26.90625 57.8125 
Q 26.90625 64.75 24.828125 66.875 
Q 22.75 69 15.921875 69 
L 12.5 69 
L 12.5 75.984375 
L 15.578125 75.984375 
Q 27.734375 75.984375 31.8125 72.390625 
Q 35.890625 68.796875 35.890625 58.015625 
L 35.890625 46.296875 
Q 35.890625 39.015625 38.515625 36.203125 
Q 41.15625 33.40625 48.09375 33.40625 
L 51.125 33.40625 
L 51.125 26.421875 
L 48.09375 26.421875 
Q 41.15625 26.421875 38.515625 23.578125 
Q 35.890625 20.75 35.890625 13.375 
L 35.890625 1.703125 
Q 35.890625 -9.078125 31.8125 -12.6875 
Q 27.734375 -16.3125 15.578125 -16.3125 
L 12.5 -16.3125 
z
" id="DejaVuSans-125"/>
    </defs>
    <g transform="translate(94.273125 35.472)scale(0.12 -0.12)">
     <use xlink:href="#DejaVuSans-123"/>
     <use x="63.623047" xlink:href="#DejaVuSans-39"/>
     <use x="91.113281" xlink:href="#DejaVuSans-109"/>
     <use x="188.525391" xlink:href="#DejaVuSans-97"/>
     <use x="249.804688" xlink:href="#DejaVuSans-101"/>
     <use x="311.328125" xlink:href="#DejaVuSans-39"/>
     <use x="338.818359" xlink:href="#DejaVuSans-58"/>
     <use x="372.509766" xlink:href="#DejaVuSans-32"/>
     <use x="404.296875" xlink:href="#DejaVuSans-50"/>
     <use x="467.919922" xlink:href="#DejaVuSans-49"/>
     <use x="531.542969" xlink:href="#DejaVuSans-52"/>
     <use x="595.166016" xlink:href="#DejaVuSans-49"/>
     <use x="658.789062" xlink:href="#DejaVuSans-46"/>
     <use x="690.576172" xlink:href="#DejaVuSans-51"/>
     <use x="754.199219" xlink:href="#DejaVuSans-54"/>
     <use x="817.822266" xlink:href="#DejaVuSans-56"/>
     <use x="881.445312" xlink:href="#DejaVuSans-44"/>
     <use x="913.232422" xlink:href="#DejaVuSans-32"/>
     <use x="945.019531" xlink:href="#DejaVuSans-39"/>
     <use x="972.509766" xlink:href="#DejaVuSans-115"/>
     <use x="1024.609375" xlink:href="#DejaVuSans-109"/>
     <use x="1122.021484" xlink:href="#DejaVuSans-97"/>
     <use x="1183.300781" xlink:href="#DejaVuSans-112"/>
     <use x="1246.777344" xlink:href="#DejaVuSans-101"/>
     <use x="1308.300781" xlink:href="#DejaVuSans-39"/>
     <use x="1335.791016" xlink:href="#DejaVuSans-58"/>
     <use x="1369.482422" xlink:href="#DejaVuSans-32"/>
     <use x="1401.269531" xlink:href="#DejaVuSans-48"/>
     <use x="1464.892578" xlink:href="#DejaVuSans-46"/>
     <use x="1496.679688" xlink:href="#DejaVuSans-53"/>
     <use x="1560.302734" xlink:href="#DejaVuSans-48"/>
     <use x="1623.925781" xlink:href="#DejaVuSans-51"/>
     <use x="1687.548828" xlink:href="#DejaVuSans-44"/>
     <use x="1719.335938" xlink:href="#DejaVuSans-32"/>
     <use x="1751.123047" xlink:href="#DejaVuSans-39"/>
     <use x="1778.613281" xlink:href="#DejaVuSans-106"/>
     <use x="1806.396484" xlink:href="#DejaVuSans-115"/>
     <use x="1858.496094" xlink:href="#DejaVuSans-100"/>
     <use x="1921.972656" xlink:href="#DejaVuSans-39"/>
     <use x="1949.462891" xlink:href="#DejaVuSans-58"/>
     <use x="1983.154297" xlink:href="#DejaVuSans-32"/>
     <use x="2014.941406" xlink:href="#DejaVuSans-48"/>
     <use x="2078.564453" xlink:href="#DejaVuSans-46"/>
     <use x="2110.351562" xlink:href="#DejaVuSans-51"/>
     <use x="2173.974609" xlink:href="#DejaVuSans-52"/>
     <use x="2237.597656" xlink:href="#DejaVuSans-53"/>
     <use x="2301.220703" xlink:href="#DejaVuSans-125"/>
    </g>
   </g>
   <g id="legend_1">
    <g id="patch_207">
     <path d="M 340.565313 78.82825 
L 407.72 78.82825 
Q 409.72 78.82825 409.72 76.82825 
L 409.72 48.472 
Q 409.72 46.472 407.72 46.472 
L 340.565313 46.472 
Q 338.565313 46.472 338.565313 48.472 
L 338.565313 76.82825 
Q 338.565313 78.82825 340.565313 78.82825 
z
" style="fill:#ffffff;opacity:0.8;stroke:#cccccc;stroke-linejoin:miter;"/>
    </g>
    <g id="patch_208">
     <path d="M 342.565313 58.070437 
L 362.565313 58.070437 
L 362.565313 51.070437 
L 342.565313 51.070437 
z
" style="fill:#f48024;opacity:0.4;"/>
    </g>
    <g id="text_13">
     <!-- actual -->
     <defs>
      <path d="M 48.78125 52.59375 
L 48.78125 44.1875 
Q 44.96875 46.296875 41.140625 47.34375 
Q 37.3125 48.390625 33.40625 48.390625 
Q 24.65625 48.390625 19.8125 42.84375 
Q 14.984375 37.3125 14.984375 27.296875 
Q 14.984375 17.28125 19.8125 11.734375 
Q 24.65625 6.203125 33.40625 6.203125 
Q 37.3125 6.203125 41.140625 7.25 
Q 44.96875 8.296875 48.78125 10.40625 
L 48.78125 2.09375 
Q 45.015625 0.34375 40.984375 -0.53125 
Q 36.96875 -1.421875 32.421875 -1.421875 
Q 20.0625 -1.421875 12.78125 6.34375 
Q 5.515625 14.109375 5.515625 27.296875 
Q 5.515625 40.671875 12.859375 48.328125 
Q 20.21875 56 33.015625 56 
Q 37.15625 56 41.109375 55.140625 
Q 45.0625 54.296875 48.78125 52.59375 
z
" id="DejaVuSans-99"/>
      <path d="M 18.3125 70.21875 
L 18.3125 54.6875 
L 36.8125 54.6875 
L 36.8125 47.703125 
L 18.3125 47.703125 
L 18.3125 18.015625 
Q 18.3125 11.328125 20.140625 9.421875 
Q 21.96875 7.515625 27.59375 7.515625 
L 36.8125 7.515625 
L 36.8125 0 
L 27.59375 0 
Q 17.1875 0 13.234375 3.875 
Q 9.28125 7.765625 9.28125 18.015625 
L 9.28125 47.703125 
L 2.6875 47.703125 
L 2.6875 54.6875 
L 9.28125 54.6875 
L 9.28125 70.21875 
z
" id="DejaVuSans-116"/>
      <path d="M 8.5 21.578125 
L 8.5 54.6875 
L 17.484375 54.6875 
L 17.484375 21.921875 
Q 17.484375 14.15625 20.5 10.265625 
Q 23.53125 6.390625 29.59375 6.390625 
Q 36.859375 6.390625 41.078125 11.03125 
Q 45.3125 15.671875 45.3125 23.6875 
L 45.3125 54.6875 
L 54.296875 54.6875 
L 54.296875 0 
L 45.3125 0 
L 45.3125 8.40625 
Q 42.046875 3.421875 37.71875 1 
Q 33.40625 -1.421875 27.6875 -1.421875 
Q 18.265625 -1.421875 13.375 4.4375 
Q 8.5 10.296875 8.5 21.578125 
z
M 31.109375 56 
z
" id="DejaVuSans-117"/>
      <path d="M 9.421875 75.984375 
L 18.40625 75.984375 
L 18.40625 0 
L 9.421875 0 
z
" id="DejaVuSans-108"/>
     </defs>
     <g transform="translate(370.565313 58.070437)scale(0.1 -0.1)">
      <use xlink:href="#DejaVuSans-97"/>
      <use x="61.279297" xlink:href="#DejaVuSans-99"/>
      <use x="116.259766" xlink:href="#DejaVuSans-116"/>
      <use x="155.46875" xlink:href="#DejaVuSans-117"/>
      <use x="218.847656" xlink:href="#DejaVuSans-97"/>
      <use x="280.126953" xlink:href="#DejaVuSans-108"/>
     </g>
    </g>
    <g id="patch_209">
     <path d="M 342.565313 72.748562 
L 362.565313 72.748562 
L 362.565313 65.748562 
L 342.565313 65.748562 
z
" style="fill:#008000;opacity:0.4;"/>
    </g>
    <g id="text_14">
     <!-- predict -->
     <defs>
      <path d="M 41.109375 46.296875 
Q 39.59375 47.171875 37.8125 47.578125 
Q 36.03125 48 33.890625 48 
Q 26.265625 48 22.1875 43.046875 
Q 18.109375 38.09375 18.109375 28.8125 
L 18.109375 0 
L 9.078125 0 
L 9.078125 54.6875 
L 18.109375 54.6875 
L 18.109375 46.1875 
Q 20.953125 51.171875 25.484375 53.578125 
Q 30.03125 56 36.53125 56 
Q 37.453125 56 38.578125 55.875 
Q 39.703125 55.765625 41.0625 55.515625 
z
" id="DejaVuSans-114"/>
      <path d="M 9.421875 54.6875 
L 18.40625 54.6875 
L 18.40625 0 
L 9.421875 0 
z
M 9.421875 75.984375 
L 18.40625 75.984375 
L 18.40625 64.59375 
L 9.421875 64.59375 
z
" id="DejaVuSans-105"/>
     </defs>
     <g transform="translate(370.565313 72.748562)scale(0.1 -0.1)">
      <use xlink:href="#DejaVuSans-112"/>
      <use x="63.476562" xlink:href="#DejaVuSans-114"/>
      <use x="104.558594" xlink:href="#DejaVuSans-101"/>
      <use x="166.082031" xlink:href="#DejaVuSans-100"/>
      <use x="229.558594" xlink:href="#DejaVuSans-105"/>
      <use x="257.341797" xlink:href="#DejaVuSans-99"/>
      <use x="312.322266" xlink:href="#DejaVuSans-116"/>
     </g>
    </g>
   </g>
  </g>
 </g>
 <defs>
  <clipPath id="p836cdc0f72">
   <rect height="266.112" width="357.12" x="57.6" y="41.472"/>
  </clipPath>
 </defs>
</svg>
