<?xml version="1.0" encoding="utf-8" standalone="no"?>
<!DOCTYPE svg PUBLIC "-//W3C//DTD SVG 1.1//EN"
  "http://www.w3.org/Graphics/SVG/1.1/DTD/svg11.dtd">
<!-- Created with matplotlib (https://matplotlib.org/) -->
<svg height="345.6pt" version="1.1" viewBox="0 0 460.8 345.6" width="460.8pt" xmlns="http://www.w3.org/2000/svg" xmlns:xlink="http://www.w3.org/1999/xlink">
 <defs>
  <style type="text/css">
*{stroke-linecap:butt;stroke-linejoin:round;}
  </style>
 </defs>
 <g id="figure_1">
  <g id="patch_1">
   <path d="M 0 345.6 
L 460.8 345.6 
L 460.8 0 
L 0 0 
z
" style="fill:#ffffff;"/>
  </g>
  <g id="axes_1">
   <g id="patch_2">
    <path d="M 57.6 307.584 
L 414.72 307.584 
L 414.72 41.472 
L 57.6 41.472 
z
" style="fill:#ffffff;"/>
   </g>
   <g id="patch_3">
    <path clip-path="url(#p39d914f3ec)" d="M 111.787307 307.584 
L 114.274959 307.584 
L 114.274959 282.037901 
L 111.787307 282.037901 
z
" style="fill:#f48024;opacity:0.4;"/>
   </g>
   <g id="patch_4">
    <path clip-path="url(#p39d914f3ec)" d="M 114.274959 307.584 
L 116.762611 307.584 
L 116.762611 217.011466 
L 114.274959 217.011466 
z
" style="fill:#f48024;opacity:0.4;"/>
   </g>
   <g id="patch_5">
    <path clip-path="url(#p39d914f3ec)" d="M 116.762611 307.584 
L 119.250263 307.584 
L 119.250263 177.531131 
L 116.762611 177.531131 
z
" style="fill:#f48024;opacity:0.4;"/>
   </g>
   <g id="patch_6">
    <path clip-path="url(#p39d914f3ec)" d="M 119.250263 307.584 
L 121.737915 307.584 
L 121.737915 230.945702 
L 119.250263 230.945702 
z
" style="fill:#f48024;opacity:0.4;"/>
   </g>
   <g id="patch_7">
    <path clip-path="url(#p39d914f3ec)" d="M 121.737915 307.584 
L 124.225567 307.584 
L 124.225567 219.333839 
L 121.737915 219.333839 
z
" style="fill:#f48024;opacity:0.4;"/>
   </g>
   <g id="patch_8">
    <path clip-path="url(#p39d914f3ec)" d="M 124.225567 307.584 
L 126.713219 307.584 
L 126.713219 228.62333 
L 124.225567 228.62333 
z
" style="fill:#f48024;opacity:0.4;"/>
   </g>
   <g id="patch_9">
    <path clip-path="url(#p39d914f3ec)" d="M 126.713219 307.584 
L 129.200871 307.584 
L 129.200871 161.274523 
L 126.713219 161.274523 
z
" style="fill:#f48024;opacity:0.4;"/>
   </g>
   <g id="patch_10">
    <path clip-path="url(#p39d914f3ec)" d="M 129.200871 307.584 
L 131.688523 307.584 
L 131.688523 107.859952 
L 129.200871 107.859952 
z
" style="fill:#f48024;opacity:0.4;"/>
   </g>
   <g id="patch_11">
    <path clip-path="url(#p39d914f3ec)" d="M 131.688523 307.584 
L 134.176175 307.584 
L 134.176175 96.248088 
L 131.688523 96.248088 
z
" style="fill:#f48024;opacity:0.4;"/>
   </g>
   <g id="patch_12">
    <path clip-path="url(#p39d914f3ec)" d="M 134.176175 307.584 
L 136.663827 307.584 
L 136.663827 66.057244 
L 134.176175 66.057244 
z
" style="fill:#f48024;opacity:0.4;"/>
   </g>
   <g id="patch_13">
    <path clip-path="url(#p39d914f3ec)" d="M 136.663827 307.584 
L 139.151479 307.584 
L 139.151479 107.859952 
L 136.663827 107.859952 
z
" style="fill:#f48024;opacity:0.4;"/>
   </g>
   <g id="patch_14">
    <path clip-path="url(#p39d914f3ec)" d="M 139.151479 307.584 
L 141.639131 307.584 
L 141.639131 103.215206 
L 139.151479 103.215206 
z
" style="fill:#f48024;opacity:0.4;"/>
   </g>
   <g id="patch_15">
    <path clip-path="url(#p39d914f3ec)" d="M 141.639131 307.584 
L 144.126783 307.584 
L 144.126783 161.274523 
L 141.639131 161.274523 
z
" style="fill:#f48024;opacity:0.4;"/>
   </g>
   <g id="patch_16">
    <path clip-path="url(#p39d914f3ec)" d="M 144.126783 307.584 
L 146.614435 307.584 
L 146.614435 175.208759 
L 144.126783 175.208759 
z
" style="fill:#f48024;opacity:0.4;"/>
   </g>
   <g id="patch_17">
    <path clip-path="url(#p39d914f3ec)" d="M 146.614435 307.584 
L 149.102087 307.584 
L 149.102087 196.110113 
L 146.614435 196.110113 
z
" style="fill:#f48024;opacity:0.4;"/>
   </g>
   <g id="patch_18">
    <path clip-path="url(#p39d914f3ec)" d="M 149.102087 307.584 
L 151.589739 307.584 
L 151.589739 223.978584 
L 149.102087 223.978584 
z
" style="fill:#f48024;opacity:0.4;"/>
   </g>
   <g id="patch_19">
    <path clip-path="url(#p39d914f3ec)" d="M 151.589739 307.584 
L 154.077391 307.584 
L 154.077391 205.399603 
L 151.589739 205.399603 
z
" style="fill:#f48024;opacity:0.4;"/>
   </g>
   <g id="patch_20">
    <path clip-path="url(#p39d914f3ec)" d="M 154.077391 307.584 
L 156.565043 307.584 
L 156.565043 168.241641 
L 154.077391 168.241641 
z
" style="fill:#f48024;opacity:0.4;"/>
   </g>
   <g id="patch_21">
    <path clip-path="url(#p39d914f3ec)" d="M 156.565043 307.584 
L 159.052695 307.584 
L 159.052695 212.366721 
L 156.565043 212.366721 
z
" style="fill:#f48024;opacity:0.4;"/>
   </g>
   <g id="patch_22">
    <path clip-path="url(#p39d914f3ec)" d="M 159.052695 307.584 
L 161.540347 307.584 
L 161.540347 189.142995 
L 159.052695 189.142995 
z
" style="fill:#f48024;opacity:0.4;"/>
   </g>
   <g id="patch_23">
    <path clip-path="url(#p39d914f3ec)" d="M 161.540347 307.584 
L 164.027999 307.584 
L 164.027999 217.011466 
L 161.540347 217.011466 
z
" style="fill:#f48024;opacity:0.4;"/>
   </g>
   <g id="patch_24">
    <path clip-path="url(#p39d914f3ec)" d="M 164.027999 307.584 
L 166.515651 307.584 
L 166.515651 191.465367 
L 164.027999 191.465367 
z
" style="fill:#f48024;opacity:0.4;"/>
   </g>
   <g id="patch_25">
    <path clip-path="url(#p39d914f3ec)" d="M 166.515651 307.584 
L 169.003303 307.584 
L 169.003303 210.044349 
L 166.515651 210.044349 
z
" style="fill:#f48024;opacity:0.4;"/>
   </g>
   <g id="patch_26">
    <path clip-path="url(#p39d914f3ec)" d="M 169.003303 307.584 
L 171.490955 307.584 
L 171.490955 207.721976 
L 169.003303 207.721976 
z
" style="fill:#f48024;opacity:0.4;"/>
   </g>
   <g id="patch_27">
    <path clip-path="url(#p39d914f3ec)" d="M 171.490955 307.584 
L 173.978608 307.584 
L 173.978608 217.011466 
L 171.490955 217.011466 
z
" style="fill:#f48024;opacity:0.4;"/>
   </g>
   <g id="patch_28">
    <path clip-path="url(#p39d914f3ec)" d="M 173.978608 307.584 
L 176.46626 307.584 
L 176.46626 177.531131 
L 173.978608 177.531131 
z
" style="fill:#f48024;opacity:0.4;"/>
   </g>
   <g id="patch_29">
    <path clip-path="url(#p39d914f3ec)" d="M 176.46626 307.584 
L 178.953912 307.584 
L 178.953912 182.175877 
L 176.46626 182.175877 
z
" style="fill:#f48024;opacity:0.4;"/>
   </g>
   <g id="patch_30">
    <path clip-path="url(#p39d914f3ec)" d="M 178.953912 307.584 
L 181.441564 307.584 
L 181.441564 186.820622 
L 178.953912 186.820622 
z
" style="fill:#f48024;opacity:0.4;"/>
   </g>
   <g id="patch_31">
    <path clip-path="url(#p39d914f3ec)" d="M 181.441564 307.584 
L 183.929216 307.584 
L 183.929216 140.373169 
L 181.441564 140.373169 
z
" style="fill:#f48024;opacity:0.4;"/>
   </g>
   <g id="patch_32">
    <path clip-path="url(#p39d914f3ec)" d="M 183.929216 307.584 
L 186.416868 307.584 
L 186.416868 170.564013 
L 183.929216 170.564013 
z
" style="fill:#f48024;opacity:0.4;"/>
   </g>
   <g id="patch_33">
    <path clip-path="url(#p39d914f3ec)" d="M 186.416868 307.584 
L 188.90452 307.584 
L 188.90452 161.274523 
L 186.416868 161.274523 
z
" style="fill:#f48024;opacity:0.4;"/>
   </g>
   <g id="patch_34">
    <path clip-path="url(#p39d914f3ec)" d="M 188.90452 307.584 
L 191.392172 307.584 
L 191.392172 184.498249 
L 188.90452 184.498249 
z
" style="fill:#f48024;opacity:0.4;"/>
   </g>
   <g id="patch_35">
    <path clip-path="url(#p39d914f3ec)" d="M 191.392172 307.584 
L 193.879824 307.584 
L 193.879824 177.531131 
L 191.392172 177.531131 
z
" style="fill:#f48024;opacity:0.4;"/>
   </g>
   <g id="patch_36">
    <path clip-path="url(#p39d914f3ec)" d="M 193.879824 307.584 
L 196.367476 307.584 
L 196.367476 138.050796 
L 193.879824 138.050796 
z
" style="fill:#f48024;opacity:0.4;"/>
   </g>
   <g id="patch_37">
    <path clip-path="url(#p39d914f3ec)" d="M 196.367476 307.584 
L 198.855128 307.584 
L 198.855128 121.794188 
L 196.367476 121.794188 
z
" style="fill:#f48024;opacity:0.4;"/>
   </g>
   <g id="patch_38">
    <path clip-path="url(#p39d914f3ec)" d="M 198.855128 307.584 
L 201.34278 307.584 
L 201.34278 112.504697 
L 198.855128 112.504697 
z
" style="fill:#f48024;opacity:0.4;"/>
   </g>
   <g id="patch_39">
    <path clip-path="url(#p39d914f3ec)" d="M 201.34278 307.584 
L 203.830432 307.584 
L 203.830432 182.175877 
L 201.34278 182.175877 
z
" style="fill:#f48024;opacity:0.4;"/>
   </g>
   <g id="patch_40">
    <path clip-path="url(#p39d914f3ec)" d="M 203.830432 307.584 
L 206.318084 307.584 
L 206.318084 179.853504 
L 203.830432 179.853504 
z
" style="fill:#f48024;opacity:0.4;"/>
   </g>
   <g id="patch_41">
    <path clip-path="url(#p39d914f3ec)" d="M 206.318084 307.584 
L 208.805736 307.584 
L 208.805736 126.438933 
L 206.318084 126.438933 
z
" style="fill:#f48024;opacity:0.4;"/>
   </g>
   <g id="patch_42">
    <path clip-path="url(#p39d914f3ec)" d="M 208.805736 307.584 
L 211.293388 307.584 
L 211.293388 75.346735 
L 208.805736 75.346735 
z
" style="fill:#f48024;opacity:0.4;"/>
   </g>
   <g id="patch_43">
    <path clip-path="url(#p39d914f3ec)" d="M 211.293388 307.584 
L 213.78104 307.584 
L 213.78104 112.504697 
L 211.293388 112.504697 
z
" style="fill:#f48024;opacity:0.4;"/>
   </g>
   <g id="patch_44">
    <path clip-path="url(#p39d914f3ec)" d="M 213.78104 307.584 
L 216.268692 307.584 
L 216.268692 133.406051 
L 213.78104 133.406051 
z
" style="fill:#f48024;opacity:0.4;"/>
   </g>
   <g id="patch_45">
    <path clip-path="url(#p39d914f3ec)" d="M 216.268692 307.584 
L 218.756344 307.584 
L 218.756344 149.66266 
L 216.268692 149.66266 
z
" style="fill:#f48024;opacity:0.4;"/>
   </g>
   <g id="patch_46">
    <path clip-path="url(#p39d914f3ec)" d="M 218.756344 307.584 
L 221.243996 307.584 
L 221.243996 205.399603 
L 218.756344 205.399603 
z
" style="fill:#f48024;opacity:0.4;"/>
   </g>
   <g id="patch_47">
    <path clip-path="url(#p39d914f3ec)" d="M 221.243996 307.584 
L 223.731648 307.584 
L 223.731648 182.175877 
L 221.243996 182.175877 
z
" style="fill:#f48024;opacity:0.4;"/>
   </g>
   <g id="patch_48">
    <path clip-path="url(#p39d914f3ec)" d="M 223.731648 307.584 
L 226.2193 307.584 
L 226.2193 203.077231 
L 223.731648 203.077231 
z
" style="fill:#f48024;opacity:0.4;"/>
   </g>
   <g id="patch_49">
    <path clip-path="url(#p39d914f3ec)" d="M 226.2193 307.584 
L 228.706952 307.584 
L 228.706952 233.268075 
L 226.2193 233.268075 
z
" style="fill:#f48024;opacity:0.4;"/>
   </g>
   <g id="patch_50">
    <path clip-path="url(#p39d914f3ec)" d="M 228.706952 307.584 
L 231.194604 307.584 
L 231.194604 265.781292 
L 228.706952 265.781292 
z
" style="fill:#f48024;opacity:0.4;"/>
   </g>
   <g id="patch_51">
    <path clip-path="url(#p39d914f3ec)" d="M 231.194604 307.584 
L 233.682256 307.584 
L 233.682256 249.524684 
L 231.194604 249.524684 
z
" style="fill:#f48024;opacity:0.4;"/>
   </g>
   <g id="patch_52">
    <path clip-path="url(#p39d914f3ec)" d="M 233.682256 307.584 
L 236.169908 307.584 
L 236.169908 249.524684 
L 233.682256 249.524684 
z
" style="fill:#f48024;opacity:0.4;"/>
   </g>
   <g id="patch_53">
    <path clip-path="url(#p39d914f3ec)" d="M 236.169908 307.584 
L 238.65756 307.584 
L 238.65756 249.524684 
L 236.169908 249.524684 
z
" style="fill:#f48024;opacity:0.4;"/>
   </g>
   <g id="patch_54">
    <path clip-path="url(#p39d914f3ec)" d="M 238.65756 307.584 
L 241.145212 307.584 
L 241.145212 244.879938 
L 238.65756 244.879938 
z
" style="fill:#f48024;opacity:0.4;"/>
   </g>
   <g id="patch_55">
    <path clip-path="url(#p39d914f3ec)" d="M 241.145212 307.584 
L 243.632864 307.584 
L 243.632864 249.524684 
L 241.145212 249.524684 
z
" style="fill:#f48024;opacity:0.4;"/>
   </g>
   <g id="patch_56">
    <path clip-path="url(#p39d914f3ec)" d="M 243.632864 307.584 
L 246.120516 307.584 
L 246.120516 265.781292 
L 243.632864 265.781292 
z
" style="fill:#f48024;opacity:0.4;"/>
   </g>
   <g id="patch_57">
    <path clip-path="url(#p39d914f3ec)" d="M 246.120516 307.584 
L 248.608168 307.584 
L 248.608168 223.978584 
L 246.120516 223.978584 
z
" style="fill:#f48024;opacity:0.4;"/>
   </g>
   <g id="patch_58">
    <path clip-path="url(#p39d914f3ec)" d="M 248.608168 307.584 
L 251.09582 307.584 
L 251.09582 237.91282 
L 248.608168 237.91282 
z
" style="fill:#f48024;opacity:0.4;"/>
   </g>
   <g id="patch_59">
    <path clip-path="url(#p39d914f3ec)" d="M 251.09582 307.584 
L 253.583472 307.584 
L 253.583472 256.491802 
L 251.09582 256.491802 
z
" style="fill:#f48024;opacity:0.4;"/>
   </g>
   <g id="patch_60">
    <path clip-path="url(#p39d914f3ec)" d="M 253.583472 307.584 
L 256.071124 307.584 
L 256.071124 237.91282 
L 253.583472 237.91282 
z
" style="fill:#f48024;opacity:0.4;"/>
   </g>
   <g id="patch_61">
    <path clip-path="url(#p39d914f3ec)" d="M 256.071124 307.584 
L 258.558776 307.584 
L 258.558776 244.879938 
L 256.071124 244.879938 
z
" style="fill:#f48024;opacity:0.4;"/>
   </g>
   <g id="patch_62">
    <path clip-path="url(#p39d914f3ec)" d="M 258.558776 307.584 
L 261.046428 307.584 
L 261.046428 251.847056 
L 258.558776 251.847056 
z
" style="fill:#f48024;opacity:0.4;"/>
   </g>
   <g id="patch_63">
    <path clip-path="url(#p39d914f3ec)" d="M 261.046428 307.584 
L 263.53408 307.584 
L 263.53408 258.814174 
L 261.046428 258.814174 
z
" style="fill:#f48024;opacity:0.4;"/>
   </g>
   <g id="patch_64">
    <path clip-path="url(#p39d914f3ec)" d="M 263.53408 307.584 
L 266.021732 307.584 
L 266.021732 263.45892 
L 263.53408 263.45892 
z
" style="fill:#f48024;opacity:0.4;"/>
   </g>
   <g id="patch_65">
    <path clip-path="url(#p39d914f3ec)" d="M 266.021732 307.584 
L 268.509384 307.584 
L 268.509384 265.781292 
L 266.021732 265.781292 
z
" style="fill:#f48024;opacity:0.4;"/>
   </g>
   <g id="patch_66">
    <path clip-path="url(#p39d914f3ec)" d="M 268.509384 307.584 
L 270.997036 307.584 
L 270.997036 293.649764 
L 268.509384 293.649764 
z
" style="fill:#f48024;opacity:0.4;"/>
   </g>
   <g id="patch_67">
    <path clip-path="url(#p39d914f3ec)" d="M 270.997036 307.584 
L 273.484689 307.584 
L 273.484689 263.45892 
L 270.997036 263.45892 
z
" style="fill:#f48024;opacity:0.4;"/>
   </g>
   <g id="patch_68">
    <path clip-path="url(#p39d914f3ec)" d="M 273.484689 307.584 
L 275.972341 307.584 
L 275.972341 242.557566 
L 273.484689 242.557566 
z
" style="fill:#f48024;opacity:0.4;"/>
   </g>
   <g id="patch_69">
    <path clip-path="url(#p39d914f3ec)" d="M 275.972341 307.584 
L 278.459993 307.584 
L 278.459993 268.103665 
L 275.972341 268.103665 
z
" style="fill:#f48024;opacity:0.4;"/>
   </g>
   <g id="patch_70">
    <path clip-path="url(#p39d914f3ec)" d="M 278.459993 307.584 
L 280.947645 307.584 
L 280.947645 277.393155 
L 278.459993 277.393155 
z
" style="fill:#f48024;opacity:0.4;"/>
   </g>
   <g id="patch_71">
    <path clip-path="url(#p39d914f3ec)" d="M 280.947645 307.584 
L 283.435297 307.584 
L 283.435297 258.814174 
L 280.947645 258.814174 
z
" style="fill:#f48024;opacity:0.4;"/>
   </g>
   <g id="patch_72">
    <path clip-path="url(#p39d914f3ec)" d="M 283.435297 307.584 
L 285.922949 307.584 
L 285.922949 270.426038 
L 283.435297 270.426038 
z
" style="fill:#f48024;opacity:0.4;"/>
   </g>
   <g id="patch_73">
    <path clip-path="url(#p39d914f3ec)" d="M 285.922949 307.584 
L 288.410601 307.584 
L 288.410601 254.169429 
L 285.922949 254.169429 
z
" style="fill:#f48024;opacity:0.4;"/>
   </g>
   <g id="patch_74">
    <path clip-path="url(#p39d914f3ec)" d="M 288.410601 307.584 
L 290.898253 307.584 
L 290.898253 263.45892 
L 288.410601 263.45892 
z
" style="fill:#f48024;opacity:0.4;"/>
   </g>
   <g id="patch_75">
    <path clip-path="url(#p39d914f3ec)" d="M 290.898253 307.584 
L 293.385905 307.584 
L 293.385905 258.814174 
L 290.898253 258.814174 
z
" style="fill:#f48024;opacity:0.4;"/>
   </g>
   <g id="patch_76">
    <path clip-path="url(#p39d914f3ec)" d="M 293.385905 307.584 
L 295.873557 307.584 
L 295.873557 230.945702 
L 293.385905 230.945702 
z
" style="fill:#f48024;opacity:0.4;"/>
   </g>
   <g id="patch_77">
    <path clip-path="url(#p39d914f3ec)" d="M 295.873557 307.584 
L 298.361209 307.584 
L 298.361209 251.847056 
L 295.873557 251.847056 
z
" style="fill:#f48024;opacity:0.4;"/>
   </g>
   <g id="patch_78">
    <path clip-path="url(#p39d914f3ec)" d="M 298.361209 307.584 
L 300.848861 307.584 
L 300.848861 247.202311 
L 298.361209 247.202311 
z
" style="fill:#f48024;opacity:0.4;"/>
   </g>
   <g id="patch_79">
    <path clip-path="url(#p39d914f3ec)" d="M 300.848861 307.584 
L 303.336513 307.584 
L 303.336513 265.781292 
L 300.848861 265.781292 
z
" style="fill:#f48024;opacity:0.4;"/>
   </g>
   <g id="patch_80">
    <path clip-path="url(#p39d914f3ec)" d="M 303.336513 307.584 
L 305.824165 307.584 
L 305.824165 284.360273 
L 303.336513 284.360273 
z
" style="fill:#f48024;opacity:0.4;"/>
   </g>
   <g id="patch_81">
    <path clip-path="url(#p39d914f3ec)" d="M 305.824165 307.584 
L 308.311817 307.584 
L 308.311817 258.814174 
L 305.824165 258.814174 
z
" style="fill:#f48024;opacity:0.4;"/>
   </g>
   <g id="patch_82">
    <path clip-path="url(#p39d914f3ec)" d="M 308.311817 307.584 
L 310.799469 307.584 
L 310.799469 249.524684 
L 308.311817 249.524684 
z
" style="fill:#f48024;opacity:0.4;"/>
   </g>
   <g id="patch_83">
    <path clip-path="url(#p39d914f3ec)" d="M 310.799469 307.584 
L 313.287121 307.584 
L 313.287121 254.169429 
L 310.799469 254.169429 
z
" style="fill:#f48024;opacity:0.4;"/>
   </g>
   <g id="patch_84">
    <path clip-path="url(#p39d914f3ec)" d="M 313.287121 307.584 
L 315.774773 307.584 
L 315.774773 244.879938 
L 313.287121 244.879938 
z
" style="fill:#f48024;opacity:0.4;"/>
   </g>
   <g id="patch_85">
    <path clip-path="url(#p39d914f3ec)" d="M 315.774773 307.584 
L 318.262425 307.584 
L 318.262425 254.169429 
L 315.774773 254.169429 
z
" style="fill:#f48024;opacity:0.4;"/>
   </g>
   <g id="patch_86">
    <path clip-path="url(#p39d914f3ec)" d="M 318.262425 307.584 
L 320.750077 307.584 
L 320.750077 207.721976 
L 318.262425 207.721976 
z
" style="fill:#f48024;opacity:0.4;"/>
   </g>
   <g id="patch_87">
    <path clip-path="url(#p39d914f3ec)" d="M 320.750077 307.584 
L 323.237729 307.584 
L 323.237729 235.590448 
L 320.750077 235.590448 
z
" style="fill:#f48024;opacity:0.4;"/>
   </g>
   <g id="patch_88">
    <path clip-path="url(#p39d914f3ec)" d="M 323.237729 307.584 
L 325.725381 307.584 
L 325.725381 235.590448 
L 323.237729 235.590448 
z
" style="fill:#f48024;opacity:0.4;"/>
   </g>
   <g id="patch_89">
    <path clip-path="url(#p39d914f3ec)" d="M 325.725381 307.584 
L 328.213033 307.584 
L 328.213033 223.978584 
L 325.725381 223.978584 
z
" style="fill:#f48024;opacity:0.4;"/>
   </g>
   <g id="patch_90">
    <path clip-path="url(#p39d914f3ec)" d="M 328.213033 307.584 
L 330.700685 307.584 
L 330.700685 249.524684 
L 328.213033 249.524684 
z
" style="fill:#f48024;opacity:0.4;"/>
   </g>
   <g id="patch_91">
    <path clip-path="url(#p39d914f3ec)" d="M 330.700685 307.584 
L 333.188337 307.584 
L 333.188337 223.978584 
L 330.700685 223.978584 
z
" style="fill:#f48024;opacity:0.4;"/>
   </g>
   <g id="patch_92">
    <path clip-path="url(#p39d914f3ec)" d="M 333.188337 307.584 
L 335.675989 307.584 
L 335.675989 237.91282 
L 333.188337 237.91282 
z
" style="fill:#f48024;opacity:0.4;"/>
   </g>
   <g id="patch_93">
    <path clip-path="url(#p39d914f3ec)" d="M 335.675989 307.584 
L 338.163641 307.584 
L 338.163641 230.945702 
L 335.675989 230.945702 
z
" style="fill:#f48024;opacity:0.4;"/>
   </g>
   <g id="patch_94">
    <path clip-path="url(#p39d914f3ec)" d="M 338.163641 307.584 
L 340.651293 307.584 
L 340.651293 235.590448 
L 338.163641 235.590448 
z
" style="fill:#f48024;opacity:0.4;"/>
   </g>
   <g id="patch_95">
    <path clip-path="url(#p39d914f3ec)" d="M 340.651293 307.584 
L 343.138945 307.584 
L 343.138945 217.011466 
L 340.651293 217.011466 
z
" style="fill:#f48024;opacity:0.4;"/>
   </g>
   <g id="patch_96">
    <path clip-path="url(#p39d914f3ec)" d="M 343.138945 307.584 
L 345.626597 307.584 
L 345.626597 251.847056 
L 343.138945 251.847056 
z
" style="fill:#f48024;opacity:0.4;"/>
   </g>
   <g id="patch_97">
    <path clip-path="url(#p39d914f3ec)" d="M 345.626597 307.584 
L 348.114249 307.584 
L 348.114249 251.847056 
L 345.626597 251.847056 
z
" style="fill:#f48024;opacity:0.4;"/>
   </g>
   <g id="patch_98">
    <path clip-path="url(#p39d914f3ec)" d="M 348.114249 307.584 
L 350.601901 307.584 
L 350.601901 254.169429 
L 348.114249 254.169429 
z
" style="fill:#f48024;opacity:0.4;"/>
   </g>
   <g id="patch_99">
    <path clip-path="url(#p39d914f3ec)" d="M 350.601901 307.584 
L 353.089553 307.584 
L 353.089553 268.103665 
L 350.601901 268.103665 
z
" style="fill:#f48024;opacity:0.4;"/>
   </g>
   <g id="patch_100">
    <path clip-path="url(#p39d914f3ec)" d="M 353.089553 307.584 
L 355.577205 307.584 
L 355.577205 286.682646 
L 353.089553 286.682646 
z
" style="fill:#f48024;opacity:0.4;"/>
   </g>
   <g id="patch_101">
    <path clip-path="url(#p39d914f3ec)" d="M 355.577205 307.584 
L 358.064857 307.584 
L 358.064857 289.005019 
L 355.577205 289.005019 
z
" style="fill:#f48024;opacity:0.4;"/>
   </g>
   <g id="patch_102">
    <path clip-path="url(#p39d914f3ec)" d="M 358.064857 307.584 
L 360.552509 307.584 
L 360.552509 302.939255 
L 358.064857 302.939255 
z
" style="fill:#f48024;opacity:0.4;"/>
   </g>
   <g id="patch_103">
    <path clip-path="url(#p39d914f3ec)" d="M 111.75296 307.584 
L 114.237654 307.584 
L 114.237654 282.007486 
L 111.75296 282.007486 
z
" style="fill:#008000;opacity:0.4;"/>
   </g>
   <g id="patch_104">
    <path clip-path="url(#p39d914f3ec)" d="M 114.237654 307.584 
L 116.722348 307.584 
L 116.722348 216.903633 
L 114.237654 216.903633 
z
" style="fill:#008000;opacity:0.4;"/>
   </g>
   <g id="patch_105">
    <path clip-path="url(#p39d914f3ec)" d="M 116.722348 307.584 
L 119.207042 307.584 
L 119.207042 175.051156 
L 116.722348 175.051156 
z
" style="fill:#008000;opacity:0.4;"/>
   </g>
   <g id="patch_106">
    <path clip-path="url(#p39d914f3ec)" d="M 119.207042 307.584 
L 121.691736 307.584 
L 121.691736 233.179596 
L 119.207042 233.179596 
z
" style="fill:#008000;opacity:0.4;"/>
   </g>
   <g id="patch_107">
    <path clip-path="url(#p39d914f3ec)" d="M 121.691736 307.584 
L 124.176429 307.584 
L 124.176429 216.903633 
L 121.691736 216.903633 
z
" style="fill:#008000;opacity:0.4;"/>
   </g>
   <g id="patch_108">
    <path clip-path="url(#p39d914f3ec)" d="M 124.176429 307.584 
L 126.661123 307.584 
L 126.661123 226.204183 
L 124.176429 226.204183 
z
" style="fill:#008000;opacity:0.4;"/>
   </g>
   <g id="patch_109">
    <path clip-path="url(#p39d914f3ec)" d="M 126.661123 307.584 
L 129.145817 307.584 
L 129.145817 165.750606 
L 126.661123 165.750606 
z
" style="fill:#008000;opacity:0.4;"/>
   </g>
   <g id="patch_110">
    <path clip-path="url(#p39d914f3ec)" d="M 129.145817 307.584 
L 131.630511 307.584 
L 131.630511 109.947303 
L 129.145817 109.947303 
z
" style="fill:#008000;opacity:0.4;"/>
   </g>
   <g id="patch_111">
    <path clip-path="url(#p39d914f3ec)" d="M 131.630511 307.584 
L 134.115205 307.584 
L 134.115205 105.297028 
L 131.630511 105.297028 
z
" style="fill:#008000;opacity:0.4;"/>
   </g>
   <g id="patch_112">
    <path clip-path="url(#p39d914f3ec)" d="M 134.115205 307.584 
L 136.599898 307.584 
L 136.599898 54.144 
L 134.115205 54.144 
z
" style="fill:#008000;opacity:0.4;"/>
   </g>
   <g id="patch_113">
    <path clip-path="url(#p39d914f3ec)" d="M 136.599898 307.584 
L 139.084592 307.584 
L 139.084592 112.27244 
L 136.599898 112.27244 
z
" style="fill:#008000;opacity:0.4;"/>
   </g>
   <g id="patch_114">
    <path clip-path="url(#p39d914f3ec)" d="M 139.084592 307.584 
L 141.569286 307.584 
L 141.569286 98.321615 
L 139.084592 98.321615 
z
" style="fill:#008000;opacity:0.4;"/>
   </g>
   <g id="patch_115">
    <path clip-path="url(#p39d914f3ec)" d="M 141.569286 307.584 
L 144.05398 307.584 
L 144.05398 158.775193 
L 141.569286 158.775193 
z
" style="fill:#008000;opacity:0.4;"/>
   </g>
   <g id="patch_116">
    <path clip-path="url(#p39d914f3ec)" d="M 144.05398 307.584 
L 146.538674 307.584 
L 146.538674 179.701431 
L 144.05398 179.701431 
z
" style="fill:#008000;opacity:0.4;"/>
   </g>
   <g id="patch_117">
    <path clip-path="url(#p39d914f3ec)" d="M 146.538674 307.584 
L 149.023367 307.584 
L 149.023367 193.652257 
L 146.538674 193.652257 
z
" style="fill:#008000;opacity:0.4;"/>
   </g>
   <g id="patch_118">
    <path clip-path="url(#p39d914f3ec)" d="M 149.023367 307.584 
L 151.508061 307.584 
L 151.508061 223.879046 
L 149.023367 223.879046 
z
" style="fill:#008000;opacity:0.4;"/>
   </g>
   <g id="patch_119">
    <path clip-path="url(#p39d914f3ec)" d="M 151.508061 307.584 
L 153.992755 307.584 
L 153.992755 200.62767 
L 151.508061 200.62767 
z
" style="fill:#008000;opacity:0.4;"/>
   </g>
   <g id="patch_120">
    <path clip-path="url(#p39d914f3ec)" d="M 153.992755 307.584 
L 156.477449 307.584 
L 156.477449 175.051156 
L 153.992755 175.051156 
z
" style="fill:#008000;opacity:0.4;"/>
   </g>
   <g id="patch_121">
    <path clip-path="url(#p39d914f3ec)" d="M 156.477449 307.584 
L 158.962143 307.584 
L 158.962143 212.253358 
L 156.477449 212.253358 
z
" style="fill:#008000;opacity:0.4;"/>
   </g>
   <g id="patch_122">
    <path clip-path="url(#p39d914f3ec)" d="M 158.962143 307.584 
L 161.446836 307.584 
L 161.446836 189.001982 
L 158.962143 189.001982 
z
" style="fill:#008000;opacity:0.4;"/>
   </g>
   <g id="patch_123">
    <path clip-path="url(#p39d914f3ec)" d="M 161.446836 307.584 
L 163.93153 307.584 
L 163.93153 216.903633 
L 161.446836 216.903633 
z
" style="fill:#008000;opacity:0.4;"/>
   </g>
   <g id="patch_124">
    <path clip-path="url(#p39d914f3ec)" d="M 163.93153 307.584 
L 166.416224 307.584 
L 166.416224 193.652257 
L 163.93153 193.652257 
z
" style="fill:#008000;opacity:0.4;"/>
   </g>
   <g id="patch_125">
    <path clip-path="url(#p39d914f3ec)" d="M 166.416224 307.584 
L 168.900918 307.584 
L 168.900918 207.603083 
L 166.416224 207.603083 
z
" style="fill:#008000;opacity:0.4;"/>
   </g>
   <g id="patch_126">
    <path clip-path="url(#p39d914f3ec)" d="M 168.900918 307.584 
L 171.385612 307.584 
L 171.385612 202.952807 
L 168.900918 202.952807 
z
" style="fill:#008000;opacity:0.4;"/>
   </g>
   <g id="patch_127">
    <path clip-path="url(#p39d914f3ec)" d="M 171.385612 307.584 
L 173.870306 307.584 
L 173.870306 226.204183 
L 171.385612 226.204183 
z
" style="fill:#008000;opacity:0.4;"/>
   </g>
   <g id="patch_128">
    <path clip-path="url(#p39d914f3ec)" d="M 173.870306 307.584 
L 176.354999 307.584 
L 176.354999 177.376294 
L 173.870306 177.376294 
z
" style="fill:#008000;opacity:0.4;"/>
   </g>
   <g id="patch_129">
    <path clip-path="url(#p39d914f3ec)" d="M 176.354999 307.584 
L 178.839693 307.584 
L 178.839693 182.026569 
L 176.354999 182.026569 
z
" style="fill:#008000;opacity:0.4;"/>
   </g>
   <g id="patch_130">
    <path clip-path="url(#p39d914f3ec)" d="M 178.839693 307.584 
L 181.324387 307.584 
L 181.324387 175.051156 
L 178.839693 175.051156 
z
" style="fill:#008000;opacity:0.4;"/>
   </g>
   <g id="patch_131">
    <path clip-path="url(#p39d914f3ec)" d="M 181.324387 307.584 
L 183.809081 307.584 
L 183.809081 149.474642 
L 181.324387 149.474642 
z
" style="fill:#008000;opacity:0.4;"/>
   </g>
   <g id="patch_132">
    <path clip-path="url(#p39d914f3ec)" d="M 183.809081 307.584 
L 186.293775 307.584 
L 186.293775 168.075743 
L 183.809081 168.075743 
z
" style="fill:#008000;opacity:0.4;"/>
   </g>
   <g id="patch_133">
    <path clip-path="url(#p39d914f3ec)" d="M 186.293775 307.584 
L 188.778468 307.584 
L 188.778468 158.775193 
L 186.293775 158.775193 
z
" style="fill:#008000;opacity:0.4;"/>
   </g>
   <g id="patch_134">
    <path clip-path="url(#p39d914f3ec)" d="M 188.778468 307.584 
L 191.263162 307.584 
L 191.263162 186.676844 
L 188.778468 186.676844 
z
" style="fill:#008000;opacity:0.4;"/>
   </g>
   <g id="patch_135">
    <path clip-path="url(#p39d914f3ec)" d="M 191.263162 307.584 
L 193.747856 307.584 
L 193.747856 179.701431 
L 191.263162 179.701431 
z
" style="fill:#008000;opacity:0.4;"/>
   </g>
   <g id="patch_136">
    <path clip-path="url(#p39d914f3ec)" d="M 193.747856 307.584 
L 196.23255 307.584 
L 196.23255 135.523817 
L 193.747856 135.523817 
z
" style="fill:#008000;opacity:0.4;"/>
   </g>
   <g id="patch_137">
    <path clip-path="url(#p39d914f3ec)" d="M 196.23255 307.584 
L 198.717244 307.584 
L 198.717244 130.873541 
L 196.23255 130.873541 
z
" style="fill:#008000;opacity:0.4;"/>
   </g>
   <g id="patch_138">
    <path clip-path="url(#p39d914f3ec)" d="M 198.717244 307.584 
L 201.201937 307.584 
L 201.201937 100.646752 
L 198.717244 100.646752 
z
" style="fill:#008000;opacity:0.4;"/>
   </g>
   <g id="patch_139">
    <path clip-path="url(#p39d914f3ec)" d="M 201.201937 307.584 
L 203.686631 307.584 
L 203.686631 182.026569 
L 201.201937 182.026569 
z
" style="fill:#008000;opacity:0.4;"/>
   </g>
   <g id="patch_140">
    <path clip-path="url(#p39d914f3ec)" d="M 203.686631 307.584 
L 206.171325 307.584 
L 206.171325 177.376294 
L 203.686631 177.376294 
z
" style="fill:#008000;opacity:0.4;"/>
   </g>
   <g id="patch_141">
    <path clip-path="url(#p39d914f3ec)" d="M 206.171325 307.584 
L 208.656019 307.584 
L 208.656019 140.174092 
L 206.171325 140.174092 
z
" style="fill:#008000;opacity:0.4;"/>
   </g>
   <g id="patch_142">
    <path clip-path="url(#p39d914f3ec)" d="M 208.656019 307.584 
L 211.140713 307.584 
L 211.140713 75.070239 
L 208.656019 75.070239 
z
" style="fill:#008000;opacity:0.4;"/>
   </g>
   <g id="patch_143">
    <path clip-path="url(#p39d914f3ec)" d="M 211.140713 307.584 
L 213.625406 307.584 
L 213.625406 109.947303 
L 211.140713 109.947303 
z
" style="fill:#008000;opacity:0.4;"/>
   </g>
   <g id="patch_144">
    <path clip-path="url(#p39d914f3ec)" d="M 213.625406 307.584 
L 216.1101 307.584 
L 216.1101 128.548404 
L 213.625406 128.548404 
z
" style="fill:#008000;opacity:0.4;"/>
   </g>
   <g id="patch_145">
    <path clip-path="url(#p39d914f3ec)" d="M 216.1101 307.584 
L 218.594794 307.584 
L 218.594794 147.149505 
L 216.1101 147.149505 
z
" style="fill:#008000;opacity:0.4;"/>
   </g>
   <g id="patch_146">
    <path clip-path="url(#p39d914f3ec)" d="M 218.594794 307.584 
L 221.079488 307.584 
L 221.079488 207.603083 
L 218.594794 207.603083 
z
" style="fill:#008000;opacity:0.4;"/>
   </g>
   <g id="patch_147">
    <path clip-path="url(#p39d914f3ec)" d="M 221.079488 307.584 
L 223.564182 307.584 
L 223.564182 186.676844 
L 221.079488 186.676844 
z
" style="fill:#008000;opacity:0.4;"/>
   </g>
   <g id="patch_148">
    <path clip-path="url(#p39d914f3ec)" d="M 223.564182 307.584 
L 226.048876 307.584 
L 226.048876 191.327119 
L 223.564182 191.327119 
z
" style="fill:#008000;opacity:0.4;"/>
   </g>
   <g id="patch_149">
    <path clip-path="url(#p39d914f3ec)" d="M 226.048876 307.584 
L 228.533569 307.584 
L 228.533569 235.504734 
L 226.048876 235.504734 
z
" style="fill:#008000;opacity:0.4;"/>
   </g>
   <g id="patch_150">
    <path clip-path="url(#p39d914f3ec)" d="M 228.533569 307.584 
L 231.018263 307.584 
L 231.018263 265.731523 
L 228.533569 265.731523 
z
" style="fill:#008000;opacity:0.4;"/>
   </g>
   <g id="patch_151">
    <path clip-path="url(#p39d914f3ec)" d="M 231.018263 307.584 
L 233.502957 307.584 
L 233.502957 247.130422 
L 231.018263 247.130422 
z
" style="fill:#008000;opacity:0.4;"/>
   </g>
   <g id="patch_152">
    <path clip-path="url(#p39d914f3ec)" d="M 233.502957 307.584 
L 235.987651 307.584 
L 235.987651 254.105835 
L 233.502957 254.105835 
z
" style="fill:#008000;opacity:0.4;"/>
   </g>
   <g id="patch_153">
    <path clip-path="url(#p39d914f3ec)" d="M 235.987651 307.584 
L 238.472345 307.584 
L 238.472345 247.130422 
L 235.987651 247.130422 
z
" style="fill:#008000;opacity:0.4;"/>
   </g>
   <g id="patch_154">
    <path clip-path="url(#p39d914f3ec)" d="M 238.472345 307.584 
L 240.957038 307.584 
L 240.957038 244.805284 
L 238.472345 244.805284 
z
" style="fill:#008000;opacity:0.4;"/>
   </g>
   <g id="patch_155">
    <path clip-path="url(#p39d914f3ec)" d="M 240.957038 307.584 
L 243.441732 307.584 
L 243.441732 247.130422 
L 240.957038 247.130422 
z
" style="fill:#008000;opacity:0.4;"/>
   </g>
   <g id="patch_156">
    <path clip-path="url(#p39d914f3ec)" d="M 243.441732 307.584 
L 245.926426 307.584 
L 245.926426 268.056661 
L 243.441732 268.056661 
z
" style="fill:#008000;opacity:0.4;"/>
   </g>
   <g id="patch_157">
    <path clip-path="url(#p39d914f3ec)" d="M 245.926426 307.584 
L 248.41112 307.584 
L 248.41112 226.204183 
L 245.926426 226.204183 
z
" style="fill:#008000;opacity:0.4;"/>
   </g>
   <g id="patch_158">
    <path clip-path="url(#p39d914f3ec)" d="M 248.41112 307.584 
L 250.895814 307.584 
L 250.895814 244.805284 
L 248.41112 244.805284 
z
" style="fill:#008000;opacity:0.4;"/>
   </g>
   <g id="patch_159">
    <path clip-path="url(#p39d914f3ec)" d="M 250.895814 307.584 
L 253.380507 307.584 
L 253.380507 244.805284 
L 250.895814 244.805284 
z
" style="fill:#008000;opacity:0.4;"/>
   </g>
   <g id="patch_160">
    <path clip-path="url(#p39d914f3ec)" d="M 253.380507 307.584 
L 255.865201 307.584 
L 255.865201 249.45556 
L 253.380507 249.45556 
z
" style="fill:#008000;opacity:0.4;"/>
   </g>
   <g id="patch_161">
    <path clip-path="url(#p39d914f3ec)" d="M 255.865201 307.584 
L 258.349895 307.584 
L 258.349895 240.155009 
L 255.865201 240.155009 
z
" style="fill:#008000;opacity:0.4;"/>
   </g>
   <g id="patch_162">
    <path clip-path="url(#p39d914f3ec)" d="M 258.349895 307.584 
L 260.834589 307.584 
L 260.834589 242.480147 
L 258.349895 242.480147 
z
" style="fill:#008000;opacity:0.4;"/>
   </g>
   <g id="patch_163">
    <path clip-path="url(#p39d914f3ec)" d="M 260.834589 307.584 
L 263.319283 307.584 
L 263.319283 268.056661 
L 260.834589 268.056661 
z
" style="fill:#008000;opacity:0.4;"/>
   </g>
   <g id="patch_164">
    <path clip-path="url(#p39d914f3ec)" d="M 263.319283 307.584 
L 265.803976 307.584 
L 265.803976 261.081248 
L 263.319283 261.081248 
z
" style="fill:#008000;opacity:0.4;"/>
   </g>
   <g id="patch_165">
    <path clip-path="url(#p39d914f3ec)" d="M 265.803976 307.584 
L 268.28867 307.584 
L 268.28867 265.731523 
L 265.803976 265.731523 
z
" style="fill:#008000;opacity:0.4;"/>
   </g>
   <g id="patch_166">
    <path clip-path="url(#p39d914f3ec)" d="M 268.28867 307.584 
L 270.773364 307.584 
L 270.773364 291.308037 
L 268.28867 291.308037 
z
" style="fill:#008000;opacity:0.4;"/>
   </g>
   <g id="patch_167">
    <path clip-path="url(#p39d914f3ec)" d="M 270.773364 307.584 
L 273.258058 307.584 
L 273.258058 263.406385 
L 270.773364 263.406385 
z
" style="fill:#008000;opacity:0.4;"/>
   </g>
   <g id="patch_168">
    <path clip-path="url(#p39d914f3ec)" d="M 273.258058 307.584 
L 275.742752 307.584 
L 275.742752 237.829872 
L 273.258058 237.829872 
z
" style="fill:#008000;opacity:0.4;"/>
   </g>
   <g id="patch_169">
    <path clip-path="url(#p39d914f3ec)" d="M 275.742752 307.584 
L 278.227446 307.584 
L 278.227446 272.706936 
L 275.742752 272.706936 
z
" style="fill:#008000;opacity:0.4;"/>
   </g>
   <g id="patch_170">
    <path clip-path="url(#p39d914f3ec)" d="M 278.227446 307.584 
L 280.712139 307.584 
L 280.712139 279.682349 
L 278.227446 279.682349 
z
" style="fill:#008000;opacity:0.4;"/>
   </g>
   <g id="patch_171">
    <path clip-path="url(#p39d914f3ec)" d="M 280.712139 307.584 
L 283.196833 307.584 
L 283.196833 258.75611 
L 280.712139 258.75611 
z
" style="fill:#008000;opacity:0.4;"/>
   </g>
   <g id="patch_172">
    <path clip-path="url(#p39d914f3ec)" d="M 283.196833 307.584 
L 285.681527 307.584 
L 285.681527 265.731523 
L 283.196833 265.731523 
z
" style="fill:#008000;opacity:0.4;"/>
   </g>
   <g id="patch_173">
    <path clip-path="url(#p39d914f3ec)" d="M 285.681527 307.584 
L 288.166221 307.584 
L 288.166221 265.731523 
L 285.681527 265.731523 
z
" style="fill:#008000;opacity:0.4;"/>
   </g>
   <g id="patch_174">
    <path clip-path="url(#p39d914f3ec)" d="M 288.166221 307.584 
L 290.650915 307.584 
L 290.650915 254.105835 
L 288.166221 254.105835 
z
" style="fill:#008000;opacity:0.4;"/>
   </g>
   <g id="patch_175">
    <path clip-path="url(#p39d914f3ec)" d="M 290.650915 307.584 
L 293.135608 307.584 
L 293.135608 256.430972 
L 290.650915 256.430972 
z
" style="fill:#008000;opacity:0.4;"/>
   </g>
   <g id="patch_176">
    <path clip-path="url(#p39d914f3ec)" d="M 293.135608 307.584 
L 295.620302 307.584 
L 295.620302 235.504734 
L 293.135608 235.504734 
z
" style="fill:#008000;opacity:0.4;"/>
   </g>
   <g id="patch_177">
    <path clip-path="url(#p39d914f3ec)" d="M 295.620302 307.584 
L 298.104996 307.584 
L 298.104996 254.105835 
L 295.620302 254.105835 
z
" style="fill:#008000;opacity:0.4;"/>
   </g>
   <g id="patch_178">
    <path clip-path="url(#p39d914f3ec)" d="M 298.104996 307.584 
L 300.58969 307.584 
L 300.58969 247.130422 
L 298.104996 247.130422 
z
" style="fill:#008000;opacity:0.4;"/>
   </g>
   <g id="patch_179">
    <path clip-path="url(#p39d914f3ec)" d="M 300.58969 307.584 
L 303.074384 307.584 
L 303.074384 261.081248 
L 300.58969 261.081248 
z
" style="fill:#008000;opacity:0.4;"/>
   </g>
   <g id="patch_180">
    <path clip-path="url(#p39d914f3ec)" d="M 303.074384 307.584 
L 305.559077 307.584 
L 305.559077 288.982899 
L 303.074384 288.982899 
z
" style="fill:#008000;opacity:0.4;"/>
   </g>
   <g id="patch_181">
    <path clip-path="url(#p39d914f3ec)" d="M 305.559077 307.584 
L 308.043771 307.584 
L 308.043771 256.430972 
L 305.559077 256.430972 
z
" style="fill:#008000;opacity:0.4;"/>
   </g>
   <g id="patch_182">
    <path clip-path="url(#p39d914f3ec)" d="M 308.043771 307.584 
L 310.528465 307.584 
L 310.528465 254.105835 
L 308.043771 254.105835 
z
" style="fill:#008000;opacity:0.4;"/>
   </g>
   <g id="patch_183">
    <path clip-path="url(#p39d914f3ec)" d="M 310.528465 307.584 
L 313.013159 307.584 
L 313.013159 249.45556 
L 310.528465 249.45556 
z
" style="fill:#008000;opacity:0.4;"/>
   </g>
   <g id="patch_184">
    <path clip-path="url(#p39d914f3ec)" d="M 313.013159 307.584 
L 315.497853 307.584 
L 315.497853 247.130422 
L 313.013159 247.130422 
z
" style="fill:#008000;opacity:0.4;"/>
   </g>
   <g id="patch_185">
    <path clip-path="url(#p39d914f3ec)" d="M 315.497853 307.584 
L 317.982546 307.584 
L 317.982546 251.780697 
L 315.497853 251.780697 
z
" style="fill:#008000;opacity:0.4;"/>
   </g>
   <g id="patch_186">
    <path clip-path="url(#p39d914f3ec)" d="M 317.982546 307.584 
L 320.46724 307.584 
L 320.46724 212.253358 
L 317.982546 212.253358 
z
" style="fill:#008000;opacity:0.4;"/>
   </g>
   <g id="patch_187">
    <path clip-path="url(#p39d914f3ec)" d="M 320.46724 307.584 
L 322.951934 307.584 
L 322.951934 233.179596 
L 320.46724 233.179596 
z
" style="fill:#008000;opacity:0.4;"/>
   </g>
   <g id="patch_188">
    <path clip-path="url(#p39d914f3ec)" d="M 322.951934 307.584 
L 325.436628 307.584 
L 325.436628 235.504734 
L 322.951934 235.504734 
z
" style="fill:#008000;opacity:0.4;"/>
   </g>
   <g id="patch_189">
    <path clip-path="url(#p39d914f3ec)" d="M 325.436628 307.584 
L 327.921322 307.584 
L 327.921322 233.179596 
L 325.436628 233.179596 
z
" style="fill:#008000;opacity:0.4;"/>
   </g>
   <g id="patch_190">
    <path clip-path="url(#p39d914f3ec)" d="M 327.921322 307.584 
L 330.406015 307.584 
L 330.406015 242.480147 
L 327.921322 242.480147 
z
" style="fill:#008000;opacity:0.4;"/>
   </g>
   <g id="patch_191">
    <path clip-path="url(#p39d914f3ec)" d="M 330.406015 307.584 
L 332.890709 307.584 
L 332.890709 228.529321 
L 330.406015 228.529321 
z
" style="fill:#008000;opacity:0.4;"/>
   </g>
   <g id="patch_192">
    <path clip-path="url(#p39d914f3ec)" d="M 332.890709 307.584 
L 335.375403 307.584 
L 335.375403 223.879046 
L 332.890709 223.879046 
z
" style="fill:#008000;opacity:0.4;"/>
   </g>
   <g id="patch_193">
    <path clip-path="url(#p39d914f3ec)" d="M 335.375403 307.584 
L 337.860097 307.584 
L 337.860097 235.504734 
L 335.375403 235.504734 
z
" style="fill:#008000;opacity:0.4;"/>
   </g>
   <g id="patch_194">
    <path clip-path="url(#p39d914f3ec)" d="M 337.860097 307.584 
L 340.344791 307.584 
L 340.344791 240.155009 
L 337.860097 240.155009 
z
" style="fill:#008000;opacity:0.4;"/>
   </g>
   <g id="patch_195">
    <path clip-path="url(#p39d914f3ec)" d="M 340.344791 307.584 
L 342.829485 307.584 
L 342.829485 219.228771 
L 340.344791 219.228771 
z
" style="fill:#008000;opacity:0.4;"/>
   </g>
   <g id="patch_196">
    <path clip-path="url(#p39d914f3ec)" d="M 342.829485 307.584 
L 345.314178 307.584 
L 345.314178 247.130422 
L 342.829485 247.130422 
z
" style="fill:#008000;opacity:0.4;"/>
   </g>
   <g id="patch_197">
    <path clip-path="url(#p39d914f3ec)" d="M 345.314178 307.584 
L 347.798872 307.584 
L 347.798872 249.45556 
L 345.314178 249.45556 
z
" style="fill:#008000;opacity:0.4;"/>
   </g>
   <g id="patch_198">
    <path clip-path="url(#p39d914f3ec)" d="M 347.798872 307.584 
L 350.283566 307.584 
L 350.283566 254.105835 
L 347.798872 254.105835 
z
" style="fill:#008000;opacity:0.4;"/>
   </g>
   <g id="patch_199">
    <path clip-path="url(#p39d914f3ec)" d="M 350.283566 307.584 
L 352.76826 307.584 
L 352.76826 265.731523 
L 350.283566 265.731523 
z
" style="fill:#008000;opacity:0.4;"/>
   </g>
   <g id="patch_200">
    <path clip-path="url(#p39d914f3ec)" d="M 352.76826 307.584 
L 355.252954 307.584 
L 355.252954 286.657761 
L 352.76826 286.657761 
z
" style="fill:#008000;opacity:0.4;"/>
   </g>
   <g id="patch_201">
    <path clip-path="url(#p39d914f3ec)" d="M 355.252954 307.584 
L 357.737647 307.584 
L 357.737647 288.982899 
L 355.252954 288.982899 
z
" style="fill:#008000;opacity:0.4;"/>
   </g>
   <g id="patch_202">
    <path clip-path="url(#p39d914f3ec)" d="M 357.737647 307.584 
L 360.222341 307.584 
L 360.222341 302.933725 
L 357.737647 302.933725 
z
" style="fill:#008000;opacity:0.4;"/>
   </g>
   <g id="matplotlib.axis_1">
    <g id="xtick_1">
     <g id="line2d_1">
      <defs>
       <path d="M 0 0 
L 0 3.5 
" id="m19c87eb211" style="stroke:#000000;stroke-width:0.8;"/>
      </defs>
      <g>
       <use style="stroke:#000000;stroke-width:0.8;" x="74.709325" xlink:href="#m19c87eb211" y="307.584"/>
      </g>
     </g>
     <g id="text_1">
      <!-- 1000 -->
      <defs>
       <path d="M 12.40625 8.296875 
L 28.515625 8.296875 
L 28.515625 63.921875 
L 10.984375 60.40625 
L 10.984375 69.390625 
L 28.421875 72.90625 
L 38.28125 72.90625 
L 38.28125 8.296875 
L 54.390625 8.296875 
L 54.390625 0 
L 12.40625 0 
z
" id="DejaVuSans-49"/>
       <path d="M 31.78125 66.40625 
Q 24.171875 66.40625 20.328125 58.90625 
Q 16.5 51.421875 16.5 36.375 
Q 16.5 21.390625 20.328125 13.890625 
Q 24.171875 6.390625 31.78125 6.390625 
Q 39.453125 6.390625 43.28125 13.890625 
Q 47.125 21.390625 47.125 36.375 
Q 47.125 51.421875 43.28125 58.90625 
Q 39.453125 66.40625 31.78125 66.40625 
z
M 31.78125 74.21875 
Q 44.046875 74.21875 50.515625 64.515625 
Q 56.984375 54.828125 56.984375 36.375 
Q 56.984375 17.96875 50.515625 8.265625 
Q 44.046875 -1.421875 31.78125 -1.421875 
Q 19.53125 -1.421875 13.0625 8.265625 
Q 6.59375 17.96875 6.59375 36.375 
Q 6.59375 54.828125 13.0625 64.515625 
Q 19.53125 74.21875 31.78125 74.21875 
z
" id="DejaVuSans-48"/>
      </defs>
      <g transform="translate(61.984325 322.182437)scale(0.1 -0.1)">
       <use xlink:href="#DejaVuSans-49"/>
       <use x="63.623047" xlink:href="#DejaVuSans-48"/>
       <use x="127.246094" xlink:href="#DejaVuSans-48"/>
       <use x="190.869141" xlink:href="#DejaVuSans-48"/>
      </g>
     </g>
    </g>
    <g id="xtick_2">
     <g id="line2d_2">
      <g>
       <use style="stroke:#000000;stroke-width:0.8;" x="115.136937" xlink:href="#m19c87eb211" y="307.584"/>
      </g>
     </g>
     <g id="text_2">
      <!-- 2000 -->
      <defs>
       <path d="M 19.1875 8.296875 
L 53.609375 8.296875 
L 53.609375 0 
L 7.328125 0 
L 7.328125 8.296875 
Q 12.9375 14.109375 22.625 23.890625 
Q 32.328125 33.6875 34.8125 36.53125 
Q 39.546875 41.84375 41.421875 45.53125 
Q 43.3125 49.21875 43.3125 52.78125 
Q 43.3125 58.59375 39.234375 62.25 
Q 35.15625 65.921875 28.609375 65.921875 
Q 23.96875 65.921875 18.8125 64.3125 
Q 13.671875 62.703125 7.8125 59.421875 
L 7.8125 69.390625 
Q 13.765625 71.78125 18.9375 73 
Q 24.125 74.21875 28.421875 74.21875 
Q 39.75 74.21875 46.484375 68.546875 
Q 53.21875 62.890625 53.21875 53.421875 
Q 53.21875 48.921875 51.53125 44.890625 
Q 49.859375 40.875 45.40625 35.40625 
Q 44.1875 33.984375 37.640625 27.21875 
Q 31.109375 20.453125 19.1875 8.296875 
z
" id="DejaVuSans-50"/>
      </defs>
      <g transform="translate(102.411937 322.182437)scale(0.1 -0.1)">
       <use xlink:href="#DejaVuSans-50"/>
       <use x="63.623047" xlink:href="#DejaVuSans-48"/>
       <use x="127.246094" xlink:href="#DejaVuSans-48"/>
       <use x="190.869141" xlink:href="#DejaVuSans-48"/>
      </g>
     </g>
    </g>
    <g id="xtick_3">
     <g id="line2d_3">
      <g>
       <use style="stroke:#000000;stroke-width:0.8;" x="155.564548" xlink:href="#m19c87eb211" y="307.584"/>
      </g>
     </g>
     <g id="text_3">
      <!-- 3000 -->
      <defs>
       <path d="M 40.578125 39.3125 
Q 47.65625 37.796875 51.625 33 
Q 55.609375 28.21875 55.609375 21.1875 
Q 55.609375 10.40625 48.1875 4.484375 
Q 40.765625 -1.421875 27.09375 -1.421875 
Q 22.515625 -1.421875 17.65625 -0.515625 
Q 12.796875 0.390625 7.625 2.203125 
L 7.625 11.71875 
Q 11.71875 9.328125 16.59375 8.109375 
Q 21.484375 6.890625 26.8125 6.890625 
Q 36.078125 6.890625 40.9375 10.546875 
Q 45.796875 14.203125 45.796875 21.1875 
Q 45.796875 27.640625 41.28125 31.265625 
Q 36.765625 34.90625 28.71875 34.90625 
L 20.21875 34.90625 
L 20.21875 43.015625 
L 29.109375 43.015625 
Q 36.375 43.015625 40.234375 45.921875 
Q 44.09375 48.828125 44.09375 54.296875 
Q 44.09375 59.90625 40.109375 62.90625 
Q 36.140625 65.921875 28.71875 65.921875 
Q 24.65625 65.921875 20.015625 65.03125 
Q 15.375 64.15625 9.8125 62.3125 
L 9.8125 71.09375 
Q 15.4375 72.65625 20.34375 73.4375 
Q 25.25 74.21875 29.59375 74.21875 
Q 40.828125 74.21875 47.359375 69.109375 
Q 53.90625 64.015625 53.90625 55.328125 
Q 53.90625 49.265625 50.4375 45.09375 
Q 46.96875 40.921875 40.578125 39.3125 
z
" id="DejaVuSans-51"/>
      </defs>
      <g transform="translate(142.839548 322.182437)scale(0.1 -0.1)">
       <use xlink:href="#DejaVuSans-51"/>
       <use x="63.623047" xlink:href="#DejaVuSans-48"/>
       <use x="127.246094" xlink:href="#DejaVuSans-48"/>
       <use x="190.869141" xlink:href="#DejaVuSans-48"/>
      </g>
     </g>
    </g>
    <g id="xtick_4">
     <g id="line2d_4">
      <g>
       <use style="stroke:#000000;stroke-width:0.8;" x="195.99216" xlink:href="#m19c87eb211" y="307.584"/>
      </g>
     </g>
     <g id="text_4">
      <!-- 4000 -->
      <defs>
       <path d="M 37.796875 64.3125 
L 12.890625 25.390625 
L 37.796875 25.390625 
z
M 35.203125 72.90625 
L 47.609375 72.90625 
L 47.609375 25.390625 
L 58.015625 25.390625 
L 58.015625 17.1875 
L 47.609375 17.1875 
L 47.609375 0 
L 37.796875 0 
L 37.796875 17.1875 
L 4.890625 17.1875 
L 4.890625 26.703125 
z
" id="DejaVuSans-52"/>
      </defs>
      <g transform="translate(183.26716 322.182437)scale(0.1 -0.1)">
       <use xlink:href="#DejaVuSans-52"/>
       <use x="63.623047" xlink:href="#DejaVuSans-48"/>
       <use x="127.246094" xlink:href="#DejaVuSans-48"/>
       <use x="190.869141" xlink:href="#DejaVuSans-48"/>
      </g>
     </g>
    </g>
    <g id="xtick_5">
     <g id="line2d_5">
      <g>
       <use style="stroke:#000000;stroke-width:0.8;" x="236.419771" xlink:href="#m19c87eb211" y="307.584"/>
      </g>
     </g>
     <g id="text_5">
      <!-- 5000 -->
      <defs>
       <path d="M 10.796875 72.90625 
L 49.515625 72.90625 
L 49.515625 64.59375 
L 19.828125 64.59375 
L 19.828125 46.734375 
Q 21.96875 47.46875 24.109375 47.828125 
Q 26.265625 48.1875 28.421875 48.1875 
Q 40.625 48.1875 47.75 41.5 
Q 54.890625 34.8125 54.890625 23.390625 
Q 54.890625 11.625 47.5625 5.09375 
Q 40.234375 -1.421875 26.90625 -1.421875 
Q 22.3125 -1.421875 17.546875 -0.640625 
Q 12.796875 0.140625 7.71875 1.703125 
L 7.71875 11.625 
Q 12.109375 9.234375 16.796875 8.0625 
Q 21.484375 6.890625 26.703125 6.890625 
Q 35.15625 6.890625 40.078125 11.328125 
Q 45.015625 15.765625 45.015625 23.390625 
Q 45.015625 31 40.078125 35.4375 
Q 35.15625 39.890625 26.703125 39.890625 
Q 22.75 39.890625 18.8125 39.015625 
Q 14.890625 38.140625 10.796875 36.28125 
z
" id="DejaVuSans-53"/>
      </defs>
      <g transform="translate(223.694771 322.182437)scale(0.1 -0.1)">
       <use xlink:href="#DejaVuSans-53"/>
       <use x="63.623047" xlink:href="#DejaVuSans-48"/>
       <use x="127.246094" xlink:href="#DejaVuSans-48"/>
       <use x="190.869141" xlink:href="#DejaVuSans-48"/>
      </g>
     </g>
    </g>
    <g id="xtick_6">
     <g id="line2d_6">
      <g>
       <use style="stroke:#000000;stroke-width:0.8;" x="276.847382" xlink:href="#m19c87eb211" y="307.584"/>
      </g>
     </g>
     <g id="text_6">
      <!-- 6000 -->
      <defs>
       <path d="M 33.015625 40.375 
Q 26.375 40.375 22.484375 35.828125 
Q 18.609375 31.296875 18.609375 23.390625 
Q 18.609375 15.53125 22.484375 10.953125 
Q 26.375 6.390625 33.015625 6.390625 
Q 39.65625 6.390625 43.53125 10.953125 
Q 47.40625 15.53125 47.40625 23.390625 
Q 47.40625 31.296875 43.53125 35.828125 
Q 39.65625 40.375 33.015625 40.375 
z
M 52.59375 71.296875 
L 52.59375 62.3125 
Q 48.875 64.0625 45.09375 64.984375 
Q 41.3125 65.921875 37.59375 65.921875 
Q 27.828125 65.921875 22.671875 59.328125 
Q 17.53125 52.734375 16.796875 39.40625 
Q 19.671875 43.65625 24.015625 45.921875 
Q 28.375 48.1875 33.59375 48.1875 
Q 44.578125 48.1875 50.953125 41.515625 
Q 57.328125 34.859375 57.328125 23.390625 
Q 57.328125 12.15625 50.6875 5.359375 
Q 44.046875 -1.421875 33.015625 -1.421875 
Q 20.359375 -1.421875 13.671875 8.265625 
Q 6.984375 17.96875 6.984375 36.375 
Q 6.984375 53.65625 15.1875 63.9375 
Q 23.390625 74.21875 37.203125 74.21875 
Q 40.921875 74.21875 44.703125 73.484375 
Q 48.484375 72.75 52.59375 71.296875 
z
" id="DejaVuSans-54"/>
      </defs>
      <g transform="translate(264.122382 322.182437)scale(0.1 -0.1)">
       <use xlink:href="#DejaVuSans-54"/>
       <use x="63.623047" xlink:href="#DejaVuSans-48"/>
       <use x="127.246094" xlink:href="#DejaVuSans-48"/>
       <use x="190.869141" xlink:href="#DejaVuSans-48"/>
      </g>
     </g>
    </g>
    <g id="xtick_7">
     <g id="line2d_7">
      <g>
       <use style="stroke:#000000;stroke-width:0.8;" x="317.274994" xlink:href="#m19c87eb211" y="307.584"/>
      </g>
     </g>
     <g id="text_7">
      <!-- 7000 -->
      <defs>
       <path d="M 8.203125 72.90625 
L 55.078125 72.90625 
L 55.078125 68.703125 
L 28.609375 0 
L 18.3125 0 
L 43.21875 64.59375 
L 8.203125 64.59375 
z
" id="DejaVuSans-55"/>
      </defs>
      <g transform="translate(304.549994 322.182437)scale(0.1 -0.1)">
       <use xlink:href="#DejaVuSans-55"/>
       <use x="63.623047" xlink:href="#DejaVuSans-48"/>
       <use x="127.246094" xlink:href="#DejaVuSans-48"/>
       <use x="190.869141" xlink:href="#DejaVuSans-48"/>
      </g>
     </g>
    </g>
    <g id="xtick_8">
     <g id="line2d_8">
      <g>
       <use style="stroke:#000000;stroke-width:0.8;" x="357.702605" xlink:href="#m19c87eb211" y="307.584"/>
      </g>
     </g>
     <g id="text_8">
      <!-- 8000 -->
      <defs>
       <path d="M 31.78125 34.625 
Q 24.75 34.625 20.71875 30.859375 
Q 16.703125 27.09375 16.703125 20.515625 
Q 16.703125 13.921875 20.71875 10.15625 
Q 24.75 6.390625 31.78125 6.390625 
Q 38.8125 6.390625 42.859375 10.171875 
Q 46.921875 13.96875 46.921875 20.515625 
Q 46.921875 27.09375 42.890625 30.859375 
Q 38.875 34.625 31.78125 34.625 
z
M 21.921875 38.8125 
Q 15.578125 40.375 12.03125 44.71875 
Q 8.5 49.078125 8.5 55.328125 
Q 8.5 64.0625 14.71875 69.140625 
Q 20.953125 74.21875 31.78125 74.21875 
Q 42.671875 74.21875 48.875 69.140625 
Q 55.078125 64.0625 55.078125 55.328125 
Q 55.078125 49.078125 51.53125 44.71875 
Q 48 40.375 41.703125 38.8125 
Q 48.828125 37.15625 52.796875 32.3125 
Q 56.78125 27.484375 56.78125 20.515625 
Q 56.78125 9.90625 50.3125 4.234375 
Q 43.84375 -1.421875 31.78125 -1.421875 
Q 19.734375 -1.421875 13.25 4.234375 
Q 6.78125 9.90625 6.78125 20.515625 
Q 6.78125 27.484375 10.78125 32.3125 
Q 14.796875 37.15625 21.921875 38.8125 
z
M 18.3125 54.390625 
Q 18.3125 48.734375 21.84375 45.5625 
Q 25.390625 42.390625 31.78125 42.390625 
Q 38.140625 42.390625 41.71875 45.5625 
Q 45.3125 48.734375 45.3125 54.390625 
Q 45.3125 60.0625 41.71875 63.234375 
Q 38.140625 66.40625 31.78125 66.40625 
Q 25.390625 66.40625 21.84375 63.234375 
Q 18.3125 60.0625 18.3125 54.390625 
z
" id="DejaVuSans-56"/>
      </defs>
      <g transform="translate(344.977605 322.182437)scale(0.1 -0.1)">
       <use xlink:href="#DejaVuSans-56"/>
       <use x="63.623047" xlink:href="#DejaVuSans-48"/>
       <use x="127.246094" xlink:href="#DejaVuSans-48"/>
       <use x="190.869141" xlink:href="#DejaVuSans-48"/>
      </g>
     </g>
    </g>
    <g id="xtick_9">
     <g id="line2d_9">
      <g>
       <use style="stroke:#000000;stroke-width:0.8;" x="398.130217" xlink:href="#m19c87eb211" y="307.584"/>
      </g>
     </g>
     <g id="text_9">
      <!-- 9000 -->
      <defs>
       <path d="M 10.984375 1.515625 
L 10.984375 10.5 
Q 14.703125 8.734375 18.5 7.8125 
Q 22.3125 6.890625 25.984375 6.890625 
Q 35.75 6.890625 40.890625 13.453125 
Q 46.046875 20.015625 46.78125 33.40625 
Q 43.953125 29.203125 39.59375 26.953125 
Q 35.25 24.703125 29.984375 24.703125 
Q 19.046875 24.703125 12.671875 31.3125 
Q 6.296875 37.9375 6.296875 49.421875 
Q 6.296875 60.640625 12.9375 67.421875 
Q 19.578125 74.21875 30.609375 74.21875 
Q 43.265625 74.21875 49.921875 64.515625 
Q 56.59375 54.828125 56.59375 36.375 
Q 56.59375 19.140625 48.40625 8.859375 
Q 40.234375 -1.421875 26.421875 -1.421875 
Q 22.703125 -1.421875 18.890625 -0.6875 
Q 15.09375 0.046875 10.984375 1.515625 
z
M 30.609375 32.421875 
Q 37.25 32.421875 41.125 36.953125 
Q 45.015625 41.5 45.015625 49.421875 
Q 45.015625 57.28125 41.125 61.84375 
Q 37.25 66.40625 30.609375 66.40625 
Q 23.96875 66.40625 20.09375 61.84375 
Q 16.21875 57.28125 16.21875 49.421875 
Q 16.21875 41.5 20.09375 36.953125 
Q 23.96875 32.421875 30.609375 32.421875 
z
" id="DejaVuSans-57"/>
      </defs>
      <g transform="translate(385.405217 322.182437)scale(0.1 -0.1)">
       <use xlink:href="#DejaVuSans-57"/>
       <use x="63.623047" xlink:href="#DejaVuSans-48"/>
       <use x="127.246094" xlink:href="#DejaVuSans-48"/>
       <use x="190.869141" xlink:href="#DejaVuSans-48"/>
      </g>
     </g>
    </g>
   </g>
   <g id="matplotlib.axis_2">
    <g id="ytick_1">
     <g id="line2d_10">
      <defs>
       <path d="M 0 0 
L -3.5 0 
" id="md58825c2ca" style="stroke:#000000;stroke-width:0.8;"/>
      </defs>
      <g>
       <use style="stroke:#000000;stroke-width:0.8;" x="57.6" xlink:href="#md58825c2ca" y="307.584"/>
      </g>
     </g>
     <g id="text_10">
      <!-- 0.0000 -->
      <defs>
       <path d="M 10.6875 12.40625 
L 21 12.40625 
L 21 0 
L 10.6875 0 
z
" id="DejaVuSans-46"/>
      </defs>
      <g transform="translate(15.609375 311.383219)scale(0.1 -0.1)">
       <use xlink:href="#DejaVuSans-48"/>
       <use x="63.623047" xlink:href="#DejaVuSans-46"/>
       <use x="95.410156" xlink:href="#DejaVuSans-48"/>
       <use x="159.033203" xlink:href="#DejaVuSans-48"/>
       <use x="222.65625" xlink:href="#DejaVuSans-48"/>
       <use x="286.279297" xlink:href="#DejaVuSans-48"/>
      </g>
     </g>
    </g>
    <g id="ytick_2">
     <g id="line2d_11">
      <g>
       <use style="stroke:#000000;stroke-width:0.8;" x="57.6" xlink:href="#md58825c2ca" y="250.73691"/>
      </g>
     </g>
     <g id="text_11">
      <!-- 0.0001 -->
      <g transform="translate(15.609375 254.536129)scale(0.1 -0.1)">
       <use xlink:href="#DejaVuSans-48"/>
       <use x="63.623047" xlink:href="#DejaVuSans-46"/>
       <use x="95.410156" xlink:href="#DejaVuSans-48"/>
       <use x="159.033203" xlink:href="#DejaVuSans-48"/>
       <use x="222.65625" xlink:href="#DejaVuSans-48"/>
       <use x="286.279297" xlink:href="#DejaVuSans-49"/>
      </g>
     </g>
    </g>
    <g id="ytick_3">
     <g id="line2d_12">
      <g>
       <use style="stroke:#000000;stroke-width:0.8;" x="57.6" xlink:href="#md58825c2ca" y="193.889821"/>
      </g>
     </g>
     <g id="text_12">
      <!-- 0.0002 -->
      <g transform="translate(15.609375 197.689039)scale(0.1 -0.1)">
       <use xlink:href="#DejaVuSans-48"/>
       <use x="63.623047" xlink:href="#DejaVuSans-46"/>
       <use x="95.410156" xlink:href="#DejaVuSans-48"/>
       <use x="159.033203" xlink:href="#DejaVuSans-48"/>
       <use x="222.65625" xlink:href="#DejaVuSans-48"/>
       <use x="286.279297" xlink:href="#DejaVuSans-50"/>
      </g>
     </g>
    </g>
    <g id="ytick_4">
     <g id="line2d_13">
      <g>
       <use style="stroke:#000000;stroke-width:0.8;" x="57.6" xlink:href="#md58825c2ca" y="137.042731"/>
      </g>
     </g>
     <g id="text_13">
      <!-- 0.0003 -->
      <g transform="translate(15.609375 140.84195)scale(0.1 -0.1)">
       <use xlink:href="#DejaVuSans-48"/>
       <use x="63.623047" xlink:href="#DejaVuSans-46"/>
       <use x="95.410156" xlink:href="#DejaVuSans-48"/>
       <use x="159.033203" xlink:href="#DejaVuSans-48"/>
       <use x="222.65625" xlink:href="#DejaVuSans-48"/>
       <use x="286.279297" xlink:href="#DejaVuSans-51"/>
      </g>
     </g>
    </g>
    <g id="ytick_5">
     <g id="line2d_14">
      <g>
       <use style="stroke:#000000;stroke-width:0.8;" x="57.6" xlink:href="#md58825c2ca" y="80.195641"/>
      </g>
     </g>
     <g id="text_14">
      <!-- 0.0004 -->
      <g transform="translate(15.609375 83.99486)scale(0.1 -0.1)">
       <use xlink:href="#DejaVuSans-48"/>
       <use x="63.623047" xlink:href="#DejaVuSans-46"/>
       <use x="95.410156" xlink:href="#DejaVuSans-48"/>
       <use x="159.033203" xlink:href="#DejaVuSans-48"/>
       <use x="222.65625" xlink:href="#DejaVuSans-48"/>
       <use x="286.279297" xlink:href="#DejaVuSans-52"/>
      </g>
     </g>
    </g>
   </g>
   <g id="line2d_15">
    <path clip-path="url(#p39d914f3ec)" d="M 73.852544 307.500327 
L 77.131682 307.387002 
L 80.410821 307.147706 
L 83.68996 306.674207 
L 86.969098 305.795701 
L 90.248237 304.26611 
L 93.527376 301.764161 
L 96.806514 297.91435 
L 100.085653 292.332761 
L 103.364792 284.694033 
L 106.64393 274.807773 
L 109.923069 262.68837 
L 113.202208 248.60381 
L 116.481346 233.09442 
L 119.760485 216.956749 
L 123.039624 201.187947 
L 126.318762 186.885081 
L 129.597901 175.099232 
L 132.87704 166.660639 
L 136.156178 162.013336 
L 139.435317 161.111182 
L 142.714456 163.41792 
L 145.993594 168.020547 
L 149.272733 173.822678 
L 152.551872 179.755501 
L 155.831011 184.943723 
L 159.110149 188.790774 
L 162.389288 190.984422 
L 165.668427 191.450713 
L 168.947565 190.290219 
L 172.226704 187.719439 
L 175.505843 184.024369 
L 178.784981 179.523788 
L 182.06412 174.540164 
L 185.343259 169.381168 
L 188.622397 164.337447 
L 191.901536 159.698421 
L 195.180675 155.778989 
L 198.459813 152.941335 
L 201.738952 151.592793 
L 205.018091 152.146091 
L 208.297229 154.94181 
L 211.576368 160.150457 
L 214.855507 167.685971 
L 218.134645 177.165849 
L 221.413784 187.941517 
L 224.692923 199.199122 
L 227.972061 210.105567 
L 231.2512 219.958538 
L 234.530339 228.299203 
L 237.809477 234.960766 
L 241.088616 240.047644 
L 244.367755 243.859781 
L 247.646894 246.788419 
L 250.926032 249.212141 
L 254.205171 251.416827 
L 257.48431 253.553603 
L 260.763448 255.637716 
L 264.042587 257.581054 
L 267.321726 259.243961 
L 270.600864 260.489645 
L 273.880003 261.227103 
L 277.159142 261.434298 
L 280.43828 261.159648 
L 283.717419 260.504519 
L 286.996558 259.592252 
L 290.275696 258.531552 
L 293.554835 257.384371 
L 296.833974 256.149457 
L 300.113112 254.769762 
L 303.392251 253.164022 
L 306.67139 251.272586 
L 309.950528 249.100443 
L 313.229667 246.741032 
L 316.508806 244.373156 
L 319.787944 242.235257 
L 323.067083 240.589716 
L 326.346222 239.690233 
L 329.62536 239.758756 
L 332.904499 240.969835 
L 336.183638 243.435704 
L 339.462777 247.187355 
L 342.741915 252.153665 
L 346.021054 258.147367 
L 349.300193 264.868735 
L 352.579331 271.933561 
L 355.85847 278.923245 
L 359.137609 285.445958 
L 362.416747 291.192975 
L 365.695886 295.975671 
L 368.975025 299.735286 
L 372.254163 302.52646 
L 375.533302 304.482953 
L 378.812441 305.777312 
L 382.091579 306.585162 
L 385.370718 307.060611 
L 388.649857 307.324347 
L 391.928995 307.462167 
L 395.208134 307.529983 
L 398.487273 307.561389 
" style="fill:none;stroke:#f48024;stroke-linecap:square;stroke-width:1.5;"/>
   </g>
   <g id="line2d_16">
    <path clip-path="url(#p39d914f3ec)" d="M 73.832727 307.500592 
L 77.108584 307.387641 
L 80.384441 307.149127 
L 83.660298 306.677147 
L 86.936155 305.801358 
L 90.212012 304.276267 
L 93.48787 301.781217 
L 96.763727 297.941212 
L 100.039584 292.372545 
L 103.315441 284.749581 
L 106.591298 274.881002 
L 109.867155 262.779498 
L 113.143012 248.710497 
L 116.418869 233.210937 
L 119.694726 217.073443 
L 122.970583 201.29144 
L 126.24644 186.959668 
L 129.522297 175.129642 
L 132.798154 166.635726 
L 136.074011 161.929641 
L 139.349868 160.974985 
L 142.625725 163.244792 
L 145.901582 167.832256 
L 149.177439 173.642357 
L 152.453296 179.602614 
L 155.729153 184.830337 
L 159.00501 188.720059 
L 162.280867 190.951462 
L 165.556724 191.445014 
L 168.832581 190.298945 
L 172.108438 187.730452 
L 175.384296 184.028376 
L 178.660153 179.5153 
L 181.93601 174.517293 
L 185.211867 169.344537 
L 188.487724 164.288615 
L 191.763581 159.638254 
L 195.039438 155.706392 
L 198.315295 152.852697 
L 201.591152 151.482406 
L 204.867009 152.007565 
L 208.142866 154.770195 
L 211.418723 159.944443 
L 214.69458 167.449394 
L 217.970437 176.907864 
L 221.246294 187.675219 
L 224.522151 198.938959 
L 227.798008 209.864295 
L 231.073865 219.744615 
L 234.349722 228.115342 
L 237.625579 234.803966 
L 240.901436 239.9106 
L 244.177293 243.733207 
L 247.45315 246.663676 
L 250.729007 249.083532 
L 254.004864 251.283051 
L 257.280722 253.418069 
L 260.556579 255.507685 
L 263.832436 257.465877 
L 267.108293 259.152948 
L 270.38415 260.430208 
L 273.660007 261.20371 
L 276.935864 261.448474 
L 280.211721 261.210804 
L 283.487578 260.591078 
L 286.763435 259.712433 
L 290.039292 258.683392 
L 293.315149 257.56498 
L 296.591006 256.353848 
L 299.866863 254.989783 
L 303.14272 253.387829 
L 306.418577 251.484891 
L 309.694434 249.283588 
L 312.970291 246.876784 
L 316.246148 244.444975 
L 319.522005 242.230604 
L 322.797862 240.501817 
L 326.073719 239.518809 
L 329.349576 239.509538 
L 332.625433 240.653212 
L 335.90129 243.06517 
L 339.177148 246.778381 
L 342.453005 251.723151 
L 345.728862 257.713308 
L 349.004719 264.449503 
L 352.280576 271.546442 
L 355.556433 278.58244 
L 358.83229 285.160692 
L 362.108147 290.966465 
L 365.384004 295.805343 
L 368.659861 299.614125 
L 371.935718 302.444988 
L 375.211575 304.431187 
L 378.487432 305.74624 
L 381.763289 306.567545 
L 385.039146 307.051178 
L 388.315003 307.319577 
L 391.59086 307.45989 
L 394.866717 307.528957 
L 398.142574 307.560953 
" style="fill:none;stroke:#008000;stroke-linecap:square;stroke-width:1.5;"/>
   </g>
   <g id="patch_203">
    <path d="M 57.6 307.584 
L 57.6 41.472 
" style="fill:none;stroke:#000000;stroke-linecap:square;stroke-linejoin:miter;stroke-width:0.8;"/>
   </g>
   <g id="patch_204">
    <path d="M 414.72 307.584 
L 414.72 41.472 
" style="fill:none;stroke:#000000;stroke-linecap:square;stroke-linejoin:miter;stroke-width:0.8;"/>
   </g>
   <g id="patch_205">
    <path d="M 57.6 307.584 
L 414.72 307.584 
" style="fill:none;stroke:#000000;stroke-linecap:square;stroke-linejoin:miter;stroke-width:0.8;"/>
   </g>
   <g id="patch_206">
    <path d="M 57.6 41.472 
L 414.72 41.472 
" style="fill:none;stroke:#000000;stroke-linecap:square;stroke-linejoin:miter;stroke-width:0.8;"/>
   </g>
   <g id="text_15">
    <!-- {'mae': 62.994, 'smape': 0.015, 'jsd': 0.018} -->
    <defs>
     <path d="M 51.125 -9.28125 
L 51.125 -16.3125 
L 48.09375 -16.3125 
Q 35.9375 -16.3125 31.8125 -12.6875 
Q 27.6875 -9.078125 27.6875 1.703125 
L 27.6875 13.375 
Q 27.6875 20.75 25.046875 23.578125 
Q 22.40625 26.421875 15.484375 26.421875 
L 12.5 26.421875 
L 12.5 33.40625 
L 15.484375 33.40625 
Q 22.46875 33.40625 25.078125 36.203125 
Q 27.6875 39.015625 27.6875 46.296875 
L 27.6875 58.015625 
Q 27.6875 68.796875 31.8125 72.390625 
Q 35.9375 75.984375 48.09375 75.984375 
L 51.125 75.984375 
L 51.125 69 
L 47.796875 69 
Q 40.921875 69 38.8125 66.84375 
Q 36.71875 64.703125 36.71875 57.8125 
L 36.71875 45.703125 
Q 36.71875 38.03125 34.5 34.5625 
Q 32.28125 31.109375 26.90625 29.890625 
Q 32.328125 28.5625 34.515625 25.09375 
Q 36.71875 21.625 36.71875 14.015625 
L 36.71875 1.90625 
Q 36.71875 -4.984375 38.8125 -7.125 
Q 40.921875 -9.28125 47.796875 -9.28125 
z
" id="DejaVuSans-123"/>
     <path d="M 17.921875 72.90625 
L 17.921875 45.796875 
L 9.625 45.796875 
L 9.625 72.90625 
z
" id="DejaVuSans-39"/>
     <path d="M 52 44.1875 
Q 55.375 50.25 60.0625 53.125 
Q 64.75 56 71.09375 56 
Q 79.640625 56 84.28125 50.015625 
Q 88.921875 44.046875 88.921875 33.015625 
L 88.921875 0 
L 79.890625 0 
L 79.890625 32.71875 
Q 79.890625 40.578125 77.09375 44.375 
Q 74.3125 48.1875 68.609375 48.1875 
Q 61.625 48.1875 57.5625 43.546875 
Q 53.515625 38.921875 53.515625 30.90625 
L 53.515625 0 
L 44.484375 0 
L 44.484375 32.71875 
Q 44.484375 40.625 41.703125 44.40625 
Q 38.921875 48.1875 33.109375 48.1875 
Q 26.21875 48.1875 22.15625 43.53125 
Q 18.109375 38.875 18.109375 30.90625 
L 18.109375 0 
L 9.078125 0 
L 9.078125 54.6875 
L 18.109375 54.6875 
L 18.109375 46.1875 
Q 21.1875 51.21875 25.484375 53.609375 
Q 29.78125 56 35.6875 56 
Q 41.65625 56 45.828125 52.96875 
Q 50 49.953125 52 44.1875 
z
" id="DejaVuSans-109"/>
     <path d="M 34.28125 27.484375 
Q 23.390625 27.484375 19.1875 25 
Q 14.984375 22.515625 14.984375 16.5 
Q 14.984375 11.71875 18.140625 8.90625 
Q 21.296875 6.109375 26.703125 6.109375 
Q 34.1875 6.109375 38.703125 11.40625 
Q 43.21875 16.703125 43.21875 25.484375 
L 43.21875 27.484375 
z
M 52.203125 31.203125 
L 52.203125 0 
L 43.21875 0 
L 43.21875 8.296875 
Q 40.140625 3.328125 35.546875 0.953125 
Q 30.953125 -1.421875 24.3125 -1.421875 
Q 15.921875 -1.421875 10.953125 3.296875 
Q 6 8.015625 6 15.921875 
Q 6 25.140625 12.171875 29.828125 
Q 18.359375 34.515625 30.609375 34.515625 
L 43.21875 34.515625 
L 43.21875 35.40625 
Q 43.21875 41.609375 39.140625 45 
Q 35.0625 48.390625 27.6875 48.390625 
Q 23 48.390625 18.546875 47.265625 
Q 14.109375 46.140625 10.015625 43.890625 
L 10.015625 52.203125 
Q 14.9375 54.109375 19.578125 55.046875 
Q 24.21875 56 28.609375 56 
Q 40.484375 56 46.34375 49.84375 
Q 52.203125 43.703125 52.203125 31.203125 
z
" id="DejaVuSans-97"/>
     <path d="M 56.203125 29.59375 
L 56.203125 25.203125 
L 14.890625 25.203125 
Q 15.484375 15.921875 20.484375 11.0625 
Q 25.484375 6.203125 34.421875 6.203125 
Q 39.59375 6.203125 44.453125 7.46875 
Q 49.3125 8.734375 54.109375 11.28125 
L 54.109375 2.78125 
Q 49.265625 0.734375 44.1875 -0.34375 
Q 39.109375 -1.421875 33.890625 -1.421875 
Q 20.796875 -1.421875 13.15625 6.1875 
Q 5.515625 13.8125 5.515625 26.8125 
Q 5.515625 40.234375 12.765625 48.109375 
Q 20.015625 56 32.328125 56 
Q 43.359375 56 49.78125 48.890625 
Q 56.203125 41.796875 56.203125 29.59375 
z
M 47.21875 32.234375 
Q 47.125 39.59375 43.09375 43.984375 
Q 39.0625 48.390625 32.421875 48.390625 
Q 24.90625 48.390625 20.390625 44.140625 
Q 15.875 39.890625 15.1875 32.171875 
z
" id="DejaVuSans-101"/>
     <path d="M 11.71875 12.40625 
L 22.015625 12.40625 
L 22.015625 0 
L 11.71875 0 
z
M 11.71875 51.703125 
L 22.015625 51.703125 
L 22.015625 39.3125 
L 11.71875 39.3125 
z
" id="DejaVuSans-58"/>
     <path id="DejaVuSans-32"/>
     <path d="M 11.71875 12.40625 
L 22.015625 12.40625 
L 22.015625 4 
L 14.015625 -11.625 
L 7.71875 -11.625 
L 11.71875 4 
z
" id="DejaVuSans-44"/>
     <path d="M 44.28125 53.078125 
L 44.28125 44.578125 
Q 40.484375 46.53125 36.375 47.5 
Q 32.28125 48.484375 27.875 48.484375 
Q 21.1875 48.484375 17.84375 46.4375 
Q 14.5 44.390625 14.5 40.28125 
Q 14.5 37.15625 16.890625 35.375 
Q 19.28125 33.59375 26.515625 31.984375 
L 29.59375 31.296875 
Q 39.15625 29.25 43.1875 25.515625 
Q 47.21875 21.78125 47.21875 15.09375 
Q 47.21875 7.46875 41.1875 3.015625 
Q 35.15625 -1.421875 24.609375 -1.421875 
Q 20.21875 -1.421875 15.453125 -0.5625 
Q 10.6875 0.296875 5.421875 2 
L 5.421875 11.28125 
Q 10.40625 8.6875 15.234375 7.390625 
Q 20.0625 6.109375 24.8125 6.109375 
Q 31.15625 6.109375 34.5625 8.28125 
Q 37.984375 10.453125 37.984375 14.40625 
Q 37.984375 18.0625 35.515625 20.015625 
Q 33.0625 21.96875 24.703125 23.78125 
L 21.578125 24.515625 
Q 13.234375 26.265625 9.515625 29.90625 
Q 5.8125 33.546875 5.8125 39.890625 
Q 5.8125 47.609375 11.28125 51.796875 
Q 16.75 56 26.8125 56 
Q 31.78125 56 36.171875 55.265625 
Q 40.578125 54.546875 44.28125 53.078125 
z
" id="DejaVuSans-115"/>
     <path d="M 18.109375 8.203125 
L 18.109375 -20.796875 
L 9.078125 -20.796875 
L 9.078125 54.6875 
L 18.109375 54.6875 
L 18.109375 46.390625 
Q 20.953125 51.265625 25.265625 53.625 
Q 29.59375 56 35.59375 56 
Q 45.5625 56 51.78125 48.09375 
Q 58.015625 40.1875 58.015625 27.296875 
Q 58.015625 14.40625 51.78125 6.484375 
Q 45.5625 -1.421875 35.59375 -1.421875 
Q 29.59375 -1.421875 25.265625 0.953125 
Q 20.953125 3.328125 18.109375 8.203125 
z
M 48.6875 27.296875 
Q 48.6875 37.203125 44.609375 42.84375 
Q 40.53125 48.484375 33.40625 48.484375 
Q 26.265625 48.484375 22.1875 42.84375 
Q 18.109375 37.203125 18.109375 27.296875 
Q 18.109375 17.390625 22.1875 11.75 
Q 26.265625 6.109375 33.40625 6.109375 
Q 40.53125 6.109375 44.609375 11.75 
Q 48.6875 17.390625 48.6875 27.296875 
z
" id="DejaVuSans-112"/>
     <path d="M 9.421875 54.6875 
L 18.40625 54.6875 
L 18.40625 -0.984375 
Q 18.40625 -11.421875 14.421875 -16.109375 
Q 10.453125 -20.796875 1.609375 -20.796875 
L -1.8125 -20.796875 
L -1.8125 -13.1875 
L 0.59375 -13.1875 
Q 5.71875 -13.1875 7.5625 -10.8125 
Q 9.421875 -8.453125 9.421875 -0.984375 
z
M 9.421875 75.984375 
L 18.40625 75.984375 
L 18.40625 64.59375 
L 9.421875 64.59375 
z
" id="DejaVuSans-106"/>
     <path d="M 45.40625 46.390625 
L 45.40625 75.984375 
L 54.390625 75.984375 
L 54.390625 0 
L 45.40625 0 
L 45.40625 8.203125 
Q 42.578125 3.328125 38.25 0.953125 
Q 33.9375 -1.421875 27.875 -1.421875 
Q 17.96875 -1.421875 11.734375 6.484375 
Q 5.515625 14.40625 5.515625 27.296875 
Q 5.515625 40.1875 11.734375 48.09375 
Q 17.96875 56 27.875 56 
Q 33.9375 56 38.25 53.625 
Q 42.578125 51.265625 45.40625 46.390625 
z
M 14.796875 27.296875 
Q 14.796875 17.390625 18.875 11.75 
Q 22.953125 6.109375 30.078125 6.109375 
Q 37.203125 6.109375 41.296875 11.75 
Q 45.40625 17.390625 45.40625 27.296875 
Q 45.40625 37.203125 41.296875 42.84375 
Q 37.203125 48.484375 30.078125 48.484375 
Q 22.953125 48.484375 18.875 42.84375 
Q 14.796875 37.203125 14.796875 27.296875 
z
" id="DejaVuSans-100"/>
     <path d="M 12.5 -9.28125 
L 15.921875 -9.28125 
Q 22.75 -9.28125 24.828125 -7.171875 
Q 26.90625 -5.078125 26.90625 1.90625 
L 26.90625 14.015625 
Q 26.90625 21.625 29.09375 25.09375 
Q 31.296875 28.5625 36.71875 29.890625 
Q 31.296875 31.109375 29.09375 34.5625 
Q 26.90625 38.03125 26.90625 45.703125 
L 26.90625 57.8125 
Q 26.90625 64.75 24.828125 66.875 
Q 22.75 69 15.921875 69 
L 12.5 69 
L 12.5 75.984375 
L 15.578125 75.984375 
Q 27.734375 75.984375 31.8125 72.390625 
Q 35.890625 68.796875 35.890625 58.015625 
L 35.890625 46.296875 
Q 35.890625 39.015625 38.515625 36.203125 
Q 41.15625 33.40625 48.09375 33.40625 
L 51.125 33.40625 
L 51.125 26.421875 
L 48.09375 26.421875 
Q 41.15625 26.421875 38.515625 23.578125 
Q 35.890625 20.75 35.890625 13.375 
L 35.890625 1.703125 
Q 35.890625 -9.078125 31.8125 -12.6875 
Q 27.734375 -16.3125 15.578125 -16.3125 
L 12.5 -16.3125 
z
" id="DejaVuSans-125"/>
    </defs>
    <g transform="translate(101.908125 35.472)scale(0.12 -0.12)">
     <use xlink:href="#DejaVuSans-123"/>
     <use x="63.623047" xlink:href="#DejaVuSans-39"/>
     <use x="91.113281" xlink:href="#DejaVuSans-109"/>
     <use x="188.525391" xlink:href="#DejaVuSans-97"/>
     <use x="249.804688" xlink:href="#DejaVuSans-101"/>
     <use x="311.328125" xlink:href="#DejaVuSans-39"/>
     <use x="338.818359" xlink:href="#DejaVuSans-58"/>
     <use x="372.509766" xlink:href="#DejaVuSans-32"/>
     <use x="404.296875" xlink:href="#DejaVuSans-54"/>
     <use x="467.919922" xlink:href="#DejaVuSans-50"/>
     <use x="531.542969" xlink:href="#DejaVuSans-46"/>
     <use x="563.330078" xlink:href="#DejaVuSans-57"/>
     <use x="626.953125" xlink:href="#DejaVuSans-57"/>
     <use x="690.576172" xlink:href="#DejaVuSans-52"/>
     <use x="754.199219" xlink:href="#DejaVuSans-44"/>
     <use x="785.986328" xlink:href="#DejaVuSans-32"/>
     <use x="817.773438" xlink:href="#DejaVuSans-39"/>
     <use x="845.263672" xlink:href="#DejaVuSans-115"/>
     <use x="897.363281" xlink:href="#DejaVuSans-109"/>
     <use x="994.775391" xlink:href="#DejaVuSans-97"/>
     <use x="1056.054688" xlink:href="#DejaVuSans-112"/>
     <use x="1119.53125" xlink:href="#DejaVuSans-101"/>
     <use x="1181.054688" xlink:href="#DejaVuSans-39"/>
     <use x="1208.544922" xlink:href="#DejaVuSans-58"/>
     <use x="1242.236328" xlink:href="#DejaVuSans-32"/>
     <use x="1274.023438" xlink:href="#DejaVuSans-48"/>
     <use x="1337.646484" xlink:href="#DejaVuSans-46"/>
     <use x="1369.433594" xlink:href="#DejaVuSans-48"/>
     <use x="1433.056641" xlink:href="#DejaVuSans-49"/>
     <use x="1496.679688" xlink:href="#DejaVuSans-53"/>
     <use x="1560.302734" xlink:href="#DejaVuSans-44"/>
     <use x="1592.089844" xlink:href="#DejaVuSans-32"/>
     <use x="1623.876953" xlink:href="#DejaVuSans-39"/>
     <use x="1651.367188" xlink:href="#DejaVuSans-106"/>
     <use x="1679.150391" xlink:href="#DejaVuSans-115"/>
     <use x="1731.25" xlink:href="#DejaVuSans-100"/>
     <use x="1794.726562" xlink:href="#DejaVuSans-39"/>
     <use x="1822.216797" xlink:href="#DejaVuSans-58"/>
     <use x="1855.908203" xlink:href="#DejaVuSans-32"/>
     <use x="1887.695312" xlink:href="#DejaVuSans-48"/>
     <use x="1951.318359" xlink:href="#DejaVuSans-46"/>
     <use x="1983.105469" xlink:href="#DejaVuSans-48"/>
     <use x="2046.728516" xlink:href="#DejaVuSans-49"/>
     <use x="2110.351562" xlink:href="#DejaVuSans-56"/>
     <use x="2173.974609" xlink:href="#DejaVuSans-125"/>
    </g>
   </g>
   <g id="legend_1">
    <g id="patch_207">
     <path d="M 340.565313 78.82825 
L 407.72 78.82825 
Q 409.72 78.82825 409.72 76.82825 
L 409.72 48.472 
Q 409.72 46.472 407.72 46.472 
L 340.565313 46.472 
Q 338.565313 46.472 338.565313 48.472 
L 338.565313 76.82825 
Q 338.565313 78.82825 340.565313 78.82825 
z
" style="fill:#ffffff;opacity:0.8;stroke:#cccccc;stroke-linejoin:miter;"/>
    </g>
    <g id="patch_208">
     <path d="M 342.565313 58.070437 
L 362.565313 58.070437 
L 362.565313 51.070437 
L 342.565313 51.070437 
z
" style="fill:#f48024;opacity:0.4;"/>
    </g>
    <g id="text_16">
     <!-- actual -->
     <defs>
      <path d="M 48.78125 52.59375 
L 48.78125 44.1875 
Q 44.96875 46.296875 41.140625 47.34375 
Q 37.3125 48.390625 33.40625 48.390625 
Q 24.65625 48.390625 19.8125 42.84375 
Q 14.984375 37.3125 14.984375 27.296875 
Q 14.984375 17.28125 19.8125 11.734375 
Q 24.65625 6.203125 33.40625 6.203125 
Q 37.3125 6.203125 41.140625 7.25 
Q 44.96875 8.296875 48.78125 10.40625 
L 48.78125 2.09375 
Q 45.015625 0.34375 40.984375 -0.53125 
Q 36.96875 -1.421875 32.421875 -1.421875 
Q 20.0625 -1.421875 12.78125 6.34375 
Q 5.515625 14.109375 5.515625 27.296875 
Q 5.515625 40.671875 12.859375 48.328125 
Q 20.21875 56 33.015625 56 
Q 37.15625 56 41.109375 55.140625 
Q 45.0625 54.296875 48.78125 52.59375 
z
" id="DejaVuSans-99"/>
      <path d="M 18.3125 70.21875 
L 18.3125 54.6875 
L 36.8125 54.6875 
L 36.8125 47.703125 
L 18.3125 47.703125 
L 18.3125 18.015625 
Q 18.3125 11.328125 20.140625 9.421875 
Q 21.96875 7.515625 27.59375 7.515625 
L 36.8125 7.515625 
L 36.8125 0 
L 27.59375 0 
Q 17.1875 0 13.234375 3.875 
Q 9.28125 7.765625 9.28125 18.015625 
L 9.28125 47.703125 
L 2.6875 47.703125 
L 2.6875 54.6875 
L 9.28125 54.6875 
L 9.28125 70.21875 
z
" id="DejaVuSans-116"/>
      <path d="M 8.5 21.578125 
L 8.5 54.6875 
L 17.484375 54.6875 
L 17.484375 21.921875 
Q 17.484375 14.15625 20.5 10.265625 
Q 23.53125 6.390625 29.59375 6.390625 
Q 36.859375 6.390625 41.078125 11.03125 
Q 45.3125 15.671875 45.3125 23.6875 
L 45.3125 54.6875 
L 54.296875 54.6875 
L 54.296875 0 
L 45.3125 0 
L 45.3125 8.40625 
Q 42.046875 3.421875 37.71875 1 
Q 33.40625 -1.421875 27.6875 -1.421875 
Q 18.265625 -1.421875 13.375 4.4375 
Q 8.5 10.296875 8.5 21.578125 
z
M 31.109375 56 
z
" id="DejaVuSans-117"/>
      <path d="M 9.421875 75.984375 
L 18.40625 75.984375 
L 18.40625 0 
L 9.421875 0 
z
" id="DejaVuSans-108"/>
     </defs>
     <g transform="translate(370.565313 58.070437)scale(0.1 -0.1)">
      <use xlink:href="#DejaVuSans-97"/>
      <use x="61.279297" xlink:href="#DejaVuSans-99"/>
      <use x="116.259766" xlink:href="#DejaVuSans-116"/>
      <use x="155.46875" xlink:href="#DejaVuSans-117"/>
      <use x="218.847656" xlink:href="#DejaVuSans-97"/>
      <use x="280.126953" xlink:href="#DejaVuSans-108"/>
     </g>
    </g>
    <g id="patch_209">
     <path d="M 342.565313 72.748562 
L 362.565313 72.748562 
L 362.565313 65.748562 
L 342.565313 65.748562 
z
" style="fill:#008000;opacity:0.4;"/>
    </g>
    <g id="text_17">
     <!-- predict -->
     <defs>
      <path d="M 41.109375 46.296875 
Q 39.59375 47.171875 37.8125 47.578125 
Q 36.03125 48 33.890625 48 
Q 26.265625 48 22.1875 43.046875 
Q 18.109375 38.09375 18.109375 28.8125 
L 18.109375 0 
L 9.078125 0 
L 9.078125 54.6875 
L 18.109375 54.6875 
L 18.109375 46.1875 
Q 20.953125 51.171875 25.484375 53.578125 
Q 30.03125 56 36.53125 56 
Q 37.453125 56 38.578125 55.875 
Q 39.703125 55.765625 41.0625 55.515625 
z
" id="DejaVuSans-114"/>
      <path d="M 9.421875 54.6875 
L 18.40625 54.6875 
L 18.40625 0 
L 9.421875 0 
z
M 9.421875 75.984375 
L 18.40625 75.984375 
L 18.40625 64.59375 
L 9.421875 64.59375 
z
" id="DejaVuSans-105"/>
     </defs>
     <g transform="translate(370.565313 72.748562)scale(0.1 -0.1)">
      <use xlink:href="#DejaVuSans-112"/>
      <use x="63.476562" xlink:href="#DejaVuSans-114"/>
      <use x="104.558594" xlink:href="#DejaVuSans-101"/>
      <use x="166.082031" xlink:href="#DejaVuSans-100"/>
      <use x="229.558594" xlink:href="#DejaVuSans-105"/>
      <use x="257.341797" xlink:href="#DejaVuSans-99"/>
      <use x="312.322266" xlink:href="#DejaVuSans-116"/>
     </g>
    </g>
   </g>
  </g>
 </g>
 <defs>
  <clipPath id="p39d914f3ec">
   <rect height="266.112" width="357.12" x="57.6" y="41.472"/>
  </clipPath>
 </defs>
</svg>
